<?xml version="1.0" encoding="utf-8"?>
<!-- Generator: Adobe Illustrator 19.1.1, SVG Export Plug-In . SVG Version: 6.00 Build 0)  -->
<svg version="1.1" id="圖層_1" xmlns="http://www.w3.org/2000/svg" xmlns:xlink="http://www.w3.org/1999/xlink" x="0px" y="0px"
	 viewBox="0 0 144 144" style="enable-background:new 0 0 144 144;" xml:space="preserve">
<style type="text/css">
	.st0{fill:#FFFFFF;}
	.st1{fill:none;stroke:#00B7FF;stroke-width:2.2318;stroke-linecap:round;stroke-miterlimit:10;}
	.st2{fill:none;stroke:#231815;stroke-width:2.2318;stroke-linecap:round;stroke-miterlimit:10;}
	.st3{fill:url(#SVGID_1_);}
	.st4{fill:none;stroke:#FFFFFF;stroke-width:2.2318;stroke-linecap:round;stroke-miterlimit:10;}
	.st5{fill:url(#SVGID_2_);}
	.st6{fill:url(#SVGID_3_);}
	.st7{fill:url(#SVGID_4_);}
	.st8{fill:url(#SVGID_5_);}
	.st9{fill:url(#SVGID_6_);}
	.st10{fill:url(#SVGID_7_);}
	.st11{fill:url(#SVGID_8_);}
	.st12{fill:none;stroke:#000000;stroke-width:2.2318;stroke-linecap:round;stroke-miterlimit:10;}
	.st13{fill:url(#SVGID_9_);}
	.st14{fill:url(#SVGID_10_);}
	.st15{fill:#231815;}
	.st16{fill:none;stroke:#353535;stroke-width:2.2318;stroke-linecap:round;stroke-miterlimit:10;}
	.st17{fill:url(#SVGID_13_);}
	.st18{opacity:0.2;}
	.st19{opacity:0;}
	.st20{opacity:1.960784e-002;}
	.st21{opacity:3.921569e-002;}
	.st22{opacity:5.882353e-002;}
	.st23{opacity:7.843138e-002;}
	.st24{opacity:9.803922e-002;}
	.st25{opacity:0.1176;}
	.st26{opacity:0.1373;}
	.st27{opacity:0.1569;}
	.st28{opacity:0.1765;}
	.st29{opacity:0.1961;}
	.st30{opacity:0.2157;}
	.st31{opacity:0.2353;}
	.st32{opacity:0.2549;}
	.st33{opacity:0.2745;}
	.st34{opacity:0.2941;}
	.st35{opacity:0.3137;}
	.st36{opacity:0.3333;}
	.st37{opacity:0.3529;}
	.st38{opacity:0.3725;}
	.st39{opacity:0.3922;}
	.st40{opacity:0.4118;}
	.st41{opacity:0.4314;}
	.st42{opacity:0.451;}
	.st43{opacity:0.4706;}
	.st44{opacity:0.4902;}
	.st45{opacity:0.5098;}
	.st46{opacity:0.5294;}
	.st47{opacity:0.549;}
	.st48{opacity:0.5686;}
	.st49{opacity:0.5882;}
	.st50{opacity:0.6078;}
	.st51{opacity:0.6275;}
	.st52{opacity:0.6471;}
	.st53{opacity:0.6667;}
	.st54{opacity:0.6863;}
	.st55{opacity:0.7059;}
	.st56{opacity:0.7255;}
	.st57{opacity:0.7451;}
	.st58{opacity:0.7647;}
	.st59{opacity:0.7843;}
	.st60{opacity:0.8039;}
	.st61{opacity:0.8235;}
	.st62{opacity:0.8431;}
	.st63{opacity:0.8627;}
	.st64{opacity:0.8824;}
	.st65{opacity:0.902;}
	.st66{opacity:0.9216;}
	.st67{opacity:0.9412;}
	.st68{opacity:0.9608;}
	.st69{opacity:0.9804;}
	.st70{fill:url(#SVGID_14_);}
	.st71{fill:url(#SVGID_15_);}
	.st72{opacity:0.15;}
	.st73{fill:url(#SVGID_16_);}
	.st74{fill:url(#SVGID_17_);}
	.st75{opacity:0;fill:#00FFD4;}
	.st76{opacity:1.960784e-002;fill:#00FFD4;}
	.st77{opacity:3.921569e-002;fill:#00FFD4;}
	.st78{opacity:5.882353e-002;fill:#00FFD4;}
	.st79{opacity:7.843138e-002;fill:#00FFD4;}
	.st80{opacity:9.803922e-002;fill:#00FFD4;}
	.st81{opacity:0.1176;fill:#00FFD4;}
	.st82{opacity:0.1373;fill:#00FFD4;}
	.st83{opacity:0.1569;fill:#00FFD4;}
	.st84{opacity:0.1765;fill:#00FFD4;}
	.st85{opacity:0.1961;fill:#00FFD4;}
	.st86{opacity:0.2157;fill:#00FFD4;}
	.st87{opacity:0.2353;fill:#00FFD4;}
	.st88{opacity:0.2549;fill:#00FFD4;}
	.st89{opacity:0.2745;fill:#00FFD4;}
	.st90{opacity:0.2941;fill:#00FFD4;}
	.st91{opacity:0.3137;fill:#00FFD4;}
	.st92{opacity:0.3333;fill:#00FFD4;}
	.st93{opacity:0.3529;fill:#00FFD4;}
	.st94{opacity:0.3725;fill:#00FFD4;}
	.st95{opacity:0.3922;fill:#00FFD4;}
	.st96{opacity:0.4118;fill:#00FFD4;}
	.st97{opacity:0.4314;fill:#00FFD4;}
	.st98{opacity:0.451;fill:#00FFD4;}
	.st99{opacity:0.4706;fill:#00FFD4;}
	.st100{opacity:0.4902;fill:#00FFD4;}
	.st101{opacity:0.5098;fill:#00FFD4;}
	.st102{opacity:0.5294;fill:#00FFD4;}
	.st103{opacity:0.549;fill:#00FFD4;}
	.st104{opacity:0.5686;fill:#00FFD4;}
	.st105{opacity:0.5882;fill:#00FFD4;}
	.st106{opacity:0.6078;fill:#00FFD4;}
	.st107{opacity:0.6275;fill:#00FFD4;}
	.st108{opacity:0.6471;fill:#00FFD4;}
	.st109{opacity:0.6667;fill:#00FFD4;}
	.st110{opacity:0.6863;fill:#00FFD4;}
	.st111{opacity:0.7059;fill:#00FFD4;}
	.st112{opacity:0.7255;fill:#00FFD4;}
	.st113{opacity:0.7451;fill:#00FFD4;}
	.st114{opacity:0.7647;fill:#00FFD4;}
	.st115{opacity:0.7843;fill:#00FFD4;}
	.st116{opacity:0.8039;fill:#00FFD4;}
	.st117{opacity:0.8235;fill:#00FFD4;}
	.st118{opacity:0.8431;fill:#00FFD4;}
	.st119{opacity:0.8627;fill:#00FFD4;}
	.st120{opacity:0.8824;fill:#00FFD4;}
	.st121{opacity:0.902;fill:#00FFD4;}
	.st122{opacity:0.9216;fill:#00FFD4;}
	.st123{opacity:0.9412;fill:#00FFD4;}
	.st124{opacity:0.9608;fill:#00FFD4;}
	.st125{opacity:0.9804;fill:#00FFD4;}
	.st126{fill:#00FFD4;}
	.st127{fill:url(#SVGID_18_);}
	.st128{fill:url(#SVGID_19_);}
	.st129{fill:url(#SVGID_20_);}
	.st130{fill:url(#SVGID_21_);}
	.st131{fill:url(#SVGID_22_);}
	.st132{fill:url(#SVGID_23_);}
	.st133{fill:url(#SVGID_24_);}
	.st134{fill:url(#SVGID_25_);}
	.st135{fill:url(#SVGID_26_);}
</style>
<radialGradient id="SVGID_1_" cx="10.5897" cy="4.4407" r="188.6159" gradientTransform="matrix(1.0127 0 0 1.0167 2.8878 7.509426e-003)" gradientUnits="userSpaceOnUse">
	<stop  offset="0" style="stop-color:#FFFFFF"/>
	<stop  offset="0.3141" style="stop-color:#FCFCFC"/>
	<stop  offset="0.5371" style="stop-color:#F3F3F3"/>
	<stop  offset="0.7319" style="stop-color:#E3E3E3"/>
	<stop  offset="0.9095" style="stop-color:#CDCDCD"/>
	<stop  offset="1" style="stop-color:#BFBFBF"/>
</radialGradient>
<rect x="-0.4" y="-0.5" class="st3" width="144.8" height="145.3"/>
<g class="st72">
	<path class="st19" d="M92.8,126.2c-18.7,0-34.2-14.2-36.3-32.4l7.4,7.8c0.5,0.6,1.3,0.9,2,0.9c0.7,0,1.4-0.3,1.9-0.8
		c1.1-1.1,1.2-2.8,0.1-4L56.5,85.7c2-18.3,17.5-32.6,36.3-32.6c20.2,0,36.6,16.4,36.6,36.6C129.4,109.8,113,126.2,92.8,126.2z
		 M92.8,47.5c-16.1,0-30.1,9-37.2,22.3l-7.6-7.6c-1.1-1.1-2.9-1.1-4,0c-1.1,1.1-1.1,2.9,0,4l9.1,9.1c-1.6,4.5-2.6,9.3-2.6,14.4
		c0,23.2,18.9,42.2,42.2,42.2c23.2,0,42.2-18.9,42.2-42.2S116.1,47.5,92.8,47.5z"/>
	<path class="st20" d="M92.5,125.8c-18.7,0-34.2-14.2-36.3-32.4l7.4,7.8c0.5,0.6,1.3,0.9,2,0.9c0.7,0,1.4-0.3,1.9-0.8
		c1.1-1.1,1.2-2.8,0.1-4L56.2,85.3c2-18.3,17.5-32.6,36.3-32.6c20.2,0,36.6,16.4,36.6,36.6C129,109.4,112.6,125.8,92.5,125.8z
		 M92.5,47.1c-16.1,0-30.1,9-37.2,22.3l-7.6-7.6c-1.1-1.1-2.9-1.1-4,0c-1.1,1.1-1.1,2.9,0,4l9.1,9.1c-1.6,4.5-2.6,9.3-2.6,14.4
		c0,23.2,18.9,42.2,42.2,42.2c23.2,0,42.2-18.9,42.2-42.2S115.7,47.1,92.5,47.1z"/>
	<path class="st21" d="M92.1,125.5c-18.7,0-34.2-14.2-36.3-32.4l7.4,7.8c0.5,0.6,1.3,0.9,2,0.9c0.7,0,1.4-0.3,1.9-0.8
		c1.1-1.1,1.2-2.8,0.1-4L55.8,85c2-18.3,17.5-32.6,36.3-32.6c20.2,0,36.6,16.4,36.6,36.6C128.7,109.1,112.3,125.5,92.1,125.5z
		 M92.1,46.8c-16.1,0-30.1,9-37.2,22.3l-7.6-7.6c-1.1-1.1-2.9-1.1-4,0c-1.1,1.1-1.1,2.9,0,4l9.1,9.1C50.9,79,50,83.9,50,88.9
		c0,23.2,18.9,42.2,42.2,42.2c23.2,0,42.2-18.9,42.2-42.2S115.4,46.8,92.1,46.8z"/>
	<path class="st22" d="M91.8,125.1c-18.7,0-34.2-14.2-36.3-32.4l7.4,7.8c0.5,0.6,1.3,0.9,2,0.9c0.7,0,1.4-0.3,1.9-0.8
		c1.1-1.1,1.2-2.8,0.1-4L55.5,84.6C57.4,66.3,73,52,91.8,52c20.2,0,36.6,16.4,36.6,36.6C128.4,108.7,112,125.1,91.8,125.1z
		 M91.8,46.4c-16.1,0-30.1,9-37.2,22.3L47,61.1c-1.1-1.1-2.9-1.1-4,0c-1.1,1.1-1.1,2.9,0,4l9.1,9.1c-1.6,4.5-2.6,9.3-2.6,14.4
		c0,23.2,18.9,42.2,42.2,42.2c23.2,0,42.2-18.9,42.2-42.2S115,46.4,91.8,46.4z"/>
	<path class="st23" d="M91.5,124.7c-18.7,0-34.2-14.2-36.3-32.4l7.4,7.8c0.5,0.6,1.3,0.9,2,0.9c0.7,0,1.4-0.3,1.9-0.8
		c1.1-1.1,1.2-2.8,0.1-4L55.1,84.2c2-18.3,17.5-32.6,36.3-32.6c20.2,0,36.6,16.4,36.6,36.6C128,108.3,111.6,124.7,91.5,124.7z
		 M91.5,46c-16.1,0-30.1,9-37.2,22.3l-7.6-7.6c-1.1-1.1-2.9-1.1-4,0c-1.1,1.1-1.1,2.9,0,4l9.1,9.1c-1.6,4.5-2.6,9.3-2.6,14.4
		c0,23.2,18.9,42.2,42.2,42.2c23.2,0,42.2-18.9,42.2-42.2S114.7,46,91.5,46z"/>
	<path class="st24" d="M91.1,124.4c-18.7,0-34.2-14.2-36.3-32.4l7.4,7.8c0.5,0.6,1.3,0.9,2,0.9c0.7,0,1.4-0.3,1.9-0.8
		c1.1-1.1,1.2-2.8,0.1-4L54.8,83.8c2-18.3,17.5-32.6,36.3-32.6c20.2,0,36.6,16.4,36.6,36.6C127.7,108,111.3,124.4,91.1,124.4z
		 M91.1,45.6c-16.1,0-30.1,9-37.2,22.3l-7.6-7.6c-1.1-1.1-2.9-1.1-4,0c-1.1,1.1-1.1,2.9,0,4l9.1,9.1c-1.6,4.5-2.6,9.3-2.6,14.4
		c0,23.2,18.9,42.2,42.2,42.2c23.2,0,42.2-18.9,42.2-42.2S114.4,45.6,91.1,45.6z"/>
	<path class="st25" d="M90.8,124c-18.7,0-34.2-14.2-36.3-32.4l7.4,7.8c0.5,0.6,1.3,0.9,2,0.9c0.7,0,1.4-0.3,1.9-0.8
		c1.1-1.1,1.2-2.8,0.1-4L54.4,83.5c2-18.3,17.5-32.6,36.3-32.6c20.2,0,36.6,16.4,36.6,36.6C127.3,107.6,110.9,124,90.8,124z
		 M90.8,45.3c-16.1,0-30.1,9-37.2,22.3L46,60c-1.1-1.1-2.9-1.1-4,0c-1.1,1.1-1.1,2.9,0,4l9.1,9.1c-1.6,4.5-2.6,9.3-2.6,14.4
		c0,23.2,18.9,42.2,42.2,42.2c23.2,0,42.2-18.9,42.2-42.2S114,45.3,90.8,45.3z"/>
	<path class="st26" d="M90.4,123.6c-18.7,0-34.2-14.2-36.3-32.4l7.4,7.8c0.5,0.6,1.3,0.9,2,0.9c0.7,0,1.4-0.3,1.9-0.8
		c1.1-1.1,1.2-2.8,0.1-4L54.1,83.1c2-18.3,17.5-32.6,36.3-32.6c20.2,0,36.6,16.4,36.6,36.6C127,107.2,110.6,123.6,90.4,123.6z
		 M90.4,44.9c-16.1,0-30.1,9-37.2,22.3l-7.6-7.6c-1.1-1.1-2.9-1.1-4,0c-1.1,1.1-1.1,2.9,0,4l9.1,9.1c-1.6,4.5-2.6,9.3-2.6,14.4
		c0,23.2,18.9,42.2,42.2,42.2c23.2,0,42.2-18.9,42.2-42.2S113.7,44.9,90.4,44.9z"/>
	<path class="st27" d="M90.1,123.2c-18.7,0-34.2-14.2-36.3-32.4l7.4,7.8c0.5,0.6,1.3,0.9,2,0.9c0.7,0,1.4-0.3,1.9-0.8
		c1.1-1.1,1.2-2.8,0.1-4L53.7,82.7c2-18.3,17.5-32.6,36.3-32.6c20.2,0,36.6,16.4,36.6,36.6C126.6,106.8,110.2,123.2,90.1,123.2z
		 M90.1,44.5c-16.1,0-30.1,9-37.2,22.3l-7.6-7.6c-1.1-1.1-2.9-1.1-4,0c-1.1,1.1-1.1,2.9,0,4l9.1,9.1c-1.6,4.5-2.6,9.3-2.6,14.4
		c0,23.2,18.9,42.2,42.2,42.2c23.2,0,42.2-18.9,42.2-42.2S113.3,44.5,90.1,44.5z"/>
	<path class="st28" d="M89.7,122.9c-18.7,0-34.2-14.2-36.3-32.4l7.4,7.8c0.5,0.6,1.3,0.9,2,0.9c0.7,0,1.4-0.3,1.9-0.8
		c1.1-1.1,1.2-2.8,0.1-4L53.4,82.4c2-18.3,17.5-32.6,36.3-32.6c20.2,0,36.6,16.4,36.6,36.6C126.3,106.5,109.9,122.9,89.7,122.9z
		 M89.7,44.2c-16.1,0-30.1,9-37.2,22.3L45,58.9c-1.1-1.1-2.9-1.1-4,0c-1.1,1.1-1.1,2.9,0,4l9.1,9.1c-1.6,4.5-2.6,9.3-2.6,14.4
		c0,23.2,18.9,42.2,42.2,42.2c23.2,0,42.2-18.9,42.2-42.2S113,44.2,89.7,44.2z"/>
	<path class="st29" d="M89.4,122.5c-18.7,0-34.2-14.2-36.3-32.4l7.4,7.8c0.5,0.6,1.3,0.9,2,0.9c0.7,0,1.4-0.3,1.9-0.8
		c1.1-1.1,1.2-2.8,0.1-4L53.1,82c2-18.3,17.5-32.6,36.3-32.6c20.2,0,36.6,16.4,36.6,36.6C125.9,106.1,109.5,122.5,89.4,122.5z
		 M89.4,43.8c-16.1,0-30.1,9-37.2,22.3l-7.6-7.6c-1.1-1.1-2.9-1.1-4,0c-1.1,1.1-1.1,2.9,0,4l9.1,9.1c-1.6,4.5-2.6,9.3-2.6,14.4
		c0,23.2,18.9,42.2,42.2,42.2c23.2,0,42.2-18.9,42.2-42.2S112.6,43.8,89.4,43.8z"/>
	<path class="st30" d="M89,122.1c-18.7,0-34.2-14.2-36.3-32.4l7.4,7.8c0.5,0.6,1.3,0.9,2,0.9c0.7,0,1.4-0.3,1.9-0.8
		c1.1-1.1,1.2-2.8,0.1-4L52.7,81.6C54.7,63.3,70.2,49,89,49c20.2,0,36.6,16.4,36.6,36.6C125.6,105.7,109.2,122.1,89,122.1z M89,43.4
		c-16.1,0-30.1,9-37.2,22.3l-7.6-7.6c-1.1-1.1-2.9-1.1-4,0c-1.1,1.1-1.1,2.9,0,4l9.1,9.1c-1.6,4.5-2.6,9.3-2.6,14.4
		c0,23.2,18.9,42.2,42.2,42.2c23.2,0,42.2-18.9,42.2-42.2S112.3,43.4,89,43.4z"/>
	<path class="st31" d="M88.7,121.8c-18.7,0-34.2-14.2-36.3-32.4l7.4,7.8c0.5,0.6,1.3,0.9,2,0.9c0.7,0,1.4-0.3,1.9-0.8
		c1.1-1.1,1.2-2.8,0.1-4L52.4,81.2c2-18.3,17.5-32.6,36.3-32.6c20.2,0,36.6,16.4,36.6,36.6C125.3,105.4,108.9,121.8,88.7,121.8z
		 M88.7,43c-16.1,0-30.1,9-37.2,22.3l-7.6-7.6c-1.1-1.1-2.9-1.1-4,0c-1.1,1.1-1.1,2.9,0,4l9.1,9.1c-1.6,4.5-2.6,9.3-2.6,14.4
		c0,23.2,18.9,42.2,42.2,42.2c23.2,0,42.2-18.9,42.2-42.2S111.9,43,88.7,43z"/>
	<path class="st32" d="M88.4,121.4c-18.7,0-34.2-14.2-36.3-32.4l7.4,7.8c0.5,0.6,1.3,0.9,2,0.9c0.7,0,1.4-0.3,1.9-0.8
		c1.1-1.1,1.2-2.8,0.1-4L52,80.9c2-18.3,17.5-32.6,36.3-32.6c20.2,0,36.6,16.4,36.6,36.6C124.9,105,108.5,121.4,88.4,121.4z
		 M88.4,42.7c-16.1,0-30.1,9-37.2,22.3l-7.6-7.6c-1.1-1.1-2.9-1.1-4,0c-1.1,1.1-1.1,2.9,0,4l9.1,9.1c-1.6,4.5-2.6,9.3-2.6,14.4
		c0,23.2,18.9,42.2,42.2,42.2c23.2,0,42.2-18.9,42.2-42.2S111.6,42.7,88.4,42.7z"/>
	<path class="st33" d="M88,121c-18.7,0-34.2-14.2-36.3-32.4l7.4,7.8c0.5,0.6,1.3,0.9,2,0.9c0.7,0,1.4-0.3,1.9-0.8
		c1.1-1.1,1.2-2.8,0.1-4L51.7,80.5c2-18.3,17.5-32.6,36.3-32.6c20.2,0,36.6,16.4,36.6,36.6C124.6,104.6,108.2,121,88,121z M88,42.3
		c-16.1,0-30.1,9-37.2,22.3L43.2,57c-1.1-1.1-2.9-1.1-4,0c-1.1,1.1-1.1,2.9,0,4l9.1,9.1c-1.6,4.5-2.6,9.3-2.6,14.4
		c0,23.2,18.9,42.2,42.2,42.2c23.2,0,42.2-18.9,42.2-42.2S111.3,42.3,88,42.3z"/>
	<path class="st34" d="M87.7,120.6c-18.7,0-34.2-14.2-36.3-32.4l7.4,7.8c0.5,0.6,1.3,0.9,2,0.9c0.7,0,1.4-0.3,1.9-0.8
		c1.1-1.1,1.2-2.8,0.1-4L51.3,80.1c2-18.3,17.5-32.6,36.3-32.6c20.2,0,36.6,16.4,36.6,36.6C124.2,104.2,107.8,120.6,87.7,120.6z
		 M87.7,41.9c-16.1,0-30.1,9-37.2,22.3l-7.6-7.6c-1.1-1.1-2.9-1.1-4,0c-1.1,1.1-1.1,2.9,0,4l9.1,9.1c-1.6,4.5-2.6,9.3-2.6,14.4
		c0,23.2,18.9,42.2,42.2,42.2c23.2,0,42.2-18.9,42.2-42.2S110.9,41.9,87.7,41.9z"/>
	<path class="st35" d="M87.3,120.3c-18.7,0-34.2-14.2-36.3-32.4l7.4,7.8c0.5,0.6,1.3,0.9,2,0.9c0.7,0,1.4-0.3,1.9-0.8
		c1.1-1.1,1.2-2.8,0.1-4L51,79.8c2-18.3,17.5-32.6,36.3-32.6c20.2,0,36.6,16.4,36.6,36.6C123.9,103.9,107.5,120.3,87.3,120.3z
		 M87.3,41.6c-16.1,0-30.1,9-37.2,22.3l-7.6-7.6c-1.1-1.1-2.9-1.1-4,0c-1.1,1.1-1.1,2.9,0,4l9.1,9.1c-1.6,4.5-2.6,9.3-2.6,14.4
		c0,23.2,18.9,42.2,42.2,42.2c23.2,0,42.2-18.9,42.2-42.2S110.6,41.6,87.3,41.6z"/>
	<path class="st36" d="M87,119.9c-18.7,0-34.2-14.2-36.3-32.4l7.4,7.8c0.5,0.6,1.3,0.9,2,0.9c0.7,0,1.4-0.3,1.9-0.8
		c1.1-1.1,1.2-2.8,0.1-4L50.6,79.4c2-18.3,17.5-32.6,36.3-32.6c20.2,0,36.6,16.4,36.6,36.6C123.5,103.5,107.1,119.9,87,119.9z
		 M87,41.2c-16.1,0-30.1,9-37.2,22.3l-7.6-7.6c-1.1-1.1-2.9-1.1-4,0c-1.1,1.1-1.1,2.9,0,4l9.1,9.1c-1.6,4.5-2.6,9.3-2.6,14.4
		c0,23.2,18.9,42.2,42.2,42.2c23.2,0,42.2-18.9,42.2-42.2S110.2,41.2,87,41.2z"/>
	<path class="st37" d="M86.6,119.5c-18.7,0-34.2-14.2-36.3-32.4l7.4,7.8c0.5,0.6,1.3,0.9,2,0.9c0.7,0,1.4-0.3,1.9-0.8
		c1.1-1.1,1.2-2.8,0.1-4L50.3,79c2-18.3,17.5-32.6,36.3-32.6c20.2,0,36.6,16.4,36.6,36.6C123.2,103.1,106.8,119.5,86.6,119.5z
		 M86.6,40.8c-16.1,0-30.1,9-37.2,22.3l-7.6-7.6c-1.1-1.1-2.9-1.1-4,0c-1.1,1.1-1.1,2.9,0,4l9.1,9.1c-1.6,4.5-2.6,9.3-2.6,14.4
		c0,23.2,18.9,42.2,42.2,42.2c23.2,0,42.2-18.9,42.2-42.2S109.9,40.8,86.6,40.8z"/>
	<path class="st38" d="M86.3,119.2c-18.7,0-34.2-14.2-36.3-32.4l7.4,7.8c0.5,0.6,1.3,0.9,2,0.9c0.7,0,1.4-0.3,1.9-0.8
		c1.1-1.1,1.2-2.8,0.1-4L50,78.6C51.9,60.3,67.5,46,86.3,46c20.2,0,36.6,16.4,36.6,36.6C122.8,102.8,106.4,119.2,86.3,119.2z
		 M86.3,40.4c-16.1,0-30.1,9-37.2,22.3l-7.6-7.6c-1.1-1.1-2.9-1.1-4,0c-1.1,1.1-1.1,2.9,0,4l9.1,9.1c-1.6,4.5-2.6,9.3-2.6,14.4
		c0,23.2,18.9,42.2,42.2,42.2c23.2,0,42.2-18.9,42.2-42.2S109.5,40.4,86.3,40.4z"/>
	<path class="st39" d="M85.9,118.8c-18.7,0-34.2-14.2-36.3-32.4l7.4,7.8c0.5,0.6,1.3,0.9,2,0.9c0.7,0,1.4-0.3,1.9-0.8
		c1.1-1.1,1.2-2.8,0.1-4L49.6,78.3c2-18.3,17.5-32.6,36.3-32.6c20.2,0,36.6,16.4,36.6,36.6C122.5,102.4,106.1,118.8,85.9,118.8z
		 M85.9,40.1c-16.1,0-30.1,9-37.2,22.3l-7.6-7.6c-1.1-1.1-2.9-1.1-4,0c-1.1,1.1-1.1,2.9,0,4l9.1,9.1c-1.6,4.5-2.6,9.3-2.6,14.4
		c0,23.2,18.9,42.2,42.2,42.2c23.2,0,42.2-18.9,42.2-42.2S109.2,40.1,85.9,40.1z"/>
	<path class="st40" d="M85.6,118.4c-18.7,0-34.2-14.2-36.3-32.4l7.4,7.8c0.5,0.6,1.3,0.9,2,0.9c0.7,0,1.4-0.3,1.9-0.8
		c1.1-1.1,1.2-2.8,0.1-4L49.3,77.9c2-18.3,17.5-32.6,36.3-32.6c20.2,0,36.6,16.4,36.6,36.6C122.2,102,105.8,118.4,85.6,118.4z
		 M85.6,39.7c-16.1,0-30.1,9-37.2,22.3l-7.6-7.6c-1.1-1.1-2.9-1.1-4,0c-1.1,1.1-1.1,2.9,0,4l9.1,9.1c-1.6,4.5-2.6,9.3-2.6,14.4
		c0,23.2,18.9,42.2,42.2,42.2c23.2,0,42.2-18.9,42.2-42.2S108.8,39.7,85.6,39.7z"/>
	<path class="st41" d="M85.3,118c-18.7,0-34.2-14.2-36.3-32.4l7.4,7.8c0.5,0.6,1.3,0.9,2,0.9c0.7,0,1.4-0.3,1.9-0.8
		c1.1-1.1,1.2-2.8,0.1-4L48.9,77.5c2-18.3,17.5-32.6,36.3-32.6c20.2,0,36.6,16.4,36.6,36.6C121.8,101.6,105.4,118,85.3,118z
		 M85.3,39.3c-16.1,0-30.1,9-37.2,22.3L40.5,54c-1.1-1.1-2.9-1.1-4,0c-1.1,1.1-1.1,2.9,0,4l9.1,9.1c-1.6,4.5-2.6,9.3-2.6,14.4
		c0,23.2,18.9,42.2,42.2,42.2c23.2,0,42.2-18.9,42.2-42.2S108.5,39.3,85.3,39.3z"/>
	<path class="st42" d="M84.9,117.7c-18.7,0-34.2-14.2-36.3-32.4l7.4,7.8c0.5,0.6,1.3,0.9,2,0.9c0.7,0,1.4-0.3,1.9-0.8
		c1.1-1.1,1.2-2.8,0.1-4L48.6,77.2c2-18.3,17.5-32.6,36.3-32.6c20.2,0,36.6,16.4,36.6,36.6C121.5,101.3,105.1,117.7,84.9,117.7z
		 M84.9,39c-16.1,0-30.1,9-37.2,22.3l-7.6-7.6c-1.1-1.1-2.9-1.1-4,0c-1.1,1.1-1.1,2.9,0,4l9.1,9.1c-1.6,4.5-2.6,9.3-2.6,14.4
		c0,23.2,18.9,42.2,42.2,42.2c23.2,0,42.2-18.9,42.2-42.2S108.2,39,84.9,39z"/>
	<path class="st43" d="M84.6,117.3c-18.7,0-34.2-14.2-36.3-32.4l7.4,7.8c0.5,0.6,1.3,0.9,2,0.9c0.7,0,1.4-0.3,1.9-0.8
		c1.1-1.1,1.2-2.8,0.1-4L48.2,76.8c2-18.3,17.5-32.6,36.3-32.6c20.2,0,36.6,16.4,36.6,36.6C121.1,100.9,104.7,117.3,84.6,117.3z
		 M84.6,38.6c-16.1,0-30.1,9-37.2,22.3l-7.6-7.6c-1.1-1.1-2.9-1.1-4,0c-1.1,1.1-1.1,2.9,0,4l9.1,9.1c-1.6,4.5-2.6,9.3-2.6,14.4
		c0,23.2,18.9,42.2,42.2,42.2c23.2,0,42.2-18.9,42.2-42.2S107.8,38.6,84.6,38.6z"/>
	<path class="st44" d="M84.2,116.9c-18.7,0-34.2-14.2-36.3-32.4l7.4,7.8c0.5,0.6,1.3,0.9,2,0.9c0.7,0,1.4-0.3,1.9-0.8
		c1.1-1.1,1.2-2.8,0.1-4L47.9,76.4c2-18.3,17.5-32.6,36.3-32.6c20.2,0,36.6,16.4,36.6,36.6C120.8,100.5,104.4,116.9,84.2,116.9z
		 M84.2,38.2c-16.1,0-30.1,9-37.2,22.3l-7.6-7.6c-1.1-1.1-2.9-1.1-4,0c-1.1,1.1-1.1,2.9,0,4l9.1,9.1c-1.6,4.5-2.6,9.3-2.6,14.4
		c0,23.2,18.9,42.2,42.2,42.2c23.2,0,42.2-18.9,42.2-42.2S107.5,38.2,84.2,38.2z"/>
	<path class="st45" d="M83.9,116.6c-18.7,0-34.2-14.2-36.3-32.4L55,92c0.5,0.6,1.3,0.9,2,0.9c0.7,0,1.4-0.3,1.9-0.8
		c1.1-1.1,1.2-2.8,0.1-4L47.5,76c2-18.3,17.5-32.6,36.3-32.6c20.2,0,36.6,16.4,36.6,36.6C120.4,100.2,104,116.6,83.9,116.6z
		 M83.9,37.8c-16.1,0-30.1,9-37.2,22.3l-7.6-7.6c-1.1-1.1-2.9-1.1-4,0c-1.1,1.1-1.1,2.9,0,4l9.1,9.1c-1.6,4.5-2.6,9.3-2.6,14.4
		c0,23.2,18.9,42.2,42.2,42.2c23.2,0,42.2-18.9,42.2-42.2S107.1,37.8,83.9,37.8z"/>
	<path class="st46" d="M83.5,116.2c-18.7,0-34.2-14.2-36.3-32.4l7.4,7.8c0.5,0.6,1.3,0.9,2,0.9c0.7,0,1.4-0.3,1.9-0.8
		c1.1-1.1,1.2-2.8,0.1-4L47.2,75.7c2-18.3,17.5-32.6,36.3-32.6c20.2,0,36.6,16.4,36.6,36.6C120.1,99.8,103.7,116.2,83.5,116.2z
		 M83.5,37.5c-16.1,0-30.1,9-37.2,22.3l-7.6-7.6c-1.1-1.1-2.9-1.1-4,0c-1.1,1.1-1.1,2.9,0,4l9.1,9.1c-1.6,4.5-2.6,9.3-2.6,14.4
		c0,23.2,18.9,42.2,42.2,42.2c23.2,0,42.2-18.9,42.2-42.2S106.8,37.5,83.5,37.5z"/>
	<path class="st47" d="M83.2,115.8c-18.7,0-34.2-14.2-36.3-32.4l7.4,7.8c0.5,0.6,1.3,0.9,2,0.9c0.7,0,1.4-0.3,1.9-0.8
		c1.1-1.1,1.2-2.8,0.1-4L46.9,75.3c2-18.3,17.5-32.6,36.3-32.6c20.2,0,36.6,16.4,36.6,36.6C119.7,99.4,103.3,115.8,83.2,115.8z
		 M83.2,37.1c-16.1,0-30.1,9-37.2,22.3l-7.6-7.6c-1.1-1.1-2.9-1.1-4,0c-1.1,1.1-1.1,2.9,0,4l9.1,9.1C42,69.4,41,74.2,41,79.3
		c0,23.2,18.9,42.2,42.2,42.2c23.2,0,42.2-18.9,42.2-42.2S106.4,37.1,83.2,37.1z"/>
	<path class="st48" d="M82.8,115.4c-18.7,0-34.2-14.2-36.3-32.4l7.4,7.8c0.5,0.6,1.3,0.9,2,0.9c0.7,0,1.4-0.3,1.9-0.8
		c1.1-1.1,1.2-2.8,0.1-4L46.5,74.9c2-18.3,17.5-32.6,36.3-32.6c20.2,0,36.6,16.4,36.6,36.6C119.4,99,103,115.4,82.8,115.4z
		 M82.8,36.7c-16.1,0-30.1,9-37.2,22.3l-7.6-7.6c-1.1-1.1-2.9-1.1-4,0c-1.1,1.1-1.1,2.9,0,4l9.1,9.1c-1.6,4.5-2.6,9.3-2.6,14.4
		c0,23.2,18.9,42.2,42.2,42.2c23.2,0,42.2-18.9,42.2-42.2S106.1,36.7,82.8,36.7z"/>
	<path class="st49" d="M82.5,115.1c-18.7,0-34.2-14.2-36.3-32.4l7.4,7.8c0.5,0.6,1.3,0.9,2,0.9c0.7,0,1.4-0.3,1.9-0.8
		c1.1-1.1,1.2-2.8,0.1-4L46.2,74.6c2-18.3,17.5-32.6,36.3-32.6c20.2,0,36.6,16.4,36.6,36.6C119.1,98.7,102.7,115.1,82.5,115.1z
		 M82.5,36.4c-16.1,0-30.1,9-37.2,22.3L37.7,51c-1.1-1.1-2.9-1.1-4,0c-1.1,1.1-1.1,2.9,0,4l9.1,9.1c-1.6,4.5-2.6,9.3-2.6,14.4
		c0,23.2,18.9,42.2,42.2,42.2c23.2,0,42.2-18.9,42.2-42.2S105.7,36.4,82.5,36.4z"/>
	<path class="st50" d="M82.2,114.7c-18.7,0-34.2-14.2-36.3-32.4l7.4,7.8c0.5,0.6,1.3,0.9,2,0.9c0.7,0,1.4-0.3,1.9-0.8
		c1.1-1.1,1.2-2.8,0.1-4L45.8,74.2c2-18.3,17.5-32.6,36.3-32.6c20.2,0,36.6,16.4,36.6,36.6C118.7,98.3,102.3,114.7,82.2,114.7z
		 M82.2,36C66.1,36,52.1,45,45,58.3l-7.6-7.6c-1.1-1.1-2.9-1.1-4,0c-1.1,1.1-1.1,2.9,0,4l9.1,9.1c-1.6,4.5-2.6,9.3-2.6,14.4
		c0,23.2,18.9,42.2,42.2,42.2c23.2,0,42.2-18.9,42.2-42.2S105.4,36,82.2,36z"/>
	<path class="st51" d="M81.8,114.3c-18.7,0-34.2-14.2-36.3-32.4l7.4,7.8c0.5,0.6,1.3,0.9,2,0.9c0.7,0,1.4-0.3,1.9-0.8
		c1.1-1.1,1.2-2.8,0.1-4L45.5,73.8c2-18.3,17.5-32.6,36.3-32.6c20.2,0,36.6,16.4,36.6,36.6C118.4,97.9,102,114.3,81.8,114.3z
		 M81.8,35.6c-16.1,0-30.1,9-37.2,22.3L37,50.3c-1.1-1.1-2.9-1.1-4,0c-1.1,1.1-1.1,2.9,0,4l9.1,9.1c-1.6,4.5-2.6,9.3-2.6,14.4
		c0,23.2,18.9,42.2,42.2,42.2c23.2,0,42.2-18.9,42.2-42.2S105.1,35.6,81.8,35.6z"/>
	<path class="st52" d="M81.5,114c-18.7,0-34.2-14.2-36.3-32.4l7.4,7.8c0.5,0.6,1.3,0.9,2,0.9c0.7,0,1.4-0.3,1.9-0.8
		c1.1-1.1,1.2-2.8,0.1-4L45.1,73.4c2-18.3,17.5-32.6,36.3-32.6c20.2,0,36.6,16.4,36.6,36.6C118,97.6,101.6,114,81.5,114z M81.5,35.2
		c-16.1,0-30.1,9-37.2,22.3l-7.6-7.6c-1.1-1.1-2.9-1.1-4,0c-1.1,1.1-1.1,2.9,0,4l9.1,9.1c-1.6,4.5-2.6,9.3-2.6,14.4
		c0,23.2,18.9,42.2,42.2,42.2c23.2,0,42.2-18.9,42.2-42.2S104.7,35.2,81.5,35.2z"/>
	<path class="st53" d="M81.1,113.6c-18.7,0-34.2-14.2-36.3-32.4l7.4,7.8c0.5,0.6,1.3,0.9,2,0.9c0.7,0,1.4-0.3,1.9-0.8
		c1.1-1.1,1.2-2.8,0.1-4L44.8,73.1c2-18.3,17.5-32.6,36.3-32.6c20.2,0,36.6,16.4,36.6,36.6C117.7,97.2,101.3,113.6,81.1,113.6z
		 M81.1,34.9c-16.1,0-30.1,9-37.2,22.3l-7.6-7.6c-1.1-1.1-2.9-1.1-4,0c-1.1,1.1-1.1,2.9,0,4l9.1,9.1C39.9,67.2,39,72,39,77
		c0,23.2,18.9,42.2,42.2,42.2c23.2,0,42.2-18.9,42.2-42.2S104.4,34.9,81.1,34.9z"/>
	<path class="st54" d="M80.8,113.2C62,113.2,46.6,99,44.5,80.9l7.4,7.8c0.5,0.6,1.3,0.9,2,0.9c0.7,0,1.4-0.3,1.9-0.8
		c1.1-1.1,1.2-2.8,0.1-4L44.4,72.7c2-18.3,17.5-32.6,36.3-32.6c20.2,0,36.6,16.4,36.6,36.6C117.3,96.8,100.9,113.2,80.8,113.2z
		 M80.8,34.5c-16.1,0-30.1,9-37.2,22.3L36,49.2c-1.1-1.1-2.9-1.1-4,0c-1.1,1.1-1.1,2.9,0,4l9.1,9.1c-1.6,4.5-2.6,9.3-2.6,14.4
		c0,23.2,18.9,42.2,42.2,42.2c23.2,0,42.2-18.9,42.2-42.2S104,34.5,80.8,34.5z"/>
	<path class="st55" d="M80.4,112.8c-18.7,0-34.2-14.2-36.3-32.4l7.4,7.8c0.5,0.6,1.3,0.9,2,0.9c0.7,0,1.4-0.3,1.9-0.8
		c1.1-1.1,1.2-2.8,0.1-4L44.1,72.3c2-18.3,17.5-32.6,36.3-32.6c20.2,0,36.6,16.4,36.6,36.6C117,96.4,100.6,112.8,80.4,112.8z
		 M80.4,34.1c-16.1,0-30.1,9-37.2,22.3l-7.6-7.6c-1.1-1.1-2.9-1.1-4,0c-1.1,1.1-1.1,2.9,0,4l9.1,9.1c-1.6,4.5-2.6,9.3-2.6,14.4
		c0,23.2,18.9,42.2,42.2,42.2c23.2,0,42.2-18.9,42.2-42.2S103.7,34.1,80.4,34.1z"/>
	<path class="st56" d="M80.1,112.5c-18.7,0-34.2-14.2-36.3-32.4l7.4,7.8c0.5,0.6,1.3,0.9,2,0.9c0.7,0,1.4-0.3,1.9-0.8
		c1.1-1.1,1.2-2.8,0.1-4L43.8,72c2-18.3,17.5-32.6,36.3-32.6c20.2,0,36.6,16.4,36.6,36.6C116.6,96.1,100.3,112.5,80.1,112.5z
		 M80.1,33.8C64,33.8,50,42.8,42.9,56l-7.6-7.6c-1.1-1.1-2.9-1.1-4,0c-1.1,1.1-1.1,2.9,0,4l9.1,9.1c-1.6,4.5-2.6,9.3-2.6,14.4
		c0,23.2,18.9,42.2,42.2,42.2c23.2,0,42.2-18.9,42.2-42.2S103.3,33.8,80.1,33.8z"/>
	<path class="st57" d="M79.7,112.1c-18.7,0-34.2-14.2-36.3-32.4l7.4,7.8c0.5,0.6,1.3,0.9,2,0.9c0.7,0,1.4-0.3,1.9-0.8
		c1.1-1.1,1.2-2.8,0.1-4L43.4,71.6C45.4,53.3,60.9,39,79.7,39c20.2,0,36.6,16.4,36.6,36.6C116.3,95.7,99.9,112.1,79.7,112.1z
		 M79.7,33.4c-16.1,0-30.1,9-37.2,22.3L35,48.1c-1.1-1.1-2.9-1.1-4,0c-1.1,1.1-1.1,2.9,0,4l9.1,9.1c-1.6,4.5-2.6,9.3-2.6,14.4
		c0,23.2,18.9,42.2,42.2,42.2c23.2,0,42.2-18.9,42.2-42.2S103,33.4,79.7,33.4z"/>
	<path class="st58" d="M79.4,111.7c-18.7,0-34.2-14.2-36.3-32.4l7.4,7.8c0.5,0.6,1.3,0.9,2,0.9c0.7,0,1.4-0.3,1.9-0.8
		c1.1-1.1,1.2-2.8,0.1-4L43.1,71.2c2-18.3,17.5-32.6,36.3-32.6C99.6,38.6,116,55,116,75.2C116,95.3,99.6,111.7,79.4,111.7z M79.4,33
		c-16.1,0-30.1,9-37.2,22.3l-7.6-7.6c-1.1-1.1-2.9-1.1-4,0c-1.1,1.1-1.1,2.9,0,4l9.1,9.1c-1.6,4.5-2.6,9.3-2.6,14.4
		c0,23.2,18.9,42.2,42.2,42.2c23.2,0,42.2-18.9,42.2-42.2S102.6,33,79.4,33z"/>
	<path class="st59" d="M79.1,111.4c-18.7,0-34.2-14.2-36.3-32.4l7.4,7.8c0.5,0.6,1.3,0.9,2,0.9c0.7,0,1.4-0.3,1.9-0.8
		c1.1-1.1,1.2-2.8,0.1-4L42.7,70.8c2-18.3,17.5-32.6,36.3-32.6c20.2,0,36.6,16.4,36.6,36.6C115.6,95,99.2,111.4,79.1,111.4z
		 M79.1,32.6c-16.1,0-30.1,9-37.2,22.3l-7.6-7.6c-1.1-1.1-2.9-1.1-4,0c-1.1,1.1-1.1,2.9,0,4l9.1,9.1c-1.6,4.5-2.6,9.3-2.6,14.4
		c0,23.2,18.9,42.2,42.2,42.2c23.2,0,42.2-18.9,42.2-42.2S102.3,32.6,79.1,32.6z"/>
	<path class="st60" d="M78.7,111C60,111,44.5,96.8,42.4,78.6l7.4,7.8c0.5,0.6,1.3,0.9,2,0.9c0.7,0,1.4-0.3,1.9-0.8
		c1.1-1.1,1.2-2.8,0.1-4L42.4,70.5c2-18.3,17.5-32.6,36.3-32.6c20.2,0,36.6,16.4,36.6,36.6C115.3,94.6,98.9,111,78.7,111z
		 M78.7,32.3c-16.1,0-30.1,9-37.2,22.3L34,47c-1.1-1.1-2.9-1.1-4,0c-1.1,1.1-1.1,2.9,0,4l9.1,9.1c-1.6,4.5-2.6,9.3-2.6,14.4
		c0,23.2,18.9,42.2,42.2,42.2c23.2,0,42.2-18.9,42.2-42.2S102,32.3,78.7,32.3z"/>
	<path class="st61" d="M78.4,110.6c-18.7,0-34.2-14.2-36.3-32.4l7.4,7.8c0.5,0.6,1.3,0.9,2,0.9c0.7,0,1.4-0.3,1.9-0.8
		c1.1-1.1,1.2-2.8,0.1-4L42,70.1c2-18.3,17.5-32.6,36.3-32.6c20.2,0,36.6,16.4,36.6,36.6C114.9,94.2,98.5,110.6,78.4,110.6z
		 M78.4,31.9c-16.1,0-30.1,9-37.2,22.3l-7.6-7.6c-1.1-1.1-2.9-1.1-4,0c-1.1,1.1-1.1,2.9,0,4l9.1,9.1c-1.6,4.5-2.6,9.3-2.6,14.4
		c0,23.2,18.9,42.2,42.2,42.2c23.2,0,42.2-18.9,42.2-42.2S101.6,31.9,78.4,31.9z"/>
	<path class="st62" d="M78,110.2c-18.7,0-34.2-14.2-36.3-32.4l7.4,7.8c0.5,0.6,1.3,0.9,2,0.9c0.7,0,1.4-0.3,1.9-0.8
		c1.1-1.1,1.2-2.8,0.1-4L41.7,69.7c2-18.3,17.5-32.6,36.3-32.6c20.2,0,36.6,16.4,36.6,36.6C114.6,93.8,98.2,110.2,78,110.2z
		 M78,31.5c-16.1,0-30.1,9-37.2,22.3l-7.6-7.6c-1.1-1.1-2.9-1.1-4,0c-1.1,1.1-1.1,2.9,0,4l9.1,9.1c-1.6,4.5-2.6,9.3-2.6,14.4
		c0,23.2,18.9,42.2,42.2,42.2c23.2,0,42.2-18.9,42.2-42.2S101.3,31.5,78,31.5z"/>
	<path class="st63" d="M77.7,109.9c-18.7,0-34.2-14.2-36.3-32.4l7.4,7.8c0.5,0.6,1.3,0.9,2,0.9c0.7,0,1.4-0.3,1.9-0.8
		c1.1-1.1,1.2-2.8,0.1-4L41.3,69.4c2-18.3,17.5-32.6,36.3-32.6c20.2,0,36.6,16.4,36.6,36.6C114.2,93.5,97.8,109.9,77.7,109.9z
		 M77.7,31.2c-16.1,0-30.1,9-37.2,22.3l-7.6-7.6c-1.1-1.1-2.9-1.1-4,0c-1.1,1.1-1.1,2.9,0,4l9.1,9.1c-1.6,4.5-2.6,9.3-2.6,14.4
		c0,23.2,18.9,42.2,42.2,42.2c23.2,0,42.2-18.9,42.2-42.2S100.9,31.2,77.7,31.2z"/>
	<path class="st64" d="M77.3,109.5c-18.7,0-34.2-14.2-36.3-32.4l7.4,7.8c0.5,0.6,1.3,0.9,2,0.9c0.7,0,1.4-0.3,1.9-0.8
		c1.1-1.1,1.2-2.8,0.1-4L41,69c2-18.3,17.5-32.6,36.3-32.6c20.2,0,36.6,16.4,36.6,36.6C113.9,93.1,97.5,109.5,77.3,109.5z
		 M77.3,30.8c-16.1,0-30.1,9-37.2,22.3l-7.6-7.6c-1.1-1.1-2.9-1.1-4,0c-1.1,1.1-1.1,2.9,0,4l9.1,9.1c-1.6,4.5-2.6,9.3-2.6,14.4
		c0,23.2,18.9,42.2,42.2,42.2c23.2,0,42.2-18.9,42.2-42.2S100.6,30.8,77.3,30.8z"/>
	<path class="st65" d="M77,109.1c-18.7,0-34.2-14.2-36.3-32.4l7.4,7.8c0.5,0.6,1.3,0.9,2,0.9c0.7,0,1.4-0.3,1.9-0.8
		c1.1-1.1,1.2-2.8,0.1-4L40.7,68.6C42.6,50.3,58.2,36,77,36c20.2,0,36.6,16.4,36.6,36.6C113.6,92.7,97.2,109.1,77,109.1z M77,30.4
		c-16.1,0-30.1,9-37.2,22.3l-7.6-7.6c-1.1-1.1-2.9-1.1-4,0c-1.1,1.1-1.1,2.9,0,4l9.1,9.1c-1.6,4.5-2.6,9.3-2.6,14.4
		c0,23.2,18.9,42.2,42.2,42.2c23.2,0,42.2-18.9,42.2-42.2S100.2,30.4,77,30.4z"/>
	<path class="st66" d="M76.7,108.8c-18.7,0-34.2-14.2-36.3-32.4l7.4,7.8c0.5,0.6,1.3,0.9,2,0.9c0.7,0,1.4-0.3,1.9-0.8
		c1.1-1.1,1.2-2.8,0.1-4L40.3,68.2c2-18.3,17.5-32.6,36.3-32.6c20.2,0,36.6,16.4,36.6,36.6C113.2,92.4,96.8,108.8,76.7,108.8z
		 M76.7,30c-16.1,0-30.1,9-37.2,22.3l-7.6-7.6c-1.1-1.1-2.9-1.1-4,0c-1.1,1.1-1.1,2.9,0,4l9.1,9.1c-1.6,4.5-2.6,9.3-2.6,14.4
		c0,23.2,18.9,42.2,42.2,42.2c23.2,0,42.2-18.9,42.2-42.2S99.9,30,76.7,30z"/>
	<path class="st67" d="M76.3,108.4C57.6,108.4,42.1,94.2,40,76l7.4,7.8c0.5,0.6,1.3,0.9,2,0.9c0.7,0,1.4-0.3,1.9-0.8
		c1.1-1.1,1.2-2.8,0.1-4L40,67.9c2-18.3,17.5-32.6,36.3-32.6c20.2,0,36.6,16.4,36.6,36.6C112.9,92,96.5,108.4,76.3,108.4z
		 M76.3,29.7c-16.1,0-30.1,9-37.2,22.3l-7.6-7.6c-1.1-1.1-2.9-1.1-4,0c-1.1,1.1-1.1,2.9,0,4l9.1,9.1c-1.6,4.5-2.6,9.3-2.6,14.4
		c0,23.2,18.9,42.2,42.2,42.2c23.2,0,42.2-18.9,42.2-42.2S99.5,29.7,76.3,29.7z"/>
	<path class="st68" d="M76,108c-18.7,0-34.2-14.2-36.3-32.4l7.4,7.8c0.5,0.6,1.3,0.9,2,0.9c0.7,0,1.4-0.3,1.9-0.8
		c1.1-1.1,1.2-2.8,0.1-4L39.6,67.5c2-18.3,17.5-32.6,36.3-32.6c20.2,0,36.6,16.4,36.6,36.6C112.5,91.6,96.1,108,76,108z M76,29.3
		c-16.1,0-30.1,9-37.2,22.3L31.2,44c-1.1-1.1-2.9-1.1-4,0c-1.1,1.1-1.1,2.9,0,4l9.1,9.1c-1.6,4.5-2.6,9.3-2.6,14.4
		c0,23.2,18.9,42.2,42.2,42.2c23.2,0,42.2-18.9,42.2-42.2S99.2,29.3,76,29.3z"/>
	<path class="st69" d="M75.6,107.6c-18.7,0-34.2-14.2-36.3-32.4l7.4,7.8c0.5,0.6,1.3,0.9,2,0.9c0.7,0,1.4-0.3,1.9-0.8
		c1.1-1.1,1.2-2.8,0.1-4L39.3,67.1c2-18.3,17.5-32.6,36.3-32.6c20.2,0,36.6,16.4,36.6,36.6C112.2,91.2,95.8,107.6,75.6,107.6z
		 M75.6,28.9c-16.1,0-30.1,9-37.2,22.3l-7.6-7.6c-1.1-1.1-2.9-1.1-4,0c-1.1,1.1-1.1,2.9,0,4l9.1,9.1c-1.6,4.5-2.6,9.3-2.6,14.4
		c0,23.2,18.9,42.2,42.2,42.2c23.2,0,42.2-18.9,42.2-42.2S98.9,28.9,75.6,28.9z"/>
	<path d="M75.3,107.3c-18.7,0-34.2-14.2-36.3-32.4l7.4,7.8c0.5,0.6,1.3,0.9,2,0.9c0.7,0,1.4-0.3,1.9-0.8c1.1-1.1,1.2-2.8,0.1-4
		L38.9,66.8c2-18.3,17.5-32.6,36.3-32.6c20.2,0,36.6,16.4,36.6,36.6C111.8,90.9,95.4,107.3,75.3,107.3z M75.3,28.6
		c-16.1,0-30.1,9-37.2,22.3l-7.6-7.6c-1.1-1.1-2.9-1.1-4,0c-1.1,1.1-1.1,2.9,0,4l9.1,9.1c-1.6,4.5-2.6,9.3-2.6,14.4
		c0,23.2,18.9,42.2,42.2,42.2c23.2,0,42.2-18.9,42.2-42.2S98.5,28.6,75.3,28.6z"/>
</g>
<radialGradient id="SVGID_2_" cx="71.5795" cy="70.707" r="44.0402" gradientUnits="userSpaceOnUse">
	<stop  offset="0" style="stop-color:#000000"/>
	<stop  offset="7.860559e-002" style="stop-color:#0F0F0F"/>
	<stop  offset="0.21" style="stop-color:#212121"/>
	<stop  offset="0.3665" style="stop-color:#2E2E2E"/>
	<stop  offset="0.5705" style="stop-color:#363636"/>
	<stop  offset="1" style="stop-color:#383838"/>
</radialGradient>
<path class="st5" d="M75.3,28.6c-16.1,0-30.1,9-37.2,22.3l-7.6-7.6c-1.1-1.1-2.9-1.1-4,0c-1.1,1.1-1.1,2.9,0,4l9.1,9.1
	c-1.6,4.5-2.6,9.3-2.6,14.4c0,23.2,18.9,42.2,42.2,42.2c23.2,0,42.2-18.9,42.2-42.2S98.5,28.6,75.3,28.6z M75.3,107.3
	c-18.7,0-34.2-14.2-36.3-32.4l7.4,7.8c0.5,0.6,1.3,0.9,2,0.9c0.7,0,1.4-0.3,1.9-0.8c1.1-1.1,1.2-2.8,0.1-4L38.9,66.8
	c2-18.3,17.5-32.6,36.3-32.6c20.2,0,36.6,16.4,36.6,36.6C111.8,90.9,95.4,107.3,75.3,107.3z"/>
</svg>
