<?xml version="1.0" encoding="utf-8"?>
<!-- Generator: Adobe Illustrator 19.1.1, SVG Export Plug-In . SVG Version: 6.00 Build 0)  -->
<svg version="1.1" xmlns="http://www.w3.org/2000/svg" xmlns:xlink="http://www.w3.org/1999/xlink" x="0px" y="0px"
	 viewBox="0 0 900 900" style="enable-background:new 0 0 900 900;" xml:space="preserve">
<style type="text/css">
	.st0{fill:none;stroke:#000000;stroke-width:2;stroke-miterlimit:10;}
	.st1{fill:none;stroke:#000000;stroke-width:2;}
	.st2{fill:none;stroke:#000000;stroke-width:1.8058;stroke-miterlimit:10;}
	.st3{fill:none;stroke:#000000;stroke-width:1.9096;}
	.st4{fill:url(#SVGID_1_);}
	.st5{opacity:0.3;fill:url(#SVGID_2_);}
	.st6{fill:url(#SVGID_3_);}
	.st7{fill:url(#SVGID_4_);}
	.st8{fill:url(#SVGID_5_);}
	.st9{fill:url(#SVGID_6_);}
</style>
<g id="圖層_2">
</g>
<g id="圖層_1">
	<g>
		<path class="st2" d="M143.7,550.2c0,6.4-4.9,9.8-10,9.8c-5.3,0-10.6-3.5-10.6-10.2c0-8,0-17.1,0.2-27.9
			c-21.5,0.2-46.1,0.4-48.3,0.4c-13.7,0-20.8-6.7-20.8-15.7c0-4.9,2-10.4,6-16c13.3-18.8,50.1-70.7,66.1-92.9
			c2.2-3.1,5.1-4.4,8.2-4.4c5.5,0,10.9,4.7,10.9,10.6c0,2.4-0.7,4.9-2.7,7.3c-9.8,12.4-52.1,68.5-64.5,85.8
			c-1.1,1.3-1.6,2.7-1.6,3.8c0,3.1,4.2,3.1,9.5,3.1c7.8,0,22.6-0.2,37.5-0.4c0.2-8.9,0.2-16.6,0.2-23.3s0-12-0.2-15.5V464
			c0-6.9,5.1-10.4,10-10.4c5.1,0,10,3.5,10,11.1c0,10.6-0.4,20-0.4,38.4c10.2-0.2,16-0.7,17.1-0.7h0.4c6.2,0,9.5,4.7,9.5,9.5
			c0,4.7-3.3,9.3-10.6,9.5c-2.7,0-8.2,0.2-16.4,0.2C143.7,549.8,143.7,550,143.7,550.2z"/>
		<path class="st2" d="M217.3,560.4c-24.6,0-46.8-12.9-46.8-24.2c0-5.8,4.4-10.9,9.8-10.9c2.2,0,4.7,0.9,6.9,3.1
			c8.9,8.4,20.2,12.2,31,12.2c20,0,37.7-13.1,37.7-35.7c0-15.5-10-31.5-32.8-31.5c-6.9,0-13.7,1.3-19.5,3.5
			c-6.2,2.7-7.1,2.9-10.9,2.9c-8.4,0-13.7-4-13.7-13.5c0-3.3,5.1-39.7,7.8-55.4c2-11.3,7.5-16.8,20.8-16.8h1.6
			c1.8,0,7.1,0.2,46.6,0.2c6.7,0,10,4.9,10,10c0,4.9-3.3,9.8-9.8,9.8c-6.2,0-37-0.2-43.9-0.2c-5.1,0-7.3,2.2-8,6.7
			c-1.1,7.8-4.7,29.3-5.3,33.7c0,0.7-0.2,1.3-0.2,1.8c0,1.8,0.7,2.4,1.8,2.4c1.1,0,2.7-0.7,4.7-1.1c4.9-1.3,11.8-2.4,19.3-2.4
			c41.2,0,52.1,29.5,52.1,49.9C276.3,533.1,255.4,560.4,217.3,560.4z"/>
		<path class="st2" d="M302.9,433.4c-13.1,0-23.5-10.4-23.5-23.5s10.4-23.7,23.5-23.7c13.1,0,23.9,10.6,23.9,23.7
			S316,433.4,302.9,433.4z M302.9,397.4c-6.9,0-12.2,5.5-12.2,12.4s5.3,12.4,12.2,12.4s12.6-5.5,12.6-12.4S309.7,397.4,302.9,397.4z
			"/>
		<path class="st2" d="M435.2,440.2c0,21.1-31.3,101.1-61.9,101.1c-16.6,0-31.3-20-31.3-42.8c0-33.5,29.5-80.9,88.2-80.9
			c42.6,0,72.9,28.4,72.9,65c0,55.9-60.5,74.7-69.8,74.7c-7.1,0-11.3-4.7-11.3-9.5c0-4.2,2.9-8.2,9.8-9.8
			c28.2-6.2,52.3-24.8,52.3-56.1c0-25.9-20.4-48.1-52.3-49.4C434.1,434.2,435.2,436.7,435.2,440.2z M359.9,496.8
			c0,15.7,8.6,23.9,14.4,23.9c12.6,0,38.8-47.7,41.7-80.9c0.2-2.7,0.9-4.9,2-6.4C382.7,439.6,359.9,470.6,359.9,496.8z"/>
		<path class="st2" d="M90.7,696.3c-3.1,5.8-6.7,11.3-10.6,16.6c4.4-1.8,8.9-2,20-2c9.3,0,21.9,0.7,22.4,12.2
			c0.2,6,0.4,13.5,0.4,20.4c0,20.2-0.4,25.3-26.6,25.3c-10,0-22.4-1.1-23.1-12.9c-0.2-3.5-0.2-8.4-0.2-13.5c0-7.1,0-14.4,0.2-19.1
			c0-0.7,0-1.3,0.2-2l-3.5,4c-2,2-4.7,2.9-6.9,2.9c-4.7,0-8.9-3.3-8.9-7.5c0-1.8,0.9-3.8,2.9-5.8c13.1-13.1,20.8-26.2,27.3-43.5
			c0-0.2,0.2-0.7,0.4-0.9c-1.3-1.1-2.2-2.7-2.2-4.9v-10.4l-16.9,0.2c-5.1,0-7.8-4-7.8-8c0-4,2.4-7.8,7.5-7.8h0.2l16.9,0.2v-14.9
			c0-4.9,4.2-7.1,8.2-7.1c4.2,0,8.2,2.2,8.2,7.1v15.1l21.5-0.2v-14.9c0-4.9,4.2-7.1,8.2-7.1c4.2,0,8.2,2.2,8.2,7.1V640h0.4l20-0.2
			h0.2c4.9,0,7.5,3.8,7.5,7.8c0,4-2.7,8-7.8,8l-20.4-0.2v11.5c0,5.1-4.4,7.5-8.6,7.5c-4,0-7.8-2.2-7.8-6.9v-12.2H98.9v10
			c0,1.8-0.4,3.1-1.3,4.2c1.6,1.3,2.7,3.5,2.7,5.8c0,0.9,0,1.1-2.2,6.4c9.5-0.2,23.1-0.4,31.3-0.4c14.2,0.2,22.8,8.2,23.5,20.6
			c0.4,6.2,0.7,15.1,0.7,25.1c0,53.2-12.2,80-43.9,80c-5.3,0-11.1-0.7-17.3-2.2c-4-0.9-6-4.9-6-8.9c0-4.2,2.4-8.4,7.1-8.4
			c0.7,0,1.3,0,2.2,0.2c5.3,1.3,10.2,2,14.2,2c9.3,0,27.5-2.2,27.5-63.2c0-23.5-0.7-30.2-11.1-30.2H90.7z M108.2,741.3
			c0-4.4,0-9.3-0.2-12.9c-0.2-3.5-2.7-4.9-10.2-4.9c-10.6,0-10.6,0-10.6,16.2c0,4.2,0.2,8.4,0.2,10.9c0.4,3.8,3.5,4.7,10.2,4.7
			C108,755.2,108.2,754.6,108.2,741.3z M233.9,681.2c-1.6,28.6-8.6,55.4-21.9,78c9.8,12.2,22.8,22.8,39.7,31c3.8,1.8,5.1,4.9,5.1,8
			c0,5.1-4.4,10.6-10,10.6c-5.1,0-27.7-12.9-44.6-35c-16.8,21.7-43.2,37.5-49.4,37.5c-5.3,0-9.5-4.7-9.5-9.5c0-2.9,1.6-5.8,5.3-7.5
			c19.1-8.9,33.7-20.8,44.1-35c-9.8-17.1-15.5-35.9-18-54.3c-6.4,12-9.3,12-12.4,12c-4,0-7.5-2.9-7.5-6.9c0-1.6,0.4-3.1,1.6-4.7
			c12.9-20,23.9-46.6,27.7-78c0.7-5.1,4.7-7.3,8.6-7.3c4.9,0,9.8,2.9,9.8,8c0,5.3-7.8,31-10,37.7l52.5-0.2c5.3,0,7.8,4,7.8,7.8
			c0,4-2.4,8-7.8,8H233.9z M187.8,681.2c0,22.8,4.2,44.1,14.2,62.5c9.1-18.2,13.5-39.2,14.6-62.5H187.8z"/>
		<path class="st2" d="M263.9,798.7c0-2.7,1.8-5.8,6-7.8c6-2.9,16.2-12.9,19.5-21.1c1.6-3.8,4.4-5.3,7.5-5.3c4.7,0,9.5,3.5,9.5,8.4
			c0,8.4-19.3,34.4-32.6,34.4C268.1,807.3,263.9,803.4,263.9,798.7z M275.2,683.4c-5.5,0-8-3.5-8-7.3c0-3.8,2.7-7.8,8-7.8h50.3
			c-1.6-3.8-4-7.5-5.8-10.2c-0.7-1.1-1.1-2-1.1-2.9c0-3.8,4.9-6,9.3-6c8.9,0,14.4,12.9,15.7,18.6l0.2,0.4H376
			c2-4.4,4.4-10.6,5.1-15.1c0.4-2.4,2-3.8,4-4.4h-92c-5.3,0-8-3.5-8-7.1c0-4,2.9-7.8,8-7.8h57v-10.6c0-6,4.9-8.9,9.8-8.9
			c4.9,0,9.8,2.9,9.8,8.9V634H427c5.1,0,7.8,3.8,7.8,7.3c0,3.8-2.7,7.5-7.8,7.5h-35.9c3.8,0.9,7.3,3.8,7.3,7.5c0,1.8-1.8,5.5-4.7,12
			H445c5.1,0,7.8,3.8,7.8,7.5c0,3.8-2.7,7.5-7.8,7.5H275.2z M381.4,774.8c0,5.1-4.9,9.1-9.5,9.1c-2.4,0-4.7-0.9-6.2-3.3
			c-4.2-6.4-10-10.9-16-15.3c-1.6-1.3-2.2-2.7-2.2-4.2c0-2,1.1-3.8,2.7-5.3c-51.7,0-53.9-1.1-53.9-31.5c0-16.4,0-29.5,22.8-30.4
			c11.5-0.4,25.7-0.7,40.1-0.7c14.6,0,29.5,0.2,42.8,0.7c21.5,0.7,21.7,16.9,21.7,28.6c0,18.6-0.4,31.9-22.8,32.6
			c-12.6,0.4-25.5,0.7-37.9,0.7C380.9,766.8,381.4,773.2,381.4,774.8z M406.6,714.7c-0.7-8.4-2.9-8.6-44.8-8.6
			c-13.7,0-27.5,0.2-37.9,0.7c-8.6,0.2-10.6,3.8-10.9,8.6c0,0.9-0.2,2-0.2,3.1h93.8V714.7z M406.6,729.7h-93.8
			c0,1.8,0.2,3.3,0.2,4.7c0.4,5.5,2.4,7.8,11.1,8c10.4,0.2,23.9,0.4,37.7,0.4c11.5,0,23.3-0.2,33.7-0.4c7.3-0.2,10.9-2.7,11.1-8.2
			V729.7z M335.7,783.8c0.4,9.5,6.7,10.4,25.7,10.4c18.2,0,29.7-0.9,29.7-13.7c0-4.9,4-7.1,8.2-7.1c4.9,0,10.2,2.9,10.2,7.5
			c0,25.1-16.4,28.6-48.8,28.6c-34.4,0-43.2-6.2-43.2-23.9c0-1.8-0.2-6.4-0.2-11.3c0-9.3,0.7-14.6,9.3-14.6c4.4,0,9.1,2.7,9.1,7.3
			V783.8z M437.2,798c-6-10.4-14.9-17.5-21.7-22.4c-2.4-1.8-3.5-3.8-3.5-5.8c0-4.2,4.2-7.8,9.1-7.8c8,0,33.3,20.6,33.3,30.6
			c0,5.5-4.9,9.8-9.8,9.8C441.7,802.5,439,801.1,437.2,798z"/>
	</g>
</g>
</svg>
