<?xml version="1.0" encoding="utf-8"?>
<!-- Generator: Adobe Illustrator 19.1.1, SVG Export Plug-In . SVG Version: 6.00 Build 0)  -->
<svg version="1.1" xmlns="http://www.w3.org/2000/svg" xmlns:xlink="http://www.w3.org/1999/xlink" x="0px" y="0px"
	 viewBox="0 0 900 540" style="enable-background:new 0 0 900 540;" xml:space="preserve">
<style type="text/css">
	.st0{opacity:0.8;}
	.st1{fill:none;stroke:#000000;stroke-width:2;stroke-miterlimit:10;}
	.st2{fill:none;stroke:#000000;stroke-width:2;}
	.st3{fill:url(#SVGID_1_);}
	.st4{opacity:0.3;fill:url(#SVGID_2_);}
	.st5{fill:url(#SVGID_3_);}
	.st6{fill:url(#SVGID_4_);}
	.st7{fill:url(#SVGID_5_);}
	.st8{fill:url(#SVGID_6_);}
</style>
<g id="圖層_2">
</g>
<g id="圖層_1">
	<g class="st0">
		<g>
			<path class="st2" d="M94.3,209.7c23.5,0,35.2,12.2,35.2,30.8c0,13.6-6.7,21.8-15.6,25.4v0.3c7.9,2.2,17.7,11.5,17.7,27
				c0,21.8-13.9,33.3-38.1,33.3H42.8c-1,0-1.7-0.7-1.7-1.7v-9.8c0-1,0.7-1.7,1.7-1.7h9.1c0.7,0,1-0.3,1-1V224c0-0.7-0.3-1-1-1h-9.1
				c-1,0-1.7-0.7-1.7-1.7v-9.8c0-1,0.7-1.7,1.7-1.7H94.3z M69.2,223.7c-0.7,0-1,0.3-1,1v34.5c0,0.7,0.3,1,1,1h24.9
				c12.9,0,20.3-7.4,20.3-18.2c0-11.2-7.4-18.4-20.3-18.4H69.2z M69.2,274.2c-0.7,0-1,0.3-1,1v36.4c0,0.7,0.3,1,1,1H95
				c13.9,0,21.3-7.7,21.3-19.2s-7.4-19.2-21.3-19.2H69.2z"/>
			<path class="st2" d="M218.4,244.3c1,0,1.7,0.7,1.7,1.7v66.3c0,0.7,0.3,1,1,1h8.4c1,0,1.7,0.7,1.7,1.7v9.8c0,1-0.7,1.7-1.7,1.7
				h-22.2c-1,0-1.7-0.7-1.7-1.7v-7.7h-0.2c-4.3,6.9-11.5,11.3-22.3,11.3c-17.9,0-28-12.4-28-30.9v-39c0-0.7-0.3-1-1-1h-8.4
				c-1,0-1.7-0.7-1.7-1.7V246c0-1,0.7-1.7,1.7-1.7h22.2c1,0,1.7,0.7,1.7,1.7v47.9c0,13.2,5.7,21,17.9,21c11,0,18.2-7.9,18.2-20.1
				v-36.3c0-0.7-0.3-1-1-1H196c-1,0-1.7-0.7-1.7-1.7V246c0-1,0.7-1.7,1.7-1.7H218.4z"/>
			<path class="st2" d="M305.3,247.9c1,0.5,1.4,1.2,1.4,2.4v16.2c0,1-0.7,1.7-1.7,1.7h-9.8c-1,0-1.7-0.7-1.7-1.7v-7.7
				c0-0.7-0.2-1-0.9-1.4c-3.1-1.4-8.4-2.4-14.6-2.4c-11,0-16.5,4.1-16.5,10.8c0,6.4,3.6,10.1,16,11.5l8.8,0.9
				c18.2,2.1,25.3,10.5,25.3,23.9c0,16.3-11.9,26.5-33.7,26.5c-12,0-22.3-2.8-29.7-6.7c-0.9-0.5-1.2-1-1.2-2.2v-17.2
				c0-1,0.7-1.7,1.7-1.7h10.3c1,0,1.7,0.7,1.7,1.7v8.8c0,0.9,0.3,1.2,0.9,1.4c5.2,2.2,11.3,3.1,17.4,3.1c12.4,0,18.4-4.5,18.4-12.2
				c0-6.9-3.6-10.7-16.7-12l-8.8-1c-16.7-1.9-24.6-10-24.6-23.4c0-15.1,11.3-24.6,30.9-24.6C289.3,242.4,298.3,244.6,305.3,247.9z"
				/>
			<path class="st2" d="M350.3,244.3c1,0,1.7,0.7,1.7,1.7v66.3c0,0.7,0.3,1,1,1h8.4c1,0,1.7,0.7,1.7,1.7v9.8c0,1-0.7,1.7-1.7,1.7
				h-33.3c-1,0-1.7-0.7-1.7-1.7v-9.8c0-1,0.7-1.7,1.7-1.7h8.4c0.7,0,1-0.3,1-1v-53.8c0-0.7-0.3-1-1-1h-8.4c-1,0-1.7-0.7-1.7-1.7V246
				c0-1,0.7-1.7,1.7-1.7H350.3z M350.7,209.7c1,0,1.7,0.7,1.7,1.7V224c0,1-0.7,1.7-1.7,1.7H339c-1,0-1.7-0.7-1.7-1.7v-12.5
				c0-1,0.7-1.7,1.7-1.7H350.7z"/>
			<path class="st2" d="M452.7,273.3v39c0,0.7,0.3,1,1,1h8.1c1,0,1.7,0.7,1.7,1.7v9.8c0,1-0.7,1.7-1.7,1.7h-33c-1,0-1.7-0.7-1.7-1.7
				v-9.8c0-1,0.7-1.7,1.7-1.7h8.4c0.7,0,1-0.3,1-1v-35.6c0-13.2-6.2-21-18.4-21c-11,0-18.4,8.1-18.4,20.3v36.3c0,0.7,0.3,1,1,1h8.4
				c1,0,1.7,0.7,1.7,1.7v9.8c0,1-0.7,1.7-1.7,1.7h-33.3c-1,0-1.7-0.7-1.7-1.7v-9.8c0-1,0.7-1.7,1.7-1.7h8.4c0.7,0,1-0.3,1-1v-53.8
				c0-0.7-0.3-1-1-1h-8.4c-1,0-1.7-0.7-1.7-1.7V246c0-1,0.7-1.7,1.7-1.7h22.2c1,0,1.7,0.7,1.7,1.7v7.7h0.2
				c3.8-6.5,11.5-11.3,22.3-11.3C441.9,242.4,452.7,254.6,452.7,273.3z"/>
			<path class="st2" d="M545.2,264.6c1.7,5.3,2.6,11,2.6,23.5c0,1-0.7,1.7-1.9,1.7h-52.1c-0.7,0-1,0.3-1,1c0,4.5,0.5,7.2,1.4,10
				c3.3,9.5,10.7,14.3,20.8,14.3c9.8,0,16.7-4,21.1-9.1c0.9-0.9,1.7-1,2.6-0.3l7,6.4c0.9,0.7,0.9,1.5,0.2,2.4
				c-6.5,8.2-17.7,14.1-32.1,14.1c-16.7,0-28.5-8.1-33-22.3c-1.7-5.3-2.7-11.3-2.7-20.8c0-9.5,0.9-15.8,2.6-20.8
				c4.6-14.3,16.7-22.2,32.3-22.2C528.7,242.4,540.5,250.5,545.2,264.6z M494,268c-0.9,2.6-1.2,5.5-1.2,9.3c0,0.7,0.3,1,1,1H532
				c0.7,0,1-0.3,1-1c0-3.8-0.3-6.7-1.2-9.3c-2.7-8.2-9.6-12.9-18.9-12.9C503.6,255.1,496.7,259.7,494,268z"/>
			<path class="st2" d="M623.7,247.9c1,0.5,1.4,1.2,1.4,2.4v16.2c0,1-0.7,1.7-1.7,1.7h-9.8c-1,0-1.7-0.7-1.7-1.7v-7.7
				c0-0.7-0.2-1-0.9-1.4c-3.1-1.4-8.4-2.4-14.6-2.4c-11,0-16.5,4.1-16.5,10.8c0,6.4,3.6,10.1,16,11.5l8.8,0.9
				c18.2,2.1,25.3,10.5,25.3,23.9c0,16.3-11.9,26.5-33.7,26.5c-12,0-22.3-2.8-29.7-6.7c-0.9-0.5-1.2-1-1.2-2.2v-17.2
				c0-1,0.7-1.7,1.7-1.7h10.3c1,0,1.7,0.7,1.7,1.7v8.8c0,0.9,0.3,1.2,0.9,1.4c5.2,2.2,11.3,3.1,17.4,3.1c12.4,0,18.4-4.5,18.4-12.2
				c0-6.9-3.6-10.7-16.7-12l-8.8-1c-16.7-1.9-24.6-10-24.6-23.4c0-15.1,11.3-24.6,30.9-24.6C607.7,242.4,616.7,244.6,623.7,247.9z"
				/>
			<path class="st2" d="M705.5,247.9c1,0.5,1.4,1.2,1.4,2.4v16.2c0,1-0.7,1.7-1.7,1.7h-9.8c-1,0-1.7-0.7-1.7-1.7v-7.7
				c0-0.7-0.2-1-0.9-1.4c-3.1-1.4-8.4-2.4-14.6-2.4c-11,0-16.5,4.1-16.5,10.8c0,6.4,3.6,10.1,16,11.5l8.8,0.9
				c18.2,2.1,25.3,10.5,25.3,23.9c0,16.3-11.9,26.5-33.7,26.5c-12,0-22.3-2.8-29.7-6.7c-0.9-0.5-1.2-1-1.2-2.2v-17.2
				c0-1,0.7-1.7,1.7-1.7h10.3c1,0,1.7,0.7,1.7,1.7v8.8c0,0.9,0.3,1.2,0.9,1.4c5.2,2.2,11.3,3.1,17.4,3.1c12.4,0,18.4-4.5,18.4-12.2
				c0-6.9-3.6-10.7-16.7-12l-8.8-1c-16.7-1.9-24.6-10-24.6-23.4c0-15.1,11.3-24.6,30.9-24.6C689.5,242.4,698.5,244.6,705.5,247.9z"
				/>
			<path class="st2" d="M122.5,377.3c1.2,0.9,1.4,1.4,1.4,2.6v20.8c0,1-0.7,1.7-1.7,1.7h-10.8c-1,0-1.7-0.7-1.7-1.7v-12.2
				c0-0.9,0-1-0.7-1.5c-3.8-2.6-11.3-4.6-19.4-4.6c-15.3,0-23.2,6.4-27,17.4c-1.5,4.8-2.6,10.5-2.6,28.7s0.9,24.1,2.4,28.7
				c3.8,11,11.3,17.4,27.3,17.4c8.8,0,14.8-1.7,19.1-4c0.7-0.3,0.9-0.7,0.9-1.5V456c0-1,0.7-1.7,1.7-1.7h10.8c1,0,1.7,0.7,1.7,1.7
				v21.1c0,1-0.2,1.7-1.2,2.4c-7.7,5.3-18.9,9.1-34.2,9.1c-21.5,0-35.1-8.2-41.1-26.8c-2.2-6.5-2.9-14.1-2.9-33.5
				c0-19.4,0.9-26.1,3.1-32.6c6-18.4,20.3-27.7,40.9-27.7C103.2,368,114.7,371.8,122.5,377.3z"/>
			<path class="st2" d="M207,430.6v41.9c0,0.7,0.3,1,1,1h8.4c1,0,1.7,0.7,1.7,1.7v9.8c0,1-0.7,1.7-1.7,1.7h-21.3
				c-1,0-1.7-0.7-1.7-1.7v-7.2h-0.2c-3.6,6.2-11.7,10.8-24.1,10.8c-15.6,0-27.5-8.2-27.5-24.9c0-17.4,12-25.6,32-25.6h18.4
				c0.7,0,1-0.3,1-1v-5.3c0-11.3-4.1-16.7-18.6-16.7c-4.6,0-10.1,1-12.5,2.1c-0.7,0.3-0.9,0.7-0.9,1.4v8.4c0,1-0.7,1.7-1.7,1.7
				h-10.5c-1,0-1.7-0.7-1.7-1.7v-16.3c0-1,0.3-1.7,1.2-2.2c6.9-3.4,16.5-5.8,26.6-5.8C198.1,402.6,207,410.5,207,430.6z
				 M175.9,449.7c-14.1,0-20.3,4.5-20.3,13.6c0,8.4,6,12.9,17,12.9c12.9,0,20.4-5.8,20.4-16v-9.5c0-0.7-0.3-1-1-1H175.9z"/>
			<path class="st2" d="M286.6,404.1c1.2,0.3,1.7,0.7,1.7,1.7v11c0,1.2-0.7,1.9-2.1,1.5c-2.6-0.5-6.4-1.4-10.1-1.4
				c-12.4,0-20.1,7.7-20.1,24.4v31.1c0,0.7,0.3,1,1,1h9.5c1,0,1.7,0.7,1.7,1.7v9.8c0,1-0.7,1.7-1.7,1.7h-34.4c-1,0-1.7-0.7-1.7-1.7
				v-9.8c0-1,0.7-1.7,1.7-1.7h8.4c0.7,0,1-0.3,1-1v-53.8c0-0.7-0.3-1-1-1h-8.4c-1,0-1.7-0.7-1.7-1.7v-9.8c0-1,0.7-1.7,1.7-1.7h22.2
				c1,0,1.7,0.7,1.7,1.7v10.1h0.2c3.4-7,10.5-13.2,21.7-13.2C281.9,403.1,285.2,403.8,286.6,404.1z"/>
			<path class="st2" d="M366.8,369.9c1,0,1.7,0.7,1.7,1.7v100.9c0,0.7,0.3,1,1,1h8.4c1,0,1.7,0.7,1.7,1.7v9.8c0,1-0.7,1.7-1.7,1.7
				h-22.2c-1,0-1.7-0.7-1.7-1.7v-7.9h-0.2c-4,6.7-11.2,11.5-23.4,11.5c-14.3,0-24.1-6.7-28.4-19.8c-2.2-6.5-2.9-13.1-2.9-23.4
				s0.9-16.7,2.9-23.2c4.3-13.2,14.1-19.8,28.4-19.8c12.2,0,19.4,4.8,23.4,11.3h0.2v-29.7c0-0.7-0.3-1-1-1h-8.4
				c-1,0-1.7-0.7-1.7-1.7v-9.8c0-1,0.7-1.7,1.7-1.7H366.8z M316,428.4c-1.4,4.5-1.9,9.8-1.9,17.2c0,7.6,0.5,12.9,1.9,17.2
				c2.7,8.1,8.9,12.5,18,12.5c9.1,0,15.5-4.3,18.2-12.5c1.4-4,1.9-8.9,1.9-17.2s-0.5-13.1-1.9-17.2c-2.7-8.2-9.1-12.4-18.2-12.4
				C324.9,416,318.7,420.3,316,428.4z"/>
		</g>
		<g>
			<path class="st2" d="M380.2,496.6c1,0,1.7,0.7,1.7,1.7v10c0,1-0.7,1.7-1.7,1.7H45.5c-1,0-1.7-0.7-1.7-1.7v-10
				c0-1,0.7-1.7,1.7-1.7H380.2z"/>
		</g>
	</g>
</g>
</svg>
