<?xml version="1.0" encoding="utf-8"?>
<!-- Generator: Adobe Illustrator 19.1.1, SVG Export Plug-In . SVG Version: 6.00 Build 0)  -->
<svg version="1.1" xmlns="http://www.w3.org/2000/svg" xmlns:xlink="http://www.w3.org/1999/xlink" x="0px" y="0px"
	 viewBox="0 0 62 36" style="enable-background:new 0 0 62 36;" xml:space="preserve">
<style type="text/css">
	.st0{fill:none;stroke:#B2B2B2;stroke-miterlimit:10;}
	.st1{fill:#FFFFFF;}
	.st2{fill:#999999;}
	.st3{fill:none;stroke:#222222;stroke-width:7.4402;stroke-linecap:round;stroke-miterlimit:10;}
	.st4{fill:none;stroke:#222222;stroke-width:2.4304;stroke-linecap:round;stroke-miterlimit:10;}
	.st5{fill:none;stroke:#000000;stroke-width:0.884;stroke-linecap:round;stroke-linejoin:round;stroke-miterlimit:10;}
	.st6{fill:none;stroke:#000000;stroke-width:0.884;stroke-linecap:round;stroke-miterlimit:10;}
	.st7{fill:none;stroke:#999999;stroke-width:2;stroke-miterlimit:10;}
	.st8{fill:#4C4C4C;}
</style>
<g id="圖層_1">
	<line class="st0" x1="-510.5" y1="-842.5" x2="724.5" y2="-842.5"/>
	<g>
		
			<image style="overflow:visible;" width="1920" height="1200" xlink:href="C:\Users\Henc\Pictures\Saved Pictures\2017-02-18 11_38_46-NONXO.png"  transform="matrix(0.75 0 0 0.75 -535.5324 -1339.0426)">
		</image>
		
			<image style="overflow:visible;" width="1920" height="1200" xlink:href="C:\Users\Henc\Pictures\Saved Pictures\2017-02-18 11_38_55-NONXO.png"  transform="matrix(0.75 0 0 0.75 -535.5324 -1166.9515)">
		</image>
		<rect x="-522.5" y="-1157" class="st1" width="70.5" height="61.5"/>
	</g>
</g>
<g id="圖層_2">
	<g>
		<g>
			<path class="st2" d="M13.3,10.5c0-0.1,0.1-0.2,0.2-0.2h5.3c3,0,4.5,1.5,4.5,3.9c0,1.7-0.8,2.8-2,3.2v0c1,0.3,2.3,1.4,2.3,3.4
				c0,2.8-1.7,4.2-4.9,4.2h-5.2c-0.1,0-0.2-0.1-0.2-0.2V10.5z"/>
			<path class="st2" d="M28.5,25.3c-1.8,0-2.6-0.9-2.6-2.8v-12c0-0.1,0.1-0.2,0.2-0.2h1.4c0.1,0,0.2,0.1,0.2,0.2v11.9
				c0,0.9,0.3,1.2,1,1.2h0.4c0.1,0,0.2,0.1,0.2,0.2v1.3c0,0.1-0.1,0.2-0.2,0.2H28.5z"/>
			<path class="st2" d="M30.9,22.6c-0.2-0.7-0.4-1.4-0.4-2.7c0-1.2,0.1-1.9,0.4-2.6c0.6-1.8,2.1-2.8,4.1-2.8s3.6,1,4.1,2.8
				c0.2,0.7,0.4,1.4,0.4,2.6c0,1.2-0.1,1.9-0.4,2.7c-0.6,1.8-2.1,2.8-4.1,2.8S31.5,24.4,30.9,22.6z M37.4,22.1
				c0.2-0.6,0.2-1.1,0.2-2.1c0-1-0.1-1.6-0.2-2.1c-0.4-1-1.2-1.6-2.4-1.6s-2,0.6-2.4,1.6c-0.2,0.6-0.2,1.1-0.2,2.1
				c0,1,0.1,1.6,0.2,2.1c0.4,1,1.2,1.6,2.4,1.6S37,23.1,37.4,22.1z"/>
			<path class="st2" d="M41.6,27.8c-0.1-0.1-0.1-0.2,0-0.3l0.9-0.9c0.1-0.1,0.2-0.1,0.3,0c0.7,0.7,1.5,1.1,2.5,1.1
				c1.7,0,2.6-0.9,2.6-2.8v-1.2h0C47.4,24.5,46.5,25,45,25c-1.8,0-3-0.9-3.5-2.5c-0.3-0.8-0.4-1.6-0.4-2.8c0-1.2,0.1-2,0.4-2.8
				c0.5-1.6,1.9-2.5,3.7-2.5c1.5,0,2.8,0.6,2.9,0.6l1.5-0.3c0.1,0,0.2,0.1,0.2,0.2v9.8c0,3-1.6,4.6-4.6,4.6
				C43.7,29.4,42.3,28.7,41.6,27.8z M47.7,21.8c0.2-0.5,0.2-1.1,0.2-2c0-0.9-0.1-1.5-0.2-2c-0.4-1.1-1.1-1.6-2.2-1.6
				c-1.1,0-1.9,0.5-2.2,1.6c-0.2,0.5-0.3,1.2-0.3,2s0.1,1.5,0.3,2c0.4,1,1.1,1.6,2.2,1.6C46.6,23.4,47.3,22.9,47.7,21.8z"/>
		</g>
	</g>
	<rect x="-526.6" y="-407" class="st1" width="1429" height="300"/>
	<rect x="-864.8" y="155.3" class="st1" width="499" height="101.5"/>
	<text transform="matrix(1 0 0 1 -802.6396 -182.5768)" style="font-family:'DINNextLTPro-Regular'; font-size:12.9444px;">About</text>
	<text transform="matrix(1 0 0 1 -618.6287 -77.1227)"><tspan x="0" y="0" style="font-family:'DINNextLTPro-Regular'; font-size:12.9444px;">Blog</tspan><tspan x="0" y="31.1" style="font-family:'DINNextLTPro-Regular'; font-size:12.9444px;">Facebook</tspan><tspan x="0" y="62.1" style="font-family:'DINNextLTPro-Regular'; font-size:12.9444px;">Instagram</tspan></text>
	<g>
		<g>
			<g>
				<g>
					<line class="st3" x1="-849.7" y1="-342.4" x2="-864.8" y2="-358.3"/>
				</g>
				<g>
					<line class="st3" x1="-863.8" y1="-377.8" x2="-876.8" y2="-390.9"/>
				</g>
			</g>
			<g>
				<circle class="st3" cx="-813.2" cy="-356.2" r="53.6"/>
			</g>
		</g>
	</g>
	<rect x="-900.5" y="-52.7" style="fill:none;" width="195.6" height="104.8"/>
	<text transform="matrix(1 0 0 1 -900.4594 -44.8056)"><tspan x="0" y="0" style="fill:#7F7F7F; font-family:'DINNextLTPro-Regular'; font-size:9.4038px;">nonxo.com is a design studio in Taiwan, </tspan><tspan x="0" y="11.3" style="fill:#7F7F7F; font-family:'DINNextLTPro-Regular'; font-size:9.4038px;">seviced</tspan><tspan x="30.6" y="11.3" style="fill:#7F7F7F; font-family:'DINNextLTPro-Regular'; font-size:9.4038px;"> </tspan><tspan x="32.7" y="11.3" style="fill:#7F7F7F; font-family:'DINNextLTPro-Regular'; font-size:9.4038px;">with</tspan><tspan x="50.1" y="11.3" style="fill:#7F7F7F; font-family:'DINNextLTPro-Regular'; font-size:9.4038px;"> </tspan><tspan x="52.3" y="11.3" style="fill:#7F7F7F; font-family:'DINNextLTPro-Regular'; font-size:9.4038px;">graphic</tspan><tspan x="82.9" y="11.3" style="fill:#7F7F7F; font-family:'DINNextLTPro-Regular'; font-size:9.4038px;"> </tspan><tspan x="85.1" y="11.3" style="fill:#7F7F7F; font-family:'DINNextLTPro-Regular'; font-size:9.4038px;">design,</tspan><tspan x="114.2" y="11.3" style="fill:#7F7F7F; font-family:'DINNextLTPro-Regular'; font-size:9.4038px;"> </tspan><tspan x="116.3" y="11.3" style="fill:#7F7F7F; font-family:'DINNextLTPro-Regular'; font-size:9.4038px;">commercial</tspan><tspan x="164.4" y="11.3" style="fill:#7F7F7F; font-family:'DINNextLTPro-Regular'; font-size:9.4038px;"> </tspan><tspan x="166.6" y="11.3" style="fill:#7F7F7F; font-family:'DINNextLTPro-Regular'; font-size:9.4038px;">design, </tspan><tspan x="0" y="22.6" style="fill:#7F7F7F; font-family:'DINNextLTPro-Regular'; font-size:9.4038px;">motion</tspan><tspan x="28.1" y="22.6" style="fill:#7F7F7F; font-family:'DINNextLTPro-Regular'; font-size:9.4038px;"> </tspan><tspan x="30.4" y="22.6" style="fill:#7F7F7F; font-family:'DINNextLTPro-Regular'; font-size:9.4038px;">graphics</tspan><tspan x="65.7" y="22.6" style="fill:#7F7F7F; font-family:'DINNextLTPro-Regular'; font-size:9.4038px;"> </tspan><tspan x="68.1" y="22.6" style="fill:#7F7F7F; font-family:'DINNextLTPro-Regular'; font-size:9.4038px;">and</tspan><tspan x="83.1" y="22.6" style="fill:#7F7F7F; font-family:'DINNextLTPro-Regular'; font-size:9.4038px;"> </tspan><tspan x="85.5" y="22.6" style="fill:#7F7F7F; font-family:'DINNextLTPro-Regular'; font-size:9.4038px;">animation</tspan><tspan x="125.9" y="22.6" style="fill:#7F7F7F; font-family:'DINNextLTPro-Regular'; font-size:9.4038px;"> </tspan><tspan x="128.3" y="22.6" style="fill:#7F7F7F; font-family:'DINNextLTPro-Regular'; font-size:9.4038px;">works.</tspan><tspan x="155.6" y="22.6" style="fill:#7F7F7F; font-family:'DINNextLTPro-Regular'; font-size:9.4038px;"> </tspan><tspan x="158" y="22.6" style="fill:#7F7F7F; font-family:'DINNextLTPro-Regular'; font-size:9.4038px;">Hope</tspan><tspan x="178.9" y="22.6" style="fill:#7F7F7F; font-family:'DINNextLTPro-Regular'; font-size:9.4038px;"> </tspan><tspan x="181.2" y="22.6" style="fill:#7F7F7F; font-family:'DINNextLTPro-Regular'; font-size:9.4038px;">you </tspan><tspan x="0" y="33.9" style="fill:#7F7F7F; font-family:'DINNextLTPro-Regular'; font-size:9.4038px;">enjoy it, you may contact us : </tspan><tspan x="0" y="56.4" style="font-family:'DINNextLTPro-Regular'; font-size:9.4038px;">info@nonxo.com</tspan></text>
	<g>
		<g>
			<g>
				<g>
					<g>
						<line class="st4" x1="1111" y1="-300.4" x2="1106.1" y2="-305.6"/>
					</g>
					<g>
						<line class="st4" x1="1106.4" y1="-312" x2="1102.2" y2="-316.2"/>
					</g>
				</g>
				<g>
					<circle class="st4" cx="1123" cy="-304.9" r="17.5"/>
				</g>
			</g>
		</g>
		<g>
			<text transform="matrix(1 0 0 1 1149.5907 -304.6684)" style="font-family:'DINNextLTPro-Regular'; font-size:17.5492px;">nonxo</text>
		</g>
		
			<text transform="matrix(1 0 0 1 1150.5614 -296.4976)" style="font-family:'NotoSansCJKtc-DemiLight-B5pc-H'; font-size:5.2897px; letter-spacing:7;">叉圈設計</text>
	</g>
	<g>
		<g>
			<text transform="matrix(1 0 0 1 1377.1144 -301.9034)" style="font-family:'DINNextLTPro-Heavy'; font-size:13.8179px;">UNSAYABLE</text>
		</g>
		<text transform="matrix(1 0 0 1 1451.2708 -306.6497)" style="font-family:'DINNextLTPro-Heavy'; font-size:9.0244px;">™</text>
	</g>
	<g>
		<polyline class="st5" points="1288.8,-331.1 1272.8,-299.3 1301.1,-299.3 		"/>
		<line class="st6" x1="1298.4" y1="-321.1" x2="1287.6" y2="-299.9"/>
		<line class="st6" x1="1310.5" y1="-307.3" x2="1306.9" y2="-300.1"/>
		<line class="st6" x1="1273.9" y1="-320.1" x2="1263.9" y2="-300.4"/>
		
			<text transform="matrix(1 0 0 1 1251.1672 -284.5091)" style="font-family:'AvenirNextRoundedPro-Demi'; font-size:5.9601px; letter-spacing:13;">XINYU</text>
	</g>
	<text transform="matrix(1 0 0 1 -727.5324 -212.274)" style="font-family:'DFYuan-Md-HK-BF'; font-size:12.9444px;">不落格</text>
	<text transform="matrix(1 0 0 1 -646.6572 -347.2742)" style="font-family:'DFYuan-Md-HK-BF'; font-size:12.9444px;">部落格</text>
	
		<image style="overflow:visible;" width="1902" height="225" xlink:href="C:\Users\Henc\Pictures\Saved Pictures\2017-02-18 12_37_37-NONXO.png"  transform="matrix(0.75 0 0 0.75 -528.7824 -418.9515)">
	</image>
	<g>
		<path class="st2" d="M-80.4-373.2h-14c-2.3,0-4.1-1.9-4.1-4.1v-6.5c0-2.3,1.9-4.1,4.1-4.1h14c2.3,0,4.1,1.9,4.1,4.1v6.5
			C-76.3-375.1-78.1-373.2-80.4-373.2z"/>
		
			<text transform="matrix(1 0 0 1 -95.1158 -378.2085)" class="st1" style="font-family:'DINNextLTPro-Regular'; font-size:8.293px;">Blog</text>
	</g>
	<g>
		<path class="st1" d="M-32.3,36.8c0-0.1,0-0.1,0.1-0.1h2.6c1.5,0,2.2,0.8,2.2,2c0,0.9-0.4,1.4-1,1.6v0c0.5,0.1,1.1,0.7,1.1,1.7
			c0,1.4-0.9,2.1-2.4,2.1h-2.6c-0.1,0-0.1,0-0.1-0.1V36.8z M-29.6,39.9c0.8,0,1.3-0.5,1.3-1.2c0-0.7-0.5-1.2-1.3-1.2h-1.7
			c0,0-0.1,0-0.1,0.1v2.2c0,0,0,0.1,0.1,0.1H-29.6z M-31.3,43.2h1.7c0.9,0,1.4-0.5,1.4-1.2c0-0.7-0.5-1.2-1.4-1.2h-1.7
			c0,0-0.1,0-0.1,0.1L-31.3,43.2C-31.3,43.2-31.3,43.2-31.3,43.2z"/>
		<path class="st1" d="M-24.4,44.2c-0.9,0-1.3-0.4-1.3-1.4v-6c0-0.1,0-0.1,0.1-0.1h0.7c0.1,0,0.1,0,0.1,0.1v6c0,0.4,0.2,0.6,0.5,0.6
			h0.2c0.1,0,0.1,0,0.1,0.1V44c0,0.1,0,0.1-0.1,0.1H-24.4z"/>
		<path class="st1" d="M-22.8,42.8c-0.1-0.4-0.2-0.7-0.2-1.3c0-0.6,0.1-1,0.2-1.3c0.3-0.9,1.1-1.4,2.1-1.4s1.8,0.5,2.1,1.4
			c0.1,0.4,0.2,0.7,0.2,1.3c0,0.6-0.1,1-0.2,1.3c-0.3,0.9-1.1,1.4-2.1,1.4S-22.5,43.7-22.8,42.8z M-19.6,42.5
			c0.1-0.3,0.1-0.6,0.1-1.1c0-0.5,0-0.8-0.1-1.1c-0.2-0.5-0.6-0.8-1.2-0.8c-0.6,0-1,0.3-1.2,0.8C-22,40.7-22,41-22,41.5
			c0,0.5,0,0.8,0.1,1.1c0.2,0.5,0.6,0.8,1.2,0.8C-20.2,43.4-19.7,43.1-19.6,42.5z"/>
		<path class="st1" d="M-17.1,45.4c0-0.1,0-0.1,0-0.2l0.4-0.4c0.1-0.1,0.1-0.1,0.2,0c0.4,0.3,0.7,0.5,1.2,0.5c0.9,0,1.3-0.4,1.3-1.4
			v-0.6h0c-0.2,0.4-0.7,0.7-1.5,0.7c-0.9,0-1.5-0.4-1.8-1.3c-0.1-0.4-0.2-0.8-0.2-1.4s0-1,0.2-1.4c0.3-0.8,0.9-1.3,1.8-1.3
			c0.8,0,1.2,0.3,1.5,0.7h0V39c0-0.1,0-0.1,0.1-0.1h0.7c0.1,0,0.1,0,0.1,0.1v4.9c0,1.5-0.8,2.3-2.3,2.3
			C-16,46.2-16.8,45.9-17.1,45.4z M-14,42.4c0.1-0.3,0.1-0.6,0.1-1c0-0.4,0-0.7-0.1-1c-0.2-0.5-0.6-0.8-1.1-0.8
			c-0.6,0-0.9,0.3-1.1,0.8c-0.1,0.3-0.1,0.6-0.1,1s0,0.8,0.1,1c0.2,0.5,0.5,0.8,1.1,0.8C-14.6,43.2-14.2,42.9-14,42.4z"/>
	</g>
	<g>
		<path class="st1" d="M7.3,44.2c0-0.1,0-0.1,0.1-0.1h2.6c1.5,0,2.2,0.8,2.2,2c0,0.9-0.4,1.4-1,1.6v0c0.5,0.1,1.1,0.7,1.1,1.7
			c0,1.4-0.9,2.1-2.4,2.1H7.4c-0.1,0-0.1,0-0.1-0.1V44.2z M10,47.4c0.8,0,1.3-0.5,1.3-1.2c0-0.7-0.5-1.2-1.3-1.2H8.4
			c0,0-0.1,0-0.1,0.1v2.2c0,0,0,0.1,0.1,0.1H10z M8.4,50.7h1.7c0.9,0,1.4-0.5,1.4-1.2c0-0.7-0.5-1.2-1.4-1.2H8.4c0,0-0.1,0-0.1,0.1
			L8.4,50.7C8.3,50.7,8.3,50.7,8.4,50.7z"/>
		<path class="st1" d="M15.2,51.6c-0.9,0-1.3-0.4-1.3-1.4v-6c0-0.1,0-0.1,0.1-0.1h0.7c0.1,0,0.1,0,0.1,0.1v6c0,0.4,0.2,0.6,0.5,0.6
			h0.2c0.1,0,0.1,0,0.1,0.1v0.6c0,0.1,0,0.1-0.1,0.1H15.2z"/>
		<path class="st1" d="M16.8,50.3c-0.1-0.4-0.2-0.7-0.2-1.3c0-0.6,0.1-1,0.2-1.3c0.3-0.9,1.1-1.4,2.1-1.4s1.8,0.5,2.1,1.4
			c0.1,0.4,0.2,0.7,0.2,1.3c0,0.6-0.1,1-0.2,1.3c-0.3,0.9-1.1,1.4-2.1,1.4S17.1,51.2,16.8,50.3z M20.1,50c0.1-0.3,0.1-0.6,0.1-1.1
			c0-0.5,0-0.8-0.1-1.1c-0.2-0.5-0.6-0.8-1.2-0.8c-0.6,0-1,0.3-1.2,0.8c-0.1,0.3-0.1,0.6-0.1,1.1c0,0.5,0,0.8,0.1,1.1
			c0.2,0.5,0.6,0.8,1.2,0.8C19.5,50.9,19.9,50.6,20.1,50z"/>
		<path class="st1" d="M22.5,52.9c0-0.1,0-0.1,0-0.2l0.4-0.4c0.1-0.1,0.1-0.1,0.2,0c0.4,0.3,0.7,0.5,1.2,0.5c0.9,0,1.3-0.4,1.3-1.4
			v-0.6h0c-0.2,0.4-0.7,0.7-1.5,0.7c-0.9,0-1.5-0.4-1.8-1.3c-0.1-0.4-0.2-0.8-0.2-1.4s0-1,0.2-1.4c0.3-0.8,0.9-1.3,1.8-1.3
			c0.8,0,1.2,0.3,1.5,0.7h0v-0.5c0-0.1,0-0.1,0.1-0.1h0.7c0.1,0,0.1,0,0.1,0.1v4.9c0,1.5-0.8,2.3-2.3,2.3
			C23.6,53.7,22.9,53.4,22.5,52.9z M25.6,49.9c0.1-0.3,0.1-0.6,0.1-1s0-0.7-0.1-1c-0.2-0.5-0.6-0.8-1.1-0.8c-0.6,0-0.9,0.3-1.1,0.8
			c-0.1,0.3-0.1,0.6-0.1,1s0,0.8,0.1,1c0.2,0.5,0.5,0.8,1.1,0.8C25,50.7,25.4,50.4,25.6,49.9z"/>
	</g>
	<path class="st2" d="M56.8-6h-14c-2.3,0-4.1-1.9-4.1-4.1v-6.5c0-2.3,1.9-4.1,4.1-4.1h14c2.3,0,4.1,1.9,4.1,4.1v6.5
		C60.9-7.8,59.1-6,56.8-6z"/>
	<path class="st7" d="M49.3,32.7H12.7c-4.2,0-7.6-3.4-7.6-7.6v-13c0-4.2,3.4-7.6,7.6-7.6h36.6c4.2,0,7.6,3.4,7.6,7.6v13
		C56.9,29.3,53.5,32.7,49.3,32.7z"/>
	<text transform="matrix(1 0 0 1 42.1134 -10.9576)" class="st1" style="font-family:'DINNextLTPro-Regular'; font-size:8.293px;">Blog</text>
	
		<text transform="matrix(1 0 0 1 -11.5459 56.8337)" class="st1" style="font-family:'DINNextLTPro-Regular'; font-size:10.8993px;">Blog</text>
	<g>
		<g>
			<path class="st1" d="M18.7,16.8c1.6,0,2.6-0.9,2.6-2.3c0-1.4-1-2.3-2.6-2.3h-3.4c-0.1,0-0.1,0-0.1,0.1v4.4c0,0.1,0,0.1,0.1,0.1
				H18.7z"/>
			<path class="st1" d="M15.3,23.5h3.5c1.8,0,2.7-1,2.7-2.4c0-1.5-1-2.4-2.7-2.4h-3.5c-0.1,0-0.1,0-0.1,0.1v4.6
				C15.2,23.4,15.3,23.5,15.3,23.5z"/>
			<rect x="15.2" y="15.9" class="st1" width="2.2" height="3.4"/>
		</g>
		<rect x="40.5" y="25.8" class="st1" width="5" height="4.6"/>
	</g>
	<g>
		<path class="st1" d="M-58.2,55.8c0-0.1,0-0.1,0.1-0.1h2.6c1.5,0,2.2,0.8,2.2,2c0,0.9-0.4,1.4-1,1.6v0C-53.7,59.4-53,60-53,61
			c0,1.4-0.9,2.1-2.4,2.1H-58c-0.1,0-0.1,0-0.1-0.1V55.8z M-55.4,58.9c0.8,0,1.3-0.5,1.3-1.2c0-0.7-0.5-1.2-1.3-1.2h-1.7
			c0,0-0.1,0-0.1,0.1v2.2c0,0,0,0.1,0.1,0.1H-55.4z M-57.1,62.3h1.7c0.9,0,1.4-0.5,1.4-1.2c0-0.7-0.5-1.2-1.4-1.2h-1.7
			c0,0-0.1,0-0.1,0.1L-57.1,62.3C-57.2,62.2-57.2,62.3-57.1,62.3z"/>
		<path class="st1" d="M-50.5,63.2c-0.9,0-1.3-0.4-1.3-1.4v-6c0-0.1,0-0.1,0.1-0.1h0.7c0.1,0,0.1,0,0.1,0.1v6c0,0.4,0.2,0.6,0.5,0.6
			h0.2c0.1,0,0.1,0,0.1,0.1v0.6c0,0.1,0,0.1-0.1,0.1H-50.5z"/>
		<path class="st1" d="M-49.3,61.9c-0.1-0.4-0.2-0.7-0.2-1.3c0-0.6,0.1-1,0.2-1.3c0.3-0.9,1.1-1.4,2.1-1.4s1.8,0.5,2.1,1.4
			c0.1,0.4,0.2,0.7,0.2,1.3c0,0.6-0.1,1-0.2,1.3c-0.3,0.9-1.1,1.4-2.1,1.4S-49,62.7-49.3,61.9z M-46.1,61.6c0.1-0.3,0.1-0.6,0.1-1.1
			c0-0.5,0-0.8-0.1-1.1c-0.2-0.5-0.6-0.8-1.2-0.8s-1,0.3-1.2,0.8c-0.1,0.3-0.1,0.6-0.1,1.1c0,0.5,0,0.8,0.1,1.1
			c0.2,0.5,0.6,0.8,1.2,0.8S-46.2,62.1-46.1,61.6z"/>
		<path class="st1" d="M-44,64.5c0-0.1,0-0.1,0-0.2l0.4-0.4c0.1-0.1,0.1-0.1,0.2,0c0.4,0.3,0.7,0.5,1.2,0.5c0.9,0,1.3-0.4,1.3-1.4
			v-0.6h0c-0.2,0.4-0.7,0.7-1.5,0.7c-0.9,0-1.5-0.4-1.8-1.3c-0.1-0.4-0.2-0.8-0.2-1.4c0-0.6,0-1,0.2-1.4c0.3-0.8,0.9-1.3,1.8-1.3
			c0.8,0,1.4,0.3,1.5,0.3l0.7-0.2c0.1,0,0.1,0,0.1,0.1v4.9c0,1.5-0.8,2.3-2.3,2.3C-42.9,65.2-43.6,64.9-44,64.5z M-40.9,61.4
			c0.1-0.3,0.1-0.6,0.1-1c0-0.4,0-0.7-0.1-1c-0.2-0.5-0.6-0.8-1.1-0.8c-0.6,0-0.9,0.3-1.1,0.8c-0.1,0.3-0.1,0.6-0.1,1s0,0.8,0.1,1
			c0.2,0.5,0.5,0.8,1.1,0.8C-41.5,62.2-41.1,62-40.9,61.4z"/>
	</g>
	<rect x="-57.2" y="58.4" class="st8" width="1.9" height="1.7"/>
	<rect x="-44.5" y="63.4" class="st8" width="2.5" height="3"/>
	<path class="st1" d="M-43.7,65.2h1.7c0.1,0,0.2-0.1,0.2-0.2v-0.5c0-0.1-0.1-0.2-0.2-0.2h-1.4c-0.1,0-0.2,0.1-0.2,0.2
		s-0.2,0.4-0.2,0.5C-43.9,65.2-43.8,65.2-43.7,65.2z"/>
	<path class="st2" d="M42.1,29.4h3.3c0.2,0,0.3-0.1,0.3-0.3V28c0-0.2-0.1-0.3-0.3-0.3h-2.7c-0.2,0-0.3,0.1-0.4,0.3
		c-0.1,0.2-0.4,0.7-0.4,0.9C41.7,29.3,41.9,29.4,42.1,29.4z"/>
</g>
</svg>
