<?xml version="1.0" encoding="utf-8"?>
<!-- Generator: Adobe Illustrator 23.0.1, SVG Export Plug-In . SVG Version: 6.00 Build 0)  -->
<svg version="1.1" id="圖層_1" xmlns="http://www.w3.org/2000/svg" xmlns:xlink="http://www.w3.org/1999/xlink" x="0px" y="0px"
	 viewBox="0 0 448 126" style="enable-background:new 0 0 448 126;" xml:space="preserve">
<style type="text/css">
	.st0{fill:#BB181E;}
	.st1{fill:none;stroke:#BB181E;stroke-width:3.8487;stroke-miterlimit:10;}
	.st2{fill:#AD0000;}
</style>
<g>
	<g>
		<g>
			<path d="M544.52,125.37c-0.21-3.68-0.21-5.08-0.26-6.27v-10.52h8.48v30.69h-7.16l-12.45-16.53l0.13,6.71v9.82h-8.53v-30.69h7.16
				L544.52,125.37z"/>
			<path d="M573.72,140.01c-9.76,0-16.58-5.83-16.58-16.09c0-10.08,6.82-16.09,16.58-16.09c9.81,0,16.58,5.87,16.58,16.09
				C590.31,134.18,583.53,140.01,573.72,140.01z M573.72,115.25c-4.82,0-8.14,3.59-8.14,8.68c0,5.13,3.37,8.68,8.14,8.68
				c4.95,0,8.14-3.59,8.14-8.68C581.87,118.66,578.67,115.25,573.72,115.25z"/>
			<path d="M614.48,125.37c-0.21-3.68-0.21-5.08-0.26-6.27v-10.52h8.48v30.69h-7.16l-12.45-16.53l0.13,6.71v9.82h-8.53v-30.69h7.16
				L614.48,125.37z"/>
			<path d="M640.95,118.71l2.81-5.52l2.73-4.6h9.08v0.48l-9.38,14.77l10.02,15.08v0.35h-9.17l-2.77-4.25l-3.33-5.7l-3.37,5.79
				l-2.73,4.16h-9.17v-0.35l10.02-15.08l-9.38-14.77v-0.48h9.08l2.77,4.69L640.95,118.71z"/>
			<path d="M672.92,140.01c-9.76,0-16.58-5.83-16.58-16.09c0-10.08,6.82-16.09,16.58-16.09c9.81,0,16.58,5.87,16.58,16.09
				C689.51,134.18,682.73,140.01,672.92,140.01z M672.92,115.25c-4.82,0-8.14,3.59-8.14,8.68c0,5.13,3.37,8.68,8.14,8.68
				c4.95,0,8.14-3.59,8.14-8.68C681.07,118.66,677.87,115.25,672.92,115.25z"/>
			<path d="M556.55,188.26h-6.86l-5.29-14.69l-5.12,14.69h-6.82l-11.13-30.64h9.21l3.84,10.78c0.72,2.32,1.15,4.82,1.58,7.1
				l5.5-17.89h5.84l5.67,17.89c0.43-2.32,0.98-4.78,1.66-7.32l3.58-10.56h9.21L556.55,188.26z"/>
			<path d="M584.38,189.05c-9.76,0-16.58-5.83-16.58-16.09c0-10.08,6.82-16.09,16.58-16.09c9.81,0,16.58,5.87,16.58,16.09
				C600.97,183.22,594.19,189.05,584.38,189.05z M584.38,164.29c-4.82,0-8.14,3.59-8.14,8.68c0,5.13,3.37,8.68,8.14,8.68
				c4.95,0,8.14-3.59,8.14-8.68C592.52,167.7,589.33,164.29,584.38,164.29z"/>
			<path d="M632.98,188.31h-9.29l-6.95-9.95h-2.94v9.95h-8.44v-30.69h14.58c7.63,0,11.6,5.04,11.6,10.56c0,3.77-1.28,6.97-6.31,9.25
				l7.76,10.35V188.31z M613.8,164.55v7.36h6.22c2.22,0,3.2-1.71,3.2-3.55c0-1.93-1.07-3.81-3.28-3.81H613.8z"/>
			<path d="M663.16,158.15l-12.11,14.51c4.18,4.73,9,10.26,13.13,15.12v0.53h-10.44l-8.53-10.21v10.21h-8.44v-30.69h8.44v10.08
				c2.56-3.24,5.33-6.84,7.84-10.08h10.1V158.15z"/>
			<path d="M684.35,166.13c-2.05-1.58-4.39-2.1-6.99-2.1c-2.05,0-4.05,0.66-4.05,2.28c0,2.1,2,2.41,4.95,2.72
				c5.93,0.66,12.11,3.11,12.11,10.17c0,6.97-6.4,9.95-13.09,10c-5.37,0.04-9.21-0.92-13.34-5.39l4.65-5.48
				c2.94,2.94,6.22,3.46,8.74,3.46c2.77,0,4.69-1.01,4.69-2.72c0-1.53-1.71-2.5-4.99-2.81c-6.52-0.61-12.15-2.32-12.15-9.95
				c0-6.49,6.18-9.29,12.49-9.29c4.48,0,7.97,1.05,11.17,3.64L684.35,166.13z"/>
			<path d="M713.55,188.35v-11.62h-10.74v11.62h-8.44v-30.69h8.44v11.66h10.74v-11.66h8.36v30.69H713.55z"/>
			<path d="M742.88,189.05c-9.76,0-16.58-5.83-16.58-16.09c0-10.08,6.82-16.09,16.58-16.09c9.81,0,16.58,5.87,16.58,16.09
				C759.46,183.22,752.68,189.05,742.88,189.05z M742.88,164.29c-4.82,0-8.14,3.59-8.14,8.68c0,5.13,3.37,8.68,8.14,8.68
				c4.95,0,8.14-3.59,8.14-8.68C751.02,167.7,747.82,164.29,742.88,164.29z"/>
			<path d="M772.29,180.02v8.29h-8.44v-30.69h14.5c8.01,0,11.98,5.17,11.98,11.18c0,6.27-4.01,11.14-11.98,11.22H772.29z
				 M772.29,172.7h6.05c2.34,0,3.54-1.75,3.54-3.77s-1.24-3.86-3.54-3.86h-6.05V172.7z"/>
		</g>
	</g>
	<rect x="702.84" y="120.18" class="st0" width="84.75" height="3.85"/>
	<g>
		<g>
			<g>
				<path d="M549.91,235.42v20.65h20.48v-20.65H549.91z M567.61,247.71v5.75h-14.84h-0.09v-15.73h0.04h6.52h2.6h5.72h0.04V247.71z"
					/>
				<path d="M567.08,246.63c-1.13-0.37-1.61-0.68-2.42-1.5h2.42v-2.05h-7.3l0.48-0.94h6.82v-1.87h-2.49
					c0.41-0.49,1.09-1.5,1.41-2.11h-2.55c0,0-0.8,1.46-1.41,2.11h-0.94c0.32-0.84,0.56-1.24,0.73-2.1h-2.6
					c-0.2,0.91-0.48,1.31-0.84,2.1h-0.37c-0.35-0.77-1.3-2.11-1.3-2.11h-2.72c0.65,0.76,1.4,1.81,1.53,2.11l-2.21-0.03v1.87
					l4.1,0.03l-0.53,0.94l-3.57-0.03v2.05l2.05,0.03c-0.9,0.88-1.17,1.28-2.05,1.64v3.29c0.66-0.46,1.47-1.29,1.82-1.63v2.03
					c0,1.56,0.96,2.48,2.71,2.48h5.89c0.8,0,1.8-0.35,2.34-1.09c0.32-0.44,0.64-1.46,0.64-1.46c-1.19-0.45-2.36-1.62-2.36-1.62
					c-0.12,1.77-1.86,2.07-2.93,2.07h-3.07c-0.5,0-0.75-0.24-0.75-0.73v-2.26h3.83c0,0.03,0,0.07,0,0.11c0,0.46-0.33,0.65-0.98,0.65
					c-0.47,0-1.93,0-1.93,0v1.6c0.21,0,1.46,0,1.74,0c1.84,0,2.55-0.17,2.97-0.55c0.42-0.37,0.54-1.15,0.54-2.52
					c0.72,0.82,2.16,1.75,3.28,2.34V246.63z M557.59,246.18c0.35-0.3,0.65-0.66,0.89-1.05h3.47c0.2,0.35,0.46,0.7,0.8,1.05H557.59z"
					/>
			</g>
			<g>
				<path d="M538.88,249.37c2.08,1.65,3.81,2.37,7.01,2.91v3.51c-3.39-0.71-7.1-2.35-9.53-4.38c-2.59,2.04-5.75,3.68-9.59,4.38v-3.4
					c2.79-0.51,5.11-1.59,6.99-2.95c-2.22-2.1-4.44-5.67-6.07-9.99l3.08-0.06c0.37,1.08,1.09,2.43,2.15,4.04
					c1.05,1.63,2.15,3.1,3.31,4.13c0.9-0.78,2.31-2.2,3.41-3.98c1.09-1.76,2.02-3.46,2.31-5.14l-15.17-0.01v-2.72h18.9
					c0,0-0.07,1.17-0.46,2.77c-0.46,1.84-1.31,4.24-2.39,5.9C541.4,246.53,540.16,248.15,538.88,249.37z"/>
				<path d="M536.35,244.49c-1.07-1.43-2.27-2.8-3.58-4.11l2.41-1.39c1.16,0.94,2.36,2.16,3.61,3.66L536.35,244.49z"/>
			</g>
		</g>
	</g>
</g>
<g>
	<g>
		<text transform="matrix(0.9723 0 0 1 -293.2852 -129.7314)"><tspan x="0" y="0" style="font-family:'NexaBlack'; font-size:43.8446px;">NONXO</tspan><tspan x="0" y="49.04" style="font-family:'NexaBlack'; font-size:43.8446px;">WORKSHOP</tspan></text>
	</g>
	<line class="st1" x1="-112.16" y1="-146.89" x2="-27.41" y2="-146.89"/>
	<g>
		<g>
			<g>
				<path d="M-265.09-33.58v20.65h20.48v-20.65H-265.09z M-247.39-21.29v5.75h-14.84h-0.09v-15.73h0.04h6.52h2.6h5.72h0.04V-21.29z"
					/>
				<path d="M-247.92-22.37c-1.13-0.37-1.61-0.68-2.42-1.5h2.42v-2.05h-7.3l0.48-0.94h6.82v-1.87h-2.49
					c0.41-0.49,1.09-1.5,1.41-2.11h-2.55c0,0-0.8,1.46-1.41,2.11h-0.94c0.32-0.84,0.56-1.24,0.73-2.1h-2.6
					c-0.2,0.91-0.48,1.31-0.84,2.1h-0.37c-0.35-0.77-1.3-2.11-1.3-2.11h-2.72c0.65,0.76,1.4,1.81,1.53,2.11l-2.21-0.03v1.87
					l4.1,0.03l-0.53,0.94l-3.57-0.03v2.05l2.05,0.03c-0.9,0.88-1.17,1.28-2.05,1.64v3.29c0.66-0.46,1.47-1.29,1.82-1.63v2.03
					c0,1.56,0.96,2.48,2.71,2.48h5.89c0.8,0,1.8-0.35,2.34-1.09c0.32-0.44,0.64-1.46,0.64-1.46c-1.19-0.45-2.36-1.62-2.36-1.62
					c-0.12,1.77-1.86,2.07-2.93,2.07h-3.07c-0.5,0-0.75-0.24-0.75-0.73v-2.26h3.83c0,0.03,0,0.07,0,0.11c0,0.46-0.33,0.65-0.98,0.65
					c-0.47,0-1.93,0-1.93,0v1.6c0.21,0,1.46,0,1.74,0c1.84,0,2.55-0.17,2.97-0.55c0.42-0.37,0.54-1.15,0.54-2.52
					c0.72,0.82,2.16,1.75,3.28,2.34V-22.37z M-257.41-22.82c0.35-0.3,0.65-0.66,0.89-1.05h3.47c0.2,0.35,0.46,0.7,0.8,1.05H-257.41z
					"/>
			</g>
			<g>
				<path d="M-276.12-19.63c2.08,1.65,3.81,2.37,7.01,2.91v3.51c-3.39-0.71-7.1-2.35-9.53-4.38c-2.59,2.04-5.75,3.68-9.59,4.38v-3.4
					c2.79-0.51,5.11-1.59,6.99-2.95c-2.22-2.1-4.44-5.67-6.07-9.99l3.08-0.06c0.37,1.08,1.09,2.43,2.15,4.04
					c1.05,1.63,2.15,3.1,3.31,4.13c0.9-0.78,2.31-2.2,3.41-3.98c1.09-1.76,2.02-3.46,2.31-5.14l-15.17-0.01v-2.72h18.9
					c0,0-0.07,1.17-0.46,2.77c-0.46,1.84-1.31,4.24-2.39,5.9C-273.6-22.47-274.84-20.85-276.12-19.63z"/>
				<path d="M-278.65-24.51c-1.07-1.43-2.27-2.8-3.58-4.11l2.41-1.39c1.16,0.94,2.36,2.16,3.61,3.66L-278.65-24.51z"/>
			</g>
		</g>
	</g>
</g>
<g>
	<g>
		<path d="M117.58,33.83c-0.27-4.67-0.27-6.46-0.32-7.96V12.51h10.77v38.95h-9.09l-15.8-20.98L103.3,39v12.47H92.48V12.51h9.09
			L117.58,33.83z"/>
		<path d="M154.65,52.41c-12.39,0-21.05-7.4-21.05-20.42c0-12.8,8.66-20.42,21.05-20.42c12.44,0,21.05,7.46,21.05,20.42
			C175.69,45.01,167.09,52.41,154.65,52.41z M154.65,20.97c-6.11,0-10.33,4.56-10.33,11.02c0,6.51,4.27,11.02,10.33,11.02
			c6.28,0,10.33-4.56,10.33-11.02C164.98,25.31,160.92,20.97,154.65,20.97z"/>
		<path d="M206.37,33.83c-0.27-4.67-0.27-6.46-0.32-7.96V12.51h10.77v38.95h-9.09l-15.8-20.98l0.16,8.51v12.47h-10.82V12.51h9.09
			L206.37,33.83z"/>
		<path d="M239.97,25.37l3.57-7.01l3.46-5.84h11.52v0.61l-11.9,18.75l12.72,19.14v0.45h-11.63l-3.52-5.4l-4.22-7.23l-4.27,7.35
			l-3.46,5.29H220.6v-0.45l12.72-19.14l-11.9-18.75v-0.61h11.52l3.52,5.95L239.97,25.37z"/>
		<path d="M280.55,52.41c-12.39,0-21.05-7.4-21.05-20.42c0-12.8,8.66-20.42,21.05-20.42c12.44,0,21.05,7.46,21.05,20.42
			C301.6,45.01,292.99,52.41,280.55,52.41z M280.55,20.97c-6.11,0-10.33,4.56-10.33,11.02c0,6.51,4.27,11.02,10.33,11.02
			c6.28,0,10.33-4.56,10.33-11.02C290.88,25.31,286.82,20.97,280.55,20.97z"/>
		<path d="M132.84,113.65h-8.71l-6.71-18.64l-6.49,18.64h-8.66l-14.12-38.9h11.69l4.87,13.69c0.92,2.95,1.46,6.12,2,9.02l6.98-22.7
			h7.41l7.2,22.7c0.54-2.95,1.24-6.07,2.11-9.29l4.55-13.41h11.69L132.84,113.65z"/>
		<path d="M168.17,114.66c-12.39,0-21.05-7.4-21.05-20.42c0-12.8,8.66-20.42,21.05-20.42c12.44,0,21.05,7.46,21.05,20.42
			C189.22,107.25,180.62,114.66,168.17,114.66z M168.17,83.21c-6.11,0-10.33,4.56-10.33,11.02c0,6.51,4.27,11.02,10.33,11.02
			c6.28,0,10.33-4.56,10.33-11.02C178.51,87.56,174.45,83.21,168.17,83.21z"/>
		<path d="M229.85,113.71h-11.8l-8.82-12.63h-3.73v12.63h-10.71V74.76h18.5c9.69,0,14.72,6.4,14.72,13.41
			c0,4.79-1.62,8.85-8.01,11.74l9.85,13.13V113.71z M205.5,83.55v9.35h7.9c2.81,0,4.06-2.17,4.06-4.51c0-2.45-1.35-4.84-4.17-4.84
			H205.5z"/>
		<path d="M268.16,75.42l-15.37,18.42c5.3,6.01,11.42,13.02,16.67,19.2v0.67H256.2l-10.82-12.97v12.97h-10.71V74.76h10.71v12.8
			c3.25-4.12,6.76-8.68,9.96-12.8h12.82V75.42z"/>
		<path d="M295.05,85.55c-2.6-2-5.57-2.67-8.87-2.67c-2.6,0-5.14,0.83-5.14,2.89c0,2.67,2.54,3.06,6.28,3.45
			c7.52,0.83,15.37,3.95,15.37,12.91c0,8.85-8.12,12.63-16.61,12.69c-6.82,0.06-11.69-1.17-16.94-6.84l5.9-6.96
			c3.73,3.73,7.9,4.4,11.09,4.4c3.52,0,5.95-1.28,5.95-3.45c0-1.95-2.16-3.17-6.33-3.56c-8.28-0.78-15.42-2.95-15.42-12.63
			c0-8.24,7.85-11.8,15.85-11.8c5.68,0,10.12,1.34,14.18,4.62L295.05,85.55z"/>
		<path d="M332.11,113.77V99.02h-13.63v14.75h-10.71V74.81h10.71v14.8h13.63v-14.8h10.61v38.95H332.11z"/>
		<path d="M369.33,114.66c-12.39,0-21.05-7.4-21.05-20.42c0-12.8,8.66-20.42,21.05-20.42c12.44,0,21.05,7.46,21.05,20.42
			C390.38,107.25,381.78,114.66,369.33,114.66z M369.33,83.21c-6.11,0-10.33,4.56-10.33,11.02c0,6.51,4.27,11.02,10.33,11.02
			c6.28,0,10.33-4.56,10.33-11.02C379.67,87.56,375.61,83.21,369.33,83.21z"/>
		<path d="M406.67,103.19v10.52h-10.71V74.76h18.4c10.17,0,15.2,6.57,15.2,14.19c0,7.96-5.09,14.13-15.2,14.25H406.67z M406.67,93.9
			h7.68c2.98,0,4.49-2.23,4.49-4.79c0-2.56-1.57-4.9-4.49-4.9h-7.68V93.9z"/>
	</g>
</g>
<g>
	<path d="M17,69.27v44.56h44.18V69.27H17z M55.18,95.79v12.4H23.15h-0.19V74.24h0.1h14.07h5.6h12.35h0.1V95.79z"/>
	<path d="M54.05,93.48c-2.43-0.79-3.48-1.47-5.21-3.24h5.21V85.8H38.3l1.04-2.02h14.71v-4.03h-5.36c0.89-1.05,2.35-3.25,3.04-4.56
		h-5.51c0,0-1.73,3.15-3.04,4.56h-2.02c0.69-1.8,1.21-2.66,1.57-4.53h-5.6c-0.42,1.97-1.04,2.82-1.82,4.53h-0.79
		c-0.75-1.67-2.8-4.56-2.8-4.56h-5.87c1.41,1.64,3.02,3.9,3.31,4.56l-4.76-0.07v4.03l8.84,0.07L32.1,85.8l-7.71-0.07v4.43l4.42,0.07
		c-1.94,1.9-2.52,2.76-4.42,3.54v7.1c1.42-0.98,3.17-2.79,3.93-3.51v4.38c0,3.38,2.07,5.36,5.84,5.36h12.71
		c1.74,0,3.89-0.75,5.05-2.35c0.69-0.95,1.37-3.15,1.37-3.15c-2.56-0.97-5.09-3.49-5.09-3.49c-0.27,3.82-4,4.46-6.32,4.46h-6.62
		c-1.08,0-1.62-0.52-1.62-1.57v-4.87h8.27c0,0.07,0,0.15,0,0.25c0,0.98-0.71,1.4-2.12,1.4c-1.01,0-4.16,0-4.16,0v3.45
		c0.45,0,3.14,0,3.76,0c3.96,0,5.49-0.37,6.41-1.19c0.92-0.79,1.17-2.48,1.17-5.43c1.54,1.77,4.66,3.78,7.09,5.06V93.48z
		 M33.58,92.5c0.76-0.66,1.39-1.42,1.92-2.27h7.48c0.42,0.75,1,1.51,1.72,2.27H33.58z"/>
</g>
<g>
	<path d="M44.61,41.37c4.49,3.55,8.21,5.12,15.12,6.27v7.57c-7.31-1.53-15.31-5.07-20.57-9.44c-5.59,4.4-12.41,7.94-20.69,9.44
		v-7.34c6.02-1.1,11.02-3.42,15.08-6.36c-4.78-4.53-9.58-12.23-13.1-21.56l6.64-0.12c0.8,2.33,2.36,5.23,4.65,8.71
		c2.26,3.51,4.64,6.68,7.13,8.91c1.95-1.69,4.99-4.75,7.35-8.58c2.36-3.8,4.36-7.48,4.99-11.08l-32.74-0.02V11.9h40.79
		c0,0-0.15,2.53-1,5.97c-0.98,3.97-2.83,9.14-5.17,12.73C50.04,35.26,47.37,38.75,44.61,41.37z"/>
	<path d="M39.15,30.84c-2.32-3.09-4.9-6.04-7.73-8.86l5.2-3.01c2.49,2.04,5.09,4.67,7.78,7.89L39.15,30.84z"/>
</g>
<rect x="317.52" y="28.24" class="st2" width="107.57" height="4.88"/>
</svg>
