<?xml version="1.0" encoding="utf-8"?>
<!-- Generator: Adobe Illustrator 23.0.1, SVG Export Plug-In . SVG Version: 6.00 Build 0)  -->
<svg version="1.1" id="圖層_1" xmlns="http://www.w3.org/2000/svg" xmlns:xlink="http://www.w3.org/1999/xlink" x="0px" y="0px"
	 viewBox="0 0 296 174" style="enable-background:new 0 0 296 174;" xml:space="preserve">
<style type="text/css">
	.st0{fill:#BB181E;}
	.st1{fill:none;stroke:#BB181E;stroke-width:3.8487;stroke-miterlimit:10;}
</style>
<g>
	<g>
		<g>
			<path d="M34.52,33.37c-0.21-3.68-0.21-5.08-0.26-6.27V16.58h8.48v30.69h-7.16L23.14,30.74l0.13,6.71v9.82h-8.53V16.58h7.16
				L34.52,33.37z"/>
			<path d="M63.72,48.01c-9.76,0-16.58-5.83-16.58-16.09c0-10.08,6.82-16.09,16.58-16.09c9.81,0,16.58,5.87,16.58,16.09
				C80.31,42.18,73.53,48.01,63.72,48.01z M63.72,23.25c-4.82,0-8.14,3.59-8.14,8.68c0,5.13,3.37,8.68,8.14,8.68
				c4.95,0,8.14-3.59,8.14-8.68C71.87,26.66,68.67,23.25,63.72,23.25z"/>
			<path d="M104.48,33.37c-0.21-3.68-0.21-5.08-0.26-6.27V16.58h8.48v30.69h-7.16L93.1,30.74l0.13,6.71v9.82H84.7V16.58h7.16
				L104.48,33.37z"/>
			<path d="M130.95,26.71l2.81-5.52l2.73-4.6h9.08v0.48l-9.38,14.77l10.02,15.08v0.35h-9.17l-2.77-4.25l-3.33-5.7l-3.37,5.79
				l-2.73,4.16h-9.17v-0.35l10.02-15.08l-9.38-14.77v-0.48h9.08l2.77,4.69L130.95,26.71z"/>
			<path d="M162.92,48.01c-9.76,0-16.58-5.83-16.58-16.09c0-10.08,6.82-16.09,16.58-16.09c9.81,0,16.58,5.87,16.58,16.09
				C179.51,42.18,172.73,48.01,162.92,48.01z M162.92,23.25c-4.82,0-8.14,3.59-8.14,8.68c0,5.13,3.37,8.68,8.14,8.68
				c4.95,0,8.14-3.59,8.14-8.68C171.07,26.66,167.87,23.25,162.92,23.25z"/>
			<path d="M46.55,96.26h-6.86L34.4,81.58l-5.12,14.69h-6.82L11.33,65.62h9.21l3.84,10.78c0.72,2.32,1.15,4.82,1.58,7.1l5.5-17.89
				h5.84l5.67,17.89c0.43-2.32,0.98-4.78,1.66-7.32l3.58-10.56h9.21L46.55,96.26z"/>
			<path d="M74.38,97.05c-9.76,0-16.58-5.83-16.58-16.09c0-10.08,6.82-16.09,16.58-16.09c9.81,0,16.58,5.87,16.58,16.09
				C90.97,91.22,84.19,97.05,74.38,97.05z M74.38,72.29c-4.82,0-8.14,3.59-8.14,8.68c0,5.13,3.37,8.68,8.14,8.68
				c4.95,0,8.14-3.59,8.14-8.68C82.52,75.7,79.33,72.29,74.38,72.29z"/>
			<path d="M122.98,96.31h-9.29l-6.95-9.95h-2.94v9.95h-8.44V65.62h14.58c7.63,0,11.6,5.04,11.6,10.56c0,3.77-1.28,6.97-6.31,9.25
				l7.76,10.35V96.31z M103.8,72.55v7.36h6.22c2.22,0,3.2-1.71,3.2-3.55c0-1.93-1.07-3.81-3.28-3.81H103.8z"/>
			<path d="M153.16,66.15l-12.11,14.51c4.18,4.73,9,10.26,13.13,15.12v0.53h-10.44l-8.53-10.21v10.21h-8.44V65.62h8.44V75.7
				c2.56-3.24,5.33-6.84,7.84-10.08h10.1V66.15z"/>
			<path d="M174.35,74.13c-2.05-1.58-4.39-2.1-6.99-2.1c-2.05,0-4.05,0.66-4.05,2.28c0,2.1,2,2.41,4.95,2.72
				c5.93,0.66,12.11,3.11,12.11,10.17c0,6.97-6.4,9.95-13.09,10c-5.37,0.04-9.21-0.92-13.34-5.39l4.65-5.48
				c2.94,2.94,6.22,3.46,8.74,3.46c2.77,0,4.69-1.01,4.69-2.72c0-1.53-1.71-2.5-4.99-2.81c-6.52-0.61-12.15-2.32-12.15-9.95
				c0-6.49,6.18-9.29,12.49-9.29c4.48,0,7.97,1.05,11.17,3.64L174.35,74.13z"/>
			<path d="M203.55,96.35V84.74h-10.74v11.62h-8.44V65.67h8.44v11.66h10.74V65.67h8.36v30.69H203.55z"/>
			<path d="M232.88,97.05c-9.76,0-16.58-5.83-16.58-16.09c0-10.08,6.82-16.09,16.58-16.09c9.81,0,16.58,5.87,16.58,16.09
				C249.46,91.22,242.68,97.05,232.88,97.05z M232.88,72.29c-4.82,0-8.14,3.59-8.14,8.68c0,5.13,3.37,8.68,8.14,8.68
				c4.95,0,8.14-3.59,8.14-8.68C241.02,75.7,237.82,72.29,232.88,72.29z"/>
			<path d="M262.29,88.02v8.29h-8.44V65.62h14.5c8.01,0,11.98,5.17,11.98,11.18c0,6.27-4.01,11.14-11.98,11.22H262.29z M262.29,80.7
				h6.05c2.34,0,3.54-1.75,3.54-3.77s-1.24-3.86-3.54-3.86h-6.05V80.7z"/>
		</g>
	</g>
	<rect x="192.84" y="28.18" class="st0" width="84.75" height="3.85"/>
	<g>
		<g>
			<g>
				<path d="M39.91,143.42v20.65h20.48v-20.65H39.91z M57.61,155.71v5.75H42.76h-0.09v-15.73h0.04h6.52h2.6h5.72h0.04V155.71z"/>
				<path d="M57.08,154.63c-1.13-0.37-1.61-0.68-2.42-1.5h2.42v-2.05h-7.3l0.48-0.94h6.82v-1.87H54.6c0.41-0.49,1.09-1.5,1.41-2.11
					h-2.55c0,0-0.8,1.46-1.41,2.11h-0.94c0.32-0.84,0.56-1.24,0.73-2.1h-2.6c-0.2,0.91-0.48,1.31-0.84,2.1h-0.37
					c-0.35-0.77-1.3-2.11-1.3-2.11h-2.72c0.65,0.76,1.4,1.81,1.53,2.11l-2.21-0.03v1.87l4.1,0.03l-0.53,0.94l-3.57-0.03v2.05
					l2.05,0.03c-0.9,0.88-1.17,1.28-2.05,1.64v3.29c0.66-0.46,1.47-1.29,1.82-1.63v2.03c0,1.56,0.96,2.48,2.71,2.48h5.89
					c0.8,0,1.8-0.35,2.34-1.09c0.32-0.44,0.64-1.46,0.64-1.46c-1.19-0.45-2.36-1.62-2.36-1.62c-0.12,1.77-1.86,2.07-2.93,2.07h-3.07
					c-0.5,0-0.75-0.24-0.75-0.73v-2.26h3.83c0,0.03,0,0.07,0,0.11c0,0.46-0.33,0.65-0.98,0.65c-0.47,0-1.93,0-1.93,0v1.6
					c0.21,0,1.46,0,1.74,0c1.84,0,2.55-0.17,2.97-0.55c0.42-0.37,0.54-1.15,0.54-2.52c0.72,0.82,2.16,1.75,3.28,2.34V154.63z
					 M47.59,154.18c0.35-0.3,0.65-0.66,0.89-1.05h3.47c0.2,0.35,0.46,0.7,0.8,1.05H47.59z"/>
			</g>
			<g>
				<path d="M28.88,157.37c2.08,1.65,3.81,2.37,7.01,2.91v3.51c-3.39-0.71-7.1-2.35-9.53-4.38c-2.59,2.04-5.75,3.68-9.59,4.38v-3.4
					c2.79-0.51,5.11-1.59,6.99-2.95c-2.22-2.1-4.44-5.67-6.07-9.99l3.08-0.06c0.37,1.08,1.09,2.43,2.15,4.04
					c1.05,1.63,2.15,3.1,3.31,4.13c0.9-0.78,2.31-2.2,3.41-3.98c1.09-1.76,2.02-3.46,2.31-5.14l-15.17-0.01v-2.72h18.9
					c0,0-0.07,1.17-0.46,2.77c-0.46,1.84-1.31,4.24-2.39,5.9C31.4,154.53,30.16,156.15,28.88,157.37z"/>
				<path d="M26.35,152.49c-1.07-1.43-2.27-2.8-3.58-4.11l2.41-1.39c1.16,0.94,2.36,2.16,3.61,3.66L26.35,152.49z"/>
			</g>
		</g>
	</g>
</g>
<g>
	<g>
		<text transform="matrix(0.9723 0 0 1 -386.2852 -105.7314)"><tspan x="0" y="0" style="font-family:'NexaBlack'; font-size:43.8446px;">NONXO</tspan><tspan x="0" y="49.04" style="font-family:'NexaBlack'; font-size:43.8446px;">WORKSHOP</tspan></text>
	</g>
	<line class="st1" x1="-205.16" y1="-122.89" x2="-120.41" y2="-122.89"/>
	<g>
		<g>
			<g>
				<path d="M-358.09-9.58v20.65h20.48V-9.58H-358.09z M-340.39,2.71v5.75h-14.84h-0.09V-7.28h0.04h6.52h2.6h5.72h0.04V2.71z"/>
				<path d="M-340.92,1.63c-1.13-0.37-1.61-0.68-2.42-1.5h2.42v-2.05h-7.3l0.48-0.94h6.82v-1.87h-2.49c0.41-0.49,1.09-1.5,1.41-2.11
					h-2.55c0,0-0.8,1.46-1.41,2.11h-0.94c0.32-0.84,0.56-1.24,0.73-2.1h-2.6c-0.2,0.91-0.48,1.31-0.84,2.1h-0.37
					c-0.35-0.77-1.3-2.11-1.3-2.11h-2.72c0.65,0.76,1.4,1.81,1.53,2.11l-2.21-0.03v1.87l4.1,0.03l-0.53,0.94l-3.57-0.03V0.1
					l2.05,0.03c-0.9,0.88-1.17,1.28-2.05,1.64v3.29c0.66-0.46,1.47-1.29,1.82-1.63v2.03c0,1.56,0.96,2.48,2.71,2.48h5.89
					c0.8,0,1.8-0.35,2.34-1.09c0.32-0.44,0.64-1.46,0.64-1.46c-1.19-0.45-2.36-1.62-2.36-1.62c-0.12,1.77-1.86,2.07-2.93,2.07h-3.07
					c-0.5,0-0.75-0.24-0.75-0.73V2.87h3.83c0,0.03,0,0.07,0,0.11c0,0.46-0.33,0.65-0.98,0.65c-0.47,0-1.93,0-1.93,0v1.6
					c0.21,0,1.46,0,1.74,0c1.84,0,2.55-0.17,2.97-0.55c0.42-0.37,0.54-1.15,0.54-2.52c0.72,0.82,2.16,1.75,3.28,2.34V1.63z
					 M-350.41,1.18c0.35-0.3,0.65-0.66,0.89-1.05h3.47c0.2,0.35,0.46,0.7,0.8,1.05H-350.41z"/>
			</g>
			<g>
				<path d="M-369.12,4.37c2.08,1.65,3.81,2.37,7.01,2.91v3.51c-3.39-0.71-7.1-2.35-9.53-4.38c-2.59,2.04-5.75,3.68-9.59,4.38v-3.4
					c2.79-0.51,5.11-1.59,6.99-2.95c-2.22-2.1-4.44-5.67-6.07-9.99l3.08-0.06c0.37,1.08,1.09,2.43,2.15,4.04
					c1.05,1.63,2.15,3.1,3.31,4.13c0.9-0.78,2.31-2.2,3.41-3.98c1.09-1.76,2.02-3.46,2.31-5.14l-15.17-0.01v-2.72h18.9
					c0,0-0.07,1.17-0.46,2.77c-0.46,1.84-1.31,4.24-2.39,5.9C-366.6,1.53-367.84,3.15-369.12,4.37z"/>
				<path d="M-371.65-0.51c-1.07-1.43-2.27-2.8-3.58-4.11l2.41-1.39c1.16,0.94,2.36,2.16,3.61,3.66L-371.65-0.51z"/>
			</g>
		</g>
	</g>
</g>
</svg>
