<?xml version="1.0" encoding="utf-8"?>
<!-- Generator: Adobe Illustrator 24.0.2, SVG Export Plug-In . SVG Version: 6.00 Build 0)  -->
<svg version="1.1" id="圖層_1" xmlns="http://www.w3.org/2000/svg" xmlns:xlink="http://www.w3.org/1999/xlink" x="0px" y="0px"
	 viewBox="0 0 97.3 41.1" style="enable-background:new 0 0 97.3 41.1;" xml:space="preserve">
<style type="text/css">
	.st0{fill:#191919;}
	.st1{fill:#B5B5B5;}
	.st2{fill:#BB181E;}
	.st3{fill:none;stroke:#BB181E;stroke-width:3.8487;stroke-miterlimit:10;}
	.st4{fill:#FFFFFF;}
	.st5{fill:none;stroke:#000000;stroke-miterlimit:10;}
	.st6{fill:#231815;}
	.st7{fill:#040000;}
	.st8{fill:none;stroke:#FFFFFF;stroke-miterlimit:10;}
	.st9{fill:none;stroke:#FFFFFF;stroke-width:1.6518;stroke-miterlimit:10;}
	.st10{fill:none;stroke:#040000;stroke-width:5.5394;stroke-miterlimit:10;}
	.st11{fill:none;stroke:#040000;stroke-width:5.1414;stroke-miterlimit:10;}
	.st12{enable-background:new    ;}
	.st13{fill:none;stroke:#E61F19;stroke-width:3;stroke-miterlimit:10;}
	.st14{fill:none;stroke:#040000;stroke-width:2.7396;stroke-miterlimit:10;}
	.st15{fill:none;stroke:#E61F19;stroke-width:6;stroke-miterlimit:10;}
</style>
<g>
	<path class="st0" d="M-92.7,22.8c-4.2,4.2-4.2,10.9,0,15.1s10.9,4.2,15.1,0s4.2-10.9,0-15.1S-88.5,18.7-92.7,22.8z"/>
</g>
<path class="st1" d="M-103.7,33.9c-4.2,4.2-4.2,10.9,0,15.1s10.9,4.2,15.1,0s4.2-10.9,0-15.1S-99.5,29.7-103.7,33.9z"/>
<g>
	<path class="st0" d="M-172.8-31.3c-4.2,4.2-4.2,10.9,0,15.1s10.9,4.2,15.1,0s4.2-10.9,0-15.1S-168.6-35.4-172.8-31.3z"/>
</g>
<path class="st1" d="M-183.8-20.2c-4.2,4.2-4.2,10.9,0,15.1s10.9,4.2,15.1,0s4.2-10.9,0-15.1S-179.6-24.4-183.8-20.2z"/>
<g>
	<g>
		<path d="M62.1-181.7c-0.2-3.7-0.2-5.1-0.3-6.3v-10.5h8.5v30.7h-7.2l-12.4-16.5l0.1,6.7v9.8h-8.5v-30.7h7.2L62.1-181.7z"/>
		<path d="M91.3-167c-9.8,0-16.6-5.8-16.6-16.1c0-10.1,6.8-16.1,16.6-16.1s16.6,5.9,16.6,16.1S101.1-167,91.3-167z M91.3-191.8
			c-4.8,0-8.1,3.6-8.1,8.7c0,5.1,3.4,8.7,8.1,8.7c4.9,0,8.1-3.6,8.1-8.7C99.5-188.4,96.3-191.8,91.3-191.8z"/>
		<path d="M132.1-181.7c-0.2-3.7-0.2-5.1-0.3-6.3v-10.5h8.5v30.7h-7.2l-12.4-16.5l0.1,6.7v9.8h-8.5v-30.7h7.2L132.1-181.7z"/>
		<path d="M158.5-188.3l2.8-5.5l2.7-4.6h9.1v0.5l-9.4,14.8l10,15.1v0.3h-9.2l-2.8-4.3l-3.3-5.7l-3.4,5.8l-2.7,4.2h-9.2v-0.3l10-15.1
			l-9.4-14.8v-0.5h9.1l2.8,4.7L158.5-188.3z"/>
		<path d="M190.5-167c-9.8,0-16.6-5.8-16.6-16.1c0-10.1,6.8-16.1,16.6-16.1s16.6,5.9,16.6,16.1S200.3-167,190.5-167z M190.5-191.8
			c-4.8,0-8.1,3.6-8.1,8.7c0,5.1,3.4,8.7,8.1,8.7c4.9,0,8.1-3.6,8.1-8.7C198.7-188.4,195.4-191.8,190.5-191.8z"/>
		<path d="M74.1-118.8h-6.9L62-133.5l-5.1,14.7H50l-11.1-30.7h9.2l3.8,10.8c0.7,2.3,1.2,4.8,1.6,7.1l5.5-17.9h5.8l5.7,17.9
			c0.4-2.3,1-4.8,1.7-7.3l3.6-10.6H85L74.1-118.8z"/>
		<path d="M102-118c-9.8,0-16.6-5.8-16.6-16.1c0-10.1,6.8-16.1,16.6-16.1s16.6,5.9,16.6,16.1C118.6-123.8,111.8-118,102-118z
			 M102-142.8c-4.8,0-8.1,3.6-8.1,8.7s3.4,8.7,8.1,8.7c4.9,0,8.1-3.6,8.1-8.7C110.1-139.3,106.9-142.8,102-142.8z"/>
		<path d="M150.6-118.7h-9.3l-6.9-9.9h-2.9v9.9h-8.4v-30.7h14.6c7.6,0,11.6,5,11.6,10.6c0,3.8-1.3,7-6.3,9.3l7.8,10.3L150.6-118.7
			L150.6-118.7z M131.4-142.5v7.4h6.2c2.2,0,3.2-1.7,3.2-3.6c0-1.9-1.1-3.8-3.3-3.8L131.4-142.5L131.4-142.5z"/>
		<path d="M180.7-148.9l-12.1,14.5c4.2,4.7,9,10.3,13.1,15.1v0.5h-10.4l-8.5-10.2v10.2h-8.4v-30.7h8.4v10.1
			c2.6-3.2,5.3-6.8,7.8-10.1h10.1L180.7-148.9L180.7-148.9z"/>
		<path d="M201.9-140.9c-2.1-1.6-4.4-2.1-7-2.1c-2.1,0-4.1,0.7-4.1,2.3c0,2.1,2,2.4,4.9,2.7c5.9,0.7,12.1,3.1,12.1,10.2
			c0,7-6.4,9.9-13.1,10c-5.4,0-9.2-0.9-13.3-5.4l4.6-5.5c2.9,2.9,6.2,3.5,8.7,3.5c2.8,0,4.7-1,4.7-2.7c0-1.5-1.7-2.5-5-2.8
			c-6.5-0.6-12.1-2.3-12.1-9.9c0-6.5,6.2-9.3,12.5-9.3c4.5,0,8,1.1,11.2,3.6L201.9-140.9z"/>
		<path d="M231.1-118.7v-11.6h-10.7v11.6H212v-30.7h8.4v11.7h10.7v-11.7h8.4v30.7L231.1-118.7L231.1-118.7z"/>
		<path d="M260.5-118c-9.8,0-16.6-5.8-16.6-16.1c0-10.1,6.8-16.1,16.6-16.1c9.8,0,16.6,5.9,16.6,16.1C277-123.8,270.3-118,260.5-118
			z M260.5-142.8c-4.8,0-8.1,3.6-8.1,8.7s3.4,8.7,8.1,8.7c5,0,8.1-3.6,8.1-8.7C268.6-139.3,265.4-142.8,260.5-142.8z"/>
		<path d="M289.9-127v8.3h-8.4v-30.7H296c8,0,12,5.2,12,11.2c0,6.3-4,11.1-12,11.2C295.9-127,289.9-127,289.9-127z M289.9-134.3h6
			c2.3,0,3.5-1.8,3.5-3.8s-1.2-3.9-3.5-3.9h-6V-134.3z"/>
	</g>
</g>
<rect x="220.4" y="-186.9" class="st2" width="84.8" height="3.8"/>
<g>
	<g>
		<g>
			<path d="M67.5-71.6V-51H88v-20.6H67.5z M85.2-59.3v5.8H70.3h-0.1v-15.7l0,0h6.5h2.6H85l0,0L85.2-59.3L85.2-59.3z"/>
			<path d="M84.7-60.4c-1.1-0.4-1.6-0.7-2.4-1.5h2.4V-64h-7.3l0.5-0.9h6.8v-1.9h-2.5c0.4-0.5,1.1-1.5,1.4-2.1H81
				c0,0-0.8,1.5-1.4,2.1h-0.9c0.3-0.8,0.6-1.2,0.7-2.1h-2.6c-0.2,0.9-0.5,1.3-0.8,2.1h-0.4c-0.3-0.8-1.3-2.1-1.3-2.1h-2.7
				c0.7,0.8,1.4,1.8,1.5,2.1h-2.2v1.9H75L74.5-64h-3.6v2.1h2c-0.9,0.9-1.2,1.3-2,1.6v3.3c0.7-0.5,1.5-1.3,1.8-1.6v2
				c0,1.6,1,2.5,2.7,2.5h5.9c0.8,0,1.8-0.4,2.3-1.1c0.3-0.4,0.6-1.5,0.6-1.5c-1.2-0.4-2.4-1.6-2.4-1.6c0,1.8-1.7,2.1-2.8,2.1h-3.1
				c-0.5,0-0.8-0.2-0.8-0.7v-2.3H79v0.1c0,0.5-0.3,0.6-1,0.6c-0.5,0-1.9,0-1.9,0v1.6c0.2,0,1.5,0,1.7,0c1.8,0,2.5-0.2,3-0.6
				c0.4-0.4,0.5-1.1,0.5-2.5c0.7,0.8,2.2,1.8,3.3,2.3L84.7-60.4L84.7-60.4z M75.2-60.9c0.3-0.3,0.7-0.7,0.9-1.1h3.5
				c0.2,0.4,0.5,0.7,0.8,1.1H75.2z"/>
		</g>
		<g>
			<path d="M56.5-57.7c2.1,1.6,3.8,2.4,7,2.9v3.5c-3.4-0.7-7.1-2.4-9.5-4.4c-2.6,2-5.8,3.7-9.6,4.4v-3.4c2.8-0.5,5.1-1.6,7-2.9
				c-2.2-2.1-4.4-5.7-6.1-10l3.1-0.1c0.4,1.1,1.1,2.4,2.2,4c1,1.6,2.2,3.1,3.3,4.1c0.9-0.8,2.3-2.2,3.4-4c1.1-1.8,2-3.5,2.3-5.1
				H44.4v-2.7h18.9c0,0-0.1,1.2-0.5,2.8c-0.5,1.8-1.3,4.2-2.4,5.9C59-60.5,57.7-58.9,56.5-57.7z"/>
			<path d="M53.9-62.5c-1.1-1.4-2.3-2.8-3.6-4.1l2.4-1.4c1.2,0.9,2.4,2.2,3.6,3.7L53.9-62.5z"/>
		</g>
	</g>
</g>
<g>
	<g>
		<text transform="matrix(0.9723 0 0 1 -387.3547 -107.9404)" style="font-family:'NexaBlack'; font-size:43.8446px;">NONXO</text>
		<text transform="matrix(0.9723 0 0 1 -387.3547 -58.9004)" style="font-family:'NexaBlack'; font-size:43.8446px;">WORKSHOP</text>
	</g>
	<line class="st3" x1="-206.2" y1="-125.1" x2="-121.4" y2="-125.1"/>
	<g>
		<g>
			<g>
				<path d="M-359.1-11.8V8.8h20.5v-20.6H-359.1z M-341.4,0.5v5.8h-14.8h-0.1V-9.5l0,0h6.5h2.6h5.7l0,0L-341.4,0.5L-341.4,0.5z"/>
				<path d="M-341.9-0.6c-1.1-0.4-1.6-0.7-2.4-1.5h2.4v-2h-7.3l0.5-0.9h6.8v-1.9h-2.5c0.4-0.5,1.1-1.5,1.4-2.1h-2.5
					c0,0-0.8,1.5-1.4,2.1h-0.9c0.3-0.8,0.6-1.2,0.7-2.1h-2.6c-0.2,0.9-0.5,1.3-0.8,2.1h-0.4c-0.4-0.8-1.3-2.1-1.3-2.1h-2.7
					c0.6,0.8,1.4,1.8,1.5,2.1h-2.2V-5h4.1l-0.5,0.9h-3.6V-2h2c-0.9,0.9-1.2,1.3-2,1.6v3.3c0.7-0.5,1.5-1.3,1.8-1.6v2
					c0,1.6,1,2.5,2.7,2.5h5.9c0.8,0,1.8-0.3,2.3-1.1c0.3-0.4,0.6-1.5,0.6-1.5c-1.2-0.4-2.4-1.6-2.4-1.6c-0.1,1.8-1.9,2.1-2.9,2.1
					h-3.1c-0.5,0-0.8-0.2-0.8-0.7V0.7h3.8v0.1c0,0.5-0.3,0.6-1,0.6c-0.5,0-1.9,0-1.9,0V3c0.2,0,1.5,0,1.7,0c1.8,0,2.5-0.2,3-0.6
					c0.4-0.4,0.5-1.2,0.5-2.5c0.7,0.8,2.2,1.8,3.3,2.3L-341.9-0.6L-341.9-0.6z M-351.4-1c0.4-0.3,0.6-0.7,0.9-1h3.5
					c0.2,0.3,0.5,0.7,0.8,1H-351.4z"/>
			</g>
			<g>
				<path d="M-370.1,2.2c2.1,1.7,3.8,2.4,7,2.9v3.5c-3.4-0.7-7.1-2.3-9.5-4.4c-2.6,2-5.8,3.7-9.6,4.4V5.2c2.8-0.5,5.1-1.6,7-3
					c-2.2-2.1-4.4-5.7-6.1-10l3.1-0.1c0.4,1.1,1.1,2.4,2.1,4s2.1,3.1,3.3,4.1c0.9-0.8,2.3-2.2,3.4-4s2-3.5,2.3-5.1h-15.2v-2.7h18.9
					c0,0-0.1,1.2-0.5,2.8c-0.5,1.8-1.3,4.2-2.4,5.9C-367.6-0.7-368.8,0.9-370.1,2.2z"/>
				<path d="M-372.6-2.7c-1.1-1.4-2.3-2.8-3.6-4.1l2.4-1.4c1.2,0.9,2.4,2.2,3.6,3.7L-372.6-2.7z"/>
			</g>
		</g>
	</g>
</g>
<path d="M56.3,141.4c-6.8,1-13.1-3.7-14.1-10.4c-1-6.8,3.7-13.1,10.4-14.1c6.8-1,13.1,3.7,14.1,10.4C67.7,134.1,63,140.4,56.3,141.4
	z"/>
<path class="st4" d="M56.3,141.4c-6.8,1-13.1-3.7-14.1-10.4c-1-6.8,3.7-13.1,10.4-14.1c6.8-1,13.1,3.7,14.1,10.4
	C67.7,134.1,63,140.4,56.3,141.4 M56.5,143.1c7.7-1.1,13-8.3,11.9-16s-8.3-13-16-11.9s-13,8.3-11.9,16
	C41.7,138.9,48.8,144.2,56.5,143.1L56.5,143.1z"/>
<g>
	<polygon points="48.6,135.3 42.3,143.8 36.3,139.3 31.9,145.4 23.4,139.1 27.9,133.1 21.8,128.6 28.1,120.1 34.1,124.6 38.6,118.6 
		47.1,124.9 42.6,130.9 	"/>
	<path class="st4" d="M42.3,143.8l-6-4.5l-4.5,6l-8.5-6.3l4.5-6l-6-4.5l6.3-8.5l6,4.5l4.5-6l8.5,6.3l-4.5,6l6,4.5L42.3,143.8
		 M42.7,146.2l1-1.4l6.3-8.5l1-1.4l-1.4-1l-4.6-3.4l3.4-4.6l1-1.4l-1.4-1l-8.5-6.3l-1.4-1l-1,1.4l-3.4,4.6l-4.6-3.4l-1.4-1l-1,1.4
		l-6.3,8.5l-1,1.4l1.4,1l4.6,3.4l-3.4,4.6l-1,1.4l1.4,1l8.5,6.3l1.4,1l1-1.4l3.4-4.6l4.6,3.4L42.7,146.2L42.7,146.2z"/>
</g>
<polygon class="st5" points="105.4,-37.3 98,-44.8 92.7,-39.5 87.4,-44.8 79.9,-37.3 85.2,-32 79.9,-26.7 87.4,-19.3 92.7,-24.6 
	98,-19.3 105.4,-26.7 100.1,-32 "/>
<g>
	<g>
		<g>
			<path d="M112.1-44.4c6.8,0,12.4,5.6,12.4,12.4s-5.6,12.4-12.4,12.4c-3.2,0-6-1.2-8.2-3.2l2.7-2.7l1.2-1.2l-1.2-1.2l-4.1-4.1
				l4.1-4.1l1.2-1.2l-1.2-1.2l-2.7-2.7C106.1-43.2,109-44.4,112.1-44.4 M112.1-45.4c-3.3,0-6.4,1.2-8.9,3.4l-0.8,0.7l0.7,0.7
				l2.7,2.7l0.5,0.5l-0.5,0.5l-4.1,4.1l-0.7,0.7l0.7,0.7l4.1,4.1l0.5,0.5l-0.5,0.5l-2.7,2.7l-0.7,0.7l0.8,0.7
				c2.5,2.2,5.6,3.4,8.9,3.4c7.4,0,13.4-6,13.4-13.4C125.5-39.4,119.5-45.4,112.1-45.4L112.1-45.4z"/>
		</g>
	</g>
	<g>
		<g>
			<path d="M102.7-40l2.7,2.7l-5.3,5.3l5.3,5.3l-2.7,2.7c-1.8-2.2-3-5-3-8S100.9-37.9,102.7-40 M102.7-41.5l-0.7,0.8
				c-2.1,2.4-3.2,5.5-3.2,8.7s1.1,6.2,3.2,8.7l0.7,0.8l0.8-0.8l2.7-2.7l0.7-0.7l-0.7-0.7l-4.6-4.6l4.6-4.6l0.7-0.7l-0.7-0.7
				l-2.7-2.7L102.7-41.5L102.7-41.5z"/>
		</g>
	</g>
</g>
<g>
	<path d="M71.2-36.5c-2.2,0-4.2,0.9-5.7,2.2l1.9,1.9l0.9,0.9l-0.9,0.9l-2.8,2.7l2.8,2.8l0.9,0.9l-0.9,0.9l-1.9,1.9
		c1.5,1.4,3.6,2.2,5.7,2.2c4.8,0,8.7-3.9,8.7-8.7S75.9-36.5,71.2-36.5z"/>
</g>
<g>
	<path d="M-22.4-16.9c-2.2,0-4.2,0.9-5.7,2.2l1.9,1.9l0.9,0.9l-0.9,0.9L-29-8.3l2.8,2.8l0.9,0.9l-0.9,0.9l-1.9,1.9
		c1.5,1.4,3.6,2.2,5.7,2.2c4.8,0,8.7-3.9,8.7-8.7S-17.7-16.9-22.4-16.9z"/>
</g>
<g>
	<polygon points="47.9,-24.2 51.6,-27.9 47.9,-31.6 54,-37.6 57.6,-34 61.3,-37.6 67.4,-31.6 63.7,-27.9 67.4,-24.2 61.3,-18.2 
		57.6,-21.8 54,-18.2 	"/>
	<g>
		<path class="st4" d="M61.3-36.8l3.2,3.2l1.9,1.9L62.7-28l3.7,3.7l-1.8,2L61.3-19l-3.7-3.7L54-19l-5.2-5.2l3.7-3.7l-3.7-3.7
			l5.2-5.2l3.7,3.7L61.3-36.8 M54-38.5l-0.9,0.9l-5.2,5.2L47-31.5l0.9,0.9l2.8,2.8L47.9-25L47-24.1l0.9,0.9l5.2,5.2l0.9,0.9l0.9-0.9
			l2.7-3l2.8,2.8l0.9,0.9l0.9-0.9l3.2-3.2l1.9-1.9l0.9-0.9l-0.9-0.9l-2.7-2.8l2.8-2.8l0.9-0.9l-0.9-0.9l-1.9-1.9l-3.2-3.2l-0.9-0.9
			l-0.9,0.9l-2.9,2.8l-2.8-2.8L54-38.5L54-38.5z"/>
	</g>
</g>
<g>
	<path class="st6" d="M298.5,185.4c-4.1,0-7.5,3.4-7.5,7.5s3.4,7.5,7.5,7.5s7.5-3.4,7.5-7.5C306,188.8,302.7,185.4,298.5,185.4z"/>
</g>
<g>
	<path class="st6" d="M283.5,186c-1,0-2.5-0.4-3.3,0c-1.2,0.6-3,2.4-3.6,3.6c-0.4,0.8,0,2.3,0,3.3s-0.4,2.5,0,3.3
		c0.6,1.2,2.4,3,3.6,3.6c0.8,0.4,2.3,0,3.3,0s2.5,0.4,3.3,0c1.2-0.6,3-2.4,3.6-3.6c0.4-0.8,0-2.3,0-3.3s0.4-2.5,0-3.3
		c-0.6-1.2-2.4-3-3.6-3.6C286,185.6,284.4,186,283.5,186z"/>
</g>
<g>
	<path class="st6" d="M298.9,170.6c-1,0-2.5-0.4-3.3,0c-1.2,0.6-3,2.4-3.6,3.6c-0.4,0.8,0,2.3,0,3.3s-0.4,2.5,0,3.3
		c0.6,1.2,2.4,3,3.6,3.6c0.8,0.4,2.3,0,3.3,0s2.5,0.4,3.3,0c1.2-0.6,3-2.4,3.6-3.6c0.4-0.8,0-2.3,0-3.3s0.4-2.5,0-3.3
		c-0.6-1.2-2.4-3-3.6-3.6C301.5,170.2,299.9,170.6,298.9,170.6z"/>
</g>
<g>
	<path class="st6" d="M268.2,186.6c-0.7,0-2.7-1.1-3.3-0.8c-0.9,0.4-3.4,2.9-3.8,3.8c-0.3,0.6,0.8,2.6,0.8,3.3s-1.1,2.7-0.8,3.3
		c0.4,0.9,2.9,3.4,3.8,3.8c0.6,0.3,2.6-0.8,3.3-0.8c0.7,0,2.7,1.1,3.3,0.8c0.9-0.4,3.4-2.9,3.8-3.8c0.3-0.6-0.8-2.6-0.8-3.3
		s1.1-2.7,0.8-3.3c-0.4-0.9-2.9-3.4-3.8-3.8C270.9,185.5,268.9,186.6,268.2,186.6z"/>
</g>
<g>
	<path class="st6" d="M283.5,170.9c-0.7,0-2.7-1.1-3.3-0.8c-0.9,0.4-3.4,2.9-3.8,3.8c-0.3,0.6,0.8,2.6,0.8,3.3s-1.1,2.7-0.8,3.3
		c0.4,0.9,2.9,3.4,3.8,3.8c0.6,0.3,2.6-0.8,3.3-0.8c0.7,0,2.7,1.1,3.3,0.8c0.9-0.4,3.4-2.9,3.8-3.8c0.3-0.6-0.8-2.6-0.8-3.3
		s1.1-2.7,0.8-3.3c-0.4-0.9-2.9-3.4-3.8-3.8C286.1,169.8,284.2,170.9,283.5,170.9z"/>
</g>
<g>
	<path class="st6" d="M298.9,155.6c-0.7,0-2.7-1.1-3.3-0.8c-0.9,0.4-3.4,2.9-3.8,3.8c-0.3,0.6,0.8,2.6,0.8,3.3s-1.1,2.7-0.8,3.3
		c0.4,0.9,2.9,3.4,3.8,3.8c0.6,0.3,2.6-0.8,3.3-0.8c0.7,0,2.7,1.1,3.3,0.8c0.9-0.4,3.4-2.9,3.8-3.8c0.3-0.6-0.8-2.6-0.8-3.3
		s1.1-2.7,0.8-3.3c-0.4-0.9-2.9-3.4-3.8-3.8C301.6,154.5,299.7,155.6,298.9,155.6z"/>
</g>
<g>
	<path class="st6" d="M252.8,186.9c-0.5,0-2.8-1.8-3.3-1.6c-0.6,0.3-3.8,3.5-4,4c-0.2,0.4,1.6,2.8,1.6,3.3s-1.8,2.8-1.6,3.3
		c0.3,0.6,3.5,3.8,4,4c0.4,0.2,2.8-1.6,3.3-1.6s2.8,1.8,3.3,1.6c0.6-0.3,3.8-3.5,4-4c0.2-0.4-1.6-2.8-1.6-3.3s1.8-2.8,1.6-3.3
		c-0.3-0.6-3.5-3.8-4-4C255.6,185.1,253.3,186.9,252.8,186.9z"/>
</g>
<g>
	<path class="st6" d="M268.2,171.5c-0.5,0-2.8-1.8-3.3-1.6c-0.6,0.3-3.8,3.5-4,4c-0.2,0.4,1.6,2.8,1.6,3.3s-1.8,2.8-1.6,3.3
		c0.3,0.6,3.5,3.8,4,4c0.4,0.2,2.8-1.6,3.3-1.6s2.8,1.8,3.3,1.6c0.6-0.3,3.8-3.5,4-4c0.2-0.4-1.6-2.8-1.6-3.3s1.8-2.8,1.6-3.3
		c-0.3-0.6-3.5-3.8-4-4S268.7,171.5,268.2,171.5z"/>
</g>
<g>
	<path class="st6" d="M283.5,156.1c-0.5,0-2.8-1.8-3.3-1.6c-0.6,0.3-3.8,3.5-4,4c-0.2,0.4,1.6,2.8,1.6,3.3s-1.8,2.8-1.6,3.3
		c0.3,0.6,3.5,3.8,4,4c0.4,0.2,2.8-1.6,3.3-1.6s2.8,1.8,3.3,1.6c0.6-0.3,3.8-3.5,4-4c0.2-0.4-1.6-2.8-1.6-3.3s1.8-2.8,1.6-3.3
		c-0.3-0.6-3.5-3.8-4-4S283.9,156.1,283.5,156.1z"/>
</g>
<g>
	<path class="st6" d="M268.2,157c-0.2,0-3-2.5-3.2-2.4c-0.3,0.1-4.1,4-4.3,4.3c-0.1,0.2,2.4,3,2.4,3.2s-2.5,3-2.4,3.2
		c0.1,0.3,4,4.1,4.3,4.3c0.2,0.1,3-2.4,3.2-2.4s3,2.5,3.2,2.4c0.3-0.1,4.1-4,4.3-4.3c0.1-0.2-2.4-3-2.4-3.2s2.5-3,2.4-3.2
		c-0.1-0.3-4-4.1-4.3-4.3C271.2,154.5,268.4,157,268.2,157z"/>
</g>
<g>
	<path class="st6" d="M252.8,172.4c-0.2,0-3-2.5-3.2-2.4c-0.3,0.1-4.1,4-4.3,4.3c-0.1,0.2,2.4,3,2.4,3.2s-2.5,3-2.4,3.2
		c0.1,0.3,4,4.1,4.3,4.3c0.2,0.1,3-2.4,3.2-2.4s3,2.5,3.2,2.4c0.3-0.1,4.1-4,4.3-4.3c0.1-0.2-2.4-3-2.4-3.2s2.5-3,2.4-3.2
		c-0.1-0.3-4-4.1-4.3-4.3C255.8,169.9,253,172.4,252.8,172.4z"/>
</g>
<g>
	<polygon class="st6" points="260.5,158.9 256,154.4 252.8,157.6 249.6,154.4 245.1,158.9 248.3,162.1 245.1,165.3 249.6,169.8 
		252.8,166.6 256,169.8 260.5,165.3 257.3,162.1 	"/>
</g>
<polygon class="st7" points="188.4,-54.3 180.2,-62.5 174.3,-56.7 168.5,-62.5 160.3,-54.3 166.2,-48.5 160.3,-42.7 168.5,-34.5 
	174.3,-40.3 180.2,-34.5 188.4,-42.7 182.5,-48.5 "/>
<g>
	<path class="st7" d="M195.7-33.9c-8,0-14.6-6.5-14.6-14.6s6.5-14.6,14.6-14.6c8,0,14.6,6.5,14.6,14.6S203.8-33.9,195.7-33.9z"/>
	<path class="st4" d="M195.7-62.1c7.5,0,13.6,6.1,13.6,13.6s-6.1,13.6-13.6,13.6s-13.6-6.1-13.6-13.6S188.2-62.1,195.7-62.1
		 M195.7-64c-8.6,0-15.5,7-15.5,15.5s7,15.5,15.5,15.5c8.6,0,15.5-7,15.5-15.5S204.3-64,195.7-64L195.7-64z"/>
</g>
<g>
	<g>
		<g>
			<g>
				<path class="st7" d="M138.3,136.7v15.9h15.8v-15.9H138.3z M151.9,146.2v4.4h-11.5h-0.1v-12.1l0,0h5h2h4.4l0,0v7.7L151.9,146.2
					L151.9,146.2z"/>
				<path class="st7" d="M151.5,145.4c-0.9-0.3-1.2-0.5-1.9-1.2h1.9v-1.6h-5.6l0.4-0.7h5.3v-1.4h-1.9c0.3-0.4,0.8-1.2,1.1-1.6h-2
					c0,0-0.6,1.1-1.1,1.6H147c0.2-0.6,0.4-1,0.6-1.6h-2c-0.2,0.7-0.4,1-0.7,1.6h-0.3c-0.3-0.6-1-1.6-1-1.6h-2.1
					c0.5,0.6,1.1,1.4,1.2,1.6H141v1.4h3.2l-0.4,0.7H141v1.6h1.6c-0.7,0.7-0.9,1-1.6,1.3v2.5c0.5-0.4,1.1-1,1.4-1.3v1.6
					c0,1.2,0.7,1.9,2.1,1.9h4.5c0.6,0,1.4-0.3,1.8-0.8c0.2-0.3,0.5-1.1,0.5-1.1c-0.9-0.3-1.8-1.2-1.8-1.2c-0.1,1.4-1.4,1.6-2.3,1.6
					h-2.4c-0.4,0-0.6-0.2-0.6-0.6v-1.7h3v0.1c0,0.4-0.3,0.5-0.8,0.5c-0.4,0-1.5,0-1.5,0v1.2c0.2,0,1.1,0,1.3,0c1.4,0,2-0.1,2.3-0.4
					c0.3-0.3,0.4-0.9,0.4-1.9c0.6,0.6,1.7,1.4,2.5,1.8v-2.3L151.5,145.4L151.5,145.4z M144.2,145c0.3-0.2,0.5-0.5,0.7-0.8h2.7
					c0.2,0.3,0.4,0.5,0.6,0.8H144.2z"/>
			</g>
		</g>
		<g>
			<g>
				<path class="st7" d="M129.6,147.6c1.6,1.3,2.9,1.8,5.4,2.2v2.7c-2.6-0.5-5.5-1.8-7.4-3.4c-2,1.6-4.4,2.8-7.4,3.4v-2.6
					c2.2-0.4,3.9-1.2,5.4-2.3c-1.7-1.6-3.4-4.4-4.7-7.7h2.4c0.3,0.8,0.8,1.9,1.7,3.1c0.8,1.3,1.7,2.4,2.6,3.2
					c0.7-0.6,1.8-1.7,2.6-3.1c0.8-1.4,1.6-2.7,1.8-4h-11.7V137h14.6c0,0-0.1,0.9-0.4,2.1c-0.4,1.4-1,3.3-1.8,4.6
					C131.5,145.5,130.6,146.7,129.6,147.6z"/>
				<path class="st7" d="M127.6,143.9c-0.8-1.1-1.8-2.2-2.8-3.2l1.9-1.1c0.9,0.7,1.8,1.7,2.8,2.8L127.6,143.9z"/>
			</g>
		</g>
	</g>
	<g>
		<g>
			<path class="st7" d="M18.7,145.3c-0.1-1.9-0.1-2.7-0.1-3.3v-5.6h4.5L23,152.7h-3.8l-6.5-8.8l0.1,3.5v5.2H8.3l0.1-16.2h3.8
				L18.7,145.3z"/>
			<path class="st7" d="M35,153.2c-5.2,0-8.8-3.1-8.7-8.6c0-5.3,3.6-8.5,8.8-8.5s8.8,3.1,8.7,8.6C43.8,150.1,40.2,153.2,35,153.2z
				 M35,140.1c-2.5,0-4.3,1.9-4.3,4.6c0,2.7,1.8,4.6,4.3,4.6c2.6,0,4.3-1.9,4.3-4.6C39.3,141.9,37.6,140.1,35,140.1z"/>
			<path class="st7" d="M57.4,145.5c-0.1-1.9-0.1-2.7-0.1-3.3v-5.6h4.5l-0.1,16.2h-3.8l-6.5-8.8l0.1,3.6v5.2H47l0.1-16.2h3.8
				L57.4,145.5z"/>
			<path class="st7" d="M72.4,142.1l1.5-2.9l1.5-2.4h4.8v0.3l-5,7.8l5.3,8v0.2h-4.8l-1.5-2.3l-1.7-3l-1.8,3.1l-1.5,2.2h-4.8v-0.2
				l5.3-8l-4.9-7.8v-0.3h4.8l1.5,2.5L72.4,142.1z"/>
			<path class="st7" d="M90.1,153.4c-5.2,0-8.8-3.1-8.7-8.6c0-5.3,3.6-8.5,8.8-8.5c5.2,0,8.8,3.1,8.7,8.6
				C98.9,150.4,95.3,153.4,90.1,153.4z M90.2,140.3c-2.5,0-4.3,1.9-4.3,4.6c0,2.7,1.8,4.6,4.3,4.6c2.6,0,4.3-1.9,4.3-4.6
				C94.5,142.1,92.8,140.3,90.2,140.3z"/>
			<path class="st7" d="M24.9,175h-3.6l-2.8-7.8l-2.7,7.8h-3.6l-5.8-16.2h4.9l2,5.7c0.4,1.2,0.6,2.6,0.8,3.8l2.9-9.5h3.1l3,9.5
				c0.2-1.2,0.5-2.5,0.9-3.9l1.9-5.6h4.9L24.9,175z"/>
			<path class="st7" d="M40.5,175.5c-5.2,0-8.8-3.1-8.7-8.6c0-5.3,3.6-8.5,8.8-8.5s8.8,3.1,8.7,8.6
				C49.3,172.5,45.7,175.5,40.5,175.5z M40.6,162.4c-2.5,0-4.3,1.9-4.3,4.6c0,2.7,1.8,4.6,4.3,4.6c2.6,0,4.3-1.9,4.3-4.6
				C44.9,164.2,43.2,162.4,40.6,162.4z"/>
			<path class="st7" d="M67.1,175.2h-4.9l-3.7-5.3h-1.6v5.3h-4.5l0.1-16.2h7.7c4,0,6.1,2.7,6.1,5.6c0,2-0.7,3.7-3.4,4.9L67,175
				L67.1,175.2z M57,162.6v3.9h3.3c1.2,0,1.7-0.9,1.7-1.9s-0.6-2-1.7-2H57z"/>
			<path class="st7" d="M84,159.3l-6.4,7.7c2.2,2.5,4.7,5.5,6.9,8v0.3H79l-4.5-5.4v5.4H70l0.1-16.2h4.5v5.3c1.4-1.7,2.8-3.6,4.2-5.3
				h5.3L84,159.3z"/>
			<path class="st7" d="M96.1,163.6c-1.1-0.8-2.3-1.1-3.7-1.1c-1.1,0-2.1,0.3-2.1,1.2c0,1.1,1.1,1.3,2.6,1.4
				c3.1,0.4,6.4,1.7,6.4,5.4s-3.4,5.3-6.9,5.3c-2.8,0-4.9-0.5-7-2.9l2.5-2.9c1.5,1.6,3.3,1.8,4.6,1.9c1.5,0,2.5-0.5,2.5-1.4
				c0-0.8-0.9-1.3-2.6-1.5c-3.4-0.3-6.4-1.3-6.4-5.3c0-3.4,3.3-4.9,6.6-4.9c2.4,0,4.2,0.6,5.9,2L96.1,163.6z"/>
			<path class="st7" d="M112.4,175.4v-6.1h-5.7v6.1h-4.5l0.1-16.2h4.5v6.2h5.7v-6.2h4.4l-0.1,16.2H112.4z"/>
			<path class="st7" d="M128.8,175.9c-5.2,0-8.8-3.1-8.7-8.6c0-5.3,3.6-8.5,8.8-8.5c5.2,0,8.8,3.1,8.7,8.6
				C137.6,172.8,134,175.9,128.8,175.9z M128.8,162.8c-2.5,0-4.3,1.9-4.3,4.6c0,2.7,1.8,4.6,4.3,4.6c2.6,0,4.3-1.9,4.3-4.6
				C133.1,164.6,131.5,162.8,128.8,162.8z"/>
			<path class="st7" d="M145.2,171.2v4.4h-4.5l0.1-16.2h7.7c4.2,0,6.3,2.8,6.3,5.9c0,3.3-2.1,5.9-6.4,5.9L145.2,171.2z M145.3,167.3
				h3.2c1.2,0,1.9-0.9,1.9-2s-0.6-2-1.9-2h-3.2V167.3z"/>
		</g>
	</g>
</g>
<g>
	<g>
		<g>
			<path class="st4" d="M314,52.5v15.9h15.8V52.5H314z M327.6,62v4.4h-11.5H316V54.3l0,0h5h2h4.4l0,0V62H327.6z"/>
			<path class="st4" d="M327.2,61.2c-0.9-0.3-1.2-0.5-1.9-1.2h1.9v-1.6h-5.6l0.4-0.7h5.3v-1.4h-1.9c0.3-0.4,0.8-1.2,1.1-1.6h-2
				c0,0-0.6,1.1-1.1,1.6h-0.7c0.2-0.6,0.4-1,0.6-1.6h-2c-0.2,0.7-0.4,1-0.7,1.6h-0.3c-0.3-0.6-1-1.6-1-1.6h-2.1
				c0.5,0.6,1.1,1.4,1.2,1.6h-1.7v1.4h3.2l-0.4,0.7h-2.8V60h1.6c-0.7,0.7-0.9,1-1.6,1.3v2.5c0.5-0.4,1.1-1,1.4-1.3v1.6
				c0,1.2,0.7,1.9,2.1,1.9h4.5c0.6,0,1.4-0.3,1.8-0.8c0.2-0.3,0.5-1.1,0.5-1.1c-0.9-0.3-1.8-1.2-1.8-1.2c-0.1,1.4-1.4,1.6-2.3,1.6
				h-2.4c-0.4,0-0.6-0.2-0.6-0.6v-1.7h3v0.1c0,0.4-0.3,0.5-0.8,0.5c-0.4,0-1.5,0-1.5,0V64c0.2,0,1.1,0,1.3,0c1.4,0,2-0.1,2.3-0.4
				c0.3-0.3,0.4-0.9,0.4-1.9c0.6,0.6,1.7,1.4,2.5,1.8v-2.3C327.1,61.2,327.2,61.2,327.2,61.2z M319.9,60.8c0.3-0.2,0.5-0.5,0.7-0.8
				h2.7c0.2,0.3,0.4,0.5,0.6,0.8H319.9z"/>
		</g>
	</g>
	<g>
		<g>
			<path class="st4" d="M305.3,63.4c1.6,1.3,2.9,1.8,5.4,2.2v2.7c-2.6-0.5-5.5-1.8-7.4-3.4c-2,1.6-4.4,2.8-7.4,3.4v-2.6
				c2.2-0.4,3.9-1.2,5.4-2.3c-1.7-1.6-3.4-4.4-4.7-7.7h2.4c0.3,0.8,0.8,1.9,1.7,3.1c0.8,1.3,1.7,2.4,2.6,3.2
				c0.7-0.6,1.8-1.7,2.6-3.1c0.8-1.4,1.6-2.7,1.8-4H296v-2.1h14.6c0,0-0.1,0.9-0.4,2.1c-0.4,1.4-1,3.3-1.8,4.6
				C307.2,61.3,306.3,62.5,305.3,63.4z"/>
			<path class="st4" d="M303.3,59.7c-0.8-1.1-1.8-2.2-2.8-3.2l1.9-1.1c0.9,0.7,1.8,1.7,2.8,2.8L303.3,59.7z"/>
		</g>
	</g>
</g>
<g>
	<g>
		<path class="st4" d="M194.4,61.1c-0.1-1.9-0.1-2.7-0.1-3.3v-5.6h4.5l-0.1,16.3h-3.8l-6.5-8.8l0.1,3.5v5.2H184l0.1-16.2h3.8
			L194.4,61.1z"/>
		<path class="st4" d="M210.7,69c-5.2,0-8.8-3.1-8.7-8.6c0-5.3,3.6-8.5,8.8-8.5s8.8,3.1,8.7,8.6C219.5,65.9,215.9,69,210.7,69z
			 M210.7,55.9c-2.5,0-4.3,1.9-4.3,4.6c0,2.7,1.8,4.6,4.3,4.6c2.6,0,4.3-1.9,4.3-4.6C215,57.7,213.3,55.9,210.7,55.9z"/>
		<path class="st4" d="M233.1,61.3c-0.1-1.9-0.1-2.7-0.1-3.3v-5.6h4.5l-0.1,16.2h-3.8l-6.5-8.8l0.1,3.6v5.2h-4.5l0.1-16.2h3.8
			L233.1,61.3z"/>
		<path class="st4" d="M248.1,57.9l1.5-2.9l1.5-2.4h4.8v0.3l-5,7.8l5.3,8v0.2h-4.8l-1.5-2.3l-1.7-3l-1.8,3.1l-1.5,2.2h-4.8v-0.2
			l5.3-8l-4.9-7.8v-0.3h4.8l1.5,2.5L248.1,57.9z"/>
		<path class="st4" d="M265.8,69.2c-5.2,0-8.8-3.1-8.7-8.6c0-5.3,3.6-8.5,8.8-8.5c5.2,0,8.8,3.1,8.7,8.6
			C274.6,66.2,271,69.2,265.8,69.2z M265.9,56.1c-2.5,0-4.3,1.9-4.3,4.6c0,2.7,1.8,4.6,4.3,4.6c2.6,0,4.3-1.9,4.3-4.6
			C270.2,57.9,268.5,56.1,265.9,56.1z"/>
		<path class="st4" d="M200.6,90.8H197l-2.8-7.8l-2.7,7.8h-3.6l-5.8-16.2h4.9l2,5.7c0.4,1.2,0.6,2.6,0.8,3.8l2.9-9.5h3.1l3,9.5
			c0.2-1.2,0.5-2.5,0.9-3.9l1.9-5.6h4.9L200.6,90.8z"/>
		<path class="st4" d="M216.2,91.3c-5.2,0-8.8-3.1-8.7-8.6c0-5.3,3.6-8.5,8.8-8.5s8.8,3.1,8.7,8.6C225,88.3,221.4,91.3,216.2,91.3z
			 M216.3,78.2c-2.5,0-4.3,1.9-4.3,4.6s1.8,4.6,4.3,4.6c2.6,0,4.3-1.9,4.3-4.6C220.6,80,218.9,78.2,216.3,78.2z"/>
		<path class="st4" d="M242.8,91h-4.9l-3.7-5.3h-1.6V91h-4.5l0.1-16.2h7.7c4,0,6.1,2.7,6.1,5.6c0,2-0.7,3.7-3.4,4.9l4.1,5.5
			L242.8,91z M232.7,78.4v3.9h3.3c1.2,0,1.7-0.9,1.7-1.9s-0.6-2-1.7-2H232.7z"/>
		<path class="st4" d="M259.7,75.1l-6.4,7.7c2.2,2.5,4.7,5.5,6.9,8v0.3h-5.5l-4.5-5.4v5.4h-4.5l0.1-16.2h4.5v5.3
			c1.4-1.7,2.8-3.6,4.2-5.3h5.3L259.7,75.1z"/>
		<path class="st4" d="M271.8,79.4c-1.1-0.8-2.3-1.1-3.7-1.1c-1.1,0-2.1,0.3-2.1,1.2c0,1.1,1.1,1.3,2.6,1.4c3.1,0.4,6.4,1.7,6.4,5.4
			s-3.4,5.3-6.9,5.3c-2.8,0-4.9-0.5-7-2.9l2.5-2.9c1.5,1.6,3.3,1.8,4.6,1.9c1.5,0,2.5-0.5,2.5-1.4c0-0.8-0.9-1.3-2.6-1.5
			c-3.4-0.3-6.4-1.3-6.4-5.3c0-3.4,3.3-4.9,6.6-4.9c2.4,0,4.2,0.6,5.9,2L271.8,79.4z"/>
		<path class="st4" d="M288.1,91.2v-6.1h-5.7v6.1h-4.5L278,75h4.5v6.2h5.7V75h4.4l-0.1,16.2H288.1z"/>
		<path class="st4" d="M304.5,91.7c-5.2,0-8.8-3.1-8.7-8.6c0-5.3,3.6-8.5,8.8-8.5c5.2,0,8.8,3.1,8.7,8.6
			C313.3,88.6,309.7,91.7,304.5,91.7z M304.5,78.6c-2.5,0-4.3,1.9-4.3,4.6s1.8,4.6,4.3,4.6c2.6,0,4.3-1.9,4.3-4.6
			C308.8,80.4,307.2,78.6,304.5,78.6z"/>
		<path class="st4" d="M320.9,87v4.4h-4.5l0.1-16.2h7.7c4.2,0,6.3,2.8,6.3,5.9c0,3.3-2.1,5.9-6.4,5.9H320.9z M321,83.1h3.2
			c1.2,0,1.9-0.9,1.9-2s-0.6-2-1.9-2H321V83.1z"/>
	</g>
</g>
<g>
	<g>
		<g>
			<path d="M227.4,130.5V142h11.5v-11.5H227.4z M237.3,137.4v3.2H229h-0.1v-8.8l0,0h3.6h1.5h3.2l0,0L237.3,137.4L237.3,137.4z"/>
			<path d="M237.1,136.8c-0.6-0.2-0.9-0.4-1.3-0.8h1.3v-1.2H233l0.3-0.5h3.8v-1.1h-1.4c0.2-0.3,0.6-0.8,0.8-1.2H235
				c0,0-0.4,0.8-0.8,1.2h-0.5c0.2-0.4,0.3-0.7,0.4-1.2h-1.5c-0.1,0.5-0.3,0.7-0.4,1.2H232c-0.2-0.4-0.7-1.2-0.7-1.2h-1.5
				c0.4,0.4,0.8,1,0.8,1.2h-1.2v1.1h2.3l-0.3,0.5h-2v1.2h1.1c-0.5,0.5-0.7,0.7-1.1,0.9v1.8c0.4-0.3,0.8-0.7,1-0.9v1.1
				c0,0.9,0.6,1.4,1.5,1.4h3.3c0.4,0,1-0.2,1.3-0.6c0.2-0.2,0.3-0.8,0.3-0.8c-0.7-0.2-1.3-0.9-1.3-0.9c0,1-1,1.2-1.6,1.2h-1.7
				c-0.3,0-0.4-0.1-0.4-0.4v-1.3h2.2v0.1c0,0.3-0.2,0.3-0.6,0.3c-0.3,0-1.1,0-1.1,0v0.9c0.1,0,0.8,0,1,0c1,0,1.4-0.1,1.7-0.3
				c0.2-0.2,0.3-0.6,0.3-1.4c0.4,0.4,1.2,1,1.8,1.3L237.1,136.8L237.1,136.8z M231.7,136.5c0.2-0.2,0.4-0.4,0.5-0.6h2
				c0.1,0.2,0.3,0.4,0.4,0.6H231.7z"/>
		</g>
		<g>
			<path d="M234.8,124.4c1.2,0.9,2.1,1.3,3.9,1.6v2c-1.9-0.4-4-1.3-5.3-2.5c-1.5,1.1-3.2,2.1-5.4,2.5v-1.9c1.6-0.3,2.9-0.9,3.9-1.6
				c-1.2-1.2-2.5-3.2-3.4-5.6l1.7-0.1c0.2,0.6,0.6,1.3,1.2,2.2c0.6,0.9,1.2,1.7,1.8,2.3c0.5-0.4,1.3-1.2,1.9-2.2
				c0.6-1,1.1-2,1.3-2.9h-8.5v-1.5h10.7c0,0-0.1,0.7-0.3,1.6c-0.3,1-0.7,2.4-1.3,3.3C236.2,122.9,235.5,123.8,234.8,124.4z"/>
			<path d="M233.4,121.7c-0.6-0.8-1.3-1.6-2-2.3l1.3-0.8c0.7,0.5,1.3,1.2,2,2.1L233.4,121.7z"/>
		</g>
	</g>
</g>
<path class="st8" d="M228.1,117.4h9.5c0,0-0.5,4.3-3.9,7c-3.3,2.6-5.5,2.7-5.5,2.7"/>
<path class="st8" d="M229.5,118.9c0,0,0.9,3.6,3.9,5.7c2.9,2.2,5.3,2.4,5.3,2.4"/>
<rect x="228.1" y="131.2" class="st8" width="10.1" height="10.1"/>
<line class="st8" x1="229.3" y1="133.7" x2="237.1" y2="133.7"/>
<line class="st8" x1="229.3" y1="135.3" x2="237.1" y2="135.3"/>
<line class="st8" x1="230.5" y1="132" x2="231.5" y2="133.7"/>
<line class="st8" x1="235.7" y1="132" x2="234.8" y2="133.7"/>
<path class="st8" d="M233.3,132c0,0-0.7,2.4-1.5,3.3c-0.9,1-2.4,2.4-2.4,2.4"/>
<polyline class="st8" points="232.3,138.3 234.5,138.3 234.5,136.9 231,136.9 231,139.7 235.1,139.7 236.2,138.6 "/>
<path class="st8" d="M234.8,135.3c0,0,0.7,1.3,1.3,1.8s0.8,0.5,0.8,0.5"/>
<path class="st8" d="M232,119.1c0,0,1.6,1.5,2,2.2"/>
<path class="st9" d="M250.6,211h31.3c0,0-1.6,14.2-13,23.2c-10.8,8.6-18.3,9-18.3,9"/>
<path class="st9" d="M255.4,215.7c0,0,3.1,11.8,12.8,19c9.7,7.2,17.7,8,17.7,8"/>
<rect x="250.6" y="256.5" class="st9" width="33.3" height="33.3"/>
<line class="st9" x1="254.7" y1="264.7" x2="280.3" y2="264.7"/>
<line class="st9" x1="254.7" y1="270.2" x2="280.3" y2="270.2"/>
<line class="st9" x1="258.7" y1="259.2" x2="261.8" y2="264.7"/>
<line class="st9" x1="275.9" y1="259.2" x2="272.9" y2="264.7"/>
<path class="st9" d="M267.8,259.2c0,0-2.2,7.8-5.1,10.9c-2.8,3.2-8,7.9-8,7.9"/>
<polyline class="st9" points="264.6,280 271.8,280 271.8,275.4 260.2,275.4 260.2,284.6 275.9,284.6 277.5,280.9 "/>
<polyline class="st9" points="272.7,270.2 275.9,277.7 279.8,277.7 "/>
<path class="st9" d="M263.5,216.5c0,0,5.3,5,6.6,7.3"/>
<g>
	<g>
		<g>
			<path class="st7" d="M195.3,303.3v15.9h15.8v-15.9H195.3z M208.9,312.8v4.4h-11.5h-0.1v-12.1l0,0h5h2h4.4l0,0v7.7H208.9z"/>
			<path class="st7" d="M208.5,312c-0.9-0.3-1.2-0.5-1.9-1.2h1.9v-1.6h-5.6l0.4-0.7h5.3v-1.4h-1.9c0.3-0.4,0.8-1.2,1.1-1.6h-2
				c0,0-0.6,1.1-1.1,1.6H204c0.2-0.6,0.4-1,0.6-1.6h-2c-0.2,0.7-0.4,1-0.7,1.6h-0.3c-0.3-0.6-1-1.6-1-1.6h-2.1
				c0.5,0.6,1.1,1.4,1.2,1.6H198v1.4h3.2l-0.4,0.7H198v1.6h1.6c-0.7,0.7-0.9,1-1.6,1.3v2.5c0.5-0.4,1.1-1,1.4-1.3v1.6
				c0,1.2,0.7,1.9,2.1,1.9h4.5c0.6,0,1.4-0.3,1.8-0.8c0.2-0.3,0.5-1.1,0.5-1.1c-0.9-0.3-1.8-1.2-1.8-1.2c-0.1,1.4-1.4,1.6-2.3,1.6
				h-2.4c-0.4,0-0.6-0.2-0.6-0.6V313h3v0.1c0,0.4-0.3,0.5-0.8,0.5c-0.4,0-1.5,0-1.5,0v1.2c0.2,0,1.1,0,1.3,0c1.4,0,2-0.1,2.3-0.4
				s0.4-0.9,0.4-1.9c0.6,0.6,1.7,1.4,2.5,1.8V312H208.5z M201.2,311.6c0.3-0.2,0.5-0.5,0.7-0.8h2.7c0.2,0.3,0.4,0.5,0.6,0.8H201.2z"
				/>
		</g>
	</g>
	<g>
		<g>
			<path class="st7" d="M186.6,314.2c1.6,1.3,2.9,1.8,5.4,2.2v2.7c-2.6-0.5-5.5-1.8-7.4-3.4c-2,1.6-4.4,2.8-7.4,3.4v-2.6
				c2.2-0.4,3.9-1.2,5.4-2.3c-1.7-1.6-3.4-4.4-4.7-7.7h2.4c0.3,0.8,0.8,1.9,1.7,3.1c0.8,1.3,1.7,2.4,2.6,3.2
				c0.7-0.6,1.8-1.7,2.6-3.1s1.6-2.7,1.8-4h-11.7v-2.1h14.6c0,0-0.1,0.9-0.4,2.1c-0.4,1.4-1,3.3-1.8,4.6
				C188.5,312.1,187.6,313.3,186.6,314.2z"/>
			<path class="st7" d="M184.6,310.5c-0.8-1.1-1.8-2.2-2.8-3.2l1.9-1.1c0.9,0.7,1.8,1.7,2.8,2.8L184.6,310.5z"/>
		</g>
	</g>
</g>
<g>
	<g>
		<path class="st7" d="M75.7,311.9c-0.1-1.9-0.1-2.7-0.1-3.3V303h4.5L80,319.3h-3.8l-6.5-8.8l0.1,3.5v5.2h-4.5l0.1-16.2h3.8
			L75.7,311.9z"/>
		<path class="st7" d="M92,319.8c-5.2,0-8.8-3.1-8.7-8.6c0-5.3,3.6-8.5,8.8-8.5c5.2,0,8.8,3.1,8.7,8.6
			C100.8,316.7,97.2,319.8,92,319.8z M92,306.7c-2.5,0-4.3,1.9-4.3,4.6s1.8,4.6,4.3,4.6c2.6,0,4.3-1.9,4.3-4.6
			C96.3,308.5,94.6,306.7,92,306.7z"/>
		<path class="st7" d="M114.4,312.1c-0.1-1.9-0.1-2.7-0.1-3.3v-5.6h4.5l-0.1,16.2h-3.8l-6.5-8.8l0.1,3.6v5.2H104l0.1-16.2h3.8
			L114.4,312.1z"/>
		<path class="st7" d="M129.4,308.7l1.5-2.9l1.5-2.4h4.8v0.3l-5,7.8l5.3,8v0.2h-4.8l-1.5-2.3l-1.7-3l-1.8,3.1l-1.5,2.2h-4.8v-0.2
			l5.3-8l-4.9-7.8v-0.3h4.8l1.5,2.5L129.4,308.7z"/>
		<path class="st7" d="M147.1,320c-5.2,0-8.8-3.1-8.7-8.6c0-5.3,3.6-8.5,8.8-8.5s8.8,3.1,8.7,8.6C155.9,317,152.3,320,147.1,320z
			 M147.2,306.9c-2.5,0-4.3,1.9-4.3,4.6s1.8,4.6,4.3,4.6c2.6,0,4.3-1.9,4.3-4.6C151.5,308.7,149.8,306.9,147.2,306.9z"/>
		<path class="st7" d="M81.9,341.6h-3.6l-2.8-7.8l-2.7,7.8h-3.6l-5.8-16.2h4.9l2,5.7c0.4,1.2,0.6,2.6,0.8,3.8l2.9-9.5h3.1l3,9.5
			c0.2-1.2,0.5-2.5,0.9-3.9l1.9-5.6h4.9L81.9,341.6z"/>
		<path class="st7" d="M97.5,342.1c-5.2,0-8.8-3.1-8.7-8.6c0-5.3,3.6-8.5,8.8-8.5c5.2,0,8.8,3.1,8.7,8.6
			C106.3,339.1,102.7,342.1,97.5,342.1z M97.6,329c-2.5,0-4.3,1.9-4.3,4.6s1.8,4.6,4.3,4.6c2.6,0,4.3-1.9,4.3-4.6
			C101.9,330.8,100.2,329,97.6,329z"/>
		<path class="st7" d="M124.1,341.8h-4.9l-3.7-5.3h-1.6v5.3h-4.5l0.1-16.2h7.7c4,0,6.1,2.7,6.1,5.6c0,2-0.7,3.7-3.4,4.9l4.1,5.5
			L124.1,341.8z M114,329.2v3.9h3.3c1.2,0,1.7-0.9,1.7-1.9s-0.6-2-1.7-2H114z"/>
		<path class="st7" d="M141,325.9l-6.4,7.7c2.2,2.5,4.7,5.5,6.9,8v0.3H136l-4.5-5.4v5.4H127l0.1-16.2h4.5v5.3
			c1.4-1.7,2.8-3.6,4.2-5.3h5.3L141,325.9z"/>
		<path class="st7" d="M153.1,330.2c-1.1-0.8-2.3-1.1-3.7-1.1c-1.1,0-2.1,0.3-2.1,1.2c0,1.1,1.1,1.3,2.6,1.4
			c3.1,0.4,6.4,1.7,6.4,5.4c0,3.7-3.4,5.3-6.9,5.3c-2.8,0-4.9-0.5-7-2.9l2.5-2.9c1.5,1.6,3.3,1.8,4.6,1.9c1.5,0,2.5-0.5,2.5-1.4
			c0-0.8-0.9-1.3-2.6-1.5c-3.4-0.3-6.4-1.3-6.4-5.3c0-3.4,3.3-4.9,6.6-4.9c2.4,0,4.2,0.6,5.9,2L153.1,330.2z"/>
		<path class="st7" d="M169.4,342v-6.1h-5.7v6.1h-4.5l0.1-16.2h4.5v6.2h5.7v-6.2h4.4l-0.1,16.2H169.4z"/>
		<path class="st7" d="M185.8,342.5c-5.2,0-8.8-3.1-8.7-8.6c0-5.3,3.6-8.5,8.8-8.5s8.8,3.1,8.7,8.6
			C194.6,339.4,191,342.5,185.8,342.5z M185.8,329.4c-2.5,0-4.3,1.9-4.3,4.6s1.8,4.6,4.3,4.6c2.6,0,4.3-1.9,4.3-4.6
			C190.1,331.2,188.5,329.4,185.8,329.4z"/>
		<path class="st7" d="M202.2,337.8v4.4h-4.5l0.1-16.2h7.7c4.2,0,6.3,2.8,6.3,5.9c0,3.3-2.1,5.9-6.4,5.9L202.2,337.8L202.2,337.8z
			 M202.3,333.9h3.2c1.2,0,1.9-0.9,1.9-2s-0.6-2-1.9-2h-3.2V333.9z"/>
	</g>
</g>
<g>
	<g>
		<g>
			<path class="st7" d="M406.2-71.9V-56H422v-15.9H406.2z M419.8-62.5v4.4h-11.5h-0.1v-12.1l0,0h5h2h4.4l0,0v7.7
				C419.6-62.5,419.8-62.5,419.8-62.5z"/>
			<path class="st7" d="M419.4-63.3c-0.9-0.3-1.2-0.5-1.9-1.2h1.9v-1.6h-5.6l0.4-0.7h5.3v-1.4h-1.9c0.3-0.4,0.8-1.2,1.1-1.6h-2
				c0,0-0.6,1.1-1.1,1.6h-0.7c0.2-0.6,0.4-1,0.6-1.6h-2c-0.2,0.7-0.4,1-0.7,1.6h-0.3c-0.3-0.6-1-1.6-1-1.6h-2.1
				c0.5,0.6,1.1,1.4,1.2,1.6h-1.7v1.4h3.2l-0.4,0.7h-2.8v1.6h1.6c-0.7,0.7-0.9,1-1.6,1.3v2.5c0.5-0.4,1.1-1,1.4-1.3v1.6
				c0,1.2,0.7,1.9,2.1,1.9h4.5c0.6,0,1.4-0.3,1.8-0.8c0.2-0.3,0.5-1.1,0.5-1.1c-0.9-0.3-1.8-1.2-1.8-1.2c-0.1,1.4-1.4,1.6-2.3,1.6
				h-2.4c-0.4,0-0.6-0.2-0.6-0.6v-1.7h3v0.1c0,0.4-0.3,0.5-0.8,0.5c-0.4,0-1.5,0-1.5,0v1.2c0.2,0,1.1,0,1.3,0c1.4,0,2-0.1,2.3-0.4
				s0.4-0.9,0.4-1.9c0.6,0.6,1.7,1.4,2.5,1.8v-2.3H419.4z M412.1-63.6c0.3-0.2,0.5-0.5,0.7-0.8h2.7c0.2,0.3,0.4,0.5,0.6,0.8H412.1z"
				/>
		</g>
	</g>
	<g>
		<g>
			<path class="st7" d="M397.5-61c1.6,1.3,2.9,1.8,5.4,2.2v2.7c-2.6-0.5-5.5-1.8-7.4-3.4c-2,1.6-4.4,2.8-7.4,3.4v-2.6
				c2.2-0.4,3.9-1.2,5.4-2.3c-1.7-1.6-3.4-4.4-4.7-7.7h2.4c0.3,0.8,0.8,1.9,1.7,3.1c0.8,1.3,1.7,2.4,2.6,3.2
				c0.7-0.6,1.8-1.7,2.6-3.1c0.8-1.4,1.6-2.7,1.8-4h-11.7v-2.1h14.6c0,0-0.1,0.9-0.4,2.1c-0.4,1.4-1,3.3-1.8,4.6
				C399.4-63.1,398.5-62,397.5-61z"/>
			<path class="st7" d="M395.5-64.8c-0.8-1.1-1.8-2.2-2.8-3.2l1.9-1.1c0.9,0.7,1.8,1.7,2.8,2.8L395.5-64.8z"/>
		</g>
	</g>
</g>
<g>
	<g>
		<path class="st7" d="M262-95.8c-0.1-1.9-0.1-2.7-0.1-3.3v-5.6h4.5l-0.1,16.3h-3.8l-6.5-8.8l0.1,3.5v5.2h-4.5l0.1-16.2h3.8
			L262-95.8z"/>
		<path class="st7" d="M278.3-87.9c-5.2,0-8.8-3.1-8.7-8.6c0-5.3,3.6-8.5,8.8-8.5c5.2,0,8.8,3.1,8.7,8.6
			C287.1-91,283.5-87.9,278.3-87.9z M278.3-101c-2.5,0-4.3,1.9-4.3,4.6c0,2.7,1.8,4.6,4.3,4.6c2.6,0,4.3-1.9,4.3-4.6
			C282.6-99.2,280.9-101,278.3-101z"/>
		<path class="st7" d="M300.7-95.6c-0.1-1.9-0.1-2.7-0.1-3.3v-5.6h4.5L305-88.3h-3.8l-6.5-8.8l0.1,3.6v5.2h-4.5l0.1-16.2h3.8
			L300.7-95.6z"/>
		<path class="st7" d="M315.7-99l1.5-2.9l1.5-2.4h4.8v0.3l-5,7.8l5.3,8v0.2H319l-1.5-2.3l-1.7-3l-1.8,3.1l-1.5,2.2h-4.8v-0.2l5.3-8
			l-4.9-7.8v-0.3h4.8l1.5,2.5L315.7-99z"/>
		<path class="st7" d="M333.4-87.7c-5.2,0-8.8-3.1-8.7-8.6c0-5.3,3.6-8.5,8.8-8.5c5.2,0,8.8,3.1,8.7,8.6
			C342.2-90.7,338.6-87.7,333.4-87.7z M333.5-100.8c-2.5,0-4.3,1.9-4.3,4.6c0,2.7,1.8,4.6,4.3,4.6c2.6,0,4.3-1.9,4.3-4.6
			C337.8-99,336.1-100.8,333.5-100.8z"/>
		<path class="st7" d="M268.2-66.1h-3.6l-2.8-7.8l-2.7,7.8h-3.6l-5.8-16.2h4.9l2,5.7c0.4,1.2,0.6,2.6,0.8,3.8l2.9-9.5h3.1l3,9.5
			c0.2-1.2,0.5-2.5,0.9-3.9l1.9-5.6h4.9L268.2-66.1z"/>
		<path class="st7" d="M283.8-65.6c-5.2,0-8.8-3.1-8.7-8.6c0-5.3,3.6-8.5,8.8-8.5s8.8,3.1,8.7,8.6C292.6-68.6,289-65.6,283.8-65.6z
			 M283.9-78.7c-2.5,0-4.3,1.9-4.3,4.6c0,2.7,1.8,4.6,4.3,4.6c2.6,0,4.3-1.9,4.3-4.6C288.2-76.9,286.5-78.7,283.9-78.7z"/>
		<path class="st7" d="M310.4-65.9h-4.9l-3.7-5.3h-1.6v5.3h-4.5l0.1-16.2h7.7c4,0,6.1,2.7,6.1,5.6c0,2-0.7,3.7-3.4,4.9l4.1,5.5
			L310.4-65.9z M300.3-78.5v3.9h3.3c1.2,0,1.7-0.9,1.7-1.9s-0.6-2-1.7-2C303.6-78.5,300.3-78.5,300.3-78.5z"/>
		<path class="st7" d="M327.3-81.8l-6.4,7.7c2.2,2.5,4.7,5.5,6.9,8v0.3h-5.5l-4.5-5.4v5.4h-4.5l0.1-16.2h4.5v5.3
			c1.4-1.7,2.8-3.6,4.2-5.3h5.3L327.3-81.8z"/>
		<path class="st7" d="M339.4-77.5c-1.1-0.8-2.3-1.1-3.7-1.1c-1.1,0-2.1,0.3-2.1,1.2c0,1.1,1.1,1.3,2.6,1.4c3.1,0.4,6.4,1.7,6.4,5.4
			c0,3.7-3.4,5.3-6.9,5.3c-2.8,0-4.9-0.5-7-2.9l2.5-2.9c1.5,1.6,3.3,1.8,4.6,1.9c1.5,0,2.5-0.5,2.5-1.4c0-0.8-0.9-1.3-2.6-1.5
			c-3.4-0.3-6.4-1.3-6.4-5.3c0-3.4,3.3-4.9,6.6-4.9c2.4,0,4.2,0.6,5.9,2L339.4-77.5z"/>
		<path class="st7" d="M355.7-65.7v-6.1H350v6.1h-4.5l0.1-16.2h4.5v6.2h5.7v-6.2h4.4l-0.1,16.2H355.7z"/>
		<path class="st7" d="M372.1-65.2c-5.2,0-8.8-3.1-8.7-8.6c0-5.3,3.6-8.5,8.8-8.5c5.2,0,8.8,3.1,8.7,8.6
			C380.9-68.3,377.3-65.2,372.1-65.2z M372.1-78.3c-2.5,0-4.3,1.9-4.3,4.6c0,2.7,1.8,4.6,4.3,4.6c2.6,0,4.3-1.9,4.3-4.6
			C376.4-76.5,374.8-78.3,372.1-78.3z"/>
		<path class="st7" d="M388.5-69.9v4.4H384l0.1-16.2h7.7c4.2,0,6.3,2.8,6.3,5.9c0,3.3-2.1,5.9-6.4,5.9H388.5L388.5-69.9z
			 M388.6-73.8h3.2c1.2,0,1.9-0.9,1.9-2s-0.6-2-1.9-2h-3.2V-73.8z"/>
	</g>
</g>
<g>
	<path class="st7" d="M88.4,268.2c0,5.9,4.8,10.6,10.6,10.6s10.6-4.8,10.6-10.6c0-5.9-4.8-10.6-10.6-10.6S88.4,262.3,88.4,268.2z"/>
</g>
<g>
	<path class="st7" d="M64,268.2c0,5.9,4.8,10.6,10.6,10.6s10.6-4.8,10.6-10.6c0-5.9-4.8-10.6-10.6-10.6S64,262.3,64,268.2z"/>
</g>
<g>
	<path class="st7" d="M315.5,268.2c0,5.9,4.8,10.6,10.6,10.6c5.9,0,10.6-4.8,10.6-10.6c0-5.9-4.8-10.6-10.6-10.6
		C320.3,257.6,315.5,262.3,315.5,268.2z"/>
</g>
<g>
	<path class="st7" d="M291.1,268.2c0,5.9,4.8,10.6,10.6,10.6c5.9,0,10.6-4.8,10.6-10.6c0-5.9-4.8-10.6-10.6-10.6
		S291.1,262.3,291.1,268.2z"/>
</g>
<g>
	<path class="st7" d="M-173.1,58.9c-0.1-2.2-0.1-3.1-0.1-3.7v-6.4h5.1l-0.1,18.5h-4.3l-7.4-10l0.1,4v5.9h-5.1l0.1-18.4h4.3
		L-173.1,58.9z"/>
</g>
<g>
	<path class="st7" d="M-154.6,67.8c-5.9,0-10-3.5-9.9-9.8c0-6,4.1-9.7,10-9.7s10,3.5,9.9,9.8C-144.6,64.3-148.7,67.8-154.6,67.8z
		 M-154.6,53c-2.8,0-4.9,2.2-4.9,5.2c0,3.1,2,5.2,4.9,5.2c3,0,4.9-2.2,4.9-5.2C-149.7,55-151.6,53-154.6,53z"/>
</g>
<g>
	<path class="st7" d="M-129.2,59.1c-0.1-2.2-0.1-3.1-0.1-3.7V49h5.1l-0.1,18.4h-4.3l-7.4-10l0.1,4.1v5.9h-5.1l0.1-18.4h4.3
		L-129.2,59.1z"/>
</g>
<g>
	<polygon class="st7" points="-106.2,55 -104.5,51.7 -102.8,49 -97.4,49 -97.4,49.4 -103,58.2 -97,67.3 -97,67.5 -102.5,67.5 
		-104.2,64.9 -106.1,61.5 -108.2,65 -109.9,67.5 -115.3,67.5 -115.3,67.3 -109.3,58.2 -114.9,49.4 -114.9,49 -109.4,49 -107.7,51.9 
			"/>
</g>
<g>
	<path class="st7" d="M-86.1,67.9c-5.9,0-10-3.5-9.9-9.8c0-6,4.1-9.7,10-9.7s10,3.5,9.9,9.8C-76.1,64.5-80.2,67.9-86.1,67.9z
		 M-86,53c-2.8,0-4.9,2.2-4.9,5.2c0,3.1,2,5.2,4.9,5.2c3,0,4.9-2.2,4.9-5.2C-81.1,55-83.1,53-86,53z"/>
</g>
<g>
	<g>
		<g>
			<path d="M53.6,75.2v20.1h20V75.2H53.6z M70.8,87.2v5.6H56.3h-0.1V77.5l0,0h6.4h2.5h5.6l0,0L70.8,87.2L70.8,87.2z"/>
			<path d="M70.4,86.1c-1.1-0.4-1.6-0.7-2.4-1.5h2.4v-2h-7.2l0.5-0.9h6.7v-1.9H68c0.4-0.5,1.1-1.5,1.3-2h-2.5c0,0-0.8,1.5-1.3,2
				h-0.9c0.3-0.8,0.5-1.2,0.7-2h-2.5c-0.1,0.9-0.5,1.3-0.8,2h-0.4c-0.3-0.8-1.3-2-1.3-2h-2.7c0.7,0.8,1.3,1.7,1.5,2H57v1.9h4
				l-0.5,0.9H57v2h2c-0.9,0.9-1.2,1.3-2,1.6v3.2c0.7-0.5,1.5-1.3,1.7-1.6v2c0,1.6,0.9,2.4,2.7,2.4h5.7c0.8,0,1.7-0.4,2.3-1.1
				c0.3-0.4,0.5-1.5,0.5-1.5c-1.2-0.4-2.4-1.6-2.4-1.6c0,1.7-1.6,2-2.7,2h-3.2c-0.5,0-0.8-0.1-0.8-0.7V87h3.9v0.1
				c0,0.5-0.3,0.5-0.9,0.5c-0.5,0-1.9,0-1.9,0v1.6c0.1,0,1.5,0,1.6,0c1.7,0,2.4-0.1,2.9-0.5c0.4-0.4,0.5-1.1,0.5-2.4
				c0.7,0.8,2.1,1.7,3.2,2.3L70.4,86.1L70.4,86.1z M61.1,85.6c0.3-0.3,0.7-0.7,0.9-1.1h3.5c0.1,0.4,0.5,0.7,0.8,1.1H61.1z"/>
		</g>
		<g>
			<path d="M42.9,88.7c2,1.6,3.7,2.4,6.8,2.8V95c-3.3-0.7-6.9-2.4-9.2-4.3c-2.5,2-5.6,3.6-9.3,4.3v-3.3c2.7-0.5,4.9-1.6,6.8-2.8
				c-2.1-2-4.3-5.6-6-9.7l3.1-0.1c0.4,1.1,1.1,2.4,2.1,3.9c0.9,1.6,2.1,3.1,3.2,4c0.9-0.8,2.3-2.1,3.3-3.9c1.1-1.7,2-3.5,2.3-4.9
				H31.2v-2.7h18.4c0,0-0.1,1.2-0.5,2.7c-0.5,1.7-1.3,4.1-2.4,5.7C45.3,86,44,87.6,42.9,88.7z"/>
			<path d="M40.4,84c-1.1-1.3-2.3-2.7-3.5-4l2.4-1.3c1.2,0.9,2.4,2.1,3.5,3.6L40.4,84z"/>
		</g>
	</g>
</g>
<g>
	<path d="M136,53.4v23.4h23.3V53.4H136z M156.1,67.4v6.5h-16.9H139V56l0,0h7.5h3h6.5l0,0L156.1,67.4L156.1,67.4z"/>
	<path d="M155.6,66.1c-1.2-0.5-1.9-0.8-2.8-1.7h2.8v-2.3h-8.4l0.6-1.1h7.8v-2.2h-2.8c0.5-0.6,1.2-1.7,1.6-2.3h-3
		c0,0-0.9,1.7-1.6,2.3h-1.1c0.3-0.9,0.6-1.4,0.8-2.3h-3c-0.2,1.1-0.6,1.6-0.9,2.3h-0.5c-0.3-0.9-1.6-2.3-1.6-2.3h-3.1
		c0.8,0.9,1.6,2,1.7,2.3h-2.5V61h4.7l-0.6,1.1h-4v2.3h2.3c-1.1,1.1-1.4,1.6-2.3,1.9V70c0.8-0.6,1.7-1.6,2-1.9v2.3
		c0,1.9,1.1,2.8,3.1,2.8h6.7c0.9,0,2-0.5,2.6-1.2c0.3-0.5,0.6-1.7,0.6-1.7c-1.4-0.5-2.8-1.9-2.8-1.9c0,2-1.9,2.3-3.1,2.3h-3.6
		c-0.6,0-0.9-0.2-0.9-0.8v-2.6h4.5v0.2c0,0.6-0.3,0.6-1.1,0.6c-0.6,0-2.2,0-2.2,0V70c0.2,0,1.7,0,1.9,0c2,0,2.8-0.2,3.4-0.6
		c0.5-0.5,0.6-1.2,0.6-2.8c0.8,0.9,2.5,2,3.7,2.6L155.6,66.1L155.6,66.1z M144.7,65.5c0.3-0.3,0.8-0.8,1.1-1.2h4
		c0.2,0.5,0.6,0.8,0.9,1.2H144.7z"/>
</g>
<g>
	<path d="M124.3,69.2c2.3,1.9,4.3,2.8,7.9,3.3v4c-3.9-0.8-8.1-2.8-10.7-5c-3,2.3-6.5,4.2-10.9,5v-3.9c3.1-0.6,5.7-1.9,7.9-3.3
		c-2.5-2.3-5-6.5-7-11.3l3.6-0.2c0.5,1.2,1.2,2.8,2.5,4.5c1.1,1.9,2.5,3.6,3.7,4.7c1.1-0.9,2.6-2.5,3.9-4.5c1.2-2,2.3-4,2.6-5.7
		h-17.2v-3.1H132c0,0-0.2,1.4-0.6,3.1c-0.6,2-1.6,4.8-2.8,6.7C127.1,66.1,125.6,68,124.3,69.2z"/>
	<path d="M121.4,63.8c-1.2-1.6-2.6-3.1-4-4.7l2.8-1.6c1.4,1.1,2.8,2.5,4,4.2L121.4,63.8z"/>
</g>
<polygon class="st7" points="160.8,-3.4 163.6,-6.2 161.6,-8.3 163.6,-10.3 160.8,-13.1 158.8,-11.1 156.8,-13.1 153.9,-10.3 
	155.9,-8.3 153.9,-6.2 156.8,-3.4 158.8,-5.4 "/>
<path class="st7" d="M153.4,1.7c0-2.8,2.3-5.1,5.1-5.1s5.1,2.3,5.1,5.1s-2.3,5.1-5.1,5.1S153.4,4.5,153.4,1.7z"/>
<g>
	<line class="st10" x1="-99.3" y1="-47.7" x2="-70" y2="-29.3"/>
	<line class="st10" x1="-70" y1="-47.7" x2="-99.3" y2="-29.3"/>
	<ellipse class="st11" cx="-49.2" cy="-38.5" rx="14.6" ry="9.2"/>
</g>
<g class="st12">
	<path d="M-48.8-81.8c-0.1-2.3-0.1-3.1-0.2-3.9v-6.5h5.3v19h-4.4l-7.7-10.2l0.1,4.2v6.1H-61v-19h4.4L-48.8-81.8z"/>
	<path d="M-30.7-72.8c-6,0-10.3-3.6-10.3-10c0-6.2,4.2-10,10.3-10s10.3,3.6,10.3,10C-20.4-76.4-24.6-72.8-30.7-72.8z M-30.7-88.1
		c-3,0-5,2.2-5,5.4s2.1,5.4,5,5.4c3.1,0,5-2.2,5-5.4C-25.6-85.9-27.6-88.1-30.7-88.1z"/>
	<path d="M-5.5-81.8c-0.1-2.3-0.1-3.2-0.1-3.9v-6.5h5.3v19h-4.4l-7.7-10.2l0.1,4.2v6.1h-5.3v-19h4.4L-5.5-81.8z"/>
	<path d="M10.9-85.8l1.7-3.4l1.8-2.9H20v0.3l-5.8,9.1l6.2,9.3v0.2h-5.7L13-75.9l-2.1-3.5l-2.1,3.6l-1.7,2.6H1.4v-0.2l6.2-9.3
		l-5.8-9.1v-0.4h5.6l1.7,2.9L10.9-85.8z"/>
	<path d="M30.7-72.8c-6,0-10.3-3.6-10.3-10c0-6.2,4.2-10,10.3-10S41-89.2,41-82.8C41-76.3,36.8-72.8,30.7-72.8z M30.7-88.1
		c-3,0-5,2.2-5,5.4s2.1,5.4,5,5.4c3.1,0,5-2.2,5-5.4C35.8-85.9,33.8-88.1,30.7-88.1z"/>
</g>
<g class="st12">
	<path d="M130.3-2.6c-0.1-1.8-0.1-2.5-0.2-3.1v-5.2h4.2V4.3h-3.5l-6.1-8.1l0.1,3.4v4.9h-4.2v-15.2h3.5L130.3-2.6z"/>
	<path d="M144.8,4.6c-4.8,0-8.2-2.9-8.2-8c0-4.9,3.4-8,8.2-8c4.9,0,8.2,2.9,8.2,8S149.6,4.6,144.8,4.6z M144.8-7.6
		c-2.4,0-4,1.8-4,4.3s1.7,4.3,4,4.3c2.5,0,4-1.8,4-4.3C148.8-6,147.2-7.6,144.8-7.6z"/>
	<path d="M164.9-2.6c-0.1-1.8-0.1-2.6-0.1-3.1v-5.2h4.2V4.3h-3.5l-6.1-8.1l0.1,3.4v4.9h-4.2v-15.2h3.5L164.9-2.6z"/>
	<path d="M178-5.9l1.4-2.7l1.4-2.3h4.5v0.2l-4.6,7.3l4.9,7.4v0.2H181l-1.4-2.1L178-0.7l-1.7,2.9l-1.4,2.1h-4.5V4.1l4.9-7.4l-4.6-7.3
		v-0.3h4.5l1.4,2.3L178-5.9z"/>
	<path d="M193.8,4.6c-4.8,0-8.2-2.9-8.2-8c0-4.9,3.4-8,8.2-8s8.2,2.9,8.2,8S198.6,4.6,193.8,4.6z M193.8-7.6c-2.4,0-4,1.8-4,4.3
		s1.7,4.3,4,4.3c2.5,0,4-1.8,4-4.3C197.8-6,196.2-7.6,193.8-7.6z"/>
</g>
<text transform="matrix(0.9723 0 0 1 -103.758 118.6001)" style="font-family:'NexaBlack'; font-size:29.0193px;">NONXO</text>
<text transform="matrix(0.9723 0 0 1 -61.9055 23.8281)" style="font-family:'NotoSansCJKtc-Black-B5pc-H'; font-size:25.3604px;">影</text>
<text transform="matrix(0.9723 0 0 1 -61.9055 54.228)" style="font-family:'NotoSansCJKtc-Black-B5pc-H'; font-size:25.3604px;">畫</text>
<g class="st12">
	<path d="M23.1-20.4c0,5.1-3.1,8.9-8.6,8.9c-5.4,0-8.9-3.8-8.9-8.9c0-4.9,3.4-8.9,8.9-8.9S23.1-25.5,23.1-20.4z M14.5-13.9
		c3.8,0,6.1-2.6,6.1-6.5s-2.2-6.5-6.1-6.5c-3.8,0-6.3,2.7-6.3,6.5C8.2-16.5,10.7-13.9,14.5-13.9z M16.5-19c2.8-0.8,2.5-5.7-1.6-5.7
		c-1.4,0-2.5,0-3.9,0v8.8h2.4v-2.6h1l1.4,2.6h2.6L16.5-19z M15-22.6c1.2,0,1.2,2,0,2h-1.7v-2H15z"/>
</g>
<text transform="matrix(0.9723 0 0 1 106.8807 97.5547)" style="font-family:'NexaBlack'; font-size:11.3791px;">®</text>
<g>
	<path class="st7" d="M109.1-90.7c-0.1-1.5-0.1-2.1-0.1-2.5v-4.3h3.4v12.4h-2.9l-5-6.7l0.1,2.7v4h-3.4v-12.4h2.9L109.1-90.7z"/>
	<path class="st7" d="M120.5-84.8c-3.9,0-6.7-2.4-6.7-6.5c0-4.1,2.8-6.5,6.7-6.5c4,0,6.7,2.4,6.7,6.5
		C127.2-87.2,124.5-84.8,120.5-84.8z M120.5-94.8c-1.9,0-3.3,1.5-3.3,3.5c0,2.1,1.4,3.5,3.3,3.5c2,0,3.3-1.5,3.3-3.5
		C123.8-93.4,122.5-94.8,120.5-94.8z"/>
	<path class="st7" d="M136.7-90.7c-0.1-1.5-0.1-2.1-0.1-2.5v-4.3h3.4v12.4h-2.9l-5-6.7l0.1,2.7v4h-3.4v-12.4h2.9L136.7-90.7z"/>
	<path class="st7" d="M147-93.4l1.1-2.2l1.1-1.9h3.7v0.2l-3.8,6l4.1,6.1v0.1h-3.7l-1.1-1.7l-1.3-2.3l-1.4,2.3l-1.1,1.7h-3.7v-0.1
		l4.1-6.1l-3.8-6v-0.2h3.7l1.1,1.9L147-93.4z"/>
	<path class="st7" d="M159.5-84.8c-3.9,0-6.7-2.4-6.7-6.5c0-4.1,2.8-6.5,6.7-6.5c4,0,6.7,2.4,6.7,6.5
		C166.2-87.2,163.5-84.8,159.5-84.8z M159.5-94.8c-1.9,0-3.3,1.5-3.3,3.5c0,2.1,1.4,3.5,3.3,3.5c2,0,3.3-1.5,3.3-3.5
		C162.8-93.4,161.5-94.8,159.5-94.8z"/>
	<path class="st7" d="M113.9-69.2h-2.8l-2.1-6l-2.1,6h-2.8l-4.5-12.4h3.7l1.6,4.4c0.3,0.9,0.5,2,0.6,2.9l2.2-7.3h2.4l2.3,7.3
		c0.2-0.9,0.4-1.9,0.7-3l1.4-4.3h3.7L113.9-69.2z"/>
	<path class="st7" d="M124.7-68.9c-3.9,0-6.7-2.4-6.7-6.5c0-4.1,2.8-6.5,6.7-6.5c4,0,6.7,2.4,6.7,6.5
		C131.4-71.3,128.7-68.9,124.7-68.9z M124.7-79c-1.9,0-3.3,1.5-3.3,3.5c0,2.1,1.4,3.5,3.3,3.5c2,0,3.3-1.5,3.3-3.5
		C128-77.6,126.7-79,124.7-79z"/>
	<path class="st7" d="M144-69.2h-3.8l-2.8-4h-1.2v4h-3.4v-12.4h5.9c3.1,0,4.7,2,4.7,4.3c0,1.5-0.5,2.8-2.6,3.8l3.1,4.2V-69.2z
		 M136.3-78.9v3h2.5c0.9,0,1.3-0.7,1.3-1.4c0-0.8-0.4-1.5-1.3-1.5H136.3z"/>
	<path class="st7" d="M155.8-81.4l-4.9,5.9c1.7,1.9,3.6,4.2,5.3,6.1v0.2H152l-3.4-4.1v4.1h-3.4v-12.4h3.4v4.1c1-1.3,2.2-2.8,3.2-4.1
		h4.1V-81.4z"/>
	<path class="st7" d="M164.2-78.2c-0.8-0.6-1.8-0.9-2.8-0.9c-0.8,0-1.6,0.3-1.6,0.9c0,0.9,0.8,1,2,1.1c2.4,0.3,4.9,1.3,4.9,4.1
		c0,2.8-2.6,4-5.3,4.1c-2.2,0-3.7-0.4-5.4-2.2l1.9-2.2c1.2,1.2,2.5,1.4,3.5,1.4c1.1,0,1.9-0.4,1.9-1.1c0-0.6-0.7-1-2-1.1
		c-2.6-0.2-4.9-0.9-4.9-4c0-2.6,2.5-3.8,5.1-3.8c1.8,0,3.2,0.4,4.5,1.5L164.2-78.2z"/>
	<path class="st7" d="M175.6-69.2v-4.7h-4.3v4.7h-3.4v-12.4h3.4v4.7h4.3v-4.7h3.4v12.4H175.6z"/>
	<path class="st7" d="M187.1-68.9c-3.9,0-6.7-2.4-6.7-6.5c0-4.1,2.8-6.5,6.7-6.5c4,0,6.7,2.4,6.7,6.5
		C193.8-71.3,191.1-68.9,187.1-68.9z M187.1-79c-1.9,0-3.3,1.5-3.3,3.5c0,2.1,1.4,3.5,3.3,3.5c2,0,3.3-1.5,3.3-3.5
		C190.4-77.6,189.1-79,187.1-79z"/>
	<path class="st7" d="M198.7-72.6v3.4h-3.4v-12.4h5.9c3.2,0,4.8,2.1,4.8,4.5c0,2.5-1.6,4.5-4.8,4.6H198.7z M198.7-75.5h2.4
		c0.9,0,1.4-0.7,1.4-1.5c0-0.8-0.5-1.6-1.4-1.6h-2.4V-75.5z"/>
</g>
<g>
	<path class="st7" d="M174.6-112.9c0,2.2-1.3,3.7-3.6,3.7c-2.3,0-3.7-1.6-3.7-3.7c0-2.1,1.4-3.7,3.7-3.7
		C173.3-116.6,174.6-115,174.6-112.9z M171-110.1c1.6,0,2.5-1.1,2.5-2.7c0-1.7-0.9-2.7-2.5-2.7c-1.6,0-2.6,1.1-2.6,2.7
		C168.4-111.3,169.4-110.1,171-110.1z M171.9-112.3c1.2-0.3,1-2.4-0.7-2.4c-0.6,0-1.1,0-1.7,0v3.7h1v-1.1h0.4l0.6,1.1h1.1
		L171.9-112.3z M171.2-113.8c0.5,0,0.5,0.8,0,0.8h-0.7v-0.8H171.2z"/>
</g>
<line class="st13" x1="98.7" y1="-91.7" x2="169.3" y2="-91.7"/>
<line class="st13" x1="98.7" y1="-75.2" x2="207.6" y2="-75.2"/>
<path class="st14" d="M-8.5,43.7c0,10.3-8.4,18.7-18.7,18.7S-45.8,54-45.8,43.7"/>
<path class="st14" d="M29.9,9.4c0,5.7-4.6,10.3-10.3,10.3S9.2,15.1,9.2,9.4"/>
<path class="st14" d="M-45.8,81.1c0-10.3,8.4-18.7,18.7-18.7s18.7,8.4,18.7,18.7"/>
<path class="st14" d="M-16.9,49.1c0,7.3-4.6,13.2-10.3,13.2s-10.3-5.9-10.3-13.2"/>
<path class="st14" d="M-37.4,75.6c0-7.3,4.6-13.2,10.3-13.2s10.3,5.9,10.3,13.2"/>
<line class="st14" x1="-27.1" y1="52" x2="-27.1" y2="72.8"/>
<circle class="st5" cx="-14.6" cy="-45.4" r="14.4"/>
<g>
	<g>
		<path class="st7" d="M29.1-58.8H34v0.2l-9.4,13.9l9.8,14.4v0.1h-5l-7.6-11.3l-7.6,11.3h-5v-0.1l9.8-14.4L9.6-58.6v-0.2h4.9
			l7.4,11.1L29.1-58.8z"/>
		<path class="st7" d="M58.3-44.3c0,7.7-4.6,14.8-14.2,14.8s-14.2-7.2-14.2-14.8c0-8.7,5.9-15,14.3-15
			C53.7-59.3,58.3-52.1,58.3-44.3z M44.1-33.7c6.9,0,9.8-5,9.8-10.5c0-5.3-2.9-10.8-9.7-10.9c-6.4,0-9.9,4.6-9.9,10.9
			C34.4-39.2,37.2-33.7,44.1-33.7z"/>
	</g>
</g>
<line class="st15" x1="8" y1="-44.9" x2="60.9" y2="-44.9"/>
<g>
	<g>
		<path d="M79.9,76.6v14.7h14.6V76.6H79.9z M92.5,85.3v4.1H81.9h-0.1V78.2l0,0h4.6h1.9h4.1l0,0L92.5,85.3L92.5,85.3z"/>
		<path d="M92.1,84.5c-0.8-0.3-1.1-0.5-1.7-1.1h1.7V82h-5.2l0.4-0.6h4.9V80h-1.8c0.3-0.4,0.8-1.1,1-1.5h-1.8c0,0-0.6,1.1-1,1.5h-0.6
			c0.2-0.6,0.4-0.9,0.5-1.5h-1.9c-0.1,0.6-0.4,0.9-0.6,1.5h-0.3c-0.3-0.6-0.9-1.5-0.9-1.5h-1.9c0.4,0.6,1,1.3,1.1,1.5h-1.6v1.4h2.9
			L84.9,82h-2.6v1.5h1.4c-0.6,0.6-0.9,0.9-1.4,1.1V87c0.5-0.4,1.1-0.9,1.3-1.1v1.4c0,1.1,0.7,1.8,1.9,1.8h4.2c0.6,0,1.3-0.2,1.6-0.8
			c0.2-0.3,0.4-1.1,0.4-1.1c-0.9-0.3-1.7-1.1-1.7-1.1c-0.1,1.3-1.4,1.5-2.1,1.5h-2.2c-0.4,0-0.6-0.1-0.6-0.5v-1.6H88v0.1
			c0,0.4-0.2,0.4-0.7,0.4c-0.4,0-1.4,0-1.4,0v1.1c0.1,0,1.1,0,1.2,0c1.3,0,1.8-0.1,2.1-0.4c0.3-0.3,0.4-0.9,0.4-1.8
			c0.5,0.6,1.6,1.3,2.4,1.6L92.1,84.5L92.1,84.5z M85.4,84.3c0.3-0.2,0.4-0.5,0.6-0.7h2.5c0.1,0.2,0.4,0.5,0.6,0.7H85.4z"/>
	</g>
	<g>
		<path d="M89.4,69c1.5,1.2,2.7,1.7,5,2.1v2.5c-2.4-0.5-5.1-1.6-6.8-3.1c-1.9,1.4-4.1,2.6-6.8,3.1v-2.4c2-0.4,3.6-1.1,5-2.1
			c-1.6-1.5-3.1-4.1-4.4-7.1l2.2-0.1c0.3,0.8,0.8,1.7,1.5,2.9c0.7,1.1,1.5,2.2,2.4,2.9c0.6-0.6,1.6-1.6,2.4-2.9
			c0.8-1.3,1.4-2.5,1.6-3.6H80.7v-1.9h13.5c0,0-0.1,0.9-0.4,2c-0.4,1.3-0.9,3-1.7,4.2C91.2,66.9,90.3,68.1,89.4,69z"/>
		<path class="st7" d="M87.6,65.5c-0.8-1-1.6-2-2.6-2.9l1.7-1c0.9,0.6,1.7,1.6,2.6,2.6L87.6,65.5z"/>
	</g>
</g>
<path class="st14" d="M9.2,30.2c0-5.7,4.6-10.3,10.3-10.3s10.3,4.6,10.3,10.3"/>
</svg>
