<?xml version="1.0" encoding="utf-8"?>
<!-- Generator: Adobe Illustrator 24.0.2, SVG Export Plug-In . SVG Version: 6.00 Build 0)  -->
<svg version="1.1" id="圖層_1" xmlns="http://www.w3.org/2000/svg" xmlns:xlink="http://www.w3.org/1999/xlink" x="0px" y="0px"
	 viewBox="0 0 100 31.4" style="enable-background:new 0 0 100 31.4;" xml:space="preserve">
<style type="text/css">
	.st0{fill:#AF0000;stroke:#000000;stroke-width:2;stroke-miterlimit:10;}
	.st1{display:none;}
	.st2{display:inline;}
	.st3{fill:#191919;}
	.st4{display:inline;fill:#B5B5B5;}
	.st5{display:inline;fill:#BB181E;}
	.st6{fill:none;stroke:#BB181E;stroke-width:3.8487;stroke-miterlimit:10;}
	.st7{display:inline;fill:#FFFFFF;}
	.st8{fill:#FFFFFF;}
	.st9{display:inline;fill:none;stroke:#000000;stroke-miterlimit:10;}
	.st10{fill:#231815;}
	.st11{display:inline;fill:#040000;}
	.st12{fill:#040000;}
	.st13{display:inline;fill:none;stroke:#000000;stroke-width:0.7639;stroke-miterlimit:10;}
	.st14{display:inline;fill:none;stroke:#FFFFFF;stroke-miterlimit:10;}
	.st15{display:inline;fill:none;stroke:#FFFFFF;stroke-width:1.6518;stroke-miterlimit:10;}
	.st16{fill:none;stroke:#040000;stroke-width:5.5394;stroke-miterlimit:10;}
	.st17{fill:none;stroke:#040000;stroke-width:5.1414;stroke-miterlimit:10;}
	.st18{display:inline;enable-background:new    ;}
	.st19{display:inline;fill:none;stroke:#040000;stroke-width:6;stroke-miterlimit:10;}
	.st20{display:inline;stroke:#000000;stroke-width:0.6;stroke-miterlimit:10;}
	.st21{display:inline;stroke:#000000;stroke-width:2;stroke-miterlimit:10;}
	.st22{fill:#B5B5B5;}
	.st23{fill:#BB181E;}
	.st24{fill:none;stroke:#000000;stroke-miterlimit:10;}
	.st25{fill:none;stroke:#000000;stroke-width:0.7639;stroke-miterlimit:10;}
	.st26{fill:none;stroke:#FFFFFF;stroke-miterlimit:10;}
	.st27{fill:none;stroke:#FFFFFF;stroke-width:1.6518;stroke-miterlimit:10;}
	.st28{enable-background:new    ;}
	.st29{stroke:#000000;stroke-width:2;stroke-miterlimit:10;}
</style>
<path class="st0" d="M50,28.3c-7,0-12.8-5.7-12.8-12.8S43,2.8,50,2.8s12.8,5.7,12.8,12.7S57,28.3,50,28.3z M50,3.5
	c-6.6,0-12,5.4-12,12s5.4,12,12,12s12-5.4,12-12C61.9,8.9,56.6,3.5,50,3.5z"/>
<g id="圖層_1_1_" class="st1">
	<g class="st2">
		<path class="st3" d="M-108.2-26.9c-4.2,4.2-4.2,10.9,0,15.1s10.9,4.2,15.1,0s4.2-10.9,0-15.1S-104-31-108.2-26.9z"/>
	</g>
	<path class="st4" d="M-119.2-15.8c-4.2,4.2-4.2,10.9,0,15.1s10.9,4.2,15.1,0s4.2-10.9,0-15.1S-115-20-119.2-15.8z"/>
	<g class="st2">
		<path class="st3" d="M-172.8-42.4c-4.2,4.2-4.2,10.9,0,15.1s10.9,4.2,15.1,0s4.2-10.9,0-15.1S-168.6-46.5-172.8-42.4z"/>
	</g>
	<path class="st4" d="M-183.8-31.3c-4.2,4.2-4.2,10.9,0,15.1s10.9,4.2,15.1,0s4.2-10.9,0-15.1S-179.6-35.5-183.8-31.3z"/>
	<g class="st2">
		<g>
			<path d="M62.1-192.8c-0.2-3.7-0.2-5.1-0.3-6.3v-10.5h8.5v30.7h-7.2l-12.4-16.5l0.1,6.7v9.8h-8.5v-30.7h7.2L62.1-192.8z"/>
			<path d="M91.3-178.1c-9.8,0-16.6-5.8-16.6-16.1c0-10.1,6.8-16.1,16.6-16.1s16.6,5.9,16.6,16.1S101.1-178.1,91.3-178.1z
				 M91.3-202.9c-4.8,0-8.1,3.6-8.1,8.7c0,5.1,3.4,8.7,8.1,8.7c4.9,0,8.1-3.6,8.1-8.7C99.5-199.5,96.3-202.9,91.3-202.9z"/>
			<path d="M132.1-192.8c-0.2-3.7-0.2-5.1-0.3-6.3v-10.5h8.5v30.7h-7.2l-12.4-16.5l0.1,6.7v9.8h-8.5v-30.7h7.2L132.1-192.8z"/>
			<path d="M158.5-199.4l2.8-5.5l2.7-4.6h9.1v0.5l-9.4,14.8l10,15.1v0.3h-9.2l-2.8-4.3l-3.3-5.7L155-183l-2.7,4.2h-9.2v-0.3l10-15.1
				l-9.4-14.8v-0.5h9.1l2.8,4.7L158.5-199.4z"/>
			<path d="M190.5-178.1c-9.8,0-16.6-5.8-16.6-16.1c0-10.1,6.8-16.1,16.6-16.1s16.6,5.9,16.6,16.1S200.3-178.1,190.5-178.1z
				 M190.5-202.9c-4.8,0-8.1,3.6-8.1,8.7c0,5.1,3.4,8.7,8.1,8.7c4.9,0,8.1-3.6,8.1-8.7C198.7-199.5,195.4-202.9,190.5-202.9z"/>
			<path d="M74.1-129.9h-6.9L62-144.6l-5.1,14.7H50l-11.1-30.7h9.2l3.8,10.8c0.7,2.3,1.2,4.8,1.6,7.1l5.5-17.9h5.8l5.7,17.9
				c0.4-2.3,1-4.8,1.7-7.3l3.6-10.6H85L74.1-129.9z"/>
			<path d="M102-129.1c-9.8,0-16.6-5.8-16.6-16.1c0-10.1,6.8-16.1,16.6-16.1s16.6,5.9,16.6,16.1C118.6-134.9,111.8-129.1,102-129.1z
				 M102-153.9c-4.8,0-8.1,3.6-8.1,8.7s3.4,8.7,8.1,8.7c4.9,0,8.1-3.6,8.1-8.7C110.1-150.4,106.9-153.9,102-153.9z"/>
			<path d="M150.6-129.8h-9.3l-6.9-9.9h-2.9v9.9h-8.4v-30.7h14.6c7.6,0,11.6,5,11.6,10.6c0,3.8-1.3,7-6.3,9.3l7.8,10.3L150.6-129.8
				L150.6-129.8z M131.4-153.6v7.4h6.2c2.2,0,3.2-1.7,3.2-3.6c0-1.9-1.1-3.8-3.3-3.8L131.4-153.6L131.4-153.6z"/>
			<path d="M180.7-160l-12.1,14.5c4.2,4.7,9,10.3,13.1,15.1v0.5h-10.4l-8.5-10.2v10.2h-8.4v-30.7h8.4v10.1c2.6-3.2,5.3-6.8,7.8-10.1
				h10.1L180.7-160L180.7-160z"/>
			<path d="M201.9-152c-2.1-1.6-4.4-2.1-7-2.1c-2.1,0-4.1,0.7-4.1,2.3c0,2.1,2,2.4,4.9,2.7c5.9,0.7,12.1,3.1,12.1,10.2
				c0,7-6.4,9.9-13.1,10c-5.4,0-9.2-0.9-13.3-5.4l4.6-5.5c2.9,2.9,6.2,3.5,8.7,3.5c2.8,0,4.7-1,4.7-2.7c0-1.5-1.7-2.5-5-2.8
				c-6.5-0.6-12.1-2.3-12.1-9.9c0-6.5,6.2-9.3,12.5-9.3c4.5,0,8,1.1,11.2,3.6L201.9-152z"/>
			<path d="M231.1-129.8v-11.6h-10.7v11.6H212v-30.7h8.4v11.7h10.7v-11.7h8.4v30.7H231.1L231.1-129.8z"/>
			<path d="M260.5-129.1c-9.8,0-16.6-5.8-16.6-16.1c0-10.1,6.8-16.1,16.6-16.1c9.8,0,16.6,5.9,16.6,16.1
				C277-134.9,270.3-129.1,260.5-129.1z M260.5-153.9c-4.8,0-8.1,3.6-8.1,8.7s3.4,8.7,8.1,8.7c5,0,8.1-3.6,8.1-8.7
				C268.6-150.4,265.4-153.9,260.5-153.9z"/>
			<path d="M289.9-138.1v8.3h-8.4v-30.7H296c8,0,12,5.2,12,11.2c0,6.3-4,11.1-12,11.2C295.9-138.1,289.9-138.1,289.9-138.1z
				 M289.9-145.4h6c2.3,0,3.5-1.8,3.5-3.8s-1.2-3.9-3.5-3.9h-6V-145.4z"/>
		</g>
	</g>
	<rect x="220.4" y="-198" class="st5" width="84.8" height="3.8"/>
	<g class="st2">
		<g>
			<g>
				<path d="M67.5-82.7v20.6H88v-20.6H67.5z M85.2-70.4v5.8H70.3h-0.1v-15.7l0,0h6.5h2.6H85l0,0L85.2-70.4L85.2-70.4z"/>
				<path d="M84.7-71.5c-1.1-0.4-1.6-0.7-2.4-1.5h2.4v-2.1h-7.3l0.5-0.9h6.8v-1.9h-2.5c0.4-0.5,1.1-1.5,1.4-2.1H81
					c0,0-0.8,1.5-1.4,2.1h-0.9c0.3-0.8,0.6-1.2,0.7-2.1h-2.6c-0.2,0.9-0.5,1.3-0.8,2.1h-0.4c-0.3-0.8-1.3-2.1-1.3-2.1h-2.7
					c0.7,0.8,1.4,1.8,1.5,2.1h-2.2v1.9H75l-0.5,0.9h-3.6v2.1h2c-0.9,0.9-1.2,1.3-2,1.6v3.3c0.7-0.5,1.5-1.3,1.8-1.6v2
					c0,1.6,1,2.5,2.7,2.5h5.9c0.8,0,1.8-0.4,2.3-1.1c0.3-0.4,0.6-1.5,0.6-1.5c-1.2-0.4-2.4-1.6-2.4-1.6c0,1.8-1.7,2.1-2.8,2.1h-3.1
					c-0.5,0-0.8-0.2-0.8-0.7v-2.3H79v0.1c0,0.5-0.3,0.6-1,0.6c-0.5,0-1.9,0-1.9,0v1.6c0.2,0,1.5,0,1.7,0c1.8,0,2.5-0.2,3-0.6
					c0.4-0.4,0.5-1.1,0.5-2.5c0.7,0.8,2.2,1.8,3.3,2.3L84.7-71.5L84.7-71.5z M75.2-72c0.3-0.3,0.7-0.7,0.9-1.1h3.5
					c0.2,0.4,0.5,0.7,0.8,1.1H75.2z"/>
			</g>
			<g>
				<path d="M56.5-68.8c2.1,1.6,3.8,2.4,7,2.9v3.5c-3.4-0.7-7.1-2.4-9.5-4.4c-2.6,2-5.8,3.7-9.6,4.4v-3.4c2.8-0.5,5.1-1.6,7-2.9
					c-2.2-2.1-4.4-5.7-6.1-10l3.1-0.1c0.4,1.1,1.1,2.4,2.2,4c1,1.6,2.2,3.1,3.3,4.1c0.9-0.8,2.3-2.2,3.4-4s2-3.5,2.3-5.1H44.4v-2.7
					h18.9c0,0-0.1,1.2-0.5,2.8c-0.5,1.8-1.3,4.2-2.4,5.9C59-71.6,57.7-70,56.5-68.8z"/>
				<path d="M53.9-73.6c-1.1-1.4-2.3-2.8-3.6-4.1l2.4-1.4c1.2,0.9,2.4,2.2,3.6,3.7L53.9-73.6z"/>
			</g>
		</g>
	</g>
	<g class="st2">
		<g>
			<text transform="matrix(0.9723 0 0 1 -387.291 -118.9976)" style="font-family:'NexaBlack'; font-size:43.8446px;">NONXO</text>
			<text transform="matrix(0.9723 0 0 1 -387.291 -69.9575)" style="font-family:'NexaBlack'; font-size:43.8446px;">WORKSHOP</text>
		</g>
		<line class="st6" x1="-206.2" y1="-136.2" x2="-121.4" y2="-136.2"/>
		<g>
			<g>
				<g>
					<path d="M-359.1-22.9v20.6h20.5v-20.6H-359.1z M-341.4-10.6v5.8h-14.8h-0.1v-15.8l0,0h6.5h2.6h5.7l0,0L-341.4-10.6L-341.4-10.6
						z"/>
					<path d="M-341.9-11.7c-1.1-0.4-1.6-0.7-2.4-1.5h2.4v-2h-7.3l0.5-0.9h6.8V-18h-2.5c0.4-0.5,1.1-1.5,1.4-2.1h-2.5
						c0,0-0.8,1.5-1.4,2.1h-0.9c0.3-0.8,0.6-1.2,0.7-2.1h-2.6c-0.2,0.9-0.5,1.3-0.8,2.1h-0.4c-0.4-0.8-1.3-2.1-1.3-2.1h-2.7
						c0.6,0.8,1.4,1.8,1.5,2.1h-2.2v1.9h4.1l-0.5,0.9h-3.6v2.1h2c-0.9,0.9-1.2,1.3-2,1.6v3.3c0.7-0.5,1.5-1.3,1.8-1.6v2
						c0,1.6,1,2.5,2.7,2.5h5.9c0.8,0,1.8-0.3,2.3-1.1c0.3-0.4,0.6-1.5,0.6-1.5c-1.2-0.4-2.4-1.6-2.4-1.6c-0.1,1.8-1.9,2.1-2.9,2.1
						h-3.1c-0.5,0-0.8-0.2-0.8-0.7v-2.3h3.8v0.1c0,0.5-0.3,0.6-1,0.6c-0.5,0-1.9,0-1.9,0v1.6c0.2,0,1.5,0,1.7,0c1.8,0,2.5-0.2,3-0.6
						c0.4-0.4,0.5-1.2,0.5-2.5c0.7,0.8,2.2,1.8,3.3,2.3L-341.9-11.7L-341.9-11.7z M-351.4-12.1c0.4-0.3,0.6-0.7,0.9-1h3.5
						c0.2,0.3,0.5,0.7,0.8,1H-351.4z"/>
				</g>
				<g>
					<path d="M-370.1-8.9c2.1,1.7,3.8,2.4,7,2.9v3.5c-3.4-0.7-7.1-2.3-9.5-4.4c-2.6,2-5.8,3.7-9.6,4.4v-3.4c2.8-0.5,5.1-1.6,7-3
						c-2.2-2.1-4.4-5.7-6.1-10l3.1-0.1c0.4,1.1,1.1,2.4,2.1,4s2.1,3.1,3.3,4.1c0.9-0.8,2.3-2.2,3.4-4s2-3.5,2.3-5.1h-15.2v-2.7h18.9
						c0,0-0.1,1.2-0.5,2.8c-0.5,1.8-1.3,4.2-2.4,5.9C-367.6-11.8-368.8-10.2-370.1-8.9z"/>
					<path d="M-372.6-13.8c-1.1-1.4-2.3-2.8-3.6-4.1l2.4-1.4c1.2,0.9,2.4,2.2,3.6,3.7L-372.6-13.8z"/>
				</g>
			</g>
		</g>
	</g>
	<path class="st2" d="M56.3,130.3c-6.8,1-13.1-3.7-14.1-10.4c-1-6.8,3.7-13.1,10.4-14.1c6.8-1,13.1,3.7,14.1,10.4
		C67.7,123,63,129.3,56.3,130.3z"/>
	<path class="st7" d="M56.3,130.3c-6.8,1-13.1-3.7-14.1-10.4c-1-6.8,3.7-13.1,10.4-14.1c6.8-1,13.1,3.7,14.1,10.4
		C67.7,123,63,129.3,56.3,130.3 M56.5,132c7.7-1.1,13-8.3,11.9-16s-8.3-13-16-11.9s-13,8.3-11.9,16C41.7,127.8,48.8,133.1,56.5,132
		L56.5,132z"/>
	<g class="st2">
		<polygon points="48.6,124.2 42.3,132.7 36.3,128.2 31.9,134.3 23.4,128 27.9,122 21.8,117.5 28.1,109 34.1,113.5 38.6,107.5 
			47.1,113.8 42.6,119.8 		"/>
		<path class="st8" d="M42.3,132.7l-6-4.5l-4.5,6l-8.5-6.3l4.5-6l-6-4.5l6.3-8.5l6,4.5l4.5-6l8.5,6.3l-4.5,6l6,4.5L42.3,132.7
			 M42.7,135.1l1-1.4l6.3-8.5l1-1.4l-1.4-1l-4.6-3.4l3.4-4.6l1-1.4l-1.4-1l-8.5-6.3l-1.4-1l-1,1.4l-3.4,4.6l-4.6-3.4l-1.4-1l-1,1.4
			l-6.3,8.5l-1,1.4l1.4,1l4.6,3.4L22,127l-1,1.4l1.4,1l8.5,6.3l1.4,1l1-1.4l3.4-4.6l4.6,3.4L42.7,135.1L42.7,135.1z"/>
	</g>
	<polygon class="st9" points="105.4,-48.4 98,-55.9 92.7,-50.6 87.4,-55.9 79.9,-48.4 85.2,-43.1 79.9,-37.8 87.4,-30.4 92.7,-35.7 
		98,-30.4 105.4,-37.8 100.1,-43.1 	"/>
	<g class="st2">
		<g>
			<g>
				<path d="M112.1-55.5c6.8,0,12.4,5.6,12.4,12.4s-5.6,12.4-12.4,12.4c-3.2,0-6-1.2-8.2-3.2l2.7-2.7l1.2-1.2l-1.2-1.2l-4.1-4.1
					l4.1-4.1l1.2-1.2l-1.2-1.2l-2.7-2.7C106.1-54.3,109-55.5,112.1-55.5 M112.1-56.5c-3.3,0-6.4,1.2-8.9,3.4l-0.8,0.7l0.7,0.7
					l2.7,2.7l0.5,0.5l-0.5,0.5l-4.1,4.1l-0.7,0.7l0.7,0.7l4.1,4.1l0.5,0.5l-0.5,0.5l-2.7,2.7l-0.7,0.7l0.8,0.7
					c2.5,2.2,5.6,3.4,8.9,3.4c7.4,0,13.4-6,13.4-13.4C125.5-50.5,119.5-56.5,112.1-56.5L112.1-56.5z"/>
			</g>
		</g>
		<g>
			<g>
				<path d="M102.7-51.1l2.7,2.7l-5.3,5.3l5.3,5.3l-2.7,2.7c-1.8-2.2-3-5-3-8S100.9-49,102.7-51.1 M102.7-52.6l-0.7,0.8
					c-2.1,2.4-3.2,5.5-3.2,8.7s1.1,6.2,3.2,8.7l0.7,0.8l0.8-0.8l2.7-2.7l0.7-0.7l-0.7-0.7l-4.6-4.6l4.6-4.6l0.7-0.7l-0.7-0.7
					l-2.7-2.7L102.7-52.6L102.7-52.6z"/>
			</g>
		</g>
	</g>
	<g class="st2">
		<path d="M71.2-47.6c-2.2,0-4.2,0.9-5.7,2.2l1.9,1.9l0.9,0.9l-0.9,0.9L64.6-39l2.8,2.8l0.9,0.9l-0.9,0.9l-1.9,1.9
			c1.5,1.4,3.6,2.2,5.7,2.2c4.8,0,8.7-3.9,8.7-8.7S75.9-47.6,71.2-47.6z"/>
	</g>
	<g class="st2">
		<polygon points="47.9,-35.3 51.6,-39 47.9,-42.7 54,-48.7 57.6,-45.1 61.3,-48.7 67.4,-42.7 63.7,-39 67.4,-35.3 61.3,-29.3 
			57.6,-32.9 54,-29.3 		"/>
		<g>
			<path class="st8" d="M61.3-47.9l3.2,3.2l1.9,1.9l-3.7,3.7l3.7,3.7l-1.8,2l-3.3,3.3l-3.7-3.7L54-30.1l-5.2-5.2l3.7-3.7l-3.7-3.7
				l5.2-5.2l3.7,3.7L61.3-47.9 M54-49.6l-0.9,0.9l-5.2,5.2L47-42.6l0.9,0.9l2.8,2.8l-2.8,2.8L47-35.2l0.9,0.9l5.2,5.2l0.9,0.9
				l0.9-0.9l2.7-3l2.8,2.8l0.9,0.9l0.9-0.9l3.2-3.2l1.9-1.9l0.9-0.9l-0.9-0.9L64.6-39l2.8-2.8l0.9-0.9l-0.9-0.9l-1.9-1.9l-3.2-3.2
				l-0.9-0.9l-0.9,0.9l-2.9,2.8l-2.8-2.8L54-49.6L54-49.6z"/>
		</g>
	</g>
	<g class="st2">
		<path class="st10" d="M298.5,174.3c-4.1,0-7.5,3.4-7.5,7.5s3.4,7.5,7.5,7.5s7.5-3.4,7.5-7.5S302.7,174.3,298.5,174.3z"/>
	</g>
	<g class="st2">
		<path class="st10" d="M283.5,174.9c-1,0-2.5-0.4-3.3,0c-1.2,0.6-3,2.4-3.6,3.6c-0.4,0.8,0,2.3,0,3.3s-0.4,2.5,0,3.3
			c0.6,1.2,2.4,3,3.6,3.6c0.8,0.4,2.3,0,3.3,0s2.5,0.4,3.3,0c1.2-0.6,3-2.4,3.6-3.6c0.4-0.8,0-2.3,0-3.3s0.4-2.5,0-3.3
			c-0.6-1.2-2.4-3-3.6-3.6C286,174.5,284.4,174.9,283.5,174.9z"/>
	</g>
	<g class="st2">
		<path class="st10" d="M298.9,159.5c-1,0-2.5-0.4-3.3,0c-1.2,0.6-3,2.4-3.6,3.6c-0.4,0.8,0,2.3,0,3.3s-0.4,2.5,0,3.3
			c0.6,1.2,2.4,3,3.6,3.6c0.8,0.4,2.3,0,3.3,0s2.5,0.4,3.3,0c1.2-0.6,3-2.4,3.6-3.6c0.4-0.8,0-2.3,0-3.3s0.4-2.5,0-3.3
			c-0.6-1.2-2.4-3-3.6-3.6C301.5,159.1,299.9,159.5,298.9,159.5z"/>
	</g>
	<g class="st2">
		<path class="st10" d="M268.2,175.5c-0.7,0-2.7-1.1-3.3-0.8c-0.9,0.4-3.4,2.9-3.8,3.8c-0.3,0.6,0.8,2.6,0.8,3.3s-1.1,2.7-0.8,3.3
			c0.4,0.9,2.9,3.4,3.8,3.8c0.6,0.3,2.6-0.8,3.3-0.8c0.7,0,2.7,1.1,3.3,0.8c0.9-0.4,3.4-2.9,3.8-3.8c0.3-0.6-0.8-2.6-0.8-3.3
			s1.1-2.7,0.8-3.3c-0.4-0.9-2.9-3.4-3.8-3.8C270.9,174.4,268.9,175.5,268.2,175.5z"/>
	</g>
	<g class="st2">
		<path class="st10" d="M283.5,159.8c-0.7,0-2.7-1.1-3.3-0.8c-0.9,0.4-3.4,2.9-3.8,3.8c-0.3,0.6,0.8,2.6,0.8,3.3s-1.1,2.7-0.8,3.3
			c0.4,0.9,2.9,3.4,3.8,3.8c0.6,0.3,2.6-0.8,3.3-0.8c0.7,0,2.7,1.1,3.3,0.8c0.9-0.4,3.4-2.9,3.8-3.8c0.3-0.6-0.8-2.6-0.8-3.3
			s1.1-2.7,0.8-3.3c-0.4-0.9-2.9-3.4-3.8-3.8C286.1,158.7,284.2,159.8,283.5,159.8z"/>
	</g>
	<g class="st2">
		<path class="st10" d="M298.9,144.5c-0.7,0-2.7-1.1-3.3-0.8c-0.9,0.4-3.4,2.9-3.8,3.8c-0.3,0.6,0.8,2.6,0.8,3.3s-1.1,2.7-0.8,3.3
			c0.4,0.9,2.9,3.4,3.8,3.8c0.6,0.3,2.6-0.8,3.3-0.8c0.7,0,2.7,1.1,3.3,0.8c0.9-0.4,3.4-2.9,3.8-3.8c0.3-0.6-0.8-2.6-0.8-3.3
			s1.1-2.7,0.8-3.3c-0.4-0.9-2.9-3.4-3.8-3.8C301.6,143.4,299.7,144.5,298.9,144.5z"/>
	</g>
	<g class="st2">
		<path class="st10" d="M252.8,175.8c-0.5,0-2.8-1.8-3.3-1.6c-0.6,0.3-3.8,3.5-4,4c-0.2,0.4,1.6,2.8,1.6,3.3s-1.8,2.8-1.6,3.3
			c0.3,0.6,3.5,3.8,4,4c0.4,0.2,2.8-1.6,3.3-1.6s2.8,1.8,3.3,1.6c0.6-0.3,3.8-3.5,4-4c0.2-0.4-1.6-2.8-1.6-3.3s1.8-2.8,1.6-3.3
			c-0.3-0.6-3.5-3.8-4-4S253.3,175.8,252.8,175.8z"/>
	</g>
	<g class="st2">
		<path class="st10" d="M268.2,160.4c-0.5,0-2.8-1.8-3.3-1.6c-0.6,0.3-3.8,3.5-4,4c-0.2,0.4,1.6,2.8,1.6,3.3s-1.8,2.8-1.6,3.3
			c0.3,0.6,3.5,3.8,4,4c0.4,0.2,2.8-1.6,3.3-1.6s2.8,1.8,3.3,1.6c0.6-0.3,3.8-3.5,4-4c0.2-0.4-1.6-2.8-1.6-3.3s1.8-2.8,1.6-3.3
			c-0.3-0.6-3.5-3.8-4-4S268.7,160.4,268.2,160.4z"/>
	</g>
	<g class="st2">
		<path class="st10" d="M283.5,145c-0.5,0-2.8-1.8-3.3-1.6c-0.6,0.3-3.8,3.5-4,4c-0.2,0.4,1.6,2.8,1.6,3.3s-1.8,2.8-1.6,3.3
			c0.3,0.6,3.5,3.8,4,4c0.4,0.2,2.8-1.6,3.3-1.6s2.8,1.8,3.3,1.6c0.6-0.3,3.8-3.5,4-4c0.2-0.4-1.6-2.8-1.6-3.3s1.8-2.8,1.6-3.3
			c-0.3-0.6-3.5-3.8-4-4S283.9,145,283.5,145z"/>
	</g>
	<g class="st2">
		<path class="st10" d="M268.2,145.9c-0.2,0-3-2.5-3.2-2.4c-0.3,0.1-4.1,4-4.3,4.3c-0.1,0.2,2.4,3,2.4,3.2s-2.5,3-2.4,3.2
			c0.1,0.3,4,4.1,4.3,4.3c0.2,0.1,3-2.4,3.2-2.4s3,2.5,3.2,2.4c0.3-0.1,4.1-4,4.3-4.3c0.1-0.2-2.4-3-2.4-3.2s2.5-3,2.4-3.2
			c-0.1-0.3-4-4.1-4.3-4.3C271.2,143.4,268.4,145.9,268.2,145.9z"/>
	</g>
	<g class="st2">
		<path class="st10" d="M252.8,161.3c-0.2,0-3-2.5-3.2-2.4c-0.3,0.1-4.1,4-4.3,4.3c-0.1,0.2,2.4,3,2.4,3.2s-2.5,3-2.4,3.2
			c0.1,0.3,4,4.1,4.3,4.3c0.2,0.1,3-2.4,3.2-2.4s3,2.5,3.2,2.4c0.3-0.1,4.1-4,4.3-4.3c0.1-0.2-2.4-3-2.4-3.2s2.5-3,2.4-3.2
			c-0.1-0.3-4-4.1-4.3-4.3C255.8,158.8,253,161.3,252.8,161.3z"/>
	</g>
	<g class="st2">
		<polygon class="st10" points="260.5,147.8 256,143.3 252.8,146.5 249.6,143.3 245.1,147.8 248.3,151 245.1,154.2 249.6,158.7 
			252.8,155.5 256,158.7 260.5,154.2 257.3,151 		"/>
	</g>
	<polygon class="st11" points="188.4,-65.4 180.2,-73.6 174.3,-67.8 168.5,-73.6 160.3,-65.4 166.2,-59.6 160.3,-53.8 168.5,-45.6 
		174.3,-51.4 180.2,-45.6 188.4,-53.8 182.5,-59.6 	"/>
	<g class="st2">
		<path class="st12" d="M195.7-45c-8,0-14.6-6.5-14.6-14.6s6.5-14.6,14.6-14.6c8,0,14.6,6.5,14.6,14.6S203.8-45,195.7-45z"/>
		<path class="st8" d="M195.7-73.2c7.5,0,13.6,6.1,13.6,13.6S203.2-46,195.7-46s-13.6-6.1-13.6-13.6S188.2-73.2,195.7-73.2
			 M195.7-75.1c-8.6,0-15.5,7-15.5,15.5s7,15.5,15.5,15.5c8.6,0,15.5-7,15.5-15.5S204.3-75.1,195.7-75.1L195.7-75.1z"/>
	</g>
	<g class="st2">
		<g>
			<g>
				<g>
					<path class="st12" d="M138.3,125.6v15.9h15.8v-15.9H138.3z M151.9,135.1v4.4h-11.5h-0.1v-12.1l0,0h5h2h4.4l0,0v7.7H151.9
						L151.9,135.1z"/>
					<path class="st12" d="M151.5,134.3c-0.9-0.3-1.2-0.5-1.9-1.2h1.9v-1.6h-5.6l0.4-0.7h5.3v-1.4h-1.9c0.3-0.4,0.8-1.2,1.1-1.6h-2
						c0,0-0.6,1.1-1.1,1.6H147c0.2-0.6,0.4-1,0.6-1.6h-2c-0.2,0.7-0.4,1-0.7,1.6h-0.3c-0.3-0.6-1-1.6-1-1.6h-2.1
						c0.5,0.6,1.1,1.4,1.2,1.6H141v1.4h3.2l-0.4,0.7H141v1.6h1.6c-0.7,0.7-0.9,1-1.6,1.3v2.5c0.5-0.4,1.1-1,1.4-1.3v1.6
						c0,1.2,0.7,1.9,2.1,1.9h4.5c0.6,0,1.4-0.3,1.8-0.8c0.2-0.3,0.5-1.1,0.5-1.1c-0.9-0.3-1.8-1.2-1.8-1.2c-0.1,1.4-1.4,1.6-2.3,1.6
						h-2.4c-0.4,0-0.6-0.2-0.6-0.6v-1.7h3v0.1c0,0.4-0.3,0.5-0.8,0.5c-0.4,0-1.5,0-1.5,0v1.2c0.2,0,1.1,0,1.3,0c1.4,0,2-0.1,2.3-0.4
						c0.3-0.3,0.4-0.9,0.4-1.9c0.6,0.6,1.7,1.4,2.5,1.8v-2.3L151.5,134.3L151.5,134.3z M144.2,133.9c0.3-0.2,0.5-0.5,0.7-0.8h2.7
						c0.2,0.3,0.4,0.5,0.6,0.8H144.2z"/>
				</g>
			</g>
			<g>
				<g>
					<path class="st12" d="M129.6,136.5c1.6,1.3,2.9,1.8,5.4,2.2v2.7c-2.6-0.5-5.5-1.8-7.4-3.4c-2,1.6-4.4,2.8-7.4,3.4v-2.6
						c2.2-0.4,3.9-1.2,5.4-2.3c-1.7-1.6-3.4-4.4-4.7-7.7h2.4c0.3,0.8,0.8,1.9,1.7,3.1c0.8,1.3,1.7,2.4,2.6,3.2
						c0.7-0.6,1.8-1.7,2.6-3.1c0.8-1.4,1.6-2.7,1.8-4h-11.7v-2.1h14.6c0,0-0.1,0.9-0.4,2.1c-0.4,1.4-1,3.3-1.8,4.6
						C131.5,134.4,130.6,135.6,129.6,136.5z"/>
					<path class="st12" d="M127.6,132.8c-0.8-1.1-1.8-2.2-2.8-3.2l1.9-1.1c0.9,0.7,1.8,1.7,2.8,2.8L127.6,132.8z"/>
				</g>
			</g>
		</g>
		<g>
			<g>
				<path class="st12" d="M18.7,134.2c-0.1-1.9-0.1-2.7-0.1-3.3v-5.6h4.5L23,141.6h-3.8l-6.5-8.8l0.1,3.5v5.2H8.3l0.1-16.2h3.8
					L18.7,134.2z"/>
				<path class="st12" d="M35,142.1c-5.2,0-8.8-3.1-8.7-8.6c0-5.3,3.6-8.5,8.8-8.5s8.8,3.1,8.7,8.6C43.8,139,40.2,142.1,35,142.1z
					 M35,129c-2.5,0-4.3,1.9-4.3,4.6c0,2.7,1.8,4.6,4.3,4.6c2.6,0,4.3-1.9,4.3-4.6C39.3,130.8,37.6,129,35,129z"/>
				<path class="st12" d="M57.4,134.4c-0.1-1.9-0.1-2.7-0.1-3.3v-5.6h4.5l-0.1,16.2h-3.8l-6.5-8.8l0.1,3.6v5.2H47l0.1-16.2h3.8
					L57.4,134.4z"/>
				<path class="st12" d="M72.4,131l1.5-2.9l1.5-2.4h4.8v0.3l-5,7.8l5.3,8v0.2h-4.8l-1.5-2.3l-1.7-3l-1.8,3.1l-1.5,2.2h-4.8v-0.2
					l5.3-8l-4.9-7.8v-0.3h4.8l1.5,2.5L72.4,131z"/>
				<path class="st12" d="M90.1,142.3c-5.2,0-8.8-3.1-8.7-8.6c0-5.3,3.6-8.5,8.8-8.5c5.2,0,8.8,3.1,8.7,8.6
					C98.9,139.3,95.3,142.3,90.1,142.3z M90.2,129.2c-2.5,0-4.3,1.9-4.3,4.6c0,2.7,1.8,4.6,4.3,4.6c2.6,0,4.3-1.9,4.3-4.6
					C94.5,131,92.8,129.2,90.2,129.2z"/>
				<path class="st12" d="M24.9,163.9h-3.6l-2.8-7.8l-2.7,7.8h-3.6l-5.8-16.2h4.9l2,5.7c0.4,1.2,0.6,2.6,0.8,3.8l2.9-9.5h3.1l3,9.5
					c0.2-1.2,0.5-2.5,0.9-3.9l1.9-5.6h4.9L24.9,163.9z"/>
				<path class="st12" d="M40.5,164.4c-5.2,0-8.8-3.1-8.7-8.6c0-5.3,3.6-8.5,8.8-8.5s8.8,3.1,8.7,8.6
					C49.3,161.4,45.7,164.4,40.5,164.4z M40.6,151.3c-2.5,0-4.3,1.9-4.3,4.6c0,2.7,1.8,4.6,4.3,4.6c2.6,0,4.3-1.9,4.3-4.6
					C44.9,153.1,43.2,151.3,40.6,151.3z"/>
				<path class="st12" d="M67.1,164.1h-4.9l-3.7-5.3h-1.6v5.3h-4.5l0.1-16.2h7.7c4,0,6.1,2.7,6.1,5.6c0,2-0.7,3.7-3.4,4.9l4.1,5.5
					L67.1,164.1z M57,151.5v3.9h3.3c1.2,0,1.7-0.9,1.7-1.9s-0.6-2-1.7-2H57z"/>
				<path class="st12" d="M84,148.2l-6.4,7.7c2.2,2.5,4.7,5.5,6.9,8v0.3H79l-4.5-5.4v5.4H70l0.1-16.2h4.5v5.3
					c1.4-1.7,2.8-3.6,4.2-5.3h5.3L84,148.2z"/>
				<path class="st12" d="M96.1,152.5c-1.1-0.8-2.3-1.1-3.7-1.1c-1.1,0-2.1,0.3-2.1,1.2c0,1.1,1.1,1.3,2.6,1.4
					c3.1,0.4,6.4,1.7,6.4,5.4s-3.4,5.3-6.9,5.3c-2.8,0-4.9-0.5-7-2.9l2.5-2.9c1.5,1.6,3.3,1.8,4.6,1.9c1.5,0,2.5-0.5,2.5-1.4
					c0-0.8-0.9-1.3-2.6-1.5c-3.4-0.3-6.4-1.3-6.4-5.3c0-3.4,3.3-4.9,6.6-4.9c2.4,0,4.2,0.6,5.9,2L96.1,152.5z"/>
				<path class="st12" d="M112.4,164.3v-6.1h-5.7v6.1h-4.5l0.1-16.2h4.5v6.2h5.7v-6.2h4.4l-0.1,16.2H112.4z"/>
				<path class="st12" d="M128.8,164.8c-5.2,0-8.8-3.1-8.7-8.6c0-5.3,3.6-8.5,8.8-8.5c5.2,0,8.8,3.1,8.7,8.6
					C137.6,161.7,134,164.8,128.8,164.8z M128.8,151.7c-2.5,0-4.3,1.9-4.3,4.6c0,2.7,1.8,4.6,4.3,4.6c2.6,0,4.3-1.9,4.3-4.6
					C133.1,153.5,131.5,151.7,128.8,151.7z"/>
				<path class="st12" d="M145.2,160.1v4.4h-4.5l0.1-16.2h7.7c4.2,0,6.3,2.8,6.3,5.9c0,3.3-2.1,5.9-6.4,5.9L145.2,160.1z
					 M145.3,156.2h3.2c1.2,0,1.9-0.9,1.9-2s-0.6-2-1.9-2h-3.2V156.2z"/>
			</g>
		</g>
	</g>
	<g class="st2">
		<g>
			<g>
				<path class="st8" d="M314,41.4v15.9h15.8V41.4H314z M327.6,50.9v4.4h-11.5H316V43.2l0,0h5h2h4.4l0,0v7.7H327.6z"/>
				<path class="st8" d="M327.2,50.1c-0.9-0.3-1.2-0.5-1.9-1.2h1.9v-1.6h-5.6l0.4-0.7h5.3v-1.4h-1.9c0.3-0.4,0.8-1.2,1.1-1.6h-2
					c0,0-0.6,1.1-1.1,1.6h-0.7c0.2-0.6,0.4-1,0.6-1.6h-2c-0.2,0.7-0.4,1-0.7,1.6h-0.3c-0.3-0.6-1-1.6-1-1.6h-2.1
					c0.5,0.6,1.1,1.4,1.2,1.6h-1.7v1.4h3.2l-0.4,0.7h-2.8v1.6h1.6c-0.7,0.7-0.9,1-1.6,1.3v2.5c0.5-0.4,1.1-1,1.4-1.3V53
					c0,1.2,0.7,1.9,2.1,1.9h4.5c0.6,0,1.4-0.3,1.8-0.8c0.2-0.3,0.5-1.1,0.5-1.1c-0.9-0.3-1.8-1.2-1.8-1.2c-0.1,1.4-1.4,1.6-2.3,1.6
					h-2.4c-0.4,0-0.6-0.2-0.6-0.6v-1.7h3v0.1c0,0.4-0.3,0.5-0.8,0.5c-0.4,0-1.5,0-1.5,0v1.2c0.2,0,1.1,0,1.3,0c1.4,0,2-0.1,2.3-0.4
					s0.4-0.9,0.4-1.9c0.6,0.6,1.7,1.4,2.5,1.8L327.2,50.1L327.2,50.1z M319.9,49.7c0.3-0.2,0.5-0.5,0.7-0.8h2.7
					c0.2,0.3,0.4,0.5,0.6,0.8H319.9z"/>
			</g>
		</g>
		<g>
			<g>
				<path class="st8" d="M305.3,52.3c1.6,1.3,2.9,1.8,5.4,2.2v2.7c-2.6-0.5-5.5-1.8-7.4-3.4c-2,1.6-4.4,2.8-7.4,3.4v-2.6
					c2.2-0.4,3.9-1.2,5.4-2.3c-1.7-1.6-3.4-4.4-4.7-7.7h2.4c0.3,0.8,0.8,1.9,1.7,3.1c0.8,1.3,1.7,2.4,2.6,3.2
					c0.7-0.6,1.8-1.7,2.6-3.1c0.8-1.4,1.6-2.7,1.8-4H296v-2.1h14.6c0,0-0.1,0.9-0.4,2.1c-0.4,1.4-1,3.3-1.8,4.6
					C307.2,50.2,306.3,51.4,305.3,52.3z"/>
				<path class="st8" d="M303.3,48.6c-0.8-1.1-1.8-2.2-2.8-3.2l1.9-1.1c0.9,0.7,1.8,1.7,2.8,2.8L303.3,48.6z"/>
			</g>
		</g>
	</g>
	<g class="st2">
		<g>
			<path class="st8" d="M194.4,50c-0.1-1.9-0.1-2.7-0.1-3.3v-5.6h4.5l-0.1,16.3h-3.8l-6.5-8.8l0.1,3.5v5.2H184l0.1-16.2h3.8
				L194.4,50z"/>
			<path class="st8" d="M210.7,57.9c-5.2,0-8.8-3.1-8.7-8.6c0-5.3,3.6-8.5,8.8-8.5s8.8,3.1,8.7,8.6
				C219.5,54.8,215.9,57.9,210.7,57.9z M210.7,44.8c-2.5,0-4.3,1.9-4.3,4.6s1.8,4.6,4.3,4.6c2.6,0,4.3-1.9,4.3-4.6
				C215,46.6,213.3,44.8,210.7,44.8z"/>
			<path class="st8" d="M233.1,50.2c-0.1-1.9-0.1-2.7-0.1-3.3v-5.6h4.5l-0.1,16.2h-3.8l-6.5-8.8l0.1,3.6v5.2h-4.5l0.1-16.2h3.8
				L233.1,50.2z"/>
			<path class="st8" d="M248.1,46.8l1.5-2.9l1.5-2.4h4.8v0.3l-5,7.8l5.3,8v0.2h-4.8l-1.5-2.3l-1.7-3l-1.8,3.1l-1.5,2.2h-4.8v-0.2
				l5.3-8l-4.9-7.8v-0.3h4.8l1.5,2.5L248.1,46.8z"/>
			<path class="st8" d="M265.8,58.1c-5.2,0-8.8-3.1-8.7-8.6c0-5.3,3.6-8.5,8.8-8.5c5.2,0,8.8,3.1,8.7,8.6
				C274.6,55.1,271,58.1,265.8,58.1z M265.9,45c-2.5,0-4.3,1.9-4.3,4.6c0,2.7,1.8,4.6,4.3,4.6c2.6,0,4.3-1.9,4.3-4.6
				C270.2,46.8,268.5,45,265.9,45z"/>
			<path class="st8" d="M200.6,79.7H197l-2.8-7.8l-2.7,7.8h-3.6l-5.8-16.2h4.9l2,5.7c0.4,1.2,0.6,2.6,0.8,3.8l2.9-9.5h3.1l3,9.5
				c0.2-1.2,0.5-2.5,0.9-3.9l1.9-5.6h4.9L200.6,79.7z"/>
			<path class="st8" d="M216.2,80.2c-5.2,0-8.8-3.1-8.7-8.6c0-5.3,3.6-8.5,8.8-8.5s8.8,3.1,8.7,8.6C225,77.2,221.4,80.2,216.2,80.2z
				 M216.3,67.1c-2.5,0-4.3,1.9-4.3,4.6s1.8,4.6,4.3,4.6c2.6,0,4.3-1.9,4.3-4.6C220.6,68.9,218.9,67.1,216.3,67.1z"/>
			<path class="st8" d="M242.8,79.9h-4.9l-3.7-5.3h-1.6v5.3h-4.5l0.1-16.2h7.7c4,0,6.1,2.7,6.1,5.6c0,2-0.7,3.7-3.4,4.9l4.1,5.5
				L242.8,79.9z M232.7,67.3v3.9h3.3c1.2,0,1.7-0.9,1.7-1.9s-0.6-2-1.7-2H232.7z"/>
			<path class="st8" d="M259.7,64l-6.4,7.7c2.2,2.5,4.7,5.5,6.9,8V80h-5.5l-4.5-5.4V80h-4.5l0.1-16.2h4.5v5.3
				c1.4-1.7,2.8-3.6,4.2-5.3h5.3L259.7,64z"/>
			<path class="st8" d="M271.8,68.3c-1.1-0.8-2.3-1.1-3.7-1.1c-1.1,0-2.1,0.3-2.1,1.2c0,1.1,1.1,1.3,2.6,1.4
				c3.1,0.4,6.4,1.7,6.4,5.4s-3.4,5.3-6.9,5.3c-2.8,0-4.9-0.5-7-2.9l2.5-2.9c1.5,1.6,3.3,1.8,4.6,1.9c1.5,0,2.5-0.5,2.5-1.4
				c0-0.8-0.9-1.3-2.6-1.5c-3.4-0.3-6.4-1.3-6.4-5.3c0-3.4,3.3-4.9,6.6-4.9c2.4,0,4.2,0.6,5.9,2L271.8,68.3z"/>
			<path class="st8" d="M288.1,80.1V74h-5.7v6.1h-4.5l0.1-16.2h4.5v6.2h5.7v-6.2h4.4l-0.1,16.2H288.1z"/>
			<path class="st8" d="M304.5,80.6c-5.2,0-8.8-3.1-8.7-8.6c0-5.3,3.6-8.5,8.8-8.5c5.2,0,8.8,3.1,8.7,8.6
				C313.3,77.5,309.7,80.6,304.5,80.6z M304.5,67.5c-2.5,0-4.3,1.9-4.3,4.6s1.8,4.6,4.3,4.6c2.6,0,4.3-1.9,4.3-4.6
				C308.8,69.3,307.2,67.5,304.5,67.5z"/>
			<path class="st8" d="M320.9,75.9v4.4h-4.5l0.1-16.2h7.7c4.2,0,6.3,2.8,6.3,5.9c0,3.3-2.1,5.9-6.4,5.9
				C324.1,75.9,320.9,75.9,320.9,75.9z M321,72h3.2c1.2,0,1.9-0.9,1.9-2s-0.6-2-1.9-2H321V72z"/>
		</g>
	</g>
	<circle class="st13" cx="388.1" cy="12.9" r="34.7"/>
	<line class="st13" x1="336.2" y1="-41.1" x2="394.5" y2="17.3"/>
	<line class="st13" x1="394.5" y1="-41.1" x2="336.2" y2="17.3"/>
	<circle class="st7" cx="365.8" cy="-11.9" r="6.5"/>
	<g class="st2">
		<g>
			<g>
				<path d="M227.4,119.4v11.5h11.5v-11.5C238.9,119.4,227.4,119.4,227.4,119.4z M237.3,126.3v3.2H229h-0.1v-8.8l0,0h3.6h1.5h3.2
					l0,0L237.3,126.3L237.3,126.3z"/>
				<path d="M237.1,125.7c-0.6-0.2-0.9-0.4-1.3-0.8h1.3v-1.2H233l0.3-0.5h3.8v-1.1h-1.4c0.2-0.3,0.6-0.8,0.8-1.2H235
					c0,0-0.4,0.8-0.8,1.2h-0.5c0.2-0.4,0.3-0.7,0.4-1.2h-1.5c-0.1,0.5-0.3,0.7-0.4,1.2H232c-0.2-0.4-0.7-1.2-0.7-1.2h-1.5
					c0.4,0.4,0.8,1,0.8,1.2h-1.2v1.1h2.3l-0.3,0.5h-2v1.2h1.1c-0.5,0.5-0.7,0.7-1.1,0.9v1.8c0.4-0.3,0.8-0.7,1-0.9v1.1
					c0,0.9,0.6,1.4,1.5,1.4h3.3c0.4,0,1-0.2,1.3-0.6c0.2-0.2,0.3-0.8,0.3-0.8c-0.7-0.2-1.3-0.9-1.3-0.9c0,1-1,1.2-1.6,1.2h-1.7
					c-0.3,0-0.4-0.1-0.4-0.4v-1.3h2.2v0.1c0,0.3-0.2,0.3-0.6,0.3c-0.3,0-1.1,0-1.1,0v0.9c0.1,0,0.8,0,1,0c1,0,1.4-0.1,1.7-0.3
					c0.2-0.2,0.3-0.6,0.3-1.4c0.4,0.4,1.2,1,1.8,1.3V125.7L237.1,125.7z M231.7,125.4c0.2-0.2,0.4-0.4,0.5-0.6h2
					c0.1,0.2,0.3,0.4,0.4,0.6H231.7z"/>
			</g>
			<g>
				<path d="M234.8,113.3c1.2,0.9,2.1,1.3,3.9,1.6v2c-1.9-0.4-4-1.3-5.3-2.5c-1.5,1.1-3.2,2.1-5.4,2.5V115c1.6-0.3,2.9-0.9,3.9-1.6
					c-1.2-1.2-2.5-3.2-3.4-5.6l1.7-0.1c0.2,0.6,0.6,1.3,1.2,2.2c0.6,0.9,1.2,1.7,1.8,2.3c0.5-0.4,1.3-1.2,1.9-2.2
					c0.6-1,1.1-2,1.3-2.9h-8.5v-1.5h10.7c0,0-0.1,0.7-0.3,1.6c-0.3,1-0.7,2.4-1.3,3.3C236.2,111.8,235.5,112.7,234.8,113.3z"/>
				<path d="M233.4,110.6c-0.6-0.8-1.3-1.6-2-2.3l1.3-0.8c0.7,0.5,1.3,1.2,2,2.1L233.4,110.6z"/>
			</g>
		</g>
	</g>
	<path class="st14" d="M228.1,106.3h9.5c0,0-0.5,4.3-3.9,7c-3.3,2.6-5.5,2.7-5.5,2.7"/>
	<path class="st14" d="M229.5,107.8c0,0,0.9,3.6,3.9,5.7c2.9,2.2,5.3,2.4,5.3,2.4"/>
	<rect x="228.1" y="120.1" class="st14" width="10.1" height="10.1"/>
	<line class="st14" x1="229.3" y1="122.6" x2="237.1" y2="122.6"/>
	<line class="st14" x1="229.3" y1="124.2" x2="237.1" y2="124.2"/>
	<line class="st14" x1="230.5" y1="120.9" x2="231.5" y2="122.6"/>
	<line class="st14" x1="235.7" y1="120.9" x2="234.8" y2="122.6"/>
	<path class="st14" d="M233.3,120.9c0,0-0.7,2.4-1.5,3.3c-0.9,1-2.4,2.4-2.4,2.4"/>
	<polyline class="st14" points="232.3,127.2 234.5,127.2 234.5,125.8 231,125.8 231,128.6 235.1,128.6 236.2,127.5 	"/>
	<path class="st14" d="M234.8,124.2c0,0,0.7,1.3,1.3,1.8s0.8,0.5,0.8,0.5"/>
	<path class="st14" d="M232,108c0,0,1.6,1.5,2,2.2"/>
	<path class="st15" d="M250.6,199.9h31.3c0,0-1.6,14.2-13,23.2c-10.8,8.6-18.3,9-18.3,9"/>
	<path class="st15" d="M255.4,204.6c0,0,3.1,11.8,12.8,19c9.7,7.2,17.7,8,17.7,8"/>
	<rect x="250.6" y="245.4" class="st15" width="33.3" height="33.3"/>
	<line class="st15" x1="254.7" y1="253.6" x2="280.3" y2="253.6"/>
	<line class="st15" x1="254.7" y1="259.1" x2="280.3" y2="259.1"/>
	<line class="st15" x1="258.7" y1="248.1" x2="261.8" y2="253.6"/>
	<line class="st15" x1="275.9" y1="248.1" x2="272.9" y2="253.6"/>
	<path class="st15" d="M267.8,248.1c0,0-2.2,7.8-5.1,10.9c-2.8,3.2-8,7.9-8,7.9"/>
	<polyline class="st15" points="264.6,268.9 271.8,268.9 271.8,264.3 260.2,264.3 260.2,273.5 275.9,273.5 277.5,269.8 	"/>
	<polyline class="st15" points="272.7,259.1 275.9,266.6 279.8,266.6 	"/>
	<path class="st15" d="M263.5,205.4c0,0,5.3,5,6.6,7.3"/>
	<g class="st2">
		<g>
			<g>
				<path class="st12" d="M195.3,292.2v15.9h15.8v-15.9H195.3z M208.9,301.7v4.4h-11.5h-0.1V294l0,0h5h2h4.4l0,0v7.7H208.9z"/>
				<path class="st12" d="M208.5,300.9c-0.9-0.3-1.2-0.5-1.9-1.2h1.9v-1.6h-5.6l0.4-0.7h5.3V296h-1.9c0.3-0.4,0.8-1.2,1.1-1.6h-2
					c0,0-0.6,1.1-1.1,1.6H204c0.2-0.6,0.4-1,0.6-1.6h-2c-0.2,0.7-0.4,1-0.7,1.6h-0.3c-0.3-0.6-1-1.6-1-1.6h-2.1
					c0.5,0.6,1.1,1.4,1.2,1.6H198v1.4h3.2l-0.4,0.7H198v1.6h1.6c-0.7,0.7-0.9,1-1.6,1.3v2.5c0.5-0.4,1.1-1,1.4-1.3v1.6
					c0,1.2,0.7,1.9,2.1,1.9h4.5c0.6,0,1.4-0.3,1.8-0.8c0.2-0.3,0.5-1.1,0.5-1.1c-0.9-0.3-1.8-1.2-1.8-1.2c-0.1,1.4-1.4,1.6-2.3,1.6
					h-2.4c-0.4,0-0.6-0.2-0.6-0.6v-1.7h3v0.1c0,0.4-0.3,0.5-0.8,0.5c-0.4,0-1.5,0-1.5,0v1.2c0.2,0,1.1,0,1.3,0c1.4,0,2-0.1,2.3-0.4
					s0.4-0.9,0.4-1.9c0.6,0.6,1.7,1.4,2.5,1.8v-2.3L208.5,300.9L208.5,300.9z M201.2,300.5c0.3-0.2,0.5-0.5,0.7-0.8h2.7
					c0.2,0.3,0.4,0.5,0.6,0.8H201.2z"/>
			</g>
		</g>
		<g>
			<g>
				<path class="st12" d="M186.6,303.1c1.6,1.3,2.9,1.8,5.4,2.2v2.7c-2.6-0.5-5.5-1.8-7.4-3.4c-2,1.6-4.4,2.8-7.4,3.4v-2.6
					c2.2-0.4,3.9-1.2,5.4-2.3c-1.7-1.6-3.4-4.4-4.7-7.7h2.4c0.3,0.8,0.8,1.9,1.7,3.1c0.8,1.3,1.7,2.4,2.6,3.2
					c0.7-0.6,1.8-1.7,2.6-3.1s1.6-2.7,1.8-4h-11.7v-2.1h14.6c0,0-0.1,0.9-0.4,2.1c-0.4,1.4-1,3.3-1.8,4.6
					C188.5,301,187.6,302.2,186.6,303.1z"/>
				<path class="st12" d="M184.6,299.4c-0.8-1.1-1.8-2.2-2.8-3.2l1.9-1.1c0.9,0.7,1.8,1.7,2.8,2.8L184.6,299.4z"/>
			</g>
		</g>
	</g>
	<g class="st2">
		<g>
			<path class="st12" d="M75.7,300.8c-0.1-1.9-0.1-2.7-0.1-3.3v-5.6h4.5L80,308.2h-3.8l-6.5-8.8l0.1,3.5v5.2h-4.5l0.1-16.2h3.8
				L75.7,300.8z"/>
			<path class="st12" d="M92,308.7c-5.2,0-8.8-3.1-8.7-8.6c0-5.3,3.6-8.5,8.8-8.5c5.2,0,8.8,3.1,8.7,8.6
				C100.8,305.6,97.2,308.7,92,308.7z M92,295.6c-2.5,0-4.3,1.9-4.3,4.6s1.8,4.6,4.3,4.6c2.6,0,4.3-1.9,4.3-4.6
				C96.3,297.4,94.6,295.6,92,295.6z"/>
			<path class="st12" d="M114.4,301c-0.1-1.9-0.1-2.7-0.1-3.3v-5.6h4.5l-0.1,16.2h-3.8l-6.5-8.8l0.1,3.6v5.2H104l0.1-16.2h3.8
				L114.4,301z"/>
			<path class="st12" d="M129.4,297.6l1.5-2.9l1.5-2.4h4.8v0.3l-5,7.8l5.3,8v0.2h-4.8l-1.5-2.3l-1.7-3l-1.8,3.1l-1.5,2.2h-4.8v-0.2
				l5.3-8l-4.9-7.8v-0.3h4.8l1.5,2.5L129.4,297.6z"/>
			<path class="st12" d="M147.1,308.9c-5.2,0-8.8-3.1-8.7-8.6c0-5.3,3.6-8.5,8.8-8.5s8.8,3.1,8.7,8.6
				C155.9,305.9,152.3,308.9,147.1,308.9z M147.2,295.8c-2.5,0-4.3,1.9-4.3,4.6s1.8,4.6,4.3,4.6c2.6,0,4.3-1.9,4.3-4.6
				C151.5,297.6,149.8,295.8,147.2,295.8z"/>
			<path class="st12" d="M81.9,330.5h-3.6l-2.8-7.8l-2.7,7.8h-3.6l-5.8-16.2h4.9l2,5.7c0.4,1.2,0.6,2.6,0.8,3.8l2.9-9.5h3.1l3,9.5
				c0.2-1.2,0.5-2.5,0.9-3.9l1.9-5.6h4.9L81.9,330.5z"/>
			<path class="st12" d="M97.5,331c-5.2,0-8.8-3.1-8.7-8.6c0-5.3,3.6-8.5,8.8-8.5c5.2,0,8.8,3.1,8.7,8.6
				C106.3,328,102.7,331,97.5,331z M97.6,317.9c-2.5,0-4.3,1.9-4.3,4.6s1.8,4.6,4.3,4.6c2.6,0,4.3-1.9,4.3-4.6
				C101.9,319.7,100.2,317.9,97.6,317.9z"/>
			<path class="st12" d="M124.1,330.7h-4.9l-3.7-5.3h-1.6v5.3h-4.5l0.1-16.2h7.7c4,0,6.1,2.7,6.1,5.6c0,2-0.7,3.7-3.4,4.9l4.1,5.5
				L124.1,330.7z M114,318.1v3.9h3.3c1.2,0,1.7-0.9,1.7-1.9s-0.6-2-1.7-2H114z"/>
			<path class="st12" d="M141,314.8l-6.4,7.7c2.2,2.5,4.7,5.5,6.9,8v0.3H136l-4.5-5.4v5.4H127l0.1-16.2h4.5v5.3
				c1.4-1.7,2.8-3.6,4.2-5.3h5.3L141,314.8z"/>
			<path class="st12" d="M153.1,319.1c-1.1-0.8-2.3-1.1-3.7-1.1c-1.1,0-2.1,0.3-2.1,1.2c0,1.1,1.1,1.3,2.6,1.4
				c3.1,0.4,6.4,1.7,6.4,5.4c0,3.7-3.4,5.3-6.9,5.3c-2.8,0-4.9-0.5-7-2.9l2.5-2.9c1.5,1.6,3.3,1.8,4.6,1.9c1.5,0,2.5-0.5,2.5-1.4
				c0-0.8-0.9-1.3-2.6-1.5c-3.4-0.3-6.4-1.3-6.4-5.3c0-3.4,3.3-4.9,6.6-4.9c2.4,0,4.2,0.6,5.9,2L153.1,319.1z"/>
			<path class="st12" d="M169.4,330.9v-6.1h-5.7v6.1h-4.5l0.1-16.2h4.5v6.2h5.7v-6.2h4.4l-0.1,16.2H169.4z"/>
			<path class="st12" d="M185.8,331.4c-5.2,0-8.8-3.1-8.7-8.6c0-5.3,3.6-8.5,8.8-8.5s8.8,3.1,8.7,8.6
				C194.6,328.3,191,331.4,185.8,331.4z M185.8,318.3c-2.5,0-4.3,1.9-4.3,4.6s1.8,4.6,4.3,4.6c2.6,0,4.3-1.9,4.3-4.6
				C190.1,320.1,188.5,318.3,185.8,318.3z"/>
			<path class="st12" d="M202.2,326.7v4.4h-4.5l0.1-16.2h7.7c4.2,0,6.3,2.8,6.3,5.9c0,3.3-2.1,5.9-6.4,5.9L202.2,326.7L202.2,326.7z
				 M202.3,322.8h3.2c1.2,0,1.9-0.9,1.9-2s-0.6-2-1.9-2h-3.2V322.8z"/>
		</g>
	</g>
	<g class="st2">
		<g>
			<g>
				<path class="st12" d="M353.6-38.7v15.9h15.8v-15.9H353.6z M367.2-29.2v4.4h-11.5h-0.1v-12.1l0,0h5h2h4.4l0,0v7.7H367.2z"/>
				<path class="st12" d="M366.8-30c-0.9-0.3-1.2-0.5-1.9-1.2h1.9v-1.6h-5.6l0.4-0.7h5.3v-1.4H365c0.3-0.4,0.8-1.2,1.1-1.6h-2
					c0,0-0.6,1.1-1.1,1.6h-0.7c0.2-0.6,0.4-1,0.6-1.6h-2c-0.2,0.7-0.4,1-0.7,1.6h-0.3c-0.3-0.6-1-1.6-1-1.6h-2.1
					c0.5,0.6,1.1,1.4,1.2,1.6h-1.7v1.4h3.2l-0.4,0.7h-2.8v1.6h1.6c-0.7,0.7-0.9,1-1.6,1.3v2.5c0.5-0.4,1.1-1,1.4-1.3v1.6
					c0,1.2,0.7,1.9,2.1,1.9h4.5c0.6,0,1.4-0.3,1.8-0.8c0.2-0.3,0.5-1.1,0.5-1.1c-0.9-0.3-1.8-1.2-1.8-1.2c-0.1,1.4-1.4,1.6-2.3,1.6
					h-2.4c-0.4,0-0.6-0.2-0.6-0.6V-29h3v0.1c0,0.4-0.3,0.5-0.8,0.5c-0.4,0-1.5,0-1.5,0v1.2c0.2,0,1.1,0,1.3,0c1.4,0,2-0.1,2.3-0.4
					s0.4-0.9,0.4-1.9c0.6,0.6,1.7,1.4,2.5,1.8L366.8-30L366.8-30z M359.5-30.4c0.3-0.2,0.5-0.5,0.7-0.8h2.7c0.2,0.3,0.4,0.5,0.6,0.8
					H359.5z"/>
			</g>
		</g>
		<g>
			<g>
				<path class="st12" d="M344.9-27.8c1.6,1.3,2.9,1.8,5.4,2.2v2.7c-2.6-0.5-5.5-1.8-7.4-3.4c-2,1.6-4.4,2.8-7.4,3.4v-2.6
					c2.2-0.4,3.9-1.2,5.4-2.3c-1.7-1.6-3.4-4.4-4.7-7.7h2.4c0.3,0.8,0.8,1.9,1.7,3.1c0.8,1.3,1.7,2.4,2.6,3.2
					c0.7-0.6,1.8-1.7,2.6-3.1c0.8-1.4,1.6-2.7,1.8-4h-11.7v-2.1h14.6c0,0-0.1,0.9-0.4,2.1c-0.4,1.4-1,3.3-1.8,4.6
					C346.8-29.9,345.9-28.7,344.9-27.8z"/>
				<path class="st12" d="M342.9-31.5c-0.8-1.1-1.8-2.2-2.8-3.2l1.9-1.1c0.9,0.7,1.8,1.7,2.8,2.8L342.9-31.5z"/>
			</g>
		</g>
	</g>
	<g class="st2">
		<g>
			<path class="st12" d="M234-30.1c-0.1-1.9-0.1-2.7-0.1-3.3V-39h4.5l-0.1,16.3h-3.8l-6.5-8.8l0.1,3.5v5.2h-4.5l0.1-16.2h3.8
				L234-30.1z"/>
			<path class="st12" d="M250.3-22.2c-5.2,0-8.8-3.1-8.7-8.6c0-5.3,3.6-8.5,8.8-8.5s8.8,3.1,8.7,8.6
				C259.1-25.3,255.5-22.2,250.3-22.2z M250.3-35.3c-2.5,0-4.3,1.9-4.3,4.6s1.8,4.6,4.3,4.6c2.6,0,4.3-1.9,4.3-4.6
				C254.6-33.5,252.9-35.3,250.3-35.3z"/>
			<path class="st12" d="M272.7-29.9c-0.1-1.9-0.1-2.7-0.1-3.3v-5.6h4.5L277-22.6h-3.8l-6.5-8.8l0.1,3.6v5.2h-4.5l0.1-16.2h3.8
				L272.7-29.9z"/>
			<path class="st12" d="M287.7-33.3l1.5-2.9l1.5-2.4h4.8v0.3l-5,7.8l5.3,8v0.2H291l-1.5-2.3l-1.7-3l-1.8,3.1l-1.5,2.2h-4.8v-0.2
				l5.3-8l-4.9-7.8v-0.3h4.8l1.5,2.5L287.7-33.3z"/>
			<path class="st12" d="M305.4-22c-5.2,0-8.8-3.1-8.7-8.6c0-5.3,3.6-8.5,8.8-8.5c5.2,0,8.8,3.1,8.7,8.6C314.2-25,310.6-22,305.4-22
				z M305.5-35.1c-2.5,0-4.3,1.9-4.3,4.6s1.8,4.6,4.3,4.6c2.6,0,4.3-1.9,4.3-4.6C309.8-33.3,308.1-35.1,305.5-35.1z"/>
			<path class="st12" d="M240.2-0.4h-3.6l-2.8-7.8l-2.7,7.8h-3.6l-5.8-16.2h4.9l2,5.7c0.4,1.2,0.6,2.6,0.8,3.8l2.9-9.5h3.1l3,9.5
				c0.2-1.2,0.5-2.5,0.9-3.9l1.9-5.6h4.9L240.2-0.4z"/>
			<path class="st12" d="M255.8,0.1c-5.2,0-8.8-3.1-8.7-8.6c0-5.3,3.6-8.5,8.8-8.5s8.8,3.1,8.7,8.6C264.6-2.9,261,0.1,255.8,0.1z
				 M255.9-13c-2.5,0-4.3,1.9-4.3,4.6s1.8,4.6,4.3,4.6c2.6,0,4.3-1.9,4.3-4.6C260.2-11.2,258.5-13,255.9-13z"/>
			<path class="st12" d="M282.4-0.2h-4.9l-3.7-5.3h-1.6v5.3h-4.5l0.1-16.2h7.7c4,0,6.1,2.7,6.1,5.6c0,2-0.7,3.7-3.4,4.9l4.1,5.5
				L282.4-0.2z M272.3-12.8v3.9h3.3c1.2,0,1.7-0.9,1.7-1.9s-0.6-2-1.7-2C275.6-12.8,272.3-12.8,272.3-12.8z"/>
			<path class="st12" d="M299.3-16.1l-6.4,7.7c2.2,2.5,4.7,5.5,6.9,8v0.3h-5.5l-4.5-5.4v5.4h-4.5l0.1-16.2h4.5v5.3
				c1.4-1.7,2.8-3.6,4.2-5.3h5.3L299.3-16.1z"/>
			<path class="st12" d="M311.4-11.8c-1.1-0.8-2.3-1.1-3.7-1.1c-1.1,0-2.1,0.3-2.1,1.2c0,1.1,1.1,1.3,2.6,1.4
				c3.1,0.4,6.4,1.7,6.4,5.4s-3.4,5.3-6.9,5.3c-2.8,0-4.9-0.5-7-2.9l2.5-2.9c1.5,1.6,3.3,1.8,4.6,1.9c1.5,0,2.5-0.5,2.5-1.4
				c0-0.8-0.9-1.3-2.6-1.5c-3.4-0.3-6.4-1.3-6.4-5.3c0-3.4,3.3-4.9,6.6-4.9c2.4,0,4.2,0.6,5.9,2L311.4-11.8z"/>
			<path class="st12" d="M327.7,0v-6.1H322V0h-4.5l0.1-16.2h4.5v6.2h5.7v-6.2h4.4L332.1,0H327.7z"/>
			<path class="st12" d="M344.1,0.5c-5.2,0-8.8-3.1-8.7-8.6c0-5.3,3.6-8.5,8.8-8.5c5.2,0,8.8,3.1,8.7,8.6
				C352.9-2.6,349.3,0.5,344.1,0.5z M344.1-12.6c-2.5,0-4.3,1.9-4.3,4.6s1.8,4.6,4.3,4.6c2.6,0,4.3-1.9,4.3-4.6
				C348.4-10.8,346.8-12.6,344.1-12.6z"/>
			<path class="st12" d="M360.5-4.2v4.4H356l0.1-16.2h7.7c4.2,0,6.3,2.8,6.3,5.9c0,3.3-2.1,5.9-6.4,5.9L360.5-4.2L360.5-4.2z
				 M360.6-8.1h3.2c1.2,0,1.9-0.9,1.9-2s-0.6-2-1.9-2h-3.2V-8.1z"/>
		</g>
	</g>
	<g class="st2">
		<path class="st12" d="M88.4,257.1c0,5.9,4.8,10.6,10.6,10.6s10.6-4.8,10.6-10.6c0-5.9-4.8-10.6-10.6-10.6S88.4,251.2,88.4,257.1z"
			/>
	</g>
	<g class="st2">
		<path class="st12" d="M64,257.1c0,5.9,4.8,10.6,10.6,10.6s10.6-4.8,10.6-10.6c0-5.9-4.8-10.6-10.6-10.6S64,251.2,64,257.1z"/>
	</g>
	<g class="st2">
		<path class="st12" d="M315.5,257.1c0,5.9,4.8,10.6,10.6,10.6c5.9,0,10.6-4.8,10.6-10.6c0-5.9-4.8-10.6-10.6-10.6
			S315.5,251.2,315.5,257.1z"/>
	</g>
	<g class="st2">
		<path class="st12" d="M291.1,257.1c0,5.9,4.8,10.6,10.6,10.6c5.9,0,10.6-4.8,10.6-10.6c0-5.9-4.8-10.6-10.6-10.6
			S291.1,251.2,291.1,257.1z"/>
	</g>
	<g class="st2">
		<path class="st12" d="M-173.1,47.8c-0.1-2.2-0.1-3.1-0.1-3.7v-6.4h5.1l-0.1,18.5h-4.3l-7.4-10l0.1,4v5.9h-5.1l0.1-18.4h4.3
			L-173.1,47.8z"/>
	</g>
	<g class="st2">
		<path class="st12" d="M-154.6,56.7c-5.9,0-10-3.5-9.9-9.8c0-6,4.1-9.7,10-9.7s10,3.5,9.9,9.8C-144.6,53.2-148.7,56.7-154.6,56.7z
			 M-154.6,41.9c-2.8,0-4.9,2.2-4.9,5.2c0,3.1,2,5.2,4.9,5.2c3,0,4.9-2.2,4.9-5.2C-149.7,43.9-151.6,41.9-154.6,41.9z"/>
	</g>
	<g class="st2">
		<path class="st12" d="M-129.2,48c-0.1-2.2-0.1-3.1-0.1-3.7v-6.4h5.1l-0.1,18.4h-4.3l-7.4-10l0.1,4.1v5.9h-5.1l0.1-18.4h4.3
			L-129.2,48z"/>
	</g>
	<g class="st2">
		<polygon class="st12" points="-106.2,43.9 -104.5,40.6 -102.8,37.9 -97.4,37.9 -97.4,38.3 -103,47.1 -97,56.2 -97,56.4 
			-102.5,56.4 -104.2,53.8 -106.1,50.4 -108.2,53.9 -109.9,56.4 -115.3,56.4 -115.3,56.2 -109.3,47.1 -114.9,38.3 -114.9,37.9 
			-109.4,37.9 -107.7,40.8 		"/>
	</g>
	<g class="st2">
		<path class="st12" d="M-86.1,56.8c-5.9,0-10-3.5-9.9-9.8c0-6,4.1-9.7,10-9.7s10,3.5,9.9,9.8C-76.1,53.4-80.2,56.8-86.1,56.8z
			 M-86,41.9c-2.8,0-4.9,2.2-4.9,5.2c0,3.1,2,5.2,4.9,5.2c3,0,4.9-2.2,4.9-5.2C-81.1,43.9-83.1,41.9-86,41.9z"/>
	</g>
	<g class="st2">
		<g>
			<g>
				<path d="M53.6,98.1v20.1h20V98.1H53.6z M70.8,110.1v5.6H56.3h-0.1v-15.3l0,0h6.4h2.5h5.6l0,0L70.8,110.1L70.8,110.1z"/>
				<path d="M70.4,109c-1.1-0.4-1.6-0.7-2.4-1.5h2.4v-2h-7.2l0.5-0.9h6.7v-1.9H68c0.4-0.5,1.1-1.5,1.3-2h-2.5c0,0-0.8,1.5-1.3,2
					h-0.9c0.3-0.8,0.5-1.2,0.7-2h-2.5c-0.1,0.9-0.5,1.3-0.8,2h-0.4c-0.3-0.8-1.3-2-1.3-2h-2.7c0.7,0.8,1.3,1.7,1.5,2H57v1.9h4
					l-0.5,0.9H57v2h2c-0.9,0.9-1.2,1.3-2,1.6v3.2c0.7-0.5,1.5-1.3,1.7-1.6v2c0,1.6,0.9,2.4,2.7,2.4h5.7c0.8,0,1.7-0.4,2.3-1.1
					c0.3-0.4,0.5-1.5,0.5-1.5c-1.2-0.4-2.4-1.6-2.4-1.6c0,1.7-1.6,2-2.7,2h-3.2c-0.5,0-0.8-0.1-0.8-0.7v-2.3h3.9v0.1
					c0,0.5-0.3,0.5-0.9,0.5c-0.5,0-1.9,0-1.9,0v1.6c0.1,0,1.5,0,1.6,0c1.7,0,2.4-0.1,2.9-0.5c0.4-0.4,0.5-1.1,0.5-2.4
					c0.7,0.8,2.1,1.7,3.2,2.3L70.4,109L70.4,109z M61.1,108.5c0.3-0.3,0.7-0.7,0.9-1.1h3.5c0.1,0.4,0.5,0.7,0.8,1.1H61.1z"/>
			</g>
			<g>
				<path d="M42.9,111.6c2,1.6,3.7,2.4,6.8,2.8v3.5c-3.3-0.7-6.9-2.4-9.2-4.3c-2.5,2-5.6,3.6-9.3,4.3v-3.3c2.7-0.5,4.9-1.6,6.8-2.8
					c-2.1-2-4.3-5.6-6-9.7l3.1-0.1c0.4,1.1,1.1,2.4,2.1,3.9c0.9,1.6,2.1,3.1,3.2,4c0.9-0.8,2.3-2.1,3.3-3.9c1.1-1.7,2-3.5,2.3-4.9
					H31.2v-2.7h18.4c0,0-0.1,1.2-0.5,2.7c-0.5,1.7-1.3,4.1-2.4,5.7C45.3,108.9,44,110.5,42.9,111.6z"/>
				<path d="M40.4,106.9c-1.1-1.3-2.3-2.7-3.5-4l2.4-1.3c1.2,0.9,2.4,2.1,3.5,3.6L40.4,106.9z"/>
			</g>
		</g>
	</g>
	<g class="st2">
		<path d="M26.9,51.8V60h8.2v-8.2H26.9z M33.9,56.7V59H28h-0.1v-6.3l0,0h2.6h1.1h2.3l0,0V56.7L33.9,56.7z"/>
		<path d="M33.7,56.3c-0.4-0.2-0.7-0.3-1-0.6h1v-0.8h-3l0.2-0.4h2.7v-0.8h-1c0.2-0.2,0.4-0.6,0.6-0.8h-1.1c0,0-0.3,0.6-0.6,0.8h-0.4
			c0.1-0.3,0.2-0.5,0.3-0.8h-1.1c-0.1,0.4-0.2,0.6-0.3,0.8h-0.2c-0.1-0.3-0.6-0.8-0.6-0.8h-1.1c0.3,0.3,0.6,0.7,0.6,0.8h-0.9v0.8
			h1.7l0.1,0.4h-1.4v0.8H29c-0.4,0.4-0.5,0.6-0.8,0.7v1.3c0.3-0.2,0.6-0.6,0.7-0.7v0.8c0,0.7,0.4,1,1.1,1h2.4c0.3,0,0.7-0.2,0.9-0.4
			c0.1-0.2,0.2-0.6,0.2-0.6c-0.5-0.2-1-0.7-1-0.7c0,0.7-0.7,0.8-1.1,0.8h-1.3c-0.2,0-0.3-0.1-0.3-0.3v-0.9h1.6v0.1
			c0,0.2-0.1,0.2-0.4,0.2c-0.2,0-0.8,0-0.8,0v0.7c0.1,0,0.6,0,0.7,0c0.7,0,1-0.1,1.2-0.2c0.2-0.2,0.2-0.4,0.2-1
			c0.3,0.3,0.9,0.7,1.3,0.9L33.7,56.3L33.7,56.3z M29.9,56c0.1-0.1,0.3-0.3,0.4-0.4h1.4c0.1,0.2,0.2,0.3,0.3,0.4H29.9z"/>
	</g>
	<g class="st2">
		<path d="M0,57.2c0.8,0.6,1.5,1,2.8,1.1v1.4C1.4,59.4,0,58.7-1,58c-1.1,0.8-2.3,1.4-3.8,1.7v-1.3c1.1-0.2,2-0.6,2.8-1.1
			c-0.9-0.8-1.8-2.2-2.5-3.8l1.3-0.1c0.2,0.4,0.4,1,0.9,1.5c0.4,0.6,0.9,1.2,1.3,1.6c0.4-0.3,0.9-0.9,1.4-1.5
			c0.4-0.7,0.8-1.4,0.9-1.9h-6.1v-1.2h7.5c0,0-0.1,0.5-0.2,1.1c-0.2,0.7-0.6,1.6-1,2.3C1,56.2,0.5,56.8,0,57.2z"/>
		<path d="M-1,55.4c-0.4-0.6-0.9-1.1-1.4-1.6l1-0.5c0.5,0.4,1,0.9,1.4,1.4L-1,55.4z"/>
	</g>
	<polygon class="st11" points="160.8,-14.5 163.6,-17.3 161.6,-19.4 163.6,-21.4 160.8,-24.2 158.8,-22.2 156.8,-24.2 153.9,-21.4 
		155.9,-19.4 153.9,-17.3 156.8,-14.5 158.8,-16.5 	"/>
	<path class="st11" d="M153.4-9.4c0-2.8,2.3-5.1,5.1-5.1s5.1,2.3,5.1,5.1s-2.3,5.1-5.1,5.1S153.4-6.6,153.4-9.4z"/>
	<g class="st2">
		<line class="st16" x1="-102.2" y1="-72.9" x2="-72.9" y2="-54.5"/>
		<line class="st16" x1="-72.9" y1="-72.9" x2="-102.2" y2="-54.5"/>
		<ellipse class="st17" cx="-52.1" cy="-63.7" rx="14.6" ry="9.2"/>
	</g>
	<g class="st18">
		<path d="M9.6,58.4c-0.1-2.5-0.1-3.3-0.2-4.2v-6.8h5.7v20.3h-4.7l-8.2-11l0.1,4.5v6.5h-5.7V47.5h4.7L9.6,58.4z"/>
		<path d="M28.9,68c-6.4,0-11-3.8-11-10.7c0-6.6,4.5-10.7,11-10.7s11,3.8,11,10.7S35.4,68,28.9,68z M28.9,51.7
			c-3.2,0-5.3,2.3-5.3,5.8s2.2,5.8,5.3,5.8c3.3,0,5.3-2.3,5.3-5.8C34.4,54,32.2,51.7,28.9,51.7z"/>
		<path d="M55.8,58.4c-0.1-2.4-0.1-3.4-0.1-4.1v-6.9h5.7v20.3h-4.7l-8.2-10.9l0.1,4.5v6.5h-5.7V47.5h4.7L55.8,58.4z"/>
		<path d="M73.3,54.1l1.8-3.6l1.9-3.1h6v0.3l-6.2,9.7l6.6,9.9v0.2h-6.1l-1.8-2.8L73.3,61l-2.2,3.8l-1.8,2.8h-6.1v-0.2l6.6-9.9
			l-6.2-9.7v-0.4h6l1.8,3.1L73.3,54.1z"/>
		<path d="M94.4,68c-6.4,0-11-3.8-11-10.7c0-6.6,4.5-10.7,11-10.7s11,3.8,11,10.7S100.9,68,94.4,68z M94.4,51.7
			c-3.2,0-5.3,2.3-5.3,5.8s2.2,5.8,5.3,5.8c3.3,0,5.3-2.3,5.3-5.8C99.8,54,97.7,51.7,94.4,51.7z"/>
	</g>
	<text transform="matrix(0.9723 0 0 1 -103.6943 107.543)" class="st2" style="font-family:'NexaBlack'; font-size:29.0193px;">NONXO</text>
	
		<text transform="matrix(0.9723 0 0 1 -61.8418 12.771)" class="st2" style="font-family:'NotoSansCJKtc-Black-B5pc-H'; font-size:25.3604px;">影</text>
	<path class="st2" d="M86.5,84.6l0.2,0.2h1.5v1h-4.7v-1h1.7c0-0.1-0.1-0.1-0.1-0.2H86.5z"/>
	<path class="st2" d="M89.2,84.2c0.9-0.6,1.8-1.4,2.5-2.3l-1.3-0.5c-0.4,0.7-1.3,1.4-2.1,1.8C88.4,83.2,89,83.9,89.2,84.2z"/>
	<path class="st2" d="M83.5,81.7v2.7h4.7v-2.7H83.5z M86.9,83.7h-2.1v-0.3h2.1V83.7z M86.9,82.8h-2.1v-0.3h2.1V82.8z"/>
	<path class="st2" d="M87.5,88h0.6v-2h-4.4v2h0.2l0,0h1.2v1c0,0.2-0.5,0.1-0.5,0.1v1.1c0,0,1,0.1,1.4-0.1s0.4-0.5,0.4-1v-0.7
		c0.3,0.5,0.6,1.4,0.7,1.8h1.2C88.3,89.6,87.7,88.5,87.5,88z M85,87.2v-0.4h1.8v0.4H85z M86.5,88.3V88h0.7L86.5,88.3z"/>
	<path class="st2" d="M84.6,89.1c0.2-0.3,0.3-0.6,0.4-0.8L84,88c-0.2,0.6-0.9,1.3-0.9,1.3l0.8,0.8c0,0,0.3-0.4,0.6-0.8L84.6,89.1z"
		/>
	<path class="st2" d="M91.9,87c-0.7,1.3-1.7,2.3-2.9,3c-0.2-0.3-0.6-0.8-0.9-1c1-0.5,2.1-1.4,2.6-2.4L91.9,87z"/>
	<path class="st2" d="M91.7,84.6c-0.7,1-1.7,1.8-2.6,2.4c-0.2-0.3-0.6-0.7-0.9-0.9c0.8-0.4,1.8-1.2,2.3-2L91.7,84.6z"/>
	<g class="st2">
		<path d="M61.9,54.8l0.2,0.2h1.5v1H59v-1h1.7c0-0.1-0.1-0.1-0.1-0.2H61.9z"/>
		<path d="M63.8,54.3c0,0,2.5,0.3,3-2.5h-1.3c-0.4,1-0.5,1.2-1.7,1.2V54.3z"/>
		<path d="M63.8,56.8c0,0,2.7,0.3,3.3-2.6h-1.3c-0.4,1-0.7,1.3-2,1.3C63.8,55.5,63.8,56.8,63.8,56.8z"/>
		<path d="M63.8,59.9c0,0,2.8,0.4,3.5-3.2h-1.4c-0.4,1.3-0.7,1.9-2.1,1.9C63.8,58.6,63.8,59.9,63.8,59.9z"/>
		<path d="M59,52v2.7h4.6V52H59z M62.3,53.9h-2v-0.3h2V53.9z M62.3,53h-2v-0.3h2V53z"/>
		<path d="M62.9,58.1h0.6v-1.9h-4.2v1.9h0.2l0,0h1.1v1c0,0.2-0.4,0.1-0.4,0.1v1.1c0,0,1,0.1,1.3-0.1s0.4-0.5,0.4-1v-0.6
			c0.3,0.5,0.6,1.4,0.7,1.7h1.1C63.7,59.6,63.1,58.5,62.9,58.1z M60.4,57.2v-0.3h1.7v0.4L60.4,57.2L60.4,57.2z M61.9,58.4v-0.3h0.7
			L61.9,58.4z"/>
		<path d="M60.1,59.1c0.2-0.3,0.3-0.6,0.4-0.8l-1-0.3c-0.2,0.6-0.9,1.3-0.9,1.3l0.8,0.8c0,0,0.3-0.4,0.6-0.8L60.1,59.1z"/>
	</g>
	<path class="st2" d="M70.3,85.9l0.2,0.2H72v1h-4.7v-1H69c0-0.1-0.1-0.1-0.1-0.2H70.3z"/>
	<path class="st2" d="M72.2,85.4c0,0,2.5,0.3,3.1-2.5h-1.4c-0.4,1-0.5,1.3-1.7,1.3V85.4z"/>
	<path class="st2" d="M72.2,88c0,0,2.8,0.3,3.4-2.7h-1.3c-0.4,1.1-0.7,1.3-2.1,1.3V88z"/>
	<path class="st2" d="M72.2,91.2c0,0,2.9,0.4,3.5-3.2h-1.4c-0.4,1.3-0.7,1.9-2.1,1.9V91.2z"/>
	<path class="st2" d="M67.3,83v2.7H72V83H67.3z M70.6,84.9h-2v-0.3h2V84.9z M70.6,84h-2v-0.3h2V84z"/>
	<path class="st2" d="M71.2,89.2h0.6v-2h-4.4v2h0.2l0,0h1.2v1c0,0.2-0.5,0.1-0.5,0.1v1.1c0,0,1,0.1,1.4-0.1s0.4-0.5,0.4-1v-0.7
		c0.3,0.5,0.6,1.4,0.7,1.8H72C72.1,90.8,71.5,89.7,71.2,89.2z M68.7,88.4V88h1.8v0.4H68.7z M70.3,89.6v-0.3H71L70.3,89.6z"/>
	<path class="st2" d="M68.4,90.3c0.2-0.3,0.3-0.6,0.4-0.8l-1-0.3c-0.2,0.6-0.9,1.3-0.9,1.3l0.8,0.8c0,0,0.3-0.4,0.6-0.8L68.4,90.3z"
		/>
	<g class="st2">
		<path d="M91,59.1h7.8V60H91V59.1z M98.7,55.5v0.8h-7.6v-0.8h3.1v-0.2h-2.7v-0.7h2.7v-0.2h-2.4v-0.7h2.4v-0.2h-3v-0.7h3v-0.2h-2.4
			v-0.7h2.4v-0.2h1.3v0.2h2.6v0.9h0.6v0.7h-0.6v0.9h-2.6v0.2h2.9v0.7h-2.9v0.2H98.7z M98.1,56.5v2.4h-6.2v-2.3L98.1,56.5L98.1,56.5z
			 M93.1,57.4h1.2v-0.2h-1.2V57.4z M93.1,58.2h1.2v-0.3h-1.2V58.2z M96.8,57.1h-1.3v0.2h1.3V57.1z M96.8,58h-1.3v0.3h1.3V58z
			 M95.5,52.7h1.3v-0.2h-1.3V52.7z M95.5,53.6h1.3v-0.2h-1.3V53.6z"/>
	</g>
	<g class="st18">
		<path d="M23.1-31.5c0,5.1-3.1,8.9-8.6,8.9c-5.4,0-8.9-3.8-8.9-8.9c0-4.9,3.4-8.9,8.9-8.9S23.1-36.6,23.1-31.5z M14.5-25
			c3.8,0,6.1-2.6,6.1-6.5S18.4-38,14.5-38c-3.8,0-6.3,2.7-6.3,6.5C8.2-27.6,10.7-25,14.5-25z M16.5-30.1c2.8-0.8,2.5-5.7-1.6-5.7
			c-1.4,0-2.5,0-3.9,0v8.8h2.4v-2.6h1l1.4,2.6h2.6L16.5-30.1z M15-33.7c1.2,0,1.2,2,0,2h-1.7v-2H15z"/>
	</g>
	<g class="st18">
		<path d="M154.9,6.3c0,2.5-1.5,4.3-4.2,4.3c-2.6,0-4.3-1.8-4.3-4.3c0-2.4,1.6-4.3,4.3-4.3C153.4,2.1,154.9,3.9,154.9,6.3z
			 M150.8,9.5c1.8,0,2.9-1.2,2.9-3.2c0-1.9-1.1-3.1-2.9-3.1c-1.8,0-3,1.3-3,3.1C147.7,8.2,148.9,9.5,150.8,9.5z M151.7,7
			c1.4-0.4,1.2-2.7-0.8-2.7c-0.7,0-1.2,0-1.9,0v4.3h1.2V7.3h0.5l0.7,1.3h1.3L151.7,7z M151,5.3c0.6,0,0.6,1,0,1h-0.8v-1H151z"/>
	</g>
	<line class="st9" x1="-6.6" y1="92.2" x2="72.2" y2="92.2"/>
	<g class="st2">
		<g>
			<path d="M-114.6-153.5c-0.1-1.5-0.1-2-0.1-2.5v-4.2h3.4v12.3h-2.9l-5-6.6l0.1,2.7v3.9h-3.4v-12.3h2.9L-114.6-153.5z"/>
			<path d="M-102.9-147.6c-3.9,0-6.6-2.3-6.6-6.5c0-4,2.7-6.5,6.6-6.5s6.6,2.4,6.6,6.5C-96.3-149.9-99-147.6-102.9-147.6z
				 M-102.9-157.5c-1.9,0-3.3,1.4-3.3,3.5s1.4,3.5,3.3,3.5c2,0,3.3-1.4,3.3-3.5C-99.6-156.2-100.9-157.5-102.9-157.5z"/>
			<path d="M-86.6-153.5c-0.1-1.5-0.1-2-0.1-2.5v-4.2h3.4v12.3h-2.9l-5-6.6l0.1,2.7v3.9h-3.4v-12.3h2.9L-86.6-153.5z"/>
			<path d="M-76-156.1l1.1-2.2l1.1-1.8h3.6v0.2L-74-154l4,6.1v0.1h-3.7l-1.1-1.7l-1.3-2.3l-1.3,2.3l-1.1,1.7h-3.7v-0.1l4-6.1
				l-3.8-5.9v-0.2h3.6l1.1,1.9L-76-156.1z"/>
			<path d="M-63.1-147.6c-3.9,0-6.6-2.3-6.6-6.5c0-4,2.7-6.5,6.6-6.5s6.6,2.4,6.6,6.5C-56.5-149.9-59.2-147.6-63.1-147.6z
				 M-63.1-157.5c-1.9,0-3.3,1.4-3.3,3.5s1.4,3.5,3.3,3.5c2,0,3.3-1.4,3.3-3.5C-59.9-156.2-61.2-157.5-63.1-157.5z"/>
			<path d="M-109.8-128.2h-2.8l-2.1-5.9l-2.1,5.9h-2.7l-4.5-12.3h3.7l1.5,4.3c0.3,0.9,0.5,1.9,0.6,2.9l2.2-7.2h2.3l2.3,7.2
				c0.2-0.9,0.4-1.9,0.7-2.9l1.4-4.2h3.7L-109.8-128.2z"/>
			<path d="M-98.6-127.9c-3.9,0-6.6-2.3-6.6-6.5c0-4,2.7-6.5,6.6-6.5s6.6,2.4,6.6,6.5C-92-130.2-94.7-127.9-98.6-127.9z
				 M-98.6-137.8c-1.9,0-3.3,1.4-3.3,3.5s1.4,3.5,3.3,3.5c2,0,3.3-1.4,3.3-3.5C-95.4-136.5-96.6-137.8-98.6-137.8z"/>
			<path d="M-79.2-128.2h-3.7l-2.8-4h-1.2v4h-3.4v-12.3h5.8c3.1,0,4.6,2,4.6,4.2c0,1.5-0.5,2.8-2.5,3.7l3.1,4.2L-79.2-128.2
				L-79.2-128.2z M-86.8-137.7v3h2.5c0.9,0,1.3-0.7,1.3-1.4c0-0.8-0.4-1.5-1.3-1.5L-86.8-137.7L-86.8-137.7z"/>
			<path d="M-67.1-140.3l-4.9,5.8c1.7,1.9,3.6,4.1,5.3,6.1v0.2h-4.2l-3.4-4.1v4.1h-3.4v-12.3h3.4v4c1-1.3,2.1-2.7,3.1-4h4
				L-67.1-140.3C-67.2-140.3-67.1-140.3-67.1-140.3z"/>
			<path d="M-58.6-137.1c-0.8-0.6-1.8-0.8-2.8-0.8c-0.8,0-1.6,0.3-1.6,0.9c0,0.8,0.8,1,2,1.1c2.4,0.3,4.9,1.2,4.9,4.1
				c0,2.8-2.6,4-5.2,4c-2.2,0-3.7-0.4-5.3-2.2l1.9-2.2c1.2,1.2,2.5,1.4,3.5,1.4c1.1,0,1.9-0.4,1.9-1.1c0-0.6-0.7-1-2-1.1
				c-2.6-0.2-4.9-0.9-4.9-4c0-2.6,2.5-3.7,5-3.7c1.8,0,3.2,0.4,4.5,1.5L-58.6-137.1z"/>
			<path d="M-46.9-128.2v-4.7h-4.3v4.7h-3.4v-12.3h3.4v4.7h4.3v-4.7h3.3v12.3H-46.9z"/>
			<path d="M-35.1-127.9c-3.9,0-6.6-2.3-6.6-6.5c0-4,2.7-6.5,6.6-6.5s6.6,2.4,6.6,6.5C-28.5-130.2-31.2-127.9-35.1-127.9z
				 M-35.1-137.8c-1.9,0-3.3,1.4-3.3,3.5s1.4,3.5,3.3,3.5c2,0,3.3-1.4,3.3-3.5C-31.9-136.5-33.1-137.8-35.1-137.8z"/>
			<path d="M-23.3-131.5v3.3h-3.4v-12.3h5.8c3.2,0,4.8,2.1,4.8,4.5c0,2.5-1.6,4.5-4.8,4.5C-20.9-131.5-23.3-131.5-23.3-131.5z
				 M-23.3-134.5h2.4c0.9,0,1.4-0.7,1.4-1.5s-0.5-1.5-1.4-1.5h-2.4V-134.5z"/>
		</g>
	</g>
	<path class="st11" d="M-53.3-32.2c5,5,2,13.8-5.2,14.4c-5.9,0.4-12-1.6-16.5-6.1s-6.6-10.6-6.1-16.5c0.5-7.1,9.3-10.2,14.4-5.2
		L-53.3-32.2z"/>
	<path class="st11" d="M-56.5-39.4c-5-5-2-13.8,5.2-14.4c5.9-0.4,12,1.6,16.5,6.1s6.6,10.6,6.1,16.5C-29.2-24.1-38-21-43.1-26
		L-56.5-39.4z"/>
	<path class="st11" d="M1.7-31.4C1.2-34.1-0.6-35.9-3-37c-2.3-1.1-7.6-0.9-8.2-3.8c-1.2-6.3-10.9-3.6-9.6,2.7
		c0.7,3.8,4.7,8.2,8.9,9.4c-0.2,0-0.5,0-0.7,0c-3.2-0.4-5.7-2.8-7.9-5.1c-4-4.1-7.8-6.9-13.7-4.4c-5.4,2.3-9,7.6-10.3,13.2
		c-1.5,6.3,8.1,8.9,9.6,2.7c0.7-2.7,2.5-7.4,5.8-6c1.1,0.5,2.2,2.4,3.2,3.2c1,1,2.2,1.9,3.3,2.7c4.7,3.4,11,5.1,16.7,2.6
		C-1.6-21.6,2.7-26.3,1.7-31.4z"/>
	<path class="st11" d="M-24,38.4c-0.6-3.1-3-5.2-5.8-6.5c-0.6-0.3-1.2-0.5-1.9-0.7c2.9-2.8,0.2-9.3-5.1-8.5c-4,0.6-7.8,2.4-9.1,6.5
		c-1.1,3.6,0.6,7.1,3.7,8.9c1.7,1,3.9,1.5,5.8,2.1c0.4,0.1,0.7,0.2,1.1,0.4c-0.4,0.1-0.7,0.2-1.1,0.2c-5.2,0.8-10.5-1.6-14.8-4.3
		c-6.6-4.1-14.2-12.6-22.2-5.9c-6.5,5.5-6,15.1-0.7,21.1c4.3,4.8,11.3-2.3,7.1-7.1c-2.2-2.4-1.6-7.5,2.3-5.7
		c3.2,1.6,6.1,4.7,9.2,6.6c6.2,3.7,13.4,6.1,20.6,5.1C-28.7,49.8-22.6,45.2-24,38.4z"/>
	<polyline class="st19" points="118.6,51.6 118.6,33.3 140.4,55.1 140.4,26.5 	"/>
	<polygon class="st20" points="6.7,13.5 6.1,13.5 18.5,1.1 19.1,1.1 	"/>
	<path class="st20" d="M27.3,13.7c-3.5,0-6.4-2.9-6.4-6.4s2.9-6.4,6.4-6.4s6.4,2.9,6.4,6.4S30.8,13.7,27.3,13.7z M27.3,1.3
		c-3.3,0-6,2.7-6,6s2.7,6,6,6s6-2.7,6-6S30.6,1.3,27.3,1.3z"/>
	<rect x="5.9" y="5" class="st7" width="30" height="4.5"/>
	<polygon class="st20" points="18.5,13.5 6.1,1.1 6.7,1.1 19.1,13.5 	"/>
	<polygon class="st21" points="61.3,13.5 60.7,13.5 73.2,1.1 73.8,1.1 	"/>
	<path class="st21" d="M82,13.7c-3.5,0-6.4-2.9-6.4-6.4s2.9-6.4,6.4-6.4s6.4,2.9,6.4,6.4C88.3,10.8,85.5,13.7,82,13.7z M82,1.3
		c-3.3,0-6,2.7-6,6s2.7,6,6,6s6-2.7,6-6C87.9,4,85.3,1.3,82,1.3z"/>
	<rect x="60.6" y="5" class="st7" width="30" height="4.5"/>
	<polygon class="st21" points="73.2,13.5 60.7,1.1 61.3,1.1 73.8,13.5 	"/>
</g>
<polygon class="st0" points="11.3,27.4 10.2,27.4 33.9,3.7 35,3.7 "/>
<g>
	<path d="M47.8-27.3c0-0.5,0-0.7-0.1-0.9v-1.5H49v4.3h-1l-1.8-2.3v1v1.4h-1.3v-4.4h1L47.8-27.3z"/>
	<path d="M55.5-25.3c-1.4,0-2.4-0.8-2.4-2.3c0-1.4,1-2.3,2.4-2.3s2.4,0.8,2.4,2.3C58-26.1,56.9-25.3,55.5-25.3z M55.5-28.8
		c-0.7,0-1.2,0.5-1.2,1.2s0.5,1.2,1.2,1.2s1.2-0.5,1.2-1.2S56.3-28.8,55.5-28.8z"/>
	<path d="M64.9-27.3c0-0.5,0-0.7-0.1-0.9v-1.5h1.3v4.3h-1l-1.8-2.3v1v1.4H62v-4.4h1L64.9-27.3z"/>
	<path d="M72.3-28.3l0.4-0.7l0.4-0.7h1.3v0.1l-1.3,2.1l1.5,2.2v0.1h-1.3l-0.4-0.7l-0.4-0.8L72-25.9l-0.4,0.6h-1.3v-0.1l1.5-2.2
		l-1.3-2.1l0,0h1.1L72-29L72.3-28.3z"/>
	<path d="M80.4-25.3c-1.4,0-2.4-0.8-2.4-2.3c0-1.4,1-2.3,2.4-2.3s2.4,0.8,2.4,2.3C82.9-26.1,81.9-25.3,80.4-25.3z M80.4-28.8
		c-0.7,0-1.2,0.5-1.2,1.2s0.5,1.2,1.2,1.2s1.2-0.5,1.2-1.2S81.1-28.8,80.4-28.8z"/>
</g>
<g>
	<path class="st3" d="M-127.7-31.5c-4.2,4.2-4.2,10.9,0,15.1s10.9,4.2,15.1,0s4.2-10.9,0-15.1S-123.5-35.6-127.7-31.5z"/>
</g>
<path class="st22" d="M-138.7-20.4c-4.2,4.2-4.2,10.9,0,15.1s10.9,4.2,15.1,0s4.2-10.9,0-15.1S-134.5-24.6-138.7-20.4z"/>
<g>
	<path class="st3" d="M-207.8-85.6c-4.2,4.2-4.2,10.9,0,15.1s10.9,4.2,15.1,0s4.2-10.9,0-15.1C-196.9-89.8-203.6-89.7-207.8-85.6z"
		/>
</g>
<path class="st22" d="M-218.8-74.5c-4.2,4.2-4.2,10.9,0,15.1s10.9,4.2,15.1,0s4.2-10.9,0-15.1S-214.6-78.7-218.8-74.5z"/>
<g>
	<g>
		<path d="M27.1-236c-0.2-3.7-0.2-5.1-0.3-6.3v-10.5h8.5v30.7h-7.2l-12.4-16.5l0.1,6.7v9.8H7.3v-30.7h7.2L27.1-236z"/>
		<path d="M56.3-221.3c-9.8,0-16.6-5.8-16.6-16.1c0-10.1,6.8-16.1,16.6-16.1s16.6,5.9,16.6,16.1S66.1-221.3,56.3-221.3z M56.3-246.1
			c-4.8,0-8.1,3.6-8.1,8.7c0,5.1,3.4,8.7,8.1,8.7c4.9,0,8.1-3.6,8.1-8.7C64.5-242.7,61.3-246.1,56.3-246.1z"/>
		<path d="M97.1-236c-0.2-3.7-0.2-5.1-0.3-6.3v-10.5h8.5v30.7h-7.2l-12.4-16.5l0.1,6.7v9.8h-8.5v-30.7h7.2L97.1-236z"/>
		<path d="M123.5-242.6l2.8-5.5l2.7-4.6h9.1v0.5l-9.4,14.8l10,15.1v0.3h-9.2l-2.8-4.3l-3.3-5.7l-3.4,5.8l-2.7,4.2h-9.2v-0.3l10-15.1
			l-9.4-14.8v-0.5h9.1l2.8,4.7L123.5-242.6z"/>
		<path d="M155.5-221.3c-9.8,0-16.6-5.8-16.6-16.1c0-10.1,6.8-16.1,16.6-16.1s16.6,5.9,16.6,16.1S165.3-221.3,155.5-221.3z
			 M155.5-246.1c-4.8,0-8.1,3.6-8.1,8.7c0,5.1,3.4,8.7,8.1,8.7c4.9,0,8.1-3.6,8.1-8.7C163.7-242.7,160.4-246.1,155.5-246.1z"/>
		<path d="M39.1-173.1h-6.9L27-187.8l-5.1,14.7H15L3.9-203.8h9.2l3.8,10.8c0.7,2.3,1.2,4.8,1.6,7.1l5.5-17.9h5.8l5.7,17.9
			c0.4-2.3,1-4.8,1.7-7.3l3.6-10.6H50L39.1-173.1z"/>
		<path d="M67-172.3c-9.8,0-16.6-5.8-16.6-16.1c0-10.1,6.8-16.1,16.6-16.1s16.6,5.9,16.6,16.1C83.6-178.1,76.8-172.3,67-172.3z
			 M67-197.1c-4.8,0-8.1,3.6-8.1,8.7s3.4,8.7,8.1,8.7c4.9,0,8.1-3.6,8.1-8.7C75.1-193.6,71.9-197.1,67-197.1z"/>
		<path d="M115.6-173h-9.3l-6.9-9.9h-2.9v9.9h-8.4v-30.7h14.6c7.6,0,11.6,5,11.6,10.6c0,3.8-1.3,7-6.3,9.3l7.8,10.3L115.6-173
			L115.6-173z M96.4-196.8v7.4h6.2c2.2,0,3.2-1.7,3.2-3.6c0-1.9-1.1-3.8-3.3-3.8L96.4-196.8L96.4-196.8z"/>
		<path d="M145.7-203.2l-12.1,14.5c4.2,4.7,9,10.3,13.1,15.1v0.5h-10.4l-8.5-10.2v10.2h-8.4v-30.7h8.4v10.1
			c2.6-3.2,5.3-6.8,7.8-10.1h10.1L145.7-203.2L145.7-203.2z"/>
		<path d="M166.9-195.2c-2.1-1.6-4.4-2.1-7-2.1c-2.1,0-4.1,0.7-4.1,2.3c0,2.1,2,2.4,4.9,2.7c5.9,0.7,12.1,3.1,12.1,10.2
			c0,7-6.4,9.9-13.1,10c-5.4,0-9.2-0.9-13.3-5.4l4.6-5.5c2.9,2.9,6.2,3.5,8.7,3.5c2.8,0,4.7-1,4.7-2.7c0-1.5-1.7-2.5-5-2.8
			c-6.5-0.6-12.1-2.3-12.1-9.9c0-6.5,6.2-9.3,12.5-9.3c4.5,0,8,1.1,11.2,3.6L166.9-195.2z"/>
		<path d="M196.1-173v-11.6h-10.7v11.6H177v-30.7h8.4v11.7h10.7v-11.7h8.4v30.7H196.1L196.1-173z"/>
		<path d="M225.5-172.3c-9.8,0-16.6-5.8-16.6-16.1c0-10.1,6.8-16.1,16.6-16.1s16.6,5.9,16.6,16.1C242-178.1,235.3-172.3,225.5-172.3
			z M225.5-197.1c-4.8,0-8.1,3.6-8.1,8.7s3.4,8.7,8.1,8.7c5,0,8.1-3.6,8.1-8.7C233.6-193.6,230.4-197.1,225.5-197.1z"/>
		<path d="M254.9-181.3v8.3h-8.4v-30.7H261c8,0,12,5.2,12,11.2c0,6.3-4,11.1-12,11.2C260.9-181.3,254.9-181.3,254.9-181.3z
			 M254.9-188.6h6c2.3,0,3.5-1.8,3.5-3.8s-1.2-3.9-3.5-3.9h-6V-188.6z"/>
	</g>
</g>
<rect x="185.4" y="-241.2" class="st23" width="84.8" height="3.8"/>
<g>
	<g>
		<g>
			<path d="M32.5-125.9v20.6H53v-20.6H32.5z M50.2-113.6v5.8H35.3h-0.1v-15.7l0,0h6.5h2.6H50l0,0L50.2-113.6L50.2-113.6z"/>
			<path d="M49.7-114.7c-1.1-0.4-1.6-0.7-2.4-1.5h2.4v-2.1h-7.3l0.5-0.9h6.8v-1.9h-2.5c0.4-0.5,1.1-1.5,1.4-2.1H46
				c0,0-0.8,1.5-1.4,2.1h-0.9c0.3-0.8,0.6-1.2,0.7-2.1h-2.6c-0.2,0.9-0.5,1.3-0.8,2.1h-0.4c-0.3-0.8-1.3-2.1-1.3-2.1h-2.7
				c0.7,0.8,1.4,1.8,1.5,2.1h-2.2v1.9H40l-0.5,0.9h-3.6v2.1h2c-0.9,0.9-1.2,1.3-2,1.6v3.3c0.7-0.5,1.5-1.3,1.8-1.6v2
				c0,1.6,1,2.5,2.7,2.5h5.9c0.8,0,1.8-0.4,2.3-1.1c0.3-0.4,0.6-1.5,0.6-1.5c-1.2-0.4-2.4-1.6-2.4-1.6c0,1.8-1.7,2.1-2.8,2.1h-3.1
				c-0.5,0-0.8-0.2-0.8-0.7v-2.3H44v0.1c0,0.5-0.3,0.6-1,0.6c-0.5,0-1.9,0-1.9,0v1.6c0.2,0,1.5,0,1.7,0c1.8,0,2.5-0.2,3-0.6
				c0.4-0.4,0.5-1.1,0.5-2.5c0.7,0.8,2.2,1.8,3.3,2.3L49.7-114.7L49.7-114.7z M40.2-115.2c0.3-0.3,0.7-0.7,0.9-1.1h3.5
				c0.2,0.4,0.5,0.7,0.8,1.1H40.2z"/>
		</g>
		<g>
			<path d="M21.5-112c2.1,1.6,3.8,2.4,7,2.9v3.5c-3.4-0.7-7.1-2.4-9.5-4.4c-2.6,2-5.8,3.7-9.6,4.4v-3.4c2.8-0.5,5.1-1.6,7-2.9
				c-2.2-2.1-4.4-5.7-6.1-10l3.1-0.1c0.4,1.1,1.1,2.4,2.2,4c1,1.6,2.2,3.1,3.3,4.1c0.9-0.8,2.3-2.2,3.4-4s2-3.5,2.3-5.1H9.4v-2.7
				h18.9c0,0-0.1,1.2-0.5,2.8c-0.5,1.8-1.3,4.2-2.4,5.9C24-114.8,22.7-113.2,21.5-112z"/>
			<path d="M18.9-116.8c-1.1-1.4-2.3-2.8-3.6-4.1l2.4-1.4c1.2,0.9,2.4,2.2,3.6,3.7L18.9-116.8z"/>
		</g>
	</g>
</g>
<g>
	<g>
		<text transform="matrix(0.9723 0 0 1 -422.3267 -162.1685)" style="font-family:'NexaBlack'; font-size:43.8446px;">NONXO</text>
		<text transform="matrix(0.9723 0 0 1 -422.3267 -113.1284)" style="font-family:'NexaBlack'; font-size:43.8446px;">WORKSHOP</text>
	</g>
	<line class="st6" x1="-241.2" y1="-179.4" x2="-156.4" y2="-179.4"/>
	<g>
		<g>
			<g>
				<path d="M-394.1-66.1v20.6h20.5v-20.6H-394.1z M-376.4-53.8v5.8h-14.8h-0.1v-15.8l0,0h6.5h2.6h5.7l0,0L-376.4-53.8L-376.4-53.8z
					"/>
				<path d="M-376.9-54.9c-1.1-0.4-1.6-0.7-2.4-1.5h2.4v-2h-7.3l0.5-0.9h6.8v-1.9h-2.5c0.4-0.5,1.1-1.5,1.4-2.1h-2.5
					c0,0-0.8,1.5-1.4,2.1h-0.9c0.3-0.8,0.6-1.2,0.7-2.1h-2.6c-0.2,0.9-0.5,1.3-0.8,2.1h-0.4c-0.4-0.8-1.3-2.1-1.3-2.1h-2.7
					c0.6,0.8,1.4,1.8,1.5,2.1h-2.2v1.9h4.1l-0.5,0.9h-3.6v2.1h2c-0.9,0.9-1.2,1.3-2,1.6v3.3c0.7-0.5,1.5-1.3,1.8-1.6v2
					c0,1.6,1,2.5,2.7,2.5h5.9c0.8,0,1.8-0.3,2.3-1.1c0.3-0.4,0.6-1.5,0.6-1.5c-1.2-0.4-2.4-1.6-2.4-1.6c-0.1,1.8-1.9,2.1-2.9,2.1
					h-3.1c-0.5,0-0.8-0.2-0.8-0.7v-2.3h3.8v0.1c0,0.5-0.3,0.6-1,0.6c-0.5,0-1.9,0-1.9,0v1.6c0.2,0,1.5,0,1.7,0c1.8,0,2.5-0.2,3-0.6
					c0.4-0.4,0.5-1.2,0.5-2.5c0.7,0.8,2.2,1.8,3.3,2.3L-376.9-54.9L-376.9-54.9z M-386.4-55.3c0.4-0.3,0.6-0.7,0.9-1h3.5
					c0.2,0.3,0.5,0.7,0.8,1H-386.4z"/>
			</g>
			<g>
				<path d="M-405.1-52.1c2.1,1.7,3.8,2.4,7,2.9v3.5c-3.4-0.7-7.1-2.3-9.5-4.4c-2.6,2-5.8,3.7-9.6,4.4v-3.4c2.8-0.5,5.1-1.6,7-3
					c-2.2-2.1-4.4-5.7-6.1-10l3.1-0.1c0.4,1.1,1.1,2.4,2.1,4s2.1,3.1,3.3,4.1c0.9-0.8,2.3-2.2,3.4-4s2-3.5,2.3-5.1h-15.2v-2.7h18.9
					c0,0-0.1,1.2-0.5,2.8c-0.5,1.8-1.3,4.2-2.4,5.9C-402.6-55-403.8-53.4-405.1-52.1z"/>
				<path d="M-407.6-57c-1.1-1.4-2.3-2.8-3.6-4.1l2.4-1.4c1.2,0.9,2.4,2.2,3.6,3.7L-407.6-57z"/>
			</g>
		</g>
	</g>
</g>
<path d="M21.3,87.1c-6.8,1-13.1-3.7-14.1-10.4c-1-6.8,3.7-13.1,10.4-14.1c6.8-1,13.1,3.7,14.1,10.4C32.7,79.8,28,86.1,21.3,87.1z"/>
<path class="st8" d="M21.3,87.1c-6.8,1-13.1-3.7-14.1-10.4c-1-6.8,3.7-13.1,10.4-14.1c6.8-1,13.1,3.7,14.1,10.4
	C32.7,79.8,28,86.1,21.3,87.1 M21.5,88.8c7.7-1.1,13-8.3,11.9-16s-8.3-13-16-11.9s-13,8.3-11.9,16C6.7,84.6,13.8,89.9,21.5,88.8
	L21.5,88.8z"/>
<g>
	<polygon points="13.6,81 7.3,89.5 1.3,85 -3.1,91.1 -11.6,84.8 -7.1,78.8 -13.2,74.3 -6.9,65.8 -0.9,70.3 3.6,64.3 12.1,70.6 
		7.6,76.6 	"/>
	<path class="st8" d="M7.3,89.5l-6-4.5l-4.5,6l-8.5-6.3l4.5-6l-6-4.5l6.3-8.5l6,4.5l4.5-6l8.5,6.3l-4.5,6l6,4.5L7.3,89.5 M7.7,91.9
		l1-1.4L15,82l1-1.4l-1.4-1L10,76.2l3.4-4.6l1-1.4l-1.4-1l-8.5-6.3l-1.4-1l-1,1.4l-3.4,4.6l-4.6-3.4l-1.4-1l-1,1.4l-6.3,8.5l-1,1.4
		l1.4,1l4.6,3.4l-3.4,4.6l-1,1.4l1.4,1l8.5,6.3l1.4,1l1-1.4l3.4-4.6l4.6,3.4L7.7,91.9L7.7,91.9z"/>
</g>
<polygon class="st24" points="70.4,-91.6 63,-99.1 57.7,-93.8 52.4,-99.1 44.9,-91.6 50.2,-86.3 44.9,-81 52.4,-73.6 57.7,-78.9 
	63,-73.6 70.4,-81 65.1,-86.3 "/>
<g>
	<g>
		<g>
			<path d="M77.1-98.7c6.8,0,12.4,5.6,12.4,12.4s-5.6,12.4-12.4,12.4c-3.2,0-6-1.2-8.2-3.2l2.7-2.7l1.2-1.2l-1.2-1.2l-4.1-4.1
				l4.1-4.1l1.2-1.2l-1.2-1.2l-2.7-2.7C71.1-97.5,74-98.7,77.1-98.7 M77.1-99.7c-3.3,0-6.4,1.2-8.9,3.4l-0.8,0.7l0.7,0.7l2.7,2.7
				l0.5,0.5l-0.5,0.5l-4.1,4.1L66-86.4l0.7,0.7l4.1,4.1l0.5,0.5l-0.5,0.5l-2.7,2.7l-0.7,0.7l0.8,0.7c2.5,2.2,5.6,3.4,8.9,3.4
				c7.4,0,13.4-6,13.4-13.4C90.5-93.7,84.5-99.7,77.1-99.7L77.1-99.7z"/>
		</g>
	</g>
	<g>
		<g>
			<path d="M67.7-94.3l2.7,2.7l-5.3,5.3l5.3,5.3l-2.7,2.7c-1.8-2.2-3-5-3-8S65.9-92.2,67.7-94.3 M67.7-95.8L67-95
				c-2.1,2.4-3.2,5.5-3.2,8.7s1.1,6.2,3.2,8.7l0.7,0.8l0.8-0.8l2.7-2.7l0.7-0.7l-0.7-0.7l-4.6-4.6l4.6-4.6l0.7-0.7l-0.7-0.7L68.5-95
				L67.7-95.8L67.7-95.8z"/>
		</g>
	</g>
</g>
<g>
	<path d="M36.2-90.8c-2.2,0-4.2,0.9-5.7,2.2l1.9,1.9l0.9,0.9l-0.9,0.9l-2.8,2.7l2.8,2.8l0.9,0.9l-0.9,0.9l-1.9,1.9
		c1.5,1.4,3.6,2.2,5.7,2.2c4.8,0,8.7-3.9,8.7-8.7S40.9-90.8,36.2-90.8z"/>
</g>
<g>
	<polygon points="12.9,-78.5 16.6,-82.2 12.9,-85.9 19,-91.9 22.6,-88.3 26.3,-91.9 32.4,-85.9 28.7,-82.2 32.4,-78.5 26.3,-72.5 
		22.6,-76.1 19,-72.5 	"/>
	<g>
		<path class="st8" d="M26.3-91.1l3.2,3.2l1.9,1.9l-3.7,3.7l3.7,3.7l-1.8,2l-3.3,3.3L22.6-77L19-73.3l-5.2-5.2l3.7-3.7l-3.7-3.7
			l5.2-5.2l3.7,3.7L26.3-91.1 M19-92.8l-0.9,0.9l-5.2,5.2L12-85.8l0.9,0.9l2.8,2.8l-2.8,2.8L12-78.4l0.9,0.9l5.2,5.2l0.9,0.9
			l0.9-0.9l2.7-3l2.8,2.8l0.9,0.9l0.9-0.9l3.2-3.2l1.9-1.9l0.9-0.9l-0.9-0.9l-2.7-2.8l2.8-2.8l0.9-0.9l-0.9-0.9l-1.9-1.9l-3.2-3.2
			l-0.9-0.9l-0.9,0.9l-2.9,2.8l-2.8-2.8L19-92.8L19-92.8z"/>
	</g>
</g>
<g>
	<path class="st10" d="M263.5,131.1c-4.1,0-7.5,3.4-7.5,7.5s3.4,7.5,7.5,7.5s7.5-3.4,7.5-7.5S267.7,131.1,263.5,131.1z"/>
</g>
<g>
	<path class="st10" d="M248.5,131.7c-1,0-2.5-0.4-3.3,0c-1.2,0.6-3,2.4-3.6,3.6c-0.4,0.8,0,2.3,0,3.3s-0.4,2.5,0,3.3
		c0.6,1.2,2.4,3,3.6,3.6c0.8,0.4,2.3,0,3.3,0s2.5,0.4,3.3,0c1.2-0.6,3-2.4,3.6-3.6c0.4-0.8,0-2.3,0-3.3s0.4-2.5,0-3.3
		c-0.6-1.2-2.4-3-3.6-3.6C251,131.3,249.4,131.7,248.5,131.7z"/>
</g>
<g>
	<path class="st10" d="M263.9,116.3c-1,0-2.5-0.4-3.3,0c-1.2,0.6-3,2.4-3.6,3.6c-0.4,0.8,0,2.3,0,3.3s-0.4,2.5,0,3.3
		c0.6,1.2,2.4,3,3.6,3.6c0.8,0.4,2.3,0,3.3,0s2.5,0.4,3.3,0c1.2-0.6,3-2.4,3.6-3.6c0.4-0.8,0-2.3,0-3.3s0.4-2.5,0-3.3
		c-0.6-1.2-2.4-3-3.6-3.6C266.5,115.9,264.9,116.3,263.9,116.3z"/>
</g>
<g>
	<path class="st10" d="M233.2,132.3c-0.7,0-2.7-1.1-3.3-0.8c-0.9,0.4-3.4,2.9-3.8,3.8c-0.3,0.6,0.8,2.6,0.8,3.3s-1.1,2.7-0.8,3.3
		c0.4,0.9,2.9,3.4,3.8,3.8c0.6,0.3,2.6-0.8,3.3-0.8s2.7,1.1,3.3,0.8c0.9-0.4,3.4-2.9,3.8-3.8c0.3-0.6-0.8-2.6-0.8-3.3
		s1.1-2.7,0.8-3.3c-0.4-0.9-2.9-3.4-3.8-3.8C235.9,131.2,233.9,132.3,233.2,132.3z"/>
</g>
<g>
	<path class="st10" d="M248.5,116.6c-0.7,0-2.7-1.1-3.3-0.8c-0.9,0.4-3.4,2.9-3.8,3.8c-0.3,0.6,0.8,2.6,0.8,3.3s-1.1,2.7-0.8,3.3
		c0.4,0.9,2.9,3.4,3.8,3.8c0.6,0.3,2.6-0.8,3.3-0.8s2.7,1.1,3.3,0.8c0.9-0.4,3.4-2.9,3.8-3.8c0.3-0.6-0.8-2.6-0.8-3.3
		s1.1-2.7,0.8-3.3c-0.4-0.9-2.9-3.4-3.8-3.8C251.1,115.5,249.2,116.6,248.5,116.6z"/>
</g>
<g>
	<path class="st10" d="M263.9,101.3c-0.7,0-2.7-1.1-3.3-0.8c-0.9,0.4-3.4,2.9-3.8,3.8c-0.3,0.6,0.8,2.6,0.8,3.3s-1.1,2.7-0.8,3.3
		c0.4,0.9,2.9,3.4,3.8,3.8c0.6,0.3,2.6-0.8,3.3-0.8s2.7,1.1,3.3,0.8c0.9-0.4,3.4-2.9,3.8-3.8c0.3-0.6-0.8-2.6-0.8-3.3
		s1.1-2.7,0.8-3.3c-0.4-0.9-2.9-3.4-3.8-3.8C266.6,100.2,264.7,101.3,263.9,101.3z"/>
</g>
<g>
	<path class="st10" d="M217.8,132.6c-0.5,0-2.8-1.8-3.3-1.6c-0.6,0.3-3.8,3.5-4,4c-0.2,0.4,1.6,2.8,1.6,3.3s-1.8,2.8-1.6,3.3
		c0.3,0.6,3.5,3.8,4,4c0.4,0.2,2.8-1.6,3.3-1.6s2.8,1.8,3.3,1.6c0.6-0.3,3.8-3.5,4-4c0.2-0.4-1.6-2.8-1.6-3.3s1.8-2.8,1.6-3.3
		c-0.3-0.6-3.5-3.8-4-4S218.3,132.6,217.8,132.6z"/>
</g>
<g>
	<path class="st10" d="M233.2,117.2c-0.5,0-2.8-1.8-3.3-1.6c-0.6,0.3-3.8,3.5-4,4c-0.2,0.4,1.6,2.8,1.6,3.3s-1.8,2.8-1.6,3.3
		c0.3,0.6,3.5,3.8,4,4c0.4,0.2,2.8-1.6,3.3-1.6s2.8,1.8,3.3,1.6c0.6-0.3,3.8-3.5,4-4c0.2-0.4-1.6-2.8-1.6-3.3s1.8-2.8,1.6-3.3
		c-0.3-0.6-3.5-3.8-4-4S233.7,117.2,233.2,117.2z"/>
</g>
<g>
	<path class="st10" d="M248.5,101.8c-0.5,0-2.8-1.8-3.3-1.6c-0.6,0.3-3.8,3.5-4,4c-0.2,0.4,1.6,2.8,1.6,3.3s-1.8,2.8-1.6,3.3
		c0.3,0.6,3.5,3.8,4,4c0.4,0.2,2.8-1.6,3.3-1.6s2.8,1.8,3.3,1.6c0.6-0.3,3.8-3.5,4-4c0.2-0.4-1.6-2.8-1.6-3.3s1.8-2.8,1.6-3.3
		c-0.3-0.6-3.5-3.8-4-4S248.9,101.8,248.5,101.8z"/>
</g>
<g>
	<path class="st10" d="M233.2,102.7c-0.2,0-3-2.5-3.2-2.4c-0.3,0.1-4.1,4-4.3,4.3c-0.1,0.2,2.4,3,2.4,3.2s-2.5,3-2.4,3.2
		c0.1,0.3,4,4.1,4.3,4.3c0.2,0.1,3-2.4,3.2-2.4s3,2.5,3.2,2.4c0.3-0.1,4.1-4,4.3-4.3c0.1-0.2-2.4-3-2.4-3.2s2.5-3,2.4-3.2
		c-0.1-0.3-4-4.1-4.3-4.3C236.2,100.2,233.4,102.7,233.2,102.7z"/>
</g>
<g>
	<path class="st10" d="M217.8,118.1c-0.2,0-3-2.5-3.2-2.4c-0.3,0.1-4.1,4-4.3,4.3c-0.1,0.2,2.4,3,2.4,3.2s-2.5,3-2.4,3.2
		c0.1,0.3,4,4.1,4.3,4.3c0.2,0.1,3-2.4,3.2-2.4s3,2.5,3.2,2.4c0.3-0.1,4.1-4,4.3-4.3c0.1-0.2-2.4-3-2.4-3.2s2.5-3,2.4-3.2
		c-0.1-0.3-4-4.1-4.3-4.3C220.8,115.6,218,118.1,217.8,118.1z"/>
</g>
<g>
	<polygon class="st10" points="225.5,104.6 221,100.1 217.8,103.3 214.6,100.1 210.1,104.6 213.3,107.8 210.1,111 214.6,115.5 
		217.8,112.3 221,115.5 225.5,111 222.3,107.8 	"/>
</g>
<polygon class="st12" points="153.4,-108.6 145.2,-116.8 139.3,-111 133.5,-116.8 125.3,-108.6 131.2,-102.8 125.3,-97 133.5,-88.8 
	139.3,-94.6 145.2,-88.8 153.4,-97 147.5,-102.8 "/>
<g>
	<path class="st12" d="M160.7-88.2c-8,0-14.6-6.5-14.6-14.6s6.5-14.6,14.6-14.6c8,0,14.6,6.5,14.6,14.6S168.8-88.2,160.7-88.2z"/>
	<path class="st8" d="M160.7-116.4c7.5,0,13.6,6.1,13.6,13.6s-6.1,13.6-13.6,13.6s-13.6-6.1-13.6-13.6S153.2-116.4,160.7-116.4
		 M160.7-118.3c-8.6,0-15.5,7-15.5,15.5s7,15.5,15.5,15.5c8.6,0,15.5-7,15.5-15.5S169.3-118.3,160.7-118.3L160.7-118.3z"/>
</g>
<g>
	<g>
		<g>
			<g>
				<path class="st12" d="M103.3,82.4v15.9h15.8V82.4H103.3z M116.9,91.9v4.4h-11.5h-0.1V84.2l0,0h5h2h4.4l0,0v7.7L116.9,91.9
					L116.9,91.9z"/>
				<path class="st12" d="M116.5,91.1c-0.9-0.3-1.2-0.5-1.9-1.2h1.9v-1.6h-5.6l0.4-0.7h5.3v-1.4h-1.9c0.3-0.4,0.8-1.2,1.1-1.6h-2
					c0,0-0.6,1.1-1.1,1.6H112c0.2-0.6,0.4-1,0.6-1.6h-2c-0.2,0.7-0.4,1-0.7,1.6h-0.3c-0.3-0.6-1-1.6-1-1.6h-2.1
					c0.5,0.6,1.1,1.4,1.2,1.6H106v1.4h3.2l-0.4,0.7H106v1.6h1.6c-0.7,0.7-0.9,1-1.6,1.3v2.5c0.5-0.4,1.1-1,1.4-1.3V94
					c0,1.2,0.7,1.9,2.1,1.9h4.5c0.6,0,1.4-0.3,1.8-0.8c0.2-0.3,0.5-1.1,0.5-1.1c-0.9-0.3-1.8-1.2-1.8-1.2c-0.1,1.4-1.4,1.6-2.3,1.6
					h-2.4c-0.4,0-0.6-0.2-0.6-0.6v-1.7h3v0.1c0,0.4-0.3,0.5-0.8,0.5c-0.4,0-1.5,0-1.5,0v1.2c0.2,0,1.1,0,1.3,0c1.4,0,2-0.1,2.3-0.4
					s0.4-0.9,0.4-1.9c0.6,0.6,1.7,1.4,2.5,1.8L116.5,91.1L116.5,91.1L116.5,91.1z M109.2,90.7c0.3-0.2,0.5-0.5,0.7-0.8h2.7
					c0.2,0.3,0.4,0.5,0.6,0.8H109.2z"/>
			</g>
		</g>
		<g>
			<g>
				<path class="st12" d="M94.6,93.3c1.6,1.3,2.9,1.8,5.4,2.2v2.7c-2.6-0.5-5.5-1.8-7.4-3.4c-2,1.6-4.4,2.8-7.4,3.4v-2.6
					c2.2-0.4,3.9-1.2,5.4-2.3c-1.7-1.6-3.4-4.4-4.7-7.7h2.4c0.3,0.8,0.8,1.9,1.7,3.1c0.8,1.3,1.7,2.4,2.6,3.2
					c0.7-0.6,1.8-1.7,2.6-3.1c0.8-1.4,1.6-2.7,1.8-4H85.3v-2.1h14.6c0,0-0.1,0.9-0.4,2.1c-0.4,1.4-1,3.3-1.8,4.6
					C96.5,91.2,95.6,92.4,94.6,93.3z"/>
				<path class="st12" d="M92.6,89.6c-0.8-1.1-1.8-2.2-2.8-3.2l1.9-1.1c0.9,0.7,1.8,1.7,2.8,2.8L92.6,89.6z"/>
			</g>
		</g>
	</g>
	<g>
		<g>
			<path class="st12" d="M-16.3,91c-0.1-1.9-0.1-2.7-0.1-3.3v-5.6h4.5L-12,98.4h-3.8l-6.5-8.8l0.1,3.5v5.2h-4.5l0.1-16.2h3.8
				L-16.3,91z"/>
			<path class="st12" d="M0,98.9c-5.2,0-8.8-3.1-8.7-8.6c0-5.3,3.6-8.5,8.8-8.5s8.8,3.1,8.7,8.6C8.8,95.8,5.2,98.9,0,98.9z M0,85.8
				c-2.5,0-4.3,1.9-4.3,4.6S-2.5,95,0,95c2.6,0,4.3-1.9,4.3-4.6C4.3,87.6,2.6,85.8,0,85.8z"/>
			<path class="st12" d="M22.4,91.2c-0.1-1.9-0.1-2.7-0.1-3.3v-5.6h4.5l-0.1,16.2h-3.8l-6.5-8.8l0.1,3.6v5.2H12l0.1-16.2h3.8
				L22.4,91.2z"/>
			<path class="st12" d="M37.4,87.8l1.5-2.9l1.5-2.4h4.8v0.3l-5,7.8l5.3,8v0.2h-4.8l-1.5-2.3l-1.7-3l-1.8,3.1l-1.5,2.2h-4.8v-0.2
				l5.3-8l-4.9-7.8v-0.3h4.8l1.5,2.5L37.4,87.8z"/>
			<path class="st12" d="M55.1,99.1c-5.2,0-8.8-3.1-8.7-8.6c0-5.3,3.6-8.5,8.8-8.5s8.8,3.1,8.7,8.6C63.9,96.1,60.3,99.1,55.1,99.1z
				 M55.2,86c-2.5,0-4.3,1.9-4.3,4.6s1.8,4.6,4.3,4.6c2.6,0,4.3-1.9,4.3-4.6C59.5,87.8,57.8,86,55.2,86z"/>
			<path class="st12" d="M-10.1,120.7h-3.6l-2.8-7.8l-2.7,7.8h-3.6l-5.8-16.2h4.9l2,5.7c0.4,1.2,0.6,2.6,0.8,3.8l2.9-9.5h3.1l3,9.5
				c0.2-1.2,0.5-2.5,0.9-3.9l1.9-5.6h4.9L-10.1,120.7z"/>
			<path class="st12" d="M5.5,121.2c-5.2,0-8.8-3.1-8.7-8.6c0-5.3,3.6-8.5,8.8-8.5s8.8,3.1,8.7,8.6C14.3,118.2,10.7,121.2,5.5,121.2
				z M5.6,108.1c-2.5,0-4.3,1.9-4.3,4.6s1.8,4.6,4.3,4.6c2.6,0,4.3-1.9,4.3-4.6C9.9,109.9,8.2,108.1,5.6,108.1z"/>
			<path class="st12" d="M32.1,120.9h-4.9l-3.7-5.3h-1.6v5.3h-4.5l0.1-16.2h7.7c4,0,6.1,2.7,6.1,5.6c0,2-0.7,3.7-3.4,4.9l4.1,5.5
				L32.1,120.9z M22,108.3v3.9h3.3c1.2,0,1.7-0.9,1.7-1.9s-0.6-2-1.7-2H22z"/>
			<path class="st12" d="M49,105l-6.4,7.7c2.2,2.5,4.7,5.5,6.9,8v0.3H44l-4.5-5.4v5.4H35l0.1-16.2h4.5v5.3c1.4-1.7,2.8-3.6,4.2-5.3
				h5.3L49,105z"/>
			<path class="st12" d="M61.1,109.3c-1.1-0.8-2.3-1.1-3.7-1.1c-1.1,0-2.1,0.3-2.1,1.2c0,1.1,1.1,1.3,2.6,1.4
				c3.1,0.4,6.4,1.7,6.4,5.4s-3.4,5.3-6.9,5.3c-2.8,0-4.9-0.5-7-2.9l2.5-2.9c1.5,1.6,3.3,1.8,4.6,1.9c1.5,0,2.5-0.5,2.5-1.4
				c0-0.8-0.9-1.3-2.6-1.5c-3.4-0.3-6.4-1.3-6.4-5.3c0-3.4,3.3-4.9,6.6-4.9c2.4,0,4.2,0.6,5.9,2L61.1,109.3z"/>
			<path class="st12" d="M77.4,121.1V115h-5.7v6.1h-4.5l0.1-16.2h4.5v6.2h5.7v-6.2h4.4l-0.1,16.2C81.8,121.1,77.4,121.1,77.4,121.1z
				"/>
			<path class="st12" d="M93.8,121.6c-5.2,0-8.8-3.1-8.7-8.6c0-5.3,3.6-8.5,8.8-8.5s8.8,3.1,8.7,8.6
				C102.6,118.5,99,121.6,93.8,121.6z M93.8,108.5c-2.5,0-4.3,1.9-4.3,4.6s1.8,4.6,4.3,4.6c2.6,0,4.3-1.9,4.3-4.6
				C98.1,110.3,96.5,108.5,93.8,108.5z"/>
			<path class="st12" d="M110.2,116.9v4.4h-4.5l0.1-16.2h7.7c4.2,0,6.3,2.8,6.3,5.9c0,3.3-2.1,5.9-6.4,5.9
				C113.4,116.9,110.2,116.9,110.2,116.9z M110.3,113h3.2c1.2,0,1.9-0.9,1.9-2s-0.6-2-1.9-2h-3.2V113z"/>
		</g>
	</g>
</g>
<g>
	<g>
		<g>
			<path class="st8" d="M279-1.8v15.9h15.8V-1.8H279z M292.6,7.7v4.4h-11.5H281V0l0,0h5h2h4.4l0,0v7.7H292.6z"/>
			<path class="st8" d="M292.2,6.9c-0.9-0.3-1.2-0.5-1.9-1.2h1.9V4.1h-5.6l0.4-0.7h5.3V2h-1.9c0.3-0.4,0.8-1.2,1.1-1.6h-2
				c0,0-0.6,1.1-1.1,1.6h-0.7c0.2-0.6,0.4-1,0.6-1.6h-2c-0.2,0.7-0.4,1-0.7,1.6h-0.3c-0.3-0.6-1-1.6-1-1.6h-2.1
				c0.5,0.6,1.1,1.4,1.2,1.6h-1.7v1.4h3.2l-0.4,0.7h-2.8v1.6h1.6c-0.7,0.7-0.9,1-1.6,1.3v2.5c0.5-0.4,1.1-1,1.4-1.3v1.6
				c0,1.2,0.7,1.9,2.1,1.9h4.5c0.6,0,1.4-0.3,1.8-0.8c0.2-0.3,0.5-1.1,0.5-1.1c-0.9-0.3-1.8-1.2-1.8-1.2c-0.1,1.4-1.4,1.6-2.3,1.6
				h-2.4c-0.4,0-0.6-0.2-0.6-0.6V7.9h3V8c0,0.4-0.3,0.5-0.8,0.5c-0.4,0-1.5,0-1.5,0v1.2c0.2,0,1.1,0,1.3,0c1.4,0,2-0.1,2.3-0.4
				s0.4-0.9,0.4-1.9c0.6,0.6,1.7,1.4,2.5,1.8L292.2,6.9L292.2,6.9z M284.9,6.5c0.3-0.2,0.5-0.5,0.7-0.8h2.7c0.2,0.3,0.4,0.5,0.6,0.8
				H284.9z"/>
		</g>
	</g>
	<g>
		<g>
			<path class="st8" d="M270.3,9.1c1.6,1.3,2.9,1.8,5.4,2.2V14c-2.6-0.5-5.5-1.8-7.4-3.4c-2,1.6-4.4,2.8-7.4,3.4v-2.6
				c2.2-0.4,3.9-1.2,5.4-2.3c-1.7-1.6-3.4-4.4-4.7-7.7h2.4c0.3,0.8,0.8,1.9,1.7,3.1c0.8,1.3,1.7,2.4,2.6,3.2
				c0.7-0.6,1.8-1.7,2.6-3.1c0.8-1.4,1.6-2.7,1.8-4H261v-2.1h14.6c0,0-0.1,0.9-0.4,2.1c-0.4,1.4-1,3.3-1.8,4.6
				C272.2,7,271.3,8.2,270.3,9.1z"/>
			<path class="st8" d="M268.3,5.4c-0.8-1.1-1.8-2.2-2.8-3.2l1.9-1.1c0.9,0.7,1.8,1.7,2.8,2.8L268.3,5.4z"/>
		</g>
	</g>
</g>
<g>
	<g>
		<path class="st8" d="M272.5,50.1c-0.1-1.9-0.1-2.7-0.1-3.3v-5.6h4.5l-0.1,16.3H273l-6.5-8.8l0.1,3.5v5.2h-4.5l0.1-16.2h3.8
			L272.5,50.1z"/>
		<path class="st8" d="M288.8,58c-5.2,0-8.8-3.1-8.7-8.6c0-5.3,3.6-8.5,8.8-8.5c5.2,0,8.8,3.1,8.7,8.6C297.6,54.9,294,58,288.8,58z
			 M288.8,44.9c-2.5,0-4.3,1.9-4.3,4.6s1.8,4.6,4.3,4.6c2.6,0,4.3-1.9,4.3-4.6C293.1,46.7,291.4,44.9,288.8,44.9z"/>
		<path class="st8" d="M311.2,50.3c-0.1-1.9-0.1-2.7-0.1-3.3v-5.6h4.5l-0.1,16.2h-3.8l-6.5-8.8l0.1,3.6v5.2h-4.5l0.1-16.2h3.8
			L311.2,50.3z"/>
		<path class="st8" d="M326.2,46.9l1.5-2.9l1.5-2.4h4.8v0.3l-5,7.8l5.3,8v0.2h-4.8l-1.5-2.3l-1.7-3l-1.8,3.1l-1.5,2.2h-4.8v-0.2
			l5.3-8l-4.9-7.8v-0.3h4.8l1.5,2.5L326.2,46.9z"/>
		<path class="st8" d="M343.9,58.2c-5.2,0-8.8-3.1-8.7-8.6c0-5.3,3.6-8.5,8.8-8.5c5.2,0,8.8,3.1,8.7,8.6
			C352.7,55.2,349.1,58.2,343.9,58.2z M344,45.1c-2.5,0-4.3,1.9-4.3,4.6c0,2.7,1.8,4.6,4.3,4.6c2.6,0,4.3-1.9,4.3-4.6
			C348.3,46.9,346.6,45.1,344,45.1z"/>
		<path class="st8" d="M278.7,79.8h-3.6l-2.8-7.8l-2.7,7.8H266l-5.8-16.2h4.9l2,5.7c0.4,1.2,0.6,2.6,0.8,3.8l2.9-9.5h3.1l3,9.5
			c0.2-1.2,0.5-2.5,0.9-3.9l1.9-5.6h4.9L278.7,79.8z"/>
		<path class="st8" d="M294.3,80.3c-5.2,0-8.8-3.1-8.7-8.6c0-5.3,3.6-8.5,8.8-8.5c5.2,0,8.8,3.1,8.7,8.6
			C303.1,77.3,299.5,80.3,294.3,80.3z M294.4,67.2c-2.5,0-4.3,1.9-4.3,4.6s1.8,4.6,4.3,4.6c2.6,0,4.3-1.9,4.3-4.6
			C298.7,69,297,67.2,294.4,67.2z"/>
		<path class="st8" d="M320.9,80H316l-3.7-5.3h-1.6V80h-4.5l0.1-16.2h7.7c4,0,6.1,2.7,6.1,5.6c0,2-0.7,3.7-3.4,4.9l4.1,5.5L320.9,80
			z M310.8,67.4v3.9h3.3c1.2,0,1.7-0.9,1.7-1.9s-0.6-2-1.7-2H310.8z"/>
		<path class="st8" d="M337.8,64.1l-6.4,7.7c2.2,2.5,4.7,5.5,6.9,8v0.3h-5.5l-4.5-5.4v5.4h-4.5l0.1-16.2h4.5v5.3
			c1.4-1.7,2.8-3.6,4.2-5.3h5.3L337.8,64.1z"/>
		<path class="st8" d="M349.9,68.4c-1.1-0.8-2.3-1.1-3.7-1.1c-1.1,0-2.1,0.3-2.1,1.2c0,1.1,1.1,1.3,2.6,1.4c3.1,0.4,6.4,1.7,6.4,5.4
			s-3.4,5.3-6.9,5.3c-2.8,0-4.9-0.5-7-2.9l2.5-2.9c1.5,1.6,3.3,1.8,4.6,1.9c1.5,0,2.5-0.5,2.5-1.4c0-0.8-0.9-1.3-2.6-1.5
			c-3.4-0.3-6.4-1.3-6.4-5.3c0-3.4,3.3-4.9,6.6-4.9c2.4,0,4.2,0.6,5.9,2L349.9,68.4z"/>
		<path class="st8" d="M366.2,80.2v-6.1h-5.7v6.1H356l0.1-16.2h4.5v6.2h5.7V64h4.4l-0.1,16.2H366.2z"/>
		<path class="st8" d="M382.6,80.7c-5.2,0-8.8-3.1-8.7-8.6c0-5.3,3.6-8.5,8.8-8.5c5.2,0,8.8,3.1,8.7,8.6
			C391.4,77.6,387.8,80.7,382.6,80.7z M382.6,67.6c-2.5,0-4.3,1.9-4.3,4.6s1.8,4.6,4.3,4.6c2.6,0,4.3-1.9,4.3-4.6
			C386.9,69.4,385.3,67.6,382.6,67.6z"/>
		<path class="st8" d="M399,76v4.4h-4.5l0.1-16.2h7.7c4.2,0,6.3,2.8,6.3,5.9c0,3.3-2.1,5.9-6.4,5.9H399z M399.1,72.1h3.2
			c1.2,0,1.9-0.9,1.9-2s-0.6-2-1.9-2h-3.2V72.1z"/>
	</g>
</g>
<circle class="st25" cx="353.1" cy="-30.3" r="34.7"/>
<line class="st25" x1="301.2" y1="-84.3" x2="359.5" y2="-25.9"/>
<line class="st25" x1="359.5" y1="-84.3" x2="301.2" y2="-25.9"/>
<circle class="st8" cx="330.8" cy="-55.1" r="6.5"/>
<g>
	<g>
		<g>
			<path d="M192.4,76.2v11.5h11.5V76.2H192.4z M202.3,83.1v3.2H194h-0.1v-8.8l0,0h3.6h1.5h3.2l0,0L202.3,83.1L202.3,83.1z"/>
			<path d="M202.1,82.5c-0.6-0.2-0.9-0.4-1.3-0.8h1.3v-1.2H198l0.3-0.5h3.8v-1.1h-1.4c0.2-0.3,0.6-0.8,0.8-1.2H200
				c0,0-0.4,0.8-0.8,1.2h-0.5c0.2-0.4,0.3-0.7,0.4-1.2h-1.5c-0.1,0.5-0.3,0.7-0.4,1.2H197c-0.2-0.4-0.7-1.2-0.7-1.2h-1.5
				c0.4,0.4,0.8,1,0.8,1.2h-1.2V80h2.3l-0.3,0.5h-2v1.2h1.1c-0.5,0.5-0.7,0.7-1.1,0.9v1.8c0.4-0.3,0.8-0.7,1-0.9v1.1
				c0,0.9,0.6,1.4,1.5,1.4h3.3c0.4,0,1-0.2,1.3-0.6c0.2-0.2,0.3-0.8,0.3-0.8c-0.7-0.2-1.3-0.9-1.3-0.9c0,1-1,1.2-1.6,1.2h-1.7
				c-0.3,0-0.4-0.1-0.4-0.4v-1.3h2.2v0.1c0,0.3-0.2,0.3-0.6,0.3c-0.3,0-1.1,0-1.1,0v0.9c0.1,0,0.8,0,1,0c1,0,1.4-0.1,1.7-0.3
				c0.2-0.2,0.3-0.6,0.3-1.4c0.4,0.4,1.2,1,1.8,1.3V82.5L202.1,82.5z M196.7,82.2c0.2-0.2,0.4-0.4,0.5-0.6h2
				c0.1,0.2,0.3,0.4,0.4,0.6H196.7z"/>
		</g>
		<g>
			<path d="M199.8,70.1c1.2,0.9,2.1,1.3,3.9,1.6v2c-1.9-0.4-4-1.3-5.3-2.5c-1.5,1.1-3.2,2.1-5.4,2.5v-1.9c1.6-0.3,2.9-0.9,3.9-1.6
				c-1.2-1.2-2.5-3.2-3.4-5.6l1.7-0.1c0.2,0.6,0.6,1.3,1.2,2.2c0.6,0.9,1.2,1.7,1.8,2.3c0.5-0.4,1.3-1.2,1.9-2.2
				c0.6-1,1.1-2,1.3-2.9h-8.5v-1.5h10.7c0,0-0.1,0.7-0.3,1.6c-0.3,1-0.7,2.4-1.3,3.3C201.2,68.6,200.5,69.5,199.8,70.1z"/>
			<path d="M198.4,67.4c-0.6-0.8-1.3-1.6-2-2.3l1.3-0.8c0.7,0.5,1.3,1.2,2,2.1L198.4,67.4z"/>
		</g>
	</g>
</g>
<path class="st26" d="M193.1,63.1h9.5c0,0-0.5,4.3-3.9,7c-3.3,2.6-5.5,2.7-5.5,2.7"/>
<path class="st26" d="M194.5,64.6c0,0,0.9,3.6,3.9,5.7c2.9,2.2,5.3,2.4,5.3,2.4"/>
<rect x="193.1" y="76.9" class="st26" width="10.1" height="10.1"/>
<line class="st26" x1="194.3" y1="79.4" x2="202.1" y2="79.4"/>
<line class="st26" x1="194.3" y1="81" x2="202.1" y2="81"/>
<line class="st26" x1="195.5" y1="77.7" x2="196.5" y2="79.4"/>
<line class="st26" x1="200.7" y1="77.7" x2="199.8" y2="79.4"/>
<path class="st26" d="M198.3,77.7c0,0-0.7,2.4-1.5,3.3c-0.9,1-2.4,2.4-2.4,2.4"/>
<polyline class="st26" points="197.3,84 199.5,84 199.5,82.6 196,82.6 196,85.4 200.1,85.4 201.2,84.3 "/>
<path class="st26" d="M199.8,81c0,0,0.7,1.3,1.3,1.8s0.8,0.5,0.8,0.5"/>
<path class="st26" d="M197,64.8c0,0,1.6,1.5,2,2.2"/>
<path class="st27" d="M215.6,156.7h31.3c0,0-1.6,14.2-13,23.2c-10.8,8.6-18.3,9-18.3,9"/>
<path class="st27" d="M220.4,161.4c0,0,3.1,11.8,12.8,19s17.7,8,17.7,8"/>
<rect x="215.6" y="202.2" class="st27" width="33.3" height="33.3"/>
<line class="st27" x1="219.7" y1="210.4" x2="245.3" y2="210.4"/>
<line class="st27" x1="219.7" y1="215.9" x2="245.3" y2="215.9"/>
<line class="st27" x1="223.7" y1="204.9" x2="226.8" y2="210.4"/>
<line class="st27" x1="240.9" y1="204.9" x2="237.9" y2="210.4"/>
<path class="st27" d="M232.8,204.9c0,0-2.2,7.8-5.1,10.9c-2.8,3.2-8,7.9-8,7.9"/>
<polyline class="st27" points="229.6,225.7 236.8,225.7 236.8,221.1 225.2,221.1 225.2,230.3 240.9,230.3 242.5,226.6 "/>
<polyline class="st27" points="237.7,215.9 240.9,223.4 244.8,223.4 "/>
<path class="st27" d="M228.5,162.2c0,0,5.3,5,6.6,7.3"/>
<g>
	<g>
		<g>
			<path class="st12" d="M160.3,249v15.9h15.8V249H160.3z M173.9,258.5v4.4h-11.5h-0.1v-12.1l0,0h5h2h4.4l0,0v7.7H173.9z"/>
			<path class="st12" d="M173.5,257.7c-0.9-0.3-1.2-0.5-1.9-1.2h1.9v-1.6h-5.6l0.4-0.7h5.3v-1.4h-1.9c0.3-0.4,0.8-1.2,1.1-1.6h-2
				c0,0-0.6,1.1-1.1,1.6H169c0.2-0.6,0.4-1,0.6-1.6h-2c-0.2,0.7-0.4,1-0.7,1.6h-0.3c-0.3-0.6-1-1.6-1-1.6h-2.1
				c0.5,0.6,1.1,1.4,1.2,1.6H163v1.4h3.2l-0.4,0.7H163v1.6h1.6c-0.7,0.7-0.9,1-1.6,1.3v2.5c0.5-0.4,1.1-1,1.4-1.3v1.6
				c0,1.2,0.7,1.9,2.1,1.9h4.5c0.6,0,1.4-0.3,1.8-0.8c0.2-0.3,0.5-1.1,0.5-1.1c-0.9-0.3-1.8-1.2-1.8-1.2c-0.1,1.4-1.4,1.6-2.3,1.6
				h-2.4c-0.4,0-0.6-0.2-0.6-0.6v-1.7h3v0.1c0,0.4-0.3,0.5-0.8,0.5c-0.4,0-1.5,0-1.5,0v1.2c0.2,0,1.1,0,1.3,0c1.4,0,2-0.1,2.3-0.4
				s0.4-0.9,0.4-1.9c0.6,0.6,1.7,1.4,2.5,1.8v-2.3H173.5L173.5,257.7z M166.2,257.3c0.3-0.2,0.5-0.5,0.7-0.8h2.7
				c0.2,0.3,0.4,0.5,0.6,0.8H166.2z"/>
		</g>
	</g>
	<g>
		<g>
			<path class="st12" d="M151.6,259.9c1.6,1.3,2.9,1.8,5.4,2.2v2.7c-2.6-0.5-5.5-1.8-7.4-3.4c-2,1.6-4.4,2.8-7.4,3.4v-2.6
				c2.2-0.4,3.9-1.2,5.4-2.3c-1.7-1.6-3.4-4.4-4.7-7.7h2.4c0.3,0.8,0.8,1.9,1.7,3.1c0.8,1.3,1.7,2.4,2.6,3.2
				c0.7-0.6,1.8-1.7,2.6-3.1s1.6-2.7,1.8-4h-11.7v-2.1h14.6c0,0-0.1,0.9-0.4,2.1c-0.4,1.4-1,3.3-1.8,4.6
				C153.5,257.8,152.6,259,151.6,259.9z"/>
			<path class="st12" d="M149.6,256.2c-0.8-1.1-1.8-2.2-2.8-3.2l1.9-1.1c0.9,0.7,1.8,1.7,2.8,2.8L149.6,256.2z"/>
		</g>
	</g>
</g>
<g>
	<g>
		<path class="st12" d="M40.7,257.6c-0.1-1.9-0.1-2.7-0.1-3.3v-5.6h4.5L45,265h-3.8l-6.5-8.8l0.1,3.5v5.2h-4.5l0.1-16.2h3.8
			L40.7,257.6z"/>
		<path class="st12" d="M57,265.5c-5.2,0-8.8-3.1-8.7-8.6c0-5.3,3.6-8.5,8.8-8.5s8.8,3.1,8.7,8.6C65.8,262.4,62.2,265.5,57,265.5z
			 M57,252.4c-2.5,0-4.3,1.9-4.3,4.6s1.8,4.6,4.3,4.6c2.6,0,4.3-1.9,4.3-4.6C61.3,254.2,59.6,252.4,57,252.4z"/>
		<path class="st12" d="M79.4,257.8c-0.1-1.9-0.1-2.7-0.1-3.3v-5.6h4.5l-0.1,16.2h-3.8l-6.5-8.8l0.1,3.6v5.2H69l0.1-16.2h3.8
			L79.4,257.8z"/>
		<path class="st12" d="M94.4,254.4l1.5-2.9l1.5-2.4h4.8v0.3l-5,7.8l5.3,8v0.2h-4.8l-1.5-2.3l-1.7-3l-1.8,3.1l-1.5,2.2h-4.8v-0.2
			l5.3-8l-4.9-7.8v-0.3h4.8l1.5,2.5L94.4,254.4z"/>
		<path class="st12" d="M112.1,265.7c-5.2,0-8.8-3.1-8.7-8.6c0-5.3,3.6-8.5,8.8-8.5s8.8,3.1,8.7,8.6
			C120.9,262.7,117.3,265.7,112.1,265.7z M112.2,252.6c-2.5,0-4.3,1.9-4.3,4.6s1.8,4.6,4.3,4.6c2.6,0,4.3-1.9,4.3-4.6
			C116.5,254.4,114.8,252.6,112.2,252.6z"/>
		<path class="st12" d="M46.9,287.3h-3.6l-2.8-7.8l-2.7,7.8h-3.6l-5.8-16.2h4.9l2,5.7c0.4,1.2,0.6,2.6,0.8,3.8l2.9-9.5h3.1l3,9.5
			c0.2-1.2,0.5-2.5,0.9-3.9l1.9-5.6h4.9L46.9,287.3z"/>
		<path class="st12" d="M62.5,287.8c-5.2,0-8.8-3.1-8.7-8.6c0-5.3,3.6-8.5,8.8-8.5s8.8,3.1,8.7,8.6
			C71.3,284.8,67.7,287.8,62.5,287.8z M62.6,274.7c-2.5,0-4.3,1.9-4.3,4.6s1.8,4.6,4.3,4.6c2.6,0,4.3-1.9,4.3-4.6
			C66.9,276.5,65.2,274.7,62.6,274.7z"/>
		<path class="st12" d="M89.1,287.5h-4.9l-3.7-5.3h-1.6v5.3h-4.5l0.1-16.2h7.7c4,0,6.1,2.7,6.1,5.6c0,2-0.7,3.7-3.4,4.9l4.1,5.5
			L89.1,287.5z M79,274.9v3.9h3.3c1.2,0,1.7-0.9,1.7-1.9s-0.6-2-1.7-2H79z"/>
		<path class="st12" d="M106,271.6l-6.4,7.7c2.2,2.5,4.7,5.5,6.9,8v0.3H101l-4.5-5.4v5.4H92l0.1-16.2h4.5v5.3
			c1.4-1.7,2.8-3.6,4.2-5.3h5.3L106,271.6z"/>
		<path class="st12" d="M118.1,275.9c-1.1-0.8-2.3-1.1-3.7-1.1c-1.1,0-2.1,0.3-2.1,1.2c0,1.1,1.1,1.3,2.6,1.4
			c3.1,0.4,6.4,1.7,6.4,5.4c0,3.7-3.4,5.3-6.9,5.3c-2.8,0-4.9-0.5-7-2.9l2.5-2.9c1.5,1.6,3.3,1.8,4.6,1.9c1.5,0,2.5-0.5,2.5-1.4
			c0-0.8-0.9-1.3-2.6-1.5C111,281,108,280,108,276c0-3.4,3.3-4.9,6.6-4.9c2.4,0,4.2,0.6,5.9,2L118.1,275.9z"/>
		<path class="st12" d="M134.4,287.7v-6.1h-5.7v6.1h-4.5l0.1-16.2h4.5v6.2h5.7v-6.2h4.4l-0.1,16.2H134.4z"/>
		<path class="st12" d="M150.8,288.2c-5.2,0-8.8-3.1-8.7-8.6c0-5.3,3.6-8.5,8.8-8.5s8.8,3.1,8.7,8.6
			C159.6,285.1,156,288.2,150.8,288.2z M150.8,275.1c-2.5,0-4.3,1.9-4.3,4.6s1.8,4.6,4.3,4.6c2.6,0,4.3-1.9,4.3-4.6
			C155.1,276.9,153.5,275.1,150.8,275.1z"/>
		<path class="st12" d="M167.2,283.5v4.4h-4.5l0.1-16.2h7.7c4.2,0,6.3,2.8,6.3,5.9c0,3.3-2.1,5.9-6.4,5.9L167.2,283.5L167.2,283.5z
			 M167.3,279.6h3.2c1.2,0,1.9-0.9,1.9-2s-0.6-2-1.9-2h-3.2V279.6z"/>
	</g>
</g>
<g>
	<g>
		<g>
			<path class="st12" d="M318.6-81.9V-66h15.8v-15.9H318.6z M332.2-72.4v4.4h-11.5h-0.1v-12.1l0,0h5h2h4.4l0,0v7.7H332.2z"/>
			<path class="st12" d="M331.8-73.2c-0.9-0.3-1.2-0.5-1.9-1.2h1.9V-76h-5.6l0.4-0.7h5.3v-1.4H330c0.3-0.4,0.8-1.2,1.1-1.6h-2
				c0,0-0.6,1.1-1.1,1.6h-0.7c0.2-0.6,0.4-1,0.6-1.6h-2c-0.2,0.7-0.4,1-0.7,1.6h-0.3c-0.3-0.6-1-1.6-1-1.6h-2.1
				c0.5,0.6,1.1,1.4,1.2,1.6h-1.7v1.4h3.2l-0.4,0.7h-2.8v1.6h1.6c-0.7,0.7-0.9,1-1.6,1.3v2.5c0.5-0.4,1.1-1,1.4-1.3v1.6
				c0,1.2,0.7,1.9,2.1,1.9h4.5c0.6,0,1.4-0.3,1.8-0.8c0.2-0.3,0.5-1.1,0.5-1.1c-0.9-0.3-1.8-1.2-1.8-1.2c-0.1,1.4-1.4,1.6-2.3,1.6
				h-2.4c-0.4,0-0.6-0.2-0.6-0.6v-1.7h3v0.1c0,0.4-0.3,0.5-0.8,0.5c-0.4,0-1.5,0-1.5,0v1.2c0.2,0,1.1,0,1.3,0c1.4,0,2-0.1,2.3-0.4
				s0.4-0.9,0.4-1.9c0.6,0.6,1.7,1.4,2.5,1.8L331.8-73.2C331.7-73.2,331.8-73.2,331.8-73.2z M324.5-73.6c0.3-0.2,0.5-0.5,0.7-0.8
				h2.7c0.2,0.3,0.4,0.5,0.6,0.8H324.5z"/>
		</g>
	</g>
	<g>
		<g>
			<path class="st12" d="M309.9-71c1.6,1.3,2.9,1.8,5.4,2.2v2.7c-2.6-0.5-5.5-1.8-7.4-3.4c-2,1.6-4.4,2.8-7.4,3.4v-2.6
				c2.2-0.4,3.9-1.2,5.4-2.3c-1.7-1.6-3.4-4.4-4.7-7.7h2.4c0.3,0.8,0.8,1.9,1.7,3.1c0.8,1.3,1.7,2.4,2.6,3.2
				c0.7-0.6,1.8-1.7,2.6-3.1c0.8-1.4,1.6-2.7,1.8-4h-11.7v-2.1h14.6c0,0-0.1,0.9-0.4,2.1c-0.4,1.4-1,3.3-1.8,4.6
				C311.8-73.1,310.9-71.9,309.9-71z"/>
			<path class="st12" d="M307.9-74.7c-0.8-1.1-1.8-2.2-2.8-3.2L307-79c0.9,0.7,1.8,1.7,2.8,2.8L307.9-74.7z"/>
		</g>
	</g>
</g>
<g>
	<g>
		<path class="st12" d="M199-73.3c-0.1-1.9-0.1-2.7-0.1-3.3v-5.6h4.5l-0.1,16.3h-3.8l-6.5-8.8l0.1,3.5v5.2h-4.5l0.1-16.2h3.8
			L199-73.3z"/>
		<path class="st12" d="M215.3-65.4c-5.2,0-8.8-3.1-8.7-8.6c0-5.3,3.6-8.5,8.8-8.5s8.8,3.1,8.7,8.6
			C224.1-68.5,220.5-65.4,215.3-65.4z M215.3-78.5c-2.5,0-4.3,1.9-4.3,4.6s1.8,4.6,4.3,4.6c2.6,0,4.3-1.9,4.3-4.6
			C219.6-76.7,217.9-78.5,215.3-78.5z"/>
		<path class="st12" d="M237.7-73.1c-0.1-1.9-0.1-2.7-0.1-3.3V-82h4.5L242-65.8h-3.8l-6.5-8.8l0.1,3.6v5.2h-4.5l0.1-16.2h3.8
			L237.7-73.1z"/>
		<path class="st12" d="M252.7-76.5l1.5-2.9l1.5-2.4h4.8v0.3l-5,7.8l5.3,8v0.2H256l-1.5-2.3l-1.7-3l-1.8,3.1l-1.5,2.2h-4.8v-0.2
			l5.3-8l-4.9-7.8v-0.3h4.8l1.5,2.5L252.7-76.5z"/>
		<path class="st12" d="M270.4-65.2c-5.2,0-8.8-3.1-8.7-8.6c0-5.3,3.6-8.5,8.8-8.5c5.2,0,8.8,3.1,8.7,8.6
			C279.2-68.2,275.6-65.2,270.4-65.2z M270.5-78.3c-2.5,0-4.3,1.9-4.3,4.6s1.8,4.6,4.3,4.6c2.6,0,4.3-1.9,4.3-4.6
			C274.8-76.5,273.1-78.3,270.5-78.3z"/>
		<path class="st12" d="M205.2-43.6h-3.6l-2.8-7.8l-2.7,7.8h-3.6l-5.8-16.2h4.9l2,5.7c0.4,1.2,0.6,2.6,0.8,3.8l2.9-9.5h3.1l3,9.5
			c0.2-1.2,0.5-2.5,0.9-3.9l1.9-5.6h4.9L205.2-43.6z"/>
		<path class="st12" d="M220.8-43.1c-5.2,0-8.8-3.1-8.7-8.6c0-5.3,3.6-8.5,8.8-8.5s8.8,3.1,8.7,8.6C229.6-46.1,226-43.1,220.8-43.1z
			 M220.9-56.2c-2.5,0-4.3,1.9-4.3,4.6c0,2.7,1.8,4.6,4.3,4.6c2.6,0,4.3-1.9,4.3-4.6C225.2-54.4,223.5-56.2,220.9-56.2z"/>
		<path class="st12" d="M247.4-43.4h-4.9l-3.7-5.3h-1.6v5.3h-4.5l0.1-16.2h7.7c4,0,6.1,2.7,6.1,5.6c0,2-0.7,3.7-3.4,4.9l4.1,5.5
			L247.4-43.4z M237.3-56v3.9h3.3c1.2,0,1.7-0.9,1.7-1.9s-0.6-2-1.7-2H237.3z"/>
		<path class="st12" d="M264.3-59.3l-6.4,7.7c2.2,2.5,4.7,5.5,6.9,8v0.3h-5.5l-4.5-5.4v5.4h-4.5l0.1-16.2h4.5v5.3
			c1.4-1.7,2.8-3.6,4.2-5.3h5.3L264.3-59.3z"/>
		<path class="st12" d="M276.4-55c-1.1-0.8-2.3-1.1-3.7-1.1c-1.1,0-2.1,0.3-2.1,1.2c0,1.1,1.1,1.3,2.6,1.4c3.1,0.4,6.4,1.7,6.4,5.4
			s-3.4,5.3-6.9,5.3c-2.8,0-4.9-0.5-7-2.9l2.5-2.9c1.5,1.6,3.3,1.8,4.6,1.9c1.5,0,2.5-0.5,2.5-1.4c0-0.8-0.9-1.3-2.6-1.5
			c-3.4-0.3-6.4-1.3-6.4-5.3c0-3.4,3.3-4.9,6.6-4.9c2.4,0,4.2,0.6,5.9,2L276.4-55z"/>
		<path class="st12" d="M292.7-43.2v-6.1H287v6.1h-4.5l0.1-16.2h4.5v6.2h5.7v-6.2h4.4l-0.1,16.2H292.7z"/>
		<path class="st12" d="M309.1-42.7c-5.2,0-8.8-3.1-8.7-8.6c0-5.3,3.6-8.5,8.8-8.5c5.2,0,8.8,3.1,8.7,8.6
			C317.9-45.8,314.3-42.7,309.1-42.7z M309.1-55.8c-2.5,0-4.3,1.9-4.3,4.6s1.8,4.6,4.3,4.6c2.6,0,4.3-1.9,4.3-4.6
			C313.4-54,311.8-55.8,309.1-55.8z"/>
		<path class="st12" d="M325.5-47.4v4.4H321l0.1-16.2h7.7c4.2,0,6.3,2.8,6.3,5.9c0,3.3-2.1,5.9-6.4,5.9L325.5-47.4L325.5-47.4z
			 M325.6-51.3h3.2c1.2,0,1.9-0.9,1.9-2s-0.6-2-1.9-2h-3.2V-51.3z"/>
	</g>
</g>
<g>
	<path class="st12" d="M53.4,213.9c0,5.9,4.8,10.6,10.6,10.6s10.6-4.8,10.6-10.6c0-5.9-4.8-10.6-10.6-10.6S53.4,208,53.4,213.9z"/>
</g>
<g>
	<path class="st12" d="M29,213.9c0,5.9,4.8,10.6,10.6,10.6s10.6-4.8,10.6-10.6c0-5.9-4.8-10.6-10.6-10.6S29,208,29,213.9z"/>
</g>
<g>
	<path class="st12" d="M280.5,213.9c0,5.9,4.8,10.6,10.6,10.6c5.9,0,10.6-4.8,10.6-10.6c0-5.9-4.8-10.6-10.6-10.6
		C285.3,203.3,280.5,208,280.5,213.9z"/>
</g>
<g>
	<path class="st12" d="M256.1,213.9c0,5.9,4.8,10.6,10.6,10.6c5.9,0,10.6-4.8,10.6-10.6c0-5.9-4.8-10.6-10.6-10.6
		S256.1,208,256.1,213.9z"/>
</g>
<g>
	<path class="st12" d="M-208.1,4.6c-0.1-2.2-0.1-3.1-0.1-3.7v-6.4h5.1l-0.1,18.5h-4.3l-7.4-10l0.1,4v5.9h-5.1l0.1-18.4h4.3
		L-208.1,4.6z"/>
</g>
<g>
	<path class="st12" d="M-189.6,13.5c-5.9,0-10-3.5-9.9-9.8c0-6,4.1-9.7,10-9.7s10,3.5,9.9,9.8C-179.6,10-183.7,13.5-189.6,13.5z
		 M-189.6-1.3c-2.8,0-4.9,2.2-4.9,5.2c0,3.1,2,5.2,4.9,5.2c3,0,4.9-2.2,4.9-5.2C-184.7,0.7-186.6-1.3-189.6-1.3z"/>
</g>
<g>
	<path class="st12" d="M-164.2,4.8c-0.1-2.2-0.1-3.1-0.1-3.7v-6.4h5.1l-0.1,18.4h-4.3l-7.4-10l0.1,4.1v5.9h-5.1l0.1-18.4h4.3
		L-164.2,4.8z"/>
</g>
<g>
	<polygon class="st12" points="-141.2,0.7 -139.5,-2.6 -137.8,-5.3 -132.4,-5.3 -132.4,-4.9 -138,3.9 -132,13 -132,13.2 
		-137.5,13.2 -139.2,10.6 -141.1,7.2 -143.2,10.7 -144.9,13.2 -150.3,13.2 -150.3,13 -144.3,3.9 -149.9,-4.9 -149.9,-5.3 
		-144.4,-5.3 -142.7,-2.4 	"/>
</g>
<g>
	<path class="st12" d="M-121.1,13.6c-5.9,0-10-3.5-9.9-9.8c0-6,4.1-9.7,10-9.7s10,3.5,9.9,9.8C-111.1,10.2-115.2,13.6-121.1,13.6z
		 M-121-1.3c-2.8,0-4.9,2.2-4.9,5.2c0,3.1,2,5.2,4.9,5.2c3,0,4.9-2.2,4.9-5.2C-116.1,0.7-118.1-1.3-121-1.3z"/>
</g>
<g>
	<path d="M198.5,81.3v9.8h9.8v-9.8H198.5z M206.9,87.2v2.7h-7.1l0,0v-7.5l0,0h3.1h1.2h2.7l0,0L206.9,87.2L206.9,87.2z"/>
	<path d="M206.7,86.6c-0.5-0.2-0.8-0.3-1.2-0.7h1.2v-1h-3.5l0.2-0.4h3.3v-0.9h-1.2c0.2-0.2,0.5-0.7,0.6-1h-1.2c0,0-0.4,0.7-0.6,1
		h-0.4c0.1-0.4,0.2-0.6,0.3-1H203c0,0.4-0.2,0.6-0.4,1h-0.2c-0.1-0.4-0.6-1-0.6-1h-1.3c0.3,0.4,0.6,0.8,0.7,1h-1v0.9h2l-0.2,0.4
		h-1.7v1h1c-0.4,0.4-0.6,0.6-1,0.8v1.6c0.3-0.2,0.7-0.6,0.8-0.8v1c0,0.8,0.4,1.2,1.3,1.2h2.8c0.4,0,0.8-0.2,1.1-0.5
		c0.1-0.2,0.2-0.7,0.2-0.7c-0.6-0.2-1.2-0.8-1.2-0.8c0,0.8-0.8,1-1.3,1h-1.6c-0.2,0-0.4,0-0.4-0.3v-1.1h1.9l0,0
		c0,0.2-0.1,0.2-0.4,0.2c-0.2,0-0.9,0-0.9,0v0.8c0,0,0.7,0,0.8,0c0.8,0,1.2,0,1.4-0.2s0.2-0.5,0.2-1.2c0.3,0.4,1,0.8,1.6,1.1
		L206.7,86.6L206.7,86.6z M202.1,86.4c0.1-0.1,0.3-0.3,0.4-0.5h1.7c0,0.2,0.2,0.3,0.4,0.5H202.1z"/>
</g>
<g>
	<path d="M204.6,76.7c1,0.8,1.8,1.2,3.3,1.4v1.7c-1.6-0.3-3.4-1.2-4.5-2.1c-1.2,1-2.7,1.8-4.5,2.1v-1.6c1.3-0.2,2.4-0.8,3.3-1.4
		c-1-1-2.1-2.7-2.9-4.7h1.5c0.2,0.5,0.5,1.2,1,1.9c0.4,0.8,1,1.5,1.6,2c0.4-0.4,1.1-1,1.6-1.9c0.5-0.8,1-1.7,1.1-2.4h-7.2v-1.3h9
		c0,0,0,0.6-0.2,1.3c-0.2,0.8-0.6,2-1.2,2.8C205.7,75.4,205.1,76.2,204.6,76.7z"/>
	<path d="M203.3,74.4c-0.5-0.6-1.1-1.3-1.7-2l1.2-0.6c0.6,0.4,1.2,1,1.7,1.8L203.3,74.4z"/>
</g>
<g>
	<path d="M134.6,43.4v23.4h23.3V43.4H134.6z M154.7,57.4v6.5h-16.9h-0.2V46l0,0h7.5h3h6.5l0,0L154.7,57.4L154.7,57.4z"/>
	<path d="M154.2,56.1c-1.2-0.5-1.9-0.8-2.8-1.7h2.8v-2.3h-8.4l0.6-1.1h7.8v-2.2h-2.8c0.5-0.6,1.2-1.7,1.6-2.3h-3
		c0,0-0.9,1.7-1.6,2.3h-1.1c0.3-0.9,0.6-1.4,0.8-2.3h-3c-0.2,1.1-0.6,1.6-0.9,2.3h-0.5c-0.3-0.9-1.6-2.3-1.6-2.3H139
		c0.8,0.9,1.6,2,1.7,2.3h-2.5V51h4.7l-0.6,1.1h-4v2.3h2.3c-1.1,1.1-1.4,1.6-2.3,1.9V60c0.8-0.6,1.7-1.6,2-1.9v2.3
		c0,1.9,1.1,2.8,3.1,2.8h6.7c0.9,0,2-0.5,2.6-1.2c0.3-0.5,0.6-1.7,0.6-1.7c-1.4-0.5-2.8-1.9-2.8-1.9c0,2-1.9,2.3-3.1,2.3h-3.6
		c-0.6,0-0.9-0.2-0.9-0.8v-2.6h4.5v0.2c0,0.6-0.3,0.6-1.1,0.6c-0.6,0-2.2,0-2.2,0V60c0.2,0,1.7,0,1.9,0c2,0,2.8-0.2,3.4-0.6
		c0.5-0.5,0.6-1.2,0.6-2.8c0.8,0.9,2.5,2,3.7,2.6L154.2,56.1L154.2,56.1z M143.3,55.5c0.3-0.3,0.8-0.8,1.1-1.2h4
		c0.2,0.5,0.6,0.8,0.9,1.2H143.3z"/>
</g>
<g>
	<path d="M122.9,59.2c2.3,1.9,4.3,2.8,7.9,3.3v4c-3.9-0.8-8.1-2.8-10.7-5c-3,2.3-6.5,4.2-10.9,5v-3.9c3.1-0.6,5.7-1.9,7.9-3.3
		c-2.5-2.3-5-6.5-7-11.3l3.6-0.2c0.5,1.2,1.2,2.8,2.5,4.5c1.1,1.9,2.5,3.6,3.7,4.7c1.1-0.9,2.6-2.5,3.9-4.5c1.2-2,2.3-4,2.6-5.7
		h-17.2v-3.1h21.4c0,0-0.2,1.4-0.6,3.1c-0.6,2-1.6,4.8-2.8,6.7C125.7,56.1,124.2,58,122.9,59.2z"/>
	<path d="M120,53.8c-1.2-1.6-2.6-3.1-4-4.7l2.8-1.6c1.4,1.1,2.8,2.5,4,4.2L120,53.8z"/>
</g>
<polygon class="st12" points="124.6,-62.5 121.8,-65.3 119.7,-63.3 117.7,-65.3 114.9,-62.5 116.9,-60.5 114.9,-58.5 117.7,-55.6 
	119.7,-57.6 121.8,-55.6 124.6,-58.5 122.6,-60.5 "/>
<path class="st12" d="M127-55.1c-2.8,0-5.1-2.3-5.1-5.1s2.3-5.1,5.1-5.1c2.8,0,5.1,2.3,5.1,5.1S129.8-55.1,127-55.1z"/>
<g>
	<line class="st16" x1="-134.3" y1="-102" x2="-105" y2="-83.6"/>
	<line class="st16" x1="-105" y1="-102" x2="-134.3" y2="-83.6"/>
	<ellipse class="st17" cx="-84.2" cy="-92.8" rx="14.6" ry="9.2"/>
</g>
<path d="M-20.6-36c-0.1-2.3-0.1-3.1-0.2-3.9v-6.5h5.3v19h-4.4l-7.7-10.2l0.1,4.2v6.1h-5.3v-19h4.4L-20.6-36z"/>
<path d="M-2.5-27c-6,0-10.3-3.6-10.3-10c0-6.2,4.2-10,10.3-10S7.8-43.4,7.8-37S3.6-27-2.5-27z M-2.5-42.3c-3,0-5,2.2-5,5.4
	s2.1,5.4,5,5.4c3.1,0,5-2.2,5-5.4C2.6-40.2,0.6-42.3-2.5-42.3z"/>
<path d="M22.7-36c-0.1-2.3-0.1-3.2-0.1-3.9v-6.5h5.3v19h-4.4l-7.7-10.2l0.1,4.2v6.1h-5.3v-19H15L22.7-36z"/>
<path d="M39.1-40.1l1.7-3.4l1.8-2.9h5.6v0.3L42.4-37l6.2,9.3v0.2h-5.7l-1.7-2.6l-2.1-3.5L37-30l-1.7,2.6h-5.7v-0.2l6.2-9.3L30-46
	v-0.4h5.6l1.7,2.9L39.1-40.1z"/>
<path d="M58.9-27c-6,0-10.3-3.6-10.3-10c0-6.2,4.2-10,10.3-10s10.3,3.6,10.3,10S65-27,58.9-27z M58.9-42.3c-3,0-5,2.2-5,5.4
	s2.1,5.4,5,5.4c3.1,0,5-2.2,5-5.4C64-40.2,62-42.3,58.9-42.3z"/>
<text transform="matrix(0.9723 0 0 1 -84.1914 65.9219)" style="font-family:'NexaBlack'; font-size:29.0193px;">NON</text>
<text transform="matrix(0.9723 0 0 1 -96.8779 -29.6582)" style="font-family:'NotoSansCJKtc-Black-B5pc-H'; font-size:25.3604px;">影</text>
<text transform="matrix(0.9723 0 0 1 -96.8774 0)" style="font-family:'NotoSansCJKtc-Black-B5pc-H'; font-size:25.3604px;">畫</text>
<g class="st28">
	<path d="M-11.9-74.7c0,5.1-3.1,8.9-8.6,8.9c-5.4,0-8.9-3.8-8.9-8.9c0-4.9,3.4-8.9,8.9-8.9S-11.9-79.8-11.9-74.7z M-20.5-68.2
		c3.8,0,6.1-2.6,6.1-6.5s-2.2-6.5-6.1-6.5c-3.8,0-6.3,2.7-6.3,6.5C-26.8-70.8-24.3-68.2-20.5-68.2z M-18.5-73.3
		c2.8-0.8,2.5-5.7-1.6-5.7c-1.4,0-2.5,0-3.9,0v8.8h2.4v-2.6h1l1.4,2.6h2.6L-18.5-73.3z M-20-76.9c1.2,0,1.2,2,0,2h-1.7v-2H-20z"/>
</g>
<rect x="-6.2" y="46" width="80.7" height="7.2"/>
<g>
	<rect x="5.4" y="11.7" class="st8" width="63.5" height="7.6"/>
</g>
<polygon class="st0" points="33.9,27.4 10.2,3.7 11.3,3.7 35,27.4 "/>
<path class="st29" d="M149.1-16.9c-7,0-12.8-5.7-12.8-12.8s5.7-12.8,12.8-12.8s12.8,5.7,12.8,12.8S156.1-16.9,149.1-16.9z
	 M149.1-41.7c-6.6,0-12,5.4-12,12s5.4,12,12,12s12-5.4,12-12C161-36.3,155.7-41.7,149.1-41.7z"/>
<polygon class="st29" points="112.6,-17.8 111.5,-17.8 135.2,-41.5 136.3,-41.5 "/>
<g>
	<rect x="148.4" y="-32.3" class="st8" width="18.4" height="5.3"/>
	<rect x="108.3" y="-32.3" class="st8" width="49.3" height="5.3"/>
</g>
<polygon class="st29" points="135.2,-17.8 111.5,-41.5 112.6,-41.5 136.3,-17.8 "/>
<g>
	<path d="M142,11.3c-0.1-1.1-0.1-1.5-0.1-1.9V6.2h2.6v9.3h-2.2l-3.9-5v2v3h-2.7V6.2h2.2L142,11.3z"/>
	<path d="M151.9,15.8c-3,0-5.2-1.8-5.2-4.9s2.1-4.9,5.2-4.9c3.1,0,5.2,1.8,5.2,4.9S155,15.8,151.9,15.8z M151.9,8.2
		c-1.5,0-2.5,1.1-2.5,2.6c0,1.6,1.1,2.6,2.5,2.6c1.5,0,2.5-1.1,2.5-2.6C154.5,9.3,153.5,8.2,151.9,8.2z"/>
	<path d="M165.5,11.3c-0.1-1.1-0.1-1.5-0.1-1.9V6.2h2.6v9.3h-2.2l-3.9-5v2v3h-2.7V6.2h2.2L165.5,11.3z"/>
	<path d="M174.5,9.3l0.9-1.7l0.9-1.4h2.8v0.1l-2.9,4.5l3.1,4.6v0.1h-2.9l-0.9-1.3l-1-1.7l-1.1,1.8l-0.9,1.3h-2.9v-0.1l3.1-4.6
		l-2.9-4.5V6.3h2.8l0.9,1.4L174.5,9.3z"/>
	<path d="M185.3,15.8c-3,0-5.2-1.8-5.2-4.9s2.1-4.9,5.2-4.9c3.1,0,5.2,1.8,5.2,4.9S188.4,15.8,185.3,15.8z M185.3,8.2
		c-1.5,0-2.5,1.1-2.5,2.6c0,1.6,1.1,2.6,2.5,2.6c1.5,0,2.5-1.1,2.5-2.6S186.8,8.2,185.3,8.2z"/>
</g>
<image style="overflow:visible;opacity:0.51;" width="1080" height="1080" xlink:href="Z:\logo\NONXO_LOGO-final.png"  transform="matrix(7.521447e-02 0 0 7.521447e-02 -93.1316 -44.8297)">
</image>
<g>
	<rect x="61.8" y="-24.2" class="st8" width="32.4" height="6.5"/>
</g>
<g class="st28">
	<path d="M63.6,3.2h-0.8V2.5h2.5v0.7h-0.9v2.3h-0.8V3.2z"/>
	<path d="M68.1,3.7l-0.7,0.9h-0.1l-0.7-0.9v1.8h-0.8v-3h0.9l0.8,1l0.8-1h0.9v3h-0.8V3.7z"/>
</g>
<g>
	<text transform="matrix(0.9723 0 0 1 62.8002 -6.6553)" style="font-family:'NexaBlack'; font-size:4.6599px;">TM</text>
</g>
</svg>
