<?xml version="1.0" encoding="utf-8"?>
<!-- Generator: Adobe Illustrator 23.1.0, SVG Export Plug-In . SVG Version: 6.00 Build 0)  -->
<svg version="1.1" id="圖層_1" xmlns="http://www.w3.org/2000/svg" xmlns:xlink="http://www.w3.org/1999/xlink" x="0px" y="0px"
	 viewBox="0 0 139.8 34.8" style="enable-background:new 0 0 139.8 34.8;" xml:space="preserve">
<style type="text/css">
	.st0{fill:#191919;}
	.st1{fill:#B5B5B5;}
	.st2{fill:#BB181E;}
	.st3{fill:none;stroke:#BB181E;stroke-width:3.8487;stroke-miterlimit:10;}
	.st4{fill:#FFFFFF;}
	.st5{fill:none;stroke:#000000;stroke-miterlimit:10;}
	.st6{fill:#231815;}
	.st7{fill:#040000;}
	.st8{fill:none;stroke:#000000;stroke-width:0.7639;stroke-miterlimit:10;}
	.st9{fill:none;stroke:#FFFFFF;stroke-miterlimit:10;}
	.st10{fill:none;stroke:#FFFFFF;stroke-width:1.6518;stroke-miterlimit:10;}
	.st11{fill:none;stroke:#040000;stroke-width:5.5394;stroke-miterlimit:10;}
	.st12{fill:none;stroke:#040000;stroke-width:5.1414;stroke-miterlimit:10;}
	.st13{enable-background:new    ;}
</style>
<g>
	<path class="st0" d="M-84.3,22.8c-4.2,4.2-4.2,10.9,0,15.1s10.9,4.2,15.1,0s4.2-10.9,0-15.1S-80.1,18.7-84.3,22.8z"/>
</g>
<path class="st1" d="M-95.3,33.9c-4.2,4.2-4.2,10.9,0,15.1s10.9,4.2,15.1,0s4.2-10.9,0-15.1S-91.1,29.7-95.3,33.9z"/>
<g>
	<g>
		<g>
			<path d="M70.5-181.7c-0.2-3.7-0.2-5.1-0.3-6.3v-10.5h8.5v30.7h-7.2l-12.4-16.5l0.1,6.7v9.8h-8.5v-30.7h7.2L70.5-181.7z"/>
			<path d="M99.7-167c-9.8,0-16.6-5.8-16.6-16.1c0-10.1,6.8-16.1,16.6-16.1s16.6,5.9,16.6,16.1S109.5-167,99.7-167z M99.7-191.8
				c-4.8,0-8.1,3.6-8.1,8.7c0,5.1,3.4,8.7,8.1,8.7c4.9,0,8.1-3.6,8.1-8.7C107.9-188.4,104.7-191.8,99.7-191.8z"/>
			<path d="M140.5-181.7c-0.2-3.7-0.2-5.1-0.3-6.3v-10.5h8.5v30.7h-7.2l-12.4-16.5l0.1,6.7v9.8h-8.5v-30.7h7.2L140.5-181.7z"/>
			<path d="M166.9-188.3l2.8-5.5l2.7-4.6h9.1v0.5l-9.4,14.8l10,15.1v0.3h-9.2l-2.8-4.3l-3.3-5.7l-3.4,5.8l-2.7,4.2h-9.2v-0.3
				l10-15.1l-9.4-14.8v-0.5h9.1l2.8,4.7L166.9-188.3z"/>
			<path d="M198.9-167c-9.8,0-16.6-5.8-16.6-16.1c0-10.1,6.8-16.1,16.6-16.1s16.6,5.9,16.6,16.1S208.7-167,198.9-167z M198.9-191.8
				c-4.8,0-8.1,3.6-8.1,8.7c0,5.1,3.4,8.7,8.1,8.7c4.9,0,8.1-3.6,8.1-8.7C207.1-188.4,203.8-191.8,198.9-191.8z"/>
			<path d="M82.5-118.8h-6.9l-5.2-14.7l-5.1,14.7h-6.9l-11.1-30.7h9.2l3.8,10.8c0.7,2.3,1.2,4.8,1.6,7.1l5.5-17.9h5.8l5.7,17.9
				c0.4-2.3,1-4.8,1.7-7.3l3.6-10.6h9.2L82.5-118.8z"/>
			<path d="M110.4-118c-9.8,0-16.6-5.8-16.6-16.1c0-10.1,6.8-16.1,16.6-16.1s16.6,5.9,16.6,16.1C127-123.8,120.2-118,110.4-118z
				 M110.4-142.8c-4.8,0-8.1,3.6-8.1,8.7s3.4,8.7,8.1,8.7c4.9,0,8.1-3.6,8.1-8.7C118.5-139.3,115.3-142.8,110.4-142.8z"/>
			<path d="M159-118.7h-9.3l-6.9-9.9h-2.9v9.9h-8.4v-30.7h14.6c7.6,0,11.6,5,11.6,10.6c0,3.8-1.3,7-6.3,9.3l7.8,10.3L159-118.7
				L159-118.7z M139.8-142.5v7.4h6.2c2.2,0,3.2-1.7,3.2-3.6c0-1.9-1.1-3.8-3.3-3.8L139.8-142.5L139.8-142.5z"/>
			<path d="M189.1-148.9L177-134.4c4.2,4.7,9,10.3,13.1,15.1v0.5h-10.4l-8.5-10.2v10.2h-8.4v-30.7h8.4v10.1
				c2.6-3.2,5.3-6.8,7.8-10.1h10.1L189.1-148.9L189.1-148.9z"/>
			<path d="M210.3-140.9c-2.1-1.6-4.4-2.1-7-2.1c-2.1,0-4.1,0.7-4.1,2.3c0,2.1,2,2.4,4.9,2.7c5.9,0.7,12.1,3.1,12.1,10.2
				c0,7-6.4,9.9-13.1,10c-5.4,0-9.2-0.9-13.3-5.4l4.6-5.5c2.9,2.9,6.2,3.5,8.7,3.5c2.8,0,4.7-1,4.7-2.7c0-1.5-1.7-2.5-5-2.8
				c-6.5-0.6-12.1-2.3-12.1-9.9c0-6.5,6.2-9.3,12.5-9.3c4.5,0,8,1.1,11.2,3.6L210.3-140.9z"/>
			<path d="M239.5-118.7v-11.6h-10.7v11.6h-8.4v-30.7h8.4v11.7h10.7v-11.7h8.4v30.7L239.5-118.7L239.5-118.7z"/>
			<path d="M268.9-118c-9.8,0-16.6-5.8-16.6-16.1c0-10.1,6.8-16.1,16.6-16.1c9.8,0,16.6,5.9,16.6,16.1
				C285.4-123.8,278.7-118,268.9-118z M268.9-142.8c-4.8,0-8.1,3.6-8.1,8.7s3.4,8.7,8.1,8.7c5,0,8.1-3.6,8.1-8.7
				C277-139.3,273.8-142.8,268.9-142.8z"/>
			<path d="M298.3-127v8.3h-8.4v-30.7h14.5c8,0,12,5.2,12,11.2c0,6.3-4,11.1-12,11.2C304.3-127,298.3-127,298.3-127z M298.3-134.3h6
				c2.3,0,3.5-1.8,3.5-3.8s-1.2-3.9-3.5-3.9h-6V-134.3z"/>
		</g>
	</g>
	<rect x="228.8" y="-186.9" class="st2" width="84.8" height="3.8"/>
	<g>
		<g>
			<g>
				<path d="M75.9-71.6V-51h20.5v-20.6H75.9z M93.6-59.3v5.8H78.7h-0.1v-15.7l0,0h6.5h2.6h5.7l0,0L93.6-59.3L93.6-59.3z"/>
				<path d="M93.1-60.4c-1.1-0.4-1.6-0.7-2.4-1.5h2.4V-64h-7.3l0.5-0.9h6.8v-1.9h-2.5c0.4-0.5,1.1-1.5,1.4-2.1h-2.6
					c0,0-0.8,1.5-1.4,2.1h-0.9c0.3-0.8,0.6-1.2,0.7-2.1h-2.6c-0.2,0.9-0.5,1.3-0.8,2.1H84c-0.3-0.8-1.3-2.1-1.3-2.1H80
					c0.7,0.8,1.4,1.8,1.5,2.1h-2.2v1.9h4.1L82.9-64h-3.6v2.1h2c-0.9,0.9-1.2,1.3-2,1.6v3.3c0.7-0.5,1.5-1.3,1.8-1.6v2
					c0,1.6,1,2.5,2.7,2.5h5.9c0.8,0,1.8-0.4,2.3-1.1c0.3-0.4,0.6-1.5,0.6-1.5c-1.2-0.4-2.4-1.6-2.4-1.6c0,1.8-1.7,2.1-2.8,2.1h-3.1
					c-0.5,0-0.8-0.2-0.8-0.7v-2.3h3.9v0.1c0,0.5-0.3,0.6-1,0.6c-0.5,0-1.9,0-1.9,0v1.6c0.2,0,1.5,0,1.7,0c1.8,0,2.5-0.2,3-0.6
					c0.4-0.4,0.5-1.1,0.5-2.5c0.7,0.8,2.2,1.8,3.3,2.3L93.1-60.4L93.1-60.4z M83.6-60.9c0.3-0.3,0.7-0.7,0.9-1.1H88
					c0.2,0.4,0.5,0.7,0.8,1.1H83.6z"/>
			</g>
			<g>
				<path d="M64.9-57.7c2.1,1.6,3.8,2.4,7,2.9v3.5c-3.4-0.7-7.1-2.4-9.5-4.4c-2.6,2-5.8,3.7-9.6,4.4v-3.4c2.8-0.5,5.1-1.6,7-2.9
					c-2.2-2.1-4.4-5.7-6.1-10l3.1-0.1c0.4,1.1,1.1,2.4,2.2,4c1,1.6,2.2,3.1,3.3,4.1c0.9-0.8,2.3-2.2,3.4-4c1.1-1.8,2-3.5,2.3-5.1
					H52.8v-2.7h18.9c0,0-0.1,1.2-0.5,2.8c-0.5,1.8-1.3,4.2-2.4,5.9C67.4-60.5,66.1-58.9,64.9-57.7z"/>
				<path d="M62.3-62.5c-1.1-1.4-2.3-2.8-3.6-4.1l2.4-1.4c1.2,0.9,2.4,2.2,3.6,3.7L62.3-62.5z"/>
			</g>
		</g>
	</g>
</g>
<g>
	<g>
		<text transform="matrix(0.9723 0 0 1 -378.9355 -107.9404)" style="font-family:'NexaBlack'; font-size:43.8446px;">NONXO</text>
		<text transform="matrix(0.9723 0 0 1 -378.9355 -58.9004)" style="font-family:'NexaBlack'; font-size:43.8446px;">WORKSHOP</text>
	</g>
	<line class="st3" x1="-197.8" y1="-125.1" x2="-113" y2="-125.1"/>
	<g>
		<g>
			<g>
				<path d="M-350.7-11.8V8.8h20.5v-20.6H-350.7z M-333,0.5v5.8h-14.8h-0.1V-9.5l0,0h6.5h2.6h5.7l0,0L-333,0.5L-333,0.5z"/>
				<path d="M-333.5-0.6c-1.1-0.4-1.6-0.7-2.4-1.5h2.4v-2h-7.3l0.5-0.9h6.8v-1.9h-2.5c0.4-0.5,1.1-1.5,1.4-2.1h-2.5
					c0,0-0.8,1.5-1.4,2.1h-0.9c0.3-0.8,0.6-1.2,0.7-2.1h-2.6c-0.2,0.9-0.5,1.3-0.8,2.1h-0.4c-0.4-0.8-1.3-2.1-1.3-2.1h-2.7
					c0.6,0.8,1.4,1.8,1.5,2.1h-2.2V-5h4.1l-0.5,0.9h-3.6V-2h2c-0.9,0.9-1.2,1.3-2,1.6v3.3c0.7-0.5,1.5-1.3,1.8-1.6v2
					c0,1.6,1,2.5,2.7,2.5h5.9c0.8,0,1.8-0.3,2.3-1.1c0.3-0.4,0.6-1.5,0.6-1.5c-1.2-0.4-2.4-1.6-2.4-1.6c-0.1,1.8-1.9,2.1-2.9,2.1
					h-3.1c-0.5,0-0.8-0.2-0.8-0.7V0.7h3.8v0.1c0,0.5-0.3,0.6-1,0.6c-0.5,0-1.9,0-1.9,0V3c0.2,0,1.5,0,1.7,0c1.8,0,2.5-0.2,3-0.6
					c0.4-0.4,0.5-1.2,0.5-2.5c0.7,0.8,2.2,1.8,3.3,2.3L-333.5-0.6L-333.5-0.6z M-343-1c0.4-0.3,0.6-0.7,0.9-1h3.5
					c0.2,0.3,0.5,0.7,0.8,1H-343z"/>
			</g>
			<g>
				<path d="M-361.7,2.2c2.1,1.7,3.8,2.4,7,2.9v3.5c-3.4-0.7-7.1-2.3-9.5-4.4c-2.6,2-5.8,3.7-9.6,4.4V5.2c2.8-0.5,5.1-1.6,7-3
					c-2.2-2.1-4.4-5.7-6.1-10l3.1-0.1c0.4,1.1,1.1,2.4,2.1,4s2.1,3.1,3.3,4.1c0.9-0.8,2.3-2.2,3.4-4s2-3.5,2.3-5.1h-15.2v-2.7h18.9
					c0,0-0.1,1.2-0.5,2.8c-0.5,1.8-1.3,4.2-2.4,5.9C-359.2-0.7-360.4,0.9-361.7,2.2z"/>
				<path d="M-364.2-2.7c-1.1-1.4-2.3-2.8-3.6-4.1l2.4-1.4c1.2,0.9,2.4,2.2,3.6,3.7L-364.2-2.7z"/>
			</g>
		</g>
	</g>
</g>
<path d="M64.7,141.4c-6.8,1-13.1-3.7-14.1-10.4c-1-6.8,3.7-13.1,10.4-14.1c6.8-1,13.1,3.7,14.1,10.4
	C76.1,134.1,71.4,140.4,64.7,141.4z"/>
<path class="st4" d="M64.7,141.4c-6.8,1-13.1-3.7-14.1-10.4c-1-6.8,3.7-13.1,10.4-14.1c6.8-1,13.1,3.7,14.1,10.4
	C76.1,134.1,71.4,140.4,64.7,141.4 M64.9,143.1c7.7-1.1,13-8.3,11.9-16s-8.3-13-16-11.9s-13,8.3-11.9,16
	C50.1,138.9,57.2,144.2,64.9,143.1L64.9,143.1z"/>
<g>
	<polygon points="57,135.3 50.7,143.8 44.7,139.3 40.3,145.4 31.8,139.1 36.3,133.1 30.2,128.6 36.5,120.1 42.5,124.6 47,118.6 
		55.5,124.9 51,130.9 	"/>
	<path class="st4" d="M50.7,143.8l-6-4.5l-4.5,6l-8.5-6.3l4.5-6l-6-4.5l6.3-8.5l6,4.5l4.5-6l8.5,6.3l-4.5,6l6,4.5L50.7,143.8
		 M51.1,146.2l1-1.4l6.3-8.5l1-1.4l-1.4-1l-4.6-3.4l3.4-4.6l1-1.4l-1.4-1l-8.5-6.3l-1.4-1l-1,1.4l-3.4,4.6l-4.6-3.4l-1.4-1l-1,1.4
		l-6.3,8.5l-1,1.4l1.4,1l4.6,3.4l-3.4,4.6l-1,1.4l1.4,1l8.5,6.3l1.4,1l1-1.4l3.4-4.6l4.6,3.4L51.1,146.2L51.1,146.2z"/>
</g>
<polygon class="st5" points="113.8,-37.3 106.4,-44.8 101.1,-39.5 95.8,-44.8 88.3,-37.3 93.6,-32 88.3,-26.7 95.8,-19.3 
	101.1,-24.6 106.4,-19.3 113.8,-26.7 108.5,-32 "/>
<g>
	<g>
		<g>
			<path d="M120.5-44.4c6.8,0,12.4,5.6,12.4,12.4s-5.6,12.4-12.4,12.4c-3.2,0-6-1.2-8.2-3.2l2.7-2.7l1.2-1.2l-1.2-1.2l-4.1-4.1
				l4.1-4.1l1.2-1.2l-1.2-1.2l-2.7-2.7C114.5-43.2,117.4-44.4,120.5-44.4 M120.5-45.4c-3.3,0-6.4,1.2-8.9,3.4l-0.8,0.7l0.7,0.7
				l2.7,2.7l0.5,0.5l-0.5,0.5l-4.1,4.1l-0.7,0.7l0.7,0.7l4.1,4.1l0.5,0.5l-0.5,0.5l-2.7,2.7l-0.7,0.7l0.8,0.7
				c2.5,2.2,5.6,3.4,8.9,3.4c7.4,0,13.4-6,13.4-13.4C133.9-39.4,127.9-45.4,120.5-45.4L120.5-45.4z"/>
		</g>
	</g>
	<g>
		<g>
			<path d="M111.1-40l2.7,2.7l-5.3,5.3l5.3,5.3l-2.7,2.7c-1.8-2.2-3-5-3-8S109.3-37.9,111.1-40 M111.1-41.5l-0.7,0.8
				c-2.1,2.4-3.2,5.5-3.2,8.7s1.1,6.2,3.2,8.7l0.7,0.8l0.8-0.8l2.7-2.7l0.7-0.7l-0.7-0.7L110-32l4.6-4.6l0.7-0.7l-0.7-0.7l-2.7-2.7
				L111.1-41.5L111.1-41.5z"/>
		</g>
	</g>
</g>
<g>
	<path d="M79.6-36.5c-2.2,0-4.2,0.9-5.7,2.2l1.9,1.9l0.9,0.9l-0.9,0.9L73-27.9l2.8,2.8l0.9,0.9l-0.9,0.9l-1.9,1.9
		c1.5,1.4,3.6,2.2,5.7,2.2c4.8,0,8.7-3.9,8.7-8.7S84.3-36.5,79.6-36.5z"/>
</g>
<g>
	<polygon points="56.3,-24.2 60,-27.9 56.3,-31.6 62.4,-37.6 66,-34 69.7,-37.6 75.8,-31.6 72.1,-27.9 75.8,-24.2 69.7,-18.2 
		66,-21.8 62.4,-18.2 	"/>
	<g>
		<path class="st4" d="M69.7-36.8l3.2,3.2l1.9,1.9l-3.7,3.7l3.7,3.7L73-22.3L69.7-19L66-22.7L62.4-19l-5.2-5.2l3.7-3.7l-3.7-3.7
			l5.2-5.2l3.7,3.7L69.7-36.8 M62.4-38.5l-0.9,0.9l-5.2,5.2l-0.9,0.9l0.9,0.9l2.8,2.8l-2.8,2.8l-0.9,0.9l0.9,0.9l5.2,5.2l0.9,0.9
			l0.9-0.9L66-21l2.8,2.8l0.9,0.9l0.9-0.9l3.2-3.2l1.9-1.9l0.9-0.9l-0.9-0.9L73-27.9l2.8-2.8l0.9-0.9l-0.9-0.9l-1.9-1.9l-3.2-3.2
			l-0.9-0.9l-0.9,0.9L66-34.8l-2.8-2.8L62.4-38.5L62.4-38.5z"/>
	</g>
</g>
<g>
	<path class="st6" d="M306.9,185.4c-4.1,0-7.5,3.4-7.5,7.5s3.4,7.5,7.5,7.5s7.5-3.4,7.5-7.5C314.4,188.8,311.1,185.4,306.9,185.4z"
		/>
</g>
<g>
	<path class="st6" d="M291.9,186c-1,0-2.5-0.4-3.3,0c-1.2,0.6-3,2.4-3.6,3.6c-0.4,0.8,0,2.3,0,3.3s-0.4,2.5,0,3.3
		c0.6,1.2,2.4,3,3.6,3.6c0.8,0.4,2.3,0,3.3,0s2.5,0.4,3.3,0c1.2-0.6,3-2.4,3.6-3.6c0.4-0.8,0-2.3,0-3.3s0.4-2.5,0-3.3
		c-0.6-1.2-2.4-3-3.6-3.6C294.4,185.6,292.8,186,291.9,186z"/>
</g>
<g>
	<path class="st6" d="M307.3,170.6c-1,0-2.5-0.4-3.3,0c-1.2,0.6-3,2.4-3.6,3.6c-0.4,0.8,0,2.3,0,3.3s-0.4,2.5,0,3.3
		c0.6,1.2,2.4,3,3.6,3.6c0.8,0.4,2.3,0,3.3,0s2.5,0.4,3.3,0c1.2-0.6,3-2.4,3.6-3.6c0.4-0.8,0-2.3,0-3.3s0.4-2.5,0-3.3
		c-0.6-1.2-2.4-3-3.6-3.6C309.9,170.2,308.3,170.6,307.3,170.6z"/>
</g>
<g>
	<path class="st6" d="M276.6,186.6c-0.7,0-2.7-1.1-3.3-0.8c-0.9,0.4-3.4,2.9-3.8,3.8c-0.3,0.6,0.8,2.6,0.8,3.3s-1.1,2.7-0.8,3.3
		c0.4,0.9,2.9,3.4,3.8,3.8c0.6,0.3,2.6-0.8,3.3-0.8c0.7,0,2.7,1.1,3.3,0.8c0.9-0.4,3.4-2.9,3.8-3.8c0.3-0.6-0.8-2.6-0.8-3.3
		s1.1-2.7,0.8-3.3c-0.4-0.9-2.9-3.4-3.8-3.8C279.3,185.5,277.3,186.6,276.6,186.6z"/>
</g>
<g>
	<path class="st6" d="M291.9,170.9c-0.7,0-2.7-1.1-3.3-0.8c-0.9,0.4-3.4,2.9-3.8,3.8c-0.3,0.6,0.8,2.6,0.8,3.3s-1.1,2.7-0.8,3.3
		c0.4,0.9,2.9,3.4,3.8,3.8c0.6,0.3,2.6-0.8,3.3-0.8c0.7,0,2.7,1.1,3.3,0.8c0.9-0.4,3.4-2.9,3.8-3.8c0.3-0.6-0.8-2.6-0.8-3.3
		s1.1-2.7,0.8-3.3c-0.4-0.9-2.9-3.4-3.8-3.8C294.5,169.8,292.6,170.9,291.9,170.9z"/>
</g>
<g>
	<path class="st6" d="M307.3,155.6c-0.7,0-2.7-1.1-3.3-0.8c-0.9,0.4-3.4,2.9-3.8,3.8c-0.3,0.6,0.8,2.6,0.8,3.3s-1.1,2.7-0.8,3.3
		c0.4,0.9,2.9,3.4,3.8,3.8c0.6,0.3,2.6-0.8,3.3-0.8c0.7,0,2.7,1.1,3.3,0.8c0.9-0.4,3.4-2.9,3.8-3.8c0.3-0.6-0.8-2.6-0.8-3.3
		s1.1-2.7,0.8-3.3c-0.4-0.9-2.9-3.4-3.8-3.8C310,154.5,308.1,155.6,307.3,155.6z"/>
</g>
<g>
	<path class="st6" d="M261.2,186.9c-0.5,0-2.8-1.8-3.3-1.6c-0.6,0.3-3.8,3.5-4,4c-0.2,0.4,1.6,2.8,1.6,3.3s-1.8,2.8-1.6,3.3
		c0.3,0.6,3.5,3.8,4,4c0.4,0.2,2.8-1.6,3.3-1.6s2.8,1.8,3.3,1.6c0.6-0.3,3.8-3.5,4-4c0.2-0.4-1.6-2.8-1.6-3.3s1.8-2.8,1.6-3.3
		c-0.3-0.6-3.5-3.8-4-4C264,185.1,261.7,186.9,261.2,186.9z"/>
</g>
<g>
	<path class="st6" d="M276.6,171.5c-0.5,0-2.8-1.8-3.3-1.6c-0.6,0.3-3.8,3.5-4,4c-0.2,0.4,1.6,2.8,1.6,3.3s-1.8,2.8-1.6,3.3
		c0.3,0.6,3.5,3.8,4,4c0.4,0.2,2.8-1.6,3.3-1.6s2.8,1.8,3.3,1.6c0.6-0.3,3.8-3.5,4-4c0.2-0.4-1.6-2.8-1.6-3.3s1.8-2.8,1.6-3.3
		c-0.3-0.6-3.5-3.8-4-4S277.1,171.5,276.6,171.5z"/>
</g>
<g>
	<path class="st6" d="M291.9,156.1c-0.5,0-2.8-1.8-3.3-1.6c-0.6,0.3-3.8,3.5-4,4c-0.2,0.4,1.6,2.8,1.6,3.3s-1.8,2.8-1.6,3.3
		c0.3,0.6,3.5,3.8,4,4c0.4,0.2,2.8-1.6,3.3-1.6s2.8,1.8,3.3,1.6c0.6-0.3,3.8-3.5,4-4c0.2-0.4-1.6-2.8-1.6-3.3s1.8-2.8,1.6-3.3
		c-0.3-0.6-3.5-3.8-4-4S292.3,156.1,291.9,156.1z"/>
</g>
<g>
	<path class="st6" d="M276.6,157c-0.2,0-3-2.5-3.2-2.4c-0.3,0.1-4.1,4-4.3,4.3c-0.1,0.2,2.4,3,2.4,3.2s-2.5,3-2.4,3.2
		c0.1,0.3,4,4.1,4.3,4.3c0.2,0.1,3-2.4,3.2-2.4s3,2.5,3.2,2.4c0.3-0.1,4.1-4,4.3-4.3c0.1-0.2-2.4-3-2.4-3.2s2.5-3,2.4-3.2
		c-0.1-0.3-4-4.1-4.3-4.3C279.6,154.5,276.8,157,276.6,157z"/>
</g>
<g>
	<path class="st6" d="M261.2,172.4c-0.2,0-3-2.5-3.2-2.4c-0.3,0.1-4.1,4-4.3,4.3c-0.1,0.2,2.4,3,2.4,3.2s-2.5,3-2.4,3.2
		c0.1,0.3,4,4.1,4.3,4.3c0.2,0.1,3-2.4,3.2-2.4s3,2.5,3.2,2.4c0.3-0.1,4.1-4,4.3-4.3c0.1-0.2-2.4-3-2.4-3.2s2.5-3,2.4-3.2
		c-0.1-0.3-4-4.1-4.3-4.3C264.2,169.9,261.4,172.4,261.2,172.4z"/>
</g>
<g>
	<polygon class="st6" points="268.9,158.9 264.4,154.4 261.2,157.6 258,154.4 253.5,158.9 256.7,162.1 253.5,165.3 258,169.8 
		261.2,166.6 264.4,169.8 268.9,165.3 265.7,162.1 	"/>
</g>
<polygon class="st7" points="196.8,-54.3 188.6,-62.5 182.7,-56.7 176.9,-62.5 168.7,-54.3 174.6,-48.5 168.7,-42.7 176.9,-34.5 
	182.7,-40.3 188.6,-34.5 196.8,-42.7 190.9,-48.5 "/>
<g>
	<path class="st7" d="M204.1-33.9c-8,0-14.6-6.5-14.6-14.6s6.5-14.6,14.6-14.6c8,0,14.6,6.5,14.6,14.6S212.2-33.9,204.1-33.9z"/>
	<path class="st4" d="M204.1-62.1c7.5,0,13.6,6.1,13.6,13.6s-6.1,13.6-13.6,13.6s-13.6-6.1-13.6-13.6S196.6-62.1,204.1-62.1
		 M204.1-64c-8.6,0-15.5,7-15.5,15.5s7,15.5,15.5,15.5c8.6,0,15.5-7,15.5-15.5S212.7-64,204.1-64L204.1-64z"/>
</g>
<g>
	<g>
		<g>
			<g>
				<path class="st7" d="M146.7,136.7v15.9h15.8v-15.9H146.7z M160.3,146.2v4.4h-11.5h-0.1v-12.1l0,0h5h2h4.4l0,0v7.7L160.3,146.2
					L160.3,146.2z"/>
				<path class="st7" d="M159.9,145.4c-0.9-0.3-1.2-0.5-1.9-1.2h1.9v-1.6h-5.6l0.4-0.7h5.3v-1.4h-1.9c0.3-0.4,0.8-1.2,1.1-1.6h-2
					c0,0-0.6,1.1-1.1,1.6h-0.7c0.2-0.6,0.4-1,0.6-1.6h-2c-0.2,0.7-0.4,1-0.7,1.6H153c-0.3-0.6-1-1.6-1-1.6h-2.1
					c0.5,0.6,1.1,1.4,1.2,1.6h-1.7v1.4h3.2l-0.4,0.7h-2.8v1.6h1.6c-0.7,0.7-0.9,1-1.6,1.3v2.5c0.5-0.4,1.1-1,1.4-1.3v1.6
					c0,1.2,0.7,1.9,2.1,1.9h4.5c0.6,0,1.4-0.3,1.8-0.8c0.2-0.3,0.5-1.1,0.5-1.1c-0.9-0.3-1.8-1.2-1.8-1.2c-0.1,1.4-1.4,1.6-2.3,1.6
					h-2.4c-0.4,0-0.6-0.2-0.6-0.6v-1.7h3v0.1c0,0.4-0.3,0.5-0.8,0.5c-0.4,0-1.5,0-1.5,0v1.2c0.2,0,1.1,0,1.3,0c1.4,0,2-0.1,2.3-0.4
					c0.3-0.3,0.4-0.9,0.4-1.9c0.6,0.6,1.7,1.4,2.5,1.8v-2.3L159.9,145.4L159.9,145.4z M152.6,145c0.3-0.2,0.5-0.5,0.7-0.8h2.7
					c0.2,0.3,0.4,0.5,0.6,0.8H152.6z"/>
			</g>
		</g>
		<g>
			<g>
				<path class="st7" d="M138,147.6c1.6,1.3,2.9,1.8,5.4,2.2v2.7c-2.6-0.5-5.5-1.8-7.4-3.4c-2,1.6-4.4,2.8-7.4,3.4v-2.6
					c2.2-0.4,3.9-1.2,5.4-2.3c-1.7-1.6-3.4-4.4-4.7-7.7h2.4c0.3,0.8,0.8,1.9,1.7,3.1c0.8,1.3,1.7,2.4,2.6,3.2
					c0.7-0.6,1.8-1.7,2.6-3.1c0.8-1.4,1.6-2.7,1.8-4h-11.7V137h14.6c0,0-0.1,0.9-0.4,2.1c-0.4,1.4-1,3.3-1.8,4.6
					C139.9,145.5,139,146.7,138,147.6z"/>
				<path class="st7" d="M136,143.9c-0.8-1.1-1.8-2.2-2.8-3.2l1.9-1.1c0.9,0.7,1.8,1.7,2.8,2.8L136,143.9z"/>
			</g>
		</g>
	</g>
	<g>
		<g>
			<path class="st7" d="M27.1,145.3c-0.1-1.9-0.1-2.7-0.1-3.3v-5.6h4.5l-0.1,16.3h-3.8l-6.5-8.8l0.1,3.5v5.2h-4.5l0.1-16.2h3.8
				L27.1,145.3z"/>
			<path class="st7" d="M43.4,153.2c-5.2,0-8.8-3.1-8.7-8.6c0-5.3,3.6-8.5,8.8-8.5s8.8,3.1,8.7,8.6
				C52.2,150.1,48.6,153.2,43.4,153.2z M43.4,140.1c-2.5,0-4.3,1.9-4.3,4.6c0,2.7,1.8,4.6,4.3,4.6c2.6,0,4.3-1.9,4.3-4.6
				C47.7,141.9,46,140.1,43.4,140.1z"/>
			<path class="st7" d="M65.8,145.5c-0.1-1.9-0.1-2.7-0.1-3.3v-5.6h4.5l-0.1,16.2h-3.8l-6.5-8.8l0.1,3.6v5.2h-4.5l0.1-16.2h3.8
				L65.8,145.5z"/>
			<path class="st7" d="M80.8,142.1l1.5-2.9l1.5-2.4h4.8v0.3l-5,7.8l5.3,8v0.2h-4.8l-1.5-2.3l-1.7-3l-1.8,3.1l-1.5,2.2h-4.8v-0.2
				l5.3-8l-4.9-7.8v-0.3H78l1.5,2.5L80.8,142.1z"/>
			<path class="st7" d="M98.5,153.4c-5.2,0-8.8-3.1-8.7-8.6c0-5.3,3.6-8.5,8.8-8.5c5.2,0,8.8,3.1,8.7,8.6
				C107.3,150.4,103.7,153.4,98.5,153.4z M98.6,140.3c-2.5,0-4.3,1.9-4.3,4.6c0,2.7,1.8,4.6,4.3,4.6c2.6,0,4.3-1.9,4.3-4.6
				C102.9,142.1,101.2,140.3,98.6,140.3z"/>
			<path class="st7" d="M33.3,175h-3.6l-2.8-7.8l-2.7,7.8h-3.6l-5.8-16.2h4.9l2,5.7c0.4,1.2,0.6,2.6,0.8,3.8l2.9-9.5h3.1l3,9.5
				c0.2-1.2,0.5-2.5,0.9-3.9l1.9-5.6h4.9L33.3,175z"/>
			<path class="st7" d="M48.9,175.5c-5.2,0-8.8-3.1-8.7-8.6c0-5.3,3.6-8.5,8.8-8.5s8.8,3.1,8.7,8.6
				C57.7,172.5,54.1,175.5,48.9,175.5z M49,162.4c-2.5,0-4.3,1.9-4.3,4.6c0,2.7,1.8,4.6,4.3,4.6c2.6,0,4.3-1.9,4.3-4.6
				C53.3,164.2,51.6,162.4,49,162.4z"/>
			<path class="st7" d="M75.5,175.2h-4.9l-3.7-5.3h-1.6v5.3h-4.5l0.1-16.2h7.7c4,0,6.1,2.7,6.1,5.6c0,2-0.7,3.7-3.4,4.9l4.1,5.5
				L75.5,175.2z M65.4,162.6v3.9h3.3c1.2,0,1.7-0.9,1.7-1.9s-0.6-2-1.7-2H65.4z"/>
			<path class="st7" d="M92.4,159.3L86,167c2.2,2.5,4.7,5.5,6.9,8v0.3h-5.5l-4.5-5.4v5.4h-4.5l0.1-16.2H83v5.3
				c1.4-1.7,2.8-3.6,4.2-5.3h5.3L92.4,159.3z"/>
			<path class="st7" d="M104.5,163.6c-1.1-0.8-2.3-1.1-3.7-1.1c-1.1,0-2.1,0.3-2.1,1.2c0,1.1,1.1,1.3,2.6,1.4
				c3.1,0.4,6.4,1.7,6.4,5.4s-3.4,5.3-6.9,5.3c-2.8,0-4.9-0.5-7-2.9l2.5-2.9c1.5,1.6,3.3,1.8,4.6,1.9c1.5,0,2.5-0.5,2.5-1.4
				c0-0.8-0.9-1.3-2.6-1.5c-3.4-0.3-6.4-1.3-6.4-5.3c0-3.4,3.3-4.9,6.6-4.9c2.4,0,4.2,0.6,5.9,2L104.5,163.6z"/>
			<path class="st7" d="M120.8,175.4v-6.1h-5.7v6.1h-4.5l0.1-16.2h4.5v6.2h5.7v-6.2h4.4l-0.1,16.2H120.8z"/>
			<path class="st7" d="M137.2,175.9c-5.2,0-8.8-3.1-8.7-8.6c0-5.3,3.6-8.5,8.8-8.5s8.8,3.1,8.7,8.6
				C146,172.8,142.4,175.9,137.2,175.9z M137.2,162.8c-2.5,0-4.3,1.9-4.3,4.6c0,2.7,1.8,4.6,4.3,4.6c2.6,0,4.3-1.9,4.3-4.6
				C141.5,164.6,139.9,162.8,137.2,162.8z"/>
			<path class="st7" d="M153.6,171.2v4.4h-4.5l0.1-16.2h7.7c4.2,0,6.3,2.8,6.3,5.9c0,3.3-2.1,5.9-6.4,5.9L153.6,171.2z M153.7,167.3
				h3.2c1.2,0,1.9-0.9,1.9-2s-0.6-2-1.9-2h-3.2V167.3z"/>
		</g>
	</g>
</g>
<g>
	<g>
		<g>
			<path class="st4" d="M322.4,52.5v15.9h15.8V52.5H322.4z M336,62v4.4h-11.5h-0.1V54.3l0,0h5h2h4.4l0,0V62H336z"/>
			<path class="st4" d="M335.6,61.2c-0.9-0.3-1.2-0.5-1.9-1.2h1.9v-1.6H330l0.4-0.7h5.3v-1.4h-1.9c0.3-0.4,0.8-1.2,1.1-1.6h-2
				c0,0-0.6,1.1-1.1,1.6h-0.7c0.2-0.6,0.4-1,0.6-1.6h-2c-0.2,0.7-0.4,1-0.7,1.6h-0.3c-0.3-0.6-1-1.6-1-1.6h-2.1
				c0.5,0.6,1.1,1.4,1.2,1.6h-1.7v1.4h3.2l-0.4,0.7h-2.8V60h1.6c-0.7,0.7-0.9,1-1.6,1.3v2.5c0.5-0.4,1.1-1,1.4-1.3v1.6
				c0,1.2,0.7,1.9,2.1,1.9h4.5c0.6,0,1.4-0.3,1.8-0.8c0.2-0.3,0.5-1.1,0.5-1.1c-0.9-0.3-1.8-1.2-1.8-1.2c-0.1,1.4-1.4,1.6-2.3,1.6
				h-2.4c-0.4,0-0.6-0.2-0.6-0.6v-1.7h3v0.1c0,0.4-0.3,0.5-0.8,0.5c-0.4,0-1.5,0-1.5,0V64c0.2,0,1.1,0,1.3,0c1.4,0,2-0.1,2.3-0.4
				c0.3-0.3,0.4-0.9,0.4-1.9c0.6,0.6,1.7,1.4,2.5,1.8v-2.3C335.5,61.2,335.6,61.2,335.6,61.2z M328.3,60.8c0.3-0.2,0.5-0.5,0.7-0.8
				h2.7c0.2,0.3,0.4,0.5,0.6,0.8H328.3z"/>
		</g>
	</g>
	<g>
		<g>
			<path class="st4" d="M313.7,63.4c1.6,1.3,2.9,1.8,5.4,2.2v2.7c-2.6-0.5-5.5-1.8-7.4-3.4c-2,1.6-4.4,2.8-7.4,3.4v-2.6
				c2.2-0.4,3.9-1.2,5.4-2.3c-1.7-1.6-3.4-4.4-4.7-7.7h2.4c0.3,0.8,0.8,1.9,1.7,3.1c0.8,1.3,1.7,2.4,2.6,3.2
				c0.7-0.6,1.8-1.7,2.6-3.1c0.8-1.4,1.6-2.7,1.8-4h-11.7v-2.1H319c0,0-0.1,0.9-0.4,2.1c-0.4,1.4-1,3.3-1.8,4.6
				C315.6,61.3,314.7,62.5,313.7,63.4z"/>
			<path class="st4" d="M311.7,59.7c-0.8-1.1-1.8-2.2-2.8-3.2l1.9-1.1c0.9,0.7,1.8,1.7,2.8,2.8L311.7,59.7z"/>
		</g>
	</g>
</g>
<g>
	<g>
		<path class="st4" d="M202.8,61.1c-0.1-1.9-0.1-2.7-0.1-3.3v-5.6h4.5l-0.1,16.3h-3.8l-6.5-8.8l0.1,3.5v5.2h-4.5l0.1-16.2h3.8
			L202.8,61.1z"/>
		<path class="st4" d="M219.1,69c-5.2,0-8.8-3.1-8.7-8.6c0-5.3,3.6-8.5,8.8-8.5s8.8,3.1,8.7,8.6C227.9,65.9,224.3,69,219.1,69z
			 M219.1,55.9c-2.5,0-4.3,1.9-4.3,4.6c0,2.7,1.8,4.6,4.3,4.6c2.6,0,4.3-1.9,4.3-4.6C223.4,57.7,221.7,55.9,219.1,55.9z"/>
		<path class="st4" d="M241.5,61.3c-0.1-1.9-0.1-2.7-0.1-3.3v-5.6h4.5l-0.1,16.2H242l-6.5-8.8l0.1,3.6v5.2h-4.5l0.1-16.2h3.8
			L241.5,61.3z"/>
		<path class="st4" d="M256.5,57.9L258,55l1.5-2.4h4.8v0.3l-5,7.8l5.3,8v0.2h-4.8l-1.5-2.3l-1.7-3l-1.8,3.1l-1.5,2.2h-4.8v-0.2
			l5.3-8l-4.9-7.8v-0.3h4.8l1.5,2.5L256.5,57.9z"/>
		<path class="st4" d="M274.2,69.2c-5.2,0-8.8-3.1-8.7-8.6c0-5.3,3.6-8.5,8.8-8.5c5.2,0,8.8,3.1,8.7,8.6
			C283,66.2,279.4,69.2,274.2,69.2z M274.3,56.1c-2.5,0-4.3,1.9-4.3,4.6c0,2.7,1.8,4.6,4.3,4.6c2.6,0,4.3-1.9,4.3-4.6
			C278.6,57.9,276.9,56.1,274.3,56.1z"/>
		<path class="st4" d="M209,90.8h-3.6l-2.8-7.8l-2.7,7.8h-3.6l-5.8-16.2h4.9l2,5.7c0.4,1.2,0.6,2.6,0.8,3.8l2.9-9.5h3.1l3,9.5
			c0.2-1.2,0.5-2.5,0.9-3.9l1.9-5.6h4.9L209,90.8z"/>
		<path class="st4" d="M224.6,91.3c-5.2,0-8.8-3.1-8.7-8.6c0-5.3,3.6-8.5,8.8-8.5s8.8,3.1,8.7,8.6C233.4,88.3,229.8,91.3,224.6,91.3
			z M224.7,78.2c-2.5,0-4.3,1.9-4.3,4.6s1.8,4.6,4.3,4.6c2.6,0,4.3-1.9,4.3-4.6C229,80,227.3,78.2,224.7,78.2z"/>
		<path class="st4" d="M251.2,91h-4.9l-3.7-5.3H241V91h-4.5l0.1-16.2h7.7c4,0,6.1,2.7,6.1,5.6c0,2-0.7,3.7-3.4,4.9l4.1,5.5L251.2,91
			z M241.1,78.4v3.9h3.3c1.2,0,1.7-0.9,1.7-1.9s-0.6-2-1.7-2H241.1z"/>
		<path class="st4" d="M268.1,75.1l-6.4,7.7c2.2,2.5,4.7,5.5,6.9,8v0.3h-5.5l-4.5-5.4v5.4h-4.5l0.1-16.2h4.5v5.3
			c1.4-1.7,2.8-3.6,4.2-5.3h5.3L268.1,75.1z"/>
		<path class="st4" d="M280.2,79.4c-1.1-0.8-2.3-1.1-3.7-1.1c-1.1,0-2.1,0.3-2.1,1.2c0,1.1,1.1,1.3,2.6,1.4c3.1,0.4,6.4,1.7,6.4,5.4
			s-3.4,5.3-6.9,5.3c-2.8,0-4.9-0.5-7-2.9l2.5-2.9c1.5,1.6,3.3,1.8,4.6,1.9c1.5,0,2.5-0.5,2.5-1.4c0-0.8-0.9-1.3-2.6-1.5
			c-3.4-0.3-6.4-1.3-6.4-5.3c0-3.4,3.3-4.9,6.6-4.9c2.4,0,4.2,0.6,5.9,2L280.2,79.4z"/>
		<path class="st4" d="M296.5,91.2v-6.1h-5.7v6.1h-4.5l0.1-16.2h4.5v6.2h5.7V75h4.4l-0.1,16.2H296.5z"/>
		<path class="st4" d="M312.9,91.7c-5.2,0-8.8-3.1-8.7-8.6c0-5.3,3.6-8.5,8.8-8.5c5.2,0,8.8,3.1,8.7,8.6
			C321.7,88.6,318.1,91.7,312.9,91.7z M312.9,78.6c-2.5,0-4.3,1.9-4.3,4.6s1.8,4.6,4.3,4.6c2.6,0,4.3-1.9,4.3-4.6
			C317.2,80.4,315.6,78.6,312.9,78.6z"/>
		<path class="st4" d="M329.3,87v4.4h-4.5l0.1-16.2h7.7c4.2,0,6.3,2.8,6.3,5.9c0,3.3-2.1,5.9-6.4,5.9H329.3z M329.4,83.1h3.2
			c1.2,0,1.9-0.9,1.9-2s-0.6-2-1.9-2h-3.2V83.1z"/>
	</g>
</g>
<circle class="st8" cx="396.5" cy="24" r="34.7"/>
<line class="st8" x1="344.6" y1="-30" x2="402.9" y2="28.4"/>
<line class="st8" x1="402.9" y1="-30" x2="344.6" y2="28.4"/>
<circle class="st4" cx="374.2" cy="-0.8" r="6.5"/>
<g>
	<g>
		<g>
			<path d="M235.8,130.5V142h11.5v-11.5H235.8z M245.7,137.4v3.2h-8.3h-0.1v-8.8l0,0h3.6h1.5h3.2l0,0L245.7,137.4L245.7,137.4z"/>
			<path d="M245.5,136.8c-0.6-0.2-0.9-0.4-1.3-0.8h1.3v-1.2h-4.1l0.3-0.5h3.8v-1.1h-1.4c0.2-0.3,0.6-0.8,0.8-1.2h-1.5
				c0,0-0.4,0.8-0.8,1.2h-0.5c0.2-0.4,0.3-0.7,0.4-1.2H241c-0.1,0.5-0.3,0.7-0.4,1.2h-0.2c-0.2-0.4-0.7-1.2-0.7-1.2h-1.5
				c0.4,0.4,0.8,1,0.8,1.2h-1.2v1.1h2.3l-0.3,0.5h-2v1.2h1.1c-0.5,0.5-0.7,0.7-1.1,0.9v1.8c0.4-0.3,0.8-0.7,1-0.9v1.1
				c0,0.9,0.6,1.4,1.5,1.4h3.3c0.4,0,1-0.2,1.3-0.6c0.2-0.2,0.3-0.8,0.3-0.8c-0.7-0.2-1.3-0.9-1.3-0.9c0,1-1,1.2-1.6,1.2h-1.7
				c-0.3,0-0.4-0.1-0.4-0.4v-1.3h2.2v0.1c0,0.3-0.2,0.3-0.6,0.3c-0.3,0-1.1,0-1.1,0v0.9c0.1,0,0.8,0,1,0c1,0,1.4-0.1,1.7-0.3
				c0.2-0.2,0.3-0.6,0.3-1.4c0.4,0.4,1.2,1,1.8,1.3L245.5,136.8L245.5,136.8z M240.1,136.5c0.2-0.2,0.4-0.4,0.5-0.6h2
				c0.1,0.2,0.3,0.4,0.4,0.6H240.1z"/>
		</g>
		<g>
			<path d="M243.2,124.4c1.2,0.9,2.1,1.3,3.9,1.6v2c-1.9-0.4-4-1.3-5.3-2.5c-1.5,1.1-3.2,2.1-5.4,2.5v-1.9c1.6-0.3,2.9-0.9,3.9-1.6
				c-1.2-1.2-2.5-3.2-3.4-5.6l1.7-0.1c0.2,0.6,0.6,1.3,1.2,2.2c0.6,0.9,1.2,1.7,1.8,2.3c0.5-0.4,1.3-1.2,1.9-2.2
				c0.6-1,1.1-2,1.3-2.9h-8.5v-1.5H247c0,0-0.1,0.7-0.3,1.6c-0.3,1-0.7,2.4-1.3,3.3C244.6,122.9,243.9,123.8,243.2,124.4z"/>
			<path d="M241.8,121.7c-0.6-0.8-1.3-1.6-2-2.3l1.3-0.8c0.7,0.5,1.3,1.2,2,2.1L241.8,121.7z"/>
		</g>
	</g>
</g>
<path class="st9" d="M236.5,117.4h9.5c0,0-0.5,4.3-3.9,7c-3.3,2.6-5.5,2.7-5.5,2.7"/>
<path class="st9" d="M237.9,118.9c0,0,0.9,3.6,3.9,5.7c2.9,2.2,5.3,2.4,5.3,2.4"/>
<rect x="236.5" y="131.2" class="st9" width="10.1" height="10.1"/>
<line class="st9" x1="237.7" y1="133.7" x2="245.5" y2="133.7"/>
<line class="st9" x1="237.7" y1="135.3" x2="245.5" y2="135.3"/>
<line class="st9" x1="238.9" y1="132" x2="239.9" y2="133.7"/>
<line class="st9" x1="244.1" y1="132" x2="243.2" y2="133.7"/>
<path class="st9" d="M241.7,132c0,0-0.7,2.4-1.5,3.3c-0.9,1-2.4,2.4-2.4,2.4"/>
<polyline class="st9" points="240.7,138.3 242.9,138.3 242.9,136.9 239.4,136.9 239.4,139.7 243.5,139.7 244.6,138.6 "/>
<path class="st9" d="M243.2,135.3c0,0,0.7,1.3,1.3,1.8s0.8,0.5,0.8,0.5"/>
<path class="st9" d="M240.4,119.1c0,0,1.6,1.5,2,2.2"/>
<path class="st10" d="M259,211h31.3c0,0-1.6,14.2-13,23.2c-10.8,8.6-18.3,9-18.3,9"/>
<path class="st10" d="M263.8,215.7c0,0,3.1,11.8,12.8,19c9.7,7.2,17.7,8,17.7,8"/>
<rect x="259" y="256.5" class="st10" width="33.3" height="33.3"/>
<line class="st10" x1="263.1" y1="264.7" x2="288.7" y2="264.7"/>
<line class="st10" x1="263.1" y1="270.2" x2="288.7" y2="270.2"/>
<line class="st10" x1="267.1" y1="259.2" x2="270.2" y2="264.7"/>
<line class="st10" x1="284.3" y1="259.2" x2="281.3" y2="264.7"/>
<path class="st10" d="M276.2,259.2c0,0-2.2,7.8-5.1,10.9c-2.8,3.2-8,7.9-8,7.9"/>
<polyline class="st10" points="273,280 280.2,280 280.2,275.4 268.6,275.4 268.6,284.6 284.3,284.6 285.9,280.9 "/>
<polyline class="st10" points="281.1,270.2 284.3,277.7 288.2,277.7 "/>
<path class="st10" d="M271.9,216.5c0,0,5.3,5,6.6,7.3"/>
<g>
	<g>
		<g>
			<path class="st7" d="M203.7,303.3v15.9h15.8v-15.9H203.7z M217.3,312.8v4.4h-11.5h-0.1v-12.1l0,0h5h2h4.4l0,0v7.7H217.3z"/>
			<path class="st7" d="M216.9,312c-0.9-0.3-1.2-0.5-1.9-1.2h1.9v-1.6h-5.6l0.4-0.7h5.3v-1.4h-1.9c0.3-0.4,0.8-1.2,1.1-1.6h-2
				c0,0-0.6,1.1-1.1,1.6h-0.7c0.2-0.6,0.4-1,0.6-1.6h-2c-0.2,0.7-0.4,1-0.7,1.6H210c-0.3-0.6-1-1.6-1-1.6h-2.1
				c0.5,0.6,1.1,1.4,1.2,1.6h-1.7v1.4h3.2l-0.4,0.7h-2.8v1.6h1.6c-0.7,0.7-0.9,1-1.6,1.3v2.5c0.5-0.4,1.1-1,1.4-1.3v1.6
				c0,1.2,0.7,1.9,2.1,1.9h4.5c0.6,0,1.4-0.3,1.8-0.8c0.2-0.3,0.5-1.1,0.5-1.1c-0.9-0.3-1.8-1.2-1.8-1.2c-0.1,1.4-1.4,1.6-2.3,1.6
				h-2.4c-0.4,0-0.6-0.2-0.6-0.6V313h3v0.1c0,0.4-0.3,0.5-0.8,0.5c-0.4,0-1.5,0-1.5,0v1.2c0.2,0,1.1,0,1.3,0c1.4,0,2-0.1,2.3-0.4
				s0.4-0.9,0.4-1.9c0.6,0.6,1.7,1.4,2.5,1.8V312H216.9z M209.6,311.6c0.3-0.2,0.5-0.5,0.7-0.8h2.7c0.2,0.3,0.4,0.5,0.6,0.8H209.6z"
				/>
		</g>
	</g>
	<g>
		<g>
			<path class="st7" d="M195,314.2c1.6,1.3,2.9,1.8,5.4,2.2v2.7c-2.6-0.5-5.5-1.8-7.4-3.4c-2,1.6-4.4,2.8-7.4,3.4v-2.6
				c2.2-0.4,3.9-1.2,5.4-2.3c-1.7-1.6-3.4-4.4-4.7-7.7h2.4c0.3,0.8,0.8,1.9,1.7,3.1c0.8,1.3,1.7,2.4,2.6,3.2
				c0.7-0.6,1.8-1.7,2.6-3.1s1.6-2.7,1.8-4h-11.7v-2.1h14.6c0,0-0.1,0.9-0.4,2.1c-0.4,1.4-1,3.3-1.8,4.6
				C196.9,312.1,196,313.3,195,314.2z"/>
			<path class="st7" d="M193,310.5c-0.8-1.1-1.8-2.2-2.8-3.2l1.9-1.1c0.9,0.7,1.8,1.7,2.8,2.8L193,310.5z"/>
		</g>
	</g>
</g>
<g>
	<g>
		<path class="st7" d="M84.1,311.9c-0.1-1.9-0.1-2.7-0.1-3.3V303h4.5l-0.1,16.3h-3.8l-6.5-8.8l0.1,3.5v5.2h-4.5l0.1-16.2h3.8
			L84.1,311.9z"/>
		<path class="st7" d="M100.4,319.8c-5.2,0-8.8-3.1-8.7-8.6c0-5.3,3.6-8.5,8.8-8.5c5.2,0,8.8,3.1,8.7,8.6
			C109.2,316.7,105.6,319.8,100.4,319.8z M100.4,306.7c-2.5,0-4.3,1.9-4.3,4.6s1.8,4.6,4.3,4.6c2.6,0,4.3-1.9,4.3-4.6
			C104.7,308.5,103,306.7,100.4,306.7z"/>
		<path class="st7" d="M122.8,312.1c-0.1-1.9-0.1-2.7-0.1-3.3v-5.6h4.5l-0.1,16.2h-3.8l-6.5-8.8l0.1,3.6v5.2h-4.5l0.1-16.2h3.8
			L122.8,312.1z"/>
		<path class="st7" d="M137.8,308.7l1.5-2.9l1.5-2.4h4.8v0.3l-5,7.8l5.3,8v0.2h-4.8l-1.5-2.3l-1.7-3l-1.8,3.1l-1.5,2.2h-4.8v-0.2
			l5.3-8l-4.9-7.8v-0.3h4.8l1.5,2.5L137.8,308.7z"/>
		<path class="st7" d="M155.5,320c-5.2,0-8.8-3.1-8.7-8.6c0-5.3,3.6-8.5,8.8-8.5s8.8,3.1,8.7,8.6C164.3,317,160.7,320,155.5,320z
			 M155.6,306.9c-2.5,0-4.3,1.9-4.3,4.6s1.8,4.6,4.3,4.6c2.6,0,4.3-1.9,4.3-4.6C159.9,308.7,158.2,306.9,155.6,306.9z"/>
		<path class="st7" d="M90.3,341.6h-3.6l-2.8-7.8l-2.7,7.8h-3.6l-5.8-16.2h4.9l2,5.7c0.4,1.2,0.6,2.6,0.8,3.8l2.9-9.5h3.1l3,9.5
			c0.2-1.2,0.5-2.5,0.9-3.9l1.9-5.6h4.9L90.3,341.6z"/>
		<path class="st7" d="M105.9,342.1c-5.2,0-8.8-3.1-8.7-8.6c0-5.3,3.6-8.5,8.8-8.5c5.2,0,8.8,3.1,8.7,8.6
			C114.7,339.1,111.1,342.1,105.9,342.1z M106,329c-2.5,0-4.3,1.9-4.3,4.6s1.8,4.6,4.3,4.6c2.6,0,4.3-1.9,4.3-4.6
			C110.3,330.8,108.6,329,106,329z"/>
		<path class="st7" d="M132.5,341.8h-4.9l-3.7-5.3h-1.6v5.3h-4.5l0.1-16.2h7.7c4,0,6.1,2.7,6.1,5.6c0,2-0.7,3.7-3.4,4.9l4.1,5.5
			L132.5,341.8z M122.4,329.2v3.9h3.3c1.2,0,1.7-0.9,1.7-1.9s-0.6-2-1.7-2H122.4z"/>
		<path class="st7" d="M149.4,325.9l-6.4,7.7c2.2,2.5,4.7,5.5,6.9,8v0.3h-5.5l-4.5-5.4v5.4h-4.5l0.1-16.2h4.5v5.3
			c1.4-1.7,2.8-3.6,4.2-5.3h5.3L149.4,325.9z"/>
		<path class="st7" d="M161.5,330.2c-1.1-0.8-2.3-1.1-3.7-1.1c-1.1,0-2.1,0.3-2.1,1.2c0,1.1,1.1,1.3,2.6,1.4
			c3.1,0.4,6.4,1.7,6.4,5.4c0,3.7-3.4,5.3-6.9,5.3c-2.8,0-4.9-0.5-7-2.9l2.5-2.9c1.5,1.6,3.3,1.8,4.6,1.9c1.5,0,2.5-0.5,2.5-1.4
			c0-0.8-0.9-1.3-2.6-1.5c-3.4-0.3-6.4-1.3-6.4-5.3c0-3.4,3.3-4.9,6.6-4.9c2.4,0,4.2,0.6,5.9,2L161.5,330.2z"/>
		<path class="st7" d="M177.8,342v-6.1h-5.7v6.1h-4.5l0.1-16.2h4.5v6.2h5.7v-6.2h4.4l-0.1,16.2H177.8z"/>
		<path class="st7" d="M194.2,342.5c-5.2,0-8.8-3.1-8.7-8.6c0-5.3,3.6-8.5,8.8-8.5s8.8,3.1,8.7,8.6
			C203,339.4,199.4,342.5,194.2,342.5z M194.2,329.4c-2.5,0-4.3,1.9-4.3,4.6s1.8,4.6,4.3,4.6c2.6,0,4.3-1.9,4.3-4.6
			C198.5,331.2,196.9,329.4,194.2,329.4z"/>
		<path class="st7" d="M210.6,337.8v4.4h-4.5l0.1-16.2h7.7c4.2,0,6.3,2.8,6.3,5.9c0,3.3-2.1,5.9-6.4,5.9L210.6,337.8L210.6,337.8z
			 M210.7,333.9h3.2c1.2,0,1.9-0.9,1.9-2s-0.6-2-1.9-2h-3.2V333.9z"/>
	</g>
</g>
<g>
	<g>
		<g>
			<path class="st7" d="M362-27.6v15.9h15.8v-15.9H362z M375.6-18.1v4.4h-11.5H364v-12.1l0,0h5h2h4.4l0,0v7.7H375.6z"/>
			<path class="st7" d="M375.2-18.9c-0.9-0.3-1.2-0.5-1.9-1.2h1.9v-1.6h-5.6l0.4-0.7h5.3v-1.4h-1.9c0.3-0.4,0.8-1.2,1.1-1.6h-2
				c0,0-0.6,1.1-1.1,1.6h-0.7c0.2-0.6,0.4-1,0.6-1.6h-2c-0.2,0.7-0.4,1-0.7,1.6h-0.3c-0.3-0.6-1-1.6-1-1.6h-2.1
				c0.5,0.6,1.1,1.4,1.2,1.6h-1.7v1.4h3.2l-0.4,0.7h-2.8v1.6h1.6c-0.7,0.7-0.9,1-1.6,1.3v2.5c0.5-0.4,1.1-1,1.4-1.3v1.6
				c0,1.2,0.7,1.9,2.1,1.9h4.5c0.6,0,1.4-0.3,1.8-0.8c0.2-0.3,0.5-1.1,0.5-1.1c-0.9-0.3-1.8-1.2-1.8-1.2c-0.1,1.4-1.4,1.6-2.3,1.6
				h-2.4c-0.4,0-0.6-0.2-0.6-0.6v-1.7h3v0.1c0,0.4-0.3,0.5-0.8,0.5c-0.4,0-1.5,0-1.5,0v1.2c0.2,0,1.1,0,1.3,0c1.4,0,2-0.1,2.3-0.4
				c0.3-0.3,0.4-0.9,0.4-1.9c0.6,0.6,1.7,1.4,2.5,1.8v-2.3H375.2z M367.9-19.3c0.3-0.2,0.5-0.5,0.7-0.8h2.7c0.2,0.3,0.4,0.5,0.6,0.8
				H367.9z"/>
		</g>
	</g>
	<g>
		<g>
			<path class="st7" d="M353.3-16.7c1.6,1.3,2.9,1.8,5.4,2.2v2.7c-2.6-0.5-5.5-1.8-7.4-3.4c-2,1.6-4.4,2.8-7.4,3.4v-2.6
				c2.2-0.4,3.9-1.2,5.4-2.3c-1.7-1.6-3.4-4.4-4.7-7.7h2.4c0.3,0.8,0.8,1.9,1.7,3.1c0.8,1.3,1.7,2.4,2.6,3.2
				c0.7-0.6,1.8-1.7,2.6-3.1c0.8-1.4,1.6-2.7,1.8-4H344v-2.1h14.6c0,0-0.1,0.9-0.4,2.1c-0.4,1.4-1,3.3-1.8,4.6
				C355.2-18.8,354.3-17.6,353.3-16.7z"/>
			<path class="st7" d="M351.3-20.4c-0.8-1.1-1.8-2.2-2.8-3.2l1.9-1.1c0.9,0.7,1.8,1.7,2.8,2.8L351.3-20.4z"/>
		</g>
	</g>
</g>
<g>
	<g>
		<path class="st7" d="M242.4-19c-0.1-1.9-0.1-2.7-0.1-3.3v-5.6h4.5l-0.1,16.3h-3.8l-6.5-8.8l0.1,3.5v5.2H232l0.1-16.2h3.8L242.4-19
			z"/>
		<path class="st7" d="M258.7-11.1c-5.2,0-8.8-3.1-8.7-8.6c0-5.3,3.6-8.5,8.8-8.5c5.2,0,8.8,3.1,8.7,8.6
			C267.5-14.2,263.9-11.1,258.7-11.1z M258.7-24.2c-2.5,0-4.3,1.9-4.3,4.6s1.8,4.6,4.3,4.6c2.6,0,4.3-1.9,4.3-4.6
			C263-22.4,261.3-24.2,258.7-24.2z"/>
		<path class="st7" d="M281.1-18.8c-0.1-1.9-0.1-2.7-0.1-3.3v-5.6h4.5l-0.1,16.2h-3.8l-6.5-8.8l0.1,3.6v5.2h-4.5l0.1-16.2h3.8
			L281.1-18.8z"/>
		<path class="st7" d="M296.1-22.2l1.5-2.9l1.5-2.4h4.8v0.3l-5,7.8l5.3,8v0.2h-4.8l-1.5-2.3l-1.7-3l-1.8,3.1l-1.5,2.2h-4.8v-0.2
			l5.3-8l-4.9-7.8v-0.3h4.8l1.5,2.5L296.1-22.2z"/>
		<path class="st7" d="M313.8-10.9c-5.2,0-8.8-3.1-8.7-8.6c0-5.3,3.6-8.5,8.8-8.5c5.2,0,8.8,3.1,8.7,8.6
			C322.6-13.9,319-10.9,313.8-10.9z M313.9-24c-2.5,0-4.3,1.9-4.3,4.6s1.8,4.6,4.3,4.6c2.6,0,4.3-1.9,4.3-4.6
			C318.2-22.2,316.5-24,313.9-24z"/>
		<path class="st7" d="M248.6,10.7H245l-2.8-7.8l-2.7,7.8h-3.6l-5.8-16.2h4.9l2,5.7c0.4,1.2,0.6,2.6,0.8,3.8l2.9-9.5h3.1l3,9.5
			c0.2-1.2,0.5-2.5,0.9-3.9l1.9-5.6h4.9L248.6,10.7z"/>
		<path class="st7" d="M264.2,11.2c-5.2,0-8.8-3.1-8.7-8.6c0-5.3,3.6-8.5,8.8-8.5c5.2,0,8.8,3.1,8.7,8.6
			C273,8.2,269.4,11.2,264.2,11.2z M264.3-1.9c-2.5,0-4.3,1.9-4.3,4.6s1.8,4.6,4.3,4.6c2.6,0,4.3-1.9,4.3-4.6
			C268.6-0.1,266.9-1.9,264.3-1.9z"/>
		<path class="st7" d="M290.8,10.9h-4.9l-3.7-5.3h-1.6v5.3h-4.5l0.1-16.2h7.7c4,0,6.1,2.7,6.1,5.6c0,2-0.7,3.7-3.4,4.9l4.1,5.5
			L290.8,10.9z M280.7-1.7v3.9h3.3c1.2,0,1.7-0.9,1.7-1.9s-0.6-2-1.7-2H280.7z"/>
		<path class="st7" d="M307.7-5l-6.4,7.7c2.2,2.5,4.7,5.5,6.9,8V11h-5.5l-4.5-5.4V11h-4.5l0.1-16.2h4.5v5.3c1.4-1.7,2.8-3.6,4.2-5.3
			h5.3L307.7-5z"/>
		<path class="st7" d="M319.8-0.7c-1.1-0.8-2.3-1.1-3.7-1.1c-1.1,0-2.1,0.3-2.1,1.2c0,1.1,1.1,1.3,2.6,1.4c3.1,0.4,6.4,1.7,6.4,5.4
			c0,3.7-3.4,5.3-6.9,5.3c-2.8,0-4.9-0.5-7-2.9l2.5-2.9c1.5,1.6,3.3,1.8,4.6,1.9c1.5,0,2.5-0.5,2.5-1.4c0-0.8-0.9-1.3-2.6-1.5
			c-3.4-0.3-6.4-1.3-6.4-5.3c0-3.4,3.3-4.9,6.6-4.9c2.4,0,4.2,0.6,5.9,2L319.8-0.7z"/>
		<path class="st7" d="M336.1,11.1V5h-5.7v6.1h-4.5L326-5.1h4.5v6.2h5.7v-6.2h4.4l-0.1,16.2H336.1z"/>
		<path class="st7" d="M352.5,11.6c-5.2,0-8.8-3.1-8.7-8.6c0-5.3,3.6-8.5,8.8-8.5c5.2,0,8.8,3.1,8.7,8.6
			C361.3,8.5,357.7,11.6,352.5,11.6z M352.5-1.5c-2.5,0-4.3,1.9-4.3,4.6s1.8,4.6,4.3,4.6c2.6,0,4.3-1.9,4.3-4.6
			C356.8,0.3,355.2-1.5,352.5-1.5z"/>
		<path class="st7" d="M368.9,6.9v4.4h-4.5l0.1-16.2h7.7c4.2,0,6.3,2.8,6.3,5.9c0,3.3-2.1,5.9-6.4,5.9L368.9,6.9L368.9,6.9z M369,3
			h3.2c1.2,0,1.9-0.9,1.9-2s-0.6-2-1.9-2H369V3z"/>
	</g>
</g>
<g>
	<path class="st7" d="M96.8,268.2c0,5.9,4.8,10.6,10.6,10.6S118,274,118,268.2c0-5.9-4.8-10.6-10.6-10.6S96.8,262.3,96.8,268.2z"/>
</g>
<g>
	<path class="st7" d="M72.4,268.2c0,5.9,4.8,10.6,10.6,10.6s10.6-4.8,10.6-10.6c0-5.9-4.8-10.6-10.6-10.6S72.4,262.3,72.4,268.2z"/>
</g>
<g>
	<path class="st7" d="M323.9,268.2c0,5.9,4.8,10.6,10.6,10.6c5.9,0,10.6-4.8,10.6-10.6c0-5.9-4.8-10.6-10.6-10.6
		C328.7,257.6,323.9,262.3,323.9,268.2z"/>
</g>
<g>
	<path class="st7" d="M299.5,268.2c0,5.9,4.8,10.6,10.6,10.6c5.9,0,10.6-4.8,10.6-10.6c0-5.9-4.8-10.6-10.6-10.6
		S299.5,262.3,299.5,268.2z"/>
</g>
<g>
	<path class="st7" d="M-164.7,58.9c-0.1-2.2-0.1-3.1-0.1-3.7v-6.4h5.1l-0.1,18.5h-4.3l-7.4-10l0.1,4v5.9h-5.1l0.1-18.4h4.3
		L-164.7,58.9z"/>
</g>
<g>
	<path class="st7" d="M-146.2,67.8c-5.9,0-10-3.5-9.9-9.8c0-6,4.1-9.7,10-9.7s10,3.5,9.9,9.8C-136.2,64.3-140.3,67.8-146.2,67.8z
		 M-146.2,53c-2.8,0-4.9,2.2-4.9,5.2c0,3.1,2,5.2,4.9,5.2c3,0,4.9-2.2,4.9-5.2C-141.3,55-143.2,53-146.2,53z"/>
</g>
<g>
	<path class="st7" d="M-120.8,59.1c-0.1-2.2-0.1-3.1-0.1-3.7V49h5.1l-0.1,18.4h-4.3l-7.4-10l0.1,4.1v5.9h-5.1l0.1-18.4h4.3
		L-120.8,59.1z"/>
</g>
<g>
	<polygon class="st7" points="-97.8,55 -96.1,51.7 -94.4,49 -89,49 -89,49.4 -94.6,58.2 -88.6,67.3 -88.6,67.5 -94.1,67.5 
		-95.8,64.9 -97.7,61.5 -99.8,65 -101.5,67.5 -106.9,67.5 -106.9,67.3 -100.9,58.2 -106.5,49.4 -106.5,49 -101,49 -99.3,51.9 	"/>
</g>
<g>
	<path class="st7" d="M-77.7,67.9c-5.9,0-10-3.5-9.9-9.8c0-6,4.1-9.7,10-9.7s10,3.5,9.9,9.8C-67.7,64.5-71.8,67.9-77.7,67.9z
		 M-77.6,53c-2.8,0-4.9,2.2-4.9,5.2c0,3.1,2,5.2,4.9,5.2c3,0,4.9-2.2,4.9-5.2C-72.7,55-74.7,53-77.6,53z"/>
</g>
<g>
	<g>
		<g>
			<path d="M62,75.2v20.1h20V75.2H62z M79.2,87.2v5.6H64.7h-0.1V77.5l0,0h6.4h2.5h5.6l0,0L79.2,87.2L79.2,87.2z"/>
			<path d="M78.8,86.1c-1.1-0.4-1.6-0.7-2.4-1.5h2.4v-2h-7.2l0.5-0.9h6.7v-1.9h-2.4c0.4-0.5,1.1-1.5,1.3-2h-2.5c0,0-0.8,1.5-1.3,2
				h-0.9c0.3-0.8,0.5-1.2,0.7-2h-2.5c-0.1,0.9-0.5,1.3-0.8,2h-0.4c-0.3-0.8-1.3-2-1.3-2h-2.7c0.7,0.8,1.3,1.7,1.5,2h-2.1v1.9h4
				l-0.5,0.9h-3.5v2h2c-0.9,0.9-1.2,1.3-2,1.6v3.2c0.7-0.5,1.5-1.3,1.7-1.6v2c0,1.6,0.9,2.4,2.7,2.4h5.7c0.8,0,1.7-0.4,2.3-1.1
				c0.3-0.4,0.5-1.5,0.5-1.5c-1.2-0.4-2.4-1.6-2.4-1.6c0,1.7-1.6,2-2.7,2H70c-0.5,0-0.8-0.1-0.8-0.7v-2.3h3.9v0.1
				c0,0.5-0.3,0.5-0.9,0.5c-0.5,0-1.9,0-1.9,0v1.6c0.1,0,1.5,0,1.6,0c1.7,0,2.4-0.1,2.9-0.5c0.4-0.4,0.5-1.1,0.5-2.4
				c0.7,0.8,2.1,1.7,3.2,2.3L78.8,86.1L78.8,86.1z M69.5,85.6c0.3-0.3,0.7-0.7,0.9-1.1h3.5c0.1,0.4,0.5,0.7,0.8,1.1H69.5z"/>
		</g>
		<g>
			<path d="M51.3,88.7c2,1.6,3.7,2.4,6.8,2.8v3.5c-3.3-0.7-6.9-2.4-9.2-4.3c-2.5,2-5.6,3.6-9.3,4.3v-3.3c2.7-0.5,4.9-1.6,6.8-2.8
				c-2.1-2-4.3-5.6-6-9.7l3.1-0.1c0.4,1.1,1.1,2.4,2.1,3.9c0.9,1.6,2.1,3.1,3.2,4c0.9-0.8,2.3-2.1,3.3-3.9c1.1-1.7,2-3.5,2.3-4.9
				H39.6v-2.7H58c0,0-0.1,1.2-0.5,2.7c-0.5,1.7-1.3,4.1-2.4,5.7C53.7,86,52.4,87.6,51.3,88.7z"/>
			<path d="M48.8,84c-1.1-1.3-2.3-2.7-3.5-4l2.4-1.3c1.2,0.9,2.4,2.1,3.5,3.6L48.8,84z"/>
		</g>
	</g>
</g>
<g>
	<path d="M144.4,53.4v23.4h23.3V53.4H144.4z M164.5,67.4v6.5h-16.9h-0.2V56l0,0h7.5h3h6.5l0,0L164.5,67.4L164.5,67.4z"/>
	<path d="M164,66.1c-1.2-0.5-1.9-0.8-2.8-1.7h2.8v-2.3h-8.4l0.6-1.1h7.8v-2.2h-2.8c0.5-0.6,1.2-1.7,1.6-2.3h-3c0,0-0.9,1.7-1.6,2.3
		h-1.1c0.3-0.9,0.6-1.4,0.8-2.3h-3c-0.2,1.1-0.6,1.6-0.9,2.3h-0.5c-0.3-0.9-1.6-2.3-1.6-2.3h-3.1c0.8,0.9,1.6,2,1.7,2.3h-2.5V61h4.7
		l-0.6,1.1h-4v2.3h2.3c-1.1,1.1-1.4,1.6-2.3,1.9V70c0.8-0.6,1.7-1.6,2-1.9v2.3c0,1.9,1.1,2.8,3.1,2.8h6.7c0.9,0,2-0.5,2.6-1.2
		c0.3-0.5,0.6-1.7,0.6-1.7c-1.4-0.5-2.8-1.9-2.8-1.9c0,2-1.9,2.3-3.1,2.3h-3.6c-0.6,0-0.9-0.2-0.9-0.8v-2.6h4.5v0.2
		c0,0.6-0.3,0.6-1.1,0.6c-0.6,0-2.2,0-2.2,0V70c0.2,0,1.7,0,1.9,0c2,0,2.8-0.2,3.4-0.6c0.5-0.5,0.6-1.2,0.6-2.8
		c0.8,0.9,2.5,2,3.7,2.6L164,66.1L164,66.1z M153.1,65.5c0.3-0.3,0.8-0.8,1.1-1.2h4c0.2,0.5,0.6,0.8,0.9,1.2H153.1z"/>
</g>
<g>
	<path d="M132.7,69.2c2.3,1.9,4.3,2.8,7.9,3.3v4c-3.9-0.8-8.1-2.8-10.7-5c-3,2.3-6.5,4.2-10.9,5v-3.9c3.1-0.6,5.7-1.9,7.9-3.3
		c-2.5-2.3-5-6.5-7-11.3l3.6-0.2c0.5,1.2,1.2,2.8,2.5,4.5c1.1,1.9,2.5,3.6,3.7,4.7c1.1-0.9,2.6-2.5,3.9-4.5c1.2-2,2.3-4,2.6-5.7
		h-17.2v-3.1h21.4c0,0-0.2,1.4-0.6,3.1c-0.6,2-1.6,4.8-2.8,6.7C135.5,66.1,134,68,132.7,69.2z"/>
	<path d="M129.8,63.8c-1.2-1.6-2.6-3.1-4-4.7l2.8-1.6c1.4,1.1,2.8,2.5,4,4.2L129.8,63.8z"/>
</g>
<polygon class="st7" points="169.2,-3.4 172,-6.2 170,-8.3 172,-10.3 169.2,-13.1 167.2,-11.1 165.2,-13.1 162.3,-10.3 164.3,-8.3 
	162.3,-6.2 165.2,-3.4 167.2,-5.4 "/>
<path class="st7" d="M161.8,1.7c0-2.8,2.3-5.1,5.1-5.1s5.1,2.3,5.1,5.1s-2.3,5.1-5.1,5.1S161.8,4.5,161.8,1.7z"/>
<g>
	<line class="st11" x1="-90.9" y1="-47.7" x2="-61.6" y2="-29.3"/>
	<line class="st11" x1="-61.6" y1="-47.7" x2="-90.9" y2="-29.3"/>
	<ellipse class="st12" cx="-40.8" cy="-38.5" rx="14.6" ry="9.2"/>
</g>
<g class="st13">
	<path d="M22.8,18.3c-0.1-2.3-0.1-3.1-0.2-3.9V7.9h5.3v19h-4.4l-7.7-10.2l0.1,4.2v6.1h-5.3v-19H15L22.8,18.3z"/>
	<path d="M40.9,27.3c-6,0-10.3-3.6-10.3-10c0-6.2,4.2-10,10.3-10c6.1,0,10.3,3.6,10.3,10C51.2,23.7,47,27.3,40.9,27.3z M40.9,12
		c-3,0-5,2.2-5,5.4c0,3.2,2.1,5.4,5,5.4c3.1,0,5-2.2,5-5.4C46,14.1,44,12,40.9,12z"/>
	<path d="M66.1,18.3C66,16,66,15.1,66,14.4V7.9h5.3v19h-4.4l-7.7-10.2l0.1,4.2v6.1h-5.3v-19h4.4L66.1,18.3z"/>
	<path d="M82.5,14.2l1.7-3.4L86,7.9h5.6v0.3l-5.8,9.1l6.2,9.3v0.2h-5.7l-1.7-2.6l-2.1-3.5l-2.1,3.6l-1.7,2.6h-5.7v-0.2l6.2-9.3
		l-5.8-9.1V7.9h5.6l1.7,2.9L82.5,14.2z"/>
	<path d="M102.3,27.3c-6,0-10.3-3.6-10.3-10c0-6.2,4.2-10,10.3-10c6.1,0,10.3,3.6,10.3,10C112.6,23.7,108.4,27.3,102.3,27.3z
		 M102.3,12c-3,0-5,2.2-5,5.4c0,3.2,2.1,5.4,5,5.4c3.1,0,5-2.2,5-5.4C107.4,14.1,105.4,12,102.3,12z"/>
</g>
<text transform="matrix(0.9723 0 0 1 -95.3391 118.6003)" style="font-family:'NexaBlack'; font-size:29.0193px;">NONXO</text>
<text transform="matrix(0.9723 0 0 1 -53.4861 25.169)" class="st13"><tspan x="0" y="0" style="font-family:'NotoSansCJKtc-Black-B5pc-H'; font-size:25.3604px;">影</tspan><tspan x="0" y="30.4" style="font-family:'NotoSansCJKtc-Black-B5pc-H'; font-size:25.3604px;">畫</tspan></text>
<g class="st13">
	<path d="M31.5-20.4c0,5.1-3.1,8.9-8.6,8.9c-5.4,0-8.9-3.8-8.9-8.9c0-4.9,3.4-8.9,8.9-8.9C28.4-29.3,31.5-25.5,31.5-20.4z
		 M22.9-13.9c3.8,0,6.1-2.6,6.1-6.5c0-3.9-2.2-6.5-6.1-6.5c-3.8,0-6.3,2.7-6.3,6.5C16.6-16.5,19.1-13.9,22.9-13.9z M24.9-19
		c2.8-0.8,2.5-5.7-1.6-5.7c-1.4,0-2.5,0-3.9,0v8.8h2.4v-2.6h1l1.4,2.6h2.6L24.9-19z M23.4-22.6c1.2,0,1.2,2,0,2h-1.7v-2H23.4z"/>
</g>
<text transform="matrix(0.9723 0 0 1 115.2998 97.5545)" style="font-family:'NexaBlack'; font-size:11.3791px;">®</text>
</svg>
