<?xml version="1.0" encoding="utf-8"?>
<!-- Generator: Adobe Illustrator 23.1.0, SVG Export Plug-In . SVG Version: 6.00 Build 0)  -->
<svg version="1.1" id="圖層_1" xmlns="http://www.w3.org/2000/svg" xmlns:xlink="http://www.w3.org/1999/xlink" x="0px" y="0px"
	 viewBox="0 0 296 174" style="enable-background:new 0 0 296 174;" xml:space="preserve">
<style type="text/css">
	.st0{fill:#BB181E;}
	.st1{fill:none;stroke:#BB181E;stroke-width:3.8487;stroke-miterlimit:10;}
	.st2{fill:#191919;}
	.st3{fill:#686868;}
	.st4{fill:#B7B7B7;}
</style>
<g>
	<g>
		<g>
			<path d="M63.1-179.5c-0.2-3.7-0.2-5.1-0.3-6.3v-10.5h8.5v30.7h-7.2l-12.4-16.5l0.1,6.7v9.8h-8.5v-30.7h7.2L63.1-179.5z"/>
			<path d="M92.3-164.8c-9.8,0-16.6-5.8-16.6-16.1c0-10.1,6.8-16.1,16.6-16.1c9.8,0,16.6,5.9,16.6,16.1
				C108.9-170.7,102.1-164.8,92.3-164.8z M92.3-189.6c-4.8,0-8.1,3.6-8.1,8.7c0,5.1,3.4,8.7,8.1,8.7c4.9,0,8.1-3.6,8.1-8.7
				C100.5-186.2,97.3-189.6,92.3-189.6z"/>
			<path d="M133.1-179.5c-0.2-3.7-0.2-5.1-0.3-6.3v-10.5h8.5v30.7h-7.2l-12.4-16.5l0.1,6.7v9.8h-8.5v-30.7h7.2L133.1-179.5z"/>
			<path d="M159.5-186.1l2.8-5.5l2.7-4.6h9.1v0.5l-9.4,14.8l10,15.1v0.3h-9.2l-2.8-4.3l-3.3-5.7l-3.4,5.8l-2.7,4.2h-9.2v-0.3
				l10-15.1l-9.4-14.8v-0.5h9.1l2.8,4.7L159.5-186.1z"/>
			<path d="M191.5-164.8c-9.8,0-16.6-5.8-16.6-16.1c0-10.1,6.8-16.1,16.6-16.1c9.8,0,16.6,5.9,16.6,16.1
				C208.1-170.7,201.3-164.8,191.5-164.8z M191.5-189.6c-4.8,0-8.1,3.6-8.1,8.7c0,5.1,3.4,8.7,8.1,8.7c4.9,0,8.1-3.6,8.1-8.7
				C199.7-186.2,196.4-189.6,191.5-189.6z"/>
			<path d="M75.1-116.6h-6.9L63-131.3l-5.1,14.7H51l-11.1-30.7h9.2l3.8,10.8c0.7,2.3,1.2,4.8,1.6,7.1l5.5-17.9h5.8l5.7,17.9
				c0.4-2.3,1-4.8,1.7-7.3l3.6-10.6H86L75.1-116.6z"/>
			<path d="M103-115.8c-9.8,0-16.6-5.8-16.6-16.1c0-10.1,6.8-16.1,16.6-16.1c9.8,0,16.6,5.9,16.6,16.1
				C119.6-121.6,112.8-115.8,103-115.8z M103-140.6c-4.8,0-8.1,3.6-8.1,8.7c0,5.1,3.4,8.7,8.1,8.7c4.9,0,8.1-3.6,8.1-8.7
				C111.1-137.1,107.9-140.6,103-140.6z"/>
			<path d="M151.6-116.5h-9.3l-6.9-9.9h-2.9v9.9h-8.4v-30.7h14.6c7.6,0,11.6,5,11.6,10.6c0,3.8-1.3,7-6.3,9.3l7.8,10.3L151.6-116.5
				L151.6-116.5z M132.4-140.3v7.4h6.2c2.2,0,3.2-1.7,3.2-3.6c0-1.9-1.1-3.8-3.3-3.8H132.4z"/>
			<path d="M181.7-146.7l-12.1,14.5c4.2,4.7,9,10.3,13.1,15.1v0.5h-10.4l-8.5-10.2v10.2h-8.4v-30.7h8.4v10.1
				c2.6-3.2,5.3-6.8,7.8-10.1h10.1L181.7-146.7L181.7-146.7z"/>
			<path d="M202.9-138.7c-2.1-1.6-4.4-2.1-7-2.1c-2.1,0-4.1,0.7-4.1,2.3c0,2.1,2,2.4,4.9,2.7c5.9,0.7,12.1,3.1,12.1,10.2
				c0,7-6.4,9.9-13.1,10c-5.4,0-9.2-0.9-13.3-5.4l4.6-5.5c2.9,2.9,6.2,3.5,8.7,3.5c2.8,0,4.7-1,4.7-2.7c0-1.5-1.7-2.5-5-2.8
				c-6.5-0.6-12.1-2.3-12.1-9.9c0-6.5,6.2-9.3,12.5-9.3c4.5,0,8,1.1,11.2,3.6L202.9-138.7z"/>
			<path d="M232.1-116.5v-11.6h-10.7v11.6h-8.4v-30.7h8.4v11.7h10.7v-11.7h8.4v30.7L232.1-116.5L232.1-116.5z"/>
			<path d="M261.5-115.8c-9.8,0-16.6-5.8-16.6-16.1c0-10.1,6.8-16.1,16.6-16.1c9.8,0,16.6,5.9,16.6,16.1
				C278-121.6,271.3-115.8,261.5-115.8z M261.5-140.6c-4.8,0-8.1,3.6-8.1,8.7c0,5.1,3.4,8.7,8.1,8.7c5,0,8.1-3.6,8.1-8.7
				C269.6-137.1,266.4-140.6,261.5-140.6z"/>
			<path d="M290.9-124.8v8.3h-8.4v-30.7h14.5c8,0,12,5.2,12,11.2c0,6.3-4,11.1-12,11.2C296.9-124.8,290.9-124.8,290.9-124.8z
				 M290.9-132.1h6c2.3,0,3.5-1.8,3.5-3.8c0-2-1.2-3.9-3.5-3.9h-6V-132.1z"/>
		</g>
	</g>
	<rect x="221.4" y="-184.7" class="st0" width="84.8" height="3.8"/>
	<g>
		<g>
			<g>
				<path d="M68.5-69.4v20.6H89v-20.6H68.5z M86.2-57.1v5.8H71.3h-0.1v-15.7h0h6.5h2.6h5.7h0L86.2-57.1L86.2-57.1z"/>
				<path d="M85.7-58.2c-1.1-0.4-1.6-0.7-2.4-1.5h2.4v-2.1h-7.3l0.5-0.9h6.8v-1.9h-2.5c0.4-0.5,1.1-1.5,1.4-2.1H82
					c0,0-0.8,1.5-1.4,2.1h-0.9c0.3-0.8,0.6-1.2,0.7-2.1h-2.6c-0.2,0.9-0.5,1.3-0.8,2.1h-0.4c-0.3-0.8-1.3-2.1-1.3-2.1h-2.7
					c0.7,0.8,1.4,1.8,1.5,2.1l-2.2,0v1.9l4.1,0l-0.5,0.9l-3.6,0v2.1l2,0c-0.9,0.9-1.2,1.3-2,1.6v3.3c0.7-0.5,1.5-1.3,1.8-1.6v2
					c0,1.6,1,2.5,2.7,2.5h5.9c0.8,0,1.8-0.4,2.3-1.1c0.3-0.4,0.6-1.5,0.6-1.5c-1.2-0.4-2.4-1.6-2.4-1.6C82.8-54.3,81.1-54,80-54
					h-3.1c-0.5,0-0.8-0.2-0.8-0.7V-57H80c0,0,0,0.1,0,0.1c0,0.5-0.3,0.6-1,0.6c-0.5,0-1.9,0-1.9,0v1.6c0.2,0,1.5,0,1.7,0
					c1.8,0,2.5-0.2,3-0.6c0.4-0.4,0.5-1.1,0.5-2.5c0.7,0.8,2.2,1.8,3.3,2.3L85.7-58.2L85.7-58.2z M76.2-58.7
					c0.3-0.3,0.7-0.7,0.9-1.1h3.5c0.2,0.4,0.5,0.7,0.8,1.1H76.2z"/>
			</g>
			<g>
				<path d="M57.5-55.5c2.1,1.6,3.8,2.4,7,2.9v3.5c-3.4-0.7-7.1-2.4-9.5-4.4c-2.6,2-5.8,3.7-9.6,4.4v-3.4c2.8-0.5,5.1-1.6,7-2.9
					c-2.2-2.1-4.4-5.7-6.1-10l3.1-0.1c0.4,1.1,1.1,2.4,2.2,4c1,1.6,2.2,3.1,3.3,4.1c0.9-0.8,2.3-2.2,3.4-4c1.1-1.8,2-3.5,2.3-5.1
					l-15.2,0v-2.7h18.9c0,0-0.1,1.2-0.5,2.8c-0.5,1.8-1.3,4.2-2.4,5.9C60-58.3,58.7-56.7,57.5-55.5z"/>
				<path d="M54.9-60.3c-1.1-1.4-2.3-2.8-3.6-4.1l2.4-1.4c1.2,0.9,2.4,2.2,3.6,3.7L54.9-60.3z"/>
			</g>
		</g>
	</g>
</g>
<g>
	<g>
		<text transform="matrix(0.9723 0 0 1 -386.2852 -105.7313)" style="font-family:  font-size:43.8446px;">NONXO</text>
		<text transform="matrix(0.9723 0 0 1 -386.2852 -56.6913)" style="font-family:  font-size:43.8446px;">WORKSHOP</text>
	</g>
	<line class="st1" x1="-205.2" y1="-122.9" x2="-120.4" y2="-122.9"/>
	<g>
		<g>
			<g>
				<path d="M-358.1-9.6v20.6h20.5V-9.6H-358.1z M-340.4,2.7v5.8h-14.8h-0.1V-7.3h0h6.5h2.6h5.7h0L-340.4,2.7L-340.4,2.7z"/>
				<path d="M-340.9,1.6c-1.1-0.4-1.6-0.7-2.4-1.5h2.4v-2h-7.3l0.5-0.9h6.8v-1.9h-2.5c0.4-0.5,1.1-1.5,1.4-2.1h-2.5
					c0,0-0.8,1.5-1.4,2.1h-0.9c0.3-0.8,0.6-1.2,0.7-2.1h-2.6c-0.2,0.9-0.5,1.3-0.8,2.1h-0.4c-0.4-0.8-1.3-2.1-1.3-2.1h-2.7
					c0.6,0.8,1.4,1.8,1.5,2.1l-2.2,0v1.9l4.1,0l-0.5,0.9l-3.6,0v2.1l2,0c-0.9,0.9-1.2,1.3-2,1.6v3.3c0.7-0.5,1.5-1.3,1.8-1.6v2
					c0,1.6,1,2.5,2.7,2.5h5.9c0.8,0,1.8-0.3,2.3-1.1c0.3-0.4,0.6-1.5,0.6-1.5c-1.2-0.4-2.4-1.6-2.4-1.6c-0.1,1.8-1.9,2.1-2.9,2.1
					h-3.1c-0.5,0-0.8-0.2-0.8-0.7V2.9h3.8c0,0,0,0.1,0,0.1c0,0.5-0.3,0.6-1,0.6c-0.5,0-1.9,0-1.9,0v1.6c0.2,0,1.5,0,1.7,0
					c1.8,0,2.5-0.2,3-0.6c0.4-0.4,0.5-1.2,0.5-2.5c0.7,0.8,2.2,1.8,3.3,2.3L-340.9,1.6L-340.9,1.6z M-350.4,1.2
					c0.4-0.3,0.6-0.7,0.9-1h3.5c0.2,0.3,0.5,0.7,0.8,1H-350.4z"/>
			</g>
			<g>
				<path d="M-369.1,4.4c2.1,1.7,3.8,2.4,7,2.9v3.5c-3.4-0.7-7.1-2.3-9.5-4.4c-2.6,2-5.8,3.7-9.6,4.4V7.4c2.8-0.5,5.1-1.6,7-3
					c-2.2-2.1-4.4-5.7-6.1-10l3.1-0.1c0.4,1.1,1.1,2.4,2.1,4c1,1.6,2.1,3.1,3.3,4.1c0.9-0.8,2.3-2.2,3.4-4c1.1-1.8,2-3.5,2.3-5.1
					l-15.2,0v-2.7h18.9c0,0-0.1,1.2-0.5,2.8c-0.5,1.8-1.3,4.2-2.4,5.9C-366.6,1.5-367.8,3.1-369.1,4.4z"/>
				<path d="M-371.6-0.5c-1.1-1.4-2.3-2.8-3.6-4.1l2.4-1.4c1.2,0.9,2.4,2.2,3.6,3.7L-371.6-0.5z"/>
			</g>
		</g>
	</g>
</g>
<g>
	<g>
		<polygon class="st2" points="86.1,24.7 73.1,11.7 63.8,20.9 54.6,11.7 41.5,24.7 50.8,34 41.5,43.2 54.6,56.3 63.8,47 73.1,56.3 
			86.1,43.2 76.8,34 		"/>
	</g>
	<g>
		<polygon class="st3" points="74.3,36.5 61.3,23.5 52,32.8 42.7,23.5 29.7,36.5 39,45.8 29.7,55.1 42.7,68.1 52,58.8 61.3,68.1 
			74.3,55.1 65,45.8 		"/>
	</g>
	<g>
		<polygon class="st4" points="62.4,48.4 49.4,35.4 40.1,44.6 30.9,35.4 17.9,48.4 27.1,57.6 17.9,66.9 30.9,79.9 40.1,70.7 
			49.4,79.9 62.4,66.9 53.2,57.6 		"/>
	</g>
</g>
</svg>
