<?xml version="1.0" encoding="utf-8"?>
<!-- Generator: Adobe Illustrator 24.1.2, SVG Export Plug-In . SVG Version: 6.00 Build 0)  -->
<svg version="1.1" id="圖層_1" xmlns="http://www.w3.org/2000/svg" xmlns:xlink="http://www.w3.org/1999/xlink" x="0px" y="0px"
	 viewBox="0 0 222.2 75.5" style="enable-background:new 0 0 222.2 75.5;" xml:space="preserve">
<style type="text/css">
	.st0{fill:#AF0000;stroke:#000000;stroke-width:2;stroke-miterlimit:10;}
	.st1{display:none;}
	.st2{display:inline;}
	.st3{fill:#191919;}
	.st4{display:inline;fill:#B5B5B5;}
	.st5{display:inline;fill:#BB181E;}
	.st6{fill:none;stroke:#BB181E;stroke-width:3.8487;stroke-miterlimit:10;}
	.st7{display:inline;fill:#FFFFFF;}
	.st8{fill:#FFFFFF;}
	.st9{display:inline;fill:none;stroke:#000000;stroke-miterlimit:10;}
	.st10{fill:#231815;}
	.st11{display:inline;fill:#040000;}
	.st12{fill:#040000;}
	.st13{display:inline;fill:none;stroke:#000000;stroke-width:0.7639;stroke-miterlimit:10;}
	.st14{display:inline;fill:none;stroke:#FFFFFF;stroke-miterlimit:10;}
	.st15{display:inline;fill:none;stroke:#FFFFFF;stroke-width:1.6518;stroke-miterlimit:10;}
	.st16{fill:none;stroke:#040000;stroke-width:5.5394;stroke-miterlimit:10;}
	.st17{fill:none;stroke:#040000;stroke-width:5.1414;stroke-miterlimit:10;}
	.st18{display:inline;enable-background:new    ;}
	.st19{display:inline;fill:none;stroke:#040000;stroke-width:6;stroke-miterlimit:10;}
	.st20{display:inline;stroke:#000000;stroke-width:0.6;stroke-miterlimit:10;}
	.st21{display:inline;stroke:#000000;stroke-width:2;stroke-miterlimit:10;}
	.st22{fill:#B5B5B5;}
	.st23{fill:#BB181E;}
	.st24{fill:none;stroke:#000000;stroke-miterlimit:10;}
	.st25{fill:none;stroke:#000000;stroke-width:0.7639;stroke-miterlimit:10;}
	.st26{fill:none;stroke:#FFFFFF;stroke-miterlimit:10;}
	.st27{fill:none;stroke:#FFFFFF;stroke-width:1.6518;stroke-miterlimit:10;}
	.st28{enable-background:new    ;}
	.st29{stroke:#000000;stroke-width:2;stroke-miterlimit:10;}
</style>
<path class="st0" d="M372,103.5c-7,0-12.8-5.7-12.8-12.8S365,78,372,78s12.8,5.7,12.8,12.7S379,103.5,372,103.5z M372,78.7
	c-6.6,0-12,5.4-12,12s5.4,12,12,12s12-5.4,12-12C383.9,84.1,378.6,78.7,372,78.7z"/>
<g id="圖層_1_1_" class="st1">
	<g class="st2">
		<path class="st3" d="M-74.6-16.4c-4.2,4.2-4.2,10.9,0,15.1s10.9,4.2,15.1,0s4.2-10.9,0-15.1S-70.4-20.5-74.6-16.4z"/>
	</g>
	<path class="st4" d="M-85.6-5.3c-4.2,4.2-4.2,10.9,0,15.1s10.9,4.2,15.1,0s4.2-10.9,0-15.1S-81.4-9.5-85.6-5.3z"/>
	<g class="st2">
		<path class="st3" d="M-139.2-31.9c-4.2,4.2-4.2,10.9,0,15.1s10.9,4.2,15.1,0c4.2-4.2,4.2-10.9,0-15.1
			C-128.3-36.1-135-36-139.2-31.9z"/>
	</g>
	<path class="st4" d="M-150.2-20.8c-4.2,4.2-4.2,10.9,0,15.1s10.9,4.2,15.1,0s4.2-10.9,0-15.1S-146-25-150.2-20.8z"/>
	<g class="st2">
		<g>
			<path d="M95.7-182.3c-0.2-3.7-0.2-5.1-0.3-6.3v-10.5h8.5v30.7h-7.2l-12.4-16.5l0.1,6.7v9.8h-8.5v-30.7h7.2L95.7-182.3z"/>
			<path d="M124.9-167.6c-9.8,0-16.6-5.8-16.6-16.1c0-10.1,6.8-16.1,16.6-16.1s16.6,5.9,16.6,16.1S134.7-167.6,124.9-167.6z
				 M124.9-192.4c-4.8,0-8.1,3.6-8.1,8.7c0,5.1,3.4,8.7,8.1,8.7c4.9,0,8.1-3.6,8.1-8.7C133.1-189,129.9-192.4,124.9-192.4z"/>
			<path d="M165.7-182.3c-0.2-3.7-0.2-5.1-0.3-6.3v-10.5h8.5v30.7h-7.2l-12.4-16.5l0.1,6.7v9.8h-8.5v-30.7h7.2L165.7-182.3z"/>
			<path d="M192.1-188.9l2.8-5.5l2.7-4.6h9.1v0.5l-9.4,14.8l10,15.1v0.3h-9.2l-2.8-4.3l-3.3-5.7l-3.4,5.8l-2.7,4.2h-9.2v-0.3
				l10-15.1l-9.4-14.8v-0.5h9.1l2.8,4.7L192.1-188.9z"/>
			<path d="M224.1-167.6c-9.8,0-16.6-5.8-16.6-16.1c0-10.1,6.8-16.1,16.6-16.1s16.6,5.9,16.6,16.1S233.9-167.6,224.1-167.6z
				 M224.1-192.4c-4.8,0-8.1,3.6-8.1,8.7c0,5.1,3.4,8.7,8.1,8.7c4.9,0,8.1-3.6,8.1-8.7C232.3-189,229-192.4,224.1-192.4z"/>
			<path d="M107.7-119.4h-6.9l-5.2-14.7l-5.1,14.7h-6.9l-11.1-30.7h9.2l3.8,10.8c0.7,2.3,1.2,4.8,1.6,7.1l5.5-17.9h5.8l5.7,17.9
				c0.4-2.3,1-4.8,1.7-7.3l3.6-10.6h9.2L107.7-119.4z"/>
			<path d="M135.6-118.6c-9.8,0-16.6-5.8-16.6-16.1c0-10.1,6.8-16.1,16.6-16.1c9.8,0,16.6,5.9,16.6,16.1
				C152.2-124.4,145.4-118.6,135.6-118.6z M135.6-143.4c-4.8,0-8.1,3.6-8.1,8.7s3.4,8.7,8.1,8.7c4.9,0,8.1-3.6,8.1-8.7
				C143.7-139.9,140.5-143.4,135.6-143.4z"/>
			<path d="M184.2-119.3h-9.3l-6.9-9.9h-2.9v9.9h-8.4V-150h14.6c7.6,0,11.6,5,11.6,10.6c0,3.8-1.3,7-6.3,9.3l7.8,10.3L184.2-119.3
				L184.2-119.3z M165-143.1v7.4h6.2c2.2,0,3.2-1.7,3.2-3.6c0-1.9-1.1-3.8-3.3-3.8L165-143.1L165-143.1z"/>
			<path d="M214.3-149.5L202.2-135c4.2,4.7,9,10.3,13.1,15.1v0.5h-10.4l-8.5-10.2v10.2H188v-30.7h8.4v10.1c2.6-3.2,5.3-6.8,7.8-10.1
				h10.1L214.3-149.5L214.3-149.5z"/>
			<path d="M235.5-141.5c-2.1-1.6-4.4-2.1-7-2.1c-2.1,0-4.1,0.7-4.1,2.3c0,2.1,2,2.4,4.9,2.7c5.9,0.7,12.1,3.1,12.1,10.2
				c0,7-6.4,9.9-13.1,10c-5.4,0-9.2-0.9-13.3-5.4l4.6-5.5c2.9,2.9,6.2,3.5,8.7,3.5c2.8,0,4.7-1,4.7-2.7c0-1.5-1.7-2.5-5-2.8
				c-6.5-0.6-12.1-2.3-12.1-9.9c0-6.5,6.2-9.3,12.5-9.3c4.5,0,8,1.1,11.2,3.6L235.5-141.5z"/>
			<path d="M264.7-119.3v-11.6H254v11.6h-8.4V-150h8.4v11.7h10.7V-150h8.4v30.7H264.7L264.7-119.3z"/>
			<path d="M294.1-118.6c-9.8,0-16.6-5.8-16.6-16.1c0-10.1,6.8-16.1,16.6-16.1s16.6,5.9,16.6,16.1
				C310.6-124.4,303.9-118.6,294.1-118.6z M294.1-143.4c-4.8,0-8.1,3.6-8.1,8.7s3.4,8.7,8.1,8.7c5,0,8.1-3.6,8.1-8.7
				C302.2-139.9,299-143.4,294.1-143.4z"/>
			<path d="M323.5-127.6v8.3h-8.4V-150h14.5c8,0,12,5.2,12,11.2c0,6.3-4,11.1-12,11.2C329.5-127.6,323.5-127.6,323.5-127.6z
				 M323.5-134.9h6c2.3,0,3.5-1.8,3.5-3.8s-1.2-3.9-3.5-3.9h-6V-134.9z"/>
		</g>
	</g>
	<rect x="254" y="-187.5" class="st5" width="84.8" height="3.8"/>
	<g class="st2">
		<g>
			<g>
				<path d="M101.1-72.2v20.6h20.5v-20.6H101.1z M118.8-59.9v5.8h-14.9h-0.1v-15.7l0,0h6.5h2.6h5.7l0,0L118.8-59.9L118.8-59.9z"/>
				<path d="M118.3-61c-1.1-0.4-1.6-0.7-2.4-1.5h2.4v-2.1H111l0.5-0.9h6.8v-1.9h-2.5c0.4-0.5,1.1-1.5,1.4-2.1h-2.6
					c0,0-0.8,1.5-1.4,2.1h-0.9c0.3-0.8,0.6-1.2,0.7-2.1h-2.6c-0.2,0.9-0.5,1.3-0.8,2.1h-0.4c-0.3-0.8-1.3-2.1-1.3-2.1h-2.7
					c0.7,0.8,1.4,1.8,1.5,2.1h-2.2v1.9h4.1l-0.5,0.9h-3.6v2.1h2c-0.9,0.9-1.2,1.3-2,1.6v3.3c0.7-0.5,1.5-1.3,1.8-1.6v2
					c0,1.6,1,2.5,2.7,2.5h5.9c0.8,0,1.8-0.4,2.3-1.1c0.3-0.4,0.6-1.5,0.6-1.5c-1.2-0.4-2.4-1.6-2.4-1.6c0,1.8-1.7,2.1-2.8,2.1h-3.1
					c-0.5,0-0.8-0.2-0.8-0.7v-2.3h3.9v0.1c0,0.5-0.3,0.6-1,0.6c-0.5,0-1.9,0-1.9,0v1.6c0.2,0,1.5,0,1.7,0c1.8,0,2.5-0.2,3-0.6
					c0.4-0.4,0.5-1.1,0.5-2.5c0.7,0.8,2.2,1.8,3.3,2.3L118.3-61L118.3-61z M108.8-61.5c0.3-0.3,0.7-0.7,0.9-1.1h3.5
					c0.2,0.4,0.5,0.7,0.8,1.1H108.8z"/>
			</g>
			<g>
				<path d="M90.1-58.3c2.1,1.6,3.8,2.4,7,2.9v3.5c-3.4-0.7-7.1-2.4-9.5-4.4c-2.6,2-5.8,3.7-9.6,4.4v-3.4c2.8-0.5,5.1-1.6,7-2.9
					c-2.2-2.1-4.4-5.7-6.1-10l3.1-0.1c0.4,1.1,1.1,2.4,2.2,4c1,1.6,2.2,3.1,3.3,4.1c0.9-0.8,2.3-2.2,3.4-4c1.1-1.8,2-3.5,2.3-5.1H78
					V-72h18.9c0,0-0.1,1.2-0.5,2.8c-0.5,1.8-1.3,4.2-2.4,5.9C92.6-61.1,91.3-59.5,90.1-58.3z"/>
				<path d="M87.5-63.1c-1.1-1.4-2.3-2.8-3.6-4.1l2.4-1.4c1.2,0.9,2.4,2.2,3.6,3.7L87.5-63.1z"/>
			</g>
		</g>
	</g>
	<g class="st2">
		<g>
			<text transform="matrix(0.9723 0 0 1 -353.6953 -108.4485)" style="font-family:'NexaBlack'; font-size:43.8446px;">NONXO</text>
			<text transform="matrix(0.9723 0 0 1 -353.6953 -59.4085)" style="font-family:'NexaBlack'; font-size:43.8446px;">WORKSHOP</text>
		</g>
		<line class="st6" x1="-172.6" y1="-125.7" x2="-87.8" y2="-125.7"/>
		<g>
			<g>
				<g>
					<path d="M-325.5-12.4V8.2h20.5v-20.6H-325.5z M-307.8-0.1v5.8h-14.8h-0.1v-15.8l0,0h6.5h2.6h5.7l0,0L-307.8-0.1L-307.8-0.1z"/>
					<path d="M-308.3-1.2c-1.1-0.4-1.6-0.7-2.4-1.5h2.4v-2h-7.3l0.5-0.9h6.8v-1.9h-2.5c0.4-0.5,1.1-1.5,1.4-2.1h-2.5
						c0,0-0.8,1.5-1.4,2.1h-0.9c0.3-0.8,0.6-1.2,0.7-2.1h-2.6c-0.2,0.9-0.5,1.3-0.8,2.1h-0.4c-0.4-0.8-1.3-2.1-1.3-2.1h-2.7
						c0.6,0.8,1.4,1.8,1.5,2.1h-2.2v1.9h4.1l-0.5,0.9h-3.6v2.1h2c-0.9,0.9-1.2,1.3-2,1.6v3.3c0.7-0.5,1.5-1.3,1.8-1.6v2
						c0,1.6,1,2.5,2.7,2.5h5.9c0.8,0,1.8-0.3,2.3-1.1c0.3-0.4,0.6-1.5,0.6-1.5c-1.2-0.4-2.4-1.6-2.4-1.6c-0.1,1.8-1.9,2.1-2.9,2.1
						h-3.1c-0.5,0-0.8-0.2-0.8-0.7V0.1h3.8v0.1c0,0.5-0.3,0.6-1,0.6c-0.5,0-1.9,0-1.9,0v1.6c0.2,0,1.5,0,1.7,0c1.8,0,2.5-0.2,3-0.6
						c0.4-0.4,0.5-1.2,0.5-2.5c0.7,0.8,2.2,1.8,3.3,2.3L-308.3-1.2L-308.3-1.2z M-317.8-1.6c0.4-0.3,0.6-0.7,0.9-1h3.5
						c0.2,0.3,0.5,0.7,0.8,1H-317.8z"/>
				</g>
				<g>
					<path d="M-336.5,1.6c2.1,1.7,3.8,2.4,7,2.9V8c-3.4-0.7-7.1-2.3-9.5-4.4c-2.6,2-5.8,3.7-9.6,4.4V4.6c2.8-0.5,5.1-1.6,7-3
						c-2.2-2.1-4.4-5.7-6.1-10l3.1-0.1c0.4,1.1,1.1,2.4,2.1,4s2.1,3.1,3.3,4.1c0.9-0.8,2.3-2.2,3.4-4s2-3.5,2.3-5.1h-15.2v-2.7h18.9
						c0,0-0.1,1.2-0.5,2.8c-0.5,1.8-1.3,4.2-2.4,5.9C-334-1.3-335.2,0.3-336.5,1.6z"/>
					<path d="M-339-3.3c-1.1-1.4-2.3-2.8-3.6-4.1l2.4-1.4c1.2,0.9,2.4,2.2,3.6,3.7L-339-3.3z"/>
				</g>
			</g>
		</g>
	</g>
	<path class="st2" d="M89.9,140.8c-6.8,1-13.1-3.7-14.1-10.4c-1-6.8,3.7-13.1,10.4-14.1c6.8-1,13.1,3.7,14.1,10.4
		C101.3,133.5,96.6,139.8,89.9,140.8z"/>
	<path class="st7" d="M89.9,140.8c-6.8,1-13.1-3.7-14.1-10.4c-1-6.8,3.7-13.1,10.4-14.1c6.8-1,13.1,3.7,14.1,10.4
		C101.3,133.5,96.6,139.8,89.9,140.8 M90.1,142.5c7.7-1.1,13-8.3,11.9-16s-8.3-13-16-11.9s-13,8.3-11.9,16
		C75.3,138.3,82.4,143.6,90.1,142.5L90.1,142.5z"/>
	<g class="st2">
		<polygon points="82.2,134.7 75.9,143.2 69.9,138.7 65.5,144.8 57,138.5 61.5,132.5 55.4,128 61.7,119.5 67.7,124 72.2,118 
			80.7,124.3 76.2,130.3 		"/>
		<path class="st8" d="M75.9,143.2l-6-4.5l-4.5,6l-8.5-6.3l4.5-6l-6-4.5l6.3-8.5l6,4.5l4.5-6l8.5,6.3l-4.5,6l6,4.5L75.9,143.2
			 M76.3,145.6l1-1.4l6.3-8.5l1-1.4l-1.4-1l-4.6-3.4l3.4-4.6l1-1.4l-1.4-1l-8.5-6.3l-1.4-1l-1,1.4l-3.4,4.6l-4.6-3.4l-1.4-1l-1,1.4
			l-6.3,8.5l-1,1.4l1.4,1l4.6,3.4l-3.4,4.6l-1,1.4l1.4,1l8.5,6.3l1.4,1l1-1.4l3.4-4.6l4.6,3.4L76.3,145.6L76.3,145.6z"/>
	</g>
	<polygon class="st9" points="139,-37.9 131.6,-45.4 126.3,-40.1 121,-45.4 113.5,-37.9 118.8,-32.6 113.5,-27.3 121,-19.9 
		126.3,-25.2 131.6,-19.9 139,-27.3 133.7,-32.6 	"/>
	<g class="st2">
		<g>
			<g>
				<path d="M145.7-45c6.8,0,12.4,5.6,12.4,12.4s-5.6,12.4-12.4,12.4c-3.2,0-6-1.2-8.2-3.2l2.7-2.7l1.2-1.2l-1.2-1.2l-4.1-4.1
					l4.1-4.1l1.2-1.2l-1.2-1.2l-2.7-2.7C139.7-43.8,142.6-45,145.7-45 M145.7-46c-3.3,0-6.4,1.2-8.9,3.4l-0.8,0.7l0.7,0.7l2.7,2.7
					l0.5,0.5l-0.5,0.5l-4.1,4.1l-0.7,0.7l0.7,0.7l4.1,4.1l0.5,0.5l-0.5,0.5l-2.7,2.7l-0.7,0.7l0.8,0.7c2.5,2.2,5.6,3.4,8.9,3.4
					c7.4,0,13.4-6,13.4-13.4C159.1-40,153.1-46,145.7-46L145.7-46z"/>
			</g>
		</g>
		<g>
			<g>
				<path d="M136.3-40.6l2.7,2.7l-5.3,5.3l5.3,5.3l-2.7,2.7c-1.8-2.2-3-5-3-8S134.5-38.5,136.3-40.6 M136.3-42.1l-0.7,0.8
					c-2.1,2.4-3.2,5.5-3.2,8.7s1.1,6.2,3.2,8.7l0.7,0.8l0.8-0.8l2.7-2.7l0.7-0.7l-0.7-0.7l-4.6-4.6l4.6-4.6l0.7-0.7l-0.7-0.7
					l-2.7-2.7L136.3-42.1L136.3-42.1z"/>
			</g>
		</g>
	</g>
	<g class="st2">
		<path d="M104.8-37.1c-2.2,0-4.2,0.9-5.7,2.2L101-33l0.9,0.9l-0.9,0.9l-2.8,2.7l2.8,2.8l0.9,0.9l-0.9,0.9L99.1-22
			c1.5,1.4,3.6,2.2,5.7,2.2c4.8,0,8.7-3.9,8.7-8.7S109.5-37.1,104.8-37.1z"/>
	</g>
	<g class="st2">
		<polygon points="81.5,-24.8 85.2,-28.5 81.5,-32.2 87.6,-38.2 91.2,-34.6 94.9,-38.2 101,-32.2 97.3,-28.5 101,-24.8 94.9,-18.8 
			91.2,-22.4 87.6,-18.8 		"/>
		<g>
			<path class="st8" d="M94.9-37.4l3.2,3.2l1.9,1.9l-3.7,3.7l3.7,3.7l-1.8,2l-3.3,3.3l-3.7-3.7l-3.6,3.7l-5.2-5.2l3.7-3.7l-3.7-3.7
				l5.2-5.2l3.7,3.7L94.9-37.4 M87.6-39.1l-0.9,0.9L81.5-33l-0.9,0.9l0.9,0.9l2.8,2.8l-2.8,2.8l-0.9,0.9l0.9,0.9l5.2,5.2l0.9,0.9
				l0.9-0.9l2.7-3l2.8,2.8l0.9,0.9l0.9-0.9L99-22l1.9-1.9l0.9-0.9l-0.9-0.9l-2.7-2.8l2.8-2.8l0.9-0.9l-0.9-0.9L99.1-35l-3.2-3.2
				L95-39.1l-0.9,0.9l-2.9,2.8l-2.8-2.8L87.6-39.1L87.6-39.1z"/>
		</g>
	</g>
	<g class="st2">
		<path class="st10" d="M332.1,184.8c-4.1,0-7.5,3.4-7.5,7.5s3.4,7.5,7.5,7.5s7.5-3.4,7.5-7.5S336.3,184.8,332.1,184.8z"/>
	</g>
	<g class="st2">
		<path class="st10" d="M317.1,185.4c-1,0-2.5-0.4-3.3,0c-1.2,0.6-3,2.4-3.6,3.6c-0.4,0.8,0,2.3,0,3.3s-0.4,2.5,0,3.3
			c0.6,1.2,2.4,3,3.6,3.6c0.8,0.4,2.3,0,3.3,0s2.5,0.4,3.3,0c1.2-0.6,3-2.4,3.6-3.6c0.4-0.8,0-2.3,0-3.3s0.4-2.5,0-3.3
			c-0.6-1.2-2.4-3-3.6-3.6C319.6,185,318,185.4,317.1,185.4z"/>
	</g>
	<g class="st2">
		<path class="st10" d="M332.5,170c-1,0-2.5-0.4-3.3,0c-1.2,0.6-3,2.4-3.6,3.6c-0.4,0.8,0,2.3,0,3.3s-0.4,2.5,0,3.3
			c0.6,1.2,2.4,3,3.6,3.6c0.8,0.4,2.3,0,3.3,0s2.5,0.4,3.3,0c1.2-0.6,3-2.4,3.6-3.6c0.4-0.8,0-2.3,0-3.3s0.4-2.5,0-3.3
			c-0.6-1.2-2.4-3-3.6-3.6C335.1,169.6,333.5,170,332.5,170z"/>
	</g>
	<g class="st2">
		<path class="st10" d="M301.8,186c-0.7,0-2.7-1.1-3.3-0.8c-0.9,0.4-3.4,2.9-3.8,3.8c-0.3,0.6,0.8,2.6,0.8,3.3s-1.1,2.7-0.8,3.3
			c0.4,0.9,2.9,3.4,3.8,3.8c0.6,0.3,2.6-0.8,3.3-0.8c0.7,0,2.7,1.1,3.3,0.8c0.9-0.4,3.4-2.9,3.8-3.8c0.3-0.6-0.8-2.6-0.8-3.3
			s1.1-2.7,0.8-3.3c-0.4-0.9-2.9-3.4-3.8-3.8C304.5,184.9,302.5,186,301.8,186z"/>
	</g>
	<g class="st2">
		<path class="st10" d="M317.1,170.3c-0.7,0-2.7-1.1-3.3-0.8c-0.9,0.4-3.4,2.9-3.8,3.8c-0.3,0.6,0.8,2.6,0.8,3.3s-1.1,2.7-0.8,3.3
			c0.4,0.9,2.9,3.4,3.8,3.8c0.6,0.3,2.6-0.8,3.3-0.8c0.7,0,2.7,1.1,3.3,0.8c0.9-0.4,3.4-2.9,3.8-3.8c0.3-0.6-0.8-2.6-0.8-3.3
			s1.1-2.7,0.8-3.3c-0.4-0.9-2.9-3.4-3.8-3.8C319.7,169.2,317.8,170.3,317.1,170.3z"/>
	</g>
	<g class="st2">
		<path class="st10" d="M332.5,155c-0.7,0-2.7-1.1-3.3-0.8c-0.9,0.4-3.4,2.9-3.8,3.8c-0.3,0.6,0.8,2.6,0.8,3.3s-1.1,2.7-0.8,3.3
			c0.4,0.9,2.9,3.4,3.8,3.8c0.6,0.3,2.6-0.8,3.3-0.8c0.7,0,2.7,1.1,3.3,0.8c0.9-0.4,3.4-2.9,3.8-3.8c0.3-0.6-0.8-2.6-0.8-3.3
			s1.1-2.7,0.8-3.3c-0.4-0.9-2.9-3.4-3.8-3.8C335.2,153.9,333.3,155,332.5,155z"/>
	</g>
	<g class="st2">
		<path class="st10" d="M286.4,186.3c-0.5,0-2.8-1.8-3.3-1.6c-0.6,0.3-3.8,3.5-4,4c-0.2,0.4,1.6,2.8,1.6,3.3s-1.8,2.8-1.6,3.3
			c0.3,0.6,3.5,3.8,4,4c0.4,0.2,2.8-1.6,3.3-1.6s2.8,1.8,3.3,1.6c0.6-0.3,3.8-3.5,4-4c0.2-0.4-1.6-2.8-1.6-3.3s1.8-2.8,1.6-3.3
			c-0.3-0.6-3.5-3.8-4-4S286.9,186.3,286.4,186.3z"/>
	</g>
	<g class="st2">
		<path class="st10" d="M301.8,170.9c-0.5,0-2.8-1.8-3.3-1.6c-0.6,0.3-3.8,3.5-4,4c-0.2,0.4,1.6,2.8,1.6,3.3s-1.8,2.8-1.6,3.3
			c0.3,0.6,3.5,3.8,4,4c0.4,0.2,2.8-1.6,3.3-1.6s2.8,1.8,3.3,1.6c0.6-0.3,3.8-3.5,4-4c0.2-0.4-1.6-2.8-1.6-3.3s1.8-2.8,1.6-3.3
			c-0.3-0.6-3.5-3.8-4-4S302.3,170.9,301.8,170.9z"/>
	</g>
	<g class="st2">
		<path class="st10" d="M317.1,155.5c-0.5,0-2.8-1.8-3.3-1.6c-0.6,0.3-3.8,3.5-4,4c-0.2,0.4,1.6,2.8,1.6,3.3s-1.8,2.8-1.6,3.3
			c0.3,0.6,3.5,3.8,4,4c0.4,0.2,2.8-1.6,3.3-1.6s2.8,1.8,3.3,1.6c0.6-0.3,3.8-3.5,4-4c0.2-0.4-1.6-2.8-1.6-3.3s1.8-2.8,1.6-3.3
			c-0.3-0.6-3.5-3.8-4-4S317.5,155.5,317.1,155.5z"/>
	</g>
	<g class="st2">
		<path class="st10" d="M301.8,156.4c-0.2,0-3-2.5-3.2-2.4c-0.3,0.1-4.1,4-4.3,4.3c-0.1,0.2,2.4,3,2.4,3.2s-2.5,3-2.4,3.2
			c0.1,0.3,4,4.1,4.3,4.3c0.2,0.1,3-2.4,3.2-2.4s3,2.5,3.2,2.4c0.3-0.1,4.1-4,4.3-4.3c0.1-0.2-2.4-3-2.4-3.2s2.5-3,2.4-3.2
			c-0.1-0.3-4-4.1-4.3-4.3C304.8,153.9,302,156.4,301.8,156.4z"/>
	</g>
	<g class="st2">
		<path class="st10" d="M286.4,171.8c-0.2,0-3-2.5-3.2-2.4c-0.3,0.1-4.1,4-4.3,4.3c-0.1,0.2,2.4,3,2.4,3.2s-2.5,3-2.4,3.2
			c0.1,0.3,4,4.1,4.3,4.3c0.2,0.1,3-2.4,3.2-2.4c0.2,0,3,2.5,3.2,2.4c0.3-0.1,4.1-4,4.3-4.3c0.1-0.2-2.4-3-2.4-3.2s2.5-3,2.4-3.2
			c-0.1-0.3-4-4.1-4.3-4.3C289.4,169.3,286.6,171.8,286.4,171.8z"/>
	</g>
	<g class="st2">
		<polygon class="st10" points="294.1,158.3 289.6,153.8 286.4,157 283.2,153.8 278.7,158.3 281.9,161.5 278.7,164.7 283.2,169.2 
			286.4,166 289.6,169.2 294.1,164.7 290.9,161.5 		"/>
	</g>
	<polygon class="st11" points="222,-54.9 213.8,-63.1 207.9,-57.3 202.1,-63.1 193.9,-54.9 199.8,-49.1 193.9,-43.3 202.1,-35.1 
		207.9,-40.9 213.8,-35.1 222,-43.3 216.1,-49.1 	"/>
	<g class="st2">
		<path class="st12" d="M229.3-34.5c-8,0-14.6-6.5-14.6-14.6s6.5-14.6,14.6-14.6c8,0,14.6,6.5,14.6,14.6S237.4-34.5,229.3-34.5z"/>
		<path class="st8" d="M229.3-62.7c7.5,0,13.6,6.1,13.6,13.6s-6.1,13.6-13.6,13.6s-13.6-6.1-13.6-13.6S221.8-62.7,229.3-62.7
			 M229.3-64.6c-8.6,0-15.5,7-15.5,15.5s7,15.5,15.5,15.5c8.6,0,15.5-7,15.5-15.5S237.9-64.6,229.3-64.6L229.3-64.6z"/>
	</g>
	<g class="st2">
		<g>
			<g>
				<g>
					<path class="st12" d="M171.9,136.1V152h15.8v-15.9H171.9z M185.5,145.6v4.4H174h-0.1v-12.1l0,0h5h2h4.4l0,0v7.7H185.5
						L185.5,145.6z"/>
					<path class="st12" d="M185.1,144.8c-0.9-0.3-1.2-0.5-1.9-1.2h1.9V142h-5.6l0.4-0.7h5.3v-1.4h-1.9c0.3-0.4,0.8-1.2,1.1-1.6h-2
						c0,0-0.6,1.1-1.1,1.6h-0.7c0.2-0.6,0.4-1,0.6-1.6h-2c-0.2,0.7-0.4,1-0.7,1.6h-0.3c-0.3-0.6-1-1.6-1-1.6h-2.1
						c0.5,0.6,1.1,1.4,1.2,1.6h-1.7v1.4h3.2l-0.4,0.7h-2.8v1.6h1.6c-0.7,0.7-0.9,1-1.6,1.3v2.5c0.5-0.4,1.1-1,1.4-1.3v1.6
						c0,1.2,0.7,1.9,2.1,1.9h4.5c0.6,0,1.4-0.3,1.8-0.8c0.2-0.3,0.5-1.1,0.5-1.1c-0.9-0.3-1.8-1.2-1.8-1.2c-0.1,1.4-1.4,1.6-2.3,1.6
						h-2.4c-0.4,0-0.6-0.2-0.6-0.6v-1.7h3v0.1c0,0.4-0.3,0.5-0.8,0.5c-0.4,0-1.5,0-1.5,0v1.2c0.2,0,1.1,0,1.3,0c1.4,0,2-0.1,2.3-0.4
						c0.3-0.3,0.4-0.9,0.4-1.9c0.6,0.6,1.7,1.4,2.5,1.8v-2.3L185.1,144.8L185.1,144.8z M177.8,144.4c0.3-0.2,0.5-0.5,0.7-0.8h2.7
						c0.2,0.3,0.4,0.5,0.6,0.8H177.8z"/>
				</g>
			</g>
			<g>
				<g>
					<path class="st12" d="M163.2,147c1.6,1.3,2.9,1.8,5.4,2.2v2.7c-2.6-0.5-5.5-1.8-7.4-3.4c-2,1.6-4.4,2.8-7.4,3.4v-2.6
						c2.2-0.4,3.9-1.2,5.4-2.3c-1.7-1.6-3.4-4.4-4.7-7.7h2.4c0.3,0.8,0.8,1.9,1.7,3.1c0.8,1.3,1.7,2.4,2.6,3.2
						c0.7-0.6,1.8-1.7,2.6-3.1c0.8-1.4,1.6-2.7,1.8-4h-11.7v-2.1h14.6c0,0-0.1,0.9-0.4,2.1c-0.4,1.4-1,3.3-1.8,4.6
						C165.1,144.9,164.2,146.1,163.2,147z"/>
					<path class="st12" d="M161.2,143.3c-0.8-1.1-1.8-2.2-2.8-3.2l1.9-1.1c0.9,0.7,1.8,1.7,2.8,2.8L161.2,143.3z"/>
				</g>
			</g>
		</g>
		<g>
			<g>
				<path class="st12" d="M52.3,144.7c-0.1-1.9-0.1-2.7-0.1-3.3v-5.6h4.5l-0.1,16.3h-3.8l-6.5-8.8l0.1,3.5v5.2h-4.5l0.1-16.2h3.8
					L52.3,144.7z"/>
				<path class="st12" d="M68.6,152.6c-5.2,0-8.8-3.1-8.7-8.6c0-5.3,3.6-8.5,8.8-8.5s8.8,3.1,8.7,8.6
					C77.4,149.5,73.8,152.6,68.6,152.6z M68.6,139.5c-2.5,0-4.3,1.9-4.3,4.6c0,2.7,1.8,4.6,4.3,4.6c2.6,0,4.3-1.9,4.3-4.6
					C72.9,141.3,71.2,139.5,68.6,139.5z"/>
				<path class="st12" d="M91,144.9c-0.1-1.9-0.1-2.7-0.1-3.3V136h4.5l-0.1,16.2h-3.8l-6.5-8.8l0.1,3.6v5.2h-4.5l0.1-16.2h3.8
					L91,144.9z"/>
				<path class="st12" d="M106,141.5l1.5-2.9l1.5-2.4h4.8v0.3l-5,7.8l5.3,8v0.2h-4.8l-1.5-2.3l-1.7-3l-1.8,3.1l-1.5,2.2H98v-0.2
					l5.3-8l-4.9-7.8v-0.3h4.8l1.5,2.5L106,141.5z"/>
				<path class="st12" d="M123.7,152.8c-5.2,0-8.8-3.1-8.7-8.6c0-5.3,3.6-8.5,8.8-8.5c5.2,0,8.8,3.1,8.7,8.6
					C132.5,149.8,128.9,152.8,123.7,152.8z M123.8,139.7c-2.5,0-4.3,1.9-4.3,4.6c0,2.7,1.8,4.6,4.3,4.6c2.6,0,4.3-1.9,4.3-4.6
					C128.1,141.5,126.4,139.7,123.8,139.7z"/>
				<path class="st12" d="M58.5,174.4h-3.6l-2.8-7.8l-2.7,7.8h-3.6L40,158.2h4.9l2,5.7c0.4,1.2,0.6,2.6,0.8,3.8l2.9-9.5h3.1l3,9.5
					c0.2-1.2,0.5-2.5,0.9-3.9l1.9-5.6h4.9L58.5,174.4z"/>
				<path class="st12" d="M74.1,174.9c-5.2,0-8.8-3.1-8.7-8.6c0-5.3,3.6-8.5,8.8-8.5c5.2,0,8.8,3.1,8.7,8.6
					C82.9,171.9,79.3,174.9,74.1,174.9z M74.2,161.8c-2.5,0-4.3,1.9-4.3,4.6c0,2.7,1.8,4.6,4.3,4.6c2.6,0,4.3-1.9,4.3-4.6
					C78.5,163.6,76.8,161.8,74.2,161.8z"/>
				<path class="st12" d="M100.7,174.6h-4.9l-3.7-5.3h-1.6v5.3H86l0.1-16.2h7.7c4,0,6.1,2.7,6.1,5.6c0,2-0.7,3.7-3.4,4.9l4.1,5.5
					L100.7,174.6z M90.6,162v3.9h3.3c1.2,0,1.7-0.9,1.7-1.9s-0.6-2-1.7-2H90.6z"/>
				<path class="st12" d="M117.6,158.7l-6.4,7.7c2.2,2.5,4.7,5.5,6.9,8v0.3h-5.5l-4.5-5.4v5.4h-4.5l0.1-16.2h4.5v5.3
					c1.4-1.7,2.8-3.6,4.2-5.3h5.3L117.6,158.7z"/>
				<path class="st12" d="M129.7,163c-1.1-0.8-2.3-1.1-3.7-1.1c-1.1,0-2.1,0.3-2.1,1.2c0,1.1,1.1,1.3,2.6,1.4
					c3.1,0.4,6.4,1.7,6.4,5.4s-3.4,5.3-6.9,5.3c-2.8,0-4.9-0.5-7-2.9l2.5-2.9c1.5,1.6,3.3,1.8,4.6,1.9c1.5,0,2.5-0.5,2.5-1.4
					c0-0.8-0.9-1.3-2.6-1.5c-3.4-0.3-6.4-1.3-6.4-5.3c0-3.4,3.3-4.9,6.6-4.9c2.4,0,4.2,0.6,5.9,2L129.7,163z"/>
				<path class="st12" d="M146,174.8v-6.1h-5.7v6.1h-4.5l0.1-16.2h4.5v6.2h5.7v-6.2h4.4l-0.1,16.2H146z"/>
				<path class="st12" d="M162.4,175.3c-5.2,0-8.8-3.1-8.7-8.6c0-5.3,3.6-8.5,8.8-8.5c5.2,0,8.8,3.1,8.7,8.6
					C171.2,172.2,167.6,175.3,162.4,175.3z M162.4,162.2c-2.5,0-4.3,1.9-4.3,4.6c0,2.7,1.8,4.6,4.3,4.6c2.6,0,4.3-1.9,4.3-4.6
					C166.7,164,165.1,162.2,162.4,162.2z"/>
				<path class="st12" d="M178.8,170.6v4.4h-4.5l0.1-16.2h7.7c4.2,0,6.3,2.8,6.3,5.9c0,3.3-2.1,5.9-6.4,5.9L178.8,170.6z
					 M178.9,166.7h3.2c1.2,0,1.9-0.9,1.9-2s-0.6-2-1.9-2h-3.2V166.7z"/>
			</g>
		</g>
	</g>
	<g class="st2">
		<g>
			<g>
				<path class="st8" d="M347.6,51.9v15.9h15.8V51.9H347.6z M361.2,61.4v4.4h-11.5h-0.1V53.7l0,0h5h2h4.4l0,0v7.7H361.2z"/>
				<path class="st8" d="M360.8,60.6c-0.9-0.3-1.2-0.5-1.9-1.2h1.9v-1.6h-5.6l0.4-0.7h5.3v-1.4H359c0.3-0.4,0.8-1.2,1.1-1.6h-2
					c0,0-0.6,1.1-1.1,1.6h-0.7c0.2-0.6,0.4-1,0.6-1.6h-2c-0.2,0.7-0.4,1-0.7,1.6h-0.3c-0.3-0.6-1-1.6-1-1.6h-2.1
					c0.5,0.6,1.1,1.4,1.2,1.6h-1.7v1.4h3.2l-0.4,0.7h-2.8v1.6h1.6c-0.7,0.7-0.9,1-1.6,1.3v2.5c0.5-0.4,1.1-1,1.4-1.3v1.6
					c0,1.2,0.7,1.9,2.1,1.9h4.5c0.6,0,1.4-0.3,1.8-0.8c0.2-0.3,0.5-1.1,0.5-1.1c-0.9-0.3-1.8-1.2-1.8-1.2c-0.1,1.4-1.4,1.6-2.3,1.6
					h-2.4c-0.4,0-0.6-0.2-0.6-0.6v-1.7h3v0.1c0,0.4-0.3,0.5-0.8,0.5c-0.4,0-1.5,0-1.5,0v1.2c0.2,0,1.1,0,1.3,0c1.4,0,2-0.1,2.3-0.4
					s0.4-0.9,0.4-1.9c0.6,0.6,1.7,1.4,2.5,1.8L360.8,60.6L360.8,60.6z M353.5,60.2c0.3-0.2,0.5-0.5,0.7-0.8h2.7
					c0.2,0.3,0.4,0.5,0.6,0.8H353.5z"/>
			</g>
		</g>
		<g>
			<g>
				<path class="st8" d="M338.9,62.8c1.6,1.3,2.9,1.8,5.4,2.2v2.7c-2.6-0.5-5.5-1.8-7.4-3.4c-2,1.6-4.4,2.8-7.4,3.4v-2.6
					c2.2-0.4,3.9-1.2,5.4-2.3c-1.7-1.6-3.4-4.4-4.7-7.7h2.4c0.3,0.8,0.8,1.9,1.7,3.1c0.8,1.3,1.7,2.4,2.6,3.2
					c0.7-0.6,1.8-1.7,2.6-3.1c0.8-1.4,1.6-2.7,1.8-4h-11.7v-2.1h14.6c0,0-0.1,0.9-0.4,2.1c-0.4,1.4-1,3.3-1.8,4.6
					C340.8,60.7,339.9,61.9,338.9,62.8z"/>
				<path class="st8" d="M336.9,59.1c-0.8-1.1-1.8-2.2-2.8-3.2l1.9-1.1c0.9,0.7,1.8,1.7,2.8,2.8L336.9,59.1z"/>
			</g>
		</g>
	</g>
	<g class="st2">
		<g>
			<path class="st8" d="M228,60.5c-0.1-1.9-0.1-2.7-0.1-3.3v-5.6h4.5l-0.1,16.3h-3.8l-6.5-8.8l0.1,3.5v5.2h-4.5l0.1-16.2h3.8
				L228,60.5z"/>
			<path class="st8" d="M244.3,68.4c-5.2,0-8.8-3.1-8.7-8.6c0-5.3,3.6-8.5,8.8-8.5s8.8,3.1,8.7,8.6
				C253.1,65.3,249.5,68.4,244.3,68.4z M244.3,55.3c-2.5,0-4.3,1.9-4.3,4.6s1.8,4.6,4.3,4.6c2.6,0,4.3-1.9,4.3-4.6
				C248.6,57.1,246.9,55.3,244.3,55.3z"/>
			<path class="st8" d="M266.7,60.7c-0.1-1.9-0.1-2.7-0.1-3.3v-5.6h4.5L271,68h-3.8l-6.5-8.8l0.1,3.6V68h-4.5l0.1-16.2h3.8
				L266.7,60.7z"/>
			<path class="st8" d="M281.7,57.3l1.5-2.9l1.5-2.4h4.8v0.3l-5,7.8l5.3,8v0.2H285l-1.5-2.3l-1.7-3l-1.8,3.1l-1.5,2.2h-4.8v-0.2
				l5.3-8l-4.9-7.8V52h4.8l1.5,2.5L281.7,57.3z"/>
			<path class="st8" d="M299.4,68.6c-5.2,0-8.8-3.1-8.7-8.6c0-5.3,3.6-8.5,8.8-8.5c5.2,0,8.8,3.1,8.7,8.6
				C308.2,65.6,304.6,68.6,299.4,68.6z M299.5,55.5c-2.5,0-4.3,1.9-4.3,4.6c0,2.7,1.8,4.6,4.3,4.6c2.6,0,4.3-1.9,4.3-4.6
				C303.8,57.3,302.1,55.5,299.5,55.5z"/>
			<path class="st8" d="M234.2,90.2h-3.6l-2.8-7.8l-2.7,7.8h-3.6L215.7,74h4.9l2,5.7c0.4,1.2,0.6,2.6,0.8,3.8l2.9-9.5h3.1l3,9.5
				c0.2-1.2,0.5-2.5,0.9-3.9l1.9-5.6h4.9L234.2,90.2z"/>
			<path class="st8" d="M249.8,90.7c-5.2,0-8.8-3.1-8.7-8.6c0-5.3,3.6-8.5,8.8-8.5s8.8,3.1,8.7,8.6C258.6,87.7,255,90.7,249.8,90.7z
				 M249.9,77.6c-2.5,0-4.3,1.9-4.3,4.6s1.8,4.6,4.3,4.6c2.6,0,4.3-1.9,4.3-4.6C254.2,79.4,252.5,77.6,249.9,77.6z"/>
			<path class="st8" d="M276.4,90.4h-4.9l-3.7-5.3h-1.6v5.3h-4.5l0.1-16.2h7.7c4,0,6.1,2.7,6.1,5.6c0,2-0.7,3.7-3.4,4.9l4.1,5.5
				L276.4,90.4z M266.3,77.8v3.9h3.3c1.2,0,1.7-0.9,1.7-1.9s-0.6-2-1.7-2H266.3z"/>
			<path class="st8" d="M293.3,74.5l-6.4,7.7c2.2,2.5,4.7,5.5,6.9,8v0.3h-5.5l-4.5-5.4v5.4h-4.5l0.1-16.2h4.5v5.3
				c1.4-1.7,2.8-3.6,4.2-5.3h5.3L293.3,74.5z"/>
			<path class="st8" d="M305.4,78.8c-1.1-0.8-2.3-1.1-3.7-1.1c-1.1,0-2.1,0.3-2.1,1.2c0,1.1,1.1,1.3,2.6,1.4
				c3.1,0.4,6.4,1.7,6.4,5.4s-3.4,5.3-6.9,5.3c-2.8,0-4.9-0.5-7-2.9l2.5-2.9c1.5,1.6,3.3,1.8,4.6,1.9c1.5,0,2.5-0.5,2.5-1.4
				c0-0.8-0.9-1.3-2.6-1.5c-3.4-0.3-6.4-1.3-6.4-5.3c0-3.4,3.3-4.9,6.6-4.9c2.4,0,4.2,0.6,5.9,2L305.4,78.8z"/>
			<path class="st8" d="M321.7,90.6v-6.1H316v6.1h-4.5l0.1-16.2h4.5v6.2h5.7v-6.2h4.4l-0.1,16.2H321.7z"/>
			<path class="st8" d="M338.1,91.1c-5.2,0-8.8-3.1-8.7-8.6c0-5.3,3.6-8.5,8.8-8.5c5.2,0,8.8,3.1,8.7,8.6
				C346.9,88,343.3,91.1,338.1,91.1z M338.1,78c-2.5,0-4.3,1.9-4.3,4.6s1.8,4.6,4.3,4.6c2.6,0,4.3-1.9,4.3-4.6
				C342.4,79.8,340.8,78,338.1,78z"/>
			<path class="st8" d="M354.5,86.4v4.4H350l0.1-16.2h7.7c4.2,0,6.3,2.8,6.3,5.9c0,3.3-2.1,5.9-6.4,5.9
				C357.7,86.4,354.5,86.4,354.5,86.4z M354.6,82.5h3.2c1.2,0,1.9-0.9,1.9-2s-0.6-2-1.9-2h-3.2V82.5z"/>
		</g>
	</g>
	<circle class="st13" cx="421.7" cy="23.4" r="34.7"/>
	<line class="st13" x1="369.8" y1="-30.6" x2="428.1" y2="27.8"/>
	<line class="st13" x1="428.1" y1="-30.6" x2="369.8" y2="27.8"/>
	<circle class="st7" cx="399.4" cy="-1.4" r="6.5"/>
	<g class="st2">
		<g>
			<g>
				<path d="M261,129.9v11.5h11.5v-11.5C272.5,129.9,261,129.9,261,129.9z M270.9,136.8v3.2h-8.3h-0.1v-8.8l0,0h3.6h1.5h3.2l0,0
					L270.9,136.8L270.9,136.8z"/>
				<path d="M270.7,136.2c-0.6-0.2-0.9-0.4-1.3-0.8h1.3v-1.2h-4.1l0.3-0.5h3.8v-1.1h-1.4c0.2-0.3,0.6-0.8,0.8-1.2h-1.5
					c0,0-0.4,0.8-0.8,1.2h-0.5c0.2-0.4,0.3-0.7,0.4-1.2h-1.5c-0.1,0.5-0.3,0.7-0.4,1.2h-0.2c-0.2-0.4-0.7-1.2-0.7-1.2h-1.5
					c0.4,0.4,0.8,1,0.8,1.2H263v1.1h2.3l-0.3,0.5h-2v1.2h1.1c-0.5,0.5-0.7,0.7-1.1,0.9v1.8c0.4-0.3,0.8-0.7,1-0.9v1.1
					c0,0.9,0.6,1.4,1.5,1.4h3.3c0.4,0,1-0.2,1.3-0.6c0.2-0.2,0.3-0.8,0.3-0.8c-0.7-0.2-1.3-0.9-1.3-0.9c0,1-1,1.2-1.6,1.2h-1.7
					c-0.3,0-0.4-0.1-0.4-0.4v-1.3h2.2v0.1c0,0.3-0.2,0.3-0.6,0.3c-0.3,0-1.1,0-1.1,0v0.9c0.1,0,0.8,0,1,0c1,0,1.4-0.1,1.7-0.3
					c0.2-0.2,0.3-0.6,0.3-1.4c0.4,0.4,1.2,1,1.8,1.3V136.2L270.7,136.2z M265.3,135.9c0.2-0.2,0.4-0.4,0.5-0.6h2
					c0.1,0.2,0.3,0.4,0.4,0.6H265.3z"/>
			</g>
			<g>
				<path d="M268.4,123.8c1.2,0.9,2.1,1.3,3.9,1.6v2c-1.9-0.4-4-1.3-5.3-2.5c-1.5,1.1-3.2,2.1-5.4,2.5v-1.9c1.6-0.3,2.9-0.9,3.9-1.6
					c-1.2-1.2-2.5-3.2-3.4-5.6l1.7-0.1c0.2,0.6,0.6,1.3,1.2,2.2c0.6,0.9,1.2,1.7,1.8,2.3c0.5-0.4,1.3-1.2,1.9-2.2s1.1-2,1.3-2.9
					h-8.5v-1.5h10.7c0,0-0.1,0.7-0.3,1.6c-0.3,1-0.7,2.4-1.3,3.3C269.8,122.3,269.1,123.2,268.4,123.8z"/>
				<path d="M267,121.1c-0.6-0.8-1.3-1.6-2-2.3l1.3-0.8c0.7,0.5,1.3,1.2,2,2.1L267,121.1z"/>
			</g>
		</g>
	</g>
	<path class="st14" d="M261.7,116.8h9.5c0,0-0.5,4.3-3.9,7c-3.3,2.6-5.5,2.7-5.5,2.7"/>
	<path class="st14" d="M263.1,118.3c0,0,0.9,3.6,3.9,5.7c2.9,2.2,5.3,2.4,5.3,2.4"/>
	<rect x="261.7" y="130.6" class="st14" width="10.1" height="10.1"/>
	<line class="st14" x1="262.9" y1="133.1" x2="270.7" y2="133.1"/>
	<line class="st14" x1="262.9" y1="134.7" x2="270.7" y2="134.7"/>
	<line class="st14" x1="264.1" y1="131.4" x2="265.1" y2="133.1"/>
	<line class="st14" x1="269.3" y1="131.4" x2="268.4" y2="133.1"/>
	<path class="st14" d="M266.9,131.4c0,0-0.7,2.4-1.5,3.3c-0.9,1-2.4,2.4-2.4,2.4"/>
	<polyline class="st14" points="265.9,137.7 268.1,137.7 268.1,136.3 264.6,136.3 264.6,139.1 268.7,139.1 269.8,138 	"/>
	<path class="st14" d="M268.4,134.7c0,0,0.7,1.3,1.3,1.8s0.8,0.5,0.8,0.5"/>
	<path class="st14" d="M265.6,118.5c0,0,1.6,1.5,2,2.2"/>
	<path class="st15" d="M284.2,210.4h31.3c0,0-1.6,14.2-13,23.2c-10.8,8.6-18.3,9-18.3,9"/>
	<path class="st15" d="M289,215.1c0,0,3.1,11.8,12.8,19c9.7,7.2,17.7,8,17.7,8"/>
	<rect x="284.2" y="255.9" class="st15" width="33.3" height="33.3"/>
	<line class="st15" x1="288.3" y1="264.1" x2="313.9" y2="264.1"/>
	<line class="st15" x1="288.3" y1="269.6" x2="313.9" y2="269.6"/>
	<line class="st15" x1="292.3" y1="258.6" x2="295.4" y2="264.1"/>
	<line class="st15" x1="309.5" y1="258.6" x2="306.5" y2="264.1"/>
	<path class="st15" d="M301.4,258.6c0,0-2.2,7.8-5.1,10.9c-2.8,3.2-8,7.9-8,7.9"/>
	<polyline class="st15" points="298.2,279.4 305.4,279.4 305.4,274.8 293.8,274.8 293.8,284 309.5,284 311.1,280.3 	"/>
	<polyline class="st15" points="306.3,269.6 309.5,277.1 313.4,277.1 	"/>
	<path class="st15" d="M297.1,215.9c0,0,5.3,5,6.6,7.3"/>
	<g class="st2">
		<g>
			<g>
				<path class="st12" d="M228.9,302.7v15.9h15.8v-15.9H228.9z M242.5,312.2v4.4H231h-0.1v-12.1l0,0h5h2h4.4l0,0v7.7H242.5z"/>
				<path class="st12" d="M242.1,311.4c-0.9-0.3-1.2-0.5-1.9-1.2h1.9v-1.6h-5.6l0.4-0.7h5.3v-1.4h-1.9c0.3-0.4,0.8-1.2,1.1-1.6h-2
					c0,0-0.6,1.1-1.1,1.6h-0.7c0.2-0.6,0.4-1,0.6-1.6h-2c-0.2,0.7-0.4,1-0.7,1.6h-0.3c-0.3-0.6-1-1.6-1-1.6h-2.1
					c0.5,0.6,1.1,1.4,1.2,1.6h-1.7v1.4h3.2l-0.4,0.7h-2.8v1.6h1.6c-0.7,0.7-0.9,1-1.6,1.3v2.5c0.5-0.4,1.1-1,1.4-1.3v1.6
					c0,1.2,0.7,1.9,2.1,1.9h4.5c0.6,0,1.4-0.3,1.8-0.8c0.2-0.3,0.5-1.1,0.5-1.1c-0.9-0.3-1.8-1.2-1.8-1.2c-0.1,1.4-1.4,1.6-2.3,1.6
					h-2.4c-0.4,0-0.6-0.2-0.6-0.6v-1.7h3v0.1c0,0.4-0.3,0.5-0.8,0.5c-0.4,0-1.5,0-1.5,0v1.2c0.2,0,1.1,0,1.3,0c1.4,0,2-0.1,2.3-0.4
					s0.4-0.9,0.4-1.9c0.6,0.6,1.7,1.4,2.5,1.8v-2.3L242.1,311.4L242.1,311.4z M234.8,311c0.3-0.2,0.5-0.5,0.7-0.8h2.7
					c0.2,0.3,0.4,0.5,0.6,0.8H234.8z"/>
			</g>
		</g>
		<g>
			<g>
				<path class="st12" d="M220.2,313.6c1.6,1.3,2.9,1.8,5.4,2.2v2.7c-2.6-0.5-5.5-1.8-7.4-3.4c-2,1.6-4.4,2.8-7.4,3.4v-2.6
					c2.2-0.4,3.9-1.2,5.4-2.3c-1.7-1.6-3.4-4.4-4.7-7.7h2.4c0.3,0.8,0.8,1.9,1.7,3.1c0.8,1.3,1.7,2.4,2.6,3.2
					c0.7-0.6,1.8-1.7,2.6-3.1s1.6-2.7,1.8-4h-11.7V303h14.6c0,0-0.1,0.9-0.4,2.1c-0.4,1.4-1,3.3-1.8,4.6
					C222.1,311.5,221.2,312.7,220.2,313.6z"/>
				<path class="st12" d="M218.2,309.9c-0.8-1.1-1.8-2.2-2.8-3.2l1.9-1.1c0.9,0.7,1.8,1.7,2.8,2.8L218.2,309.9z"/>
			</g>
		</g>
	</g>
	<g class="st2">
		<g>
			<path class="st12" d="M109.3,311.3c-0.1-1.9-0.1-2.7-0.1-3.3v-5.6h4.5l-0.1,16.3h-3.8l-6.5-8.8l0.1,3.5v5.2h-4.5l0.1-16.2h3.8
				L109.3,311.3z"/>
			<path class="st12" d="M125.6,319.2c-5.2,0-8.8-3.1-8.7-8.6c0-5.3,3.6-8.5,8.8-8.5s8.8,3.1,8.7,8.6
				C134.4,316.1,130.8,319.2,125.6,319.2z M125.6,306.1c-2.5,0-4.3,1.9-4.3,4.6s1.8,4.6,4.3,4.6c2.6,0,4.3-1.9,4.3-4.6
				C129.9,307.9,128.2,306.1,125.6,306.1z"/>
			<path class="st12" d="M148,311.5c-0.1-1.9-0.1-2.7-0.1-3.3v-5.6h4.5l-0.1,16.2h-3.8L142,310l0.1,3.6v5.2h-4.5l0.1-16.2h3.8
				L148,311.5z"/>
			<path class="st12" d="M163,308.1l1.5-2.9l1.5-2.4h4.8v0.3l-5,7.8l5.3,8v0.2h-4.8l-1.5-2.3l-1.7-3l-1.8,3.1l-1.5,2.2H155v-0.2
				l5.3-8l-4.9-7.8v-0.3h4.8l1.5,2.5L163,308.1z"/>
			<path class="st12" d="M180.7,319.4c-5.2,0-8.8-3.1-8.7-8.6c0-5.3,3.6-8.5,8.8-8.5s8.8,3.1,8.7,8.6
				C189.5,316.4,185.9,319.4,180.7,319.4z M180.8,306.3c-2.5,0-4.3,1.9-4.3,4.6s1.8,4.6,4.3,4.6c2.6,0,4.3-1.9,4.3-4.6
				C185.1,308.1,183.4,306.3,180.8,306.3z"/>
			<path class="st12" d="M115.5,341h-3.6l-2.8-7.8l-2.7,7.8h-3.6L97,324.8h4.9l2,5.7c0.4,1.2,0.6,2.6,0.8,3.8l2.9-9.5h3.1l3,9.5
				c0.2-1.2,0.5-2.5,0.9-3.9l1.9-5.6h4.9L115.5,341z"/>
			<path class="st12" d="M131.1,341.5c-5.2,0-8.8-3.1-8.7-8.6c0-5.3,3.6-8.5,8.8-8.5c5.2,0,8.8,3.1,8.7,8.6
				C139.9,338.5,136.3,341.5,131.1,341.5z M131.2,328.4c-2.5,0-4.3,1.9-4.3,4.6s1.8,4.6,4.3,4.6c2.6,0,4.3-1.9,4.3-4.6
				C135.5,330.2,133.8,328.4,131.2,328.4z"/>
			<path class="st12" d="M157.7,341.2h-4.9l-3.7-5.3h-1.6v5.3H143l0.1-16.2h7.7c4,0,6.1,2.7,6.1,5.6c0,2-0.7,3.7-3.4,4.9l4.1,5.5
				L157.7,341.2z M147.6,328.6v3.9h3.3c1.2,0,1.7-0.9,1.7-1.9s-0.6-2-1.7-2H147.6z"/>
			<path class="st12" d="M174.6,325.3l-6.4,7.7c2.2,2.5,4.7,5.5,6.9,8v0.3h-5.5l-4.5-5.4v5.4h-4.5l0.1-16.2h4.5v5.3
				c1.4-1.7,2.8-3.6,4.2-5.3h5.3L174.6,325.3z"/>
			<path class="st12" d="M186.7,329.6c-1.1-0.8-2.3-1.1-3.7-1.1c-1.1,0-2.1,0.3-2.1,1.2c0,1.1,1.1,1.3,2.6,1.4
				c3.1,0.4,6.4,1.7,6.4,5.4c0,3.7-3.4,5.3-6.9,5.3c-2.8,0-4.9-0.5-7-2.9l2.5-2.9c1.5,1.6,3.3,1.8,4.6,1.9c1.5,0,2.5-0.5,2.5-1.4
				c0-0.8-0.9-1.3-2.6-1.5c-3.4-0.3-6.4-1.3-6.4-5.3c0-3.4,3.3-4.9,6.6-4.9c2.4,0,4.2,0.6,5.9,2L186.7,329.6z"/>
			<path class="st12" d="M203,341.4v-6.1h-5.7v6.1h-4.5l0.1-16.2h4.5v6.2h5.7v-6.2h4.4l-0.1,16.2H203z"/>
			<path class="st12" d="M219.4,341.9c-5.2,0-8.8-3.1-8.7-8.6c0-5.3,3.6-8.5,8.8-8.5s8.8,3.1,8.7,8.6
				C228.2,338.8,224.6,341.9,219.4,341.9z M219.4,328.8c-2.5,0-4.3,1.9-4.3,4.6s1.8,4.6,4.3,4.6c2.6,0,4.3-1.9,4.3-4.6
				C223.7,330.6,222.1,328.8,219.4,328.8z"/>
			<path class="st12" d="M235.8,337.2v4.4h-4.5l0.1-16.2h7.7c4.2,0,6.3,2.8,6.3,5.9c0,3.3-2.1,5.9-6.4,5.9L235.8,337.2L235.8,337.2z
				 M235.9,333.3h3.2c1.2,0,1.9-0.9,1.9-2s-0.6-2-1.9-2h-3.2V333.3z"/>
		</g>
	</g>
	<g class="st2">
		<g>
			<g>
				<path class="st12" d="M387.2-28.2v15.9H403v-15.9H387.2z M400.8-18.7v4.4h-11.5h-0.1v-12.1l0,0h5h2h4.4l0,0v7.7H400.8z"/>
				<path class="st12" d="M400.4-19.5c-0.9-0.3-1.2-0.5-1.9-1.2h1.9v-1.6h-5.6l0.4-0.7h5.3v-1.4h-1.9c0.3-0.4,0.8-1.2,1.1-1.6h-2
					c0,0-0.6,1.1-1.1,1.6h-0.7c0.2-0.6,0.4-1,0.6-1.6h-2c-0.2,0.7-0.4,1-0.7,1.6h-0.3c-0.3-0.6-1-1.6-1-1.6h-2.1
					c0.5,0.6,1.1,1.4,1.2,1.6h-1.7v1.4h3.2l-0.4,0.7h-2.8v1.6h1.6c-0.7,0.7-0.9,1-1.6,1.3v2.5c0.5-0.4,1.1-1,1.4-1.3v1.6
					c0,1.2,0.7,1.9,2.1,1.9h4.5c0.6,0,1.4-0.3,1.8-0.8c0.2-0.3,0.5-1.1,0.5-1.1c-0.9-0.3-1.8-1.2-1.8-1.2c-0.1,1.4-1.4,1.6-2.3,1.6
					h-2.4c-0.4,0-0.6-0.2-0.6-0.6v-1.7h3v0.1c0,0.4-0.3,0.5-0.8,0.5c-0.4,0-1.5,0-1.5,0v1.2c0.2,0,1.1,0,1.3,0c1.4,0,2-0.1,2.3-0.4
					s0.4-0.9,0.4-1.9c0.6,0.6,1.7,1.4,2.5,1.8L400.4-19.5L400.4-19.5z M393.1-19.9c0.3-0.2,0.5-0.5,0.7-0.8h2.7
					c0.2,0.3,0.4,0.5,0.6,0.8H393.1z"/>
			</g>
		</g>
		<g>
			<g>
				<path class="st12" d="M378.5-17.3c1.6,1.3,2.9,1.8,5.4,2.2v2.7c-2.6-0.5-5.5-1.8-7.4-3.4c-2,1.6-4.4,2.8-7.4,3.4V-15
					c2.2-0.4,3.9-1.2,5.4-2.3c-1.7-1.6-3.4-4.4-4.7-7.7h2.4c0.3,0.8,0.8,1.9,1.7,3.1c0.8,1.3,1.7,2.4,2.6,3.2
					c0.7-0.6,1.8-1.7,2.6-3.1c0.8-1.4,1.6-2.7,1.8-4h-11.7v-2.1h14.6c0,0-0.1,0.9-0.4,2.1c-0.4,1.4-1,3.3-1.8,4.6
					C380.4-19.4,379.5-18.2,378.5-17.3z"/>
				<path class="st12" d="M376.5-21c-0.8-1.1-1.8-2.2-2.8-3.2l1.9-1.1c0.9,0.7,1.8,1.7,2.8,2.8L376.5-21z"/>
			</g>
		</g>
	</g>
	<g class="st2">
		<g>
			<path class="st12" d="M267.6-19.6c-0.1-1.9-0.1-2.7-0.1-3.3v-5.6h4.5l-0.1,16.3h-3.8l-6.5-8.8l0.1,3.5v5.2h-4.5l0.1-16.2h3.8
				L267.6-19.6z"/>
			<path class="st12" d="M283.9-11.7c-5.2,0-8.8-3.1-8.7-8.6c0-5.3,3.6-8.5,8.8-8.5c5.2,0,8.8,3.1,8.7,8.6
				C292.7-14.8,289.1-11.7,283.9-11.7z M283.9-24.8c-2.5,0-4.3,1.9-4.3,4.6s1.8,4.6,4.3,4.6c2.6,0,4.3-1.9,4.3-4.6
				C288.2-23,286.5-24.8,283.9-24.8z"/>
			<path class="st12" d="M306.3-19.4c-0.1-1.9-0.1-2.7-0.1-3.3v-5.6h4.5l-0.1,16.2h-3.8l-6.5-8.8l0.1,3.6v5.2h-4.5l0.1-16.2h3.8
				L306.3-19.4z"/>
			<path class="st12" d="M321.3-22.8l1.5-2.9l1.5-2.4h4.8v0.3l-5,7.8l5.3,8v0.2h-4.8l-1.5-2.3l-1.7-3l-1.8,3.1l-1.5,2.2h-4.8V-12
				l5.3-8l-4.9-7.8v-0.3h4.8l1.5,2.5L321.3-22.8z"/>
			<path class="st12" d="M339-11.5c-5.2,0-8.8-3.1-8.7-8.6c0-5.3,3.6-8.5,8.8-8.5c5.2,0,8.8,3.1,8.7,8.6
				C347.8-14.5,344.2-11.5,339-11.5z M339.1-24.6c-2.5,0-4.3,1.9-4.3,4.6s1.8,4.6,4.3,4.6c2.6,0,4.3-1.9,4.3-4.6
				C343.4-22.8,341.7-24.6,339.1-24.6z"/>
			<path class="st12" d="M273.8,10.1h-3.6l-2.8-7.8l-2.7,7.8h-3.6l-5.8-16.2h4.9l2,5.7c0.4,1.2,0.6,2.6,0.8,3.8l2.9-9.5h3.1l3,9.5
				c0.2-1.2,0.5-2.5,0.9-3.9l1.9-5.6h4.9L273.8,10.1z"/>
			<path class="st12" d="M289.4,10.6c-5.2,0-8.8-3.1-8.7-8.6c0-5.3,3.6-8.5,8.8-8.5c5.2,0,8.8,3.1,8.7,8.6
				C298.2,7.6,294.6,10.6,289.4,10.6z M289.5-2.5c-2.5,0-4.3,1.9-4.3,4.6s1.8,4.6,4.3,4.6c2.6,0,4.3-1.9,4.3-4.6
				C293.8-0.7,292.1-2.5,289.5-2.5z"/>
			<path class="st12" d="M316,10.3h-4.9L307.4,5h-1.6v5.3h-4.5l0.1-16.2h7.7c4,0,6.1,2.7,6.1,5.6c0,2-0.7,3.7-3.4,4.9l4.1,5.5
				L316,10.3z M305.9-2.3v3.9h3.3c1.2,0,1.7-0.9,1.7-1.9s-0.6-2-1.7-2C309.2-2.3,305.9-2.3,305.9-2.3z"/>
			<path class="st12" d="M332.9-5.6l-6.4,7.7c2.2,2.5,4.7,5.5,6.9,8v0.3h-5.5L323.4,5v5.4h-4.5L319-5.8h4.5v5.3
				c1.4-1.7,2.8-3.6,4.2-5.3h5.3L332.9-5.6z"/>
			<path class="st12" d="M345-1.3c-1.1-0.8-2.3-1.1-3.7-1.1c-1.1,0-2.1,0.3-2.1,1.2c0,1.1,1.1,1.3,2.6,1.4c3.1,0.4,6.4,1.7,6.4,5.4
				s-3.4,5.3-6.9,5.3c-2.8,0-4.9-0.5-7-2.9l2.5-2.9c1.5,1.6,3.3,1.8,4.6,1.9c1.5,0,2.5-0.5,2.5-1.4c0-0.8-0.9-1.3-2.6-1.5
				c-3.4-0.3-6.4-1.3-6.4-5.3c0-3.4,3.3-4.9,6.6-4.9c2.4,0,4.2,0.6,5.9,2L345-1.3z"/>
			<path class="st12" d="M361.3,10.5V4.4h-5.7v6.1h-4.5l0.1-16.2h4.5v6.2h5.7v-6.2h4.4l-0.1,16.2H361.3z"/>
			<path class="st12" d="M377.7,11c-5.2,0-8.8-3.1-8.7-8.6c0-5.3,3.6-8.5,8.8-8.5c5.2,0,8.8,3.1,8.7,8.6
				C386.5,7.9,382.9,11,377.7,11z M377.7-2.1c-2.5,0-4.3,1.9-4.3,4.6s1.8,4.6,4.3,4.6c2.6,0,4.3-1.9,4.3-4.6
				C382-0.3,380.4-2.1,377.7-2.1z"/>
			<path class="st12" d="M394.1,6.3v4.4h-4.5l0.1-16.2h7.7c4.2,0,6.3,2.8,6.3,5.9c0,3.3-2.1,5.9-6.4,5.9L394.1,6.3L394.1,6.3z
				 M394.2,2.4h3.2c1.2,0,1.9-0.9,1.9-2s-0.6-2-1.9-2h-3.2V2.4z"/>
		</g>
	</g>
	<g class="st2">
		<path class="st12" d="M122,267.6c0,5.9,4.8,10.6,10.6,10.6c5.8,0,10.6-4.8,10.6-10.6c0-5.9-4.8-10.6-10.6-10.6
			C126.8,257,122,261.7,122,267.6z"/>
	</g>
	<g class="st2">
		<path class="st12" d="M97.6,267.6c0,5.9,4.8,10.6,10.6,10.6s10.6-4.8,10.6-10.6c0-5.9-4.8-10.6-10.6-10.6S97.6,261.7,97.6,267.6z"
			/>
	</g>
	<g class="st2">
		<path class="st12" d="M349.1,267.6c0,5.9,4.8,10.6,10.6,10.6c5.9,0,10.6-4.8,10.6-10.6c0-5.9-4.8-10.6-10.6-10.6
			S349.1,261.7,349.1,267.6z"/>
	</g>
	<g class="st2">
		<path class="st12" d="M324.7,267.6c0,5.9,4.8,10.6,10.6,10.6c5.9,0,10.6-4.8,10.6-10.6c0-5.9-4.8-10.6-10.6-10.6
			S324.7,261.7,324.7,267.6z"/>
	</g>
	<g class="st2">
		<path class="st12" d="M-139.5,58.3c-0.1-2.2-0.1-3.1-0.1-3.7v-6.4h5.1l-0.1,18.5h-4.3l-7.4-10l0.1,4v5.9h-5.1l0.1-18.4h4.3
			L-139.5,58.3z"/>
	</g>
	<g class="st2">
		<path class="st12" d="M-121,67.2c-5.9,0-10-3.5-9.9-9.8c0-6,4.1-9.7,10-9.7s10,3.5,9.9,9.8C-111,63.7-115.1,67.2-121,67.2z
			 M-121,52.4c-2.8,0-4.9,2.2-4.9,5.2c0,3.1,2,5.2,4.9,5.2c3,0,4.9-2.2,4.9-5.2C-116.1,54.4-118,52.4-121,52.4z"/>
	</g>
	<g class="st2">
		<path class="st12" d="M-95.6,58.5c-0.1-2.2-0.1-3.1-0.1-3.7v-6.4h5.1l-0.1,18.4H-95l-7.4-10l0.1,4.1v5.9h-5.1l0.1-18.4h4.3
			L-95.6,58.5z"/>
	</g>
	<g class="st2">
		<polygon class="st12" points="-72.6,54.4 -70.9,51.1 -69.2,48.4 -63.8,48.4 -63.8,48.8 -69.4,57.6 -63.4,66.7 -63.4,66.9 
			-68.9,66.9 -70.6,64.3 -72.5,60.9 -74.6,64.4 -76.3,66.9 -81.7,66.9 -81.7,66.7 -75.7,57.6 -81.3,48.8 -81.3,48.4 -75.8,48.4 
			-74.1,51.3 		"/>
	</g>
	<g class="st2">
		<path class="st12" d="M-52.5,67.3c-5.9,0-10-3.5-9.9-9.8c0-6,4.1-9.7,10-9.7s10,3.5,9.9,9.8C-42.5,63.9-46.6,67.3-52.5,67.3z
			 M-52.4,52.4c-2.8,0-4.9,2.2-4.9,5.2c0,3.1,2,5.2,4.9,5.2c3,0,4.9-2.2,4.9-5.2C-47.5,54.4-49.5,52.4-52.4,52.4z"/>
	</g>
	<g class="st2">
		<g>
			<g>
				<path d="M87.2,108.6v20.1h20v-20.1H87.2z M104.4,120.6v5.6H89.9h-0.1v-15.3l0,0h6.4h2.5h5.6l0,0L104.4,120.6L104.4,120.6z"/>
				<path d="M104,119.5c-1.1-0.4-1.6-0.7-2.4-1.5h2.4v-2h-7.2l0.5-0.9h6.7v-1.9h-2.4c0.4-0.5,1.1-1.5,1.3-2h-2.5c0,0-0.8,1.5-1.3,2
					h-0.9c0.3-0.8,0.5-1.2,0.7-2h-2.5c-0.1,0.9-0.5,1.3-0.8,2h-0.4c-0.3-0.8-1.3-2-1.3-2h-2.7c0.7,0.8,1.3,1.7,1.5,2h-2.1v1.9h4
					l-0.5,0.9h-3.5v2h2c-0.9,0.9-1.2,1.3-2,1.6v3.2c0.7-0.5,1.5-1.3,1.7-1.6v2c0,1.6,0.9,2.4,2.7,2.4h5.7c0.8,0,1.7-0.4,2.3-1.1
					c0.3-0.4,0.5-1.5,0.5-1.5c-1.2-0.4-2.4-1.6-2.4-1.6c0,1.7-1.6,2-2.7,2h-3.2c-0.5,0-0.8-0.1-0.8-0.7v-2.3h3.9v0.1
					c0,0.5-0.3,0.5-0.9,0.5c-0.5,0-1.9,0-1.9,0v1.6c0.1,0,1.5,0,1.6,0c1.7,0,2.4-0.1,2.9-0.5c0.4-0.4,0.5-1.1,0.5-2.4
					c0.7,0.8,2.1,1.7,3.2,2.3L104,119.5L104,119.5z M94.7,119c0.3-0.3,0.7-0.7,0.9-1.1h3.5c0.1,0.4,0.5,0.7,0.8,1.1H94.7z"/>
			</g>
			<g>
				<path d="M76.5,122.1c2,1.6,3.7,2.4,6.8,2.8v3.5c-3.3-0.7-6.9-2.4-9.2-4.3c-2.5,2-5.6,3.6-9.3,4.3v-3.3c2.7-0.5,4.9-1.6,6.8-2.8
					c-2.1-2-4.3-5.6-6-9.7l3.1-0.1c0.4,1.1,1.1,2.4,2.1,3.9c0.9,1.6,2.1,3.1,3.2,4c0.9-0.8,2.3-2.1,3.3-3.9c1.1-1.7,2-3.5,2.3-4.9
					H64.8v-2.7h18.4c0,0-0.1,1.2-0.5,2.7c-0.5,1.7-1.3,4.1-2.4,5.7C78.9,119.4,77.6,121,76.5,122.1z"/>
				<path d="M74,117.4c-1.1-1.3-2.3-2.7-3.5-4l2.4-1.3c1.2,0.9,2.4,2.1,3.5,3.6L74,117.4z"/>
			</g>
		</g>
	</g>
	<g class="st2">
		<path d="M60.5,62.3v8.2h8.2v-8.2H60.5z M67.5,67.2v2.3h-5.9h-0.1v-6.3l0,0h2.6h1.1h2.3l0,0V67.2L67.5,67.2z"/>
		<path d="M67.3,66.8c-0.4-0.2-0.7-0.3-1-0.6h1v-0.8h-3l0.2-0.4h2.7v-0.8h-1c0.2-0.2,0.4-0.6,0.6-0.8h-1.1c0,0-0.3,0.6-0.6,0.8h-0.4
			c0.1-0.3,0.2-0.5,0.3-0.8h-1.1c-0.1,0.4-0.2,0.6-0.3,0.8h-0.2c-0.1-0.3-0.6-0.8-0.6-0.8h-1.1c0.3,0.3,0.6,0.7,0.6,0.8h-0.9V65h1.7
			l0.1,0.4h-1.4v0.8h0.8c-0.4,0.4-0.5,0.6-0.8,0.7v1.3c0.3-0.2,0.6-0.6,0.7-0.7v0.8c0,0.7,0.4,1,1.1,1H66c0.3,0,0.7-0.2,0.9-0.4
			c0.1-0.2,0.2-0.6,0.2-0.6c-0.5-0.2-1-0.7-1-0.7c0,0.7-0.7,0.8-1.1,0.8h-1.3c-0.2,0-0.3-0.1-0.3-0.3v-0.9H65v0.1
			c0,0.2-0.1,0.2-0.4,0.2c-0.2,0-0.8,0-0.8,0v0.7c0.1,0,0.6,0,0.7,0c0.7,0,1-0.1,1.2-0.2c0.2-0.2,0.2-0.4,0.2-1
			c0.3,0.3,0.9,0.7,1.3,0.9L67.3,66.8L67.3,66.8z M63.5,66.5c0.1-0.1,0.3-0.3,0.4-0.4h1.4c0.1,0.2,0.2,0.3,0.3,0.4H63.5z"/>
	</g>
	<g class="st2">
		<path d="M33.6,67.7c0.8,0.6,1.5,1,2.8,1.1v1.4c-1.4-0.3-2.8-1-3.8-1.7c-1.1,0.8-2.3,1.4-3.8,1.7v-1.3c1.1-0.2,2-0.6,2.8-1.1
			c-0.9-0.8-1.8-2.2-2.5-3.8l1.3-0.1c0.2,0.4,0.4,1,0.9,1.5c0.4,0.6,0.9,1.2,1.3,1.6c0.4-0.3,0.9-0.9,1.4-1.5
			c0.4-0.7,0.8-1.4,0.9-1.9h-6.1v-1.2h7.5c0,0-0.1,0.5-0.2,1.1c-0.2,0.7-0.6,1.6-1,2.3C34.6,66.7,34.1,67.3,33.6,67.7z"/>
		<path d="M32.6,65.9c-0.4-0.6-0.9-1.1-1.4-1.6l1-0.5c0.5,0.4,1,0.9,1.4,1.4L32.6,65.9z"/>
	</g>
	<polygon class="st11" points="194.4,-4 197.2,-6.8 195.2,-8.9 197.2,-10.9 194.4,-13.7 192.4,-11.7 190.4,-13.7 187.5,-10.9 
		189.5,-8.9 187.5,-6.8 190.4,-4 192.4,-6 	"/>
	<path class="st11" d="M187,1.1c0-2.8,2.3-5.1,5.1-5.1s5.1,2.3,5.1,5.1s-2.3,5.1-5.1,5.1S187,3.9,187,1.1z"/>
	<g class="st2">
		<line class="st16" x1="-68.6" y1="-62.4" x2="-39.3" y2="-44"/>
		<line class="st16" x1="-39.3" y1="-62.4" x2="-68.6" y2="-44"/>
		<ellipse class="st17" cx="-18.5" cy="-53.2" rx="14.6" ry="9.2"/>
	</g>
	<g class="st18">
		<path d="M43.2,68.9c-0.1-2.5-0.1-3.3-0.2-4.2v-6.8h5.7v20.3H44l-8.2-11l0.1,4.5v6.5h-5.7V58h4.7L43.2,68.9z"/>
		<path d="M62.5,78.5c-6.4,0-11-3.8-11-10.7c0-6.6,4.5-10.7,11-10.7s11,3.8,11,10.7S69,78.5,62.5,78.5z M62.5,62.2
			c-3.2,0-5.3,2.3-5.3,5.8s2.2,5.8,5.3,5.8c3.3,0,5.3-2.3,5.3-5.8C68,64.5,65.8,62.2,62.5,62.2z"/>
		<path d="M89.4,68.9c-0.1-2.4-0.1-3.4-0.1-4.1v-6.9H95v20.3h-4.7l-8.2-10.9l0.1,4.5v6.5h-5.7V58h4.7L89.4,68.9z"/>
		<path d="M106.9,64.6l1.8-3.6l1.9-3.1h6v0.3l-6.2,9.7l6.6,9.9V78h-6.1l-1.8-2.8l-2.2-3.7l-2.2,3.8l-1.8,2.8h-6.1v-0.2l6.6-9.9
			l-6.2-9.7v-0.4h6L105,61L106.9,64.6z"/>
		<path d="M128,78.5c-6.4,0-11-3.8-11-10.7c0-6.6,4.5-10.7,11-10.7s11,3.8,11,10.7S134.5,78.5,128,78.5z M128,62.2
			c-3.2,0-5.3,2.3-5.3,5.8s2.2,5.8,5.3,5.8c3.3,0,5.3-2.3,5.3-5.8C133.4,64.5,131.3,62.2,128,62.2z"/>
	</g>
	<text transform="matrix(0.9723 0 0 1 -70.0986 118.092)" class="st2" style="font-family:'NexaBlack'; font-size:29.0193px;">NONXO</text>
	
		<text transform="matrix(0.9723 0 0 1 -28.2461 23.3201)" class="st2" style="font-family:'NotoSansCJKtc-Black-B5pc-H'; font-size:25.3604px;">影</text>
	<path class="st2" d="M120.1,95.1l0.2,0.2h1.5v1h-4.7v-1h1.7c0-0.1-0.1-0.1-0.1-0.2H120.1z"/>
	<path class="st2" d="M122.8,94.7c0.9-0.6,1.8-1.4,2.5-2.3l-1.3-0.5c-0.4,0.7-1.3,1.4-2.1,1.8C122,93.7,122.6,94.4,122.8,94.7z"/>
	<path class="st2" d="M117.1,92.2v2.7h4.7v-2.7H117.1z M120.5,94.2h-2.1v-0.3h2.1V94.2z M120.5,93.3h-2.1V93h2.1V93.3z"/>
	<path class="st2" d="M121.1,98.5h0.6v-2h-4.4v2h0.2l0,0h1.2v1c0,0.2-0.5,0.1-0.5,0.1v1.1c0,0,1,0.1,1.4-0.1s0.4-0.5,0.4-1v-0.7
		c0.3,0.5,0.6,1.4,0.7,1.8h1.2C121.9,100.1,121.3,99,121.1,98.5z M118.6,97.7v-0.4h1.8v0.4H118.6z M120.1,98.8v-0.3h0.7L120.1,98.8z
		"/>
	<path class="st2" d="M118.2,99.6c0.2-0.3,0.3-0.6,0.4-0.8l-1-0.3c-0.2,0.6-0.9,1.3-0.9,1.3l0.8,0.8c0,0,0.3-0.4,0.6-0.8L118.2,99.6
		z"/>
	<path class="st2" d="M125.5,97.5c-0.7,1.3-1.7,2.3-2.9,3c-0.2-0.3-0.6-0.8-0.9-1c1-0.5,2.1-1.4,2.6-2.4L125.5,97.5z"/>
	<path class="st2" d="M125.3,95.1c-0.7,1-1.7,1.8-2.6,2.4c-0.2-0.3-0.6-0.7-0.9-0.9c0.8-0.4,1.8-1.2,2.3-2L125.3,95.1z"/>
	<g class="st2">
		<path d="M95.5,65.3l0.2,0.2h1.5v1h-4.6v-1h1.7c0-0.1-0.1-0.1-0.1-0.2H95.5z"/>
		<path d="M97.4,64.8c0,0,2.5,0.3,3-2.5h-1.3c-0.4,1-0.5,1.2-1.7,1.2V64.8z"/>
		<path d="M97.4,67.3c0,0,2.7,0.3,3.3-2.6h-1.3c-0.4,1-0.7,1.3-2,1.3C97.4,66,97.4,67.3,97.4,67.3z"/>
		<path d="M97.4,70.4c0,0,2.8,0.4,3.5-3.2h-1.4c-0.4,1.3-0.7,1.9-2.1,1.9C97.4,69.1,97.4,70.4,97.4,70.4z"/>
		<path d="M92.6,62.5v2.7h4.6v-2.7H92.6z M95.9,64.4h-2v-0.3h2V64.4z M95.9,63.5h-2v-0.3h2V63.5z"/>
		<path d="M96.5,68.6h0.6v-1.9h-4.2v1.9h0.2l0,0h1.1v1c0,0.2-0.4,0.1-0.4,0.1v1.1c0,0,1,0.1,1.3-0.1c0.3-0.2,0.4-0.5,0.4-1v-0.6
			c0.3,0.5,0.6,1.4,0.7,1.7h1.1C97.3,70.1,96.7,69,96.5,68.6z M94,67.7v-0.3h1.7v0.4L94,67.7L94,67.7z M95.5,68.9v-0.3h0.7
			L95.5,68.9z"/>
		<path d="M93.7,69.6c0.2-0.3,0.3-0.6,0.4-0.8l-1-0.3c-0.2,0.6-0.9,1.3-0.9,1.3l0.8,0.8c0,0,0.3-0.4,0.6-0.8L93.7,69.6z"/>
	</g>
	<path class="st2" d="M103.9,96.4l0.2,0.2h1.5v1h-4.7v-1h1.7c0-0.1-0.1-0.1-0.1-0.2H103.9z"/>
	<path class="st2" d="M105.8,95.9c0,0,2.5,0.3,3.1-2.5h-1.4c-0.4,1-0.5,1.3-1.7,1.3V95.9z"/>
	<path class="st2" d="M105.8,98.5c0,0,2.8,0.3,3.4-2.7h-1.3c-0.4,1.1-0.7,1.3-2.1,1.3V98.5z"/>
	<path class="st2" d="M105.8,101.7c0,0,2.9,0.4,3.5-3.2h-1.4c-0.4,1.3-0.7,1.9-2.1,1.9V101.7z"/>
	<path class="st2" d="M100.9,93.5v2.7h4.7v-2.7H100.9z M104.2,95.4h-2v-0.3h2V95.4z M104.2,94.5h-2v-0.3h2V94.5z"/>
	<path class="st2" d="M104.8,99.7h0.6v-2H101v2h0.2l0,0h1.2v1c0,0.2-0.5,0.1-0.5,0.1v1.1c0,0,1,0.1,1.4-0.1s0.4-0.5,0.4-1v-0.7
		c0.3,0.5,0.6,1.4,0.7,1.8h1.2C105.7,101.3,105.1,100.2,104.8,99.7z M102.3,98.9v-0.4h1.8v0.4H102.3z M103.9,100.1v-0.3h0.7
		L103.9,100.1z"/>
	<path class="st2" d="M102,100.8c0.2-0.3,0.3-0.6,0.4-0.8l-1-0.3c-0.2,0.6-0.9,1.3-0.9,1.3l0.8,0.8c0,0,0.3-0.4,0.6-0.8L102,100.8z"
		/>
	<g class="st2">
		<path d="M124.6,69.6h7.8v0.9h-7.8V69.6z M132.3,66v0.8h-7.6V66h3.1v-0.2h-2.7v-0.7h2.7v-0.2h-2.4v-0.7h2.4V64h-3v-0.7h3v-0.2h-2.4
			v-0.7h2.4v-0.2h1.3v0.2h2.6v0.9h0.6V64h-0.6v0.9h-2.6v0.2h2.9v0.7h-2.9V66H132.3z M131.7,67v2.4h-6.2v-2.3L131.7,67L131.7,67z
			 M126.7,67.9h1.2v-0.2h-1.2V67.9z M126.7,68.7h1.2v-0.3h-1.2V68.7z M130.4,67.6h-1.3v0.2h1.3V67.6z M130.4,68.5h-1.3v0.3h1.3V68.5
			z M129.1,63.2h1.3V63h-1.3V63.2z M129.1,64.1h1.3v-0.2h-1.3V64.1z"/>
	</g>
	<g class="st18">
		<path d="M56.7-21c0,5.1-3.1,8.9-8.6,8.9c-5.4,0-8.9-3.8-8.9-8.9c0-4.9,3.4-8.9,8.9-8.9S56.7-26.1,56.7-21z M48.1-14.5
			c3.8,0,6.1-2.6,6.1-6.5s-2.2-6.5-6.1-6.5c-3.8,0-6.3,2.7-6.3,6.5C41.8-17.1,44.3-14.5,48.1-14.5z M50.1-19.6
			c2.8-0.8,2.5-5.7-1.6-5.7c-1.4,0-2.5,0-3.9,0v8.8H47v-2.6h1l1.4,2.6H52L50.1-19.6z M48.6-23.2c1.2,0,1.2,2,0,2h-1.7v-2H48.6z"/>
	</g>
	<g class="st18">
		<path d="M188.5,16.8c0,2.5-1.5,4.3-4.2,4.3c-2.6,0-4.3-1.8-4.3-4.3c0-2.4,1.6-4.3,4.3-4.3C187,12.6,188.5,14.4,188.5,16.8z
			 M184.4,20c1.8,0,2.9-1.2,2.9-3.2c0-1.9-1.1-3.1-2.9-3.1c-1.8,0-3,1.3-3,3.1C181.3,18.7,182.5,20,184.4,20z M185.3,17.5
			c1.4-0.4,1.2-2.7-0.8-2.7c-0.7,0-1.2,0-1.9,0v4.3h1.2v-1.3h0.5l0.7,1.3h1.3L185.3,17.5z M184.6,15.8c0.6,0,0.6,1,0,1h-0.8v-1
			H184.6z"/>
	</g>
	<line class="st9" x1="27" y1="102.7" x2="105.8" y2="102.7"/>
	<g class="st2">
		<g>
			<path d="M-81-143c-0.1-1.5-0.1-2-0.1-2.5v-4.2h3.4v12.3h-2.9l-5-6.6l0.1,2.7v3.9h-3.4v-12.3h2.9L-81-143z"/>
			<path d="M-69.3-137.1c-3.9,0-6.6-2.3-6.6-6.5c0-4,2.7-6.5,6.6-6.5s6.6,2.4,6.6,6.5C-62.7-139.4-65.4-137.1-69.3-137.1z
				 M-69.3-147c-1.9,0-3.3,1.4-3.3,3.5s1.4,3.5,3.3,3.5c2,0,3.3-1.4,3.3-3.5C-66-145.7-67.3-147-69.3-147z"/>
			<path d="M-53-143c-0.1-1.5-0.1-2-0.1-2.5v-4.2h3.4v12.3h-2.9l-5-6.6l0.1,2.7v3.9h-3.4v-12.3h2.9L-53-143z"/>
			<path d="M-42.4-145.6l1.1-2.2l1.1-1.8h3.6v0.2l-3.8,5.9l4,6.1v0.1h-3.7l-1.1-1.7l-1.3-2.3l-1.3,2.3l-1.1,1.7h-3.7v-0.1l4-6.1
				l-3.8-5.9v-0.2h3.6l1.1,1.9L-42.4-145.6z"/>
			<path d="M-29.5-137.1c-3.9,0-6.6-2.3-6.6-6.5c0-4,2.7-6.5,6.6-6.5s6.6,2.4,6.6,6.5C-22.9-139.4-25.6-137.1-29.5-137.1z
				 M-29.5-147c-1.9,0-3.3,1.4-3.3,3.5s1.4,3.5,3.3,3.5c2,0,3.3-1.4,3.3-3.5C-26.3-145.7-27.6-147-29.5-147z"/>
			<path d="M-76.2-117.7H-79l-2.1-5.9l-2.1,5.9h-2.7l-4.5-12.3h3.7l1.5,4.3c0.3,0.9,0.5,1.9,0.6,2.9l2.2-7.2h2.3l2.3,7.2
				c0.2-0.9,0.4-1.9,0.7-2.9l1.4-4.2h3.7L-76.2-117.7z"/>
			<path d="M-65-117.4c-3.9,0-6.6-2.3-6.6-6.5c0-4,2.7-6.5,6.6-6.5s6.6,2.4,6.6,6.5C-58.4-119.7-61.1-117.4-65-117.4z M-65-127.3
				c-1.9,0-3.3,1.4-3.3,3.5s1.4,3.5,3.3,3.5c2,0,3.3-1.4,3.3-3.5C-61.8-126-63-127.3-65-127.3z"/>
			<path d="M-45.6-117.7h-3.7l-2.8-4h-1.2v4h-3.4V-130h5.8c3.1,0,4.6,2,4.6,4.2c0,1.5-0.5,2.8-2.5,3.7l3.1,4.2L-45.6-117.7
				L-45.6-117.7z M-53.2-127.2v3h2.5c0.9,0,1.3-0.7,1.3-1.4c0-0.8-0.4-1.5-1.3-1.5L-53.2-127.2L-53.2-127.2z"/>
			<path d="M-33.5-129.8l-4.9,5.8c1.7,1.9,3.6,4.1,5.3,6.1v0.2h-4.2l-3.4-4.1v4.1h-3.4V-130h3.4v4c1-1.3,2.1-2.7,3.1-4h4
				L-33.5-129.8C-33.6-129.8-33.5-129.8-33.5-129.8z"/>
			<path d="M-25-126.6c-0.8-0.6-1.8-0.8-2.8-0.8c-0.8,0-1.6,0.3-1.6,0.9c0,0.8,0.8,1,2,1.1c2.4,0.3,4.9,1.2,4.9,4.1
				c0,2.8-2.6,4-5.2,4c-2.2,0-3.7-0.4-5.3-2.2l1.9-2.2c1.2,1.2,2.5,1.4,3.5,1.4c1.1,0,1.9-0.4,1.9-1.1c0-0.6-0.7-1-2-1.1
				c-2.6-0.2-4.9-0.9-4.9-4c0-2.6,2.5-3.7,5-3.7c1.8,0,3.2,0.4,4.5,1.5L-25-126.6z"/>
			<path d="M-13.3-117.7v-4.7h-4.3v4.7H-21V-130h3.4v4.7h4.3v-4.7h3.3v12.3H-13.3z"/>
			<path d="M-1.5-117.4c-3.9,0-6.6-2.3-6.6-6.5c0-4,2.7-6.5,6.6-6.5s6.6,2.4,6.6,6.5C5.1-119.7,2.4-117.4-1.5-117.4z M-1.5-127.3
				c-1.9,0-3.3,1.4-3.3,3.5s1.4,3.5,3.3,3.5c2,0,3.3-1.4,3.3-3.5C1.7-126,0.5-127.3-1.5-127.3z"/>
			<path d="M10.3-121v3.3H6.9V-130h5.8c3.2,0,4.8,2.1,4.8,4.5c0,2.5-1.6,4.5-4.8,4.5C12.7-121,10.3-121,10.3-121z M10.3-124h2.4
				c0.9,0,1.4-0.7,1.4-1.5s-0.5-1.5-1.4-1.5h-2.4V-124z"/>
		</g>
	</g>
	<path class="st11" d="M-19.7-21.7c5,5,2,13.8-5.2,14.4c-5.9,0.4-12-1.6-16.5-6.1S-48-24-47.5-29.9c0.5-7.1,9.3-10.2,14.4-5.2
		L-19.7-21.7z"/>
	<path class="st11" d="M-22.9-28.9c-5-5-2-13.8,5.2-14.4c5.9-0.4,12,1.6,16.5,6.1s6.6,10.6,6.1,16.5c-0.5,7.1-9.3,10.2-14.4,5.2
		L-22.9-28.9z"/>
	<path class="st11" d="M35.3-20.9c-0.5-2.7-2.3-4.5-4.7-5.6c-2.3-1.1-7.6-0.9-8.2-3.8c-1.2-6.3-10.9-3.6-9.6,2.7
		c0.7,3.8,4.7,8.2,8.9,9.4c-0.2,0-0.5,0-0.7,0c-3.2-0.4-5.7-2.8-7.9-5.1c-4-4.1-7.8-6.9-13.7-4.4c-5.4,2.3-9,7.6-10.3,13.2
		c-1.5,6.3,8.1,8.9,9.6,2.7c0.7-2.7,2.5-7.4,5.8-6c1.1,0.5,2.2,2.4,3.2,3.2c1,1,2.2,1.9,3.3,2.7c4.7,3.4,11,5.1,16.7,2.6
		C32-11.1,36.3-15.8,35.3-20.9z"/>
	<path class="st11" d="M9.6,48.9c-0.6-3.1-3-5.2-5.8-6.5c-0.6-0.3-1.2-0.5-1.9-0.7c2.9-2.8,0.2-9.3-5.1-8.5c-4,0.6-7.8,2.4-9.1,6.5
		c-1.1,3.6,0.6,7.1,3.7,8.9c1.7,1,3.9,1.5,5.8,2.1c0.4,0.1,0.7,0.2,1.1,0.4c-0.4,0.1-0.7,0.2-1.1,0.2C-8,52.1-13.3,49.7-17.6,47
		c-6.6-4.1-14.2-12.6-22.2-5.9c-6.5,5.5-6,15.1-0.7,21.1c4.3,4.8,11.3-2.3,7.1-7.1c-2.2-2.4-1.6-7.5,2.3-5.7
		c3.2,1.6,6.1,4.7,9.2,6.6c6.2,3.7,13.4,6.1,20.6,5.1C4.9,60.3,11,55.7,9.6,48.9z"/>
	<polyline class="st19" points="152.2,62.1 152.2,43.8 174,65.6 174,37 	"/>
	<polygon class="st20" points="40.3,24 39.7,24 52.1,11.6 52.7,11.6 	"/>
	<path class="st20" d="M60.9,24.2c-3.5,0-6.4-2.9-6.4-6.4s2.9-6.4,6.4-6.4s6.4,2.9,6.4,6.4S64.4,24.2,60.9,24.2z M60.9,11.8
		c-3.3,0-6,2.7-6,6s2.7,6,6,6c3.3,0,6-2.7,6-6S64.2,11.8,60.9,11.8z"/>
	<rect x="39.5" y="15.5" class="st7" width="30" height="4.5"/>
	<polygon class="st20" points="52.1,24 39.7,11.6 40.3,11.6 52.7,24 	"/>
	<polygon class="st21" points="94.9,24 94.3,24 106.8,11.6 107.4,11.6 	"/>
	<path class="st21" d="M115.6,24.2c-3.5,0-6.4-2.9-6.4-6.4s2.9-6.4,6.4-6.4s6.4,2.9,6.4,6.4C121.9,21.3,119.1,24.2,115.6,24.2z
		 M115.6,11.8c-3.3,0-6,2.7-6,6s2.7,6,6,6s6-2.7,6-6C121.5,14.5,118.9,11.8,115.6,11.8z"/>
	<rect x="94.2" y="15.5" class="st7" width="30" height="4.5"/>
	<polygon class="st21" points="106.8,24 94.3,11.6 94.9,11.6 107.4,24 	"/>
</g>
<polygon class="st0" points="333.3,102.6 332.2,102.6 355.9,78.9 357,78.9 "/>
<g>
	<path d="M81.4-16.8c0-0.5,0-0.7-0.1-0.9v-1.5h1.3v4.3h-1l-1.8-2.3v1v1.4h-1.3v-4.4h1L81.4-16.8z"/>
	<path d="M89.1-14.8c-1.4,0-2.4-0.8-2.4-2.3c0-1.4,1-2.3,2.4-2.3s2.4,0.8,2.4,2.3C91.6-15.6,90.5-14.8,89.1-14.8z M89.1-18.3
		c-0.7,0-1.2,0.5-1.2,1.2s0.5,1.2,1.2,1.2c0.7,0,1.2-0.5,1.2-1.2S89.9-18.3,89.1-18.3z"/>
	<path d="M98.5-16.8c0-0.5,0-0.7-0.1-0.9v-1.5h1.3v4.3h-1l-1.8-2.3v1v1.4h-1.3v-4.4h1L98.5-16.8z"/>
	<path d="M105.9-17.8l0.4-0.7l0.4-0.7h1.3v0.1l-1.3,2.1l1.5,2.2v0.1h-1.3l-0.4-0.7l-0.4-0.8l-0.5,0.8l-0.4,0.6h-1.3v-0.1l1.5-2.2
		l-1.3-2.1l0,0h1.1l0.4,0.7L105.9-17.8z"/>
	<path d="M114-14.8c-1.4,0-2.4-0.8-2.4-2.3c0-1.4,1-2.3,2.4-2.3s2.4,0.8,2.4,2.3C116.5-15.6,115.5-14.8,114-14.8z M114-18.3
		c-0.7,0-1.2,0.5-1.2,1.2s0.5,1.2,1.2,1.2s1.2-0.5,1.2-1.2S114.7-18.3,114-18.3z"/>
</g>
<g>
	<path class="st3" d="M-94.1-21c-4.2,4.2-4.2,10.9,0,15.1s10.9,4.2,15.1,0s4.2-10.9,0-15.1S-89.9-25.1-94.1-21z"/>
</g>
<path class="st22" d="M-105.1-9.9c-4.2,4.2-4.2,10.9,0,15.1s10.9,4.2,15.1,0s4.2-10.9,0-15.1S-100.9-14.1-105.1-9.9z"/>
<g>
	<path class="st3" d="M-174.2-75.1c-4.2,4.2-4.2,10.9,0,15.1s10.9,4.2,15.1,0s4.2-10.9,0-15.1C-163.3-79.3-170-79.2-174.2-75.1z"/>
</g>
<path class="st22" d="M-185.2-64c-4.2,4.2-4.2,10.9,0,15.1s10.9,4.2,15.1,0s4.2-10.9,0-15.1S-181-68.2-185.2-64z"/>
<g>
	<g>
		<path d="M60.7-225.5c-0.2-3.7-0.2-5.1-0.3-6.3v-10.5h8.5v30.7h-7.2l-12.4-16.5l0.1,6.7v9.8h-8.5v-30.7h7.2L60.7-225.5z"/>
		<path d="M89.9-210.8c-9.8,0-16.6-5.8-16.6-16.1c0-10.1,6.8-16.1,16.6-16.1s16.6,5.9,16.6,16.1S99.7-210.8,89.9-210.8z M89.9-235.6
			c-4.8,0-8.1,3.6-8.1,8.7c0,5.1,3.4,8.7,8.1,8.7c4.9,0,8.1-3.6,8.1-8.7C98.1-232.2,94.9-235.6,89.9-235.6z"/>
		<path d="M130.7-225.5c-0.2-3.7-0.2-5.1-0.3-6.3v-10.5h8.5v30.7h-7.2l-12.4-16.5l0.1,6.7v9.8h-8.5v-30.7h7.2L130.7-225.5z"/>
		<path d="M157.1-232.1l2.8-5.5l2.7-4.6h9.1v0.5l-9.4,14.8l10,15.1v0.3h-9.2l-2.8-4.3l-3.3-5.7l-3.4,5.8l-2.7,4.2h-9.2v-0.3l10-15.1
			l-9.4-14.8v-0.5h9.1l2.8,4.7L157.1-232.1z"/>
		<path d="M189.1-210.8c-9.8,0-16.6-5.8-16.6-16.1c0-10.1,6.8-16.1,16.6-16.1s16.6,5.9,16.6,16.1S198.9-210.8,189.1-210.8z
			 M189.1-235.6c-4.8,0-8.1,3.6-8.1,8.7c0,5.1,3.4,8.7,8.1,8.7c4.9,0,8.1-3.6,8.1-8.7C197.3-232.2,194-235.6,189.1-235.6z"/>
		<path d="M72.7-162.6h-6.9l-5.2-14.7l-5.1,14.7h-6.9l-11.1-30.7h9.2l3.8,10.8c0.7,2.3,1.2,4.8,1.6,7.1l5.5-17.9h5.8l5.7,17.9
			c0.4-2.3,1-4.8,1.7-7.3l3.6-10.6h9.2L72.7-162.6z"/>
		<path d="M100.6-161.8c-9.8,0-16.6-5.8-16.6-16.1c0-10.1,6.8-16.1,16.6-16.1s16.6,5.9,16.6,16.1
			C117.2-167.6,110.4-161.8,100.6-161.8z M100.6-186.6c-4.8,0-8.1,3.6-8.1,8.7s3.4,8.7,8.1,8.7c4.9,0,8.1-3.6,8.1-8.7
			C108.7-183.1,105.5-186.6,100.6-186.6z"/>
		<path d="M149.2-162.5h-9.3l-6.9-9.9h-2.9v9.9h-8.4v-30.7h14.6c7.6,0,11.6,5,11.6,10.6c0,3.8-1.3,7-6.3,9.3l7.8,10.3L149.2-162.5
			L149.2-162.5z M130-186.3v7.4h6.2c2.2,0,3.2-1.7,3.2-3.6c0-1.9-1.1-3.8-3.3-3.8L130-186.3L130-186.3z"/>
		<path d="M179.3-192.7l-12.1,14.5c4.2,4.7,9,10.3,13.1,15.1v0.5h-10.4l-8.5-10.2v10.2H153v-30.7h8.4v10.1c2.6-3.2,5.3-6.8,7.8-10.1
			h10.1L179.3-192.7L179.3-192.7z"/>
		<path d="M200.5-184.7c-2.1-1.6-4.4-2.1-7-2.1c-2.1,0-4.1,0.7-4.1,2.3c0,2.1,2,2.4,4.9,2.7c5.9,0.7,12.1,3.1,12.1,10.2
			c0,7-6.4,9.9-13.1,10c-5.4,0-9.2-0.9-13.3-5.4l4.6-5.5c2.9,2.9,6.2,3.5,8.7,3.5c2.8,0,4.7-1,4.7-2.7c0-1.5-1.7-2.5-5-2.8
			c-6.5-0.6-12.1-2.3-12.1-9.9c0-6.5,6.2-9.3,12.5-9.3c4.5,0,8,1.1,11.2,3.6L200.5-184.7z"/>
		<path d="M229.7-162.5v-11.6H219v11.6h-8.4v-30.7h8.4v11.7h10.7v-11.7h8.4v30.7H229.7L229.7-162.5z"/>
		<path d="M259.1-161.8c-9.8,0-16.6-5.8-16.6-16.1c0-10.1,6.8-16.1,16.6-16.1c9.8,0,16.6,5.9,16.6,16.1
			C275.6-167.6,268.9-161.8,259.1-161.8z M259.1-186.6c-4.8,0-8.1,3.6-8.1,8.7s3.4,8.7,8.1,8.7c5,0,8.1-3.6,8.1-8.7
			C267.2-183.1,264-186.6,259.1-186.6z"/>
		<path d="M288.5-170.8v8.3h-8.4v-30.7h14.5c8,0,12,5.2,12,11.2c0,6.3-4,11.1-12,11.2C294.5-170.8,288.5-170.8,288.5-170.8z
			 M288.5-178.1h6c2.3,0,3.5-1.8,3.5-3.8s-1.2-3.9-3.5-3.9h-6V-178.1z"/>
	</g>
</g>
<rect x="219" y="-230.7" class="st23" width="84.8" height="3.8"/>
<g>
	<g>
		<g>
			<path d="M66.1-115.4v20.6h20.5v-20.6H66.1z M83.8-103.1v5.8H68.9h-0.1V-113l0,0h6.5h2.6h5.7l0,0L83.8-103.1L83.8-103.1z"/>
			<path d="M83.3-104.2c-1.1-0.4-1.6-0.7-2.4-1.5h2.4v-2.1H76l0.5-0.9h6.8v-1.9h-2.5c0.4-0.5,1.1-1.5,1.4-2.1h-2.6
				c0,0-0.8,1.5-1.4,2.1h-0.9c0.3-0.8,0.6-1.2,0.7-2.1h-2.6c-0.2,0.9-0.5,1.3-0.8,2.1h-0.4c-0.3-0.8-1.3-2.1-1.3-2.1h-2.7
				c0.7,0.8,1.4,1.8,1.5,2.1h-2.2v1.9h4.1l-0.5,0.9h-3.6v2.1h2c-0.9,0.9-1.2,1.3-2,1.6v3.3c0.7-0.5,1.5-1.3,1.8-1.6v2
				c0,1.6,1,2.5,2.7,2.5h5.9c0.8,0,1.8-0.4,2.3-1.1c0.3-0.4,0.6-1.5,0.6-1.5c-1.2-0.4-2.4-1.6-2.4-1.6c0,1.8-1.7,2.1-2.8,2.1h-3.1
				c-0.5,0-0.8-0.2-0.8-0.7v-2.3h3.9v0.1c0,0.5-0.3,0.6-1,0.6c-0.5,0-1.9,0-1.9,0v1.6c0.2,0,1.5,0,1.7,0c1.8,0,2.5-0.2,3-0.6
				c0.4-0.4,0.5-1.1,0.5-2.5c0.7,0.8,2.2,1.8,3.3,2.3L83.3-104.2L83.3-104.2z M73.8-104.7c0.3-0.3,0.7-0.7,0.9-1.1h3.5
				c0.2,0.4,0.5,0.7,0.8,1.1H73.8z"/>
		</g>
		<g>
			<path d="M55.1-101.5c2.1,1.6,3.8,2.4,7,2.9v3.5c-3.4-0.7-7.1-2.4-9.5-4.4c-2.6,2-5.8,3.7-9.6,4.4v-3.4c2.8-0.5,5.1-1.6,7-2.9
				c-2.2-2.1-4.4-5.7-6.1-10l3.1-0.1c0.4,1.1,1.1,2.4,2.2,4c1,1.6,2.2,3.1,3.3,4.1c0.9-0.8,2.3-2.2,3.4-4c1.1-1.8,2-3.5,2.3-5.1H43
				v-2.7h18.9c0,0-0.1,1.2-0.5,2.8c-0.5,1.8-1.3,4.2-2.4,5.9C57.6-104.3,56.3-102.7,55.1-101.5z"/>
			<path d="M52.5-106.3c-1.1-1.4-2.3-2.8-3.6-4.1l2.4-1.4c1.2,0.9,2.4,2.2,3.6,3.7L52.5-106.3z"/>
		</g>
	</g>
</g>
<g>
	<g>
		<text transform="matrix(0.9723 0 0 1 -388.7314 -151.6194)" style="font-family:'NexaBlack'; font-size:43.8446px;">NONXO</text>
		<text transform="matrix(0.9723 0 0 1 -388.7314 -102.5794)" style="font-family:'NexaBlack'; font-size:43.8446px;">WORKSHOP</text>
	</g>
	<line class="st6" x1="-207.6" y1="-168.9" x2="-122.8" y2="-168.9"/>
	<g>
		<g>
			<g>
				<path d="M-360.5-55.6V-35h20.5v-20.6H-360.5z M-342.8-43.3v5.8h-14.8h-0.1v-15.8l0,0h6.5h2.6h5.7l0,0L-342.8-43.3L-342.8-43.3z"
					/>
				<path d="M-343.3-44.4c-1.1-0.4-1.6-0.7-2.4-1.5h2.4v-2h-7.3l0.5-0.9h6.8v-1.9h-2.5c0.4-0.5,1.1-1.5,1.4-2.1h-2.5
					c0,0-0.8,1.5-1.4,2.1h-0.9c0.3-0.8,0.6-1.2,0.7-2.1h-2.6c-0.2,0.9-0.5,1.3-0.8,2.1h-0.4c-0.4-0.8-1.3-2.1-1.3-2.1h-2.7
					c0.6,0.8,1.4,1.8,1.5,2.1h-2.2v1.9h4.1l-0.5,0.9h-3.6v2.1h2c-0.9,0.9-1.2,1.3-2,1.6v3.3c0.7-0.5,1.5-1.3,1.8-1.6v2
					c0,1.6,1,2.5,2.7,2.5h5.9c0.8,0,1.8-0.3,2.3-1.1c0.3-0.4,0.6-1.5,0.6-1.5c-1.2-0.4-2.4-1.6-2.4-1.6c-0.1,1.8-1.9,2.1-2.9,2.1
					h-3.1c-0.5,0-0.8-0.2-0.8-0.7v-2.3h3.8v0.1c0,0.5-0.3,0.6-1,0.6c-0.5,0-1.9,0-1.9,0v1.6c0.2,0,1.5,0,1.7,0c1.8,0,2.5-0.2,3-0.6
					c0.4-0.4,0.5-1.2,0.5-2.5c0.7,0.8,2.2,1.8,3.3,2.3L-343.3-44.4L-343.3-44.4z M-352.8-44.8c0.4-0.3,0.6-0.7,0.9-1h3.5
					c0.2,0.3,0.5,0.7,0.8,1H-352.8z"/>
			</g>
			<g>
				<path d="M-371.5-41.6c2.1,1.7,3.8,2.4,7,2.9v3.5c-3.4-0.7-7.1-2.3-9.5-4.4c-2.6,2-5.8,3.7-9.6,4.4v-3.4c2.8-0.5,5.1-1.6,7-3
					c-2.2-2.1-4.4-5.7-6.1-10l3.1-0.1c0.4,1.1,1.1,2.4,2.1,4s2.1,3.1,3.3,4.1c0.9-0.8,2.3-2.2,3.4-4s2-3.5,2.3-5.1h-15.2v-2.7h18.9
					c0,0-0.1,1.2-0.5,2.8c-0.5,1.8-1.3,4.2-2.4,5.9C-369-44.5-370.2-42.9-371.5-41.6z"/>
				<path d="M-374-46.5c-1.1-1.4-2.3-2.8-3.6-4.1l2.4-1.4c1.2,0.9,2.4,2.2,3.6,3.7L-374-46.5z"/>
			</g>
		</g>
	</g>
</g>
<path d="M-437.9,127.1c-6.8,1-13.1-3.7-14.1-10.4c-1-6.8,3.7-13.1,10.4-14.1c6.8-1,13.1,3.7,14.1,10.4
	C-426.5,119.8-431.2,126.1-437.9,127.1z"/>
<path class="st8" d="M-437.9,127.1c-6.8,1-13.1-3.7-14.1-10.4c-1-6.8,3.7-13.1,10.4-14.1c6.8-1,13.1,3.7,14.1,10.4
	C-426.5,119.8-431.2,126.1-437.9,127.1 M-437.7,128.8c7.7-1.1,13-8.3,11.9-16s-8.3-13-16-11.9s-13,8.3-11.9,16
	C-452.5,124.6-445.4,129.9-437.7,128.8L-437.7,128.8z"/>
<g>
	<polygon points="-445.6,121 -451.9,129.5 -457.9,125 -462.3,131.1 -470.8,124.8 -466.3,118.8 -472.4,114.3 -466.1,105.8 
		-460.1,110.3 -455.6,104.3 -447.1,110.6 -451.6,116.6 	"/>
	<path class="st8" d="M-451.9,129.5l-6-4.5l-4.5,6l-8.5-6.3l4.5-6l-6-4.5l6.3-8.5l6,4.5l4.5-6l8.5,6.3l-4.5,6l6,4.5L-451.9,129.5
		 M-451.5,131.9l1-1.4l6.3-8.5l1-1.4l-1.4-1l-4.6-3.4l3.4-4.6l1-1.4l-1.4-1l-8.5-6.3l-1.4-1l-1,1.4l-3.4,4.6l-4.6-3.4l-1.4-1l-1,1.4
		l-6.3,8.5l-1,1.4l1.4,1l4.6,3.4l-3.4,4.6l-1,1.4l1.4,1l8.5,6.3l1.4,1l1-1.4l3.4-4.6l4.6,3.4L-451.5,131.9L-451.5,131.9z"/>
</g>
<polygon class="st24" points="104,-81.1 96.6,-88.6 91.3,-83.3 86,-88.6 78.5,-81.1 83.8,-75.8 78.5,-70.5 86,-63.1 91.3,-68.4 
	96.6,-63.1 104,-70.5 98.7,-75.8 "/>
<g>
	<g>
		<g>
			<path d="M110.7-88.2c6.8,0,12.4,5.6,12.4,12.4s-5.6,12.4-12.4,12.4c-3.2,0-6-1.2-8.2-3.2l2.7-2.7l1.2-1.2l-1.2-1.2l-4.1-4.1
				l4.1-4.1l1.2-1.2l-1.2-1.2l-2.7-2.7C104.7-87,107.6-88.2,110.7-88.2 M110.7-89.2c-3.3,0-6.4,1.2-8.9,3.4l-0.8,0.7l0.7,0.7
				l2.7,2.7l0.5,0.5l-0.5,0.5l-4.1,4.1l-0.7,0.7l0.7,0.7l4.1,4.1l0.5,0.5l-0.5,0.5l-2.7,2.7l-0.7,0.7l0.8,0.7
				c2.5,2.2,5.6,3.4,8.9,3.4c7.4,0,13.4-6,13.4-13.4C124.1-83.2,118.1-89.2,110.7-89.2L110.7-89.2z"/>
		</g>
	</g>
	<g>
		<g>
			<path d="M101.3-83.8l2.7,2.7l-5.3,5.3l5.3,5.3l-2.7,2.7c-1.8-2.2-3-5-3-8S99.5-81.7,101.3-83.8 M101.3-85.3l-0.7,0.8
				c-2.1,2.4-3.2,5.5-3.2,8.7s1.1,6.2,3.2,8.7l0.7,0.8l0.8-0.8l2.7-2.7l0.7-0.7l-0.7-0.7l-4.6-4.6l4.6-4.6l0.7-0.7l-0.7-0.7
				l-2.7-2.7L101.3-85.3L101.3-85.3z"/>
		</g>
	</g>
</g>
<g>
	<path d="M69.8-80.3c-2.2,0-4.2,0.9-5.7,2.2l1.9,1.9l0.9,0.9L66-74.4l-2.8,2.7l2.8,2.8l0.9,0.9L66-67.1l-1.9,1.9
		c1.5,1.4,3.6,2.2,5.7,2.2c4.8,0,8.7-3.9,8.7-8.7S74.5-80.3,69.8-80.3z"/>
</g>
<g>
	<polygon points="46.5,-68 50.2,-71.7 46.5,-75.4 52.6,-81.4 56.2,-77.8 59.9,-81.4 66,-75.4 62.3,-71.7 66,-68 59.9,-62 
		56.2,-65.6 52.6,-62 	"/>
	<g>
		<path class="st8" d="M59.9-80.6l3.2,3.2l1.9,1.9l-3.7,3.7l3.7,3.7l-1.8,2l-3.3,3.3l-3.7-3.7l-3.6,3.7L47.4-68l3.7-3.7l-3.7-3.7
			l5.2-5.2l3.7,3.7L59.9-80.6 M52.6-82.3l-0.9,0.9l-5.2,5.2l-0.9,0.9l0.9,0.9l2.8,2.8l-2.8,2.8l-0.9,0.9l0.9,0.9l5.2,5.2l0.9,0.9
			l0.9-0.9l2.7-3L59-62l0.9,0.9l0.9-0.9l3.2-3.2l1.9-1.9l0.9-0.9l-0.9-0.9l-2.7-2.8l2.8-2.8l0.9-0.9L66-76.3l-1.9-1.9l-3.2-3.2
			L60-82.3l-0.9,0.9l-2.9,2.8l-2.8-2.8L52.6-82.3L52.6-82.3z"/>
	</g>
</g>
<g>
	<path class="st10" d="M-195.7,171.1c-4.1,0-7.5,3.4-7.5,7.5s3.4,7.5,7.5,7.5s7.5-3.4,7.5-7.5S-191.5,171.1-195.7,171.1z"/>
</g>
<g>
	<path class="st10" d="M-210.7,171.7c-1,0-2.5-0.4-3.3,0c-1.2,0.6-3,2.4-3.6,3.6c-0.4,0.8,0,2.3,0,3.3s-0.4,2.5,0,3.3
		c0.6,1.2,2.4,3,3.6,3.6c0.8,0.4,2.3,0,3.3,0s2.5,0.4,3.3,0c1.2-0.6,3-2.4,3.6-3.6c0.4-0.8,0-2.3,0-3.3s0.4-2.5,0-3.3
		c-0.6-1.2-2.4-3-3.6-3.6C-208.2,171.3-209.8,171.7-210.7,171.7z"/>
</g>
<g>
	<path class="st10" d="M-195.3,156.3c-1,0-2.5-0.4-3.3,0c-1.2,0.6-3,2.4-3.6,3.6c-0.4,0.8,0,2.3,0,3.3s-0.4,2.5,0,3.3
		c0.6,1.2,2.4,3,3.6,3.6c0.8,0.4,2.3,0,3.3,0s2.5,0.4,3.3,0c1.2-0.6,3-2.4,3.6-3.6c0.4-0.8,0-2.3,0-3.3s0.4-2.5,0-3.3
		c-0.6-1.2-2.4-3-3.6-3.6C-192.7,155.9-194.3,156.3-195.3,156.3z"/>
</g>
<g>
	<path class="st10" d="M-226,172.3c-0.7,0-2.7-1.1-3.3-0.8c-0.9,0.4-3.4,2.9-3.8,3.8c-0.3,0.6,0.8,2.6,0.8,3.3s-1.1,2.7-0.8,3.3
		c0.4,0.9,2.9,3.4,3.8,3.8c0.6,0.3,2.6-0.8,3.3-0.8s2.7,1.1,3.3,0.8c0.9-0.4,3.4-2.9,3.8-3.8c0.3-0.6-0.8-2.6-0.8-3.3
		s1.1-2.7,0.8-3.3c-0.4-0.9-2.9-3.4-3.8-3.8C-223.3,171.2-225.3,172.3-226,172.3z"/>
</g>
<g>
	<path class="st10" d="M-210.7,156.6c-0.7,0-2.7-1.1-3.3-0.8c-0.9,0.4-3.4,2.9-3.8,3.8c-0.3,0.6,0.8,2.6,0.8,3.3
		c0,0.7-1.1,2.7-0.8,3.3c0.4,0.9,2.9,3.4,3.8,3.8c0.6,0.3,2.6-0.8,3.3-0.8s2.7,1.1,3.3,0.8c0.9-0.4,3.4-2.9,3.8-3.8
		c0.3-0.6-0.8-2.6-0.8-3.3c0-0.7,1.1-2.7,0.8-3.3c-0.4-0.9-2.9-3.4-3.8-3.8C-208.1,155.5-210,156.6-210.7,156.6z"/>
</g>
<g>
	<path class="st10" d="M-195.3,141.3c-0.7,0-2.7-1.1-3.3-0.8c-0.9,0.4-3.4,2.9-3.8,3.8c-0.3,0.6,0.8,2.6,0.8,3.3
		c0,0.7-1.1,2.7-0.8,3.3c0.4,0.9,2.9,3.4,3.8,3.8c0.6,0.3,2.6-0.8,3.3-0.8s2.7,1.1,3.3,0.8c0.9-0.4,3.4-2.9,3.8-3.8
		c0.3-0.6-0.8-2.6-0.8-3.3c0-0.7,1.1-2.7,0.8-3.3c-0.4-0.9-2.9-3.4-3.8-3.8C-192.6,140.2-194.5,141.3-195.3,141.3z"/>
</g>
<g>
	<path class="st10" d="M-241.4,172.6c-0.5,0-2.8-1.8-3.3-1.6c-0.6,0.3-3.8,3.5-4,4c-0.2,0.4,1.6,2.8,1.6,3.3s-1.8,2.8-1.6,3.3
		c0.3,0.6,3.5,3.8,4,4c0.4,0.2,2.8-1.6,3.3-1.6s2.8,1.8,3.3,1.6c0.6-0.3,3.8-3.5,4-4c0.2-0.4-1.6-2.8-1.6-3.3s1.8-2.8,1.6-3.3
		c-0.3-0.6-3.5-3.8-4-4S-240.9,172.6-241.4,172.6z"/>
</g>
<g>
	<path class="st10" d="M-226,157.2c-0.5,0-2.8-1.8-3.3-1.6c-0.6,0.3-3.8,3.5-4,4c-0.2,0.4,1.6,2.8,1.6,3.3s-1.8,2.8-1.6,3.3
		c0.3,0.6,3.5,3.8,4,4c0.4,0.2,2.8-1.6,3.3-1.6s2.8,1.8,3.3,1.6c0.6-0.3,3.8-3.5,4-4c0.2-0.4-1.6-2.8-1.6-3.3s1.8-2.8,1.6-3.3
		c-0.3-0.6-3.5-3.8-4-4S-225.5,157.2-226,157.2z"/>
</g>
<g>
	<path class="st10" d="M-210.7,141.8c-0.5,0-2.8-1.8-3.3-1.6c-0.6,0.3-3.8,3.5-4,4c-0.2,0.4,1.6,2.8,1.6,3.3s-1.8,2.8-1.6,3.3
		c0.3,0.6,3.5,3.8,4,4c0.4,0.2,2.8-1.6,3.3-1.6s2.8,1.8,3.3,1.6c0.6-0.3,3.8-3.5,4-4c0.2-0.4-1.6-2.8-1.6-3.3s1.8-2.8,1.6-3.3
		c-0.3-0.6-3.5-3.8-4-4S-210.3,141.8-210.7,141.8z"/>
</g>
<g>
	<path class="st10" d="M-226,142.7c-0.2,0-3-2.5-3.2-2.4c-0.3,0.1-4.1,4-4.3,4.3c-0.1,0.2,2.4,3,2.4,3.2s-2.5,3-2.4,3.2
		c0.1,0.3,4,4.1,4.3,4.3c0.2,0.1,3-2.4,3.2-2.4s3,2.5,3.2,2.4c0.3-0.1,4.1-4,4.3-4.3c0.1-0.2-2.4-3-2.4-3.2s2.5-3,2.4-3.2
		c-0.1-0.3-4-4.1-4.3-4.3C-223,140.2-225.8,142.7-226,142.7z"/>
</g>
<g>
	<path class="st10" d="M-241.4,158.1c-0.2,0-3-2.5-3.2-2.4c-0.3,0.1-4.1,4-4.3,4.3c-0.1,0.2,2.4,3,2.4,3.2s-2.5,3-2.4,3.2
		c0.1,0.3,4,4.1,4.3,4.3c0.2,0.1,3-2.4,3.2-2.4s3,2.5,3.2,2.4c0.3-0.1,4.1-4,4.3-4.3c0.1-0.2-2.4-3-2.4-3.2s2.5-3,2.4-3.2
		c-0.1-0.3-4-4.1-4.3-4.3C-238.4,155.6-241.2,158.1-241.4,158.1z"/>
</g>
<g>
	<polygon class="st10" points="-233.7,144.6 -238.2,140.1 -241.4,143.3 -244.6,140.1 -249.1,144.6 -245.9,147.8 -249.1,151 
		-244.6,155.5 -241.4,152.3 -238.2,155.5 -233.7,151 -236.9,147.8 	"/>
</g>
<polygon class="st12" points="187,-98.1 178.8,-106.3 172.9,-100.5 167.1,-106.3 158.9,-98.1 164.8,-92.3 158.9,-86.5 167.1,-78.3 
	172.9,-84.1 178.8,-78.3 187,-86.5 181.1,-92.3 "/>
<g>
	<path class="st12" d="M194.3-77.7c-8,0-14.6-6.5-14.6-14.6s6.5-14.6,14.6-14.6c8,0,14.6,6.5,14.6,14.6S202.4-77.7,194.3-77.7z"/>
	<path class="st8" d="M194.3-105.9c7.5,0,13.6,6.1,13.6,13.6s-6.1,13.6-13.6,13.6s-13.6-6.1-13.6-13.6S186.8-105.9,194.3-105.9
		 M194.3-107.8c-8.6,0-15.5,7-15.5,15.5s7,15.5,15.5,15.5c8.6,0,15.5-7,15.5-15.5S202.9-107.8,194.3-107.8L194.3-107.8z"/>
</g>
<g>
	<g>
		<g>
			<g>
				<path class="st12" d="M-355.9,122.4v15.9h15.8v-15.9H-355.9z M-342.3,131.9v4.4h-11.5h-0.1v-12.1l0,0h5h2h4.4l0,0v7.7H-342.3
					L-342.3,131.9z"/>
				<path class="st12" d="M-342.7,131.1c-0.9-0.3-1.2-0.5-1.9-1.2h1.9v-1.6h-5.6l0.4-0.7h5.3v-1.4h-1.9c0.3-0.4,0.8-1.2,1.1-1.6h-2
					c0,0-0.6,1.1-1.1,1.6h-0.7c0.2-0.6,0.4-1,0.6-1.6h-2c-0.2,0.7-0.4,1-0.7,1.6h-0.3c-0.3-0.6-1-1.6-1-1.6h-2.1
					c0.5,0.6,1.1,1.4,1.2,1.6h-1.7v1.4h3.2l-0.4,0.7h-2.8v1.6h1.6c-0.7,0.7-0.9,1-1.6,1.3v2.5c0.5-0.4,1.1-1,1.4-1.3v1.6
					c0,1.2,0.7,1.9,2.1,1.9h4.5c0.6,0,1.4-0.3,1.8-0.8c0.2-0.3,0.5-1.1,0.5-1.1c-0.9-0.3-1.8-1.2-1.8-1.2c-0.1,1.4-1.4,1.6-2.3,1.6
					h-2.4c-0.4,0-0.6-0.2-0.6-0.6v-1.7h3v0.1c0,0.4-0.3,0.5-0.8,0.5c-0.4,0-1.5,0-1.5,0v1.2c0.2,0,1.1,0,1.3,0c1.4,0,2-0.1,2.3-0.4
					c0.3-0.3,0.4-0.9,0.4-1.9c0.6,0.6,1.7,1.4,2.5,1.8L-342.7,131.1L-342.7,131.1L-342.7,131.1z M-350,130.7
					c0.3-0.2,0.5-0.5,0.7-0.8h2.7c0.2,0.3,0.4,0.5,0.6,0.8H-350z"/>
			</g>
		</g>
		<g>
			<g>
				<path class="st12" d="M-364.6,133.3c1.6,1.3,2.9,1.8,5.4,2.2v2.7c-2.6-0.5-5.5-1.8-7.4-3.4c-2,1.6-4.4,2.8-7.4,3.4v-2.6
					c2.2-0.4,3.9-1.2,5.4-2.3c-1.7-1.6-3.4-4.4-4.7-7.7h2.4c0.3,0.8,0.8,1.9,1.7,3.1c0.8,1.3,1.7,2.4,2.6,3.2
					c0.7-0.6,1.8-1.7,2.6-3.1c0.8-1.4,1.6-2.7,1.8-4h-11.7v-2.1h14.6c0,0-0.1,0.9-0.4,2.1c-0.4,1.4-1,3.3-1.8,4.6
					C-362.7,131.2-363.6,132.4-364.6,133.3z"/>
				<path class="st12" d="M-366.6,129.6c-0.8-1.1-1.8-2.2-2.8-3.2l1.9-1.1c0.9,0.7,1.8,1.7,2.8,2.8L-366.6,129.6z"/>
			</g>
		</g>
	</g>
	<g>
		<g>
			<path class="st12" d="M-475.5,131c-0.1-1.9-0.1-2.7-0.1-3.3v-5.6h4.5l-0.1,16.3h-3.8l-6.5-8.8l0.1,3.5v5.2h-4.5l0.1-16.2h3.8
				L-475.5,131z"/>
			<path class="st12" d="M-459.2,138.9c-5.2,0-8.8-3.1-8.7-8.6c0-5.3,3.6-8.5,8.8-8.5c5.2,0,8.8,3.1,8.7,8.6
				C-450.4,135.8-454,138.9-459.2,138.9z M-459.2,125.8c-2.5,0-4.3,1.9-4.3,4.6c0,2.7,1.8,4.6,4.3,4.6c2.6,0,4.3-1.9,4.3-4.6
				C-454.9,127.6-456.6,125.8-459.2,125.8z"/>
			<path class="st12" d="M-436.8,131.2c-0.1-1.9-0.1-2.7-0.1-3.3v-5.6h4.5l-0.1,16.2h-3.8l-6.5-8.8l0.1,3.6v5.2h-4.5l0.1-16.2h3.8
				L-436.8,131.2z"/>
			<path class="st12" d="M-421.8,127.8l1.5-2.9l1.5-2.4h4.8v0.3l-5,7.8l5.3,8v0.2h-4.8l-1.5-2.3l-1.7-3l-1.8,3.1l-1.5,2.2h-4.8v-0.2
				l5.3-8l-4.9-7.8v-0.3h4.8l1.5,2.5L-421.8,127.8z"/>
			<path class="st12" d="M-404.1,139.1c-5.2,0-8.8-3.1-8.7-8.6c0-5.3,3.6-8.5,8.8-8.5c5.2,0,8.8,3.1,8.7,8.6
				C-395.3,136.1-398.9,139.1-404.1,139.1z M-404,126c-2.5,0-4.3,1.9-4.3,4.6c0,2.7,1.8,4.6,4.3,4.6c2.6,0,4.3-1.9,4.3-4.6
				C-399.7,127.8-401.4,126-404,126z"/>
			<path class="st12" d="M-469.3,160.7h-3.6l-2.8-7.8l-2.7,7.8h-3.6l-5.8-16.2h4.9l2,5.7c0.4,1.2,0.6,2.6,0.8,3.8l2.9-9.5h3.1l3,9.5
				c0.2-1.2,0.5-2.5,0.9-3.9l1.9-5.6h4.9L-469.3,160.7z"/>
			<path class="st12" d="M-453.7,161.2c-5.2,0-8.8-3.1-8.7-8.6c0-5.3,3.6-8.5,8.8-8.5c5.2,0,8.8,3.1,8.7,8.6
				C-444.9,158.2-448.5,161.2-453.7,161.2z M-453.6,148.1c-2.5,0-4.3,1.9-4.3,4.6s1.8,4.6,4.3,4.6c2.6,0,4.3-1.9,4.3-4.6
				C-449.3,149.9-451,148.1-453.6,148.1z"/>
			<path class="st12" d="M-427.1,160.9h-4.9l-3.7-5.3h-1.6v5.3h-4.5l0.1-16.2h7.7c4,0,6.1,2.7,6.1,5.6c0,2-0.7,3.7-3.4,4.9l4.1,5.5
				L-427.1,160.9z M-437.2,148.3v3.9h3.3c1.2,0,1.7-0.9,1.7-1.9s-0.6-2-1.7-2H-437.2z"/>
			<path class="st12" d="M-410.2,145l-6.4,7.7c2.2,2.5,4.7,5.5,6.9,8v0.3h-5.5l-4.5-5.4v5.4h-4.5l0.1-16.2h4.5v5.3
				c1.4-1.7,2.8-3.6,4.2-5.3h5.3L-410.2,145z"/>
			<path class="st12" d="M-398.1,149.3c-1.1-0.8-2.3-1.1-3.7-1.1c-1.1,0-2.1,0.3-2.1,1.2c0,1.1,1.1,1.3,2.6,1.4
				c3.1,0.4,6.4,1.7,6.4,5.4c0,3.7-3.4,5.3-6.9,5.3c-2.8,0-4.9-0.5-7-2.9l2.5-2.9c1.5,1.6,3.3,1.8,4.6,1.9c1.5,0,2.5-0.5,2.5-1.4
				c0-0.8-0.9-1.3-2.6-1.5c-3.4-0.3-6.4-1.3-6.4-5.3c0-3.4,3.3-4.9,6.6-4.9c2.4,0,4.2,0.6,5.9,2L-398.1,149.3z"/>
			<path class="st12" d="M-381.8,161.1V155h-5.7v6.1h-4.5l0.1-16.2h4.5v6.2h5.7v-6.2h4.4l-0.1,16.2
				C-377.4,161.1-381.8,161.1-381.8,161.1z"/>
			<path class="st12" d="M-365.4,161.6c-5.2,0-8.8-3.1-8.7-8.6c0-5.3,3.6-8.5,8.8-8.5c5.2,0,8.8,3.1,8.7,8.6
				C-356.6,158.5-360.2,161.6-365.4,161.6z M-365.4,148.5c-2.5,0-4.3,1.9-4.3,4.6s1.8,4.6,4.3,4.6c2.6,0,4.3-1.9,4.3-4.6
				C-361.1,150.3-362.7,148.5-365.4,148.5z"/>
			<path class="st12" d="M-349,156.9v4.4h-4.5l0.1-16.2h7.7c4.2,0,6.3,2.8,6.3,5.9c0,3.3-2.1,5.9-6.4,5.9
				C-345.8,156.9-349,156.9-349,156.9z M-348.9,153h3.2c1.2,0,1.9-0.9,1.9-2c0-1.1-0.6-2-1.9-2h-3.2V153z"/>
		</g>
	</g>
</g>
<g>
	<g>
		<g>
			<path class="st8" d="M312.6,8.7v15.9h15.8V8.7H312.6z M326.2,18.2v4.4h-11.5h-0.1V10.5l0,0h5h2h4.4l0,0v7.7H326.2z"/>
			<path class="st8" d="M325.8,17.4c-0.9-0.3-1.2-0.5-1.9-1.2h1.9v-1.6h-5.6l0.4-0.7h5.3v-1.4H324c0.3-0.4,0.8-1.2,1.1-1.6h-2
				c0,0-0.6,1.1-1.1,1.6h-0.7c0.2-0.6,0.4-1,0.6-1.6h-2c-0.2,0.7-0.4,1-0.7,1.6h-0.3c-0.3-0.6-1-1.6-1-1.6h-2.1
				c0.5,0.6,1.1,1.4,1.2,1.6h-1.7v1.4h3.2l-0.4,0.7h-2.8v1.6h1.6c-0.7,0.7-0.9,1-1.6,1.3V20c0.5-0.4,1.1-1,1.4-1.3v1.6
				c0,1.2,0.7,1.9,2.1,1.9h4.5c0.6,0,1.4-0.3,1.8-0.8c0.2-0.3,0.5-1.1,0.5-1.1c-0.9-0.3-1.8-1.2-1.8-1.2c-0.1,1.4-1.4,1.6-2.3,1.6
				h-2.4c-0.4,0-0.6-0.2-0.6-0.6v-1.7h3v0.1c0,0.4-0.3,0.5-0.8,0.5c-0.4,0-1.5,0-1.5,0v1.2c0.2,0,1.1,0,1.3,0c1.4,0,2-0.1,2.3-0.4
				s0.4-0.9,0.4-1.9c0.6,0.6,1.7,1.4,2.5,1.8L325.8,17.4L325.8,17.4z M318.5,17c0.3-0.2,0.5-0.5,0.7-0.8h2.7
				c0.2,0.3,0.4,0.5,0.6,0.8H318.5z"/>
		</g>
	</g>
	<g>
		<g>
			<path class="st8" d="M303.9,19.6c1.6,1.3,2.9,1.8,5.4,2.2v2.7c-2.6-0.5-5.5-1.8-7.4-3.4c-2,1.6-4.4,2.8-7.4,3.4v-2.6
				c2.2-0.4,3.9-1.2,5.4-2.3c-1.7-1.6-3.4-4.4-4.7-7.7h2.4c0.3,0.8,0.8,1.9,1.7,3.1c0.8,1.3,1.7,2.4,2.6,3.2
				c0.7-0.6,1.8-1.7,2.6-3.1c0.8-1.4,1.6-2.7,1.8-4h-11.7V9h14.6c0,0-0.1,0.9-0.4,2.1c-0.4,1.4-1,3.3-1.8,4.6
				C305.8,17.5,304.9,18.7,303.9,19.6z"/>
			<path class="st8" d="M301.9,15.9c-0.8-1.1-1.8-2.2-2.8-3.2l1.9-1.1c0.9,0.7,1.8,1.7,2.8,2.8L301.9,15.9z"/>
		</g>
	</g>
</g>
<g>
	<g>
		<path class="st8" d="M-186.7,90.1c-0.1-1.9-0.1-2.7-0.1-3.3v-5.6h4.5l-0.1,16.3h-3.8l-6.5-8.8l0.1,3.5v5.2h-4.5l0.1-16.2h3.8
			L-186.7,90.1z"/>
		<path class="st8" d="M-170.4,98c-5.2,0-8.8-3.1-8.7-8.6c0-5.3,3.6-8.5,8.8-8.5c5.2,0,8.8,3.1,8.7,8.6
			C-161.6,94.9-165.2,98-170.4,98z M-170.4,84.9c-2.5,0-4.3,1.9-4.3,4.6s1.8,4.6,4.3,4.6c2.6,0,4.3-1.9,4.3-4.6
			C-166.1,86.7-167.8,84.9-170.4,84.9z"/>
		<path class="st8" d="M-148,90.3c-0.1-1.9-0.1-2.7-0.1-3.3v-5.6h4.5l-0.1,16.2h-3.8l-6.5-8.8l0.1,3.6v5.2h-4.5l0.1-16.2h3.8
			L-148,90.3z"/>
		<path class="st8" d="M-133,86.9l1.5-2.9l1.5-2.4h4.8v0.3l-5,7.8l5.3,8v0.2h-4.8l-1.5-2.3l-1.7-3l-1.8,3.1l-1.5,2.2h-4.8v-0.2
			l5.3-8l-4.9-7.8v-0.3h4.8l1.5,2.5L-133,86.9z"/>
		<path class="st8" d="M-115.3,98.2c-5.2,0-8.8-3.1-8.7-8.6c0-5.3,3.6-8.5,8.8-8.5c5.2,0,8.8,3.1,8.7,8.6
			C-106.5,95.2-110.1,98.2-115.3,98.2z M-115.2,85.1c-2.5,0-4.3,1.9-4.3,4.6s1.8,4.6,4.3,4.6c2.6,0,4.3-1.9,4.3-4.6
			C-110.9,86.9-112.6,85.1-115.2,85.1z"/>
		<path class="st8" d="M-180.5,119.8h-3.6l-2.8-7.8l-2.7,7.8h-3.6l-5.8-16.2h4.9l2,5.7c0.4,1.2,0.6,2.6,0.8,3.8l2.9-9.5h3.1l3,9.5
			c0.2-1.2,0.5-2.5,0.9-3.9l1.9-5.6h4.9L-180.5,119.8z"/>
		<path class="st8" d="M-164.9,120.3c-5.2,0-8.8-3.1-8.7-8.6c0-5.3,3.6-8.5,8.8-8.5c5.2,0,8.8,3.1,8.7,8.6
			C-156.1,117.3-159.7,120.3-164.9,120.3z M-164.8,107.2c-2.5,0-4.3,1.9-4.3,4.6s1.8,4.6,4.3,4.6c2.6,0,4.3-1.9,4.3-4.6
			C-160.5,109-162.2,107.2-164.8,107.2z"/>
		<path class="st8" d="M-138.3,120h-4.9l-3.7-5.3h-1.6v5.3h-4.5l0.1-16.2h7.7c4,0,6.1,2.7,6.1,5.6c0,2-0.7,3.7-3.4,4.9l4.1,5.5
			L-138.3,120z M-148.4,107.4v3.9h3.3c1.2,0,1.7-0.9,1.7-1.9s-0.6-2-1.7-2H-148.4z"/>
		<path class="st8" d="M-121.4,104.1l-6.4,7.7c2.2,2.5,4.7,5.5,6.9,8v0.3h-5.5l-4.5-5.4v5.4h-4.5l0.1-16.2h4.5v5.3
			c1.4-1.7,2.8-3.6,4.2-5.3h5.3L-121.4,104.1z"/>
		<path class="st8" d="M-109.3,108.4c-1.1-0.8-2.3-1.1-3.7-1.1c-1.1,0-2.1,0.3-2.1,1.2c0,1.1,1.1,1.3,2.6,1.4
			c3.1,0.4,6.4,1.7,6.4,5.4s-3.4,5.3-6.9,5.3c-2.8,0-4.9-0.5-7-2.9l2.5-2.9c1.5,1.6,3.3,1.8,4.6,1.9c1.5,0,2.5-0.5,2.5-1.4
			c0-0.8-0.9-1.3-2.6-1.5c-3.4-0.3-6.4-1.3-6.4-5.3c0-3.4,3.3-4.9,6.6-4.9c2.4,0,4.2,0.6,5.9,2L-109.3,108.4z"/>
		<path class="st8" d="M-93,120.2v-6.1h-5.7v6.1h-4.5l0.1-16.2h4.5v6.2h5.7V104h4.4l-0.1,16.2H-93z"/>
		<path class="st8" d="M-76.6,120.7c-5.2,0-8.8-3.1-8.7-8.6c0-5.3,3.6-8.5,8.8-8.5c5.2,0,8.8,3.1,8.7,8.6
			C-67.8,117.6-71.4,120.7-76.6,120.7z M-76.6,107.6c-2.5,0-4.3,1.9-4.3,4.6s1.8,4.6,4.3,4.6c2.6,0,4.3-1.9,4.3-4.6
			C-72.3,109.4-73.9,107.6-76.6,107.6z"/>
		<path class="st8" d="M-60.2,116v4.4h-4.5l0.1-16.2h7.7c4.2,0,6.3,2.8,6.3,5.9c0,3.3-2.1,5.9-6.4,5.9H-60.2z M-60.1,112.1h3.2
			c1.2,0,1.9-0.9,1.9-2s-0.6-2-1.9-2h-3.2V112.1z"/>
	</g>
</g>
<circle class="st25" cx="386.7" cy="-19.8" r="34.7"/>
<line class="st25" x1="334.8" y1="-73.8" x2="393.1" y2="-15.4"/>
<line class="st25" x1="393.1" y1="-73.8" x2="334.8" y2="-15.4"/>
<circle class="st8" cx="364.4" cy="-44.6" r="6.5"/>
<g>
	<g>
		<g>
			<path d="M-266.8,116.2v11.5h11.5v-11.5H-266.8z M-256.9,123.1v3.2h-8.3h-0.1v-8.8l0,0h3.6h1.5h3.2l0,0L-256.9,123.1L-256.9,123.1
				z"/>
			<path d="M-257.1,122.5c-0.6-0.2-0.9-0.4-1.3-0.8h1.3v-1.2h-4.1l0.3-0.5h3.8v-1.1h-1.4c0.2-0.3,0.6-0.8,0.8-1.2h-1.5
				c0,0-0.4,0.8-0.8,1.2h-0.5c0.2-0.4,0.3-0.7,0.4-1.2h-1.5c-0.1,0.5-0.3,0.7-0.4,1.2h-0.2c-0.2-0.4-0.7-1.2-0.7-1.2h-1.5
				c0.4,0.4,0.8,1,0.8,1.2h-1.2v1.1h2.3l-0.3,0.5h-2v1.2h1.1c-0.5,0.5-0.7,0.7-1.1,0.9v1.8c0.4-0.3,0.8-0.7,1-0.9v1.1
				c0,0.9,0.6,1.4,1.5,1.4h3.3c0.4,0,1-0.2,1.3-0.6c0.2-0.2,0.3-0.8,0.3-0.8c-0.7-0.2-1.3-0.9-1.3-0.9c0,1-1,1.2-1.6,1.2h-1.7
				c-0.3,0-0.4-0.1-0.4-0.4v-1.3h2.2v0.1c0,0.3-0.2,0.3-0.6,0.3c-0.3,0-1.1,0-1.1,0v0.9c0.1,0,0.8,0,1,0c1,0,1.4-0.1,1.7-0.3
				c0.2-0.2,0.3-0.6,0.3-1.4c0.4,0.4,1.2,1,1.8,1.3V122.5L-257.1,122.5z M-262.5,122.2c0.2-0.2,0.4-0.4,0.5-0.6h2
				c0.1,0.2,0.3,0.4,0.4,0.6H-262.5z"/>
		</g>
		<g>
			<path d="M-259.4,110.1c1.2,0.9,2.1,1.3,3.9,1.6v2c-1.9-0.4-4-1.3-5.3-2.5c-1.5,1.1-3.2,2.1-5.4,2.5v-1.9c1.6-0.3,2.9-0.9,3.9-1.6
				c-1.2-1.2-2.5-3.2-3.4-5.6l1.7-0.1c0.2,0.6,0.6,1.3,1.2,2.2c0.6,0.9,1.2,1.7,1.8,2.3c0.5-0.4,1.3-1.2,1.9-2.2
				c0.6-1,1.1-2,1.3-2.9h-8.5v-1.5h10.7c0,0-0.1,0.7-0.3,1.6c-0.3,1-0.7,2.4-1.3,3.3C-258,108.6-258.7,109.5-259.4,110.1z"/>
			<path d="M-260.8,107.4c-0.6-0.8-1.3-1.6-2-2.3l1.3-0.8c0.7,0.5,1.3,1.2,2,2.1L-260.8,107.4z"/>
		</g>
	</g>
</g>
<path class="st26" d="M-266.1,103.1h9.5c0,0-0.5,4.3-3.9,7c-3.3,2.6-5.5,2.7-5.5,2.7"/>
<path class="st26" d="M-264.7,104.6c0,0,0.9,3.6,3.9,5.7c2.9,2.2,5.3,2.4,5.3,2.4"/>
<rect x="-266.1" y="116.9" class="st26" width="10.1" height="10.1"/>
<line class="st26" x1="-264.9" y1="119.4" x2="-257.1" y2="119.4"/>
<line class="st26" x1="-264.9" y1="121" x2="-257.1" y2="121"/>
<line class="st26" x1="-263.7" y1="117.7" x2="-262.7" y2="119.4"/>
<line class="st26" x1="-258.5" y1="117.7" x2="-259.4" y2="119.4"/>
<path class="st26" d="M-260.9,117.7c0,0-0.7,2.4-1.5,3.3c-0.9,1-2.4,2.4-2.4,2.4"/>
<polyline class="st26" points="-261.9,124 -259.7,124 -259.7,122.6 -263.2,122.6 -263.2,125.4 -259.1,125.4 -258,124.3 "/>
<path class="st26" d="M-259.4,121c0,0,0.7,1.3,1.3,1.8s0.8,0.5,0.8,0.5"/>
<path class="st26" d="M-262.2,104.8c0,0,1.6,1.5,2,2.2"/>
<path class="st27" d="M-243.6,196.7h31.3c0,0-1.6,14.2-13,23.2c-10.8,8.6-18.3,9-18.3,9"/>
<path class="st27" d="M-238.8,201.4c0,0,3.1,11.8,12.8,19s17.7,8,17.7,8"/>
<rect x="-243.6" y="242.2" class="st27" width="33.3" height="33.3"/>
<line class="st27" x1="-239.5" y1="250.4" x2="-213.9" y2="250.4"/>
<line class="st27" x1="-239.5" y1="255.9" x2="-213.9" y2="255.9"/>
<line class="st27" x1="-235.5" y1="244.9" x2="-232.4" y2="250.4"/>
<line class="st27" x1="-218.3" y1="244.9" x2="-221.3" y2="250.4"/>
<path class="st27" d="M-226.4,244.9c0,0-2.2,7.8-5.1,10.9c-2.8,3.2-8,7.9-8,7.9"/>
<polyline class="st27" points="-229.6,265.7 -222.4,265.7 -222.4,261.1 -234,261.1 -234,270.3 -218.3,270.3 -216.7,266.6 "/>
<polyline class="st27" points="-221.5,255.9 -218.3,263.4 -214.4,263.4 "/>
<path class="st27" d="M-230.7,202.2c0,0,5.3,5,6.6,7.3"/>
<g>
	<g>
		<g>
			<path class="st12" d="M-298.9,289v15.9h15.8V289H-298.9z M-285.3,298.5v4.4h-11.5h-0.1v-12.1l0,0h5h2h4.4l0,0v7.7H-285.3z"/>
			<path class="st12" d="M-285.7,297.7c-0.9-0.3-1.2-0.5-1.9-1.2h1.9v-1.6h-5.6l0.4-0.7h5.3v-1.4h-1.9c0.3-0.4,0.8-1.2,1.1-1.6h-2
				c0,0-0.6,1.1-1.1,1.6h-0.7c0.2-0.6,0.4-1,0.6-1.6h-2c-0.2,0.7-0.4,1-0.7,1.6h-0.3c-0.3-0.6-1-1.6-1-1.6h-2.1
				c0.5,0.6,1.1,1.4,1.2,1.6h-1.7v1.4h3.2l-0.4,0.7h-2.8v1.6h1.6c-0.7,0.7-0.9,1-1.6,1.3v2.5c0.5-0.4,1.1-1,1.4-1.3v1.6
				c0,1.2,0.7,1.9,2.1,1.9h4.5c0.6,0,1.4-0.3,1.8-0.8c0.2-0.3,0.5-1.1,0.5-1.1c-0.9-0.3-1.8-1.2-1.8-1.2c-0.1,1.4-1.4,1.6-2.3,1.6
				h-2.4c-0.4,0-0.6-0.2-0.6-0.6v-1.7h3v0.1c0,0.4-0.3,0.5-0.8,0.5c-0.4,0-1.5,0-1.5,0v1.2c0.2,0,1.1,0,1.3,0c1.4,0,2-0.1,2.3-0.4
				c0.3-0.3,0.4-0.9,0.4-1.9c0.6,0.6,1.7,1.4,2.5,1.8v-2.3H-285.7L-285.7,297.7z M-293,297.3c0.3-0.2,0.5-0.5,0.7-0.8h2.7
				c0.2,0.3,0.4,0.5,0.6,0.8H-293z"/>
		</g>
	</g>
	<g>
		<g>
			<path class="st12" d="M-307.6,299.9c1.6,1.3,2.9,1.8,5.4,2.2v2.7c-2.6-0.5-5.5-1.8-7.4-3.4c-2,1.6-4.4,2.8-7.4,3.4v-2.6
				c2.2-0.4,3.9-1.2,5.4-2.3c-1.7-1.6-3.4-4.4-4.7-7.7h2.4c0.3,0.8,0.8,1.9,1.7,3.1c0.8,1.3,1.7,2.4,2.6,3.2
				c0.7-0.6,1.8-1.7,2.6-3.1c0.8-1.4,1.6-2.7,1.8-4h-11.7v-2.1h14.6c0,0-0.1,0.9-0.4,2.1c-0.4,1.4-1,3.3-1.8,4.6
				C-305.7,297.8-306.6,299-307.6,299.9z"/>
			<path class="st12" d="M-309.6,296.2c-0.8-1.1-1.8-2.2-2.8-3.2l1.9-1.1c0.9,0.7,1.8,1.7,2.8,2.8L-309.6,296.2z"/>
		</g>
	</g>
</g>
<g>
	<g>
		<path class="st12" d="M-418.5,297.6c-0.1-1.9-0.1-2.7-0.1-3.3v-5.6h4.5l-0.1,16.3h-3.8l-6.5-8.8l0.1,3.5v5.2h-4.5l0.1-16.2h3.8
			L-418.5,297.6z"/>
		<path class="st12" d="M-402.2,305.5c-5.2,0-8.8-3.1-8.7-8.6c0-5.3,3.6-8.5,8.8-8.5c5.2,0,8.8,3.1,8.7,8.6
			C-393.4,302.4-397,305.5-402.2,305.5z M-402.2,292.4c-2.5,0-4.3,1.9-4.3,4.6s1.8,4.6,4.3,4.6c2.6,0,4.3-1.9,4.3-4.6
			C-397.9,294.2-399.6,292.4-402.2,292.4z"/>
		<path class="st12" d="M-379.8,297.8c-0.1-1.9-0.1-2.7-0.1-3.3v-5.6h4.5l-0.1,16.2h-3.8l-6.5-8.8l0.1,3.6v5.2h-4.5l0.1-16.2h3.8
			L-379.8,297.8z"/>
		<path class="st12" d="M-364.8,294.4l1.5-2.9l1.5-2.4h4.8v0.3l-5,7.8l5.3,8v0.2h-4.8l-1.5-2.3l-1.7-3l-1.8,3.1l-1.5,2.2h-4.8v-0.2
			l5.3-8l-4.9-7.8v-0.3h4.8l1.5,2.5L-364.8,294.4z"/>
		<path class="st12" d="M-347.1,305.7c-5.2,0-8.8-3.1-8.7-8.6c0-5.3,3.6-8.5,8.8-8.5c5.2,0,8.8,3.1,8.7,8.6
			C-338.3,302.7-341.9,305.7-347.1,305.7z M-347,292.6c-2.5,0-4.3,1.9-4.3,4.6s1.8,4.6,4.3,4.6c2.6,0,4.3-1.9,4.3-4.6
			C-342.7,294.4-344.4,292.6-347,292.6z"/>
		<path class="st12" d="M-412.3,327.3h-3.6l-2.8-7.8l-2.7,7.8h-3.6l-5.8-16.2h4.9l2,5.7c0.4,1.2,0.6,2.6,0.8,3.8l2.9-9.5h3.1l3,9.5
			c0.2-1.2,0.5-2.5,0.9-3.9l1.9-5.6h4.9L-412.3,327.3z"/>
		<path class="st12" d="M-396.7,327.8c-5.2,0-8.8-3.1-8.7-8.6c0-5.3,3.6-8.5,8.8-8.5c5.2,0,8.8,3.1,8.7,8.6
			C-387.9,324.8-391.5,327.8-396.7,327.8z M-396.6,314.7c-2.5,0-4.3,1.9-4.3,4.6s1.8,4.6,4.3,4.6c2.6,0,4.3-1.9,4.3-4.6
			C-392.3,316.5-394,314.7-396.6,314.7z"/>
		<path class="st12" d="M-370.1,327.5h-4.9l-3.7-5.3h-1.6v5.3h-4.5l0.1-16.2h7.7c4,0,6.1,2.7,6.1,5.6c0,2-0.7,3.7-3.4,4.9l4.1,5.5
			L-370.1,327.5z M-380.2,314.9v3.9h3.3c1.2,0,1.7-0.9,1.7-1.9s-0.6-2-1.7-2H-380.2z"/>
		<path class="st12" d="M-353.2,311.6l-6.4,7.7c2.2,2.5,4.7,5.5,6.9,8v0.3h-5.5l-4.5-5.4v5.4h-4.5l0.1-16.2h4.5v5.3
			c1.4-1.7,2.8-3.6,4.2-5.3h5.3L-353.2,311.6z"/>
		<path class="st12" d="M-341.1,315.9c-1.1-0.8-2.3-1.1-3.7-1.1c-1.1,0-2.1,0.3-2.1,1.2c0,1.1,1.1,1.3,2.6,1.4
			c3.1,0.4,6.4,1.7,6.4,5.4c0,3.7-3.4,5.3-6.9,5.3c-2.8,0-4.9-0.5-7-2.9l2.5-2.9c1.5,1.6,3.3,1.8,4.6,1.9c1.5,0,2.5-0.5,2.5-1.4
			c0-0.8-0.9-1.3-2.6-1.5c-3.4-0.3-6.4-1.3-6.4-5.3c0-3.4,3.3-4.9,6.6-4.9c2.4,0,4.2,0.6,5.9,2L-341.1,315.9z"/>
		<path class="st12" d="M-324.8,327.7v-6.1h-5.7v6.1h-4.5l0.1-16.2h4.5v6.2h5.7v-6.2h4.4l-0.1,16.2H-324.8z"/>
		<path class="st12" d="M-308.4,328.2c-5.2,0-8.8-3.1-8.7-8.6c0-5.3,3.6-8.5,8.8-8.5c5.2,0,8.8,3.1,8.7,8.6
			C-299.6,325.1-303.2,328.2-308.4,328.2z M-308.4,315.1c-2.5,0-4.3,1.9-4.3,4.6s1.8,4.6,4.3,4.6c2.6,0,4.3-1.9,4.3-4.6
			C-304.1,316.9-305.7,315.1-308.4,315.1z"/>
		<path class="st12" d="M-292,323.5v4.4h-4.5l0.1-16.2h7.7c4.2,0,6.3,2.8,6.3,5.9c0,3.3-2.1,5.9-6.4,5.9L-292,323.5L-292,323.5z
			 M-291.9,319.6h3.2c1.2,0,1.9-0.9,1.9-2s-0.6-2-1.9-2h-3.2V319.6z"/>
	</g>
</g>
<g>
	<g>
		<g>
			<path class="st12" d="M352.2-71.4v15.9H368v-15.9H352.2z M365.8-61.9v4.4h-11.5h-0.1v-12.1l0,0h5h2h4.4l0,0v7.7H365.8z"/>
			<path class="st12" d="M365.4-62.7c-0.9-0.3-1.2-0.5-1.9-1.2h1.9v-1.6h-5.6l0.4-0.7h5.3v-1.4h-1.9c0.3-0.4,0.8-1.2,1.1-1.6h-2
				c0,0-0.6,1.1-1.1,1.6h-0.7c0.2-0.6,0.4-1,0.6-1.6h-2c-0.2,0.7-0.4,1-0.7,1.6h-0.3c-0.3-0.6-1-1.6-1-1.6h-2.1
				c0.5,0.6,1.1,1.4,1.2,1.6h-1.7v1.4h3.2l-0.4,0.7h-2.8v1.6h1.6c-0.7,0.7-0.9,1-1.6,1.3v2.5c0.5-0.4,1.1-1,1.4-1.3v1.6
				c0,1.2,0.7,1.9,2.1,1.9h4.5c0.6,0,1.4-0.3,1.8-0.8c0.2-0.3,0.5-1.1,0.5-1.1c-0.9-0.3-1.8-1.2-1.8-1.2c-0.1,1.4-1.4,1.6-2.3,1.6
				h-2.4c-0.4,0-0.6-0.2-0.6-0.6v-1.7h3v0.1c0,0.4-0.3,0.5-0.8,0.5c-0.4,0-1.5,0-1.5,0v1.2c0.2,0,1.1,0,1.3,0c1.4,0,2-0.1,2.3-0.4
				s0.4-0.9,0.4-1.9c0.6,0.6,1.7,1.4,2.5,1.8L365.4-62.7C365.3-62.7,365.4-62.7,365.4-62.7z M358.1-63.1c0.3-0.2,0.5-0.5,0.7-0.8
				h2.7c0.2,0.3,0.4,0.5,0.6,0.8H358.1z"/>
		</g>
	</g>
	<g>
		<g>
			<path class="st12" d="M343.5-60.5c1.6,1.3,2.9,1.8,5.4,2.2v2.7c-2.6-0.5-5.5-1.8-7.4-3.4c-2,1.6-4.4,2.8-7.4,3.4v-2.6
				c2.2-0.4,3.9-1.2,5.4-2.3c-1.7-1.6-3.4-4.4-4.7-7.7h2.4c0.3,0.8,0.8,1.9,1.7,3.1c0.8,1.3,1.7,2.4,2.6,3.2
				c0.7-0.6,1.8-1.7,2.6-3.1c0.8-1.4,1.6-2.7,1.8-4h-11.7v-2.1h14.6c0,0-0.1,0.9-0.4,2.1c-0.4,1.4-1,3.3-1.8,4.6
				C345.4-62.6,344.5-61.4,343.5-60.5z"/>
			<path class="st12" d="M341.5-64.2c-0.8-1.1-1.8-2.2-2.8-3.2l1.9-1.1c0.9,0.7,1.8,1.7,2.8,2.8L341.5-64.2z"/>
		</g>
	</g>
</g>
<g>
	<g>
		<path class="st12" d="M232.6-62.8c-0.1-1.9-0.1-2.7-0.1-3.3v-5.6h4.5l-0.1,16.3h-3.8l-6.5-8.8l0.1,3.5v5.2h-4.5l0.1-16.2h3.8
			L232.6-62.8z"/>
		<path class="st12" d="M248.9-54.9c-5.2,0-8.8-3.1-8.7-8.6c0-5.3,3.6-8.5,8.8-8.5s8.8,3.1,8.7,8.6C257.7-58,254.1-54.9,248.9-54.9z
			 M248.9-68c-2.5,0-4.3,1.9-4.3,4.6s1.8,4.6,4.3,4.6c2.6,0,4.3-1.9,4.3-4.6C253.2-66.2,251.5-68,248.9-68z"/>
		<path class="st12" d="M271.3-62.6c-0.1-1.9-0.1-2.7-0.1-3.3v-5.6h4.5l-0.1,16.2h-3.8l-6.5-8.8l0.1,3.6v5.2h-4.5l0.1-16.2h3.8
			L271.3-62.6z"/>
		<path class="st12" d="M286.3-66l1.5-2.9l1.5-2.4h4.8v0.3l-5,7.8l5.3,8v0.2h-4.8l-1.5-2.3l-1.7-3l-1.8,3.1l-1.5,2.2h-4.8v-0.2
			l5.3-8l-4.9-7.8v-0.3h4.8l1.5,2.5L286.3-66z"/>
		<path class="st12" d="M304-54.7c-5.2,0-8.8-3.1-8.7-8.6c0-5.3,3.6-8.5,8.8-8.5c5.2,0,8.8,3.1,8.7,8.6
			C312.8-57.7,309.2-54.7,304-54.7z M304.1-67.8c-2.5,0-4.3,1.9-4.3,4.6s1.8,4.6,4.3,4.6c2.6,0,4.3-1.9,4.3-4.6
			C308.4-66,306.7-67.8,304.1-67.8z"/>
		<path class="st12" d="M238.8-33.1h-3.6l-2.8-7.8l-2.7,7.8h-3.6l-5.8-16.2h4.9l2,5.7c0.4,1.2,0.6,2.6,0.8,3.8l2.9-9.5h3.1l3,9.5
			c0.2-1.2,0.5-2.5,0.9-3.9l1.9-5.6h4.9L238.8-33.1z"/>
		<path class="st12" d="M254.4-32.6c-5.2,0-8.8-3.1-8.7-8.6c0-5.3,3.6-8.5,8.8-8.5c5.2,0,8.8,3.1,8.7,8.6
			C263.2-35.6,259.6-32.6,254.4-32.6z M254.5-45.7c-2.5,0-4.3,1.9-4.3,4.6c0,2.7,1.8,4.6,4.3,4.6c2.6,0,4.3-1.9,4.3-4.6
			C258.8-43.9,257.1-45.7,254.5-45.7z"/>
		<path class="st12" d="M281-32.9h-4.9l-3.7-5.3h-1.6v5.3h-4.5l0.1-16.2h7.7c4,0,6.1,2.7,6.1,5.6c0,2-0.7,3.7-3.4,4.9l4.1,5.5
			L281-32.9z M270.9-45.5v3.9h3.3c1.2,0,1.7-0.9,1.7-1.9s-0.6-2-1.7-2H270.9z"/>
		<path class="st12" d="M297.9-48.8l-6.4,7.7c2.2,2.5,4.7,5.5,6.9,8v0.3h-5.5l-4.5-5.4v5.4h-4.5L284-49h4.5v5.3
			c1.4-1.7,2.8-3.6,4.2-5.3h5.3L297.9-48.8z"/>
		<path class="st12" d="M310-44.5c-1.1-0.8-2.3-1.1-3.7-1.1c-1.1,0-2.1,0.3-2.1,1.2c0,1.1,1.1,1.3,2.6,1.4c3.1,0.4,6.4,1.7,6.4,5.4
			s-3.4,5.3-6.9,5.3c-2.8,0-4.9-0.5-7-2.9l2.5-2.9c1.5,1.6,3.3,1.8,4.6,1.9c1.5,0,2.5-0.5,2.5-1.4c0-0.8-0.9-1.3-2.6-1.5
			c-3.4-0.3-6.4-1.3-6.4-5.3c0-3.4,3.3-4.9,6.6-4.9c2.4,0,4.2,0.6,5.9,2L310-44.5z"/>
		<path class="st12" d="M326.3-32.7v-6.1h-5.7v6.1h-4.5l0.1-16.2h4.5v6.2h5.7v-6.2h4.4l-0.1,16.2H326.3z"/>
		<path class="st12" d="M342.7-32.2c-5.2,0-8.8-3.1-8.7-8.6c0-5.3,3.6-8.5,8.8-8.5c5.2,0,8.8,3.1,8.7,8.6
			C351.5-35.3,347.9-32.2,342.7-32.2z M342.7-45.3c-2.5,0-4.3,1.9-4.3,4.6s1.8,4.6,4.3,4.6c2.6,0,4.3-1.9,4.3-4.6
			C347-43.5,345.4-45.3,342.7-45.3z"/>
		<path class="st12" d="M359.1-36.9v4.4h-4.5l0.1-16.2h7.7c4.2,0,6.3,2.8,6.3,5.9c0,3.3-2.1,5.9-6.4,5.9L359.1-36.9L359.1-36.9z
			 M359.2-40.8h3.2c1.2,0,1.9-0.9,1.9-2s-0.6-2-1.9-2h-3.2V-40.8z"/>
	</g>
</g>
<g>
	<path class="st12" d="M-405.8,253.9c0,5.9,4.8,10.6,10.6,10.6c5.8,0,10.6-4.8,10.6-10.6c0-5.9-4.8-10.6-10.6-10.6
		S-405.8,248-405.8,253.9z"/>
</g>
<g>
	<path class="st12" d="M-430.2,253.9c0,5.9,4.8,10.6,10.6,10.6c5.8,0,10.6-4.8,10.6-10.6c0-5.9-4.8-10.6-10.6-10.6
		C-425.4,243.3-430.2,248-430.2,253.9z"/>
</g>
<g>
	<path class="st12" d="M-178.7,253.9c0,5.9,4.8,10.6,10.6,10.6c5.9,0,10.6-4.8,10.6-10.6c0-5.9-4.8-10.6-10.6-10.6
		C-173.9,243.3-178.7,248-178.7,253.9z"/>
</g>
<g>
	<path class="st12" d="M-203.1,253.9c0,5.9,4.8,10.6,10.6,10.6c5.9,0,10.6-4.8,10.6-10.6c0-5.9-4.8-10.6-10.6-10.6
		S-203.1,248-203.1,253.9z"/>
</g>
<g>
	<path class="st12" d="M-174.5,15.1c-0.1-2.2-0.1-3.1-0.1-3.7V5h5.1l-0.1,18.5h-4.3l-7.4-10l0.1,4v5.9h-5.1l0.1-18.4h4.3
		L-174.5,15.1z"/>
</g>
<g>
	<path class="st12" d="M-156,24c-5.9,0-10-3.5-9.9-9.8c0-6,4.1-9.7,10-9.7s10,3.5,9.9,9.8C-146,20.5-150.1,24-156,24z M-156,9.2
		c-2.8,0-4.9,2.2-4.9,5.2c0,3.1,2,5.2,4.9,5.2c3,0,4.9-2.2,4.9-5.2C-151.1,11.2-153,9.2-156,9.2z"/>
</g>
<g>
	<path class="st12" d="M-130.6,15.3c-0.1-2.2-0.1-3.1-0.1-3.7V5.2h5.1l-0.1,18.4h-4.3l-7.4-10l0.1,4.1v5.9h-5.1l0.1-18.4h4.3
		L-130.6,15.3z"/>
</g>
<g>
	<polygon class="st12" points="-107.6,11.2 -105.9,7.9 -104.2,5.2 -98.8,5.2 -98.8,5.6 -104.4,14.4 -98.4,23.5 -98.4,23.7 
		-103.9,23.7 -105.6,21.1 -107.5,17.7 -109.6,21.2 -111.3,23.7 -116.7,23.7 -116.7,23.5 -110.7,14.4 -116.3,5.6 -116.3,5.2 
		-110.8,5.2 -109.1,8.1 	"/>
</g>
<g>
	<path class="st12" d="M-87.5,24.1c-5.9,0-10-3.5-9.9-9.8c0-6,4.1-9.7,10-9.7s10,3.5,9.9,9.8C-77.5,20.7-81.6,24.1-87.5,24.1z
		 M-87.4,9.2c-2.8,0-4.9,2.2-4.9,5.2c0,3.1,2,5.2,4.9,5.2c3,0,4.9-2.2,4.9-5.2C-82.5,11.2-84.5,9.2-87.4,9.2z"/>
</g>
<g>
	<path d="M-260.7,121.3v9.8h9.8v-9.8H-260.7z M-252.3,127.2v2.7h-7.1l0,0v-7.5l0,0h3.1h1.2h2.7l0,0L-252.3,127.2L-252.3,127.2z"/>
	<path d="M-252.5,126.6c-0.5-0.2-0.8-0.3-1.2-0.7h1.2v-1h-3.5l0.2-0.4h3.3v-0.9h-1.2c0.2-0.2,0.5-0.7,0.6-1h-1.2c0,0-0.4,0.7-0.6,1
		h-0.4c0.1-0.4,0.2-0.6,0.3-1h-1.2c0,0.4-0.2,0.6-0.4,1h-0.2c-0.1-0.4-0.6-1-0.6-1h-1.3c0.3,0.4,0.6,0.8,0.7,1h-1v0.9h2l-0.2,0.4
		h-1.7v1h1c-0.4,0.4-0.6,0.6-1,0.8v1.6c0.3-0.2,0.7-0.6,0.8-0.8v1c0,0.8,0.4,1.2,1.3,1.2h2.8c0.4,0,0.8-0.2,1.1-0.5
		c0.1-0.2,0.2-0.7,0.2-0.7c-0.6-0.2-1.2-0.8-1.2-0.8c0,0.8-0.8,1-1.3,1h-1.6c-0.2,0-0.4,0-0.4-0.3v-1.1h1.9l0,0
		c0,0.2-0.1,0.2-0.4,0.2c-0.2,0-0.9,0-0.9,0v0.8c0,0,0.7,0,0.8,0c0.8,0,1.2,0,1.4-0.2c0.2-0.2,0.2-0.5,0.2-1.2
		c0.3,0.4,1,0.8,1.6,1.1L-252.5,126.6L-252.5,126.6z M-257.1,126.4c0.1-0.1,0.3-0.3,0.4-0.5h1.7c0,0.2,0.2,0.3,0.4,0.5H-257.1z"/>
</g>
<g>
	<path d="M-254.6,116.7c1,0.8,1.8,1.2,3.3,1.4v1.7c-1.6-0.3-3.4-1.2-4.5-2.1c-1.2,1-2.7,1.8-4.5,2.1v-1.6c1.3-0.2,2.4-0.8,3.3-1.4
		c-1-1-2.1-2.7-2.9-4.7h1.5c0.2,0.5,0.5,1.2,1,1.9c0.4,0.8,1,1.5,1.6,2c0.4-0.4,1.1-1,1.6-1.9c0.5-0.8,1-1.7,1.1-2.4h-7.2v-1.3h9
		c0,0,0,0.6-0.2,1.3c-0.2,0.8-0.6,2-1.2,2.8C-253.5,115.4-254.1,116.2-254.6,116.7z"/>
	<path d="M-255.9,114.4c-0.5-0.6-1.1-1.3-1.7-2l1.2-0.6c0.6,0.4,1.2,1,1.7,1.8L-255.9,114.4z"/>
</g>
<g>
	<path d="M-324.6,83.4v23.4h23.3V83.4H-324.6z M-304.5,97.4v6.5h-16.9h-0.2V86l0,0h7.5h3h6.5l0,0L-304.5,97.4L-304.5,97.4z"/>
	<path d="M-305,96.1c-1.2-0.5-1.9-0.8-2.8-1.7h2.8v-2.3h-8.4l0.6-1.1h7.8v-2.2h-2.8c0.5-0.6,1.2-1.7,1.6-2.3h-3c0,0-0.9,1.7-1.6,2.3
		h-1.1c0.3-0.9,0.6-1.4,0.8-2.3h-3c-0.2,1.1-0.6,1.6-0.9,2.3h-0.5c-0.3-0.9-1.6-2.3-1.6-2.3h-3.1c0.8,0.9,1.6,2,1.7,2.3h-2.5V91h4.7
		l-0.6,1.1h-4v2.3h2.3c-1.1,1.1-1.4,1.6-2.3,1.9v3.7c0.8-0.6,1.7-1.6,2-1.9v2.3c0,1.9,1.1,2.8,3.1,2.8h6.7c0.9,0,2-0.5,2.6-1.2
		c0.3-0.5,0.6-1.7,0.6-1.7c-1.4-0.5-2.8-1.9-2.8-1.9c0,2-1.9,2.3-3.1,2.3h-3.6c-0.6,0-0.9-0.2-0.9-0.8v-2.6h4.5v0.2
		c0,0.6-0.3,0.6-1.1,0.6c-0.6,0-2.2,0-2.2,0v1.9c0.2,0,1.7,0,1.9,0c2,0,2.8-0.2,3.4-0.6c0.5-0.5,0.6-1.2,0.6-2.8
		c0.8,0.9,2.5,2,3.7,2.6L-305,96.1L-305,96.1z M-315.9,95.5c0.3-0.3,0.8-0.8,1.1-1.2h4c0.2,0.5,0.6,0.8,0.9,1.2H-315.9z"/>
</g>
<g>
	<path d="M-336.3,99.2c2.3,1.9,4.3,2.8,7.9,3.3v4c-3.9-0.8-8.1-2.8-10.7-5c-3,2.3-6.5,4.2-10.9,5v-3.9c3.1-0.6,5.7-1.9,7.9-3.3
		c-2.5-2.3-5-6.5-7-11.3l3.6-0.2c0.5,1.2,1.2,2.8,2.5,4.5c1.1,1.9,2.5,3.6,3.7,4.7c1.1-0.9,2.6-2.5,3.9-4.5c1.2-2,2.3-4,2.6-5.7
		H-350v-3.1h21.4c0,0-0.2,1.4-0.6,3.1c-0.6,2-1.6,4.8-2.8,6.7C-333.5,96.1-335,98-336.3,99.2z"/>
	<path d="M-339.2,93.8c-1.2-1.6-2.6-3.1-4-4.7l2.8-1.6c1.4,1.1,2.8,2.5,4,4.2L-339.2,93.8z"/>
</g>
<polygon class="st12" points="158.2,-52 155.4,-54.8 153.3,-52.8 151.3,-54.8 148.5,-52 150.5,-50 148.5,-48 151.3,-45.1 
	153.3,-47.1 155.4,-45.1 158.2,-48 156.2,-50 "/>
<path class="st12" d="M160.6-44.6c-2.8,0-5.1-2.3-5.1-5.1s2.3-5.1,5.1-5.1s5.1,2.3,5.1,5.1S163.4-44.6,160.6-44.6z"/>
<g>
	<line class="st16" x1="-100.7" y1="-91.5" x2="-71.4" y2="-73.1"/>
	<line class="st16" x1="-71.4" y1="-91.5" x2="-100.7" y2="-73.1"/>
	<ellipse class="st17" cx="-50.6" cy="-82.3" rx="14.6" ry="9.2"/>
</g>
<path d="M13-25.5c-0.1-2.3-0.1-3.1-0.2-3.9v-6.5h5.3v19h-4.4L6-27.1l0.1,4.2v6.1H0.8v-19h4.4L13-25.5z"/>
<path d="M31.1-16.5c-6,0-10.3-3.6-10.3-10c0-6.2,4.2-10,10.3-10s10.3,3.6,10.3,10S37.2-16.5,31.1-16.5z M31.1-31.8c-3,0-5,2.2-5,5.4
	s2.1,5.4,5,5.4c3.1,0,5-2.2,5-5.4C36.2-29.7,34.2-31.8,31.1-31.8z"/>
<path d="M56.3-25.5c-0.1-2.3-0.1-3.2-0.1-3.9v-6.5h5.3v19h-4.4l-7.7-10.2l0.1,4.2v6.1h-5.3v-19h4.4L56.3-25.5z"/>
<path d="M72.7-29.6l1.7-3.4l1.8-2.9h5.6v0.3L76-26.5l6.2,9.3v0.2h-5.7l-1.7-2.6l-2.1-3.5l-2.1,3.6l-1.7,2.6h-5.7v-0.2l6.2-9.3
	l-5.8-9.1v-0.4h5.6l1.7,2.9L72.7-29.6z"/>
<path d="M92.5-16.5c-6,0-10.3-3.6-10.3-10c0-6.2,4.2-10,10.3-10s10.3,3.6,10.3,10S98.6-16.5,92.5-16.5z M92.5-31.8c-3,0-5,2.2-5,5.4
	s2.1,5.4,5,5.4c3.1,0,5-2.2,5-5.4C97.6-29.7,95.6-31.8,92.5-31.8z"/>
<text transform="matrix(0.9723 0 0 1 -543.3956 105.9709)" style="font-family:'NexaBlack'; font-size:29.0193px;">NON</text>
<text transform="matrix(0.9723 0 0 1 -63.2822 -19.1091)" style="font-family:'NotoSansCJKtc-Black-B5pc-H'; font-size:25.3604px;">影</text>
<text transform="matrix(0.9723 0 0 1 -63.2817 10.5491)" style="font-family:'NotoSansCJKtc-Black-B5pc-H'; font-size:25.3604px;">畫</text>
<g class="st28">
	<path d="M21.7-64.2c0,5.1-3.1,8.9-8.6,8.9c-5.4,0-8.9-3.8-8.9-8.9c0-4.9,3.4-8.9,8.9-8.9S21.7-69.3,21.7-64.2z M13.1-57.7
		c3.8,0,6.1-2.6,6.1-6.5s-2.2-6.5-6.1-6.5c-3.8,0-6.3,2.7-6.3,6.5C6.8-60.3,9.3-57.7,13.1-57.7z M15.1-62.8c2.8-0.8,2.5-5.7-1.6-5.7
		c-1.4,0-2.5,0-3.9,0v8.8H12v-2.6h1l1.4,2.6H17L15.1-62.8z M13.6-66.4c1.2,0,1.2,2,0,2h-1.7v-2H13.6z"/>
</g>
<rect x="-465.4" y="86" width="80.7" height="7.2"/>
<g>
	<rect x="327.4" y="86.9" class="st8" width="63.5" height="7.6"/>
</g>
<polygon class="st0" points="355.9,102.6 332.2,78.9 333.3,78.9 357,102.6 "/>
<path class="st29" d="M182.7-6.4c-7,0-12.8-5.7-12.8-12.8S175.6-32,182.7-32s12.8,5.7,12.8,12.8S189.7-6.4,182.7-6.4z M182.7-31.2
	c-6.6,0-12,5.4-12,12s5.4,12,12,12s12-5.4,12-12C194.6-25.8,189.3-31.2,182.7-31.2z"/>
<polygon class="st29" points="146.2,-7.3 145.1,-7.3 168.8,-31 169.9,-31 "/>
<g>
	<rect x="182" y="-21.8" class="st8" width="18.4" height="5.3"/>
	<rect x="141.9" y="-21.8" class="st8" width="49.3" height="5.3"/>
</g>
<polygon class="st29" points="168.8,-7.3 145.1,-31 146.2,-31 169.9,-7.3 "/>
<g>
	<path d="M269.5,3.9c-0.1-1.1-0.1-1.5-0.1-1.9v-3.2h2.6v9.3h-2.2l-3.9-5v2v3h-2.7v-9.3h2.2L269.5,3.9z"/>
	<path d="M279.4,8.4c-3,0-5.2-1.8-5.2-4.9s2.1-4.9,5.2-4.9s5.2,1.8,5.2,4.9S282.5,8.4,279.4,8.4z M279.4,0.8c-1.5,0-2.5,1.1-2.5,2.6
		c0,1.6,1.1,2.6,2.5,2.6c1.5,0,2.5-1.1,2.5-2.6C282,1.9,281,0.8,279.4,0.8z"/>
	<path d="M293,3.9c-0.1-1.1-0.1-1.5-0.1-1.9v-3.2h2.6v9.3h-2.2l-3.9-5v2v3h-2.7v-9.3h2.2L293,3.9z"/>
	<path d="M302,1.9l0.9-1.7l0.9-1.4h2.8v0.1l-2.9,4.5l3.1,4.6v0.1h-2.9L303,6.8l-1-1.7l-1.1,1.8L300,8.2h-2.9V8.1l3.1-4.6L297.3-1
		v-0.1h2.8l0.9,1.4L302,1.9z"/>
	<path d="M312.8,8.4c-3,0-5.2-1.8-5.2-4.9s2.1-4.9,5.2-4.9c3.1,0,5.2,1.8,5.2,4.9S315.9,8.4,312.8,8.4z M312.8,0.8
		c-1.5,0-2.5,1.1-2.5,2.6c0,1.6,1.1,2.6,2.5,2.6c1.5,0,2.5-1.1,2.5-2.6S314.3,0.8,312.8,0.8z"/>
</g>
<g>
	<rect x="95.4" y="-13.7" class="st8" width="32.4" height="6.5"/>
</g>
<g>
	<text transform="matrix(0.9723 0 0 1 71.6672 -6.351)" style="font-family:'NexaBlack'; font-size:4.6599px;">TM</text>
</g>
<g>
	<path d="M24.2,181.5v-13.1c0-3.8-1.7-5.8-5.1-5.8c-3.4-0.1-5.6,2.9-5.6,6.1v12.8H6.4v-24.7h6.5l0.3,3.2c2.2-2.8,5-3.8,8-3.7
		c5.6,0,10.3,2.6,10.3,12.2v13.1H24.2z"/>
	<path d="M34.8,169.2c0-7.5,5.3-13,13.5-13c8.3,0,13.6,5.5,13.6,13S56.7,182,48.3,182C39.9,182,34.8,176.6,34.8,169.2z M54.5,169.2
		c0-3.1-1.9-6.5-6.3-6.5c-4.3,0-6.2,3.4-6.2,6.5s1.9,6.5,6.2,6.5C52.7,175.6,54.5,172.4,54.5,169.2z"/>
	<path d="M83.3,181.5v-13.1c0-3.8-1.7-5.8-5.1-5.8c-3.4-0.1-5.6,2.9-5.6,6.1v12.8h-7.1v-24.7H72l0.3,3.2c2.2-2.8,5-3.8,8-3.7
		c5.6,0,10.3,2.6,10.3,12.2v13.1H83.3z"/>
	<path d="M109.9,156.8h8.6v0.3l-7.9,12l8.3,12.3v0.1h-8.6l-4.6-7.4l-4.5,7.4h-8.7v-0.1l8.4-12.3l-7.9-12v-0.3h8.6l4.1,7.4
		L109.9,156.8z"/>
	<path d="M119,169.2c0-7.5,5.3-13,13.5-13c8.3,0,13.6,5.5,13.6,13s-5.2,12.9-13.6,12.9C124.2,182,119,176.6,119,169.2z M138.8,169.2
		c0-3.1-1.9-6.5-6.3-6.5c-4.3,0-6.2,3.4-6.2,6.5s1.9,6.5,6.2,6.5C136.9,175.6,138.8,172.4,138.8,169.2z"/>
	<path d="M69.2,203.5c-1.9-1.3-3.6-1.8-5.9-1.8c-2.4,0-3.6,0.9-3.6,2.1c0,1.4,1.2,2.1,3.7,2.2c4.9,0.2,10.7,1.2,10.8,8
		c0.1,4-3,8.3-10.8,8.3c-3.7,0-7.4-0.7-11.6-4.2l3.1-5.1c3.1,2.5,6,3.1,8.6,3.1c2.1,0.1,3.8-0.8,3.7-2.1c0-1.2-0.9-2.1-4.2-2.2
		c-4.6-0.2-10.4-2.1-10.4-7.9c0-5.6,5.3-8,10.7-8c3.8,0,6.9,1,9.5,3.2L69.2,203.5z"/>
	<path d="M87.3,189.8v6.9h6.3v6h-6.3v9.3c0,2.6,1.5,3.3,2.8,3.3c0.9,0,2.2-0.2,3-0.6l1.6,6c-1.8,0.7-3.3,1-5.2,1.1
		c-5.4,0.2-9.4-2.1-9.4-9.8v-9.3h-4.4v-6h4.4v-6.1L87.3,189.8z"/>
	<path d="M104.4,196.5v13.1c0,3.8,1.7,5.8,5.1,5.8c3.4,0.1,5.6-2.9,5.6-6.1v-12.8h7.1v24.7h-6.5l-0.3-3.3c-2.2,2.9-5,3.8-8,3.8
		c-5.6,0-10.3-2.5-10.3-12.1v-13.1H104.4z"/>
	<path d="M153.2,186.3v35h-6.5l-0.5-3.2c-2.3,2.9-5.1,3.6-8.2,3.6c-7.3,0-12.2-5.1-12.2-12.8c0-8,5.1-12.9,12.3-12.9
		c2.9,0,5.7,0.9,7.8,3.5v-13.3H153.2z M133.1,208.9c0,3.6,2.2,6.4,6.1,6.4c3.3,0,6.7-1.7,6.7-6.4c0-4.2-3.4-6.4-6.7-6.4
		C135.5,202.5,133.1,205.2,133.1,208.9z"/>
	<path d="M166,190c0,5.4-8.2,5.4-8.2,0S166,184.6,166,190z M158.3,196.5v24.8h7.2v-24.8H158.3z"/>
	<path d="M169.1,208.9c0-7.5,5.3-13,13.5-13c8.3,0,13.6,5.5,13.6,13c0,7.5-5.2,12.9-13.6,12.9C174.3,221.8,169.1,216.4,169.1,208.9z
		 M188.9,208.9c0-3.1-1.9-6.5-6.3-6.5c-4.3,0-6.2,3.4-6.2,6.5c0,3.1,1.9,6.5,6.2,6.5C187,215.4,188.9,212.2,188.9,208.9z"/>
	<path d="M205,204.7h-3.3v-6.4h-2.9v-2.9h9.2v2.9h-3V204.7z M214.7,198.3l2.3-2.9h3.3v9.3H217v-2.8l0.2-2.2c-0.7,1-1.6,2.1-2.2,3
		h-0.6l-2.2-3l0.2,2.2v2.8h-3.2v-9.3h3.2L214.7,198.3z"/>
</g>
<rect x="0.8" y="30.4" class="st8" width="121.4" height="13.4"/>
<g>
	<polygon points="22,43.8 3.2,62.6 14,62.6 32.8,43.8 	"/>
	<polygon points="46.2,30.4 65,11.6 54.1,11.7 35.3,30.4 	"/>
</g>
<polygon points="14,11.7 3.1,11.6 54.1,62.6 64.9,62.6 "/>
<path d="M106.1,32.3c-2.2-8.6-9.9-14.5-18.8-14.5c-8.6,0-16.3,5.8-18.6,14l-7.4-2.1C64.6,18.1,75.3,10,87.3,10
	c12.4,0,23.2,8.4,26.3,20.3L106.1,32.3z"/>
<path d="M87.3,64.2c-12.4,0-23.2-8.4-26.3-20.4l7.5-1.9c2.2,8.6,9.9,14.6,18.8,14.6c8.8,0,16.6-6,18.8-14.5l7.5,1.9
	C110.5,55.9,99.7,64.2,87.3,64.2z"/>
</svg>
