<?xml version="1.0" encoding="utf-8"?>
<!-- Generator: Adobe Illustrator 19.1.1, SVG Export Plug-In . SVG Version: 6.00 Build 0)  -->
<svg version="1.1" id="圖層_1" xmlns="https://www.w3.org/2000/svg" xmlns:xlink="https://www.w3.org/1999/xlink" x="0px" y="0px"
	 viewBox="0 0 25 25" style="enable-background:new 0 0 25 25;" xml:space="preserve">
<style type="text/css">
	.st0{fill:#FFFFFF;}
	.st1{fill:none;stroke:#222222;stroke-width:7.4402;stroke-linecap:round;stroke-miterlimit:10;}
	.st2{fill:none;stroke:#000000;stroke-width:0.954;stroke-linecap:round;stroke-miterlimit:10;}
	.st3{fill:none;stroke:#222222;stroke-width:0.954;stroke-linecap:round;stroke-miterlimit:10;}
	.st4{fill:none;stroke:#222222;stroke-width:7.1537;stroke-linecap:round;stroke-miterlimit:10;}
	.st5{fill:none;stroke:#000000;stroke-width:2;stroke-linecap:round;stroke-miterlimit:10;}
	.st6{fill:none;stroke:#000000;stroke-width:0.477;stroke-linecap:round;stroke-miterlimit:10;}
	.st7{fill:none;stroke:#000000;stroke-width:0.5;stroke-linecap:round;stroke-miterlimit:10;}
	.st8{fill:none;stroke:#000000;stroke-width:1.7;stroke-linecap:round;stroke-miterlimit:10;}
	.st9{fill:#231815;}
	.st10{fill:none;stroke:#000000;stroke-width:1.6;stroke-linecap:round;stroke-miterlimit:10;}
</style>
<path class="st9" d="M4,4.5l3.4,3.4c0.3,0.3,0.3,0.8,0.1,1.1c-1.7,2.4-1.5,5.8,0.7,7.9s5.5,2.4,7.9,0.7c0.3-0.2,0.8-0.2,1.1,0.1
	l3.4,3.4c0.1,0.1,0.3,0.1,0.5,0c0.1-0.1,0.1-0.3,0-0.5l-3.4-3.4c-0.3-0.3-0.3-0.8-0.1-1.1c1.7-2.4,1.5-5.8-0.7-7.9s-5.5-2.4-7.9-0.7
	C8.6,7.7,8.1,7.7,7.8,7.4L4.5,4C4.3,3.9,4.1,3.9,4,4C3.9,4.1,3.9,4.3,4,4.5z M8.6,16.4c-1.8-1.8-2.1-4.5-0.9-6.7
	c0.3-0.5,1-0.6,1.4-0.2l6.3,6.3c0.4,0.4,0.3,1.1-0.2,1.4C13.1,18.5,10.4,18.2,8.6,16.4z M16.4,8.6c1.8,1.8,2.1,4.5,0.9,6.7
	c-0.3,0.5-1,0.6-1.4,0.2L9.6,9.1C9.2,8.7,9.2,8,9.8,7.7C11.9,6.5,14.6,6.8,16.4,8.6z"/>
</svg>
