<?xml version="1.0" encoding="utf-8"?>
<!-- Generator: Adobe Illustrator 24.1.2, SVG Export Plug-In . SVG Version: 6.00 Build 0)  -->
<svg version="1.1" id="圖層_1" xmlns="http://www.w3.org/2000/svg" xmlns:xlink="http://www.w3.org/1999/xlink" x="0px" y="0px"
	 viewBox="0 0 222.2 75.5" style="enable-background:new 0 0 222.2 75.5;" xml:space="preserve">
<style type="text/css">
	.st0{display:none;}
	.st1{display:inline;}
	.st2{fill:#191919;}
	.st3{display:inline;fill:#B5B5B5;}
	.st4{display:inline;fill:#BB181E;}
	.st5{fill:none;stroke:#BB181E;stroke-width:3.8487;stroke-miterlimit:10;}
	.st6{display:inline;fill:#FFFFFF;}
	.st7{fill:#FFFFFF;}
	.st8{display:inline;fill:none;stroke:#000000;stroke-miterlimit:10;}
	.st9{fill:#231815;}
	.st10{display:inline;fill:#040000;}
	.st11{fill:#040000;}
	.st12{display:inline;fill:none;stroke:#000000;stroke-width:0.7639;stroke-miterlimit:10;}
	.st13{display:inline;fill:none;stroke:#FFFFFF;stroke-miterlimit:10;}
	.st14{display:inline;fill:none;stroke:#FFFFFF;stroke-width:1.6518;stroke-miterlimit:10;}
	.st15{fill:none;stroke:#040000;stroke-width:5.5394;stroke-miterlimit:10;}
	.st16{fill:none;stroke:#040000;stroke-width:5.1414;stroke-miterlimit:10;}
	.st17{display:inline;enable-background:new    ;}
	.st18{display:inline;fill:none;stroke:#040000;stroke-width:6;stroke-miterlimit:10;}
	.st19{display:inline;stroke:#000000;stroke-width:0.6;stroke-miterlimit:10;}
	.st20{display:inline;stroke:#000000;stroke-width:2;stroke-miterlimit:10;}
</style>
<g id="圖層_1_1_" class="st0">
	<g class="st1">
		<path class="st2" d="M-74.6-16.4c-4.2,4.2-4.2,10.9,0,15.1s10.9,4.2,15.1,0s4.2-10.9,0-15.1S-70.4-20.5-74.6-16.4z"/>
	</g>
	<path class="st3" d="M-85.6-5.3c-4.2,4.2-4.2,10.9,0,15.1s10.9,4.2,15.1,0s4.2-10.9,0-15.1S-81.4-9.5-85.6-5.3z"/>
	<g class="st1">
		<path class="st2" d="M-139.2-31.9c-4.2,4.2-4.2,10.9,0,15.1s10.9,4.2,15.1,0c4.2-4.2,4.2-10.9,0-15.1
			C-128.3-36.1-135-36-139.2-31.9z"/>
	</g>
	<path class="st3" d="M-150.2-20.8c-4.2,4.2-4.2,10.9,0,15.1s10.9,4.2,15.1,0s4.2-10.9,0-15.1S-146-25-150.2-20.8z"/>
	<g class="st1">
		<g>
			<path d="M95.7-182.3c-0.2-3.7-0.2-5.1-0.3-6.3v-10.5h8.5v30.7h-7.2l-12.4-16.5l0.1,6.7v9.8h-8.5v-30.7h7.2L95.7-182.3z"/>
			<path d="M124.9-167.6c-9.8,0-16.6-5.8-16.6-16.1c0-10.1,6.8-16.1,16.6-16.1s16.6,5.9,16.6,16.1S134.7-167.6,124.9-167.6z
				 M124.9-192.4c-4.8,0-8.1,3.6-8.1,8.7c0,5.1,3.4,8.7,8.1,8.7c4.9,0,8.1-3.6,8.1-8.7C133.1-189,129.9-192.4,124.9-192.4z"/>
			<path d="M165.7-182.3c-0.2-3.7-0.2-5.1-0.3-6.3v-10.5h8.5v30.7h-7.2l-12.4-16.5l0.1,6.7v9.8h-8.5v-30.7h7.2L165.7-182.3z"/>
			<path d="M192.1-188.9l2.8-5.5l2.7-4.6h9.1v0.5l-9.4,14.8l10,15.1v0.3h-9.2l-2.8-4.3l-3.3-5.7l-3.4,5.8l-2.7,4.2h-9.2v-0.3
				l10-15.1l-9.4-14.8v-0.5h9.1l2.8,4.7L192.1-188.9z"/>
			<path d="M224.1-167.6c-9.8,0-16.6-5.8-16.6-16.1c0-10.1,6.8-16.1,16.6-16.1s16.6,5.9,16.6,16.1S233.9-167.6,224.1-167.6z
				 M224.1-192.4c-4.8,0-8.1,3.6-8.1,8.7c0,5.1,3.4,8.7,8.1,8.7c4.9,0,8.1-3.6,8.1-8.7C232.3-189,229-192.4,224.1-192.4z"/>
			<path d="M107.7-119.4h-6.9l-5.2-14.7l-5.1,14.7h-6.9l-11.1-30.7h9.2l3.8,10.8c0.7,2.3,1.2,4.8,1.6,7.1l5.5-17.9h5.8l5.7,17.9
				c0.4-2.3,1-4.8,1.7-7.3l3.6-10.6h9.2L107.7-119.4z"/>
			<path d="M135.6-118.6c-9.8,0-16.6-5.8-16.6-16.1c0-10.1,6.8-16.1,16.6-16.1s16.6,5.9,16.6,16.1
				C152.2-124.4,145.4-118.6,135.6-118.6z M135.6-143.4c-4.8,0-8.1,3.6-8.1,8.7s3.4,8.7,8.1,8.7c4.9,0,8.1-3.6,8.1-8.7
				C143.7-139.9,140.5-143.4,135.6-143.4z"/>
			<path d="M184.2-119.3h-9.3l-6.9-9.9h-2.9v9.9h-8.4V-150h14.6c7.6,0,11.6,5,11.6,10.6c0,3.8-1.3,7-6.3,9.3l7.8,10.3L184.2-119.3
				L184.2-119.3z M165-143.1v7.4h6.2c2.2,0,3.2-1.7,3.2-3.6c0-1.9-1.1-3.8-3.3-3.8L165-143.1L165-143.1z"/>
			<path d="M214.3-149.5L202.2-135c4.2,4.7,9,10.3,13.1,15.1v0.5h-10.4l-8.5-10.2v10.2H188v-30.7h8.4v10.1c2.6-3.2,5.3-6.8,7.8-10.1
				h10.1V-149.5L214.3-149.5z"/>
			<path d="M235.5-141.5c-2.1-1.6-4.4-2.1-7-2.1c-2.1,0-4.1,0.7-4.1,2.3c0,2.1,2,2.4,4.9,2.7c5.9,0.7,12.1,3.1,12.1,10.2
				c0,7-6.4,9.9-13.1,10c-5.4,0-9.2-0.9-13.3-5.4l4.6-5.5c2.9,2.9,6.2,3.5,8.7,3.5c2.8,0,4.7-1,4.7-2.7c0-1.5-1.7-2.5-5-2.8
				c-6.5-0.6-12.1-2.3-12.1-9.9c0-6.5,6.2-9.3,12.5-9.3c4.5,0,8,1.1,11.2,3.6L235.5-141.5z"/>
			<path d="M264.7-119.3v-11.6H254v11.6h-8.4V-150h8.4v11.7h10.7V-150h8.4v30.7H264.7L264.7-119.3z"/>
			<path d="M294.1-118.6c-9.8,0-16.6-5.8-16.6-16.1c0-10.1,6.8-16.1,16.6-16.1s16.6,5.9,16.6,16.1
				C310.6-124.4,303.9-118.6,294.1-118.6z M294.1-143.4c-4.8,0-8.1,3.6-8.1,8.7s3.4,8.7,8.1,8.7c5,0,8.1-3.6,8.1-8.7
				C302.2-139.9,299-143.4,294.1-143.4z"/>
			<path d="M323.5-127.6v8.3h-8.4V-150h14.5c8,0,12,5.2,12,11.2c0,6.3-4,11.1-12,11.2C329.5-127.6,323.5-127.6,323.5-127.6z
				 M323.5-134.9h6c2.3,0,3.5-1.8,3.5-3.8s-1.2-3.9-3.5-3.9h-6V-134.9z"/>
		</g>
	</g>
	<rect x="254" y="-187.5" class="st4" width="84.8" height="3.8"/>
	<g class="st1">
		<g>
			<g>
				<path d="M101.1-72.2v20.6h20.5v-20.6H101.1z M118.8-59.9v5.8h-14.9h-0.1v-15.7l0,0h6.5h2.6h5.7l0,0L118.8-59.9L118.8-59.9z"/>
				<path d="M118.3-61c-1.1-0.4-1.6-0.7-2.4-1.5h2.4v-2.1H111l0.5-0.9h6.8v-1.9h-2.5c0.4-0.5,1.1-1.5,1.4-2.1h-2.6
					c0,0-0.8,1.5-1.4,2.1h-0.9c0.3-0.8,0.6-1.2,0.7-2.1h-2.6c-0.2,0.9-0.5,1.3-0.8,2.1h-0.4c-0.3-0.8-1.3-2.1-1.3-2.1h-2.7
					c0.7,0.8,1.4,1.8,1.5,2.1h-2.2v1.9h4.1l-0.5,0.9h-3.6v2.1h2c-0.9,0.9-1.2,1.3-2,1.6v3.3c0.7-0.5,1.5-1.3,1.8-1.6v2
					c0,1.6,1,2.5,2.7,2.5h5.9c0.8,0,1.8-0.4,2.3-1.1c0.3-0.4,0.6-1.5,0.6-1.5c-1.2-0.4-2.4-1.6-2.4-1.6c0,1.8-1.7,2.1-2.8,2.1h-3.1
					c-0.5,0-0.8-0.2-0.8-0.7v-2.3h3.9v0.1c0,0.5-0.3,0.6-1,0.6c-0.5,0-1.9,0-1.9,0v1.6c0.2,0,1.5,0,1.7,0c1.8,0,2.5-0.2,3-0.6
					c0.4-0.4,0.5-1.1,0.5-2.5c0.7,0.8,2.2,1.8,3.3,2.3L118.3-61L118.3-61z M108.8-61.5c0.3-0.3,0.7-0.7,0.9-1.1h3.5
					c0.2,0.4,0.5,0.7,0.8,1.1H108.8z"/>
			</g>
			<g>
				<path d="M90.1-58.3c2.1,1.6,3.8,2.4,7,2.9v3.5c-3.4-0.7-7.1-2.4-9.5-4.4c-2.6,2-5.8,3.7-9.6,4.4v-3.4c2.8-0.5,5.1-1.6,7-2.9
					c-2.2-2.1-4.4-5.7-6.1-10l3.1-0.1c0.4,1.1,1.1,2.4,2.2,4c1,1.6,2.2,3.1,3.3,4.1c0.9-0.8,2.3-2.2,3.4-4c1.1-1.8,2-3.5,2.3-5.1H78
					V-72h18.9c0,0-0.1,1.2-0.5,2.8c-0.5,1.8-1.3,4.2-2.4,5.9C92.6-61.1,91.3-59.5,90.1-58.3z"/>
				<path d="M87.5-63.1c-1.1-1.4-2.3-2.8-3.6-4.1l2.4-1.4c1.2,0.9,2.4,2.2,3.6,3.7L87.5-63.1z"/>
			</g>
		</g>
	</g>
	<g class="st1">
		<g>
			<text transform="matrix(0.9723 0 0 1 -353.6953 -108.4486)" style="font-family:  font-size:43.8446px;">NONXO</text>
			<text transform="matrix(0.9723 0 0 1 -353.6953 -59.4086)" style="font-family:  font-size:43.8446px;">WORKSHOP</text>
		</g>
		<line class="st5" x1="-172.6" y1="-125.7" x2="-87.8" y2="-125.7"/>
		<g>
			<g>
				<g>
					<path d="M-325.5-12.4V8.2h20.5v-20.6C-305-12.4-325.5-12.4-325.5-12.4z M-307.8-0.1v5.8h-14.8h-0.1v-15.8l0,0h6.5h2.6h5.7l0,0
						L-307.8-0.1L-307.8-0.1z"/>
					<path d="M-308.3-1.2c-1.1-0.4-1.6-0.7-2.4-1.5h2.4v-2h-7.3l0.5-0.9h6.8v-1.9h-2.5c0.4-0.5,1.1-1.5,1.4-2.1h-2.5
						c0,0-0.8,1.5-1.4,2.1h-0.9c0.3-0.8,0.6-1.2,0.7-2.1h-2.6c-0.2,0.9-0.5,1.3-0.8,2.1h-0.4c-0.4-0.8-1.3-2.1-1.3-2.1h-2.7
						c0.6,0.8,1.4,1.8,1.5,2.1h-2.2v1.9h4.1l-0.5,0.9h-3.6v2.1h2c-0.9,0.9-1.2,1.3-2,1.6v3.3c0.7-0.5,1.5-1.3,1.8-1.6v2
						c0,1.6,1,2.5,2.7,2.5h5.9c0.8,0,1.8-0.3,2.3-1.1c0.3-0.4,0.6-1.5,0.6-1.5c-1.2-0.4-2.4-1.6-2.4-1.6c-0.1,1.8-1.9,2.1-2.9,2.1
						h-3.1c-0.5,0-0.8-0.2-0.8-0.7V0.1h3.8v0.1c0,0.5-0.3,0.6-1,0.6c-0.5,0-1.9,0-1.9,0v1.6c0.2,0,1.5,0,1.7,0c1.8,0,2.5-0.2,3-0.6
						c0.4-0.4,0.5-1.2,0.5-2.5c0.7,0.8,2.2,1.8,3.3,2.3L-308.3-1.2L-308.3-1.2z M-317.8-1.6c0.4-0.3,0.6-0.7,0.9-1h3.5
						c0.2,0.3,0.5,0.7,0.8,1C-312.6-1.6-317.8-1.6-317.8-1.6z"/>
				</g>
				<g>
					<path d="M-336.5,1.6c2.1,1.7,3.8,2.4,7,2.9V8c-3.4-0.7-7.1-2.3-9.5-4.4c-2.6,2-5.8,3.7-9.6,4.4V4.6c2.8-0.5,5.1-1.6,7-3
						c-2.2-2.1-4.4-5.7-6.1-10l3.1-0.1c0.4,1.1,1.1,2.4,2.1,4s2.1,3.1,3.3,4.1c0.9-0.8,2.3-2.2,3.4-4s2-3.5,2.3-5.1h-15.2v-2.7h18.9
						c0,0-0.1,1.2-0.5,2.8c-0.5,1.8-1.3,4.2-2.4,5.9C-334-1.3-335.2,0.3-336.5,1.6z"/>
					<path d="M-339-3.3c-1.1-1.4-2.3-2.8-3.6-4.1l2.4-1.4c1.2,0.9,2.4,2.2,3.6,3.7L-339-3.3z"/>
				</g>
			</g>
		</g>
	</g>
	<path class="st1" d="M89.9,140.8c-6.8,1-13.1-3.7-14.1-10.4c-1-6.8,3.7-13.1,10.4-14.1c6.8-1,13.1,3.7,14.1,10.4
		C101.3,133.5,96.6,139.8,89.9,140.8z"/>
	<path class="st6" d="M89.9,140.8c-6.8,1-13.1-3.7-14.1-10.4c-1-6.8,3.7-13.1,10.4-14.1c6.8-1,13.1,3.7,14.1,10.4
		C101.3,133.5,96.6,139.8,89.9,140.8 M90.1,142.5c7.7-1.1,13-8.3,11.9-16s-8.3-13-16-11.9s-13,8.3-11.9,16
		C75.3,138.3,82.4,143.6,90.1,142.5L90.1,142.5z"/>
	<g class="st1">
		<polygon points="82.2,134.7 75.9,143.2 69.9,138.7 65.5,144.8 57,138.5 61.5,132.5 55.4,128 61.7,119.5 67.7,124 72.2,118 
			80.7,124.3 76.2,130.3 		"/>
		<path class="st7" d="M75.9,143.2l-6-4.5l-4.5,6l-8.5-6.3l4.5-6l-6-4.5l6.3-8.5l6,4.5l4.5-6l8.5,6.3l-4.5,6l6,4.5L75.9,143.2
			 M76.3,145.6l1-1.4l6.3-8.5l1-1.4l-1.4-1l-4.6-3.4l3.4-4.6l1-1.4l-1.4-1l-8.5-6.3l-1.4-1l-1,1.4l-3.4,4.6l-4.6-3.4l-1.4-1l-1,1.4
			l-6.3,8.5l-1,1.4l1.4,1l4.6,3.4l-3.4,4.6l-1,1.4l1.4,1l8.5,6.3l1.4,1l1-1.4l3.4-4.6l4.6,3.4L76.3,145.6L76.3,145.6z"/>
	</g>
	<polygon class="st8" points="139,-37.9 131.6,-45.4 126.3,-40.1 121,-45.4 113.5,-37.9 118.8,-32.6 113.5,-27.3 121,-19.9 
		126.3,-25.2 131.6,-19.9 139,-27.3 133.7,-32.6 	"/>
	<g class="st1">
		<g>
			<g>
				<path d="M145.7-45c6.8,0,12.4,5.6,12.4,12.4s-5.6,12.4-12.4,12.4c-3.2,0-6-1.2-8.2-3.2l2.7-2.7l1.2-1.2l-1.2-1.2l-4.1-4.1
					l4.1-4.1l1.2-1.2l-1.2-1.2l-2.7-2.7C139.7-43.8,142.6-45,145.7-45 M145.7-46c-3.3,0-6.4,1.2-8.9,3.4l-0.8,0.7l0.7,0.7l2.7,2.7
					l0.5,0.5l-0.5,0.5l-4.1,4.1l-0.7,0.7l0.7,0.7l4.1,4.1l0.5,0.5l-0.5,0.5l-2.7,2.7l-0.7,0.7l0.8,0.7c2.5,2.2,5.6,3.4,8.9,3.4
					c7.4,0,13.4-6,13.4-13.4C159.1-40,153.1-46,145.7-46L145.7-46z"/>
			</g>
		</g>
		<g>
			<g>
				<path d="M136.3-40.6l2.7,2.7l-5.3,5.3l5.3,5.3l-2.7,2.7c-1.8-2.2-3-5-3-8S134.5-38.5,136.3-40.6 M136.3-42.1l-0.7,0.8
					c-2.1,2.4-3.2,5.5-3.2,8.7s1.1,6.2,3.2,8.7l0.7,0.8l0.8-0.8l2.7-2.7l0.7-0.7l-0.7-0.7l-4.6-4.6l4.6-4.6l0.7-0.7l-0.7-0.7
					l-2.7-2.7L136.3-42.1L136.3-42.1z"/>
			</g>
		</g>
	</g>
	<g class="st1">
		<path d="M104.8-37.1c-2.2,0-4.2,0.9-5.7,2.2L101-33l0.9,0.9l-0.9,0.9l-2.8,2.7l2.8,2.8l0.9,0.9l-0.9,0.9L99.1-22
			c1.5,1.4,3.6,2.2,5.7,2.2c4.8,0,8.7-3.9,8.7-8.7S109.5-37.1,104.8-37.1z"/>
	</g>
	<g class="st1">
		<polygon points="81.5,-24.8 85.2,-28.5 81.5,-32.2 87.6,-38.2 91.2,-34.6 94.9,-38.2 101,-32.2 97.3,-28.5 101,-24.8 94.9,-18.8 
			91.2,-22.4 87.6,-18.8 		"/>
		<g>
			<path class="st7" d="M94.9-37.4l3.2,3.2l1.9,1.9l-3.7,3.7l3.7,3.7l-1.8,2l-3.3,3.3l-3.7-3.7l-3.6,3.7l-5.2-5.2l3.7-3.7l-3.7-3.7
				l5.2-5.2l3.7,3.7L94.9-37.4 M87.6-39.1l-0.9,0.9L81.5-33l-0.9,0.9l0.9,0.9l2.8,2.8l-2.8,2.8l-0.9,0.9l0.9,0.9l5.2,5.2l0.9,0.9
				l0.9-0.9l2.7-3l2.8,2.8l0.9,0.9l0.9-0.9L99-22l1.9-1.9l0.9-0.9l-0.9-0.9l-2.7-2.8l2.8-2.8l0.9-0.9l-0.9-0.9L99.1-35l-3.2-3.2
				L95-39.1l-0.9,0.9l-2.9,2.8l-2.8-2.8L87.6-39.1L87.6-39.1z"/>
		</g>
	</g>
	<g class="st1">
		<path class="st9" d="M332.1,184.8c-4.1,0-7.5,3.4-7.5,7.5s3.4,7.5,7.5,7.5s7.5-3.4,7.5-7.5S336.3,184.8,332.1,184.8z"/>
	</g>
	<g class="st1">
		<path class="st9" d="M317.1,185.4c-1,0-2.5-0.4-3.3,0c-1.2,0.6-3,2.4-3.6,3.6c-0.4,0.8,0,2.3,0,3.3s-0.4,2.5,0,3.3
			c0.6,1.2,2.4,3,3.6,3.6c0.8,0.4,2.3,0,3.3,0s2.5,0.4,3.3,0c1.2-0.6,3-2.4,3.6-3.6c0.4-0.8,0-2.3,0-3.3s0.4-2.5,0-3.3
			c-0.6-1.2-2.4-3-3.6-3.6C319.6,185,318,185.4,317.1,185.4z"/>
	</g>
	<g class="st1">
		<path class="st9" d="M332.5,170c-1,0-2.5-0.4-3.3,0c-1.2,0.6-3,2.4-3.6,3.6c-0.4,0.8,0,2.3,0,3.3s-0.4,2.5,0,3.3
			c0.6,1.2,2.4,3,3.6,3.6c0.8,0.4,2.3,0,3.3,0s2.5,0.4,3.3,0c1.2-0.6,3-2.4,3.6-3.6c0.4-0.8,0-2.3,0-3.3s0.4-2.5,0-3.3
			c-0.6-1.2-2.4-3-3.6-3.6C335.1,169.6,333.5,170,332.5,170z"/>
	</g>
	<g class="st1">
		<path class="st9" d="M301.8,186c-0.7,0-2.7-1.1-3.3-0.8c-0.9,0.4-3.4,2.9-3.8,3.8c-0.3,0.6,0.8,2.6,0.8,3.3s-1.1,2.7-0.8,3.3
			c0.4,0.9,2.9,3.4,3.8,3.8c0.6,0.3,2.6-0.8,3.3-0.8c0.7,0,2.7,1.1,3.3,0.8c0.9-0.4,3.4-2.9,3.8-3.8c0.3-0.6-0.8-2.6-0.8-3.3
			s1.1-2.7,0.8-3.3c-0.4-0.9-2.9-3.4-3.8-3.8C304.5,184.9,302.5,186,301.8,186z"/>
	</g>
	<g class="st1">
		<path class="st9" d="M317.1,170.3c-0.7,0-2.7-1.1-3.3-0.8c-0.9,0.4-3.4,2.9-3.8,3.8c-0.3,0.6,0.8,2.6,0.8,3.3s-1.1,2.7-0.8,3.3
			c0.4,0.9,2.9,3.4,3.8,3.8c0.6,0.3,2.6-0.8,3.3-0.8c0.7,0,2.7,1.1,3.3,0.8c0.9-0.4,3.4-2.9,3.8-3.8c0.3-0.6-0.8-2.6-0.8-3.3
			s1.1-2.7,0.8-3.3c-0.4-0.9-2.9-3.4-3.8-3.8C319.7,169.2,317.8,170.3,317.1,170.3z"/>
	</g>
	<g class="st1">
		<path class="st9" d="M332.5,155c-0.7,0-2.7-1.1-3.3-0.8c-0.9,0.4-3.4,2.9-3.8,3.8c-0.3,0.6,0.8,2.6,0.8,3.3s-1.1,2.7-0.8,3.3
			c0.4,0.9,2.9,3.4,3.8,3.8c0.6,0.3,2.6-0.8,3.3-0.8c0.7,0,2.7,1.1,3.3,0.8c0.9-0.4,3.4-2.9,3.8-3.8c0.3-0.6-0.8-2.6-0.8-3.3
			s1.1-2.7,0.8-3.3c-0.4-0.9-2.9-3.4-3.8-3.8C335.2,153.9,333.3,155,332.5,155z"/>
	</g>
	<g class="st1">
		<path class="st9" d="M286.4,186.3c-0.5,0-2.8-1.8-3.3-1.6c-0.6,0.3-3.8,3.5-4,4c-0.2,0.4,1.6,2.8,1.6,3.3s-1.8,2.8-1.6,3.3
			c0.3,0.6,3.5,3.8,4,4c0.4,0.2,2.8-1.6,3.3-1.6s2.8,1.8,3.3,1.6c0.6-0.3,3.8-3.5,4-4c0.2-0.4-1.6-2.8-1.6-3.3s1.8-2.8,1.6-3.3
			c-0.3-0.6-3.5-3.8-4-4S286.9,186.3,286.4,186.3z"/>
	</g>
	<g class="st1">
		<path class="st9" d="M301.8,170.9c-0.5,0-2.8-1.8-3.3-1.6c-0.6,0.3-3.8,3.5-4,4c-0.2,0.4,1.6,2.8,1.6,3.3s-1.8,2.8-1.6,3.3
			c0.3,0.6,3.5,3.8,4,4c0.4,0.2,2.8-1.6,3.3-1.6s2.8,1.8,3.3,1.6c0.6-0.3,3.8-3.5,4-4c0.2-0.4-1.6-2.8-1.6-3.3s1.8-2.8,1.6-3.3
			c-0.3-0.6-3.5-3.8-4-4S302.3,170.9,301.8,170.9z"/>
	</g>
	<g class="st1">
		<path class="st9" d="M317.1,155.5c-0.5,0-2.8-1.8-3.3-1.6c-0.6,0.3-3.8,3.5-4,4c-0.2,0.4,1.6,2.8,1.6,3.3s-1.8,2.8-1.6,3.3
			c0.3,0.6,3.5,3.8,4,4c0.4,0.2,2.8-1.6,3.3-1.6s2.8,1.8,3.3,1.6c0.6-0.3,3.8-3.5,4-4c0.2-0.4-1.6-2.8-1.6-3.3s1.8-2.8,1.6-3.3
			c-0.3-0.6-3.5-3.8-4-4S317.5,155.5,317.1,155.5z"/>
	</g>
	<g class="st1">
		<path class="st9" d="M301.8,156.4c-0.2,0-3-2.5-3.2-2.4c-0.3,0.1-4.1,4-4.3,4.3c-0.1,0.2,2.4,3,2.4,3.2s-2.5,3-2.4,3.2
			c0.1,0.3,4,4.1,4.3,4.3c0.2,0.1,3-2.4,3.2-2.4s3,2.5,3.2,2.4c0.3-0.1,4.1-4,4.3-4.3c0.1-0.2-2.4-3-2.4-3.2s2.5-3,2.4-3.2
			c-0.1-0.3-4-4.1-4.3-4.3C304.8,153.9,302,156.4,301.8,156.4z"/>
	</g>
	<g class="st1">
		<path class="st9" d="M286.4,171.8c-0.2,0-3-2.5-3.2-2.4c-0.3,0.1-4.1,4-4.3,4.3c-0.1,0.2,2.4,3,2.4,3.2s-2.5,3-2.4,3.2
			c0.1,0.3,4,4.1,4.3,4.3c0.2,0.1,3-2.4,3.2-2.4s3,2.5,3.2,2.4c0.3-0.1,4.1-4,4.3-4.3c0.1-0.2-2.4-3-2.4-3.2s2.5-3,2.4-3.2
			c-0.1-0.3-4-4.1-4.3-4.3C289.4,169.3,286.6,171.8,286.4,171.8z"/>
	</g>
	<g class="st1">
		<polygon class="st9" points="294.1,158.3 289.6,153.8 286.4,157 283.2,153.8 278.7,158.3 281.9,161.5 278.7,164.7 283.2,169.2 
			286.4,166 289.6,169.2 294.1,164.7 290.9,161.5 		"/>
	</g>
	<polygon class="st10" points="222,-54.9 213.8,-63.1 207.9,-57.3 202.1,-63.1 193.9,-54.9 199.8,-49.1 193.9,-43.3 202.1,-35.1 
		207.9,-40.9 213.8,-35.1 222,-43.3 216.1,-49.1 	"/>
	<g class="st1">
		<path class="st11" d="M229.3-34.5c-8,0-14.6-6.5-14.6-14.6s6.5-14.6,14.6-14.6c8,0,14.6,6.5,14.6,14.6S237.4-34.5,229.3-34.5z"/>
		<path class="st7" d="M229.3-62.7c7.5,0,13.6,6.1,13.6,13.6s-6.1,13.6-13.6,13.6s-13.6-6.1-13.6-13.6S221.8-62.7,229.3-62.7
			 M229.3-64.6c-8.6,0-15.5,7-15.5,15.5s7,15.5,15.5,15.5c8.6,0,15.5-7,15.5-15.5S237.9-64.6,229.3-64.6L229.3-64.6z"/>
	</g>
	<g class="st1">
		<g>
			<g>
				<g>
					<path class="st11" d="M171.9,136.1V152h15.8v-15.9H171.9z M185.5,145.6v4.4H174h-0.1v-12.1l0,0h5h2h4.4l0,0v7.7L185.5,145.6
						L185.5,145.6z"/>
					<path class="st11" d="M185.1,144.8c-0.9-0.3-1.2-0.5-1.9-1.2h1.9V142h-5.6l0.4-0.7h5.3v-1.4h-1.9c0.3-0.4,0.8-1.2,1.1-1.6h-2
						c0,0-0.6,1.1-1.1,1.6h-0.7c0.2-0.6,0.4-1,0.6-1.6h-2c-0.2,0.7-0.4,1-0.7,1.6h-0.3c-0.3-0.6-1-1.6-1-1.6h-2.1
						c0.5,0.6,1.1,1.4,1.2,1.6h-1.7v1.4h3.2l-0.4,0.7h-2.8v1.6h1.6c-0.7,0.7-0.9,1-1.6,1.3v2.5c0.5-0.4,1.1-1,1.4-1.3v1.6
						c0,1.2,0.7,1.9,2.1,1.9h4.5c0.6,0,1.4-0.3,1.8-0.8c0.2-0.3,0.5-1.1,0.5-1.1c-0.9-0.3-1.8-1.2-1.8-1.2c-0.1,1.4-1.4,1.6-2.3,1.6
						h-2.4c-0.4,0-0.6-0.2-0.6-0.6v-1.7h3v0.1c0,0.4-0.3,0.5-0.8,0.5c-0.4,0-1.5,0-1.5,0v1.2c0.2,0,1.1,0,1.3,0c1.4,0,2-0.1,2.3-0.4
						c0.3-0.3,0.4-0.9,0.4-1.9c0.6,0.6,1.7,1.4,2.5,1.8v-2.3L185.1,144.8L185.1,144.8z M177.8,144.4c0.3-0.2,0.5-0.5,0.7-0.8h2.7
						c0.2,0.3,0.4,0.5,0.6,0.8H177.8z"/>
				</g>
			</g>
			<g>
				<g>
					<path class="st11" d="M163.2,147c1.6,1.3,2.9,1.8,5.4,2.2v2.7c-2.6-0.5-5.5-1.8-7.4-3.4c-2,1.6-4.4,2.8-7.4,3.4v-2.6
						c2.2-0.4,3.9-1.2,5.4-2.3c-1.7-1.6-3.4-4.4-4.7-7.7h2.4c0.3,0.8,0.8,1.9,1.7,3.1c0.8,1.3,1.7,2.4,2.6,3.2
						c0.7-0.6,1.8-1.7,2.6-3.1c0.8-1.4,1.6-2.7,1.8-4h-11.7v-2.1h14.6c0,0-0.1,0.9-0.4,2.1c-0.4,1.4-1,3.3-1.8,4.6
						C165.1,144.9,164.2,146.1,163.2,147z"/>
					<path class="st11" d="M161.2,143.3c-0.8-1.1-1.8-2.2-2.8-3.2l1.9-1.1c0.9,0.7,1.8,1.7,2.8,2.8L161.2,143.3z"/>
				</g>
			</g>
		</g>
		<g>
			<g>
				<path class="st11" d="M52.3,144.7c-0.1-1.9-0.1-2.7-0.1-3.3v-5.6h4.5l-0.1,16.3h-3.8l-6.5-8.8l0.1,3.5v5.2h-4.5l0.1-16.2h3.8
					L52.3,144.7z"/>
				<path class="st11" d="M68.6,152.6c-5.2,0-8.8-3.1-8.7-8.6c0-5.3,3.6-8.5,8.8-8.5s8.8,3.1,8.7,8.6
					C77.4,149.5,73.8,152.6,68.6,152.6z M68.6,139.5c-2.5,0-4.3,1.9-4.3,4.6c0,2.7,1.8,4.6,4.3,4.6c2.6,0,4.3-1.9,4.3-4.6
					C72.9,141.3,71.2,139.5,68.6,139.5z"/>
				<path class="st11" d="M91,144.9c-0.1-1.9-0.1-2.7-0.1-3.3V136h4.5l-0.1,16.2h-3.8l-6.5-8.8l0.1,3.6v5.2h-4.5l0.1-16.2h3.8
					L91,144.9z"/>
				<path class="st11" d="M106,141.5l1.5-2.9l1.5-2.4h4.8v0.3l-5,7.8l5.3,8v0.2h-4.8l-1.5-2.3l-1.7-3l-1.8,3.1l-1.5,2.2H98v-0.2
					l5.3-8l-4.9-7.8v-0.3h4.8l1.5,2.5L106,141.5z"/>
				<path class="st11" d="M123.7,152.8c-5.2,0-8.8-3.1-8.7-8.6c0-5.3,3.6-8.5,8.8-8.5c5.2,0,8.8,3.1,8.7,8.6
					C132.5,149.8,128.9,152.8,123.7,152.8z M123.8,139.7c-2.5,0-4.3,1.9-4.3,4.6c0,2.7,1.8,4.6,4.3,4.6c2.6,0,4.3-1.9,4.3-4.6
					C128.1,141.5,126.4,139.7,123.8,139.7z"/>
				<path class="st11" d="M58.5,174.4h-3.6l-2.8-7.8l-2.7,7.8h-3.6L40,158.2h4.9l2,5.7c0.4,1.2,0.6,2.6,0.8,3.8l2.9-9.5h3.1l3,9.5
					c0.2-1.2,0.5-2.5,0.9-3.9l1.9-5.6h4.9L58.5,174.4z"/>
				<path class="st11" d="M74.1,174.9c-5.2,0-8.8-3.1-8.7-8.6c0-5.3,3.6-8.5,8.8-8.5c5.2,0,8.8,3.1,8.7,8.6
					C82.9,171.9,79.3,174.9,74.1,174.9z M74.2,161.8c-2.5,0-4.3,1.9-4.3,4.6c0,2.7,1.8,4.6,4.3,4.6c2.6,0,4.3-1.9,4.3-4.6
					C78.5,163.6,76.8,161.8,74.2,161.8z"/>
				<path class="st11" d="M100.7,174.6h-4.9l-3.7-5.3h-1.6v5.3H86l0.1-16.2h7.7c4,0,6.1,2.7,6.1,5.6c0,2-0.7,3.7-3.4,4.9l4.1,5.5
					L100.7,174.6z M90.6,162v3.9h3.3c1.2,0,1.7-0.9,1.7-1.9s-0.6-2-1.7-2H90.6z"/>
				<path class="st11" d="M117.6,158.7l-6.4,7.7c2.2,2.5,4.7,5.5,6.9,8v0.3h-5.5l-4.5-5.4v5.4h-4.5l0.1-16.2h4.5v5.3
					c1.4-1.7,2.8-3.6,4.2-5.3h5.3L117.6,158.7z"/>
				<path class="st11" d="M129.7,163c-1.1-0.8-2.3-1.1-3.7-1.1c-1.1,0-2.1,0.3-2.1,1.2c0,1.1,1.1,1.3,2.6,1.4
					c3.1,0.4,6.4,1.7,6.4,5.4s-3.4,5.3-6.9,5.3c-2.8,0-4.9-0.5-7-2.9l2.5-2.9c1.5,1.6,3.3,1.8,4.6,1.9c1.5,0,2.5-0.5,2.5-1.4
					c0-0.8-0.9-1.3-2.6-1.5c-3.4-0.3-6.4-1.3-6.4-5.3c0-3.4,3.3-4.9,6.6-4.9c2.4,0,4.2,0.6,5.9,2L129.7,163z"/>
				<path class="st11" d="M146,174.8v-6.1h-5.7v6.1h-4.5l0.1-16.2h4.5v6.2h5.7v-6.2h4.4l-0.1,16.2H146z"/>
				<path class="st11" d="M162.4,175.3c-5.2,0-8.8-3.1-8.7-8.6c0-5.3,3.6-8.5,8.8-8.5s8.8,3.1,8.7,8.6
					C171.2,172.2,167.6,175.3,162.4,175.3z M162.4,162.2c-2.5,0-4.3,1.9-4.3,4.6c0,2.7,1.8,4.6,4.3,4.6c2.6,0,4.3-1.9,4.3-4.6
					C166.7,164,165.1,162.2,162.4,162.2z"/>
				<path class="st11" d="M178.8,170.6v4.4h-4.5l0.1-16.2h7.7c4.2,0,6.3,2.8,6.3,5.9c0,3.3-2.1,5.9-6.4,5.9L178.8,170.6z
					 M178.9,166.7h3.2c1.2,0,1.9-0.9,1.9-2s-0.6-2-1.9-2h-3.2V166.7z"/>
			</g>
		</g>
	</g>
	<g class="st1">
		<g>
			<g>
				<path class="st7" d="M347.6,51.9v15.9h15.8V51.9H347.6z M361.2,61.4v4.4h-11.5h-0.1V53.7l0,0h5h2h4.4l0,0v7.7H361.2z"/>
				<path class="st7" d="M360.8,60.6c-0.9-0.3-1.2-0.5-1.9-1.2h1.9v-1.6h-5.6l0.4-0.7h5.3v-1.4H359c0.3-0.4,0.8-1.2,1.1-1.6h-2
					c0,0-0.6,1.1-1.1,1.6h-0.7c0.2-0.6,0.4-1,0.6-1.6h-2c-0.2,0.7-0.4,1-0.7,1.6h-0.3c-0.3-0.6-1-1.6-1-1.6h-2.1
					c0.5,0.6,1.1,1.4,1.2,1.6h-1.7v1.4h3.2l-0.4,0.7h-2.8v1.6h1.6c-0.7,0.7-0.9,1-1.6,1.3v2.5c0.5-0.4,1.1-1,1.4-1.3v1.6
					c0,1.2,0.7,1.9,2.1,1.9h4.5c0.6,0,1.4-0.3,1.8-0.8c0.2-0.3,0.5-1.1,0.5-1.1c-0.9-0.3-1.8-1.2-1.8-1.2c-0.1,1.4-1.4,1.6-2.3,1.6
					h-2.4c-0.4,0-0.6-0.2-0.6-0.6v-1.7h3v0.1c0,0.4-0.3,0.5-0.8,0.5c-0.4,0-1.5,0-1.5,0v1.2c0.2,0,1.1,0,1.3,0c1.4,0,2-0.1,2.3-0.4
					s0.4-0.9,0.4-1.9c0.6,0.6,1.7,1.4,2.5,1.8L360.8,60.6L360.8,60.6z M353.5,60.2c0.3-0.2,0.5-0.5,0.7-0.8h2.7
					c0.2,0.3,0.4,0.5,0.6,0.8H353.5z"/>
			</g>
		</g>
		<g>
			<g>
				<path class="st7" d="M338.9,62.8c1.6,1.3,2.9,1.8,5.4,2.2v2.7c-2.6-0.5-5.5-1.8-7.4-3.4c-2,1.6-4.4,2.8-7.4,3.4v-2.6
					c2.2-0.4,3.9-1.2,5.4-2.3c-1.7-1.6-3.4-4.4-4.7-7.7h2.4c0.3,0.8,0.8,1.9,1.7,3.1c0.8,1.3,1.7,2.4,2.6,3.2
					c0.7-0.6,1.8-1.7,2.6-3.1c0.8-1.4,1.6-2.7,1.8-4h-11.7v-2.1h14.6c0,0-0.1,0.9-0.4,2.1c-0.4,1.4-1,3.3-1.8,4.6
					C340.8,60.7,339.9,61.9,338.9,62.8z"/>
				<path class="st7" d="M336.9,59.1c-0.8-1.1-1.8-2.2-2.8-3.2l1.9-1.1c0.9,0.7,1.8,1.7,2.8,2.8L336.9,59.1z"/>
			</g>
		</g>
	</g>
	<g class="st1">
		<g>
			<path class="st7" d="M228,60.5c-0.1-1.9-0.1-2.7-0.1-3.3v-5.6h4.5l-0.1,16.3h-3.8l-6.5-8.8l0.1,3.5v5.2h-4.5l0.1-16.2h3.8
				L228,60.5z"/>
			<path class="st7" d="M244.3,68.4c-5.2,0-8.8-3.1-8.7-8.6c0-5.3,3.6-8.5,8.8-8.5s8.8,3.1,8.7,8.6
				C253.1,65.3,249.5,68.4,244.3,68.4z M244.3,55.3c-2.5,0-4.3,1.9-4.3,4.6s1.8,4.6,4.3,4.6c2.6,0,4.3-1.9,4.3-4.6
				C248.6,57.1,246.9,55.3,244.3,55.3z"/>
			<path class="st7" d="M266.7,60.7c-0.1-1.9-0.1-2.7-0.1-3.3v-5.6h4.5L271,68h-3.8l-6.5-8.8l0.1,3.6V68h-4.5l0.1-16.2h3.8
				L266.7,60.7z"/>
			<path class="st7" d="M281.7,57.3l1.5-2.9l1.5-2.4h4.8v0.3l-5,7.8l5.3,8v0.2H285l-1.5-2.3l-1.7-3l-1.8,3.1l-1.5,2.2h-4.8v-0.2
				l5.3-8l-4.9-7.8V52h4.8l1.5,2.5L281.7,57.3z"/>
			<path class="st7" d="M299.4,68.6c-5.2,0-8.8-3.1-8.7-8.6c0-5.3,3.6-8.5,8.8-8.5c5.2,0,8.8,3.1,8.7,8.6
				C308.2,65.6,304.6,68.6,299.4,68.6z M299.5,55.5c-2.5,0-4.3,1.9-4.3,4.6c0,2.7,1.8,4.6,4.3,4.6c2.6,0,4.3-1.9,4.3-4.6
				C303.8,57.3,302.1,55.5,299.5,55.5z"/>
			<path class="st7" d="M234.2,90.2h-3.6l-2.8-7.8l-2.7,7.8h-3.6L215.7,74h4.9l2,5.7c0.4,1.2,0.6,2.6,0.8,3.8l2.9-9.5h3.1l3,9.5
				c0.2-1.2,0.5-2.5,0.9-3.9l1.9-5.6h4.9L234.2,90.2z"/>
			<path class="st7" d="M249.8,90.7c-5.2,0-8.8-3.1-8.7-8.6c0-5.3,3.6-8.5,8.8-8.5s8.8,3.1,8.7,8.6C258.6,87.7,255,90.7,249.8,90.7z
				 M249.9,77.6c-2.5,0-4.3,1.9-4.3,4.6s1.8,4.6,4.3,4.6c2.6,0,4.3-1.9,4.3-4.6C254.2,79.4,252.5,77.6,249.9,77.6z"/>
			<path class="st7" d="M276.4,90.4h-4.9l-3.7-5.3h-1.6v5.3h-4.5l0.1-16.2h7.7c4,0,6.1,2.7,6.1,5.6c0,2-0.7,3.7-3.4,4.9l4.1,5.5
				L276.4,90.4z M266.3,77.8v3.9h3.3c1.2,0,1.7-0.9,1.7-1.9s-0.6-2-1.7-2H266.3z"/>
			<path class="st7" d="M293.3,74.5l-6.4,7.7c2.2,2.5,4.7,5.5,6.9,8v0.3h-5.5l-4.5-5.4v5.4h-4.5l0.1-16.2h4.5v5.3
				c1.4-1.7,2.8-3.6,4.2-5.3h5.3L293.3,74.5z"/>
			<path class="st7" d="M305.4,78.8c-1.1-0.8-2.3-1.1-3.7-1.1c-1.1,0-2.1,0.3-2.1,1.2c0,1.1,1.1,1.3,2.6,1.4
				c3.1,0.4,6.4,1.7,6.4,5.4s-3.4,5.3-6.9,5.3c-2.8,0-4.9-0.5-7-2.9l2.5-2.9c1.5,1.6,3.3,1.8,4.6,1.9c1.5,0,2.5-0.5,2.5-1.4
				c0-0.8-0.9-1.3-2.6-1.5c-3.4-0.3-6.4-1.3-6.4-5.3c0-3.4,3.3-4.9,6.6-4.9c2.4,0,4.2,0.6,5.9,2L305.4,78.8z"/>
			<path class="st7" d="M321.7,90.6v-6.1H316v6.1h-4.5l0.1-16.2h4.5v6.2h5.7v-6.2h4.4l-0.1,16.2C326.1,90.6,321.7,90.6,321.7,90.6z"
				/>
			<path class="st7" d="M338.1,91.1c-5.2,0-8.8-3.1-8.7-8.6c0-5.3,3.6-8.5,8.8-8.5c5.2,0,8.8,3.1,8.7,8.6
				C346.9,88,343.3,91.1,338.1,91.1z M338.1,78c-2.5,0-4.3,1.9-4.3,4.6s1.8,4.6,4.3,4.6c2.6,0,4.3-1.9,4.3-4.6
				C342.4,79.8,340.8,78,338.1,78z"/>
			<path class="st7" d="M354.5,86.4v4.4H350l0.1-16.2h7.7c4.2,0,6.3,2.8,6.3,5.9c0,3.3-2.1,5.9-6.4,5.9
				C357.7,86.4,354.5,86.4,354.5,86.4z M354.6,82.5h3.2c1.2,0,1.9-0.9,1.9-2s-0.6-2-1.9-2h-3.2V82.5z"/>
		</g>
	</g>
	<circle class="st12" cx="421.7" cy="23.4" r="34.7"/>
	<line class="st12" x1="369.8" y1="-30.6" x2="428.1" y2="27.8"/>
	<line class="st12" x1="428.1" y1="-30.6" x2="369.8" y2="27.8"/>
	<circle class="st6" cx="399.4" cy="-1.4" r="6.5"/>
	<g class="st1">
		<g>
			<g>
				<path d="M261,129.9v11.5h11.5v-11.5H261z M270.9,136.8v3.2h-8.3h-0.1v-8.8l0,0h3.6h1.5h3.2l0,0L270.9,136.8L270.9,136.8z"/>
				<path d="M270.7,136.2c-0.6-0.2-0.9-0.4-1.3-0.8h1.3v-1.2h-4.1l0.3-0.5h3.8v-1.1h-1.4c0.2-0.3,0.6-0.8,0.8-1.2h-1.5
					c0,0-0.4,0.8-0.8,1.2h-0.5c0.2-0.4,0.3-0.7,0.4-1.2h-1.5c-0.1,0.5-0.3,0.7-0.4,1.2h-0.2c-0.2-0.4-0.7-1.2-0.7-1.2h-1.5
					c0.4,0.4,0.8,1,0.8,1.2H263v1.1h2.3l-0.3,0.5h-2v1.2h1.1c-0.5,0.5-0.7,0.7-1.1,0.9v1.8c0.4-0.3,0.8-0.7,1-0.9v1.1
					c0,0.9,0.6,1.4,1.5,1.4h3.3c0.4,0,1-0.2,1.3-0.6c0.2-0.2,0.3-0.8,0.3-0.8c-0.7-0.2-1.3-0.9-1.3-0.9c0,1-1,1.2-1.6,1.2h-1.7
					c-0.3,0-0.4-0.1-0.4-0.4v-1.3h2.2v0.1c0,0.3-0.2,0.3-0.6,0.3c-0.3,0-1.1,0-1.1,0v0.9c0.1,0,0.8,0,1,0c1,0,1.4-0.1,1.7-0.3
					c0.2-0.2,0.3-0.6,0.3-1.4c0.4,0.4,1.2,1,1.8,1.3L270.7,136.2L270.7,136.2z M265.3,135.9c0.2-0.2,0.4-0.4,0.5-0.6h2
					c0.1,0.2,0.3,0.4,0.4,0.6H265.3z"/>
			</g>
			<g>
				<path d="M268.4,123.8c1.2,0.9,2.1,1.3,3.9,1.6v2c-1.9-0.4-4-1.3-5.3-2.5c-1.5,1.1-3.2,2.1-5.4,2.5v-1.9c1.6-0.3,2.9-0.9,3.9-1.6
					c-1.2-1.2-2.5-3.2-3.4-5.6l1.7-0.1c0.2,0.6,0.6,1.3,1.2,2.2c0.6,0.9,1.2,1.7,1.8,2.3c0.5-0.4,1.3-1.2,1.9-2.2s1.1-2,1.3-2.9
					h-8.5v-1.5h10.7c0,0-0.1,0.7-0.3,1.6c-0.3,1-0.7,2.4-1.3,3.3C269.8,122.3,269.1,123.2,268.4,123.8z"/>
				<path d="M267,121.1c-0.6-0.8-1.3-1.6-2-2.3l1.3-0.8c0.7,0.5,1.3,1.2,2,2.1L267,121.1z"/>
			</g>
		</g>
	</g>
	<path class="st13" d="M261.7,116.8h9.5c0,0-0.5,4.3-3.9,7c-3.3,2.6-5.5,2.7-5.5,2.7"/>
	<path class="st13" d="M263.1,118.3c0,0,0.9,3.6,3.9,5.7c2.9,2.2,5.3,2.4,5.3,2.4"/>
	<rect x="261.7" y="130.6" class="st13" width="10.1" height="10.1"/>
	<line class="st13" x1="262.9" y1="133.1" x2="270.7" y2="133.1"/>
	<line class="st13" x1="262.9" y1="134.7" x2="270.7" y2="134.7"/>
	<line class="st13" x1="264.1" y1="131.4" x2="265.1" y2="133.1"/>
	<line class="st13" x1="269.3" y1="131.4" x2="268.4" y2="133.1"/>
	<path class="st13" d="M266.9,131.4c0,0-0.7,2.4-1.5,3.3c-0.9,1-2.4,2.4-2.4,2.4"/>
	<polyline class="st13" points="265.9,137.7 268.1,137.7 268.1,136.3 264.6,136.3 264.6,139.1 268.7,139.1 269.8,138 	"/>
	<path class="st13" d="M268.4,134.7c0,0,0.7,1.3,1.3,1.8s0.8,0.5,0.8,0.5"/>
	<path class="st13" d="M265.6,118.5c0,0,1.6,1.5,2,2.2"/>
	<path class="st14" d="M284.2,210.4h31.3c0,0-1.6,14.2-13,23.2c-10.8,8.6-18.3,9-18.3,9"/>
	<path class="st14" d="M289,215.1c0,0,3.1,11.8,12.8,19c9.7,7.2,17.7,8,17.7,8"/>
	<rect x="284.2" y="255.9" class="st14" width="33.3" height="33.3"/>
	<line class="st14" x1="288.3" y1="264.1" x2="313.9" y2="264.1"/>
	<line class="st14" x1="288.3" y1="269.6" x2="313.9" y2="269.6"/>
	<line class="st14" x1="292.3" y1="258.6" x2="295.4" y2="264.1"/>
	<line class="st14" x1="309.5" y1="258.6" x2="306.5" y2="264.1"/>
	<path class="st14" d="M301.4,258.6c0,0-2.2,7.8-5.1,10.9c-2.8,3.2-8,7.9-8,7.9"/>
	<polyline class="st14" points="298.2,279.4 305.4,279.4 305.4,274.8 293.8,274.8 293.8,284 309.5,284 311.1,280.3 	"/>
	<polyline class="st14" points="306.3,269.6 309.5,277.1 313.4,277.1 	"/>
	<path class="st14" d="M297.1,215.9c0,0,5.3,5,6.6,7.3"/>
	<g class="st1">
		<g>
			<g>
				<path class="st11" d="M228.9,302.7v15.9h15.8v-15.9H228.9z M242.5,312.2v4.4H231h-0.1v-12.1l0,0h5h2h4.4l0,0v7.7H242.5z"/>
				<path class="st11" d="M242.1,311.4c-0.9-0.3-1.2-0.5-1.9-1.2h1.9v-1.6h-5.6l0.4-0.7h5.3v-1.4h-1.9c0.3-0.4,0.8-1.2,1.1-1.6h-2
					c0,0-0.6,1.1-1.1,1.6h-0.7c0.2-0.6,0.4-1,0.6-1.6h-2c-0.2,0.7-0.4,1-0.7,1.6h-0.3c-0.3-0.6-1-1.6-1-1.6h-2.1
					c0.5,0.6,1.1,1.4,1.2,1.6h-1.7v1.4h3.2l-0.4,0.7h-2.8v1.6h1.6c-0.7,0.7-0.9,1-1.6,1.3v2.5c0.5-0.4,1.1-1,1.4-1.3v1.6
					c0,1.2,0.7,1.9,2.1,1.9h4.5c0.6,0,1.4-0.3,1.8-0.8c0.2-0.3,0.5-1.1,0.5-1.1c-0.9-0.3-1.8-1.2-1.8-1.2c-0.1,1.4-1.4,1.6-2.3,1.6
					h-2.4c-0.4,0-0.6-0.2-0.6-0.6v-1.7h3v0.1c0,0.4-0.3,0.5-0.8,0.5c-0.4,0-1.5,0-1.5,0v1.2c0.2,0,1.1,0,1.3,0c1.4,0,2-0.1,2.3-0.4
					s0.4-0.9,0.4-1.9c0.6,0.6,1.7,1.4,2.5,1.8v-2.3H242.1L242.1,311.4z M234.8,311c0.3-0.2,0.5-0.5,0.7-0.8h2.7
					c0.2,0.3,0.4,0.5,0.6,0.8H234.8z"/>
			</g>
		</g>
		<g>
			<g>
				<path class="st11" d="M220.2,313.6c1.6,1.3,2.9,1.8,5.4,2.2v2.7c-2.6-0.5-5.5-1.8-7.4-3.4c-2,1.6-4.4,2.8-7.4,3.4v-2.6
					c2.2-0.4,3.9-1.2,5.4-2.3c-1.7-1.6-3.4-4.4-4.7-7.7h2.4c0.3,0.8,0.8,1.9,1.7,3.1c0.8,1.3,1.7,2.4,2.6,3.2
					c0.7-0.6,1.8-1.7,2.6-3.1s1.6-2.7,1.8-4h-11.7V303h14.6c0,0-0.1,0.9-0.4,2.1c-0.4,1.4-1,3.3-1.8,4.6
					C222.1,311.5,221.2,312.7,220.2,313.6z"/>
				<path class="st11" d="M218.2,309.9c-0.8-1.1-1.8-2.2-2.8-3.2l1.9-1.1c0.9,0.7,1.8,1.7,2.8,2.8L218.2,309.9z"/>
			</g>
		</g>
	</g>
	<g class="st1">
		<g>
			<path class="st11" d="M109.3,311.3c-0.1-1.9-0.1-2.7-0.1-3.3v-5.6h4.5l-0.1,16.3h-3.8l-6.5-8.8l0.1,3.5v5.2h-4.5l0.1-16.2h3.8
				L109.3,311.3z"/>
			<path class="st11" d="M125.6,319.2c-5.2,0-8.8-3.1-8.7-8.6c0-5.3,3.6-8.5,8.8-8.5s8.8,3.1,8.7,8.6
				C134.4,316.1,130.8,319.2,125.6,319.2z M125.6,306.1c-2.5,0-4.3,1.9-4.3,4.6s1.8,4.6,4.3,4.6c2.6,0,4.3-1.9,4.3-4.6
				C129.9,307.9,128.2,306.1,125.6,306.1z"/>
			<path class="st11" d="M148,311.5c-0.1-1.9-0.1-2.7-0.1-3.3v-5.6h4.5l-0.1,16.2h-3.8L142,310l0.1,3.6v5.2h-4.5l0.1-16.2h3.8
				L148,311.5z"/>
			<path class="st11" d="M163,308.1l1.5-2.9l1.5-2.4h4.8v0.3l-5,7.8l5.3,8v0.2h-4.8l-1.5-2.3l-1.7-3l-1.8,3.1l-1.5,2.2H155v-0.2
				l5.3-8l-4.9-7.8v-0.3h4.8l1.5,2.5L163,308.1z"/>
			<path class="st11" d="M180.7,319.4c-5.2,0-8.8-3.1-8.7-8.6c0-5.3,3.6-8.5,8.8-8.5s8.8,3.1,8.7,8.6
				C189.5,316.4,185.9,319.4,180.7,319.4z M180.8,306.3c-2.5,0-4.3,1.9-4.3,4.6s1.8,4.6,4.3,4.6c2.6,0,4.3-1.9,4.3-4.6
				C185.1,308.1,183.4,306.3,180.8,306.3z"/>
			<path class="st11" d="M115.5,341h-3.6l-2.8-7.8l-2.7,7.8h-3.6L97,324.8h4.9l2,5.7c0.4,1.2,0.6,2.6,0.8,3.8l2.9-9.5h3.1l3,9.5
				c0.2-1.2,0.5-2.5,0.9-3.9l1.9-5.6h4.9L115.5,341z"/>
			<path class="st11" d="M131.1,341.5c-5.2,0-8.8-3.1-8.7-8.6c0-5.3,3.6-8.5,8.8-8.5c5.2,0,8.8,3.1,8.7,8.6
				C139.9,338.5,136.3,341.5,131.1,341.5z M131.2,328.4c-2.5,0-4.3,1.9-4.3,4.6s1.8,4.6,4.3,4.6c2.6,0,4.3-1.9,4.3-4.6
				C135.5,330.2,133.8,328.4,131.2,328.4z"/>
			<path class="st11" d="M157.7,341.2h-4.9l-3.7-5.3h-1.6v5.3H143l0.1-16.2h7.7c4,0,6.1,2.7,6.1,5.6c0,2-0.7,3.7-3.4,4.9l4.1,5.5
				L157.7,341.2z M147.6,328.6v3.9h3.3c1.2,0,1.7-0.9,1.7-1.9s-0.6-2-1.7-2H147.6z"/>
			<path class="st11" d="M174.6,325.3l-6.4,7.7c2.2,2.5,4.7,5.5,6.9,8v0.3h-5.5l-4.5-5.4v5.4h-4.5l0.1-16.2h4.5v5.3
				c1.4-1.7,2.8-3.6,4.2-5.3h5.3L174.6,325.3z"/>
			<path class="st11" d="M186.7,329.6c-1.1-0.8-2.3-1.1-3.7-1.1c-1.1,0-2.1,0.3-2.1,1.2c0,1.1,1.1,1.3,2.6,1.4
				c3.1,0.4,6.4,1.7,6.4,5.4c0,3.7-3.4,5.3-6.9,5.3c-2.8,0-4.9-0.5-7-2.9l2.5-2.9c1.5,1.6,3.3,1.8,4.6,1.9c1.5,0,2.5-0.5,2.5-1.4
				c0-0.8-0.9-1.3-2.6-1.5c-3.4-0.3-6.4-1.3-6.4-5.3c0-3.4,3.3-4.9,6.6-4.9c2.4,0,4.2,0.6,5.9,2L186.7,329.6z"/>
			<path class="st11" d="M203,341.4v-6.1h-5.7v6.1h-4.5l0.1-16.2h4.5v6.2h5.7v-6.2h4.4l-0.1,16.2H203z"/>
			<path class="st11" d="M219.4,341.9c-5.2,0-8.8-3.1-8.7-8.6c0-5.3,3.6-8.5,8.8-8.5s8.8,3.1,8.7,8.6
				C228.2,338.8,224.6,341.9,219.4,341.9z M219.4,328.8c-2.5,0-4.3,1.9-4.3,4.6s1.8,4.6,4.3,4.6c2.6,0,4.3-1.9,4.3-4.6
				C223.7,330.6,222.1,328.8,219.4,328.8z"/>
			<path class="st11" d="M235.8,337.2v4.4h-4.5l0.1-16.2h7.7c4.2,0,6.3,2.8,6.3,5.9c0,3.3-2.1,5.9-6.4,5.9L235.8,337.2L235.8,337.2z
				 M235.9,333.3h3.2c1.2,0,1.9-0.9,1.9-2s-0.6-2-1.9-2h-3.2V333.3z"/>
		</g>
	</g>
	<g class="st1">
		<g>
			<g>
				<path class="st11" d="M387.2-28.2v15.9H403v-15.9H387.2z M400.8-18.7v4.4h-11.5h-0.1v-12.1l0,0h5h2h4.4l0,0v7.7H400.8z"/>
				<path class="st11" d="M400.4-19.5c-0.9-0.3-1.2-0.5-1.9-1.2h1.9v-1.6h-5.6l0.4-0.7h5.3v-1.4h-1.9c0.3-0.4,0.8-1.2,1.1-1.6h-2
					c0,0-0.6,1.1-1.1,1.6h-0.7c0.2-0.6,0.4-1,0.6-1.6h-2c-0.2,0.7-0.4,1-0.7,1.6h-0.3c-0.3-0.6-1-1.6-1-1.6h-2.1
					c0.5,0.6,1.1,1.4,1.2,1.6h-1.7v1.4h3.2l-0.4,0.7h-2.8v1.6h1.6c-0.7,0.7-0.9,1-1.6,1.3v2.5c0.5-0.4,1.1-1,1.4-1.3v1.6
					c0,1.2,0.7,1.9,2.1,1.9h4.5c0.6,0,1.4-0.3,1.8-0.8c0.2-0.3,0.5-1.1,0.5-1.1c-0.9-0.3-1.8-1.2-1.8-1.2c-0.1,1.4-1.4,1.6-2.3,1.6
					h-2.4c-0.4,0-0.6-0.2-0.6-0.6v-1.7h3v0.1c0,0.4-0.3,0.5-0.8,0.5c-0.4,0-1.5,0-1.5,0v1.2c0.2,0,1.1,0,1.3,0c1.4,0,2-0.1,2.3-0.4
					s0.4-0.9,0.4-1.9c0.6,0.6,1.7,1.4,2.5,1.8L400.4-19.5L400.4-19.5z M393.1-19.9c0.3-0.2,0.5-0.5,0.7-0.8h2.7
					c0.2,0.3,0.4,0.5,0.6,0.8H393.1z"/>
			</g>
		</g>
		<g>
			<g>
				<path class="st11" d="M378.5-17.3c1.6,1.3,2.9,1.8,5.4,2.2v2.7c-2.6-0.5-5.5-1.8-7.4-3.4c-2,1.6-4.4,2.8-7.4,3.4V-15
					c2.2-0.4,3.9-1.2,5.4-2.3c-1.7-1.6-3.4-4.4-4.7-7.7h2.4c0.3,0.8,0.8,1.9,1.7,3.1c0.8,1.3,1.7,2.4,2.6,3.2
					c0.7-0.6,1.8-1.7,2.6-3.1c0.8-1.4,1.6-2.7,1.8-4h-11.7v-2.1h14.6c0,0-0.1,0.9-0.4,2.1c-0.4,1.4-1,3.3-1.8,4.6
					C380.4-19.4,379.5-18.2,378.5-17.3z"/>
				<path class="st11" d="M376.5-21c-0.8-1.1-1.8-2.2-2.8-3.2l1.9-1.1c0.9,0.7,1.8,1.7,2.8,2.8L376.5-21z"/>
			</g>
		</g>
	</g>
	<g class="st1">
		<g>
			<path class="st11" d="M267.6-19.6c-0.1-1.9-0.1-2.7-0.1-3.3v-5.6h4.5l-0.1,16.3h-3.8l-6.5-8.8l0.1,3.5v5.2h-4.5l0.1-16.2h3.8
				L267.6-19.6z"/>
			<path class="st11" d="M283.9-11.7c-5.2,0-8.8-3.1-8.7-8.6c0-5.3,3.6-8.5,8.8-8.5c5.2,0,8.8,3.1,8.7,8.6
				C292.7-14.8,289.1-11.7,283.9-11.7z M283.9-24.8c-2.5,0-4.3,1.9-4.3,4.6s1.8,4.6,4.3,4.6c2.6,0,4.3-1.9,4.3-4.6
				C288.2-23,286.5-24.8,283.9-24.8z"/>
			<path class="st11" d="M306.3-19.4c-0.1-1.9-0.1-2.7-0.1-3.3v-5.6h4.5l-0.1,16.2h-3.8l-6.5-8.8l0.1,3.6v5.2h-4.5l0.1-16.2h3.8
				L306.3-19.4z"/>
			<path class="st11" d="M321.3-22.8l1.5-2.9l1.5-2.4h4.8v0.3l-5,7.8l5.3,8v0.2h-4.8l-1.5-2.3l-1.7-3l-1.8,3.1l-1.5,2.2h-4.8V-12
				l5.3-8l-4.9-7.8v-0.3h4.8l1.5,2.5L321.3-22.8z"/>
			<path class="st11" d="M339-11.5c-5.2,0-8.8-3.1-8.7-8.6c0-5.3,3.6-8.5,8.8-8.5c5.2,0,8.8,3.1,8.7,8.6
				C347.8-14.5,344.2-11.5,339-11.5z M339.1-24.6c-2.5,0-4.3,1.9-4.3,4.6s1.8,4.6,4.3,4.6c2.6,0,4.3-1.9,4.3-4.6
				C343.4-22.8,341.7-24.6,339.1-24.6z"/>
			<path class="st11" d="M273.8,10.1h-3.6l-2.8-7.8l-2.7,7.8h-3.6l-5.8-16.2h4.9l2,5.7c0.4,1.2,0.6,2.6,0.8,3.8l2.9-9.5h3.1l3,9.5
				c0.2-1.2,0.5-2.5,0.9-3.9l1.9-5.6h4.9L273.8,10.1z"/>
			<path class="st11" d="M289.4,10.6c-5.2,0-8.8-3.1-8.7-8.6c0-5.3,3.6-8.5,8.8-8.5c5.2,0,8.8,3.1,8.7,8.6
				C298.2,7.6,294.6,10.6,289.4,10.6z M289.5-2.5c-2.5,0-4.3,1.9-4.3,4.6s1.8,4.6,4.3,4.6c2.6,0,4.3-1.9,4.3-4.6
				C293.8-0.7,292.1-2.5,289.5-2.5z"/>
			<path class="st11" d="M316,10.3h-4.9L307.4,5h-1.6v5.3h-4.5l0.1-16.2h7.7c4,0,6.1,2.7,6.1,5.6c0,2-0.7,3.7-3.4,4.9l4.1,5.5
				L316,10.3z M305.9-2.3v3.9h3.3c1.2,0,1.7-0.9,1.7-1.9s-0.6-2-1.7-2C309.2-2.3,305.9-2.3,305.9-2.3z"/>
			<path class="st11" d="M332.9-5.6l-6.4,7.7c2.2,2.5,4.7,5.5,6.9,8v0.3h-5.5L323.4,5v5.4h-4.5L319-5.8h4.5v5.3
				c1.4-1.7,2.8-3.6,4.2-5.3h5.3L332.9-5.6z"/>
			<path class="st11" d="M345-1.3c-1.1-0.8-2.3-1.1-3.7-1.1c-1.1,0-2.1,0.3-2.1,1.2c0,1.1,1.1,1.3,2.6,1.4c3.1,0.4,6.4,1.7,6.4,5.4
				s-3.4,5.3-6.9,5.3c-2.8,0-4.9-0.5-7-2.9l2.5-2.9c1.5,1.6,3.3,1.8,4.6,1.9c1.5,0,2.5-0.5,2.5-1.4c0-0.8-0.9-1.3-2.6-1.5
				c-3.4-0.3-6.4-1.3-6.4-5.3c0-3.4,3.3-4.9,6.6-4.9c2.4,0,4.2,0.6,5.9,2L345-1.3z"/>
			<path class="st11" d="M361.3,10.5V4.4h-5.7v6.1h-4.5l0.1-16.2h4.5v6.2h5.7v-6.2h4.4l-0.1,16.2H361.3z"/>
			<path class="st11" d="M377.7,11c-5.2,0-8.8-3.1-8.7-8.6c0-5.3,3.6-8.5,8.8-8.5c5.2,0,8.8,3.1,8.7,8.6
				C386.5,7.9,382.9,11,377.7,11z M377.7-2.1c-2.5,0-4.3,1.9-4.3,4.6s1.8,4.6,4.3,4.6c2.6,0,4.3-1.9,4.3-4.6
				C382-0.3,380.4-2.1,377.7-2.1z"/>
			<path class="st11" d="M394.1,6.3v4.4h-4.5l0.1-16.2h7.7c4.2,0,6.3,2.8,6.3,5.9c0,3.3-2.1,5.9-6.4,5.9H394.1L394.1,6.3z
				 M394.2,2.4h3.2c1.2,0,1.9-0.9,1.9-2s-0.6-2-1.9-2h-3.2V2.4z"/>
		</g>
	</g>
	<g class="st1">
		<path class="st11" d="M122,267.6c0,5.9,4.8,10.6,10.6,10.6s10.6-4.8,10.6-10.6c0-5.9-4.8-10.6-10.6-10.6S122,261.7,122,267.6z"/>
	</g>
	<g class="st1">
		<path class="st11" d="M97.6,267.6c0,5.9,4.8,10.6,10.6,10.6s10.6-4.8,10.6-10.6c0-5.9-4.8-10.6-10.6-10.6S97.6,261.7,97.6,267.6z"
			/>
	</g>
	<g class="st1">
		<path class="st11" d="M349.1,267.6c0,5.9,4.8,10.6,10.6,10.6c5.9,0,10.6-4.8,10.6-10.6c0-5.9-4.8-10.6-10.6-10.6
			S349.1,261.7,349.1,267.6z"/>
	</g>
	<g class="st1">
		<path class="st11" d="M324.7,267.6c0,5.9,4.8,10.6,10.6,10.6c5.9,0,10.6-4.8,10.6-10.6c0-5.9-4.8-10.6-10.6-10.6
			S324.7,261.7,324.7,267.6z"/>
	</g>
	<g class="st1">
		<path class="st11" d="M-139.5,58.3c-0.1-2.2-0.1-3.1-0.1-3.7v-6.4h5.1l-0.1,18.5h-4.3l-7.4-10l0.1,4v5.9h-5.1l0.1-18.4h4.3
			L-139.5,58.3z"/>
	</g>
	<g class="st1">
		<path class="st11" d="M-121,67.2c-5.9,0-10-3.5-9.9-9.8c0-6,4.1-9.7,10-9.7s10,3.5,9.9,9.8C-111,63.7-115.1,67.2-121,67.2z
			 M-121,52.4c-2.8,0-4.9,2.2-4.9,5.2c0,3.1,2,5.2,4.9,5.2c3,0,4.9-2.2,4.9-5.2C-116.1,54.4-118,52.4-121,52.4z"/>
	</g>
	<g class="st1">
		<path class="st11" d="M-95.6,58.5c-0.1-2.2-0.1-3.1-0.1-3.7v-6.4h5.1l-0.1,18.4H-95l-7.4-10l0.1,4.1v5.9h-5.1l0.1-18.4h4.3
			L-95.6,58.5z"/>
	</g>
	<g class="st1">
		<polygon class="st11" points="-72.6,54.4 -70.9,51.1 -69.2,48.4 -63.8,48.4 -63.8,48.8 -69.4,57.6 -63.4,66.7 -63.4,66.9 
			-68.9,66.9 -70.6,64.3 -72.5,60.9 -74.6,64.4 -76.3,66.9 -81.7,66.9 -81.7,66.7 -75.7,57.6 -81.3,48.8 -81.3,48.4 -75.8,48.4 
			-74.1,51.3 		"/>
	</g>
	<g class="st1">
		<path class="st11" d="M-52.5,67.3c-5.9,0-10-3.5-9.9-9.8c0-6,4.1-9.7,10-9.7s10,3.5,9.9,9.8C-42.5,63.9-46.6,67.3-52.5,67.3z
			 M-52.4,52.4c-2.8,0-4.9,2.2-4.9,5.2c0,3.1,2,5.2,4.9,5.2c3,0,4.9-2.2,4.9-5.2C-47.5,54.4-49.5,52.4-52.4,52.4z"/>
	</g>
	<g class="st1">
		<g>
			<g>
				<path d="M87.2,108.6v20.1h20v-20.1H87.2z M104.4,120.6v5.6H89.9h-0.1v-15.3l0,0h6.4h2.5h5.6l0,0L104.4,120.6L104.4,120.6z"/>
				<path d="M104,119.5c-1.1-0.4-1.6-0.7-2.4-1.5h2.4v-2h-7.2l0.5-0.9h6.7v-1.9h-2.4c0.4-0.5,1.1-1.5,1.3-2h-2.5c0,0-0.8,1.5-1.3,2
					h-0.9c0.3-0.8,0.5-1.2,0.7-2h-2.5c-0.1,0.9-0.5,1.3-0.8,2h-0.4c-0.3-0.8-1.3-2-1.3-2h-2.7c0.7,0.8,1.3,1.7,1.5,2h-2.1v1.9h4
					l-0.5,0.9h-3.5v2h2c-0.9,0.9-1.2,1.3-2,1.6v3.2c0.7-0.5,1.5-1.3,1.7-1.6v2c0,1.6,0.9,2.4,2.7,2.4h5.7c0.8,0,1.7-0.4,2.3-1.1
					c0.3-0.4,0.5-1.5,0.5-1.5c-1.2-0.4-2.4-1.6-2.4-1.6c0,1.7-1.6,2-2.7,2h-3.2c-0.5,0-0.8-0.1-0.8-0.7v-2.3h3.9v0.1
					c0,0.5-0.3,0.5-0.9,0.5c-0.5,0-1.9,0-1.9,0v1.6c0.1,0,1.5,0,1.6,0c1.7,0,2.4-0.1,2.9-0.5c0.4-0.4,0.5-1.1,0.5-2.4
					c0.7,0.8,2.1,1.7,3.2,2.3L104,119.5L104,119.5z M94.7,119c0.3-0.3,0.7-0.7,0.9-1.1h3.5c0.1,0.4,0.5,0.7,0.8,1.1H94.7z"/>
			</g>
			<g>
				<path d="M76.5,122.1c2,1.6,3.7,2.4,6.8,2.8v3.5c-3.3-0.7-6.9-2.4-9.2-4.3c-2.5,2-5.6,3.6-9.3,4.3v-3.3c2.7-0.5,4.9-1.6,6.8-2.8
					c-2.1-2-4.3-5.6-6-9.7l3.1-0.1c0.4,1.1,1.1,2.4,2.1,3.9c0.9,1.6,2.1,3.1,3.2,4c0.9-0.8,2.3-2.1,3.3-3.9c1.1-1.7,2-3.5,2.3-4.9
					H64.8v-2.7h18.4c0,0-0.1,1.2-0.5,2.7c-0.5,1.7-1.3,4.1-2.4,5.7C78.9,119.4,77.6,121,76.5,122.1z"/>
				<path d="M74,117.4c-1.1-1.3-2.3-2.7-3.5-4l2.4-1.3c1.2,0.9,2.4,2.1,3.5,3.6L74,117.4z"/>
			</g>
		</g>
	</g>
	<g class="st1">
		<path d="M60.5,62.3v8.2h8.2v-8.2H60.5z M67.5,67.2v2.3h-5.9h-0.1v-6.3l0,0h2.6h1.1h2.3l0,0V67.2L67.5,67.2z"/>
		<path d="M67.3,66.8c-0.4-0.2-0.7-0.3-1-0.6h1v-0.8h-3l0.2-0.4h2.7v-0.8h-1c0.2-0.2,0.4-0.6,0.6-0.8h-1.1c0,0-0.3,0.6-0.6,0.8h-0.4
			c0.1-0.3,0.2-0.5,0.3-0.8h-1.1c-0.1,0.4-0.2,0.6-0.3,0.8h-0.2c-0.1-0.3-0.6-0.8-0.6-0.8h-1.1c0.3,0.3,0.6,0.7,0.6,0.8h-0.9V65h1.7
			l0.1,0.4h-1.4v0.8h0.8c-0.4,0.4-0.5,0.6-0.8,0.7v1.3c0.3-0.2,0.6-0.6,0.7-0.7v0.8c0,0.7,0.4,1,1.1,1H66c0.3,0,0.7-0.2,0.9-0.4
			c0.1-0.2,0.2-0.6,0.2-0.6c-0.5-0.2-1-0.7-1-0.7c0,0.7-0.7,0.8-1.1,0.8h-1.3c-0.2,0-0.3-0.1-0.3-0.3v-0.9H65v0.1
			c0,0.2-0.1,0.2-0.4,0.2c-0.2,0-0.8,0-0.8,0v0.7c0.1,0,0.6,0,0.7,0c0.7,0,1-0.1,1.2-0.2c0.2-0.2,0.2-0.4,0.2-1
			c0.3,0.3,0.9,0.7,1.3,0.9L67.3,66.8L67.3,66.8z M63.5,66.5c0.1-0.1,0.3-0.3,0.4-0.4h1.4c0.1,0.2,0.2,0.3,0.3,0.4H63.5z"/>
	</g>
	<g class="st1">
		<path d="M33.6,67.7c0.8,0.6,1.5,1,2.8,1.1v1.4c-1.4-0.3-2.8-1-3.8-1.7c-1.1,0.8-2.3,1.4-3.8,1.7v-1.3c1.1-0.2,2-0.6,2.8-1.1
			c-0.9-0.8-1.8-2.2-2.5-3.8l1.3-0.1c0.2,0.4,0.4,1,0.9,1.5c0.4,0.6,0.9,1.2,1.3,1.6c0.4-0.3,0.9-0.9,1.4-1.5
			c0.4-0.7,0.8-1.4,0.9-1.9h-6.1v-1.2h7.5c0,0-0.1,0.5-0.2,1.1c-0.2,0.7-0.6,1.6-1,2.3C34.6,66.7,34.1,67.3,33.6,67.7z"/>
		<path d="M32.6,65.9c-0.4-0.6-0.9-1.1-1.4-1.6l1-0.5c0.5,0.4,1,0.9,1.4,1.4L32.6,65.9z"/>
	</g>
	<polygon class="st10" points="194.4,-4 197.2,-6.8 195.2,-8.9 197.2,-10.9 194.4,-13.7 192.4,-11.7 190.4,-13.7 187.5,-10.9 
		189.5,-8.9 187.5,-6.8 190.4,-4 192.4,-6 	"/>
	<path class="st10" d="M187,1.1c0-2.8,2.3-5.1,5.1-5.1s5.1,2.3,5.1,5.1s-2.3,5.1-5.1,5.1S187,3.9,187,1.1z"/>
	<g class="st1">
		<line class="st15" x1="-68.6" y1="-62.4" x2="-39.3" y2="-44"/>
		<line class="st15" x1="-39.3" y1="-62.4" x2="-68.6" y2="-44"/>
		<ellipse class="st16" cx="-18.5" cy="-53.2" rx="14.6" ry="9.2"/>
	</g>
	<g class="st17">
		<path d="M43.2,68.9c-0.1-2.5-0.1-3.3-0.2-4.2v-6.8h5.7v20.3H44l-8.2-11l0.1,4.5v6.5h-5.7V58h4.7L43.2,68.9z"/>
		<path d="M62.5,78.5c-6.4,0-11-3.8-11-10.7c0-6.6,4.5-10.7,11-10.7s11,3.8,11,10.7S69,78.5,62.5,78.5z M62.5,62.2
			c-3.2,0-5.3,2.3-5.3,5.8s2.2,5.8,5.3,5.8c3.3,0,5.3-2.3,5.3-5.8C68,64.5,65.8,62.2,62.5,62.2z"/>
		<path d="M89.4,68.9c-0.1-2.4-0.1-3.4-0.1-4.1v-6.9H95v20.3h-4.7l-8.2-10.9l0.1,4.5v6.5h-5.7V58h4.7L89.4,68.9z"/>
		<path d="M106.9,64.6l1.8-3.6l1.9-3.1h6v0.3l-6.2,9.7l6.6,9.9V78h-6.1l-1.8-2.8l-2.2-3.7l-2.2,3.8l-1.8,2.8h-6.1v-0.2l6.6-9.9
			l-6.2-9.7v-0.4h6L105,61L106.9,64.6z"/>
		<path d="M128,78.5c-6.4,0-11-3.8-11-10.7c0-6.6,4.5-10.7,11-10.7s11,3.8,11,10.7S134.5,78.5,128,78.5z M128,62.2
			c-3.2,0-5.3,2.3-5.3,5.8s2.2,5.8,5.3,5.8c3.3,0,5.3-2.3,5.3-5.8C133.4,64.5,131.3,62.2,128,62.2z"/>
	</g>
	<text transform="matrix(0.9723 0 0 1 -70.0986 118.0919)" class="st1" style="font-family:  font-size:29.0193px;">NONXO</text>
	
		<text transform="matrix(0.9723 0 0 1 -28.2461 23.3199)" class="st1" style="font-family:'NotoSansCJKtc-Black-B5pc-H'; font-size:25.3604px;">影</text>
	<path class="st1" d="M120.1,95.1l0.2,0.2h1.5v1h-4.7v-1h1.7c0-0.1-0.1-0.1-0.1-0.2H120.1z"/>
	<path class="st1" d="M122.8,94.7c0.9-0.6,1.8-1.4,2.5-2.3l-1.3-0.5c-0.4,0.7-1.3,1.4-2.1,1.8C122,93.7,122.6,94.4,122.8,94.7z"/>
	<path class="st1" d="M117.1,92.2v2.7h4.7v-2.7H117.1z M120.5,94.2h-2.1v-0.3h2.1V94.2z M120.5,93.3h-2.1V93h2.1V93.3z"/>
	<path class="st1" d="M121.1,98.5h0.6v-2h-4.4v2h0.2l0,0h1.2v1c0,0.2-0.5,0.1-0.5,0.1v1.1c0,0,1,0.1,1.4-0.1s0.4-0.5,0.4-1v-0.7
		c0.3,0.5,0.6,1.4,0.7,1.8h1.2C121.9,100.1,121.3,99,121.1,98.5z M118.6,97.7v-0.4h1.8v0.4H118.6z M120.1,98.8v-0.3h0.7L120.1,98.8z
		"/>
	<path class="st1" d="M118.2,99.6c0.2-0.3,0.3-0.6,0.4-0.8l-1-0.3c-0.2,0.6-0.9,1.3-0.9,1.3l0.8,0.8c0,0,0.3-0.4,0.6-0.8L118.2,99.6
		z"/>
	<path class="st1" d="M125.5,97.5c-0.7,1.3-1.7,2.3-2.9,3c-0.2-0.3-0.6-0.8-0.9-1c1-0.5,2.1-1.4,2.6-2.4L125.5,97.5z"/>
	<path class="st1" d="M125.3,95.1c-0.7,1-1.7,1.8-2.6,2.4c-0.2-0.3-0.6-0.7-0.9-0.9c0.8-0.4,1.8-1.2,2.3-2L125.3,95.1z"/>
	<g class="st1">
		<path d="M95.5,65.3l0.2,0.2h1.5v1h-4.6v-1h1.7c0-0.1-0.1-0.1-0.1-0.2H95.5z"/>
		<path d="M97.4,64.8c0,0,2.5,0.3,3-2.5h-1.3c-0.4,1-0.5,1.2-1.7,1.2V64.8z"/>
		<path d="M97.4,67.3c0,0,2.7,0.3,3.3-2.6h-1.3c-0.4,1-0.7,1.3-2,1.3C97.4,66,97.4,67.3,97.4,67.3z"/>
		<path d="M97.4,70.4c0,0,2.8,0.4,3.5-3.2h-1.4c-0.4,1.3-0.7,1.9-2.1,1.9C97.4,69.1,97.4,70.4,97.4,70.4z"/>
		<path d="M92.6,62.5v2.7h4.6v-2.7C97.2,62.5,92.6,62.5,92.6,62.5z M95.9,64.4h-2v-0.3h2V64.4z M95.9,63.5h-2v-0.3h2V63.5z"/>
		<path d="M96.5,68.6h0.6v-1.9h-4.2v1.9h0.2l0,0h1.1v1c0,0.2-0.4,0.1-0.4,0.1v1.1c0,0,1,0.1,1.3-0.1s0.4-0.5,0.4-1v-0.6
			c0.3,0.5,0.6,1.4,0.7,1.7h1.1C97.3,70.1,96.7,69,96.5,68.6z M94,67.7v-0.3h1.7v0.4L94,67.7L94,67.7z M95.5,68.9v-0.3h0.7
			L95.5,68.9z"/>
		<path d="M93.7,69.6c0.2-0.3,0.3-0.6,0.4-0.8l-1-0.3c-0.2,0.6-0.9,1.3-0.9,1.3l0.8,0.8c0,0,0.3-0.4,0.6-0.8L93.7,69.6z"/>
	</g>
	<path class="st1" d="M103.9,96.4l0.2,0.2h1.5v1h-4.7v-1h1.7c0-0.1-0.1-0.1-0.1-0.2H103.9z"/>
	<path class="st1" d="M105.8,95.9c0,0,2.5,0.3,3.1-2.5h-1.4c-0.4,1-0.5,1.3-1.7,1.3V95.9z"/>
	<path class="st1" d="M105.8,98.5c0,0,2.8,0.3,3.4-2.7h-1.3c-0.4,1.1-0.7,1.3-2.1,1.3V98.5z"/>
	<path class="st1" d="M105.8,101.7c0,0,2.9,0.4,3.5-3.2h-1.4c-0.4,1.3-0.7,1.9-2.1,1.9V101.7z"/>
	<path class="st1" d="M100.9,93.5v2.7h4.7v-2.7H100.9z M104.2,95.4h-2v-0.3h2V95.4z M104.2,94.5h-2v-0.3h2V94.5z"/>
	<path class="st1" d="M104.8,99.7h0.6v-2H101v2h0.2l0,0h1.2v1c0,0.2-0.5,0.1-0.5,0.1v1.1c0,0,1,0.1,1.4-0.1s0.4-0.5,0.4-1v-0.7
		c0.3,0.5,0.6,1.4,0.7,1.8h1.2C105.7,101.3,105.1,100.2,104.8,99.7z M102.3,98.9v-0.4h1.8v0.4H102.3z M103.9,100.1v-0.3h0.7
		L103.9,100.1z"/>
	<path class="st1" d="M102,100.8c0.2-0.3,0.3-0.6,0.4-0.8l-1-0.3c-0.2,0.6-0.9,1.3-0.9,1.3l0.8,0.8c0,0,0.3-0.4,0.6-0.8L102,100.8z"
		/>
	<g class="st1">
		<path d="M124.6,69.6h7.8v0.9h-7.8C124.6,70.5,124.6,69.6,124.6,69.6z M132.3,66v0.8h-7.6V66h3.1v-0.2h-2.7v-0.7h2.7v-0.2h-2.4
			v-0.7h2.4V64h-3v-0.7h3v-0.2h-2.4v-0.7h2.4v-0.2h1.3v0.2h2.6v0.9h0.6V64h-0.6v0.9h-2.6v0.2h2.9v0.7h-2.9V66H132.3z M131.7,67v2.4
			h-6.2v-2.3L131.7,67L131.7,67z M126.7,67.9h1.2v-0.2h-1.2V67.9z M126.7,68.7h1.2v-0.3h-1.2V68.7z M130.4,67.6h-1.3v0.2h1.3V67.6z
			 M130.4,68.5h-1.3v0.3h1.3V68.5z M129.1,63.2h1.3V63h-1.3V63.2z M129.1,64.1h1.3v-0.2h-1.3V64.1z"/>
	</g>
	<g class="st17">
		<path d="M56.7-21c0,5.1-3.1,8.9-8.6,8.9c-5.4,0-8.9-3.8-8.9-8.9c0-4.9,3.4-8.9,8.9-8.9S56.7-26.1,56.7-21z M48.1-14.5
			c3.8,0,6.1-2.6,6.1-6.5s-2.2-6.5-6.1-6.5c-3.8,0-6.3,2.7-6.3,6.5C41.8-17.1,44.3-14.5,48.1-14.5z M50.1-19.6
			c2.8-0.8,2.5-5.7-1.6-5.7c-1.4,0-2.5,0-3.9,0v8.8H47v-2.6h1l1.4,2.6H52L50.1-19.6z M48.6-23.2c1.2,0,1.2,2,0,2h-1.7v-2H48.6z"/>
	</g>
	<g class="st17">
		<path d="M188.5,16.8c0,2.5-1.5,4.3-4.2,4.3c-2.6,0-4.3-1.8-4.3-4.3c0-2.4,1.6-4.3,4.3-4.3C187,12.6,188.5,14.4,188.5,16.8z
			 M184.4,20c1.8,0,2.9-1.2,2.9-3.2c0-1.9-1.1-3.1-2.9-3.1c-1.8,0-3,1.3-3,3.1C181.3,18.7,182.5,20,184.4,20z M185.3,17.5
			c1.4-0.4,1.2-2.7-0.8-2.7c-0.7,0-1.2,0-1.9,0v4.3h1.2v-1.3h0.5l0.7,1.3h1.3L185.3,17.5z M184.6,15.8c0.6,0,0.6,1,0,1h-0.8v-1
			C183.8,15.8,184.6,15.8,184.6,15.8z"/>
	</g>
	<line class="st8" x1="27" y1="102.7" x2="105.8" y2="102.7"/>
	<g class="st1">
		<g>
			<path d="M-81-143c-0.1-1.5-0.1-2-0.1-2.5v-4.2h3.4v12.3h-2.9l-5-6.6l0.1,2.7v3.9h-3.4v-12.3h2.9L-81-143z"/>
			<path d="M-69.3-137.1c-3.9,0-6.6-2.3-6.6-6.5c0-4,2.7-6.5,6.6-6.5s6.6,2.4,6.6,6.5C-62.7-139.4-65.4-137.1-69.3-137.1z
				 M-69.3-147c-1.9,0-3.3,1.4-3.3,3.5s1.4,3.5,3.3,3.5c2,0,3.3-1.4,3.3-3.5C-66-145.7-67.3-147-69.3-147z"/>
			<path d="M-53-143c-0.1-1.5-0.1-2-0.1-2.5v-4.2h3.4v12.3h-2.9l-5-6.6l0.1,2.7v3.9h-3.4v-12.3h2.9L-53-143z"/>
			<path d="M-42.4-145.6l1.1-2.2l1.1-1.8h3.6v0.2l-3.8,5.9l4,6.1v0.1h-3.7l-1.1-1.7l-1.3-2.3l-1.3,2.3l-1.1,1.7h-3.7v-0.1l4-6.1
				l-3.8-5.9v-0.2h3.6l1.1,1.9L-42.4-145.6z"/>
			<path d="M-29.5-137.1c-3.9,0-6.6-2.3-6.6-6.5c0-4,2.7-6.5,6.6-6.5s6.6,2.4,6.6,6.5C-22.9-139.4-25.6-137.1-29.5-137.1z
				 M-29.5-147c-1.9,0-3.3,1.4-3.3,3.5s1.4,3.5,3.3,3.5c2,0,3.3-1.4,3.3-3.5C-26.3-145.7-27.6-147-29.5-147z"/>
			<path d="M-76.2-117.7H-79l-2.1-5.9l-2.1,5.9h-2.7l-4.5-12.3h3.7l1.5,4.3c0.3,0.9,0.5,1.9,0.6,2.9l2.2-7.2h2.3l2.3,7.2
				c0.2-0.9,0.4-1.9,0.7-2.9l1.4-4.2h3.7L-76.2-117.7z"/>
			<path d="M-65-117.4c-3.9,0-6.6-2.3-6.6-6.5c0-4,2.7-6.5,6.6-6.5s6.6,2.4,6.6,6.5C-58.4-119.7-61.1-117.4-65-117.4z M-65-127.3
				c-1.9,0-3.3,1.4-3.3,3.5s1.4,3.5,3.3,3.5c2,0,3.3-1.4,3.3-3.5C-61.8-126-63-127.3-65-127.3z"/>
			<path d="M-45.6-117.7h-3.7l-2.8-4h-1.2v4h-3.4V-130h5.8c3.1,0,4.6,2,4.6,4.2c0,1.5-0.5,2.8-2.5,3.7l3.1,4.2L-45.6-117.7
				L-45.6-117.7z M-53.2-127.2v3h2.5c0.9,0,1.3-0.7,1.3-1.4c0-0.8-0.4-1.5-1.3-1.5L-53.2-127.2L-53.2-127.2z"/>
			<path d="M-33.5-129.8l-4.9,5.8c1.7,1.9,3.6,4.1,5.3,6.1v0.2h-4.2l-3.4-4.1v4.1h-3.4V-130h3.4v4c1-1.3,2.1-2.7,3.1-4h4
				L-33.5-129.8C-33.6-129.8-33.5-129.8-33.5-129.8z"/>
			<path d="M-25-126.6c-0.8-0.6-1.8-0.8-2.8-0.8c-0.8,0-1.6,0.3-1.6,0.9c0,0.8,0.8,1,2,1.1c2.4,0.3,4.9,1.2,4.9,4.1
				c0,2.8-2.6,4-5.2,4c-2.2,0-3.7-0.4-5.3-2.2l1.9-2.2c1.2,1.2,2.5,1.4,3.5,1.4c1.1,0,1.9-0.4,1.9-1.1c0-0.6-0.7-1-2-1.1
				c-2.6-0.2-4.9-0.9-4.9-4c0-2.6,2.5-3.7,5-3.7c1.8,0,3.2,0.4,4.5,1.5L-25-126.6z"/>
			<path d="M-13.3-117.7v-4.7h-4.3v4.7H-21V-130h3.4v4.7h4.3v-4.7h3.3v12.3H-13.3z"/>
			<path d="M-1.5-117.4c-3.9,0-6.6-2.3-6.6-6.5c0-4,2.7-6.5,6.6-6.5s6.6,2.4,6.6,6.5C5.1-119.7,2.4-117.4-1.5-117.4z M-1.5-127.3
				c-1.9,0-3.3,1.4-3.3,3.5s1.4,3.5,3.3,3.5c2,0,3.3-1.4,3.3-3.5C1.7-126,0.5-127.3-1.5-127.3z"/>
			<path d="M10.3-121v3.3H6.9V-130h5.8c3.2,0,4.8,2.1,4.8,4.5c0,2.5-1.6,4.5-4.8,4.5H10.3z M10.3-124h2.4c0.9,0,1.4-0.7,1.4-1.5
				s-0.5-1.5-1.4-1.5h-2.4C10.3-127,10.3-124,10.3-124z"/>
		</g>
	</g>
	<path class="st10" d="M-19.7-21.7c5,5,2,13.8-5.2,14.4c-5.9,0.4-12-1.6-16.5-6.1S-48-24-47.5-29.9c0.5-7.1,9.3-10.2,14.4-5.2
		L-19.7-21.7z"/>
	<path class="st10" d="M-22.9-28.9c-5-5-2-13.8,5.2-14.4c5.9-0.4,12,1.6,16.5,6.1s6.6,10.6,6.1,16.5c-0.5,7.1-9.3,10.2-14.4,5.2
		L-22.9-28.9z"/>
	<path class="st10" d="M35.3-20.9c-0.5-2.7-2.3-4.5-4.7-5.6c-2.3-1.1-7.6-0.9-8.2-3.8c-1.2-6.3-10.9-3.6-9.6,2.7
		c0.7,3.8,4.7,8.2,8.9,9.4c-0.2,0-0.5,0-0.7,0c-3.2-0.4-5.7-2.8-7.9-5.1c-4-4.1-7.8-6.9-13.7-4.4c-5.4,2.3-9,7.6-10.3,13.2
		c-1.5,6.3,8.1,8.9,9.6,2.7c0.7-2.7,2.5-7.4,5.8-6c1.1,0.5,2.2,2.4,3.2,3.2c1,1,2.2,1.9,3.3,2.7c4.7,3.4,11,5.1,16.7,2.6
		C32-11.1,36.3-15.8,35.3-20.9z"/>
	<path class="st10" d="M9.6,48.9c-0.6-3.1-3-5.2-5.8-6.5c-0.6-0.3-1.2-0.5-1.9-0.7c2.9-2.8,0.2-9.3-5.1-8.5c-4,0.6-7.8,2.4-9.1,6.5
		c-1.1,3.6,0.6,7.1,3.7,8.9c1.7,1,3.9,1.5,5.8,2.1c0.4,0.1,0.7,0.2,1.1,0.4c-0.4,0.1-0.7,0.2-1.1,0.2C-8,52.1-13.3,49.7-17.6,47
		c-6.6-4.1-14.2-12.6-22.2-5.9c-6.5,5.5-6,15.1-0.7,21.1c4.3,4.8,11.3-2.3,7.1-7.1c-2.2-2.4-1.6-7.5,2.3-5.7
		c3.2,1.6,6.1,4.7,9.2,6.6c6.2,3.7,13.4,6.1,20.6,5.1C4.9,60.3,11,55.7,9.6,48.9z"/>
	<polyline class="st18" points="152.2,62.1 152.2,43.8 174,65.6 174,37 	"/>
	<polygon class="st19" points="40.3,24 39.7,24 52.1,11.6 52.7,11.6 	"/>
	<path class="st19" d="M60.9,24.2c-3.5,0-6.4-2.9-6.4-6.4s2.9-6.4,6.4-6.4s6.4,2.9,6.4,6.4S64.4,24.2,60.9,24.2z M60.9,11.8
		c-3.3,0-6,2.7-6,6s2.7,6,6,6c3.3,0,6-2.7,6-6S64.2,11.8,60.9,11.8z"/>
	<rect x="39.5" y="15.5" class="st6" width="30" height="4.5"/>
	<polygon class="st19" points="52.1,24 39.7,11.6 40.3,11.6 52.7,24 	"/>
	<polygon class="st20" points="94.9,24 94.3,24 106.8,11.6 107.4,11.6 	"/>
	<path class="st20" d="M115.6,24.2c-3.5,0-6.4-2.9-6.4-6.4s2.9-6.4,6.4-6.4s6.4,2.9,6.4,6.4C121.9,21.3,119.1,24.2,115.6,24.2z
		 M115.6,11.8c-3.3,0-6,2.7-6,6s2.7,6,6,6s6-2.7,6-6C121.5,14.5,118.9,11.8,115.6,11.8z"/>
	<rect x="94.2" y="15.5" class="st6" width="30" height="4.5"/>
	<polygon class="st20" points="106.8,24 94.3,11.6 94.9,11.6 107.4,24 	"/>
</g>
<g>
	<path d="M24.2,181.5v-13.1c0-3.8-1.7-5.8-5.1-5.8c-3.4-0.1-5.6,2.9-5.6,6.1v12.8H6.4v-24.7h6.5l0.3,3.2c2.2-2.8,5-3.8,8-3.7
		c5.6,0,10.3,2.6,10.3,12.2v13.1h-7.3V181.5z"/>
	<path d="M34.8,169.2c0-7.5,5.3-13,13.5-13c8.3,0,13.6,5.5,13.6,13S56.7,182,48.3,182S34.8,176.6,34.8,169.2z M54.5,169.2
		c0-3.1-1.9-6.5-6.3-6.5c-4.3,0-6.2,3.4-6.2,6.5s1.9,6.5,6.2,6.5C52.7,175.6,54.5,172.4,54.5,169.2z"/>
	<path d="M83.3,181.5v-13.1c0-3.8-1.7-5.8-5.1-5.8c-3.4-0.1-5.6,2.9-5.6,6.1v12.8h-7.1v-24.7H72l0.3,3.2c2.2-2.8,5-3.8,8-3.7
		c5.6,0,10.3,2.6,10.3,12.2v13.1h-7.3V181.5z"/>
	<path d="M109.9,156.8h8.6v0.3l-7.9,12l8.3,12.3v0.1h-8.6l-4.6-7.4l-4.5,7.4h-8.7v-0.1l8.4-12.3l-7.9-12v-0.3h8.6l4.1,7.4
		L109.9,156.8z"/>
	<path d="M119,169.2c0-7.5,5.3-13,13.5-13c8.3,0,13.6,5.5,13.6,13s-5.2,12.9-13.6,12.9C124.2,182,119,176.6,119,169.2z M138.8,169.2
		c0-3.1-1.9-6.5-6.3-6.5c-4.3,0-6.2,3.4-6.2,6.5s1.9,6.5,6.2,6.5C136.9,175.6,138.8,172.4,138.8,169.2z"/>
	<path d="M69.2,203.5c-1.9-1.3-3.6-1.8-5.9-1.8c-2.4,0-3.6,0.9-3.6,2.1c0,1.4,1.2,2.1,3.7,2.2c4.9,0.2,10.7,1.2,10.8,8
		c0.1,4-3,8.3-10.8,8.3c-3.7,0-7.4-0.7-11.6-4.2l3.1-5.1c3.1,2.5,6,3.1,8.6,3.1c2.1,0.1,3.8-0.8,3.7-2.1c0-1.2-0.9-2.1-4.2-2.2
		c-4.6-0.2-10.4-2.1-10.4-7.9c0-5.6,5.3-8,10.7-8c3.8,0,6.9,1,9.5,3.2L69.2,203.5z"/>
	<path d="M87.3,189.8v6.9h6.3v6h-6.3v9.3c0,2.6,1.5,3.3,2.8,3.3c0.9,0,2.2-0.2,3-0.6l1.6,6c-1.8,0.7-3.3,1-5.2,1.1
		c-5.4,0.2-9.4-2.1-9.4-9.8v-9.3h-4.4v-6h4.4v-6.1L87.3,189.8z"/>
	<path d="M104.4,196.5v13.1c0,3.8,1.7,5.8,5.1,5.8c3.4,0.1,5.6-2.9,5.6-6.1v-12.8h7.1v24.7h-6.5l-0.3-3.3c-2.2,2.9-5,3.8-8,3.8
		c-5.6,0-10.3-2.5-10.3-12.1v-13.1L104.4,196.5L104.4,196.5z"/>
	<path d="M153.2,186.3v35h-6.5l-0.5-3.2c-2.3,2.9-5.1,3.6-8.2,3.6c-7.3,0-12.2-5.1-12.2-12.8c0-8,5.1-12.9,12.3-12.9
		c2.9,0,5.7,0.9,7.8,3.5v-13.3L153.2,186.3L153.2,186.3z M133.1,208.9c0,3.6,2.2,6.4,6.1,6.4c3.3,0,6.7-1.7,6.7-6.4
		c0-4.2-3.4-6.4-6.7-6.4C135.5,202.5,133.1,205.2,133.1,208.9z"/>
	<path d="M166,190c0,5.4-8.2,5.4-8.2,0S166,184.6,166,190z M158.3,196.5v24.8h7.2v-24.8H158.3z"/>
	<path d="M169.1,208.9c0-7.5,5.3-13,13.5-13c8.3,0,13.6,5.5,13.6,13s-5.2,12.9-13.6,12.9C174.3,221.8,169.1,216.4,169.1,208.9z
		 M188.9,208.9c0-3.1-1.9-6.5-6.3-6.5c-4.3,0-6.2,3.4-6.2,6.5s1.9,6.5,6.2,6.5C187,215.4,188.9,212.2,188.9,208.9z"/>
	<path d="M205,204.7h-3.3v-6.4h-2.9v-2.9h9.2v2.9h-3V204.7z M214.7,198.3l2.3-2.9h3.3v9.3H217v-2.8l0.2-2.2c-0.7,1-1.6,2.1-2.2,3
		h-0.6l-2.2-3l0.2,2.2v2.8h-3.2v-9.3h3.2L214.7,198.3z"/>
</g>
<g>
	<polygon points="22,43.8 3.2,62.6 14,62.6 32.8,43.8 	"/>
	<polygon points="46.2,30.4 65,11.6 54.1,11.7 35.3,30.4 	"/>
</g>
<polygon points="14,11.7 3.1,11.6 54.1,62.6 64.9,62.6 "/>
<path d="M106.1,32.3c-2.2-8.6-9.9-14.5-18.8-14.5c-8.6,0-16.3,5.8-18.6,14l-7.4-2.1c3.3-11.6,14-19.7,26-19.7
	c12.4,0,23.2,8.4,26.3,20.3L106.1,32.3z"/>
<path d="M87.3,64.2c-12.4,0-23.2-8.4-26.3-20.4l7.5-1.9c2.2,8.6,9.9,14.6,18.8,14.6c8.8,0,16.6-6,18.8-14.5l7.5,1.9
	C110.5,55.9,99.7,64.2,87.3,64.2z"/>
</svg>
