<?xml version="1.0" encoding="utf-8"?>
<!-- Generator: Adobe Illustrator 19.1.1, SVG Export Plug-In . SVG Version: 6.00 Build 0)  -->
<svg version="1.1" id="圖層_1" xmlns="http://www.w3.org/2000/svg" xmlns:xlink="http://www.w3.org/1999/xlink" x="0px" y="0px"
	 viewBox="0 0 25 25" style="enable-background:new 0 0 25 25;" xml:space="preserve">
<style type="text/css">
	.st0{fill:#FFFFFF;}
	.st1{fill:none;stroke:#222222;stroke-width:7.4402;stroke-linecap:round;stroke-miterlimit:10;}
	.st2{fill:none;stroke:#000000;stroke-width:0.954;stroke-linecap:round;stroke-miterlimit:10;}
	.st3{fill:none;stroke:#222222;stroke-width:0.954;stroke-linecap:round;stroke-miterlimit:10;}
	.st4{fill:none;stroke:#222222;stroke-width:7.1537;stroke-linecap:round;stroke-miterlimit:10;}
	.st5{fill:none;stroke:#000000;stroke-width:2;stroke-linecap:round;stroke-miterlimit:10;}
	.st6{fill:none;stroke:#000000;stroke-width:0.477;stroke-linecap:round;stroke-miterlimit:10;}
	.st7{fill:none;stroke:#000000;stroke-width:0.5;stroke-linecap:round;stroke-miterlimit:10;}
	.st8{fill:none;stroke:#000000;stroke-width:1.7;stroke-linecap:round;stroke-miterlimit:10;}
	.st9{fill:#231815;}
	.st10{fill:none;stroke:#000000;stroke-width:1.6;stroke-linecap:round;stroke-miterlimit:10;}
</style>
<path class="st9" d="M12.2,0.8l0,4.8c0,0.4-0.3,0.8-0.7,0.9c-2.9,0.5-5.1,3-5.1,6.1s2.2,5.6,5.1,6.1c0.4,0.1,0.7,0.4,0.7,0.9l0,4.8
	c0,0.2,0.1,0.3,0.3,0.3s0.3-0.1,0.3-0.3l0-4.8c0-0.4,0.3-0.8,0.7-0.9c2.9-0.5,5.1-3,5.1-6.1s-2.2-5.6-5.1-6.1
	c-0.4-0.1-0.7-0.4-0.7-0.9l0-4.8c0-0.2-0.1-0.3-0.3-0.3S12.2,0.6,12.2,0.8z M7,12.5c0-2.5,1.7-4.7,4.1-5.3C11.6,7,12.2,7.4,12.2,8v9
	c0,0.6-0.6,1-1.1,0.8C8.7,17.2,7,15,7,12.5z M18,12.5c0,2.5-1.7,4.7-4.1,5.3c-0.6,0.2-1.1-0.3-1.1-0.8V8c0-0.6,0.6-1,1.1-0.8
	C16.3,7.8,18,10,18,12.5z"/>
</svg>
