<?xml version="1.0" encoding="utf-8"?>
<!-- Generator: Adobe Illustrator 19.1.1, SVG Export Plug-In . SVG Version: 6.00 Build 0)  -->
<svg version="1.1" xmlns="http://www.w3.org/2000/svg" xmlns:xlink="http://www.w3.org/1999/xlink" x="0px" y="0px"
	 viewBox="0 0 25 25" style="enable-background:new 0 0 25 25;" xml:space="preserve">
<style type="text/css">
	.st0{display:none;}
	.st1{display:inline;fill:#FFFFFF;}
	.st2{fill:none;stroke:#222222;stroke-width:7.4402;stroke-linecap:round;stroke-miterlimit:10;}
	.st3{fill:none;stroke:#000000;stroke-width:0.954;stroke-linecap:round;stroke-miterlimit:10;}
	.st4{fill:none;stroke:#222222;stroke-width:0.954;stroke-linecap:round;stroke-miterlimit:10;}
	.st5{fill:none;stroke:#222222;stroke-width:7.1537;stroke-linecap:round;stroke-miterlimit:10;}
	.st6{fill:none;stroke:#000000;stroke-width:2;stroke-linecap:round;stroke-miterlimit:10;}
	.st7{fill:none;stroke:#000000;stroke-width:0.477;stroke-linecap:round;stroke-miterlimit:10;}
	.st8{fill:none;stroke:#000000;stroke-width:0.5;stroke-linecap:round;stroke-miterlimit:10;}
	.st9{fill:none;stroke:#000000;stroke-width:1.7;stroke-linecap:round;stroke-miterlimit:10;}
	.st10{fill:#231815;}
	.st11{fill:none;stroke:#000000;stroke-width:1.6;stroke-linecap:round;stroke-miterlimit:10;}
</style>
<g id="圖層_2" class="st0">
</g>
<g id="圖層_1">
	<path class="st10" d="M4.5,21l3.4-3.4c0.3-0.3,0.8-0.3,1.1-0.1c2.4,1.7,5.8,1.5,7.9-0.7s2.4-5.5,0.7-7.9c-0.2-0.3-0.2-0.8,0.1-1.1
		L21,4.5c0.1-0.1,0.1-0.3,0-0.5c-0.1-0.1-0.3-0.1-0.5,0l-3.4,3.4c-0.3,0.3-0.8,0.3-1.1,0.1C13.6,5.8,10.3,6,8.1,8.1
		s-2.4,5.5-0.7,7.9c0.2,0.3,0.2,0.8-0.1,1.1L4,20.5c-0.1,0.1-0.1,0.3,0,0.5C4.1,21.1,4.3,21.1,4.5,21z M16.4,16.4
		c-1.8,1.8-4.5,2.1-6.7,0.9c-0.5-0.3-0.6-1-0.2-1.4l6.3-6.3c0.4-0.4,1.1-0.3,1.4,0.2C18.5,11.9,18.2,14.6,16.4,16.4z M8.6,8.6
		c1.8-1.8,4.5-2.1,6.7-0.9c0.5,0.3,0.6,1,0.2,1.4l-6.3,6.3c-0.4,0.4-1.1,0.3-1.4-0.2C6.5,13.1,6.8,10.4,8.6,8.6z"/>
	<path class="st10" d="M4.5,21l3.4-3.4c0.3-0.3,0.8-0.3,1.1-0.1c2.4,1.7,5.8,1.5,7.9-0.7s2.4-5.5,0.7-7.9c-0.2-0.3-0.2-0.8,0.1-1.1
		L21,4.5c0.1-0.1,0.1-0.3,0-0.5c-0.1-0.1-0.3-0.1-0.5,0l-3.4,3.4c-0.3,0.3-0.8,0.3-1.1,0.1C13.6,5.8,10.3,6,8.1,8.1
		s-2.4,5.5-0.7,7.9c0.2,0.3,0.2,0.8-0.1,1.1L4,20.5c-0.1,0.1-0.1,0.3,0,0.5C4.1,21.1,4.3,21.1,4.5,21z M16.4,16.4
		c-1.8,1.8-4.5,2.1-6.7,0.9c-0.5-0.3-0.6-1-0.2-1.4l6.3-6.3c0.4-0.4,1.1-0.3,1.4,0.2C18.5,11.9,18.2,14.6,16.4,16.4z M8.6,8.6
		c1.8-1.8,4.5-2.1,6.7-0.9c0.5,0.3,0.6,1,0.2,1.4l-6.3,6.3c-0.4,0.4-1.1,0.3-1.4-0.2C6.5,13.1,6.8,10.4,8.6,8.6z"/>
	<path class="st10" d="M4.5,21l3.4-3.4c0.3-0.3,0.8-0.3,1.1-0.1c2.4,1.7,5.8,1.5,7.9-0.7s2.4-5.5,0.7-7.9c-0.2-0.3-0.2-0.8,0.1-1.1
		L21,4.5c0.1-0.1,0.1-0.3,0-0.5c-0.1-0.1-0.3-0.1-0.5,0l-3.4,3.4c-0.3,0.3-0.8,0.3-1.1,0.1C13.6,5.8,10.3,6,8.1,8.1
		s-2.4,5.5-0.7,7.9c0.2,0.3,0.2,0.8-0.1,1.1L4,20.5c-0.1,0.1-0.1,0.3,0,0.5C4.1,21.1,4.3,21.1,4.5,21z M16.4,16.4
		c-1.8,1.8-4.5,2.1-6.7,0.9c-0.5-0.3-0.6-1-0.2-1.4l6.3-6.3c0.4-0.4,1.1-0.3,1.4,0.2C18.5,11.9,18.2,14.6,16.4,16.4z M8.6,8.6
		c1.8-1.8,4.5-2.1,6.7-0.9c0.5,0.3,0.6,1,0.2,1.4l-6.3,6.3c-0.4,0.4-1.1,0.3-1.4-0.2C6.5,13.1,6.8,10.4,8.6,8.6z"/>
</g>
</svg>
