<?xml version="1.0" encoding="utf-8"?>
<!-- Generator: Adobe Illustrator 19.1.1, SVG Export Plug-In . SVG Version: 6.00 Build 0)  -->
<svg version="1.1" id="圖層_1" xmlns="https://www.w3.org/2000/svg" xmlns:xlink="https://www.w3.org/1999/xlink" x="0px" y="0px"
	 viewBox="0 0 25 25" style="enable-background:new 0 0 25 25;" xml:space="preserve">
<style type="text/css">
	.st0{fill:#FFFFFF;}
	.st1{fill:none;stroke:#222222;stroke-width:7.4402;stroke-linecap:round;stroke-miterlimit:10;}
	.st2{fill:none;stroke:#000000;stroke-width:0.954;stroke-linecap:round;stroke-miterlimit:10;}
	.st3{fill:none;stroke:#222222;stroke-width:0.954;stroke-linecap:round;stroke-miterlimit:10;}
	.st4{fill:none;stroke:#222222;stroke-width:7.1537;stroke-linecap:round;stroke-miterlimit:10;}
	.st5{fill:none;stroke:#000000;stroke-width:2;stroke-linecap:round;stroke-miterlimit:10;}
	.st6{fill:none;stroke:#000000;stroke-width:0.477;stroke-linecap:round;stroke-miterlimit:10;}
	.st7{fill:none;stroke:#000000;stroke-width:0.5;stroke-linecap:round;stroke-miterlimit:10;}
	.st8{fill:none;stroke:#000000;stroke-width:1.7;stroke-linecap:round;stroke-miterlimit:10;}
	.st9{fill:#231815;}
	.st10{fill:none;stroke:#000000;stroke-width:1.6;stroke-linecap:round;stroke-miterlimit:10;}
</style>
<path class="st9" d="M0.8,12.8l4.8,0c0.4,0,0.8,0.3,0.9,0.7c0.5,2.9,3,5.1,6.1,5.1s5.6-2.2,6.1-5.1c0.1-0.4,0.4-0.7,0.9-0.7l4.8,0
	c0.2,0,0.3-0.1,0.3-0.3s-0.1-0.3-0.3-0.3l-4.8,0c-0.4,0-0.8-0.3-0.9-0.7c-0.5-2.9-3-5.1-6.1-5.1s-5.6,2.2-6.1,5.1
	c-0.1,0.4-0.4,0.7-0.9,0.7l-4.8,0c-0.2,0-0.3,0.1-0.3,0.3S0.6,12.8,0.8,12.8z M12.5,18c-2.5,0-4.7-1.7-5.3-4.1
	C7,13.4,7.4,12.8,8,12.8h9c0.6,0,1,0.6,0.8,1.1C17.2,16.3,15,18,12.5,18z M12.5,7c2.5,0,4.7,1.7,5.3,4.1c0.2,0.6-0.3,1.1-0.8,1.1H8
	c-0.6,0-1-0.6-0.8-1.1C7.8,8.7,10,7,12.5,7z"/>
</svg>
