<?xml version="1.0" encoding="utf-8"?>
<!-- Generator: Adobe Illustrator 23.0.1, SVG Export Plug-In . SVG Version: 6.00 Build 0)  -->
<svg version="1.1" id="圖層_1" xmlns="http://www.w3.org/2000/svg" xmlns:xlink="http://www.w3.org/1999/xlink" x="0px" y="0px"
	 viewBox="0 0 340 340" style="enable-background:new 0 0 340 340;" xml:space="preserve">
<style type="text/css">
	.st0{fill:none;stroke:#040000;stroke-width:3.1718;stroke-miterlimit:10;}
	.st1{fill:none;stroke:#040000;stroke-width:5.14;stroke-miterlimit:10;}
</style>
<circle class="st0" cx="48.6" cy="55" r="12.9"/>
<circle class="st0" cx="174.3" cy="304.7" r="12.9"/>
<circle class="st0" cx="209.7" cy="120.8" r="12.9"/>
<circle cx="1118.6" cy="115.9" r="25.6"/>
<circle cx="1373" cy="-88.4" r="25.6"/>
<circle cx="1051.5" cy="502.1" r="25.6"/>
<line class="st1" x1="1051.5" y1="165.1" x2="1093" y2="206.7"/>
<line class="st1" x1="1093" y1="165.1" x2="1051.5" y2="206.7"/>
<line class="st1" x1="1273.4" y1="494.4" x2="1314.9" y2="535.9"/>
<line class="st1" x1="1314.9" y1="494.4" x2="1273.4" y2="535.9"/>
<g>
	<line class="st0" x1="243.3" y1="207.4" x2="267.6" y2="234.4"/>
	<line class="st0" x1="267.6" y1="207.4" x2="243.3" y2="234.4"/>
</g>
<line class="st0" x1="263.2" y1="31.4" x2="287.6" y2="58.3"/>
<line class="st0" x1="287.6" y1="31.4" x2="263.2" y2="58.3"/>
<line class="st0" x1="91.2" y1="193.9" x2="115.5" y2="220.9"/>
<line class="st0" x1="115.5" y1="193.9" x2="91.2" y2="220.9"/>
</svg>
