<?xml version="1.0" encoding="utf-8"?>
<!-- Generator: Adobe Illustrator 19.1.1, SVG Export Plug-In . SVG Version: 6.00 Build 0)  -->
<svg version="1.1" xmlns="http://www.w3.org/2000/svg" xmlns:xlink="http://www.w3.org/1999/xlink" x="0px" y="0px"
	 viewBox="0 0 900 900" style="enable-background:new 0 0 900 900;" xml:space="preserve">
<style type="text/css">
	.st0{opacity:0.8;}
	.st1{fill:none;stroke:#000000;stroke-miterlimit:10;}
	.st2{fill:none;stroke:#000000;}
	.st3{fill:none;stroke:#000000;stroke-width:2;}
	.st4{fill:url(#SVGID_1_);}
	.st5{opacity:0.3;fill:url(#SVGID_2_);}
	.st6{fill:url(#SVGID_3_);}
	.st7{fill:url(#SVGID_4_);}
	.st8{fill:url(#SVGID_5_);}
	.st9{fill:url(#SVGID_6_);}
</style>
<g id="圖層_2">
</g>
<g id="圖層_1">
	<g class="st0">
		<g>
			<path class="st2" d="M92.5,368c1,0,1.7,0.7,1.7,1.7v9.8c0,1-0.7,1.7-1.7,1.7h-9.1c-0.7,0-1,0.3-1,1v87.3c0,0.7,0.3,1,1,1h39.7
				c0.7,0,1-0.3,1-1v-11.2c0-1,0.7-1.7,1.7-1.7h10.7c1,0,1.7,0.7,1.7,1.7v24.7c0,1-0.7,1.7-1.7,1.7H57c-1,0-1.7-0.7-1.7-1.7v-9.8
				c0-1,0.7-1.7,1.7-1.7h9.1c0.7,0,1-0.3,1-1v-88.3c0-0.7-0.3-1-1-1H57c-1,0-1.7-0.7-1.7-1.7v-9.8c0-1,0.7-1.7,1.7-1.7H92.5z"/>
			<path class="st2" d="M221.4,422.9c1.9,5.7,2.7,11.3,2.7,20.8c0,9.6-0.9,15.3-2.7,21c-4.5,13.9-16.5,22.2-32.5,22.2
				s-28-8.2-32.5-22.2c-1.9-5.7-2.7-11.3-2.7-21c0-9.5,0.9-15.1,2.7-20.8c4.5-14.1,16.5-22.2,32.5-22.2S216.9,408.8,221.4,422.9z
				 M170.4,427c-1.4,4.5-1.9,8.8-1.9,16.7c0,7.9,0.5,12.4,1.9,16.8c2.7,8.2,9.5,12.9,18.6,12.9s15.8-4.6,18.6-12.9
				c1.4-4.5,1.9-8.9,1.9-16.8c0-7.9-0.5-12.2-1.9-16.7c-2.7-8.2-9.5-12.9-18.6-12.9S173.1,418.7,170.4,427z"/>
			<path class="st2" d="M296.3,412h0.2v-7.7c0-1,0.7-1.7,1.7-1.7h22.2c1,0,1.7,0.7,1.7,1.7v9.8c0,1-0.7,1.7-1.7,1.7H312
				c-0.7,0-1,0.3-1,1v64.4c0,23.4-12.7,36.4-35.9,36.4c-11.5,0-22.9-5-28.5-12.2c-0.7-0.9-0.7-1.5,0.2-2.4l7-7c1-1,1.7-0.9,2.6,0
				c5.2,4.8,11.5,8.2,19.4,8.2c13.7,0,20.8-7.2,20.8-22.3v-9.5h-0.2c-4,7-11,11.3-22.9,11.3c-13.7,0-23.5-7-27.7-19.9
				c-2.1-6.2-2.7-12.2-2.7-21.6c0-9.5,0.7-15.5,2.7-21.7c4.1-12.9,13.9-19.9,27.7-19.9C285.3,400.7,292.4,405,296.3,412z
				 M259.7,426.3c-1.4,4.3-2.1,9.3-2.1,16c0,6.7,0.7,11.9,2.1,16c2.7,8.1,8.4,12.4,17.4,12.4c8.6,0,14.6-4,17.5-12.4
				c1.4-4.1,1.9-8.9,1.9-16s-0.5-11.7-1.9-16c-2.9-8.4-8.9-12.2-17.5-12.2C268.1,414.1,262.5,418.4,259.7,426.3z"/>
			<path class="st2" d="M406.6,422.9c1.9,5.7,2.7,11.3,2.7,20.8c0,9.6-0.9,15.3-2.7,21c-4.5,13.9-16.5,22.2-32.5,22.2
				c-16,0-28-8.2-32.5-22.2c-1.9-5.7-2.7-11.3-2.7-21c0-9.5,0.9-15.1,2.7-20.8c4.5-14.1,16.5-22.2,32.5-22.2
				C390.1,400.7,402.2,408.8,406.6,422.9z M355.6,427c-1.4,4.5-1.9,8.8-1.9,16.7c0,7.9,0.5,12.4,1.9,16.8
				c2.7,8.2,9.5,12.9,18.6,12.9c9.1,0,15.8-4.6,18.6-12.9c1.4-4.5,1.9-8.9,1.9-16.8c0-7.9-0.5-12.2-1.9-16.7
				c-2.7-8.2-9.5-12.9-18.6-12.9C365,414.1,358.3,418.7,355.6,427z"/>
			<path class="st2" d="M448.4,376.6c1,0,1.7,0.7,1.7,1.7v23.2c0,0.7,0.3,1,1,1h13.1c1,0,1.7,0.7,1.7,1.7v9.8c0,1-0.7,1.7-1.7,1.7
				h-13.1c-0.7,0-1,0.3-1,1V461c0,8.2,3.1,10.7,10.3,10.7h3.8c1,0,1.7,0.7,1.7,1.7v10.1c0,1-0.7,1.7-1.7,1.7h-6.4
				c-16.2,0-22.2-7.4-22.2-23.5v-44.8c0-0.7-0.3-1-1-1h-7c-1,0-1.7-0.7-1.7-1.7v-9.8c0-1,0.7-1.7,1.7-1.7h7c0.7,0,1-0.3,1-1v-23.2
				c0-1,0.7-1.7,1.7-1.7H448.4z"/>
			<path class="st2" d="M557.5,402.6c1,0,1.7,0.7,1.7,1.7v9.8c0,1-0.7,1.7-1.7,1.7h-5c-0.7,0-1,0.2-1.4,1l-28.9,74.4
				c-7.4,19.2-13.6,24.6-25.8,24.6H492c-1,0-1.7-0.7-1.7-1.7V504c0-1,0.7-1.7,1.7-1.7h3.1c6.7,0,10.1-2.9,13.7-12.2l2.7-7.6
				l-26.5-65.8c-0.3-0.7-0.7-0.9-1.5-0.9h-4.8c-1,0-1.7-0.7-1.7-1.7v-9.8c0-1,0.7-1.7,1.7-1.7h29.4c1,0,1.7,0.7,1.7,1.7v9.8
				c0,1-0.7,1.7-1.7,1.7H501c-0.7,0-0.9,0.5-0.7,1.2l18.2,47.3h0.3l18-47.4c0.2-0.5,0-1-0.9-1h-6.9c-1,0-1.7-0.7-1.7-1.7v-9.8
				c0-1,0.7-1.7,1.7-1.7H557.5z"/>
			<path class="st2" d="M645.8,420.4c2.1,6.5,2.9,12.9,2.9,23.2c0,10.3-0.7,16.8-2.9,23.4c-4.3,13.1-14.1,19.8-28.4,19.8
				c-12.2,0-19.4-4.8-23.4-11.5h-0.2v26.3c0,0.7,0.3,1,1,1h8.4c1,0,1.7,0.7,1.7,1.7v9.8c0,1-0.7,1.7-1.7,1.7H570
				c-1,0-1.7-0.7-1.7-1.7v-9.8c0-1,0.7-1.7,1.7-1.7h8.4c0.7,0,1-0.3,1-1v-84.7c0-0.7-0.3-1-1-1H570c-1,0-1.7-0.7-1.7-1.7v-9.8
				c0-1,0.7-1.7,1.7-1.7h22.2c1,0,1.7,0.7,1.7,1.7v7.7h0.2c4-6.5,11.2-11.3,23.4-11.3C631.7,400.7,641.5,407.2,645.8,420.4z
				 M595.8,426.5c-1.4,4.1-1.9,8.9-1.9,17.2c0,8.2,0.5,13.2,1.9,17.2c2.7,8.2,9.1,12.5,18.2,12.5c9.1,0,15.3-4.5,18-12.5
				c1.4-4.3,1.9-9.6,1.9-17.2c0-7.4-0.5-12.7-1.9-17.2c-2.7-8.1-8.9-12.4-18-12.4C604.9,414.1,598.6,418.2,595.8,426.5z"/>
			<path class="st2" d="M734.8,422.9c1.7,5.3,2.6,11,2.6,23.5c0,1-0.7,1.7-1.9,1.7h-52.1c-0.7,0-1,0.3-1,1c0,4.5,0.5,7.2,1.4,10
				c3.3,9.5,10.7,14.3,20.8,14.3c9.8,0,16.7-4,21.1-9.1c0.9-0.9,1.7-1,2.6-0.3l7,6.4c0.9,0.7,0.9,1.5,0.2,2.4
				c-6.5,8.2-17.7,14.1-32.1,14.1c-16.7,0-28.5-8.1-33-22.3c-1.7-5.3-2.7-11.3-2.7-20.8c0-9.5,0.9-15.8,2.6-20.8
				c4.6-14.3,16.7-22.2,32.3-22.2C718.3,400.7,730.2,408.8,734.8,422.9z M683.6,426.3c-0.9,2.6-1.2,5.5-1.2,9.3c0,0.7,0.3,1,1,1
				h38.1c0.7,0,1-0.3,1-1c0-3.8-0.3-6.7-1.2-9.3c-2.7-8.2-9.6-12.9-18.9-12.9C693.2,413.4,686.4,418,683.6,426.3z"/>
			<path class="st2" d="M815.1,406.2c1,0.5,1.4,1.2,1.4,2.4v16.2c0,1-0.7,1.7-1.7,1.7h-9.8c-1,0-1.7-0.7-1.7-1.7V417
				c0-0.7-0.2-1-0.9-1.4c-3.1-1.4-8.4-2.4-14.6-2.4c-11,0-16.5,4.1-16.5,10.8c0,6.4,3.6,10.1,16,11.5l8.8,0.9
				c18.2,2.1,25.3,10.5,25.3,23.9c0,16.3-11.9,26.5-33.7,26.5c-12,0-22.3-2.7-29.7-6.7c-0.9-0.5-1.2-1-1.2-2.2v-17.2
				c0-1,0.7-1.7,1.7-1.7h10.3c1,0,1.7,0.7,1.7,1.7v8.8c0,0.9,0.3,1.2,0.9,1.4c5.2,2.2,11.3,3.1,17.4,3.1c12.4,0,18.4-4.5,18.4-12.2
				c0-6.9-3.6-10.7-16.7-12l-8.8-1c-16.7-1.9-24.6-10-24.6-23.4c0-15.1,11.3-24.6,30.9-24.6C799.1,400.7,808,402.9,815.1,406.2z"/>
		</g>
	</g>
	<g class="st0">
		<path class="st2" d="M56.8,510c-1,0-1.7-0.7-1.7-1.7v-10c0-1,0.7-1.7,1.7-1.7h353.1c1,0,1.7,0.7,1.7,1.7v10c0,1-0.7,1.7-1.7,1.7
			H56.8z"/>
	</g>
	<g class="st0">
		<path class="st2" d="M431.5,510c-1,0-1.7-0.7-1.7-1.7v-10c0-1,0.7-1.7,1.7-1.7h391.8c1,0,1.7,0.7,1.7,1.7v10c0,1-0.7,1.7-1.7,1.7
			H431.5z"/>
	</g>
</g>
</svg>
