<?xml version="1.0" encoding="utf-8"?>
<!-- Generator: Adobe Illustrator 19.1.1, SVG Export Plug-In . SVG Version: 6.00 Build 0)  -->
<svg version="1.1" xmlns="http://www.w3.org/2000/svg" xmlns:xlink="http://www.w3.org/1999/xlink" x="0px" y="0px"
	 viewBox="0 0 900 1283.4" style="enable-background:new 0 0 900 1283.4;" xml:space="preserve">
<style type="text/css">
	.st0{opacity:0.8;}
	.st1{fill:none;stroke:#000000;stroke-miterlimit:10;}
	.st2{fill:none;stroke:#000000;}
	.st3{fill:none;stroke:#000000;stroke-width:2;}
	.st4{fill:url(#SVGID_1_);}
	.st5{opacity:0.3;fill:url(#SVGID_2_);}
	.st6{fill:url(#SVGID_3_);}
	.st7{fill:url(#SVGID_4_);}
	.st8{fill:url(#SVGID_5_);}
	.st9{fill:url(#SVGID_6_);}
</style>
<g id="圖層_2">
</g>
<g id="圖層_1">
	<g class="st0">
		<g>
			<g>
				<path class="st2" d="M606.8,182.4c0,25.5-15.6,42.1-39.5,42.1s-39.5-16.6-39.5-42.1v-29.6c0-0.8-0.4-1.2-1.2-1.2h-36
					c-0.8,0-1.2,0.4-1.2,1.2v12.3c0,1.2-0.8,1.9-1.9,1.9h-11.1c-1.2,0-1.9-0.8-1.9-1.9v-42.3c0-1.2,0.8-1.9,1.9-1.9h11.1
					c1.2,0,1.9,0.8,1.9,1.9v10.3c0,0.8,0.4,1.2,1.2,1.2h100.1c0.8,0,1.2-0.4,1.2-1.2v-10.3c0-1.2,0.8-1.9,1.9-1.9h11.1
					c1.2,0,1.9,0.8,1.9,1.9V182.4z M590.6,152.8c0-0.8-0.4-1.2-1.2-1.2h-44.4c-0.8,0-1.2,0.4-1.2,1.2v28.6c0,16.4,9,25.9,23.4,25.9
					c14.2,0,23.4-9.5,23.4-25.9V152.8z"/>
				<path class="st2" d="M544.7,318c-6.4,2.1-12.9,3.1-23.6,3.1c-10.9,0-17.3-1-23.8-3.1c-15.8-5.1-25.1-18.7-25.1-36.8
					s9.3-31.7,25.1-36.8c6.4-2.1,12.9-3.1,23.8-3.1c10.7,0,17.1,1,23.6,3.1c16,5.1,25.1,18.7,25.1,36.8S560.6,312.9,544.7,318z
					 M540,260.1c-5.1-1.6-9.9-2.1-18.9-2.1s-14,0.6-19.1,2.1c-9.3,3.1-14.6,10.7-14.6,21c0,10.3,5.3,17.9,14.6,21
					c5.1,1.6,10.1,2.1,19.1,2.1s13.8-0.6,18.9-2.1c9.3-3.1,14.6-10.7,14.6-21C554.6,270.9,549.3,263.3,540,260.1z"/>
				<path class="st2" d="M563.6,407.2c-0.6,1.2-1.4,1.6-2.7,1.6h-18.3c-1.2,0-1.9-0.8-1.9-1.9v-11.1c0-1.2,0.8-1.9,1.9-1.9h8.8
					c0.8,0,1.2-0.2,1.6-1c1.6-3.5,2.7-9.5,2.7-16.6c0-12.5-4.7-18.7-12.3-18.7c-7.2,0-11.5,4.1-13,18.1l-1,9.9
					c-2.3,20.6-11.9,28.6-27.1,28.6c-18.5,0-30-13.4-30-38.2c0-13.6,3.1-25.3,7.6-33.7c0.6-1,1.2-1.4,2.5-1.4h19.5
					c1.2,0,1.9,0.8,1.9,1.9v11.7c0,1.2-0.8,1.9-1.9,1.9h-9.9c-1,0-1.4,0.4-1.6,1c-2.5,5.8-3.5,12.9-3.5,19.7
					c0,14,5.1,20.8,13.8,20.8c7.8,0,12.1-4.1,13.6-18.9l1.2-9.9c2.1-18.9,11.3-27.9,26.5-27.9c17.1,0,27.9,12.9,27.9,35.1
					C569.8,389.1,567.3,399.2,563.6,407.2z"/>
				<path class="st2" d="M597.1,456.1c0,1.2-0.8,1.9-1.9,1.9h-26.3c-0.8,0-1.2,0.4-1.2,1.2V474c0,1.2-0.8,1.9-1.9,1.9h-11.1
					c-1.2,0-1.9-0.8-1.9-1.9v-14.8c0-0.8-0.4-1.2-1.2-1.2h-50.1c-9.3,0-12.1,3.5-12.1,11.7v4.3c0,1.2-0.8,1.9-1.9,1.9h-11.5
					c-1.2,0-1.9-0.8-1.9-1.9v-7.2c0-18.3,8.4-25.1,26.7-25.1h50.8c0.8,0,1.2-0.4,1.2-1.2v-8c0-1.2,0.8-1.9,1.9-1.9h11.1
					c1.2,0,1.9,0.8,1.9,1.9v8c0,0.8,0.4,1.2,1.2,1.2h26.3c1.2,0,1.9,0.8,1.9,1.9V456.1z"/>
				<path class="st2" d="M544.7,571.2c-6,1.9-12.5,2.9-26.7,2.9c-1.2,0-1.9-0.8-1.9-2.1v-59c0-0.8-0.4-1.2-1.2-1.2
					c-5.1,0-8.2,0.6-11.3,1.6c-10.7,3.7-16.2,12.1-16.2,23.6c0,11.1,4.5,18.9,10.3,24c1,1,1.2,1.9,0.4,2.9l-7.2,8
					c-0.8,1-1.8,1-2.7,0.2c-9.3-7.4-16-20.1-16-36.4c0-18.9,9.2-32.3,25.3-37.4c6-1.9,12.9-3.1,23.6-3.1s17.9,1,23.6,2.9
					c16.2,5.3,25.1,18.9,25.1,36.6C569.8,552.5,560.6,565.9,544.7,571.2z M540.8,513.1c-2.9-1-6.2-1.4-10.5-1.4
					c-0.8,0-1.2,0.4-1.2,1.2v43.2c0,0.8,0.4,1.2,1.2,1.2c4.3,0,7.6-0.4,10.5-1.4c9.3-3.1,14.6-10.9,14.6-21.4
					C555.4,524,550.1,516.3,540.8,513.1z"/>
				<path class="st2" d="M568,655.1c-0.4,1.4-0.8,1.9-1.9,1.9h-12.5c-1.4,0-2.1-0.8-1.8-2.3c0.6-2.9,1.6-7.2,1.6-11.5
					c0-14-8.8-22.8-27.7-22.8h-35.3c-0.8,0-1.2,0.4-1.2,1.2v10.7c0,1.2-0.8,1.9-1.9,1.9h-11.1c-1.2,0-1.9-0.8-1.9-1.9v-39
					c0-1.2,0.8-1.9,1.9-1.9h11.1c1.2,0,1.9,0.8,1.9,1.9v9.5c0,0.8,0.4,1.2,1.2,1.2h61c0.8,0,1.2-0.4,1.2-1.2v-9.5
					c0-1.2,0.8-1.9,1.9-1.9h11.1c1.2,0,1.9,0.8,1.9,1.9v25.1c0,1.2-0.8,1.9-1.9,1.9h-11.5v0.2c8,3.9,15,11.9,15,24.5
					C569.2,649.9,568.4,653.6,568,655.1z"/>
			</g>
		</g>
		<g>
			<path class="st2" d="M462.5,480.3c0,1.2-0.8,1.9-1.9,1.9h-11.3c-1.2,0-1.9-0.8-1.9-1.9V122c0-1.2,0.8-1.9,1.9-1.9h11.3
				c1.2,0,1.9,0.8,1.9,1.9V480.3z"/>
		</g>
	</g>
</g>
</svg>
