<?xml version="1.0" encoding="utf-8"?>
<!-- Generator: Adobe Illustrator 24.0.2, SVG Export Plug-In . SVG Version: 6.00 Build 0)  -->
<svg version="1.1" id="Layer_1" xmlns="http://www.w3.org/2000/svg" xmlns:xlink="http://www.w3.org/1999/xlink" x="0px" y="0px"
	 viewBox="0 0 24.2 23.6" style="enable-background:new 0 0 24.2 23.6;" xml:space="preserve">
<style type="text/css">
	.st0{fill:none;stroke:#0A0A08;stroke-width:1.4;stroke-linejoin:round;stroke-miterlimit:10;}
	.st1{fill:#0A0A08;}
</style>
<path class="st0" d="M10.1,19.9h3.8v-9.2h2.5l0.3-3.1h-2.9V6.1c0-0.8,0.1-1.3,1.2-1.3h1.6V1.6h-2.5c-3,0-4.1,1.5-4.1,4.1v1.9H8.2
	v3.1h1.9L10.1,19.9L10.1,19.9z"/>
<path class="st1" d="M43.4,518.8H88V410.3h29.9l4-37.3H88v-18.6c0-10,0.7-15.3,14.6-15.3h18.6v-37.3H91.3c-35.9,0-48.6,18-48.6,48.6
	V373H20.1v37.3h22.6v108.5L43.4,518.8L43.4,518.8z"/>
<g>
	<path class="st1" d="M-275.6,305.3c34.2,0,38.2,0.1,51.7,0.7c12.5,0.6,19.3,2.7,23.8,4.4c6,2.3,10.2,5.1,14.7,9.6s7.3,8.7,9.6,14.7
		c1.8,4.5,3.8,11.3,4.4,23.8c0.6,13.5,0.7,17.5,0.7,51.7s-0.1,38.2-0.7,51.7c-0.6,12.5-2.7,19.3-4.4,23.8c-2.3,6-5.1,10.2-9.6,14.7
		s-8.7,7.3-14.7,9.6c-4.5,1.8-11.3,3.8-23.8,4.4c-13.5,0.6-17.5,0.7-51.7,0.7s-38.2-0.1-51.7-0.7c-12.5-0.6-19.3-2.7-23.8-4.4
		c-6-2.3-10.2-5.1-14.7-9.6s-7.3-8.7-9.6-14.7c-1.8-4.5-3.8-11.3-4.4-23.8c-0.6-13.5-0.7-17.5-0.7-51.7s0.1-38.2,0.7-51.7
		c0.6-12.5,2.7-19.3,4.4-23.8c2.3-6,5.1-10.2,9.6-14.7s8.7-7.3,14.7-9.6c4.5-1.8,11.3-3.8,23.8-4.4
		C-313.9,305.5-309.8,305.3-275.6,305.3 M-275.6,282.3c-34.8,0-39.1,0.1-52.8,0.8c-13.6,0.6-22.9,2.8-31.1,5.9
		c-8.4,3.3-15.6,7.6-22.7,14.8s-11.5,14.3-14.8,22.7c-3.2,8.1-5.3,17.4-5.9,31.1s-0.8,18-0.8,52.8s0.1,39.1,0.8,52.8
		c0.6,13.6,2.8,22.9,5.9,31.1c3.3,8.4,7.6,15.6,14.8,22.7c7.2,7.1,14.3,11.5,22.7,14.8c8.1,3.2,17.4,5.3,31.1,5.9
		c13.7,0.6,18,0.8,52.8,0.8s39.1-0.1,52.8-0.8c13.6-0.6,22.9-2.8,31.1-5.9c8.4-3.3,15.6-7.6,22.7-14.8c7.1-7.2,11.5-14.3,14.8-22.7
		c3.2-8.1,5.3-17.4,5.9-31.1c0.6-13.7,0.8-18,0.8-52.8s-0.1-39.1-0.8-52.8c-0.6-13.6-2.8-22.9-5.9-31.1c-3.3-8.4-7.6-15.6-14.8-22.7
		s-14.3-11.5-22.7-14.8c-8.1-3.2-17.4-5.3-31.1-5.9C-236.5,282.4-240.9,282.3-275.6,282.3z M-275.6,344.6
		c-36.3,0-65.7,29.4-65.7,65.7s29.4,65.7,65.7,65.7s65.7-29.4,65.7-65.7S-239.3,344.6-275.6,344.6z M-275.6,452.9
		c-23.6,0-42.7-19.1-42.7-42.7c0-23.6,19.1-42.7,42.7-42.7s42.7,19.1,42.7,42.7C-233,433.8-252.1,452.9-275.6,452.9z M-191.9,342
		c0,8.5-6.9,15.4-15.4,15.4s-15.4-6.9-15.4-15.4s6.9-15.4,15.4-15.4S-191.9,333.5-191.9,342z"/>
</g>
<g>
	<path class="st1" d="M35.9,3.3c2.8,0,3.1,0,4.2,0.1c1,0,1.6,0.2,1.9,0.4c0.5,0.2,0.8,0.4,1.2,0.8C43.6,5,43.8,5.3,44,5.8
		c0.1,0.4,0.3,0.9,0.4,1.9c0,1.1,0.1,1.4,0.1,4.2s0,3.1-0.1,4.2c0,1-0.2,1.6-0.4,1.9c-0.2,0.5-0.4,0.8-0.8,1.2
		c-0.4,0.4-0.7,0.6-1.2,0.8c-0.4,0.1-0.9,0.3-1.9,0.4c-1.1,0-1.4,0.1-4.2,0.1c-2.8,0-3.1,0-4.2-0.1c-1,0-1.6-0.2-1.9-0.4
		c-0.5-0.2-0.8-0.4-1.2-0.8S28,18.5,27.8,18c-0.1-0.4-0.3-0.9-0.4-1.9c0-1.1-0.1-1.4-0.1-4.2s0-3.1,0.1-4.2c0-1,0.2-1.6,0.4-1.9
		C28,5.3,28.2,5,28.6,4.6c0.4-0.5,0.7-0.7,1.2-0.9c0.4-0.1,0.9-0.3,1.9-0.4C32.8,3.3,33.1,3.3,35.9,3.3 M35.9,1.4
		c-2.8,0-3.1,0-4.2,0.1c-1.2,0-1.9,0.2-2.6,0.5c-0.7,0.2-1.3,0.6-1.8,1.1c-0.6,0.6-0.9,1.2-1.2,1.9c-0.3,0.6-0.4,1.4-0.5,2.5
		c0,1.1-0.1,1.4-0.1,4.2s0,3.1,0.1,4.2c0,1.1,0.2,1.8,0.5,2.5c0.3,0.7,0.6,1.3,1.2,1.8c0.6,0.6,1.2,0.9,1.8,1.2
		c0.7,0.4,1.4,0.5,2.5,0.6s1.5,0,4.3,0c2.8,0,3.1,0,4.2-0.1c1.1,0,1.8-0.2,2.5-0.5s1.3-0.6,1.8-1.2c0.6-0.6,0.9-1.2,1.2-1.8
		c0.3-0.7,0.4-1.4,0.5-2.5c0-1.1,0.1-1.4,0.1-4.2s0-3.1-0.1-4.2c0-1.1-0.2-1.8-0.5-2.5S45,3.7,44.4,3.2c-0.6-0.5-1.1-1-1.8-1.2
		c-0.7-0.3-1.4-0.4-2.5-0.5C39,1.4,38.7,1.4,35.9,1.4z M35.9,6.4c-2.9,0-5.3,2.4-5.3,5.3s2.3,5.3,5.3,5.3s5.3-2.4,5.3-5.3
		S38.8,6.4,35.9,6.4z M35.9,15.2c-1.9,0-3.4-1.5-3.4-3.4s1.5-3.4,3.4-3.4c1.9,0,3.4,1.5,3.4,3.4S37.8,15.2,35.9,15.2z M42.6,6.2
		c0,0.7-0.6,1.2-1.2,1.2c-0.6,0-1.2-0.6-1.2-1.2S40.7,5,41.4,5S42.6,5.5,42.6,6.2z"/>
</g>
</svg>
