<?xml version="1.0" encoding="utf-8"?>
<!-- Generator: Adobe Illustrator 24.0.2, SVG Export Plug-In . SVG Version: 6.00 Build 0)  -->
<svg version="1.1" id="Layer_1" xmlns="http://www.w3.org/2000/svg" xmlns:xlink="http://www.w3.org/1999/xlink" x="0px" y="0px"
	 viewBox="0 0 24.2 23.6" style="enable-background:new 0 0 24.2 23.6;" xml:space="preserve">
<path d="M12.1,1.4c-2.8,0-3.2,0-4.3,0.1C6.7,1.5,5.9,1.7,5.3,1.9C4.6,2.2,4,2.6,3.5,3.1C2.9,3.7,2.5,4.3,2.3,5
	C2,5.6,1.8,6.4,1.8,7.5c0,1.1-0.1,1.5-0.1,4.3s0,3.2,0.1,4.3c0.1,1.1,0.2,1.8,0.5,2.5c0.3,0.7,0.6,1.3,1.2,1.8
	c0.6,0.6,1.1,0.9,1.8,1.2c0.7,0.3,1.4,0.4,2.5,0.5C8.9,22,9.2,22,12,22c2.8,0,3.2,0,4.3-0.1c1.1-0.1,1.8-0.2,2.5-0.5
	c0.7-0.3,1.3-0.6,1.8-1.2c0.6-0.6,0.9-1.1,1.2-1.8c0.3-0.7,0.4-1.4,0.5-2.5c0-1.1,0.1-1.5,0.1-4.3s0-3.2-0.1-4.3
	c-0.1-1.1-0.2-1.8-0.5-2.5c-0.3-0.7-0.6-1.3-1.2-1.8c-0.6-0.6-1.1-0.9-1.8-1.2c-0.7-0.3-1.4-0.4-2.5-0.5C15.2,1.4,14.9,1.4,12.1,1.4
	L12.1,1.4z M11.1,3.3c0.3,0,0.6,0,0.9,0c2.8,0,3.1,0,4.2,0.1c1,0,1.6,0.2,1.9,0.4c0.5,0.2,0.8,0.4,1.2,0.8c0.4,0.4,0.6,0.7,0.8,1.2
	c0.1,0.4,0.3,0.9,0.4,1.9c0,1.1,0.1,1.4,0.1,4.2s0,3.1-0.1,4.2c0,1-0.2,1.6-0.4,1.9c-0.2,0.5-0.4,0.8-0.8,1.2
	c-0.4,0.4-0.7,0.6-1.2,0.8c-0.4,0.1-0.9,0.3-1.9,0.4c-1.1,0-1.4,0.1-4.2,0.1c-2.8,0-3.1,0-4.2-0.1c-1,0-1.6-0.2-1.9-0.4
	c-0.5-0.2-0.8-0.4-1.2-0.8c-0.4-0.4-0.6-0.7-0.8-1.2c-0.1-0.4-0.3-0.9-0.4-1.9c0-1.1-0.1-1.4-0.1-4.2s0-3.1,0.1-4.2
	c0-1,0.2-1.6,0.4-1.9c0.2-0.5,0.4-0.8,0.8-1.2C5.1,4.1,5.5,3.9,6,3.7c0.4-0.1,0.9-0.3,1.9-0.4C8.8,3.3,9.2,3.3,11.1,3.3L11.1,3.3z
	 M17.6,5c-0.7,0-1.2,0.6-1.2,1.2c0,0.7,0.6,1.2,1.2,1.2s1.2-0.6,1.2-1.2S18.2,5,17.6,5L17.6,5z M12.1,6.4c-2.9,0-5.3,2.4-5.3,5.3
	S9.1,17,12.1,17c2.9,0,5.3-2.4,5.3-5.3S15,6.4,12.1,6.4L12.1,6.4z M12.1,8.3c1.9,0,3.4,1.5,3.4,3.4c0,1.9-1.5,3.4-3.4,3.4
	c-1.9,0-3.4-1.5-3.4-3.4C8.6,9.8,10.2,8.3,12.1,8.3z"/>
</svg>
